<?xml version="1.0" standalone="no"?>
<!DOCTYPE svg PUBLIC "-//W3C//DTD SVG 1.1//EN" "http://www.w3.org/Graphics/SVG/1.1/DTD/svg11.dtd" >
<svg xmlns="http://www.w3.org/2000/svg">
<metadata></metadata>
<defs>
<font id="aften_screen_scregular" horiz-adv-x="648" >
<font-face units-per-em="1000" ascent="700" descent="-300" />
<missing-glyph horiz-adv-x="250" />
<glyph unicode="ff" horiz-adv-x="934" d="M168 473v-190h225v-65h-225v-218h-78v537h323v-64h-245zM635 473v-190h225v-65h-225v-218h-78v537h323v-64h-245z" />
<glyph unicode="fi" horiz-adv-x="725" d="M168 473v-190h225v-65h-225v-218h-78v537h323v-64h-245zM557 0v537h78v-537h-78z" />
<glyph unicode="fl" horiz-adv-x="929" d="M168 473v-190h225v-65h-225v-218h-78v537h323v-64h-245zM635 537v-473h252v-64h-330v537h78z" />
<glyph unicode="ffi" horiz-adv-x="1192" d="M168 473v-190h225v-65h-225v-218h-78v537h323v-64h-245zM635 473v-190h225v-65h-225v-218h-78v537h323v-64h-245zM1024 0v537h78v-537h-78z" />
<glyph unicode="ffl" horiz-adv-x="1396" d="M168 473v-190h225v-65h-225v-218h-78v537h323v-64h-245zM635 473v-190h225v-65h-225v-218h-78v537h323v-64h-245zM1102 537v-473h252v-64h-330v537h78z" />
<glyph horiz-adv-x="0" />
<glyph horiz-adv-x="0" />
<glyph unicode=" "  horiz-adv-x="250" />
<glyph unicode="&#x09;" horiz-adv-x="250" />
<glyph unicode="&#xa0;" horiz-adv-x="250" />
<glyph unicode="!" horiz-adv-x="265" d="M95 153v384h72v-384h-72zM181 44q0 -23 -14.5 -37t-34.5 -14q-19 0 -34 14t-15 37t15 36t34 13q20 0 34.5 -13t14.5 -36z" />
<glyph unicode="$" horiz-adv-x="527" d="M226 -11q-63 3 -108 32.5t-63 66.5l52 37q17 -27 48.5 -50t70.5 -28v191q-29 8 -57 19t-49.5 28.5t-35 43.5t-13.5 64q0 33 12.5 59t34 44.5t49.5 29.5t59 15v55h62v-55q61 -5 100.5 -29.5t56.5 -54.5l-53 -39q-14 23 -38.5 43t-65.5 25v-183q30 -8 59 -18.5t52 -27.5 t37 -42t14 -62q0 -64 -44.5 -108.5t-117.5 -53.5v-54h-62v52zM381 139q0 22 -7.5 37t-20.5 25.5t-30 17t-35 10.5v-181q41 4 67 27t26 64zM140 401q0 -38 25.5 -59.5t60.5 -26.5v172q-42 -2 -64 -27t-22 -59z" />
<glyph unicode="%" horiz-adv-x="853" d="M345 363q0 -84 -40 -133.5t-110 -49.5q-72 0 -113 49.5t-41 133.5q0 83 41 132t113 49q70 0 110 -49t40 -132zM283 362q0 60 -24 96t-66 36t-66.5 -36t-24.5 -96t24.5 -95.5t66.5 -35.5t66 35.5t24 95.5zM284 0h-64l347 537h67zM813 172q0 -84 -40 -133.5t-110 -49.5 q-72 0 -113 49.5t-41 133.5q0 83 41 132t113 49q70 0 110 -49t40 -132zM751 171q0 60 -24 96t-66 36t-66.5 -36t-24.5 -96t24.5 -95.5t66.5 -35.5t66 35.5t24 95.5z" />
<glyph unicode="&#x26;" horiz-adv-x="533" d="M485 221q-2 -38 -16 -72t-31 -55l69 -76l-59 -30l-53 60q-24 -23 -63.5 -41.5t-95.5 -18.5q-39 0 -74 10.5t-62 31t-43 50t-16 68.5q0 30 10 55.5t27 45t40 34.5t49 24q-26 23 -43.5 55.5t-17.5 69.5q0 54 39 85.5t102 31.5q33 0 59 -9t43 -24.5t26 -36.5t9 -44 q0 -26 -10 -47.5t-27 -40t-39 -33t-47 -24.5l133 -151q14 13 20 37t6 45h65zM243 45q38 0 66.5 13t48.5 31l-156 178q-35 -14 -60.5 -41.5t-25.5 -68.5q0 -21 8 -41.5t23.5 -36t39.5 -25t56 -9.5zM176 426q0 -29 15.5 -52.5t34.5 -42.5q45 14 69 42t24 60q0 29 -19 47.5 t-51 18.5q-36 0 -54.5 -22.5t-18.5 -50.5z" />
<glyph unicode="(" horiz-adv-x="240" d="M50 259q0 93 18 165.5t40 122.5q26 59 59 104h60q-31 -53 -55 -115q-21 -54 -38 -124.5t-17 -152.5q0 -81 17 -151.5t38 -124.5q24 -62 57 -113h-62q-33 44 -59 103q-22 50 -40 122t-18 164z" />
<glyph unicode=")" horiz-adv-x="240" d="M190 265q0 -93 -18 -165.5t-40 -122.5q-26 -59 -59 -104h-60q31 53 55 115q21 54 38 124.5t17 152.5q0 81 -17 151.5t-38 124.5q-24 62 -57 113h62q33 -44 59 -103q22 -50 40 -122t18 -164z" />
<glyph unicode="/" horiz-adv-x="425" d="M82 -190h-68l330 871h68z" />
<glyph unicode="0" horiz-adv-x="580" d="M289 549q49 0 92 -16.5t75 -50.5t50.5 -86.5t18.5 -124.5q0 -73 -18.5 -126t-50.5 -88t-75 -52t-92 -17t-91.5 17t-74 52t-50 88t-18.5 126t18.5 125.5t50 86.5t74 50t91.5 16zM289 48q70 0 115 54t45 169q0 57 -12 98t-33 68t-50.5 39.5t-64.5 12.5q-34 0 -63 -13 t-50 -39.5t-33 -68t-12 -97.5q0 -57 12 -99t33 -69.5t50 -41t63 -13.5z" />
<glyph unicode="1" horiz-adv-x="444" d="M57 60h147v374q-26 -11 -59.5 -19.5t-62.5 -8.5l-15 55q22 0 46.5 6t47.5 16.5t42 24t31 29.5h46v-477h130v-60h-353v60z" />
<glyph unicode="2" horiz-adv-x="490" d="M55 398q0 29 11.5 56.5t34 48.5t56 33.5t78.5 12.5q35 0 68.5 -11t59.5 -33t41.5 -55t15.5 -76q0 -45 -19.5 -88.5t-52 -83.5t-74.5 -75t-87 -63h249v-64h-371v52q55 31 106 68.5t89.5 78.5t61.5 84.5t23 88.5q0 50 -30 83.5t-84 33.5q-28 0 -48.5 -9t-34 -23.5 t-20 -33.5t-6.5 -40q0 -15 2.5 -34t7.5 -30l-67 20q-5 11 -7.5 28t-2.5 31z" />
<glyph unicode="3" horiz-adv-x="490" d="M330 406q0 15 -5.5 30t-18 27t-32 20t-47.5 8q-47 0 -72 -22t-42 -61l-52 44q23 48 69.5 73t98.5 25q42 0 75 -11t55 -30t33.5 -43t11.5 -51q0 -36 -15 -60.5t-32 -38.5q-20 -17 -46 -26q34 -8 61 -26q23 -16 42 -44t19 -75q0 -32 -13.5 -60.5t-39.5 -50t-63.5 -34 t-84.5 -12.5q-51 0 -85.5 14t-55.5 31q-25 20 -39 46l50 57q13 -26 32 -45q16 -17 40.5 -30.5t58.5 -13.5q63 0 93 29t30 72q0 21 -9 40t-25.5 33.5t-40 23t-53.5 8.5q-17 0 -32.5 -0.5t-27.5 -1.5q-14 -1 -26 -2l3 63q16 -1 32 -1h23q63 0 96.5 26t33.5 69z" />
<glyph unicode="4" horiz-adv-x="520" d="M491 141h-95v-141h-71v141h-261l-24 43l25 35l228 318h103v-335h95v-61zM325 202v271l-197 -271h197z" />
<glyph unicode="5" horiz-adv-x="490" d="M256 340q37 0 70.5 -10.5t58 -31.5t39 -53t14.5 -74q0 -83 -55 -133t-152 -50q-63 0 -107.5 28t-63.5 68l48 51q13 -34 47 -60.5t84 -26.5q31 0 54.5 10t38.5 26.5t22.5 37.5t7.5 44q0 54 -31.5 85t-84.5 31q-23 0 -42 -5.5t-33 -11.5q-16 -7 -28 -16l-55 30l37 258h292 v-62h-233l-22 -157q12 6 26 11q12 4 29 7.5t39 3.5z" />
<glyph unicode="6" horiz-adv-x="521" d="M267 -12q-56 0 -94.5 19.5t-62 54.5t-34 83t-10.5 106q0 50 11 102.5t37 96t69 71.5t108 28q25 0 49.5 -5.5t45 -15t35.5 -22t23 -26.5l-45 -53q-15 28 -45 46t-68 18q-40 0 -67 -17.5t-43.5 -47.5t-24 -69t-8.5 -81l6 10.5t21.5 22.5t42 22t67.5 10q51 0 84.5 -17 t53.5 -43.5t28 -57.5t8 -59q0 -23 -8 -53t-29 -57.5t-57.5 -46.5t-92.5 -19zM148 170q0 -25 8 -47.5t23 -39.5t36 -27t47 -10q50 0 82.5 29t32.5 89t-32.5 90.5t-82.5 30.5q-24 0 -44.5 -8.5t-36 -24t-24.5 -36.5t-9 -46z" />
<glyph unicode="7" horiz-adv-x="444" d="M427 537v-47q-43 -53 -78.5 -110t-60.5 -122q-23 -59 -35.5 -122.5t-12.5 -135.5h-76q0 79 14.5 146t38.5 125q25 60 57 110t67 94h-310v62h396z" />
<glyph unicode="8" horiz-adv-x="520" d="M460 144q0 -37 -16 -66t-43 -49t-62.5 -30.5t-74.5 -10.5q-42 0 -79 10t-64.5 29t-44 47t-16.5 63q0 39 16 67t36 45q23 20 53 33q-21 9 -38 26q-14 14 -25.5 37t-11.5 58q0 31 13 57.5t36 46t54.5 31t68.5 11.5q36 0 68 -10t55.5 -28.5t37 -44.5t13.5 -57q0 -34 -13 -58 t-29 -39q-18 -18 -41 -30q29 -12 53 -30q20 -16 37 -42.5t17 -65.5zM162 400q0 -21 8.5 -38.5t22 -29.5t31.5 -18.5t38 -6.5t38.5 6.5t32.5 18.5t22.5 29.5t8.5 38.5q0 22 -8.5 39t-22.5 28.5t-32.5 17.5t-38.5 6t-38 -6t-31.5 -17.5t-22 -28.5t-8.5 -39zM136 145 q0 -43 35.5 -70t87.5 -27q26 0 48.5 7t39.5 20t27 31t10 39q0 50 -35.5 77.5t-89.5 27.5t-88.5 -27.5t-34.5 -77.5z" />
<glyph unicode="9" horiz-adv-x="520" d="M256 549q101 0 150.5 -70t49.5 -192q0 -53 -11.5 -106.5t-37.5 -96.5t-70 -69.5t-108 -26.5q-57 0 -98 20t-56 49l43 49q14 -23 45.5 -41.5t69.5 -18.5t65.5 16.5t45 46t26.5 69.5t10 87q-14 -28 -50 -46.5t-90 -18.5q-51 0 -84.5 16.5t-53.5 42t-28 56t-8 57.5 q0 23 10 53.5t32.5 58t58.5 46.5t89 19zM372 366q0 52 -30 88.5t-86 36.5q-50 0 -81.5 -31t-31.5 -88t32.5 -86.5t82.5 -29.5q24 0 44.5 8t36 23t24.5 35t9 44z" />
<glyph unicode="?" horiz-adv-x="380" d="M31 470q15 32 53.5 55.5t91.5 23.5q34 0 65.5 -8t55.5 -25.5t38 -44t14 -63.5q0 -48 -21 -77.5t-46 -46.5q-30 -20 -67 -29v-101h-72v138q21 0 45 5.5t43.5 19t32.5 34.5t13 53q0 36 -25.5 62.5t-76.5 26.5q-37 0 -58 -16t-27 -39zM228 44q0 -23 -15 -37t-35 -14 q-19 0 -33.5 14t-14.5 37t14.5 36t33.5 13q20 0 35 -13t15 -36z" />
<glyph unicode="A" horiz-adv-x="550" d="M29 0l199 537h94l198 -537h-71l-52 144h-248l-51 -144h-69zM169 200h208l-104 295z" />
<glyph unicode="B" horiz-adv-x="543" d="M354 284q37 -7 66 -24q25 -14 45.5 -39.5t20.5 -67.5q0 -76 -53 -114.5t-156 -38.5h-187v537h200q80 0 127.5 -34.5t47.5 -100.5q0 -35 -17.5 -57t-38.5 -35q-25 -15 -55 -22v-4zM162 308h108q54 0 84.5 24.5t30.5 65.5q0 82 -115 82h-108v-172zM278 57q63 0 95.5 21 t32.5 76q0 43 -31.5 70.5t-96.5 27.5h-116v-195h116z" />
<glyph unicode="C" horiz-adv-x="556" d="M447 408q-23 38 -56 57.5t-81 19.5q-35 0 -66 -14.5t-54 -42.5t-36.5 -68t-13.5 -92q0 -104 47.5 -160t127.5 -56q49 0 80 16.5t52 54.5l63 -41q-34 -48 -85 -71t-110 -23q-57 0 -104 20.5t-80.5 58t-52 88.5t-18.5 113q0 61 19.5 112.5t53.5 89t79.5 58.5t97.5 21 q66 0 117 -26t81 -77z" />
<glyph unicode="D" horiz-adv-x="591" d="M90 0v537h184q67 0 116 -18.5t81 -53.5t47.5 -85t15.5 -113q0 -125 -63 -196t-197 -71h-184zM270 64q51 0 86.5 12.5t57 38t31 63.5t9.5 89q0 100 -42.5 153t-145.5 53h-98v-409h102z" />
<glyph unicode="E" horiz-adv-x="513" d="M168 473v-169h251v-64h-251v-176h282v-64h-360v537h348v-64h-270z" />
<glyph unicode="F" horiz-adv-x="467" d="M168 473v-190h225v-65h-225v-218h-78v537h323v-64h-245z" />
<glyph unicode="G" horiz-adv-x="602" d="M475 93q-27 -58 -70 -81.5t-102 -23.5q-52 0 -96.5 20t-77 56.5t-51 87.5t-18.5 112q0 63 19.5 115.5t54.5 90t83 58.5t105 21q60 0 113 -25.5t84 -75.5l-59 -41q-22 42 -60.5 60t-80.5 18q-39 0 -72 -14.5t-56.5 -42.5t-37 -69t-13.5 -93q0 -102 47.5 -158t127.5 -56 q38 0 65.5 10.5t45 28.5t26 40.5t8.5 46.5v24h-143v62h219v-264h-53z" />
<glyph unicode="H" horiz-adv-x="632" d="M90 0v537h78v-238h296v238h78v-537h-78v235h-296v-235h-78z" />
<glyph unicode="I" horiz-adv-x="258" d="M90 0v537h78v-537h-78z" />
<glyph unicode="J" horiz-adv-x="424" d="M339 537v-361q0 -51 -14 -87t-39.5 -58.5t-60.5 -32.5t-76 -10q-38 0 -65.5 8.5t-44.5 19.5q-20 12 -34 29l55 50q9 -13 22 -23q11 -8 29 -15t42 -7q56 0 82 31t26 102v354h78z" />
<glyph unicode="K" horiz-adv-x="544" d="M90 537h78v-272l250 272h80l-215 -230l228 -307h-88l-189 266l-66 -66v-200h-78v537z" />
<glyph unicode="L" horiz-adv-x="462" d="M168 537v-473h252v-64h-330v537h78z" />
<glyph unicode="M" horiz-adv-x="726" d="M320 90l-166 374l5 -464h-64v537h89l174 -400l186 400h87v-537h-64l5 464l-178 -374h-74z" />
<glyph unicode="N" horiz-adv-x="608" d="M90 0v537h85l284 -455l-7 455h66v-537h-80l-289 459l7 -459h-66z" />
<glyph unicode="O" d="M588 268q0 -58 -21 -109t-57 -89t-83.5 -60t-101.5 -22q-57 0 -106 20.5t-84 58t-55 88.5t-20 113q0 61 21.5 112.5t58 89t84.5 58.5t101 21q57 0 105 -20.5t83.5 -58t55 -89t19.5 -113.5zM508 268q0 108 -50.5 162.5t-132.5 54.5q-38 0 -71.5 -14.5t-58.5 -42.5t-40 -68 t-15 -92t14 -92t38.5 -67.5t58.5 -42t74 -14.5q85 0 134 56t49 160z" />
<glyph unicode="P" horiz-adv-x="513" d="M467 362q0 -41 -13.5 -74.5t-37.5 -56.5t-57.5 -35.5t-73.5 -12.5h-117v-183h-78v537h173q103 0 153.5 -47.5t50.5 -127.5zM168 245h106q33 0 55 9t35 24.5t18 36.5t5 44q0 51 -29.5 83.5t-94.5 32.5h-95v-230z" />
<glyph unicode="Q" d="M588 268q0 -38 -10.5 -72.5t-28.5 -65t-42.5 -56t-52.5 -43.5q12 -14 29 -27.5t35 -26t35 -22t31 -15.5l-67 -37q-16 7 -31 19t-28.5 26t-25.5 28.5t-22 26.5q-20 -7 -41 -11t-44 -4q-57 0 -106 20.5t-84 58t-55 88.5t-20 113q0 61 21.5 112.5t57.5 89t83.5 58.5 t100.5 21q57 0 105.5 -20.5t84 -58t55.5 -89t20 -113.5zM508 268q0 108 -51.5 162.5t-133.5 54.5q-38 0 -71 -14.5t-58 -42.5t-39.5 -68t-14.5 -92t14 -92t38.5 -67.5t58.5 -42t74 -14.5q85 0 134 56t49 160z" />
<glyph unicode="R" horiz-adv-x="567" d="M474 377q0 -32 -9 -57t-24 -44t-33.5 -32t-37.5 -20l142 -224h-84l-123 207h-137v-207h-78v537h180q98 0 151 -42.5t53 -117.5zM168 262h111q33 0 55 8t35.5 22t19 33t5.5 42q0 53 -29 83.5t-94 30.5h-103v-219z" />
<glyph unicode="S" horiz-adv-x="491" d="M365 423q-14 27 -46.5 46.5t-78.5 19.5q-48 0 -75.5 -22t-27.5 -58q0 -21 9 -36t24 -25.5t34.5 -18.5t41.5 -15q32 -12 66 -22.5t62 -27t46 -42.5t18 -69q0 -36 -14 -66.5t-39.5 -52t-62 -34t-81.5 -12.5q-74 0 -121.5 29t-61.5 71l53 41q14 -34 48 -57.5t84 -23.5 q24 0 45.5 5.5t37.5 16.5t25.5 27.5t9.5 39.5q0 26 -11 42.5t-30 28t-43.5 19.5t-49.5 17q-30 10 -59 22t-52.5 29t-37.5 41.5t-14 60.5q0 37 15 65.5t40 48t58 29t70 9.5q66 0 110 -25.5t61 -60.5z" />
<glyph unicode="T" horiz-adv-x="490" d="M21 537h448v-64h-185v-473h-78v473h-185v64z" />
<glyph unicode="U" horiz-adv-x="586" d="M163 537v-343q0 -69 36.5 -105.5t99.5 -36.5q70 0 97 34.5t27 103.5v347h78v-353q0 -41 -10.5 -77t-34.5 -62.5t-62.5 -41.5t-93.5 -15t-95.5 14.5t-67 40.5t-39.5 61.5t-13 78.5v354h78z" />
<glyph unicode="V" horiz-adv-x="514" d="M484 537l-177 -537h-94l-187 537h74l162 -491l150 491h72z" />
<glyph unicode="W" horiz-adv-x="823" d="M463 537l132 -488l112 488h72l-141 -537h-90l-132 495l-128 -495h-90l-150 537h72l125 -488l125 488h93z" />
<glyph unicode="X" horiz-adv-x="519" d="M260 240l-147 -240h-83l181 273l-176 264h80l145 -231l138 231h80l-172 -264l183 -273h-84z" />
<glyph unicode="Y" horiz-adv-x="502" d="M19 537h77l154 -286l155 286h78l-197 -331v-206h-74v206z" />
<glyph unicode="Z" horiz-adv-x="490" d="M434 490l-23 -32l-281 -396h317v-62h-404v47l23 32l281 397h-301v61h388v-47z" />
<glyph unicode="[" horiz-adv-x="295" d="M90 651h164v-62h-95v-657h95v-62h-164v781z" />
<glyph unicode="]" horiz-adv-x="295" d="M205 -127h-164v62h95v657h-95v62h164v-781z" />
<glyph unicode="a" horiz-adv-x="550" d="M29 0l199 537h94l198 -537h-71l-52 144h-248l-51 -144h-69zM169 200h208l-104 295z" />
<glyph unicode="b" horiz-adv-x="543" d="M354 284q37 -7 66 -24q25 -14 45.5 -39.5t20.5 -67.5q0 -76 -53 -114.5t-156 -38.5h-187v537h200q80 0 127.5 -34.5t47.5 -100.5q0 -35 -17.5 -57t-38.5 -35q-25 -15 -55 -22v-4zM162 308h108q54 0 84.5 24.5t30.5 65.5q0 82 -115 82h-108v-172zM278 57q63 0 95.5 21 t32.5 76q0 43 -31.5 70.5t-96.5 27.5h-116v-195h116z" />
<glyph unicode="c" horiz-adv-x="556" d="M447 408q-23 38 -56 57.5t-81 19.5q-35 0 -66 -14.5t-54 -42.5t-36.5 -68t-13.5 -92q0 -104 47.5 -160t127.5 -56q49 0 80 16.5t52 54.5l63 -41q-34 -48 -85 -71t-110 -23q-57 0 -104 20.5t-80.5 58t-52 88.5t-18.5 113q0 61 19.5 112.5t53.5 89t79.5 58.5t97.5 21 q66 0 117 -26t81 -77z" />
<glyph unicode="d" horiz-adv-x="591" d="M90 0v537h184q67 0 116 -18.5t81 -53.5t47.5 -85t15.5 -113q0 -125 -63 -196t-197 -71h-184zM270 64q51 0 86.5 12.5t57 38t31 63.5t9.5 89q0 100 -42.5 153t-145.5 53h-98v-409h102z" />
<glyph unicode="e" horiz-adv-x="513" d="M168 473v-169h251v-64h-251v-176h282v-64h-360v537h348v-64h-270z" />
<glyph unicode="f" horiz-adv-x="467" d="M168 473v-190h225v-65h-225v-218h-78v537h323v-64h-245z" />
<glyph unicode="g" horiz-adv-x="602" d="M475 93q-27 -58 -70 -81.5t-102 -23.5q-52 0 -96.5 20t-77 56.5t-51 87.5t-18.5 112q0 63 19.5 115.5t54.5 90t83 58.5t105 21q60 0 113 -25.5t84 -75.5l-59 -41q-22 42 -60.5 60t-80.5 18q-39 0 -72 -14.5t-56.5 -42.5t-37 -69t-13.5 -93q0 -102 47.5 -158t127.5 -56 q38 0 65.5 10.5t45 28.5t26 40.5t8.5 46.5v24h-143v62h219v-264h-53z" />
<glyph unicode="h" horiz-adv-x="632" d="M90 0v537h78v-238h296v238h78v-537h-78v235h-296v-235h-78z" />
<glyph unicode="i" horiz-adv-x="258" d="M90 0v537h78v-537h-78z" />
<glyph unicode="j" horiz-adv-x="424" d="M339 537v-361q0 -51 -14 -87t-39.5 -58.5t-60.5 -32.5t-76 -10q-38 0 -65.5 8.5t-44.5 19.5q-20 12 -34 29l55 50q9 -13 22 -23q11 -8 29 -15t42 -7q56 0 82 31t26 102v354h78z" />
<glyph unicode="k" horiz-adv-x="544" d="M90 537h78v-272l250 272h80l-215 -230l228 -307h-88l-189 266l-66 -66v-200h-78v537z" />
<glyph unicode="l" horiz-adv-x="462" d="M168 537v-473h252v-64h-330v537h78z" />
<glyph unicode="m" horiz-adv-x="726" d="M320 90l-166 374l5 -464h-64v537h89l174 -400l186 400h87v-537h-64l5 464l-178 -374h-74z" />
<glyph unicode="n" horiz-adv-x="608" d="M90 0v537h85l284 -455l-7 455h66v-537h-80l-289 459l7 -459h-66z" />
<glyph unicode="o" d="M588 268q0 -58 -21 -109t-57 -89t-83.5 -60t-101.5 -22q-57 0 -106 20.5t-84 58t-55 88.5t-20 113q0 61 21.5 112.5t58 89t84.5 58.5t101 21q57 0 105 -20.5t83.5 -58t55 -89t19.5 -113.5zM508 268q0 108 -50.5 162.5t-132.5 54.5q-38 0 -71.5 -14.5t-58.5 -42.5t-40 -68 t-15 -92t14 -92t38.5 -67.5t58.5 -42t74 -14.5q85 0 134 56t49 160z" />
<glyph unicode="p" horiz-adv-x="513" d="M467 362q0 -41 -13.5 -74.5t-37.5 -56.5t-57.5 -35.5t-73.5 -12.5h-117v-183h-78v537h173q103 0 153.5 -47.5t50.5 -127.5zM168 245h106q33 0 55 9t35 24.5t18 36.5t5 44q0 51 -29.5 83.5t-94.5 32.5h-95v-230z" />
<glyph unicode="q" d="M588 268q0 -38 -10.5 -72.5t-28.5 -65t-42.5 -56t-52.5 -43.5q12 -14 29 -27.5t35 -26t35 -22t31 -15.5l-67 -37q-16 7 -31 19t-28.5 26t-25.5 28.5t-22 26.5q-20 -7 -41 -11t-44 -4q-57 0 -106 20.5t-84 58t-55 88.5t-20 113q0 61 21.5 112.5t57.5 89t83.5 58.5 t100.5 21q57 0 105.5 -20.5t84 -58t55.5 -89t20 -113.5zM508 268q0 108 -51.5 162.5t-133.5 54.5q-38 0 -71 -14.5t-58 -42.5t-39.5 -68t-14.5 -92t14 -92t38.5 -67.5t58.5 -42t74 -14.5q85 0 134 56t49 160z" />
<glyph unicode="r" horiz-adv-x="567" d="M474 377q0 -32 -9 -57t-24 -44t-33.5 -32t-37.5 -20l142 -224h-84l-123 207h-137v-207h-78v537h180q98 0 151 -42.5t53 -117.5zM168 262h111q33 0 55 8t35.5 22t19 33t5.5 42q0 53 -29 83.5t-94 30.5h-103v-219z" />
<glyph unicode="s" horiz-adv-x="491" d="M365 423q-14 27 -46.5 46.5t-78.5 19.5q-48 0 -75.5 -22t-27.5 -58q0 -21 9 -36t24 -25.5t34.5 -18.5t41.5 -15q32 -12 66 -22.5t62 -27t46 -42.5t18 -69q0 -36 -14 -66.5t-39.5 -52t-62 -34t-81.5 -12.5q-74 0 -121.5 29t-61.5 71l53 41q14 -34 48 -57.5t84 -23.5 q24 0 45.5 5.5t37.5 16.5t25.5 27.5t9.5 39.5q0 26 -11 42.5t-30 28t-43.5 19.5t-49.5 17q-30 10 -59 22t-52.5 29t-37.5 41.5t-14 60.5q0 37 15 65.5t40 48t58 29t70 9.5q66 0 110 -25.5t61 -60.5z" />
<glyph unicode="t" horiz-adv-x="490" d="M21 537h448v-64h-185v-473h-78v473h-185v64z" />
<glyph unicode="u" horiz-adv-x="586" d="M163 537v-343q0 -69 36.5 -105.5t99.5 -36.5q70 0 97 34.5t27 103.5v347h78v-353q0 -41 -10.5 -77t-34.5 -62.5t-62.5 -41.5t-93.5 -15t-95.5 14.5t-67 40.5t-39.5 61.5t-13 78.5v354h78z" />
<glyph unicode="v" horiz-adv-x="514" d="M484 537l-177 -537h-94l-187 537h74l162 -491l150 491h72z" />
<glyph unicode="w" horiz-adv-x="823" d="M463 537l132 -488l112 488h72l-141 -537h-90l-132 495l-128 -495h-90l-150 537h72l125 -488l125 488h93z" />
<glyph unicode="x" horiz-adv-x="519" d="M260 240l-147 -240h-83l181 273l-176 264h80l145 -231l138 231h80l-172 -264l183 -273h-84z" />
<glyph unicode="y" horiz-adv-x="502" d="M19 537h77l154 -286l155 286h78l-197 -331v-206h-74v206z" />
<glyph unicode="z" horiz-adv-x="490" d="M434 490l-23 -32l-281 -396h317v-62h-404v47l23 32l281 397h-301v61h388v-47z" />
<glyph unicode="{" horiz-adv-x="348" d="M307 -130q-47 0 -78 9.5t-48.5 25.5t-25 38.5t-7.5 48.5v169q0 28 -23 46t-55 18v72q32 2 55 18.5t23 45.5v168q0 26 7.5 48.5t25 38.5t48.5 25.5t78 9.5v-52q-24 0 -42.5 -3t-30.5 -12.5t-18.5 -27.5t-6.5 -47v-164q0 -15 -6 -28.5t-16.5 -24.5t-25 -18.5t-30.5 -10.5 v-4q16 -3 30.5 -10.5t25 -18t16.5 -24.5t6 -29v-165q0 -27 6.5 -44.5t19 -27.5t30.5 -14t42 -4v-52z" />
<glyph unicode="}" horiz-adv-x="348" d="M41 654q47 0 78 -9.5t48.5 -25.5t25 -38.5t7.5 -48.5v-169q0 -28 23 -46t55 -18v-72q-32 -2 -55 -18.5t-23 -45.5v-168q0 -26 -7.5 -48.5t-25 -38.5t-48.5 -25.5t-78 -9.5v52q24 0 42.5 3t30.5 12.5t18.5 27.5t6.5 47v164q0 15 6 28.5t16.5 24.5t25 18.5t30.5 10.5v4 q-16 3 -30.5 10.5t-25 18t-16.5 24.5t-6 29v165q0 27 -6.5 44.5t-19 27.5t-30.5 14t-42 4v52z" />
<glyph unicode="&#xa1;" horiz-adv-x="265" d="M95 384.01v-383.977h72v383.977h-72zM181 493.003q0 22.998 -14.5 36.9971q-14.5 14 -34.5 14q-19 0 -34 -14q-15 -13.999 -15 -36.9971q0 -22.999 15 -35.998t34 -12.999q20 0 34.5 12.999t14.5 35.998z" />
<glyph unicode="&#xa2;" horiz-adv-x="535" d="M442 418q-14 25 -41 44t-81 23v-435q49 2 80 22t42 45l62 -37q-8 -17 -24.5 -33t-40 -28.5t-54 -20.5t-65.5 -9v-91h-67v93q-45 7 -82.5 29t-64.5 57.5t-42 83.5t-15 107q0 58 14.5 105.5t41.5 82.5t64.5 57t83.5 30v94h67v-91q36 -1 66 -9.5t53 -21t39.5 -28.5t25.5 -32 zM126 268q0 -84 31.5 -142.5t95.5 -72.5v428q-68 -17 -97.5 -74t-29.5 -139z" />
<glyph unicode="&#xa3;" horiz-adv-x="507" d="M264 223q11 -23 17.5 -48t6.5 -54q0 -10 -3 -18.5t-6 -16.5q-4 -9 -8 -17q13 -4 27 -8q12 -3 27.5 -5t30.5 -2q21 0 31 22t10 54h79q0 -24 -4.5 -49t-17 -46t-35.5 -34t-59 -13q-26 0 -46.5 5.5t-35.5 12.5q-18 8 -32 18q-10 -10 -24 -18q-12 -7 -29 -12.5t-40 -5.5 q-38 0 -63.5 17.5t-25.5 49.5q0 35 21.5 51t47.5 16q14 0 29 -5t26 -10q13 -6 25 -14q0 6 1 11t1.5 10t0.5 9q0 26 -12 50t-28 50h-87v61h55q-17 26 -30 57.5t-13 66.5q0 27 10.5 52.5t32 45t54 31.5t76.5 12q77 0 123 -30.5t61 -69.5l-59 -44q-13 32 -44 57t-82 25 q-46 0 -69.5 -28t-23.5 -64q0 -28 15.5 -56.5t36.5 -54.5h139v-61h-107zM150 36q11 0 19 2.5t14 5.5q7 4 12 9q-7 6 -15 10q-7 4 -15.5 7.5t-16.5 3.5q-7 0 -12.5 -4t-5.5 -14q0 -20 20 -20z" />
<glyph unicode="&#xa4;" horiz-adv-x="598" d="M466 410q22 -29 34 -65.5t12 -78.5q0 -41 -11.5 -76.5t-31.5 -64.5l70 -68l-37 -37l-66 67q-29 -27 -66.5 -41.5t-79.5 -14.5t-80 14.5t-67 41.5l-65 -67l-37 37l68 68q-20 29 -31 64.5t-11 76.5q0 42 12 79t34 66l-72 71l37 37l70 -71q29 25 65 38.5t77 13.5t77 -14 t65 -39l70 72l37 -37zM439 266q0 34 -11.5 63.5t-31.5 51.5t-47 35t-59 13t-59.5 -13t-47.5 -35t-31.5 -51.5t-11.5 -63.5t12 -63.5t32 -52t47.5 -35.5t58.5 -13t58 13t47.5 35.5t32 52t11.5 63.5z" />
<glyph unicode="&#xa5;" horiz-adv-x="540" d="M304 0h-72v143h-154v61h154l-37 61h-117v61h80l-128 211h70l169 -289l170 289h71l-131 -211h79v-61h-117l-37 -61h154v-61h-154v-143z" />
<glyph unicode="&#xb2;" horiz-adv-x="350" d="M53 558q-5 18 -5 31q0 21 9.5 38.5t25.5 30.5t38 20.5t47 7.5t47.5 -7t40 -20t27.5 -33t10 -45q0 -34 -12.5 -61.5t-33.5 -51.5t-49 -44.5t-59 -41.5h171v-52h-266v38q36 22 70 47.5t60.5 52.5t43 54t16.5 52q0 23 -15.5 43t-52.5 20q-28 0 -46 -16.5t-18 -42.5 q0 -15 5 -37z" />
<glyph unicode="&#xb3;" horiz-adv-x="350" d="M40 629q14 25 46.5 41t79.5 16q59 0 88.5 -26t29.5 -59q0 -24 -10.5 -39t-22.5 -23q-15 -10 -33 -14q24 -5 43 -16q17 -10 30.5 -28.5t13.5 -50.5q0 -27 -13 -47.5t-33 -34t-44 -20t-46 -6.5q-23 0 -43.5 3.5t-40 12.5t-34.5 19t-21 20l40 46q8 -18 32.5 -36.5 t58.5 -18.5q16 0 31 3.5t27 10.5t19.5 18.5t7.5 28.5q0 29 -17.5 44.5t-62.5 15.5q-7 0 -17.5 -1t-20.5 -2q-12 -2 -25 -3l2 54q5 -1 20.5 -1.5t20.5 -0.5q32 0 55.5 12t23.5 47q0 19 -16.5 33t-53.5 14q-36 0 -55.5 -14.5t-28.5 -37.5z" />
<glyph unicode="&#xb8;" horiz-adv-x="195" d="M87 17q17 -8 31 -17q71 -44 71 -101q0 -98 -115 -98q-50 0 -84 31l25 37q28 -21 62 -21q50 0 50 50q0 65 -97 111z" />
<glyph unicode="&#xb9;" horiz-adv-x="350" d="M41 378h108v225q-11 -7 -36.5 -11.5t-57.5 -4.5l-6 48q25 0 42 3.5t32.5 9.5t28 14.5t18.5 17.5h38v-302h103v-48h-270v48z" />
<glyph unicode="&#xbc;" horiz-adv-x="800" d="M257 0h-64l347 537h67zM23 236h108v225q-11 -7 -36.5 -11.5t-57.5 -4.5l-6 48q25 0 42 3.5t32.5 9.5t28 14.5t18.5 17.5h38v-302h103v-48h-270v48zM593 351h91v-234h66v-48h-66v-68h-55v68h-179l-18 35l17 26zM629 309l-123 -192h123v192z" />
<glyph unicode="&#xbd;" horiz-adv-x="800" d="M503 229q-5 18 -5 31q0 21 9.5 38.5t25.5 30.5t38 20.5t47 7.5t47.5 -7t40 -20t27.5 -33t10 -45q0 -34 -12.5 -61.5t-33.5 -51.5t-49 -44.5t-59 -41.5h171v-52h-266v38q36 22 70 47.5t60.5 52.5t43 54t16.5 52q0 23 -15.5 43t-52.5 20q-28 0 -46 -16.5t-18 -42.5 q0 -15 5 -37zM257 0h-64l347 537h67zM23 236h108v225q-11 -7 -36.5 -11.5t-57.5 -4.5l-6 48q25 0 42 3.5t32.5 9.5t28 14.5t18.5 17.5h38v-302h103v-48h-270v48z" />
<glyph unicode="&#xbe;" horiz-adv-x="800" d="M257 0h-64l347 537h67zM46 487q14 25 46.5 41t79.5 16q59 0 88.5 -26t29.5 -59q0 -24 -10.5 -39t-22.5 -23q-15 -10 -33 -14q24 -5 43 -16q17 -10 30.5 -28.5t13.5 -50.5q0 -27 -13 -47.5t-33 -34t-44 -20t-46 -6.5q-23 0 -43.5 3.5t-40 12.5t-34.5 19t-21 20l40 46 q8 -18 32.5 -36.5t58.5 -18.5q16 0 31 3.5t27 10.5t19.5 18.5t7.5 28.5q0 29 -17.5 44.5t-62.5 15.5q-7 0 -17.5 -1t-20.5 -2q-12 -2 -25 -3l2 54q5 -1 20.5 -1.5t20.5 -0.5q32 0 55.5 12t23.5 47q0 19 -16.5 33t-53.5 14q-36 0 -55.5 -14.5t-28.5 -37.5zM593 351h91v-234 h66v-48h-66v-68h-55v68h-179l-18 35l17 26zM629 309l-123 -192h123v192z" />
<glyph unicode="&#xbf;" horiz-adv-x="380" d="M349.002 66.0283q-14.999 -31.998 -53.4971 -55.4961q-38.4971 -23.499 -91.4941 -23.499q-33.998 0 -65.4961 8q-31.498 7.99902 -55.4961 25.498q-23.999 17.499 -37.998 43.9971q-13.999 26.499 -13.999 63.4971q0 47.9961 20.998 77.4951 q20.999 29.498 45.998 46.4971q29.998 19.998 66.9951 28.998v100.994h71.9961v-137.992q-20.999 0 -44.9971 -5.49902q-23.999 -5.5 -43.498 -18.999q-19.498 -13.499 -32.498 -34.498q-12.999 -20.999 -12.999 -52.9971q0 -35.9971 25.499 -62.4961 q25.498 -26.498 76.4951 -26.498q36.998 0 57.9961 15.999q20.999 15.999 26.999 38.9971zM152.014 492.003q0 22.998 14.999 36.9971q14.999 14 34.998 14q18.999 0 33.498 -14q14.499 -13.999 14.499 -36.9971q0 -22.999 -14.499 -35.998t-33.498 -12.999 q-19.999 0 -34.998 12.999t-14.999 35.998z" />
<glyph unicode="&#xc0;" horiz-adv-x="550" d="M29 0l199 537h94l198 -537h-71l-52 144h-248l-51 -144h-69zM169 200h208l-104 295zM362 657l-41 -41l-145 146l41 41z" />
<glyph unicode="&#xc1;" horiz-adv-x="550" d="M29 0l199 537h94l198 -537h-71l-52 144h-248l-51 -144h-69zM169 200h208l-104 295zM367 803l41 -41l-145 -146l-41 41z" />
<glyph unicode="&#xc2;" horiz-adv-x="550" d="M29 0l199 537h94l198 -537h-71l-52 144h-248l-51 -144h-69zM169 200h208l-104 295zM84 616l159 160h62l159 -160h-82l-108 116l-108 -116h-82z" />
<glyph unicode="&#xc3;" horiz-adv-x="550" d="M29 0l199 537h94l198 -537h-71l-52 144h-248l-51 -144h-69zM169 200h208l-104 295zM421 745q2 -9 4 -21t2 -32q0 -13 -4.5 -26t-13.5 -24t-24 -18.5t-34 -7.5q-25 0 -43 10.5t-33.5 23.5t-29 23.5t-30.5 10.5q-18 0 -23 -15.5t-5 -31.5v-10.5t1 -10.5h-45q-7 19 -7 52 q0 13 4.5 27t13.5 25t23.5 18t33.5 7q24 0 42.5 -10.5t34 -23.5t29 -23.5t28.5 -10.5q10 0 16.5 5.5t10 13t4.5 17t1 17.5v9t-1 6h45z" />
<glyph unicode="&#xc4;" horiz-adv-x="550" d="M228 671q0 -24 -16 -40q-17 -15 -40 -15q-24 0 -40 15q-15 15 -15 40q0 26 15 41q17 14 40 14t40 -14q16 -16 16 -41zM429 671q0 -24 -16 -40q-17 -15 -39 -15q-25 0 -41 15q-15 15 -15 40q0 26 15 41q17 14 41 14q22 0 39 -14q16 -16 16 -41zM29 0l199 537h94l198 -537 h-71l-52 144h-248l-51 -144h-69zM169 200h208l-104 295z" />
<glyph unicode="&#xc5;" horiz-adv-x="550" d="M155 732q0 24 8.5 44.5t24 36.5t37.5 25t50 9q27 0 49 -9t37.5 -25t24.5 -36.5t9 -44.5t-9 -45.5t-24.5 -37t-37.5 -24.5t-49 -9q-56 0 -88 33.5t-32 82.5zM206 732q0 -29 19.5 -49.5t49.5 -20.5q29 0 49 20.5t20 49.5q0 28 -20 48.5t-49 20.5q-30 0 -49.5 -20.5 t-19.5 -48.5zM29 0l199 537h94l198 -537h-71l-52 144h-248l-51 -144h-69zM169 200h208l-104 295z" />
<glyph unicode="&#xc6;" horiz-adv-x="767" d="M348 498l-168 -297h168v297zM348 137h-200l-78 -137h-71l305 537h392v-64h-270v-169h251v-64h-251v-176h282v-64h-360v137z" />
<glyph unicode="&#xc7;" horiz-adv-x="556" d="M447 408q-23 38 -56 57.5t-81 19.5q-35 0 -66 -14.5t-54 -42.5t-36.5 -68t-13.5 -92q0 -104 47.5 -160t127.5 -56q49 0 80 16.5t52 54.5l63 -41q-34 -48 -85 -71t-110 -23q-57 0 -104 20.5t-80.5 58t-52 88.5t-18.5 113q0 61 19.5 112.5t53.5 89t79.5 58.5t97.5 21 q66 0 117 -26t81 -77zM310 17q17 -8 31 -17q71 -44 71 -101q0 -98 -115 -98q-50 0 -84 31l25 37q28 -21 62 -21q50 0 50 50q0 65 -97 111z" />
<glyph unicode="&#xc8;" horiz-adv-x="513" d="M168 473v-169h251v-64h-251v-176h282v-64h-360v537h348v-64h-270zM364 657l-41 -41l-145 146l41 41z" />
<glyph unicode="&#xc9;" horiz-adv-x="513" d="M168 473v-169h251v-64h-251v-176h282v-64h-360v537h348v-64h-270zM356 803l41 -41l-145 -146l-41 41z" />
<glyph unicode="&#xca;" horiz-adv-x="513" d="M168 473v-169h251v-64h-251v-176h282v-64h-360v537h348v-64h-270zM75 616l159 160h62l159 -160h-82l-108 116l-108 -116h-82z" />
<glyph unicode="&#xcb;" horiz-adv-x="513" d="M168 473v-169h251v-64h-251v-176h282v-64h-360v537h348v-64h-270zM217 671q0 -24 -16 -40q-17 -15 -40 -15q-24 0 -40 15q-15 15 -15 40q0 26 15 41q17 14 40 14t40 -14q16 -16 16 -41zM418 671q0 -24 -16 -40q-17 -15 -39 -15q-25 0 -41 15q-15 15 -15 40q0 26 15 41 q17 14 41 14q22 0 39 -14q16 -16 16 -41z" />
<glyph unicode="&#xcc;" horiz-adv-x="258" d="M90 0v537h78v-537h-78zM221 657l-41 -41l-145 146l41 41z" />
<glyph unicode="&#xcd;" horiz-adv-x="258" d="M90 0v537h78v-537h-78zM221 803l41 -41l-145 -146l-41 41z" />
<glyph unicode="&#xce;" horiz-adv-x="258" d="M-60 616l159 160h62l159 -160h-82l-108 116l-108 -116h-82zM90 0v537h78v-537h-78z" />
<glyph unicode="&#xcf;" horiz-adv-x="258" d="M90 0v537h78v-537h-78zM82 671q0 -24 -16 -40q-17 -15 -40 -15q-24 0 -40 15q-15 15 -15 40q0 26 15 41q17 14 40 14t40 -14q16 -16 16 -41zM283 671q0 -24 -16 -40q-17 -15 -39 -15q-25 0 -41 15q-15 15 -15 40q0 26 15 41q17 14 41 14q22 0 39 -14q16 -16 16 -41z" />
<glyph unicode="&#xd0;" horiz-adv-x="601" d="M100 0v240h-80v64h80v233h184q67 0 116 -18.5t81 -53.5t47.5 -85t15.5 -113q0 -125 -63 -196t-197 -71h-184zM280 64q51 0 86.5 12.5t57 38t31 63.5t9.5 89q0 100 -42.5 153t-145.5 53h-98v-169h120v-64h-120v-176h102z" />
<glyph unicode="&#xd1;" horiz-adv-x="608" d="M90 0v537h85l284 -455l-7 455h66v-537h-80l-289 459l7 -459h-66zM449 745q2 -9 4 -21t2 -32q0 -13 -4.5 -26t-13.5 -24t-24 -18.5t-34 -7.5q-25 0 -43 10.5t-33.5 23.5t-29 23.5t-30.5 10.5q-18 0 -23 -15.5t-5 -31.5v-10.5t1 -10.5h-45q-7 19 -7 52q0 13 4.5 27t13.5 25 t23.5 18t33.5 7q24 0 42.5 -10.5t34 -23.5t29 -23.5t28.5 -10.5q10 0 16.5 5.5t10 13t4.5 17t1 17.5v9t-1 6h45z" />
<glyph unicode="&#xd2;" d="M588 268q0 -58 -21 -109t-57 -89t-83.5 -60t-101.5 -22q-57 0 -106 20.5t-84 58t-55 88.5t-20 113q0 61 21.5 112.5t58 89t84.5 58.5t101 21q57 0 105 -20.5t83.5 -58t55 -89t19.5 -113.5zM508 268q0 108 -50.5 162.5t-132.5 54.5q-38 0 -71.5 -14.5t-58.5 -42.5t-40 -68 t-15 -92t14 -92t38.5 -67.5t58.5 -42t74 -14.5q85 0 134 56t49 160zM419 657l-41 -41l-145 146l41 41z" />
<glyph unicode="&#xd3;" d="M588 268q0 -58 -21 -109t-57 -89t-83.5 -60t-101.5 -22q-57 0 -106 20.5t-84 58t-55 88.5t-20 113q0 61 21.5 112.5t58 89t84.5 58.5t101 21q57 0 105 -20.5t83.5 -58t55 -89t19.5 -113.5zM508 268q0 108 -50.5 162.5t-132.5 54.5q-38 0 -71.5 -14.5t-58.5 -42.5t-40 -68 t-15 -92t14 -92t38.5 -67.5t58.5 -42t74 -14.5q85 0 134 56t49 160zM403 803l41 -41l-145 -146l-41 41z" />
<glyph unicode="&#xd4;" d="M588 268q0 -58 -21 -109t-57 -89t-83.5 -60t-101.5 -22q-57 0 -106 20.5t-84 58t-55 88.5t-20 113q0 61 21.5 112.5t58 89t84.5 58.5t101 21q57 0 105 -20.5t83.5 -58t55 -89t19.5 -113.5zM508 268q0 108 -50.5 162.5t-132.5 54.5q-38 0 -71.5 -14.5t-58.5 -42.5t-40 -68 t-15 -92t14 -92t38.5 -67.5t58.5 -42t74 -14.5q85 0 134 56t49 160zM132 616l159 160h62l159 -160h-82l-108 116l-108 -116h-82z" />
<glyph unicode="&#xd5;" d="M467 745q2 -9 4 -21t2 -32q0 -13 -4.5 -26t-13.5 -24t-24 -18.5t-34 -7.5q-25 0 -43 10.5t-33.5 23.5t-29 23.5t-30.5 10.5q-18 0 -23 -15.5t-5 -31.5v-10.5t1 -10.5h-45q-7 19 -7 52q0 13 4.5 27t13.5 25t23.5 18t33.5 7q24 0 42.5 -10.5t34 -23.5t29 -23.5t28.5 -10.5 q10 0 16.5 5.5t10 13t4.5 17t1 17.5v9t-1 6h45zM588 268q0 -58 -21 -109t-57 -89t-83.5 -60t-101.5 -22q-57 0 -106 20.5t-84 58t-55 88.5t-20 113q0 61 21.5 112.5t58 89t84.5 58.5t101 21q57 0 105 -20.5t83.5 -58t55 -89t19.5 -113.5zM508 268q0 108 -50.5 162.5 t-132.5 54.5q-38 0 -71.5 -14.5t-58.5 -42.5t-40 -68t-15 -92t14 -92t38.5 -67.5t58.5 -42t74 -14.5q85 0 134 56t49 160z" />
<glyph unicode="&#xd6;" d="M588 268q0 -58 -21 -109t-57 -89t-83.5 -60t-101.5 -22q-57 0 -106 20.5t-84 58t-55 88.5t-20 113q0 61 21.5 112.5t58 89t84.5 58.5t101 21q57 0 105 -20.5t83.5 -58t55 -89t19.5 -113.5zM508 268q0 108 -50.5 162.5t-132.5 54.5q-38 0 -71.5 -14.5t-58.5 -42.5t-40 -68 t-15 -92t14 -92t38.5 -67.5t58.5 -42t74 -14.5q85 0 134 56t49 160zM279 671q0 -24 -16 -40q-17 -15 -40 -15q-24 0 -40 15q-15 15 -15 40q0 26 15 41q17 14 40 14t40 -14q16 -16 16 -41zM480 671q0 -24 -16 -40q-17 -15 -39 -15q-25 0 -41 15q-15 15 -15 40q0 26 15 41 q17 14 41 14q22 0 39 -14q16 -16 16 -41z" />
<glyph unicode="&#xd8;" d="M588 268q0 -58 -21 -109t-57 -89t-83.5 -60t-101.5 -22q-42 0 -79 11t-68 31l-40 -54l-46 35l42 56q-35 38 -54.5 88.5t-19.5 112.5q0 61 21.5 112.5t58 89t84.5 58.5t101 21q40 0 75 -10.5t65 -29.5l41 55l46 -35l-42 -56q37 -38 57.5 -90t20.5 -115zM508 268 q0 48 -11 85.5t-30 64.5l-247 -335q44 -31 105 -31q85 0 134 56t49 160zM140 268q0 -44 10.5 -80t28.5 -62l246 332q-40 27 -100 27q-38 0 -71.5 -14.5t-58.5 -42.5t-40 -68t-15 -92z" />
<glyph unicode="&#xd9;" horiz-adv-x="586" d="M163 537v-343q0 -69 36.5 -105.5t99.5 -36.5q70 0 97 34.5t27 103.5v347h78v-353q0 -41 -10.5 -77t-34.5 -62.5t-62.5 -41.5t-93.5 -15t-95.5 14.5t-67 40.5t-39.5 61.5t-13 78.5v354h78zM386 657l-41 -41l-145 146l41 41z" />
<glyph unicode="&#xda;" horiz-adv-x="586" d="M163 537v-343q0 -69 36.5 -105.5t99.5 -36.5q70 0 97 34.5t27 103.5v347h78v-353q0 -41 -10.5 -77t-34.5 -62.5t-62.5 -41.5t-93.5 -15t-95.5 14.5t-67 40.5t-39.5 61.5t-13 78.5v354h78zM347 803l41 -41l-145 -146l-41 41z" />
<glyph unicode="&#xdb;" horiz-adv-x="586" d="M163 537v-343q0 -69 36.5 -105.5t99.5 -36.5q70 0 97 34.5t27 103.5v347h78v-353q0 -41 -10.5 -77t-34.5 -62.5t-62.5 -41.5t-93.5 -15t-95.5 14.5t-67 40.5t-39.5 61.5t-13 78.5v354h78zM107 616l159 160h62l159 -160h-82l-108 116l-108 -116h-82z" />
<glyph unicode="&#xdc;" horiz-adv-x="586" d="M163 537v-343q0 -69 36.5 -105.5t99.5 -36.5q70 0 97 34.5t27 103.5v347h78v-353q0 -41 -10.5 -77t-34.5 -62.5t-62.5 -41.5t-93.5 -15t-95.5 14.5t-67 40.5t-39.5 61.5t-13 78.5v354h78zM252 671q0 -24 -16 -40q-17 -15 -40 -15q-24 0 -40 15q-15 15 -15 40q0 26 15 41 q17 14 40 14t40 -14q16 -16 16 -41zM453 671q0 -24 -16 -40q-17 -15 -39 -15q-25 0 -41 15q-15 15 -15 40q0 26 15 41q17 14 41 14q22 0 39 -14q16 -16 16 -41z" />
<glyph unicode="&#xdd;" horiz-adv-x="502" d="M19 537h77l154 -286l155 286h78l-197 -331v-206h-74v206zM315 803l41 -41l-145 -146l-41 41z" />
<glyph unicode="&#xde;" horiz-adv-x="505" d="M255 448q104 0 157 -45t53 -123q0 -37 -13.5 -69.5t-37.5 -56.5t-58 -38t-74 -14h-114v-102h-78v537h78v-89h87zM268 166q36 0 59 11t35.5 27.5t17.5 37t5 39.5q0 20 -7.5 38.5t-22.5 33t-39 23t-57 8.5h-91v-218h100z" />
<glyph unicode="&#xdf;" horiz-adv-x="619" d="M85 347q0 91 52 140.5t165 49.5h205v-51l-26 -33l-108 -137v-4q38 0 73 -10.5t60.5 -30.5t40.5 -49.5t15 -67.5q0 -30 -11.5 -60t-35.5 -53.5t-60.5 -38t-89.5 -14.5q-28 0 -55 5t-45 12v72q15 -10 43 -18t56 -8q56 0 88.5 27t32.5 73q0 50 -31.5 76t-118.5 26 q-7 0 -13.5 -0.5t-12.5 -1.5t-12 -1l-10 40l27 37l113 147h-126q-61 0 -99.5 -33t-38.5 -102v-339h-78v347z" />
<glyph unicode="&#xe0;" horiz-adv-x="550" d="M29 0l199 537h94l198 -537h-71l-52 144h-248l-51 -144h-69zM169 200h208l-104 295zM362 657l-41 -41l-145 146l41 41z" />
<glyph unicode="&#xe1;" horiz-adv-x="550" d="M29 0l199 537h94l198 -537h-71l-52 144h-248l-51 -144h-69zM169 200h208l-104 295zM367 803l41 -41l-145 -146l-41 41z" />
<glyph unicode="&#xe2;" horiz-adv-x="550" d="M29 0l199 537h94l198 -537h-71l-52 144h-248l-51 -144h-69zM169 200h208l-104 295zM84 616l159 160h62l159 -160h-82l-108 116l-108 -116h-82z" />
<glyph unicode="&#xe3;" horiz-adv-x="550" d="M29 0l199 537h94l198 -537h-71l-52 144h-248l-51 -144h-69zM169 200h208l-104 295zM421 745q2 -9 4 -21t2 -32q0 -13 -4.5 -26t-13.5 -24t-24 -18.5t-34 -7.5q-25 0 -43 10.5t-33.5 23.5t-29 23.5t-30.5 10.5q-18 0 -23 -15.5t-5 -31.5v-10.5t1 -10.5h-45q-7 19 -7 52 q0 13 4.5 27t13.5 25t23.5 18t33.5 7q24 0 42.5 -10.5t34 -23.5t29 -23.5t28.5 -10.5q10 0 16.5 5.5t10 13t4.5 17t1 17.5v9t-1 6h45z" />
<glyph unicode="&#xe4;" horiz-adv-x="550" d="M228 671q0 -24 -16 -40q-17 -15 -40 -15q-24 0 -40 15q-15 15 -15 40q0 26 15 41q17 14 40 14t40 -14q16 -16 16 -41zM429 671q0 -24 -16 -40q-17 -15 -39 -15q-25 0 -41 15q-15 15 -15 40q0 26 15 41q17 14 41 14q22 0 39 -14q16 -16 16 -41zM29 0l199 537h94l198 -537 h-71l-52 144h-248l-51 -144h-69zM169 200h208l-104 295z" />
<glyph unicode="&#xe5;" horiz-adv-x="550" d="M155 732q0 24 8.5 44.5t24 36.5t37.5 25t50 9q27 0 49 -9t37.5 -25t24.5 -36.5t9 -44.5t-9 -45.5t-24.5 -37t-37.5 -24.5t-49 -9q-56 0 -88 33.5t-32 82.5zM206 732q0 -29 19.5 -49.5t49.5 -20.5q29 0 49 20.5t20 49.5q0 28 -20 48.5t-49 20.5q-30 0 -49.5 -20.5 t-19.5 -48.5zM29 0l199 537h94l198 -537h-71l-52 144h-248l-51 -144h-69zM169 200h208l-104 295z" />
<glyph unicode="&#xe6;" horiz-adv-x="767" d="M348 498l-168 -297h168v297zM348 137h-200l-78 -137h-71l305 537h392v-64h-270v-169h251v-64h-251v-176h282v-64h-360v137z" />
<glyph unicode="&#xe7;" horiz-adv-x="556" d="M447 408q-23 38 -56 57.5t-81 19.5q-35 0 -66 -14.5t-54 -42.5t-36.5 -68t-13.5 -92q0 -104 47.5 -160t127.5 -56q49 0 80 16.5t52 54.5l63 -41q-34 -48 -85 -71t-110 -23q-57 0 -104 20.5t-80.5 58t-52 88.5t-18.5 113q0 61 19.5 112.5t53.5 89t79.5 58.5t97.5 21 q66 0 117 -26t81 -77zM310 17q17 -8 31 -17q71 -44 71 -101q0 -98 -115 -98q-50 0 -84 31l25 37q28 -21 62 -21q50 0 50 50q0 65 -97 111z" />
<glyph unicode="&#xe8;" horiz-adv-x="513" d="M168 473v-169h251v-64h-251v-176h282v-64h-360v537h348v-64h-270zM364 657l-41 -41l-145 146l41 41z" />
<glyph unicode="&#xe9;" horiz-adv-x="513" d="M168 473v-169h251v-64h-251v-176h282v-64h-360v537h348v-64h-270zM356 803l41 -41l-145 -146l-41 41z" />
<glyph unicode="&#xea;" horiz-adv-x="513" d="M168 473v-169h251v-64h-251v-176h282v-64h-360v537h348v-64h-270zM75 616l159 160h62l159 -160h-82l-108 116l-108 -116h-82z" />
<glyph unicode="&#xeb;" horiz-adv-x="513" d="M168 473v-169h251v-64h-251v-176h282v-64h-360v537h348v-64h-270zM217 671q0 -24 -16 -40q-17 -15 -40 -15q-24 0 -40 15q-15 15 -15 40q0 26 15 41q17 14 40 14t40 -14q16 -16 16 -41zM418 671q0 -24 -16 -40q-17 -15 -39 -15q-25 0 -41 15q-15 15 -15 40q0 26 15 41 q17 14 41 14q22 0 39 -14q16 -16 16 -41z" />
<glyph unicode="&#xec;" horiz-adv-x="258" d="M90 0v537h78v-537h-78zM221 657l-41 -41l-145 146l41 41z" />
<glyph unicode="&#xed;" horiz-adv-x="258" d="M90 0v537h78v-537h-78zM221 803l41 -41l-145 -146l-41 41z" />
<glyph unicode="&#xee;" horiz-adv-x="258" d="M-60 616l159 160h62l159 -160h-82l-108 116l-108 -116h-82zM90 0v537h78v-537h-78z" />
<glyph unicode="&#xef;" horiz-adv-x="258" d="M90 0v537h78v-537h-78zM82 671q0 -24 -16 -40q-17 -15 -40 -15q-24 0 -40 15q-15 15 -15 40q0 26 15 41q17 14 40 14t40 -14q16 -16 16 -41zM283 671q0 -24 -16 -40q-17 -15 -39 -15q-25 0 -41 15q-15 15 -15 40q0 26 15 41q17 14 41 14q22 0 39 -14q16 -16 16 -41z" />
<glyph unicode="&#xf0;" horiz-adv-x="601" d="M100 0v240h-80v64h80v233h184q67 0 116 -18.5t81 -53.5t47.5 -85t15.5 -113q0 -125 -63 -196t-197 -71h-184zM280 64q51 0 86.5 12.5t57 38t31 63.5t9.5 89q0 100 -42.5 153t-145.5 53h-98v-169h120v-64h-120v-176h102z" />
<glyph unicode="&#xf1;" horiz-adv-x="608" d="M90 0v537h85l284 -455l-7 455h66v-537h-80l-289 459l7 -459h-66zM449 745q2 -9 4 -21t2 -32q0 -13 -4.5 -26t-13.5 -24t-24 -18.5t-34 -7.5q-25 0 -43 10.5t-33.5 23.5t-29 23.5t-30.5 10.5q-18 0 -23 -15.5t-5 -31.5v-10.5t1 -10.5h-45q-7 19 -7 52q0 13 4.5 27t13.5 25 t23.5 18t33.5 7q24 0 42.5 -10.5t34 -23.5t29 -23.5t28.5 -10.5q10 0 16.5 5.5t10 13t4.5 17t1 17.5v9t-1 6h45z" />
<glyph unicode="&#xf2;" d="M588 268q0 -58 -21 -109t-57 -89t-83.5 -60t-101.5 -22q-57 0 -106 20.5t-84 58t-55 88.5t-20 113q0 61 21.5 112.5t58 89t84.5 58.5t101 21q57 0 105 -20.5t83.5 -58t55 -89t19.5 -113.5zM508 268q0 108 -50.5 162.5t-132.5 54.5q-38 0 -71.5 -14.5t-58.5 -42.5t-40 -68 t-15 -92t14 -92t38.5 -67.5t58.5 -42t74 -14.5q85 0 134 56t49 160zM419 657l-41 -41l-145 146l41 41z" />
<glyph unicode="&#xf3;" d="M588 268q0 -58 -21 -109t-57 -89t-83.5 -60t-101.5 -22q-57 0 -106 20.5t-84 58t-55 88.5t-20 113q0 61 21.5 112.5t58 89t84.5 58.5t101 21q57 0 105 -20.5t83.5 -58t55 -89t19.5 -113.5zM508 268q0 108 -50.5 162.5t-132.5 54.5q-38 0 -71.5 -14.5t-58.5 -42.5t-40 -68 t-15 -92t14 -92t38.5 -67.5t58.5 -42t74 -14.5q85 0 134 56t49 160zM403 803l41 -41l-145 -146l-41 41z" />
<glyph unicode="&#xf4;" d="M588 268q0 -58 -21 -109t-57 -89t-83.5 -60t-101.5 -22q-57 0 -106 20.5t-84 58t-55 88.5t-20 113q0 61 21.5 112.5t58 89t84.5 58.5t101 21q57 0 105 -20.5t83.5 -58t55 -89t19.5 -113.5zM508 268q0 108 -50.5 162.5t-132.5 54.5q-38 0 -71.5 -14.5t-58.5 -42.5t-40 -68 t-15 -92t14 -92t38.5 -67.5t58.5 -42t74 -14.5q85 0 134 56t49 160zM132 616l159 160h62l159 -160h-82l-108 116l-108 -116h-82z" />
<glyph unicode="&#xf5;" d="M467 745q2 -9 4 -21t2 -32q0 -13 -4.5 -26t-13.5 -24t-24 -18.5t-34 -7.5q-25 0 -43 10.5t-33.5 23.5t-29 23.5t-30.5 10.5q-18 0 -23 -15.5t-5 -31.5v-10.5t1 -10.5h-45q-7 19 -7 52q0 13 4.5 27t13.5 25t23.5 18t33.5 7q24 0 42.5 -10.5t34 -23.5t29 -23.5t28.5 -10.5 q10 0 16.5 5.5t10 13t4.5 17t1 17.5v9t-1 6h45zM588 268q0 -58 -21 -109t-57 -89t-83.5 -60t-101.5 -22q-57 0 -106 20.5t-84 58t-55 88.5t-20 113q0 61 21.5 112.5t58 89t84.5 58.5t101 21q57 0 105 -20.5t83.5 -58t55 -89t19.5 -113.5zM508 268q0 108 -50.5 162.5 t-132.5 54.5q-38 0 -71.5 -14.5t-58.5 -42.5t-40 -68t-15 -92t14 -92t38.5 -67.5t58.5 -42t74 -14.5q85 0 134 56t49 160z" />
<glyph unicode="&#xf6;" d="M588 268q0 -58 -21 -109t-57 -89t-83.5 -60t-101.5 -22q-57 0 -106 20.5t-84 58t-55 88.5t-20 113q0 61 21.5 112.5t58 89t84.5 58.5t101 21q57 0 105 -20.5t83.5 -58t55 -89t19.5 -113.5zM508 268q0 108 -50.5 162.5t-132.5 54.5q-38 0 -71.5 -14.5t-58.5 -42.5t-40 -68 t-15 -92t14 -92t38.5 -67.5t58.5 -42t74 -14.5q85 0 134 56t49 160zM279 671q0 -24 -16 -40q-17 -15 -40 -15q-24 0 -40 15q-15 15 -15 40q0 26 15 41q17 14 40 14t40 -14q16 -16 16 -41zM480 671q0 -24 -16 -40q-17 -15 -39 -15q-25 0 -41 15q-15 15 -15 40q0 26 15 41 q17 14 41 14q22 0 39 -14q16 -16 16 -41z" />
<glyph unicode="&#xf8;" d="M588 268q0 -58 -21 -109t-57 -89t-83.5 -60t-101.5 -22q-42 0 -79 11t-68 31l-40 -54l-46 35l42 56q-35 38 -54.5 88.5t-19.5 112.5q0 61 21.5 112.5t58 89t84.5 58.5t101 21q40 0 75 -10.5t65 -29.5l41 55l46 -35l-42 -56q37 -38 57.5 -90t20.5 -115zM508 268 q0 48 -11 85.5t-30 64.5l-247 -335q44 -31 105 -31q85 0 134 56t49 160zM140 268q0 -44 10.5 -80t28.5 -62l246 332q-40 27 -100 27q-38 0 -71.5 -14.5t-58.5 -42.5t-40 -68t-15 -92z" />
<glyph unicode="&#xf9;" horiz-adv-x="586" d="M163 537v-343q0 -69 36.5 -105.5t99.5 -36.5q70 0 97 34.5t27 103.5v347h78v-353q0 -41 -10.5 -77t-34.5 -62.5t-62.5 -41.5t-93.5 -15t-95.5 14.5t-67 40.5t-39.5 61.5t-13 78.5v354h78zM386 657l-41 -41l-145 146l41 41z" />
<glyph unicode="&#xfa;" horiz-adv-x="586" d="M163 537v-343q0 -69 36.5 -105.5t99.5 -36.5q70 0 97 34.5t27 103.5v347h78v-353q0 -41 -10.5 -77t-34.5 -62.5t-62.5 -41.5t-93.5 -15t-95.5 14.5t-67 40.5t-39.5 61.5t-13 78.5v354h78zM347 803l41 -41l-145 -146l-41 41z" />
<glyph unicode="&#xfb;" horiz-adv-x="586" d="M163 537v-343q0 -69 36.5 -105.5t99.5 -36.5q70 0 97 34.5t27 103.5v347h78v-353q0 -41 -10.5 -77t-34.5 -62.5t-62.5 -41.5t-93.5 -15t-95.5 14.5t-67 40.5t-39.5 61.5t-13 78.5v354h78zM107 616l159 160h62l159 -160h-82l-108 116l-108 -116h-82z" />
<glyph unicode="&#xfc;" horiz-adv-x="586" d="M163 537v-343q0 -69 36.5 -105.5t99.5 -36.5q70 0 97 34.5t27 103.5v347h78v-353q0 -41 -10.5 -77t-34.5 -62.5t-62.5 -41.5t-93.5 -15t-95.5 14.5t-67 40.5t-39.5 61.5t-13 78.5v354h78zM252 671q0 -24 -16 -40q-17 -15 -40 -15q-24 0 -40 15q-15 15 -15 40q0 26 15 41 q17 14 40 14t40 -14q16 -16 16 -41zM453 671q0 -24 -16 -40q-17 -15 -39 -15q-25 0 -41 15q-15 15 -15 40q0 26 15 41q17 14 41 14q22 0 39 -14q16 -16 16 -41z" />
<glyph unicode="&#xfd;" horiz-adv-x="502" d="M19 537h77l154 -286l155 286h78l-197 -331v-206h-74v206zM315 803l41 -41l-145 -146l-41 41z" />
<glyph unicode="&#xfe;" horiz-adv-x="505" d="M255 448q104 0 157 -45t53 -123q0 -37 -13.5 -69.5t-37.5 -56.5t-58 -38t-74 -14h-114v-102h-78v537h78v-89h87zM268 166q36 0 59 11t35.5 27.5t17.5 37t5 39.5q0 20 -7.5 38.5t-22.5 33t-39 23t-57 8.5h-91v-218h100z" />
<glyph unicode="&#xff;" horiz-adv-x="502" d="M19 537h77l154 -286l155 286h78l-197 -331v-206h-74v206zM206 671q0 -24 -16 -40q-17 -15 -40 -15q-24 0 -40 15q-15 15 -15 40q0 26 15 41q17 14 40 14t40 -14q16 -16 16 -41zM407 671q0 -24 -16 -40q-17 -15 -39 -15q-25 0 -41 15q-15 15 -15 40q0 26 15 41 q17 14 41 14q22 0 39 -14q16 -16 16 -41z" />
<glyph unicode="&#x100;" horiz-adv-x="550" d="M29 0l199 537h94l198 -537h-71l-52 144h-248l-51 -144h-69zM169 200h208l-104 295zM125 670h300v-55h-300v55z" />
<glyph unicode="&#x101;" horiz-adv-x="550" d="M29 0l199 537h94l198 -537h-71l-52 144h-248l-51 -144h-69zM169 200h208l-104 295zM125 670h300v-55h-300v55z" />
<glyph unicode="&#x102;" horiz-adv-x="550" d="M274 671q46 0 70.5 30t24.5 74h68q0 -34 -10.5 -63t-31 -50.5t-51 -33.5t-70.5 -12q-81 0 -122 44.5t-41 114.5h67q0 -44 26 -74t70 -30zM29 0l199 537h94l198 -537h-71l-52 144h-248l-51 -144h-69zM169 200h208l-104 295z" />
<glyph unicode="&#x103;" horiz-adv-x="550" d="M274 671q46 0 70.5 30t24.5 74h68q0 -34 -10.5 -63t-31 -50.5t-51 -33.5t-70.5 -12q-81 0 -122 44.5t-41 114.5h67q0 -44 26 -74t70 -30zM29 0l199 537h94l198 -537h-71l-52 144h-248l-51 -144h-69zM169 200h208l-104 295z" />
<glyph unicode="&#x104;" horiz-adv-x="550" d="M29 0l199 537h94l198 -537h-71l-52 144h-248l-51 -144h-69zM169 200h208l-104 295zM517 9q-117 -57 -117 -111q0 -50 43 -50q29 0 54 21l25 -37q-38 -31 -81 -31q-103 0 -103 88q0 59 91 111q15 10 31 17z" />
<glyph unicode="&#x105;" horiz-adv-x="550" d="M29 0l199 537h94l198 -537h-71l-52 144h-248l-51 -144h-69zM169 200h208l-104 295zM517 9q-117 -57 -117 -111q0 -50 43 -50q29 0 54 21l25 -37q-38 -31 -81 -31q-103 0 -103 88q0 59 91 111q15 10 31 17z" />
<glyph unicode="&#x106;" horiz-adv-x="556" d="M447 408q-23 38 -56 57.5t-81 19.5q-35 0 -66 -14.5t-54 -42.5t-36.5 -68t-13.5 -92q0 -104 47.5 -160t127.5 -56q49 0 80 16.5t52 54.5l63 -41q-34 -48 -85 -71t-110 -23q-57 0 -104 20.5t-80.5 58t-52 88.5t-18.5 113q0 61 19.5 112.5t53.5 89t79.5 58.5t97.5 21 q66 0 117 -26t81 -77zM362 803l41 -41l-145 -146l-41 41z" />
<glyph unicode="&#x107;" horiz-adv-x="556" d="M447 408q-23 38 -56 57.5t-81 19.5q-35 0 -66 -14.5t-54 -42.5t-36.5 -68t-13.5 -92q0 -104 47.5 -160t127.5 -56q49 0 80 16.5t52 54.5l63 -41q-34 -48 -85 -71t-110 -23q-57 0 -104 20.5t-80.5 58t-52 88.5t-18.5 113q0 61 19.5 112.5t53.5 89t79.5 58.5t97.5 21 q66 0 117 -26t81 -77zM362 803l41 -41l-145 -146l-41 41z" />
<glyph unicode="&#x108;" horiz-adv-x="556" d="M447 408q-23 38 -56 57.5t-81 19.5q-35 0 -66 -14.5t-54 -42.5t-36.5 -68t-13.5 -92q0 -104 47.5 -160t127.5 -56q49 0 80 16.5t52 54.5l63 -41q-34 -48 -85 -71t-110 -23q-57 0 -104 20.5t-80.5 58t-52 88.5t-18.5 113q0 61 19.5 112.5t53.5 89t79.5 58.5t97.5 21 q66 0 117 -26t81 -77zM116 616l159 160h62l159 -160h-82l-108 116l-108 -116h-82z" />
<glyph unicode="&#x109;" horiz-adv-x="556" d="M447 408q-23 38 -56 57.5t-81 19.5q-35 0 -66 -14.5t-54 -42.5t-36.5 -68t-13.5 -92q0 -104 47.5 -160t127.5 -56q49 0 80 16.5t52 54.5l63 -41q-34 -48 -85 -71t-110 -23q-57 0 -104 20.5t-80.5 58t-52 88.5t-18.5 113q0 61 19.5 112.5t53.5 89t79.5 58.5t97.5 21 q66 0 117 -26t81 -77zM116 616l159 160h62l159 -160h-82l-108 116l-108 -116h-82z" />
<glyph unicode="&#x10a;" horiz-adv-x="556" d="M447 408q-23 38 -56 57.5t-81 19.5q-35 0 -66 -14.5t-54 -42.5t-36.5 -68t-13.5 -92q0 -104 47.5 -160t127.5 -56q49 0 80 16.5t52 54.5l63 -41q-34 -48 -85 -71t-110 -23q-57 0 -104 20.5t-80.5 58t-52 88.5t-18.5 113q0 61 19.5 112.5t53.5 89t79.5 58.5t97.5 21 q66 0 117 -26t81 -77zM367 676q0 -27 -17 -44q-19 -16 -40 -16q-20 0 -38 16q-17 16 -17 44t17 42q16 15 38 15t40 -15q17 -15 17 -42z" />
<glyph unicode="&#x10b;" horiz-adv-x="556" d="M447 408q-23 38 -56 57.5t-81 19.5q-35 0 -66 -14.5t-54 -42.5t-36.5 -68t-13.5 -92q0 -104 47.5 -160t127.5 -56q49 0 80 16.5t52 54.5l63 -41q-34 -48 -85 -71t-110 -23q-57 0 -104 20.5t-80.5 58t-52 88.5t-18.5 113q0 61 19.5 112.5t53.5 89t79.5 58.5t97.5 21 q66 0 117 -26t81 -77zM367 676q0 -27 -17 -44q-19 -16 -40 -16q-20 0 -38 16q-17 16 -17 44t17 42q16 15 38 15t40 -15q17 -15 17 -42z" />
<glyph unicode="&#x10c;" horiz-adv-x="556" d="M447 408q-23 38 -56 57.5t-81 19.5q-35 0 -66 -14.5t-54 -42.5t-36.5 -68t-13.5 -92q0 -104 47.5 -160t127.5 -56q49 0 80 16.5t52 54.5l63 -41q-34 -48 -85 -71t-110 -23q-57 0 -104 20.5t-80.5 58t-52 88.5t-18.5 113q0 61 19.5 112.5t53.5 89t79.5 58.5t97.5 21 q66 0 117 -26t81 -77zM492 776l-159 -160h-63l-158 160h81l109 -116l108 116h82z" />
<glyph unicode="&#x10d;" horiz-adv-x="556" d="M447 408q-23 38 -56 57.5t-81 19.5q-35 0 -66 -14.5t-54 -42.5t-36.5 -68t-13.5 -92q0 -104 47.5 -160t127.5 -56q49 0 80 16.5t52 54.5l63 -41q-34 -48 -85 -71t-110 -23q-57 0 -104 20.5t-80.5 58t-52 88.5t-18.5 113q0 61 19.5 112.5t53.5 89t79.5 58.5t97.5 21 q66 0 117 -26t81 -77zM492 776l-159 -160h-63l-158 160h81l109 -116l108 116h82z" />
<glyph unicode="&#x10e;" horiz-adv-x="591" d="M455 776l-159 -160h-63l-158 160h81l109 -116l108 116h82zM90 0v537h184q67 0 116 -18.5t81 -53.5t47.5 -85t15.5 -113q0 -125 -63 -196t-197 -71h-184zM270 64q51 0 86.5 12.5t57 38t31 63.5t9.5 89q0 100 -42.5 153t-145.5 53h-98v-409h102z" />
<glyph unicode="&#x10f;" horiz-adv-x="591" d="M455 776l-159 -160h-63l-158 160h81l109 -116l108 116h82zM90 0v537h184q67 0 116 -18.5t81 -53.5t47.5 -85t15.5 -113q0 -125 -63 -196t-197 -71h-184zM270 64q51 0 86.5 12.5t57 38t31 63.5t9.5 89q0 100 -42.5 153t-145.5 53h-98v-409h102z" />
<glyph unicode="&#x110;" horiz-adv-x="601" d="M100 0v240h-80v64h80v233h184q67 0 116 -18.5t81 -53.5t47.5 -85t15.5 -113q0 -125 -63 -196t-197 -71h-184zM280 64q51 0 86.5 12.5t57 38t31 63.5t9.5 89q0 100 -42.5 153t-145.5 53h-98v-169h120v-64h-120v-176h102z" />
<glyph unicode="&#x111;" horiz-adv-x="601" d="M100 0v240h-80v64h80v233h184q67 0 116 -18.5t81 -53.5t47.5 -85t15.5 -113q0 -125 -63 -196t-197 -71h-184zM280 64q51 0 86.5 12.5t57 38t31 63.5t9.5 89q0 100 -42.5 153t-145.5 53h-98v-169h120v-64h-120v-176h102z" />
<glyph unicode="&#x112;" horiz-adv-x="513" d="M168 473v-169h251v-64h-251v-176h282v-64h-360v537h348v-64h-270zM106 670h300v-55h-300v55z" />
<glyph unicode="&#x113;" horiz-adv-x="513" d="M168 473v-169h251v-64h-251v-176h282v-64h-360v537h348v-64h-270zM106 670h300v-55h-300v55z" />
<glyph unicode="&#x114;" horiz-adv-x="513" d="M168 473v-169h251v-64h-251v-176h282v-64h-360v537h348v-64h-270zM266 671q46 0 70.5 30t24.5 74h68q0 -34 -10.5 -63t-31 -50.5t-51 -33.5t-70.5 -12q-81 0 -122 44.5t-41 114.5h67q0 -44 26 -74t70 -30z" />
<glyph unicode="&#x115;" horiz-adv-x="513" d="M168 473v-169h251v-64h-251v-176h282v-64h-360v537h348v-64h-270zM266 671q46 0 70.5 30t24.5 74h68q0 -34 -10.5 -63t-31 -50.5t-51 -33.5t-70.5 -12q-81 0 -122 44.5t-41 114.5h67q0 -44 26 -74t70 -30z" />
<glyph unicode="&#x116;" horiz-adv-x="513" d="M168 473v-169h251v-64h-251v-176h282v-64h-360v537h348v-64h-270zM330 676q0 -27 -17 -44q-19 -16 -40 -16q-20 0 -38 16q-17 16 -17 44t17 42q16 15 38 15t40 -15q17 -15 17 -42z" />
<glyph unicode="&#x117;" horiz-adv-x="513" d="M168 473v-169h251v-64h-251v-176h282v-64h-360v537h348v-64h-270zM330 676q0 -27 -17 -44q-19 -16 -40 -16q-20 0 -38 16q-17 16 -17 44t17 42q16 15 38 15t40 -15q17 -15 17 -42z" />
<glyph unicode="&#x118;" horiz-adv-x="513" d="M168 473v-169h251v-64h-251v-176h282v-64h-360v537h348v-64h-270zM407 9q-117 -57 -117 -111q0 -50 43 -50q29 0 54 21l25 -37q-38 -31 -81 -31q-103 0 -103 88q0 59 91 111q15 10 31 17z" />
<glyph unicode="&#x119;" horiz-adv-x="513" d="M168 473v-169h251v-64h-251v-176h282v-64h-360v537h348v-64h-270zM407 9q-117 -57 -117 -111q0 -50 43 -50q29 0 54 21l25 -37q-38 -31 -81 -31q-103 0 -103 88q0 59 91 111q15 10 31 17z" />
<glyph unicode="&#x11a;" horiz-adv-x="513" d="M168 473v-169h251v-64h-251v-176h282v-64h-360v537h348v-64h-270zM454 776l-159 -160h-63l-158 160h81l109 -116l108 116h82z" />
<glyph unicode="&#x11b;" horiz-adv-x="513" d="M168 473v-169h251v-64h-251v-176h282v-64h-360v537h348v-64h-270zM454 776l-159 -160h-63l-158 160h81l109 -116l108 116h82z" />
<glyph unicode="&#x11c;" horiz-adv-x="602" d="M475 93q-27 -58 -70 -81.5t-102 -23.5q-52 0 -96.5 20t-77 56.5t-51 87.5t-18.5 112q0 63 19.5 115.5t54.5 90t83 58.5t105 21q60 0 113 -25.5t84 -75.5l-59 -41q-22 42 -60.5 60t-80.5 18q-39 0 -72 -14.5t-56.5 -42.5t-37 -69t-13.5 -93q0 -102 47.5 -158t127.5 -56 q38 0 65.5 10.5t45 28.5t26 40.5t8.5 46.5v24h-143v62h219v-264h-53zM127 616l159 160h62l159 -160h-82l-108 116l-108 -116h-82z" />
<glyph unicode="&#x11d;" horiz-adv-x="602" d="M475 93q-27 -58 -70 -81.5t-102 -23.5q-52 0 -96.5 20t-77 56.5t-51 87.5t-18.5 112q0 63 19.5 115.5t54.5 90t83 58.5t105 21q60 0 113 -25.5t84 -75.5l-59 -41q-22 42 -60.5 60t-80.5 18q-39 0 -72 -14.5t-56.5 -42.5t-37 -69t-13.5 -93q0 -102 47.5 -158t127.5 -56 q38 0 65.5 10.5t45 28.5t26 40.5t8.5 46.5v24h-143v62h219v-264h-53zM127 616l159 160h62l159 -160h-82l-108 116l-108 -116h-82z" />
<glyph unicode="&#x11e;" horiz-adv-x="602" d="M475 93q-27 -58 -70 -81.5t-102 -23.5q-52 0 -96.5 20t-77 56.5t-51 87.5t-18.5 112q0 63 19.5 115.5t54.5 90t83 58.5t105 21q60 0 113 -25.5t84 -75.5l-59 -41q-22 42 -60.5 60t-80.5 18q-39 0 -72 -14.5t-56.5 -42.5t-37 -69t-13.5 -93q0 -102 47.5 -158t127.5 -56 q38 0 65.5 10.5t45 28.5t26 40.5t8.5 46.5v24h-143v62h219v-264h-53zM325 671q46 0 70.5 30t24.5 74h68q0 -34 -10.5 -63t-31 -50.5t-51 -33.5t-70.5 -12q-81 0 -122 44.5t-41 114.5h67q0 -44 26 -74t70 -30z" />
<glyph unicode="&#x11f;" horiz-adv-x="602" d="M475 93q-27 -58 -70 -81.5t-102 -23.5q-52 0 -96.5 20t-77 56.5t-51 87.5t-18.5 112q0 63 19.5 115.5t54.5 90t83 58.5t105 21q60 0 113 -25.5t84 -75.5l-59 -41q-22 42 -60.5 60t-80.5 18q-39 0 -72 -14.5t-56.5 -42.5t-37 -69t-13.5 -93q0 -102 47.5 -158t127.5 -56 q38 0 65.5 10.5t45 28.5t26 40.5t8.5 46.5v24h-143v62h219v-264h-53zM325 671q46 0 70.5 30t24.5 74h68q0 -34 -10.5 -63t-31 -50.5t-51 -33.5t-70.5 -12q-81 0 -122 44.5t-41 114.5h67q0 -44 26 -74t70 -30z" />
<glyph unicode="&#x120;" horiz-adv-x="602" d="M475 93q-27 -58 -70 -81.5t-102 -23.5q-52 0 -96.5 20t-77 56.5t-51 87.5t-18.5 112q0 63 19.5 115.5t54.5 90t83 58.5t105 21q60 0 113 -25.5t84 -75.5l-59 -41q-22 42 -60.5 60t-80.5 18q-39 0 -72 -14.5t-56.5 -42.5t-37 -69t-13.5 -93q0 -102 47.5 -158t127.5 -56 q38 0 65.5 10.5t45 28.5t26 40.5t8.5 46.5v24h-143v62h219v-264h-53zM374 676q0 -27 -17 -44q-19 -16 -40 -16q-20 0 -38 16q-17 16 -17 44t17 42q16 15 38 15t40 -15q17 -15 17 -42z" />
<glyph unicode="&#x121;" horiz-adv-x="602" d="M475 93q-27 -58 -70 -81.5t-102 -23.5q-52 0 -96.5 20t-77 56.5t-51 87.5t-18.5 112q0 63 19.5 115.5t54.5 90t83 58.5t105 21q60 0 113 -25.5t84 -75.5l-59 -41q-22 42 -60.5 60t-80.5 18q-39 0 -72 -14.5t-56.5 -42.5t-37 -69t-13.5 -93q0 -102 47.5 -158t127.5 -56 q38 0 65.5 10.5t45 28.5t26 40.5t8.5 46.5v24h-143v62h219v-264h-53zM374 676q0 -27 -17 -44q-19 -16 -40 -16q-20 0 -38 16q-17 16 -17 44t17 42q16 15 38 15t40 -15q17 -15 17 -42z" />
<glyph unicode="&#x122;" horiz-adv-x="602" d="M475 93q-27 -58 -70 -81.5t-102 -23.5q-52 0 -96.5 20t-77 56.5t-51 87.5t-18.5 112q0 63 19.5 115.5t54.5 90t83 58.5t105 21q60 0 113 -25.5t84 -75.5l-59 -41q-22 42 -60.5 60t-80.5 18q-39 0 -72 -14.5t-56.5 -42.5t-37 -69t-13.5 -93q0 -102 47.5 -158t127.5 -56 q38 0 65.5 10.5t45 28.5t26 40.5t8.5 46.5v24h-143v62h219v-264h-53zM255 -249l18 151l73 -11l-37 -146z" />
<glyph unicode="&#x123;" horiz-adv-x="602" d="M475 93q-27 -58 -70 -81.5t-102 -23.5q-52 0 -96.5 20t-77 56.5t-51 87.5t-18.5 112q0 63 19.5 115.5t54.5 90t83 58.5t105 21q60 0 113 -25.5t84 -75.5l-59 -41q-22 42 -60.5 60t-80.5 18q-39 0 -72 -14.5t-56.5 -42.5t-37 -69t-13.5 -93q0 -102 47.5 -158t127.5 -56 q38 0 65.5 10.5t45 28.5t26 40.5t8.5 46.5v24h-143v62h219v-264h-53zM255 -249l18 151l73 -11l-37 -146z" />
<glyph unicode="&#x124;" horiz-adv-x="632" d="M90 0v537h78v-238h296v238h78v-537h-78v235h-296v-235h-78zM122 616l159 160h62l159 -160h-82l-108 116l-108 -116h-82z" />
<glyph unicode="&#x125;" horiz-adv-x="632" d="M90 0v537h78v-238h296v238h78v-537h-78v235h-296v-235h-78zM122 616l159 160h62l159 -160h-82l-108 116l-108 -116h-82z" />
<glyph unicode="&#x126;" horiz-adv-x="652" d="M20 413h80v124h78v-124h296v124h78v-124h80v-64h-80v-349h-78v175h-296v-175h-78v349h-80v64zM474 239v110h-296v-110h296z" />
<glyph unicode="&#x127;" horiz-adv-x="652" d="M20 413h80v124h78v-124h296v124h78v-124h80v-64h-80v-349h-78v175h-296v-175h-78v349h-80v64zM474 239v110h-296v-110h296z" />
<glyph unicode="&#x128;" horiz-adv-x="258" d="M275 745q2 -9 4 -21t2 -32q0 -13 -4.5 -26t-13.5 -24t-24 -18.5t-34 -7.5q-25 0 -43 10.5t-33.5 23.5t-29 23.5t-30.5 10.5q-18 0 -23 -15.5t-5 -31.5v-10.5t1 -10.5h-45q-7 19 -7 52q0 13 4.5 27t13.5 25t23.5 18t33.5 7q24 0 42.5 -10.5t34 -23.5t29 -23.5t28.5 -10.5 q10 0 16.5 5.5t10 13t4.5 17t1 17.5v9t-1 6h45zM90 0v537h78v-537h-78z" />
<glyph unicode="&#x129;" horiz-adv-x="258" d="M275 745q2 -9 4 -21t2 -32q0 -13 -4.5 -26t-13.5 -24t-24 -18.5t-34 -7.5q-25 0 -43 10.5t-33.5 23.5t-29 23.5t-30.5 10.5q-18 0 -23 -15.5t-5 -31.5v-10.5t1 -10.5h-45q-7 19 -7 52q0 13 4.5 27t13.5 25t23.5 18t33.5 7q24 0 42.5 -10.5t34 -23.5t29 -23.5t28.5 -10.5 q10 0 16.5 5.5t10 13t4.5 17t1 17.5v9t-1 6h45zM90 0v537h78v-537h-78z" />
<glyph unicode="&#x12a;" horiz-adv-x="258" d="M90 0v537h78v-537h-78zM-21 670h300v-55h-300v55z" />
<glyph unicode="&#x12b;" horiz-adv-x="258" d="M90 0v537h78v-537h-78zM-21 670h300v-55h-300v55z" />
<glyph unicode="&#x12c;" horiz-adv-x="258" d="M90 0v537h78v-537h-78zM129 671q46 0 70.5 30t24.5 74h68q0 -34 -10.5 -63t-31 -50.5t-51 -33.5t-70.5 -12q-81 0 -122 44.5t-41 114.5h67q0 -44 26 -74t70 -30z" />
<glyph unicode="&#x12d;" horiz-adv-x="258" d="M90 0v537h78v-537h-78zM129 671q46 0 70.5 30t24.5 74h68q0 -34 -10.5 -63t-31 -50.5t-51 -33.5t-70.5 -12q-81 0 -122 44.5t-41 114.5h67q0 -44 26 -74t70 -30z" />
<glyph unicode="&#x12e;" horiz-adv-x="258" d="M90 0v537h78v-537h-78zM166 9q-117 -57 -117 -111q0 -50 43 -50q29 0 54 21l25 -37q-38 -31 -81 -31q-103 0 -103 88q0 59 91 111q15 10 31 17z" />
<glyph unicode="&#x12f;" horiz-adv-x="258" d="M90 0v537h78v-537h-78zM166 9q-117 -57 -117 -111q0 -50 43 -50q29 0 54 21l25 -37q-38 -31 -81 -31q-103 0 -103 88q0 59 91 111q15 10 31 17z" />
<glyph unicode="&#x130;" horiz-adv-x="258" d="M90 0v537h78v-537h-78zM185 676q0 -27 -17 -44q-19 -16 -40 -16q-20 0 -38 16q-17 16 -17 44t17 42q16 15 38 15t40 -15q17 -15 17 -42z" />
<glyph unicode="&#x131;" horiz-adv-x="258" d="M90 0v537h78v-537h-78z" />
<glyph unicode="&#x132;" horiz-adv-x="635" d="M90 0v537h78v-537h-78zM550 537v-361q0 -51 -14 -87t-39.5 -58.5t-60.5 -32.5t-76 -10q-38 0 -65.5 8.5t-44.5 19.5q-20 12 -34 29l55 50q9 -13 22 -23q11 -8 29 -15t42 -7q56 0 82 31t26 102v354h78z" />
<glyph unicode="&#x133;" horiz-adv-x="635" d="M90 0v537h78v-537h-78zM550 537v-361q0 -51 -14 -87t-39.5 -58.5t-60.5 -32.5t-76 -10q-38 0 -65.5 8.5t-44.5 19.5q-20 12 -34 29l55 50q9 -13 22 -23q11 -8 29 -15t42 -7q56 0 82 31t26 102v354h78z" />
<glyph unicode="&#x134;" horiz-adv-x="424" d="M339 537v-361q0 -51 -14 -87t-39.5 -58.5t-60.5 -32.5t-76 -10q-38 0 -65.5 8.5t-44.5 19.5q-20 12 -34 29l55 50q9 -13 22 -23q11 -8 29 -15t42 -7q56 0 82 31t26 102v354h78zM109 616l159 160h62l159 -160h-82l-108 116l-108 -116h-82z" />
<glyph unicode="&#x135;" horiz-adv-x="424" d="M339 537v-361q0 -51 -14 -87t-39.5 -58.5t-60.5 -32.5t-76 -10q-38 0 -65.5 8.5t-44.5 19.5q-20 12 -34 29l55 50q9 -13 22 -23q11 -8 29 -15t42 -7q56 0 82 31t26 102v354h78zM109 616l159 160h62l159 -160h-82l-108 116l-108 -116h-82z" />
<glyph unicode="&#x136;" horiz-adv-x="544" d="M90 537h78v-272l250 272h80l-215 -230l228 -307h-88l-189 266l-66 -66v-200h-78v537zM215 -249l18 151l73 -11l-37 -146z" />
<glyph unicode="&#x137;" horiz-adv-x="544" d="M90 537h78v-272l250 272h80l-215 -230l228 -307h-88l-189 266l-66 -66v-200h-78v537zM215 -249l18 151l73 -11l-37 -146z" />
<glyph unicode="&#x138;" horiz-adv-x="605" d="M90 537h78v-272l250 272h80l-215 -230l228 -307h-88l-189 266l-66 -66v-200h-78v537zM605.005 536.984l-17.999 -150.99l-72.9951 10.999l36.998 145.991z" />
<glyph unicode="&#x139;" horiz-adv-x="462" d="M168 537v-473h252v-64h-330v537h78zM313 803l41 -41l-145 -146l-41 41z" />
<glyph unicode="&#x13a;" horiz-adv-x="462" d="M168 537v-473h252v-64h-330v537h78zM313 803l41 -41l-145 -146l-41 41z" />
<glyph unicode="&#x13b;" horiz-adv-x="462" d="M168 537v-473h252v-64h-330v537h78zM195 -249l18 151l73 -11l-37 -146z" />
<glyph unicode="&#x13c;" horiz-adv-x="462" d="M168 537v-473h252v-64h-330v537h78zM195 -249l18 151l73 -11l-37 -146z" />
<glyph unicode="&#x13d;" horiz-adv-x="462" d="M168 537v-473h252v-64h-330v537h78zM265 378l22 171l73 -11l-41 -166z" />
<glyph unicode="&#x13e;" horiz-adv-x="462" d="M168 537v-473h252v-64h-330v537h78zM265 378l22 171l73 -11l-41 -166z" />
<glyph unicode="&#x13f;" horiz-adv-x="462" d="M168 537v-473h252v-64h-330v537h78zM373 307q0 -27 -17 -44q-19 -16 -40 -16q-20 0 -38 16q-17 16 -17 44t17 42q16 15 38 15t40 -15q17 -15 17 -42z" />
<glyph unicode="&#x140;" horiz-adv-x="462" d="M168 537v-473h252v-64h-330v537h78zM373 307q0 -27 -17 -44q-19 -16 -40 -16q-20 0 -38 16q-17 16 -17 44t17 42q16 15 38 15t40 -15q17 -15 17 -42z" />
<glyph unicode="&#x141;" horiz-adv-x="470" d="M176 537v-206l108 33v-59l-108 -30v-215h295v-60h-371v258l-80 -24v59l80 20v224h76z" />
<glyph unicode="&#x142;" horiz-adv-x="470" d="M176 537v-206l108 33v-59l-108 -30v-215h295v-60h-371v258l-80 -24v59l80 20v224h76z" />
<glyph unicode="&#x143;" horiz-adv-x="608" d="M90 0v537h85l284 -455l-7 455h66v-537h-80l-289 459l7 -459h-66zM382 803l41 -41l-145 -146l-41 41z" />
<glyph unicode="&#x144;" horiz-adv-x="608" d="M90 0v537h85l284 -455l-7 455h66v-537h-80l-289 459l7 -459h-66zM382 803l41 -41l-145 -146l-41 41z" />
<glyph unicode="&#x145;" horiz-adv-x="608" d="M90 0v537h85l284 -455l-7 455h66v-537h-80l-289 459l7 -459h-66zM245 -249l18 151l73 -11l-37 -146z" />
<glyph unicode="&#x146;" horiz-adv-x="608" d="M90 0v537h85l284 -455l-7 455h66v-537h-80l-289 459l7 -459h-66zM245 -249l18 151l73 -11l-37 -146z" />
<glyph unicode="&#x147;" horiz-adv-x="608" d="M90 0v537h85l284 -455l-7 455h66v-537h-80l-289 459l7 -459h-66zM496 776l-159 -160h-63l-158 160h81l109 -116l108 116h82z" />
<glyph unicode="&#x148;" horiz-adv-x="608" d="M90 0v537h85l284 -455l-7 455h66v-537h-80l-289 459l7 -459h-66zM496 776l-159 -160h-63l-158 160h81l109 -116l108 116h82z" />
<glyph unicode="&#x149;" horiz-adv-x="808" d="M69 538h76v-107q0 -51 -22 -83.5t-54 -46.5l-49 41q20 8 34.5 29.5t14.5 59.5v107zM290 0v537h85l284 -455l-7 455h66v-537h-80l-289 459l7 -459h-66z" />
<glyph unicode="&#x14a;" horiz-adv-x="608" d="M90 0v537h85l284 -426q-2 51 -3 135q0 37 -0.5 76.5t-1 77.5t-0.5 73v64h64v-528q0 -70 -30 -109t-91 -39q-14 0 -29.5 2t-26.5 5l10 57q17 -5 40 -5q13 0 26 4t23.5 14.5t16.5 30.5q6 18 7 39l-315 459q1 -89 2 -175q0 -37 0.5 -76.5t1 -78t1 -74t0.5 -63.5h-64z" />
<glyph unicode="&#x14b;" horiz-adv-x="608" d="M90 0v537h85l284 -426q-2 51 -3 135q0 37 -0.5 76.5t-1 77.5t-0.5 73v64h64v-528q0 -70 -30 -109t-91 -39q-14 0 -29.5 2t-26.5 5l10 57q17 -5 40 -5q13 0 26 4t23.5 14.5t16.5 30.5q6 18 7 39l-315 459q1 -89 2 -175q0 -37 0.5 -76.5t1 -78t1 -74t0.5 -63.5h-64z" />
<glyph unicode="&#x14c;" d="M588 268q0 -58 -21 -109t-57 -89t-83.5 -60t-101.5 -22q-57 0 -106 20.5t-84 58t-55 88.5t-20 113q0 61 21.5 112.5t58 89t84.5 58.5t101 21q57 0 105 -20.5t83.5 -58t55 -89t19.5 -113.5zM508 268q0 108 -50.5 162.5t-132.5 54.5q-38 0 -71.5 -14.5t-58.5 -42.5t-40 -68 t-15 -92t14 -92t38.5 -67.5t58.5 -42t74 -14.5q85 0 134 56t49 160zM174 670h300v-55h-300v55z" />
<glyph unicode="&#x14d;" d="M588 268q0 -58 -21 -109t-57 -89t-83.5 -60t-101.5 -22q-57 0 -106 20.5t-84 58t-55 88.5t-20 113q0 61 21.5 112.5t58 89t84.5 58.5t101 21q57 0 105 -20.5t83.5 -58t55 -89t19.5 -113.5zM508 268q0 108 -50.5 162.5t-132.5 54.5q-38 0 -71.5 -14.5t-58.5 -42.5t-40 -68 t-15 -92t14 -92t38.5 -67.5t58.5 -42t74 -14.5q85 0 134 56t49 160zM174 670h300v-55h-300v55z" />
<glyph unicode="&#x14e;" d="M588 268q0 -58 -21 -109t-57 -89t-83.5 -60t-101.5 -22q-57 0 -106 20.5t-84 58t-55 88.5t-20 113q0 61 21.5 112.5t58 89t84.5 58.5t101 21q57 0 105 -20.5t83.5 -58t55 -89t19.5 -113.5zM508 268q0 108 -50.5 162.5t-132.5 54.5q-38 0 -71.5 -14.5t-58.5 -42.5t-40 -68 t-15 -92t14 -92t38.5 -67.5t58.5 -42t74 -14.5q85 0 134 56t49 160zM327 671q46 0 70.5 30t24.5 74h68q0 -34 -10.5 -63t-31 -50.5t-51 -33.5t-70.5 -12q-81 0 -122 44.5t-41 114.5h67q0 -44 26 -74t70 -30z" />
<glyph unicode="&#x14f;" d="M588 268q0 -58 -21 -109t-57 -89t-83.5 -60t-101.5 -22q-57 0 -106 20.5t-84 58t-55 88.5t-20 113q0 61 21.5 112.5t58 89t84.5 58.5t101 21q57 0 105 -20.5t83.5 -58t55 -89t19.5 -113.5zM508 268q0 108 -50.5 162.5t-132.5 54.5q-38 0 -71.5 -14.5t-58.5 -42.5t-40 -68 t-15 -92t14 -92t38.5 -67.5t58.5 -42t74 -14.5q85 0 134 56t49 160zM327 671q46 0 70.5 30t24.5 74h68q0 -34 -10.5 -63t-31 -50.5t-51 -33.5t-70.5 -12q-81 0 -122 44.5t-41 114.5h67q0 -44 26 -74t70 -30z" />
<glyph unicode="&#x150;" d="M588 268q0 -58 -21 -109t-57 -89t-83.5 -60t-101.5 -22q-57 0 -106 20.5t-84 58t-55 88.5t-20 113q0 61 21.5 112.5t58 89t84.5 58.5t101 21q57 0 105 -20.5t83.5 -58t55 -89t19.5 -113.5zM508 268q0 108 -50.5 162.5t-132.5 54.5q-38 0 -71.5 -14.5t-58.5 -42.5t-40 -68 t-15 -92t14 -92t38.5 -67.5t58.5 -42t74 -14.5q85 0 134 56t49 160zM348 803l40 -38l-132 -149l-40 38zM522 803l40 -38l-132 -149l-40 38z" />
<glyph unicode="&#x151;" d="M588 268q0 -58 -21 -109t-57 -89t-83.5 -60t-101.5 -22q-57 0 -106 20.5t-84 58t-55 88.5t-20 113q0 61 21.5 112.5t58 89t84.5 58.5t101 21q57 0 105 -20.5t83.5 -58t55 -89t19.5 -113.5zM508 268q0 108 -50.5 162.5t-132.5 54.5q-38 0 -71.5 -14.5t-58.5 -42.5t-40 -68 t-15 -92t14 -92t38.5 -67.5t58.5 -42t74 -14.5q85 0 134 56t49 160zM348 803l40 -38l-132 -149l-40 38zM522 803l40 -38l-132 -149l-40 38z" />
<glyph unicode="&#x152;" horiz-adv-x="971" d="M908 60v-60h-368v83q-15 -17 -34.5 -34t-44.5 -30.5t-54.5 -22t-65.5 -8.5q-60 0 -111.5 19t-89 55t-59 88t-21.5 118t21.5 118.5t59 88.5t89 55t111.5 19q31 0 61 -8.5t56 -22t47 -30.5t35 -34v83h356v-60h-279v-175h250v-60h-250v-182h291zM338 47q45 0 83.5 13 t66.5 40.5t43.5 69.5t15.5 101q0 55 -16 96t-44 68.5t-66.5 41t-82.5 13.5q-90 0 -145.5 -57t-55.5 -165t55.5 -164.5t145.5 -56.5z" />
<glyph unicode="&#x153;" horiz-adv-x="971" d="M908 60v-60h-368v83q-15 -17 -34.5 -34t-44.5 -30.5t-54.5 -22t-65.5 -8.5q-60 0 -111.5 19t-89 55t-59 88t-21.5 118t21.5 118.5t59 88.5t89 55t111.5 19q31 0 61 -8.5t56 -22t47 -30.5t35 -34v83h356v-60h-279v-175h250v-60h-250v-182h291zM338 47q45 0 83.5 13 t66.5 40.5t43.5 69.5t15.5 101q0 55 -16 96t-44 68.5t-66.5 41t-82.5 13.5q-90 0 -145.5 -57t-55.5 -165t55.5 -164.5t145.5 -56.5z" />
<glyph unicode="&#x154;" horiz-adv-x="567" d="M474 377q0 -32 -9 -57t-24 -44t-33.5 -32t-37.5 -20l142 -224h-84l-123 207h-137v-207h-78v537h180q98 0 151 -42.5t53 -117.5zM168 262h111q33 0 55 8t35.5 22t19 33t5.5 42q0 53 -29 83.5t-94 30.5h-103v-219zM332 803l41 -41l-145 -146l-41 41z" />
<glyph unicode="&#x155;" horiz-adv-x="567" d="M474 377q0 -32 -9 -57t-24 -44t-33.5 -32t-37.5 -20l142 -224h-84l-123 207h-137v-207h-78v537h180q98 0 151 -42.5t53 -117.5zM168 262h111q33 0 55 8t35.5 22t19 33t5.5 42q0 53 -29 83.5t-94 30.5h-103v-219zM332 803l41 -41l-145 -146l-41 41z" />
<glyph unicode="&#x156;" horiz-adv-x="567" d="M474 377q0 -32 -9 -57t-24 -44t-33.5 -32t-37.5 -20l142 -224h-84l-123 207h-137v-207h-78v537h180q98 0 151 -42.5t53 -117.5zM168 262h111q33 0 55 8t35.5 22t19 33t5.5 42q0 53 -29 83.5t-94 30.5h-103v-219zM225 -249l18 151l73 -11l-37 -146z" />
<glyph unicode="&#x157;" horiz-adv-x="567" d="M474 377q0 -32 -9 -57t-24 -44t-33.5 -32t-37.5 -20l142 -224h-84l-123 207h-137v-207h-78v537h180q98 0 151 -42.5t53 -117.5zM168 262h111q33 0 55 8t35.5 22t19 33t5.5 42q0 53 -29 83.5t-94 30.5h-103v-219zM225 -249l18 151l73 -11l-37 -146z" />
<glyph unicode="&#x158;" horiz-adv-x="567" d="M474 377q0 -32 -9 -57t-24 -44t-33.5 -32t-37.5 -20l142 -224h-84l-123 207h-137v-207h-78v537h180q98 0 151 -42.5t53 -117.5zM168 262h111q33 0 55 8t35.5 22t19 33t5.5 42q0 53 -29 83.5t-94 30.5h-103v-219zM450 776l-159 -160h-63l-158 160h81l109 -116l108 116h82z " />
<glyph unicode="&#x159;" horiz-adv-x="567" d="M474 377q0 -32 -9 -57t-24 -44t-33.5 -32t-37.5 -20l142 -224h-84l-123 207h-137v-207h-78v537h180q98 0 151 -42.5t53 -117.5zM168 262h111q33 0 55 8t35.5 22t19 33t5.5 42q0 53 -29 83.5t-94 30.5h-103v-219zM450 776l-159 -160h-63l-158 160h81l109 -116l108 116h82z " />
<glyph unicode="&#x15a;" horiz-adv-x="491" d="M365 423q-14 27 -46.5 46.5t-78.5 19.5q-48 0 -75.5 -22t-27.5 -58q0 -21 9 -36t24 -25.5t34.5 -18.5t41.5 -15q32 -12 66 -22.5t62 -27t46 -42.5t18 -69q0 -36 -14 -66.5t-39.5 -52t-62 -34t-81.5 -12.5q-74 0 -121.5 29t-61.5 71l53 41q14 -34 48 -57.5t84 -23.5 q24 0 45.5 5.5t37.5 16.5t25.5 27.5t9.5 39.5q0 26 -11 42.5t-30 28t-43.5 19.5t-49.5 17q-30 10 -59 22t-52.5 29t-37.5 41.5t-14 60.5q0 37 15 65.5t40 48t58 29t70 9.5q66 0 110 -25.5t61 -60.5zM314 803l41 -41l-145 -146l-41 41z" />
<glyph unicode="&#x15b;" horiz-adv-x="491" d="M365 423q-14 27 -46.5 46.5t-78.5 19.5q-48 0 -75.5 -22t-27.5 -58q0 -21 9 -36t24 -25.5t34.5 -18.5t41.5 -15q32 -12 66 -22.5t62 -27t46 -42.5t18 -69q0 -36 -14 -66.5t-39.5 -52t-62 -34t-81.5 -12.5q-74 0 -121.5 29t-61.5 71l53 41q14 -34 48 -57.5t84 -23.5 q24 0 45.5 5.5t37.5 16.5t25.5 27.5t9.5 39.5q0 26 -11 42.5t-30 28t-43.5 19.5t-49.5 17q-30 10 -59 22t-52.5 29t-37.5 41.5t-14 60.5q0 37 15 65.5t40 48t58 29t70 9.5q66 0 110 -25.5t61 -60.5zM314 803l41 -41l-145 -146l-41 41z" />
<glyph unicode="&#x15c;" horiz-adv-x="491" d="M365 423q-14 27 -46.5 46.5t-78.5 19.5q-48 0 -75.5 -22t-27.5 -58q0 -21 9 -36t24 -25.5t34.5 -18.5t41.5 -15q32 -12 66 -22.5t62 -27t46 -42.5t18 -69q0 -36 -14 -66.5t-39.5 -52t-62 -34t-81.5 -12.5q-74 0 -121.5 29t-61.5 71l53 41q14 -34 48 -57.5t84 -23.5 q24 0 45.5 5.5t37.5 16.5t25.5 27.5t9.5 39.5q0 26 -11 42.5t-30 28t-43.5 19.5t-49.5 17q-30 10 -59 22t-52.5 29t-37.5 41.5t-14 60.5q0 37 15 65.5t40 48t58 29t70 9.5q66 0 110 -25.5t61 -60.5zM55 616l159 160h62l159 -160h-82l-108 116l-108 -116h-82z" />
<glyph unicode="&#x15d;" horiz-adv-x="491" d="M365 423q-14 27 -46.5 46.5t-78.5 19.5q-48 0 -75.5 -22t-27.5 -58q0 -21 9 -36t24 -25.5t34.5 -18.5t41.5 -15q32 -12 66 -22.5t62 -27t46 -42.5t18 -69q0 -36 -14 -66.5t-39.5 -52t-62 -34t-81.5 -12.5q-74 0 -121.5 29t-61.5 71l53 41q14 -34 48 -57.5t84 -23.5 q24 0 45.5 5.5t37.5 16.5t25.5 27.5t9.5 39.5q0 26 -11 42.5t-30 28t-43.5 19.5t-49.5 17q-30 10 -59 22t-52.5 29t-37.5 41.5t-14 60.5q0 37 15 65.5t40 48t58 29t70 9.5q66 0 110 -25.5t61 -60.5zM55 616l159 160h62l159 -160h-82l-108 116l-108 -116h-82z" />
<glyph unicode="&#x15e;" horiz-adv-x="491" d="M365 423q-14 27 -46.5 46.5t-78.5 19.5q-48 0 -75.5 -22t-27.5 -58q0 -21 9 -36t24 -25.5t34.5 -18.5t41.5 -15q32 -12 66 -22.5t62 -27t46 -42.5t18 -69q0 -36 -14 -66.5t-39.5 -52t-62 -34t-81.5 -12.5q-74 0 -121.5 29t-61.5 71l53 41q14 -34 48 -57.5t84 -23.5 q24 0 45.5 5.5t37.5 16.5t25.5 27.5t9.5 39.5q0 26 -11 42.5t-30 28t-43.5 19.5t-49.5 17q-30 10 -59 22t-52.5 29t-37.5 41.5t-14 60.5q0 37 15 65.5t40 48t58 29t70 9.5q66 0 110 -25.5t61 -60.5zM237 17q17 -8 31 -17q71 -44 71 -101q0 -98 -115 -98q-50 0 -84 31l25 37 q28 -21 62 -21q50 0 50 50q0 65 -97 111z" />
<glyph unicode="&#x15f;" horiz-adv-x="491" d="M365 423q-14 27 -46.5 46.5t-78.5 19.5q-48 0 -75.5 -22t-27.5 -58q0 -21 9 -36t24 -25.5t34.5 -18.5t41.5 -15q32 -12 66 -22.5t62 -27t46 -42.5t18 -69q0 -36 -14 -66.5t-39.5 -52t-62 -34t-81.5 -12.5q-74 0 -121.5 29t-61.5 71l53 41q14 -34 48 -57.5t84 -23.5 q24 0 45.5 5.5t37.5 16.5t25.5 27.5t9.5 39.5q0 26 -11 42.5t-30 28t-43.5 19.5t-49.5 17q-30 10 -59 22t-52.5 29t-37.5 41.5t-14 60.5q0 37 15 65.5t40 48t58 29t70 9.5q66 0 110 -25.5t61 -60.5zM237 17q17 -8 31 -17q71 -44 71 -101q0 -98 -115 -98q-50 0 -84 31l25 37 q28 -21 62 -21q50 0 50 50q0 65 -97 111z" />
<glyph unicode="&#x160;" horiz-adv-x="491" d="M365 423q-14 27 -46.5 46.5t-78.5 19.5q-48 0 -75.5 -22t-27.5 -58q0 -21 9 -36t24 -25.5t34.5 -18.5t41.5 -15q32 -12 66 -22.5t62 -27t46 -42.5t18 -69q0 -36 -14 -66.5t-39.5 -52t-62 -34t-81.5 -12.5q-74 0 -121.5 29t-61.5 71l53 41q14 -34 48 -57.5t84 -23.5 q24 0 45.5 5.5t37.5 16.5t25.5 27.5t9.5 39.5q0 26 -11 42.5t-30 28t-43.5 19.5t-49.5 17q-30 10 -59 22t-52.5 29t-37.5 41.5t-14 60.5q0 37 15 65.5t40 48t58 29t70 9.5q66 0 110 -25.5t61 -60.5zM429 776l-159 -160h-63l-158 160h81l109 -116l108 116h82z" />
<glyph unicode="&#x161;" horiz-adv-x="491" d="M365 423q-14 27 -46.5 46.5t-78.5 19.5q-48 0 -75.5 -22t-27.5 -58q0 -21 9 -36t24 -25.5t34.5 -18.5t41.5 -15q32 -12 66 -22.5t62 -27t46 -42.5t18 -69q0 -36 -14 -66.5t-39.5 -52t-62 -34t-81.5 -12.5q-74 0 -121.5 29t-61.5 71l53 41q14 -34 48 -57.5t84 -23.5 q24 0 45.5 5.5t37.5 16.5t25.5 27.5t9.5 39.5q0 26 -11 42.5t-30 28t-43.5 19.5t-49.5 17q-30 10 -59 22t-52.5 29t-37.5 41.5t-14 60.5q0 37 15 65.5t40 48t58 29t70 9.5q66 0 110 -25.5t61 -60.5zM429 776l-159 -160h-63l-158 160h81l109 -116l108 116h82z" />
<glyph unicode="&#x162;" horiz-adv-x="490" d="M21 537h448v-64h-185v-473h-78v473h-185v64zM195 -249l18 151l73 -11l-37 -146z" />
<glyph unicode="&#x163;" horiz-adv-x="490" d="M21 537h448v-64h-185v-473h-78v473h-185v64zM195 -249l18 151l73 -11l-37 -146z" />
<glyph unicode="&#x164;" horiz-adv-x="490" d="M21 537h448v-64h-185v-473h-78v473h-185v64zM435 776l-159 -160h-63l-158 160h81l109 -116l108 116h82z" />
<glyph unicode="&#x165;" horiz-adv-x="490" d="M21 537h448v-64h-185v-473h-78v473h-185v64zM435 776l-159 -160h-63l-158 160h81l109 -116l108 116h82z" />
<glyph unicode="&#x166;" horiz-adv-x="510" d="M31 537h448v-64h-185v-180h145v-57h-145v-236h-78v236h-144v57h144v180h-185v64z" />
<glyph unicode="&#x167;" horiz-adv-x="510" d="M31 537h448v-64h-185v-180h145v-57h-145v-236h-78v236h-144v57h144v180h-185v64z" />
<glyph unicode="&#x168;" horiz-adv-x="586" d="M439 745q2 -9 4 -21t2 -32q0 -13 -4.5 -26t-13.5 -24t-24 -18.5t-34 -7.5q-25 0 -43 10.5t-33.5 23.5t-29 23.5t-30.5 10.5q-18 0 -23 -15.5t-5 -31.5v-10.5t1 -10.5h-45q-7 19 -7 52q0 13 4.5 27t13.5 25t23.5 18t33.5 7q24 0 42.5 -10.5t34 -23.5t29 -23.5t28.5 -10.5 q10 0 16.5 5.5t10 13t4.5 17t1 17.5v9t-1 6h45zM163 537v-343q0 -69 36.5 -105.5t99.5 -36.5q70 0 97 34.5t27 103.5v347h78v-353q0 -41 -10.5 -77t-34.5 -62.5t-62.5 -41.5t-93.5 -15t-95.5 14.5t-67 40.5t-39.5 61.5t-13 78.5v354h78z" />
<glyph unicode="&#x169;" horiz-adv-x="586" d="M439 745q2 -9 4 -21t2 -32q0 -13 -4.5 -26t-13.5 -24t-24 -18.5t-34 -7.5q-25 0 -43 10.5t-33.5 23.5t-29 23.5t-30.5 10.5q-18 0 -23 -15.5t-5 -31.5v-10.5t1 -10.5h-45q-7 19 -7 52q0 13 4.5 27t13.5 25t23.5 18t33.5 7q24 0 42.5 -10.5t34 -23.5t29 -23.5t28.5 -10.5 q10 0 16.5 5.5t10 13t4.5 17t1 17.5v9t-1 6h45zM163 537v-343q0 -69 36.5 -105.5t99.5 -36.5q70 0 97 34.5t27 103.5v347h78v-353q0 -41 -10.5 -77t-34.5 -62.5t-62.5 -41.5t-93.5 -15t-95.5 14.5t-67 40.5t-39.5 61.5t-13 78.5v354h78z" />
<glyph unicode="&#x16a;" horiz-adv-x="586" d="M163 537v-343q0 -69 36.5 -105.5t99.5 -36.5q70 0 97 34.5t27 103.5v347h78v-353q0 -41 -10.5 -77t-34.5 -62.5t-62.5 -41.5t-93.5 -15t-95.5 14.5t-67 40.5t-39.5 61.5t-13 78.5v354h78zM143 670h300v-55h-300v55z" />
<glyph unicode="&#x16b;" horiz-adv-x="586" d="M163 537v-343q0 -69 36.5 -105.5t99.5 -36.5q70 0 97 34.5t27 103.5v347h78v-353q0 -41 -10.5 -77t-34.5 -62.5t-62.5 -41.5t-93.5 -15t-95.5 14.5t-67 40.5t-39.5 61.5t-13 78.5v354h78zM143 670h300v-55h-300v55z" />
<glyph unicode="&#x16c;" horiz-adv-x="586" d="M163 537v-343q0 -69 36.5 -105.5t99.5 -36.5q70 0 97 34.5t27 103.5v347h78v-353q0 -41 -10.5 -77t-34.5 -62.5t-62.5 -41.5t-93.5 -15t-95.5 14.5t-67 40.5t-39.5 61.5t-13 78.5v354h78zM293 671q46 0 70.5 30t24.5 74h68q0 -34 -10.5 -63t-31 -50.5t-51 -33.5 t-70.5 -12q-81 0 -122 44.5t-41 114.5h67q0 -44 26 -74t70 -30z" />
<glyph unicode="&#x16d;" horiz-adv-x="586" d="M163 537v-343q0 -69 36.5 -105.5t99.5 -36.5q70 0 97 34.5t27 103.5v347h78v-353q0 -41 -10.5 -77t-34.5 -62.5t-62.5 -41.5t-93.5 -15t-95.5 14.5t-67 40.5t-39.5 61.5t-13 78.5v354h78zM293 671q46 0 70.5 30t24.5 74h68q0 -34 -10.5 -63t-31 -50.5t-51 -33.5 t-70.5 -12q-81 0 -122 44.5t-41 114.5h67q0 -44 26 -74t70 -30z" />
<glyph unicode="&#x16e;" horiz-adv-x="586" d="M163 537v-343q0 -69 36.5 -105.5t99.5 -36.5q70 0 97 34.5t27 103.5v347h78v-353q0 -41 -10.5 -77t-34.5 -62.5t-62.5 -41.5t-93.5 -15t-95.5 14.5t-67 40.5t-39.5 61.5t-13 78.5v354h78zM173 732q0 24 8.5 44.5t24 36.5t37.5 25t50 9q27 0 49 -9t37.5 -25t24.5 -36.5 t9 -44.5t-9 -45.5t-24.5 -37t-37.5 -24.5t-49 -9q-56 0 -88 33.5t-32 82.5zM224 732q0 -29 19.5 -49.5t49.5 -20.5q29 0 49 20.5t20 49.5q0 28 -20 48.5t-49 20.5q-30 0 -49.5 -20.5t-19.5 -48.5z" />
<glyph unicode="&#x16f;" horiz-adv-x="586" d="M163 537v-343q0 -69 36.5 -105.5t99.5 -36.5q70 0 97 34.5t27 103.5v347h78v-353q0 -41 -10.5 -77t-34.5 -62.5t-62.5 -41.5t-93.5 -15t-95.5 14.5t-67 40.5t-39.5 61.5t-13 78.5v354h78zM173 732q0 24 8.5 44.5t24 36.5t37.5 25t50 9q27 0 49 -9t37.5 -25t24.5 -36.5 t9 -44.5t-9 -45.5t-24.5 -37t-37.5 -24.5t-49 -9q-56 0 -88 33.5t-32 82.5zM224 732q0 -29 19.5 -49.5t49.5 -20.5q29 0 49 20.5t20 49.5q0 28 -20 48.5t-49 20.5q-30 0 -49.5 -20.5t-19.5 -48.5z" />
<glyph unicode="&#x170;" horiz-adv-x="586" d="M163 537v-343q0 -69 36.5 -105.5t99.5 -36.5q70 0 97 34.5t27 103.5v347h78v-353q0 -41 -10.5 -77t-34.5 -62.5t-62.5 -41.5t-93.5 -15t-95.5 14.5t-67 40.5t-39.5 61.5t-13 78.5v354h78zM316 803l40 -38l-132 -149l-40 38zM490 803l40 -38l-132 -149l-40 38z" />
<glyph unicode="&#x171;" horiz-adv-x="586" d="M163 537v-343q0 -69 36.5 -105.5t99.5 -36.5q70 0 97 34.5t27 103.5v347h78v-353q0 -41 -10.5 -77t-34.5 -62.5t-62.5 -41.5t-93.5 -15t-95.5 14.5t-67 40.5t-39.5 61.5t-13 78.5v354h78zM316 803l40 -38l-132 -149l-40 38zM490 803l40 -38l-132 -149l-40 38z" />
<glyph unicode="&#x172;" horiz-adv-x="586" d="M163 537v-343q0 -69 36.5 -105.5t99.5 -36.5q70 0 97 34.5t27 103.5v347h78v-353q0 -41 -10.5 -77t-34.5 -62.5t-62.5 -41.5t-93.5 -15t-95.5 14.5t-67 40.5t-39.5 61.5t-13 78.5v354h78zM392 9q-117 -57 -117 -111q0 -50 43 -50q29 0 54 21l25 -37q-38 -31 -81 -31 q-103 0 -103 88q0 59 91 111q15 10 31 17z" />
<glyph unicode="&#x173;" horiz-adv-x="586" d="M163 537v-343q0 -69 36.5 -105.5t99.5 -36.5q70 0 97 34.5t27 103.5v347h78v-353q0 -41 -10.5 -77t-34.5 -62.5t-62.5 -41.5t-93.5 -15t-95.5 14.5t-67 40.5t-39.5 61.5t-13 78.5v354h78zM392 9q-117 -57 -117 -111q0 -50 43 -50q29 0 54 21l25 -37q-38 -31 -81 -31 q-103 0 -103 88q0 59 91 111q15 10 31 17z" />
<glyph unicode="&#x174;" horiz-adv-x="823" d="M463 537l132 -488l112 488h72l-141 -537h-90l-132 495l-128 -495h-90l-150 537h72l125 -488l125 488h93zM227 616l159 160h62l159 -160h-82l-108 116l-108 -116h-82z" />
<glyph unicode="&#x175;" horiz-adv-x="823" d="M463 537l132 -488l112 488h72l-141 -537h-90l-132 495l-128 -495h-90l-150 537h72l125 -488l125 488h93zM227 616l159 160h62l159 -160h-82l-108 116l-108 -116h-82z" />
<glyph unicode="&#x176;" horiz-adv-x="502" d="M19 537h77l154 -286l155 286h78l-197 -331v-206h-74v206zM61 616l159 160h62l159 -160h-82l-108 116l-108 -116h-82z" />
<glyph unicode="&#x177;" horiz-adv-x="502" d="M19 537h77l154 -286l155 286h78l-197 -331v-206h-74v206zM61 616l159 160h62l159 -160h-82l-108 116l-108 -116h-82z" />
<glyph unicode="&#x178;" horiz-adv-x="502" d="M19 537h77l154 -286l155 286h78l-197 -331v-206h-74v206zM206 671q0 -24 -16 -40q-17 -15 -40 -15q-24 0 -40 15q-15 15 -15 40q0 26 15 41q17 14 40 14t40 -14q16 -16 16 -41zM407 671q0 -24 -16 -40q-17 -15 -39 -15q-25 0 -41 15q-15 15 -15 40q0 26 15 41 q17 14 41 14q22 0 39 -14q16 -16 16 -41z" />
<glyph unicode="&#x179;" horiz-adv-x="490" d="M434 490l-23 -32l-281 -396h317v-62h-404v47l23 32l281 397h-301v61h388v-47zM302 803l41 -41l-145 -146l-41 41z" />
<glyph unicode="&#x17a;" horiz-adv-x="490" d="M434 490l-23 -32l-281 -396h317v-62h-404v47l23 32l281 397h-301v61h388v-47zM302 803l41 -41l-145 -146l-41 41z" />
<glyph unicode="&#x17b;" horiz-adv-x="490" d="M434 490l-23 -32l-281 -396h317v-62h-404v47l23 32l281 397h-301v61h388v-47zM298 676q0 -27 -17 -44q-19 -16 -40 -16q-20 0 -38 16q-17 16 -17 44t17 42q16 15 38 15t40 -15q17 -15 17 -42z" />
<glyph unicode="&#x17c;" horiz-adv-x="490" d="M434 490l-23 -32l-281 -396h317v-62h-404v47l23 32l281 397h-301v61h388v-47zM302 803l41 -41l-145 -146l-41 41z" />
<glyph unicode="&#x17d;" horiz-adv-x="490" d="M434 490l-23 -32l-281 -396h317v-62h-404v47l23 32l281 397h-301v61h388v-47zM426 776l-159 -160h-63l-158 160h81l109 -116l108 116h82z" />
<glyph unicode="&#x17e;" horiz-adv-x="490" d="M434 490l-23 -32l-281 -396h317v-62h-404v47l23 32l281 397h-301v61h388v-47zM426 776l-159 -160h-63l-158 160h81l109 -116l108 116h82z" />
<glyph unicode="&#x17f;" horiz-adv-x="491" d="M365 423q-14 27 -46.5 46.5t-78.5 19.5q-48 0 -75.5 -22t-27.5 -58q0 -21 9 -36t24 -25.5t34.5 -18.5t41.5 -15q32 -12 66 -22.5t62 -27t46 -42.5t18 -69q0 -36 -14 -66.5t-39.5 -52t-62 -34t-81.5 -12.5q-74 0 -121.5 29t-61.5 71l53 41q14 -34 48 -57.5t84 -23.5 q24 0 45.5 5.5t37.5 16.5t25.5 27.5t9.5 39.5q0 26 -11 42.5t-30 28t-43.5 19.5t-49.5 17q-30 10 -59 22t-52.5 29t-37.5 41.5t-14 60.5q0 37 15 65.5t40 48t58 29t70 9.5q66 0 110 -25.5t61 -60.5z" />
<glyph unicode="&#x180;" horiz-adv-x="553" d="M20 179h80v358h200q80 0 127.5 -34.5t47.5 -100.5q0 -35 -17.5 -57t-38.5 -35q-25 -15 -55 -22v-4q37 -7 66 -24q25 -14 45.5 -39.5t20.5 -67.5q0 -76 -53 -114.5t-156 -38.5h-187v125h-80v54zM288 57q63 0 95.5 21t32.5 76q0 43 -31.5 70.5t-96.5 27.5h-116v-73h126v-54 h-126v-68h116zM172 308h108q54 0 84.5 24.5t30.5 65.5q0 82 -115 82h-108v-172z" />
<glyph unicode="&#x18f;" horiz-adv-x="593" d="M455 289q0 52 -14 89.5t-37.5 61t-54.5 34.5t-66 11q-42 0 -70 -11t-47 -27q-19 -17 -29 -35l-66 36q8 13 20.5 25t26.5 24q27 19 68 35.5t103 16.5q63 0 109 -21t76 -58.5t44.5 -88.5t14.5 -111q0 -67 -18.5 -119.5t-51.5 -88.5t-79 -55t-100 -19q-56 0 -97.5 21 t-70 57.5t-42.5 86t-14 106.5v15.5t1 14.5h394zM288 52q35 0 64 13.5t50.5 37t34 55.5t14.5 69h-309v-11q0 -28 8 -57t26 -53t45.5 -39t66.5 -15z" />
<glyph unicode="&#x195;" horiz-adv-x="925" d="M532 159q0 -22 5.5 -42t17.5 -35t30 -23.5t43 -8.5q31 0 55 13t41 36t26 53t9 65v243h76v-365q0 -14 1.5 -42t3.5 -53h-74q-1 6 -1.5 17.5t-1 24t-1 25.5t-0.5 24h-4q-9 -20 -23.5 -38.5t-33 -33t-42.5 -23t-52 -8.5q-30 0 -58 9.5t-49 30t-33.5 52t-12.5 76.5v69h-286 v-225h-78v537h78v-248h286v248h78v-378z" />
<glyph unicode="&#x1a6;" horiz-adv-x="552" d="M474 281q0 -32 -9 -57t-24 -44t-33.5 -32t-37.5 -20l142 -224h-84l-123 207h-137v-111h-78v537h78v-96h102q98 0 151 -42.5t53 -117.5zM168 166h111q33 0 55 8t35.5 22t19 33t5.5 42q0 53 -29 83.5t-94 30.5h-103v-219z" />
<glyph unicode="&#x1cd;" horiz-adv-x="550" d="M29 0l199 537h94l198 -537h-71l-52 144h-248l-51 -144h-69zM169 200h208l-104 295zM462 776l-159 -160h-63l-158 160h81l109 -116l108 116h82z" />
<glyph unicode="&#x1ce;" horiz-adv-x="550" d="M29 0l199 537h94l198 -537h-71l-52 144h-248l-51 -144h-69zM169 200h208l-104 295zM462 776l-159 -160h-63l-158 160h81l109 -116l108 116h82z" />
<glyph unicode="&#x1de;" horiz-adv-x="550" d="M29 0l199 537h94l198 -537h-71l-52 144h-248l-51 -144h-69zM169 200h208l-104 295zM228 660q0 -24 -16 -40q-17 -15 -40 -15q-24 0 -40 15q-15 15 -15 40q0 26 15 41q17 14 40 14t40 -14q16 -16 16 -41zM429 660q0 -24 -16 -40q-17 -15 -39 -15q-25 0 -41 15 q-15 15 -15 40q0 26 15 41q17 14 41 14q22 0 39 -14q16 -16 16 -41zM122 819h300v-55h-300v55z" />
<glyph unicode="&#x1df;" horiz-adv-x="550" d="M29 0l199 537h94l198 -537h-71l-52 144h-248l-51 -144h-69zM169 200h208l-104 295zM228 660q0 -24 -16 -40q-17 -15 -40 -15q-24 0 -40 15q-15 15 -15 40q0 26 15 41q17 14 40 14t40 -14q16 -16 16 -41zM429 660q0 -24 -16 -40q-17 -15 -39 -15q-25 0 -41 15 q-15 15 -15 40q0 26 15 41q17 14 41 14q22 0 39 -14q16 -16 16 -41zM122 819h300v-55h-300v55z" />
<glyph unicode="&#x1e0;" horiz-adv-x="550" d="M122 819h300v-55h-300v55zM29 0l199 537h94l198 -537h-71l-52 144h-248l-51 -144h-69zM169 200h208l-104 295zM329 661q0 -27 -17 -44q-19 -16 -40 -16q-20 0 -38 16q-17 16 -17 44t17 42q16 15 38 15t40 -15q17 -15 17 -42z" />
<glyph unicode="&#x1e1;" horiz-adv-x="550" d="M122 819h300v-55h-300v55zM29 0l199 537h94l198 -537h-71l-52 144h-248l-51 -144h-69zM169 200h208l-104 295zM329 661q0 -27 -17 -44q-19 -16 -40 -16q-20 0 -38 16q-17 16 -17 44t17 42q16 15 38 15t40 -15q17 -15 17 -42z" />
<glyph unicode="&#x1e2;" horiz-adv-x="767" d="M348 498l-168 -297h168v297zM348 137h-200l-78 -137h-71l305 537h392v-64h-270v-169h251v-64h-251v-176h282v-64h-360v137zM353 670h300v-55h-300v55z" />
<glyph unicode="&#x1e3;" horiz-adv-x="767" d="M353 670h300v-55h-300v55zM348 498l-168 -297h168v297zM348 137h-200l-78 -137h-71l305 537h392v-64h-270v-169h251v-64h-251v-176h282v-64h-360v137z" />
<glyph unicode="&#x1e6;" horiz-adv-x="602" d="M475 93q-27 -58 -70 -81.5t-102 -23.5q-52 0 -96.5 20t-77 56.5t-51 87.5t-18.5 112q0 63 19.5 115.5t54.5 90t83 58.5t105 21q60 0 113 -25.5t84 -75.5l-59 -41q-22 42 -60.5 60t-80.5 18q-39 0 -72 -14.5t-56.5 -42.5t-37 -69t-13.5 -93q0 -102 47.5 -158t127.5 -56 q38 0 65.5 10.5t45 28.5t26 40.5t8.5 46.5v24h-143v62h219v-264h-53zM508 776l-159 -160h-63l-158 160h81l109 -116l108 116h82z" />
<glyph unicode="&#x1e7;" horiz-adv-x="602" d="M475 93q-27 -58 -70 -81.5t-102 -23.5q-52 0 -96.5 20t-77 56.5t-51 87.5t-18.5 112q0 63 19.5 115.5t54.5 90t83 58.5t105 21q60 0 113 -25.5t84 -75.5l-59 -41q-22 42 -60.5 60t-80.5 18q-39 0 -72 -14.5t-56.5 -42.5t-37 -69t-13.5 -93q0 -102 47.5 -158t127.5 -56 q38 0 65.5 10.5t45 28.5t26 40.5t8.5 46.5v24h-143v62h219v-264h-53zM508 776l-159 -160h-63l-158 160h81l109 -116l108 116h82z" />
<glyph unicode="&#x1e8;" horiz-adv-x="544" d="M90 537h78v-272l250 272h80l-215 -230l228 -307h-88l-189 266l-66 -66v-200h-78v537zM466 776l-159 -160h-63l-158 160h81l109 -116l108 116h82z" />
<glyph unicode="&#x1e9;" horiz-adv-x="544" d="M90 537h78v-272l250 272h80l-215 -230l228 -307h-88l-189 266l-66 -66v-200h-78v537zM466 776l-159 -160h-63l-158 160h81l109 -116l108 116h82z" />
<glyph unicode="&#x1ea;" d="M588 268q0 -58 -21 -109t-57 -89t-83.5 -60t-101.5 -22q-57 0 -106 20.5t-84 58t-55 88.5t-20 113q0 61 21.5 112.5t58 89t84.5 58.5t101 21q57 0 105 -20.5t83.5 -58t55 -89t19.5 -113.5zM508 268q0 108 -50.5 162.5t-132.5 54.5q-38 0 -71.5 -14.5t-58.5 -42.5t-40 -68 t-15 -92t14 -92t38.5 -67.5t58.5 -42t74 -14.5q85 0 134 56t49 160zM180 660h300v-55h-300v55zM420 896l41 -41l-145 -146l-41 41z" />
<glyph unicode="&#x1eb;" d="M588 268q0 -58 -21 -109t-57 -89t-83.5 -60t-101.5 -22q-57 0 -106 20.5t-84 58t-55 88.5t-20 113q0 61 21.5 112.5t58 89t84.5 58.5t101 21q57 0 105 -20.5t83.5 -58t55 -89t19.5 -113.5zM508 268q0 108 -50.5 162.5t-132.5 54.5q-38 0 -71.5 -14.5t-58.5 -42.5t-40 -68 t-15 -92t14 -92t38.5 -67.5t58.5 -42t74 -14.5q85 0 134 56t49 160zM399 9q-117 -57 -117 -111q0 -50 43 -50q29 0 54 21l25 -37q-38 -31 -81 -31q-103 0 -103 88q0 59 91 111q15 10 31 17z" />
<glyph unicode="&#x1f6;" horiz-adv-x="925" d="M532 159q0 -22 5.5 -42t17.5 -35t30 -23.5t43 -8.5q31 0 55 13t41 36t26 53t9 65v243h76v-365q0 -14 1.5 -42t3.5 -53h-74q-1 6 -1.5 17.5t-1 24t-1 25.5t-0.5 24h-4q-9 -20 -23.5 -38.5t-33 -33t-42.5 -23t-52 -8.5q-30 0 -58 9.5t-49 30t-33.5 52t-12.5 76.5v69h-286 v-225h-78v537h78v-248h286v248h78v-378z" />
<glyph unicode="&#x1fe;" d="M588 268q0 -58 -21 -109t-57 -89t-83.5 -60t-101.5 -22q-42 0 -79 11t-68 31l-40 -54l-46 35l42 56q-35 38 -54.5 88.5t-19.5 112.5q0 61 21.5 112.5t58 89t84.5 58.5t101 21q40 0 75 -10.5t65 -29.5l41 55l46 -35l-42 -56q37 -38 57.5 -90t20.5 -115zM508 268 q0 48 -11 85.5t-30 64.5l-247 -335q44 -31 105 -31q85 0 134 56t49 160zM140 268q0 -44 10.5 -80t28.5 -62l246 332q-40 27 -100 27q-38 0 -71.5 -14.5t-58.5 -42.5t-40 -68t-15 -92zM416 803l41 -41l-145 -146l-41 41z" />
<glyph unicode="&#x1ff;" d="M416 803l41 -41l-145 -146l-41 41zM588 268q0 -58 -21 -109t-57 -89t-83.5 -60t-101.5 -22q-42 0 -79 11t-68 31l-40 -54l-46 35l42 56q-35 38 -54.5 88.5t-19.5 112.5q0 61 21.5 112.5t58 89t84.5 58.5t101 21q40 0 75 -10.5t65 -29.5l41 55l46 -35l-42 -56 q37 -38 57.5 -90t20.5 -115zM508 268q0 48 -11 85.5t-30 64.5l-247 -335q44 -31 105 -31q85 0 134 56t49 160zM140 268q0 -44 10.5 -80t28.5 -62l246 332q-40 27 -100 27q-38 0 -71.5 -14.5t-58.5 -42.5t-40 -68t-15 -92z" />
<glyph unicode="&#x218;" horiz-adv-x="491" d="M365 423q-14 27 -46.5 46.5t-78.5 19.5q-48 0 -75.5 -22t-27.5 -58q0 -21 9 -36t24 -25.5t34.5 -18.5t41.5 -15q32 -12 66 -22.5t62 -27t46 -42.5t18 -69q0 -36 -14 -66.5t-39.5 -52t-62 -34t-81.5 -12.5q-74 0 -121.5 29t-61.5 71l53 41q14 -34 48 -57.5t84 -23.5 q24 0 45.5 5.5t37.5 16.5t25.5 27.5t9.5 39.5q0 26 -11 42.5t-30 28t-43.5 19.5t-49.5 17q-30 10 -59 22t-52.5 29t-37.5 41.5t-14 60.5q0 37 15 65.5t40 48t58 29t70 9.5q66 0 110 -25.5t61 -60.5zM185 -249l18 151l73 -11l-37 -146z" />
<glyph unicode="&#x219;" horiz-adv-x="491" d="M365 423q-14 27 -46.5 46.5t-78.5 19.5q-48 0 -75.5 -22t-27.5 -58q0 -21 9 -36t24 -25.5t34.5 -18.5t41.5 -15q32 -12 66 -22.5t62 -27t46 -42.5t18 -69q0 -36 -14 -66.5t-39.5 -52t-62 -34t-81.5 -12.5q-74 0 -121.5 29t-61.5 71l53 41q14 -34 48 -57.5t84 -23.5 q24 0 45.5 5.5t37.5 16.5t25.5 27.5t9.5 39.5q0 26 -11 42.5t-30 28t-43.5 19.5t-49.5 17q-30 10 -59 22t-52.5 29t-37.5 41.5t-14 60.5q0 37 15 65.5t40 48t58 29t70 9.5q66 0 110 -25.5t61 -60.5zM185 -249l18 151l73 -11l-37 -146z" />
<glyph unicode="&#x21a;" horiz-adv-x="490" d="M21 537h448v-64h-185v-473h-78v473h-185v64zM195 -249l18 151l73 -11l-37 -146z" />
<glyph unicode="&#x21b;" horiz-adv-x="490" d="M21 537h448v-64h-185v-473h-78v473h-185v64zM195 -249l18 151l73 -11l-37 -146z" />
<glyph unicode="&#x22a;" d="M588 268q0 -58 -21 -109t-57 -89t-83.5 -60t-101.5 -22q-57 0 -106 20.5t-84 58t-55 88.5t-20 113q0 61 21.5 112.5t58 89t84.5 58.5t101 21q57 0 105 -20.5t83.5 -58t55 -89t19.5 -113.5zM508 268q0 108 -50.5 162.5t-132.5 54.5q-38 0 -71.5 -14.5t-58.5 -42.5t-40 -68 t-15 -92t14 -92t38.5 -67.5t58.5 -42t74 -14.5q85 0 134 56t49 160zM380 676q0 -27 -17 -44q-19 -16 -40 -16q-20 0 -38 16q-17 16 -17 44t17 42q16 15 38 15t40 -15q17 -15 17 -42z" />
<glyph unicode="&#x22b;" d="M588 268q0 -58 -21 -109t-57 -89t-83.5 -60t-101.5 -22q-57 0 -106 20.5t-84 58t-55 88.5t-20 113q0 61 21.5 112.5t58 89t84.5 58.5t101 21q57 0 105 -20.5t83.5 -58t55 -89t19.5 -113.5zM508 268q0 108 -50.5 162.5t-132.5 54.5q-38 0 -71.5 -14.5t-58.5 -42.5t-40 -68 t-15 -92t14 -92t38.5 -67.5t58.5 -42t74 -14.5q85 0 134 56t49 160zM179 819h300v-55h-300v55zM286 660q0 -24 -16 -40q-17 -15 -40 -15q-24 0 -40 15q-15 15 -15 40q0 26 15 41q17 14 40 14t40 -14q16 -16 16 -41zM487 660q0 -24 -16 -40q-17 -15 -39 -15q-25 0 -41 15 q-15 15 -15 40q0 26 15 41q17 14 41 14q22 0 39 -14q16 -16 16 -41z" />
<glyph unicode="&#x22c;" d="M588 268q0 -58 -21 -109t-57 -89t-83.5 -60t-101.5 -22q-57 0 -106 20.5t-84 58t-55 88.5t-20 113q0 61 21.5 112.5t58 89t84.5 58.5t101 21q57 0 105 -20.5t83.5 -58t55 -89t19.5 -113.5zM508 268q0 108 -50.5 162.5t-132.5 54.5q-38 0 -71.5 -14.5t-58.5 -42.5t-40 -68 t-15 -92t14 -92t38.5 -67.5t58.5 -42t74 -14.5q85 0 134 56t49 160zM384 661q0 -27 -17 -44q-19 -16 -40 -16q-20 0 -38 16q-17 16 -17 44t17 42q16 15 38 15t40 -15q17 -15 17 -42zM179 819h300v-55h-300v55z" />
<glyph unicode="&#x22d;" d="M588 268q0 -58 -21 -109t-57 -89t-83.5 -60t-101.5 -22q-57 0 -106 20.5t-84 58t-55 88.5t-20 113q0 61 21.5 112.5t58 89t84.5 58.5t101 21q57 0 105 -20.5t83.5 -58t55 -89t19.5 -113.5zM508 268q0 108 -50.5 162.5t-132.5 54.5q-38 0 -71.5 -14.5t-58.5 -42.5t-40 -68 t-15 -92t14 -92t38.5 -67.5t58.5 -42t74 -14.5q85 0 134 56t49 160zM180 819h300v-55h-300v55zM467 724q2 -9 4 -21t2 -32q0 -13 -4.5 -26t-13.5 -24t-24 -18.5t-34 -7.5q-25 0 -43 10.5t-33.5 23.5t-29 23.5t-30.5 10.5q-18 0 -23 -15.5t-5 -31.5v-10.5t1 -10.5h-45 q-7 19 -7 52q0 13 4.5 27t13.5 25t23.5 18t33.5 7q24 0 42.5 -10.5t34 -23.5t29 -23.5t28.5 -10.5q10 0 16.5 5.5t10 13t4.5 17t1 17.5v9t-1 6h45z" />
<glyph unicode="&#x22e;" d="M588 268q0 -58 -21 -109t-57 -89t-83.5 -60t-101.5 -22q-57 0 -106 20.5t-84 58t-55 88.5t-20 113q0 61 21.5 112.5t58 89t84.5 58.5t101 21q57 0 105 -20.5t83.5 -58t55 -89t19.5 -113.5zM508 268q0 108 -50.5 162.5t-132.5 54.5q-38 0 -71.5 -14.5t-58.5 -42.5t-40 -68 t-15 -92t14 -92t38.5 -67.5t58.5 -42t74 -14.5q85 0 134 56t49 160zM179 819h300v-55h-300v55zM286 660q0 -24 -16 -40q-17 -15 -40 -15q-24 0 -40 15q-15 15 -15 40q0 26 15 41q17 14 40 14t40 -14q16 -16 16 -41zM487 660q0 -24 -16 -40q-17 -15 -39 -15q-25 0 -41 15 q-15 15 -15 40q0 26 15 41q17 14 41 14q22 0 39 -14q16 -16 16 -41z" />
<glyph unicode="&#x22f;" d="M588 268q0 -58 -21 -109t-57 -89t-83.5 -60t-101.5 -22q-57 0 -106 20.5t-84 58t-55 88.5t-20 113q0 61 21.5 112.5t58 89t84.5 58.5t101 21q57 0 105 -20.5t83.5 -58t55 -89t19.5 -113.5zM508 268q0 108 -50.5 162.5t-132.5 54.5q-38 0 -71.5 -14.5t-58.5 -42.5t-40 -68 t-15 -92t14 -92t38.5 -67.5t58.5 -42t74 -14.5q85 0 134 56t49 160zM380 676q0 -27 -17 -44q-19 -16 -40 -16q-20 0 -38 16q-17 16 -17 44t17 42q16 15 38 15t40 -15q17 -15 17 -42z" />
<glyph unicode="&#x230;" d="M588 268q0 -58 -21 -109t-57 -89t-83.5 -60t-101.5 -22q-57 0 -106 20.5t-84 58t-55 88.5t-20 113q0 61 21.5 112.5t58 89t84.5 58.5t101 21q57 0 105 -20.5t83.5 -58t55 -89t19.5 -113.5zM508 268q0 108 -50.5 162.5t-132.5 54.5q-38 0 -71.5 -14.5t-58.5 -42.5t-40 -68 t-15 -92t14 -92t38.5 -67.5t58.5 -42t74 -14.5q85 0 134 56t49 160zM180 819h300v-55h-300v55zM467 724q2 -9 4 -21t2 -32q0 -13 -4.5 -26t-13.5 -24t-24 -18.5t-34 -7.5q-25 0 -43 10.5t-33.5 23.5t-29 23.5t-30.5 10.5q-18 0 -23 -15.5t-5 -31.5v-10.5t1 -10.5h-45 q-7 19 -7 52q0 13 4.5 27t13.5 25t23.5 18t33.5 7q24 0 42.5 -10.5t34 -23.5t29 -23.5t28.5 -10.5q10 0 16.5 5.5t10 13t4.5 17t1 17.5v9t-1 6h45z" />
<glyph unicode="&#x231;" d="M588 268q0 -58 -21 -109t-57 -89t-83.5 -60t-101.5 -22q-57 0 -106 20.5t-84 58t-55 88.5t-20 113q0 61 21.5 112.5t58 89t84.5 58.5t101 21q57 0 105 -20.5t83.5 -58t55 -89t19.5 -113.5zM508 268q0 108 -50.5 162.5t-132.5 54.5q-38 0 -71.5 -14.5t-58.5 -42.5t-40 -68 t-15 -92t14 -92t38.5 -67.5t58.5 -42t74 -14.5q85 0 134 56t49 160zM384 661q0 -27 -17 -44q-19 -16 -40 -16q-20 0 -38 16q-17 16 -17 44t17 42q16 15 38 15t40 -15q17 -15 17 -42zM179 819h300v-55h-300v55z" />
<glyph unicode="&#x232;" horiz-adv-x="502" d="M19 537h77l154 -286l155 286h78l-197 -331v-206h-74v206zM101 670h300v-55h-300v55z" />
<glyph unicode="&#x233;" horiz-adv-x="502" d="M19 537h77l154 -286l155 286h78l-197 -331v-206h-74v206zM101 670h300v-55h-300v55z" />
<glyph unicode="&#x243;" horiz-adv-x="553" d="M20 179h80v358h200q80 0 127.5 -34.5t47.5 -100.5q0 -35 -17.5 -57t-38.5 -35q-25 -15 -55 -22v-4q37 -7 66 -24q25 -14 45.5 -39.5t20.5 -67.5q0 -76 -53 -114.5t-156 -38.5h-187v125h-80v54zM288 57q63 0 95.5 21t32.5 76q0 43 -31.5 70.5t-96.5 27.5h-116v-73h126v-54 h-126v-68h116zM172 308h108q54 0 84.5 24.5t30.5 65.5q0 82 -115 82h-108v-172z" />
<glyph unicode="&#x259;" horiz-adv-x="593" d="M455 289q0 52 -14 89.5t-37.5 61t-54.5 34.5t-66 11q-42 0 -70 -11t-47 -27q-19 -17 -29 -35l-66 36q8 13 20.5 25t26.5 24q27 19 68 35.5t103 16.5q63 0 109 -21t76 -58.5t44.5 -88.5t14.5 -111q0 -67 -18.5 -119.5t-51.5 -88.5t-79 -55t-100 -19q-56 0 -97.5 21 t-70 57.5t-42.5 86t-14 106.5v15.5t1 14.5h394zM288 52q35 0 64 13.5t50.5 37t34 55.5t14.5 69h-309v-11q0 -28 8 -57t26 -53t45.5 -39t66.5 -15z" />
<glyph unicode="&#x280;" horiz-adv-x="552" d="M474 281q0 -32 -9 -57t-24 -44t-33.5 -32t-37.5 -20l142 -224h-84l-123 207h-137v-111h-78v537h78v-96h102q98 0 151 -42.5t53 -117.5zM168 166h111q33 0 55 8t35.5 22t19 33t5.5 42q0 53 -29 83.5t-94 30.5h-103v-219z" />
<glyph unicode="&#x2db;" horiz-adv-x="250" d="M189 9q-117 -57 -117 -111q0 -50 43 -50q29 0 54 21l25 -37q-38 -31 -81 -31q-103 0 -103 88q0 59 91 111q15 10 31 17z" />
<glyph unicode="&#x323;" horiz-adv-x="250" d="M181 -155q0 -28 -17 -44t-40 -16q-21 0 -38 16t-17 44q0 26 17 41.5t38 15.5q23 0 40 -15.5t17 -41.5z" />
<glyph unicode="&#x327;" horiz-adv-x="250" d="M85 -249l18 151l73 -11l-37 -146z" />
<glyph unicode="&#x1e0c;" horiz-adv-x="591" d="M90 0v537h184q67 0 116 -18.5t81 -53.5t47.5 -85t15.5 -113q0 -125 -63 -196t-197 -71h-184zM270 64q51 0 86.5 12.5t57 38t31 63.5t9.5 89q0 100 -42.5 153t-145.5 53h-98v-409h102zM335 -155q0 -28 -17 -44t-40 -16q-21 0 -38 16t-17 44q0 26 17 41.5t38 15.5 q23 0 40 -15.5t17 -41.5z" />
<glyph unicode="&#x1e0d;" horiz-adv-x="591" d="M90 0v537h184q67 0 116 -18.5t81 -53.5t47.5 -85t15.5 -113q0 -125 -63 -196t-197 -71h-184zM270 64q51 0 86.5 12.5t57 38t31 63.5t9.5 89q0 100 -42.5 153t-145.5 53h-98v-409h102zM335 -155q0 -28 -17 -44t-40 -16q-21 0 -38 16t-17 44q0 26 17 41.5t38 15.5 q23 0 40 -15.5t17 -41.5z" />
<glyph unicode="&#x1e10;" horiz-adv-x="591" d="M90 0v537h184q67 0 116 -18.5t81 -53.5t47.5 -85t15.5 -113q0 -125 -63 -196t-197 -71h-184zM270 64q51 0 86.5 12.5t57 38t31 63.5t9.5 89q0 100 -42.5 153t-145.5 53h-98v-409h102zM235 -249l18 151l73 -11l-37 -146z" />
<glyph unicode="&#x1e11;" horiz-adv-x="591" d="M90 0v537h184q67 0 116 -18.5t81 -53.5t47.5 -85t15.5 -113q0 -125 -63 -196t-197 -71h-184zM270 64q51 0 86.5 12.5t57 38t31 63.5t9.5 89q0 100 -42.5 153t-145.5 53h-98v-409h102zM235 -249l18 151l73 -11l-37 -146z" />
<glyph unicode="&#x1e16;" horiz-adv-x="513" d="M168 473v-169h251v-64h-251v-176h282v-64h-360v537h348v-64h-270zM109 660h300v-55h-300v55zM349 896l41 -41l-145 -146l-41 41z" />
<glyph unicode="&#x1e17;" horiz-adv-x="513" d="M168 473v-169h251v-64h-251v-176h282v-64h-360v537h348v-64h-270zM109 660h300v-55h-300v55zM349 896l41 -41l-145 -146l-41 41z" />
<glyph unicode="&#x1e24;" horiz-adv-x="632" d="M90 0v537h78v-238h296v238h78v-537h-78v235h-296v-235h-78zM371 -155q0 -28 -17 -44t-40 -16q-21 0 -38 16t-17 44q0 26 17 41.5t38 15.5q23 0 40 -15.5t17 -41.5z" />
<glyph unicode="&#x1e25;" horiz-adv-x="632" d="M90 0v537h78v-238h296v238h78v-537h-78v235h-296v-235h-78zM371 -155q0 -28 -17 -44t-40 -16q-21 0 -38 16t-17 44q0 26 17 41.5t38 15.5q23 0 40 -15.5t17 -41.5z" />
<glyph unicode="&#x1e36;" horiz-adv-x="462" d="M168 537v-473h252v-64h-330v537h78zM314 -155q0 -28 -17 -44t-40 -16q-21 0 -38 16t-17 44q0 26 17 41.5t38 15.5q23 0 40 -15.5t17 -41.5z" />
<glyph unicode="&#x1e37;" horiz-adv-x="462" d="M168 537v-473h252v-64h-330v537h78zM314 -155q0 -28 -17 -44t-40 -16q-21 0 -38 16t-17 44q0 26 17 41.5t38 15.5q23 0 40 -15.5t17 -41.5z" />
<glyph unicode="&#x1e38;" horiz-adv-x="462" d="M168 537v-473h252v-64h-330v537h78zM314 -155q0 -28 -17 -44t-40 -16q-21 0 -38 16t-17 44q0 26 17 41.5t38 15.5q23 0 40 -15.5t17 -41.5zM108 670h300v-55h-300v55z" />
<glyph unicode="&#x1e39;" horiz-adv-x="462" d="M168 537v-473h252v-64h-330v537h78zM314 -155q0 -28 -17 -44t-40 -16q-21 0 -38 16t-17 44q0 26 17 41.5t38 15.5q23 0 40 -15.5t17 -41.5zM108 670h300v-55h-300v55z" />
<glyph unicode="&#x1e42;" horiz-adv-x="726" d="M320 90l-166 374l5 -464h-64v537h89l174 -400l186 400h87v-537h-64l5 464l-178 -374h-74zM414 -155q0 -28 -17 -44t-40 -16q-21 0 -38 16t-17 44q0 26 17 41.5t38 15.5q23 0 40 -15.5t17 -41.5z" />
<glyph unicode="&#x1e43;" horiz-adv-x="726" d="M320 90l-166 374l5 -464h-64v537h89l174 -400l186 400h87v-537h-64l5 464l-178 -374h-74zM414 -155q0 -28 -17 -44t-40 -16q-21 0 -38 16t-17 44q0 26 17 41.5t38 15.5q23 0 40 -15.5t17 -41.5z" />
<glyph unicode="&#x1e44;" horiz-adv-x="608" d="M90 0v537h85l284 -455l-7 455h66v-537h-80l-289 459l7 -459h-66zM360 676q0 -27 -17 -44q-19 -16 -40 -16q-20 0 -38 16q-17 16 -17 44t17 42q16 15 38 15t40 -15q17 -15 17 -42z" />
<glyph unicode="&#x1e45;" horiz-adv-x="608" d="M90 0v537h85l284 -455l-7 455h66v-537h-80l-289 459l7 -459h-66zM360 676q0 -27 -17 -44q-19 -16 -40 -16q-20 0 -38 16q-17 16 -17 44t17 42q16 15 38 15t40 -15q17 -15 17 -42z" />
<glyph unicode="&#x1e46;" horiz-adv-x="608" d="M90 0v537h85l284 -455l-7 455h66v-537h-80l-289 459l7 -459h-66zM363 -155q0 -28 -17 -44t-40 -16q-21 0 -38 16t-17 44q0 26 17 41.5t38 15.5q23 0 40 -15.5t17 -41.5z" />
<glyph unicode="&#x1e47;" horiz-adv-x="608" d="M90 0v537h85l284 -455l-7 455h66v-537h-80l-289 459l7 -459h-66zM363 -155q0 -28 -17 -44t-40 -16q-21 0 -38 16t-17 44q0 26 17 41.5t38 15.5q23 0 40 -15.5t17 -41.5z" />
<glyph unicode="&#x1e52;" d="M588 268q0 -58 -21 -109t-57 -89t-83.5 -60t-101.5 -22q-57 0 -106 20.5t-84 58t-55 88.5t-20 113q0 61 21.5 112.5t58 89t84.5 58.5t101 21q57 0 105 -20.5t83.5 -58t55 -89t19.5 -113.5zM508 268q0 108 -50.5 162.5t-132.5 54.5q-38 0 -71.5 -14.5t-58.5 -42.5t-40 -68 t-15 -92t14 -92t38.5 -67.5t58.5 -42t74 -14.5q85 0 134 56t49 160zM399 9q-117 -57 -117 -111q0 -50 43 -50q29 0 54 21l25 -37q-38 -31 -81 -31q-103 0 -103 88q0 59 91 111q15 10 31 17z" />
<glyph unicode="&#x1e53;" d="M588 268q0 -58 -21 -109t-57 -89t-83.5 -60t-101.5 -22q-57 0 -106 20.5t-84 58t-55 88.5t-20 113q0 61 21.5 112.5t58 89t84.5 58.5t101 21q57 0 105 -20.5t83.5 -58t55 -89t19.5 -113.5zM508 268q0 108 -50.5 162.5t-132.5 54.5q-38 0 -71.5 -14.5t-58.5 -42.5t-40 -68 t-15 -92t14 -92t38.5 -67.5t58.5 -42t74 -14.5q85 0 134 56t49 160zM180 660h300v-55h-300v55zM420 896l41 -41l-145 -146l-41 41z" />
<glyph unicode="&#x1e5a;" horiz-adv-x="567" d="M474 377q0 -32 -9 -57t-24 -44t-33.5 -32t-37.5 -20l142 -224h-84l-123 207h-137v-207h-78v537h180q98 0 151 -42.5t53 -117.5zM168 262h111q33 0 55 8t35.5 22t19 33t5.5 42q0 53 -29 83.5t-94 30.5h-103v-219zM324 -155q0 -28 -17 -44t-40 -16q-21 0 -38 16t-17 44 q0 26 17 41.5t38 15.5q23 0 40 -15.5t17 -41.5z" />
<glyph unicode="&#x1e5b;" horiz-adv-x="567" d="M474 377q0 -32 -9 -57t-24 -44t-33.5 -32t-37.5 -20l142 -224h-84l-123 207h-137v-207h-78v537h180q98 0 151 -42.5t53 -117.5zM168 262h111q33 0 55 8t35.5 22t19 33t5.5 42q0 53 -29 83.5t-94 30.5h-103v-219zM324 -155q0 -28 -17 -44t-40 -16q-21 0 -38 16t-17 44 q0 26 17 41.5t38 15.5q23 0 40 -15.5t17 -41.5z" />
<glyph unicode="&#x1e5c;" horiz-adv-x="567" d="M474 377q0 -32 -9 -57t-24 -44t-33.5 -32t-37.5 -20l142 -224h-84l-123 207h-137v-207h-78v537h180q98 0 151 -42.5t53 -117.5zM168 262h111q33 0 55 8t35.5 22t19 33t5.5 42q0 53 -29 83.5t-94 30.5h-103v-219zM324 -155q0 -28 -17 -44t-40 -16q-21 0 -38 16t-17 44 q0 26 17 41.5t38 15.5q23 0 40 -15.5t17 -41.5zM113 670h300v-55h-300v55z" />
<glyph unicode="&#x1e5d;" horiz-adv-x="567" d="M474 377q0 -32 -9 -57t-24 -44t-33.5 -32t-37.5 -20l142 -224h-84l-123 207h-137v-207h-78v537h180q98 0 151 -42.5t53 -117.5zM168 262h111q33 0 55 8t35.5 22t19 33t5.5 42q0 53 -29 83.5t-94 30.5h-103v-219zM324 -155q0 -28 -17 -44t-40 -16q-21 0 -38 16t-17 44 q0 26 17 41.5t38 15.5q23 0 40 -15.5t17 -41.5zM113 670h300v-55h-300v55z" />
<glyph unicode="&#x1e6c;" horiz-adv-x="490" d="M21 537h448v-64h-185v-473h-78v473h-185v64zM301 -155q0 -28 -17 -44t-40 -16q-21 0 -38 16t-17 44q0 26 17 41.5t38 15.5q23 0 40 -15.5t17 -41.5z" />
<glyph unicode="&#x1e6d;" horiz-adv-x="490" d="M21 537h448v-64h-185v-473h-78v473h-185v64zM301 -155q0 -28 -17 -44t-40 -16q-21 0 -38 16t-17 44q0 26 17 41.5t38 15.5q23 0 40 -15.5t17 -41.5z" />
<glyph unicode="&#x1e80;" horiz-adv-x="823" d="M463 537l132 -488l112 488h72l-141 -537h-90l-132 495l-128 -495h-90l-150 537h72l125 -488l125 488h93zM476 657l-41 -41l-145 146l41 41z" />
<glyph unicode="&#x1e81;" horiz-adv-x="823" d="M463 537l132 -488l112 488h72l-141 -537h-90l-132 495l-128 -495h-90l-150 537h72l125 -488l125 488h93zM476 657l-41 -41l-145 146l41 41z" />
<glyph unicode="&#x1e82;" horiz-adv-x="823" d="M463 537l132 -488l112 488h72l-141 -537h-90l-132 495l-128 -495h-90l-150 537h72l125 -488l125 488h93zM517 803l41 -41l-145 -146l-41 41z" />
<glyph unicode="&#x1e83;" horiz-adv-x="823" d="M463 537l132 -488l112 488h72l-141 -537h-90l-132 495l-128 -495h-90l-150 537h72l125 -488l125 488h93zM517 803l41 -41l-145 -146l-41 41z" />
<glyph unicode="&#x1e84;" horiz-adv-x="823" d="M463 537l132 -488l112 488h72l-141 -537h-90l-132 495l-128 -495h-90l-150 537h72l125 -488l125 488h93zM372 671q0 -24 -16 -40q-17 -15 -40 -15q-24 0 -40 15q-15 15 -15 40q0 26 15 41q17 14 40 14t40 -14q16 -16 16 -41zM573 671q0 -24 -16 -40q-17 -15 -39 -15 q-25 0 -41 15q-15 15 -15 40q0 26 15 41q17 14 41 14q22 0 39 -14q16 -16 16 -41z" />
<glyph unicode="&#x1e85;" horiz-adv-x="823" d="M463 537l132 -488l112 488h72l-141 -537h-90l-132 495l-128 -495h-90l-150 537h72l125 -488l125 488h93zM372 671q0 -24 -16 -40q-17 -15 -40 -15q-24 0 -40 15q-15 15 -15 40q0 26 15 41q17 14 40 14t40 -14q16 -16 16 -41zM573 671q0 -24 -16 -40q-17 -15 -39 -15 q-25 0 -41 15q-15 15 -15 40q0 26 15 41q17 14 41 14q22 0 39 -14q16 -16 16 -41z" />
<glyph unicode="&#x1e9e;" horiz-adv-x="619" d="M85 347q0 91 52 140.5t165 49.5h205v-51l-26 -33l-108 -137v-4q38 0 73 -10.5t60.5 -30.5t40.5 -49.5t15 -67.5q0 -30 -11.5 -60t-35.5 -53.5t-60.5 -38t-89.5 -14.5q-28 0 -55 5t-45 12v72q15 -10 43 -18t56 -8q56 0 88.5 27t32.5 73q0 50 -31.5 76t-118.5 26 q-7 0 -13.5 -0.5t-12.5 -1.5t-12 -1l-10 40l27 37l113 147h-126q-61 0 -99.5 -33t-38.5 -102v-339h-78v347z" />
<glyph unicode="&#x1ef2;" horiz-adv-x="502" d="M19 537h77l154 -286l155 286h78l-197 -331v-206h-74v206zM290 657l-41 -41l-145 146l41 41z" />
<glyph unicode="&#x1ef3;" horiz-adv-x="502" d="M19 537h77l154 -286l155 286h78l-197 -331v-206h-74v206zM290 657l-41 -41l-145 146l41 41z" />
<glyph unicode="&#x2019;" horiz-adv-x="200" d="M69 651h76v-107q0 -51 -22 -83.5t-54 -46.5l-49 41q20 8 34.5 29.5t14.5 59.5v107z" />
<glyph unicode="&#x2030;" horiz-adv-x="1214" d="M345 363q0 -84 -40 -133.5t-110 -49.5q-72 0 -113 49.5t-41 133.5q0 83 41 132t113 49q70 0 110 -49t40 -132zM283 362q0 60 -24 96t-66 36t-66.5 -36t-24.5 -96t24.5 -95.5t66.5 -35.5t66 35.5t24 95.5zM284 0h-64l347 537h67zM813 172q0 -84 -40 -133.5t-110 -49.5 q-72 0 -113 49.5t-41 133.5q0 83 41 132t113 49q70 0 110 -49t40 -132zM751 171q0 60 -24 96t-66 36t-66.5 -36t-24.5 -96t24.5 -95.5t66.5 -35.5t66 35.5t24 95.5zM1174 172q0 -84 -40 -133.5t-110 -49.5q-72 0 -113 49.5t-41 133.5q0 83 41 132t113 49q70 0 110 -49 t40 -132zM1112 171q0 60 -24 96t-66 36t-66.5 -36t-24.5 -96t24.5 -95.5t66.5 -35.5t66 35.5t24 95.5z" />
<glyph unicode="&#x2044;" horiz-adv-x="420" d="M67 0h-64l347 537h67z" />
<glyph unicode="&#x2070;" horiz-adv-x="380" d="M342 505q0 -84 -40 -133.5t-110 -49.5q-72 0 -113 49.5t-41 133.5q0 83 41 132t113 49q70 0 110 -49t40 -132zM280 504q0 60 -24 96t-66 36t-66.5 -36t-24.5 -96t24.5 -95.5t66.5 -35.5t66 35.5t24 95.5z" />
<glyph unicode="&#x2074;" horiz-adv-x="350" d="M176 680h91v-234h66v-48h-66v-68h-55v68h-179l-18 35l17 26zM212 638l-123 -192h123v192z" />
<glyph unicode="&#x2075;" horiz-adv-x="350" d="M118 544q11 5 29 8t36 3q24 0 46.5 -7.5t40 -21.5t28 -35.5t10.5 -49.5q0 -55 -40 -86.5t-101 -31.5q-49 0 -80.5 16.5t-46.5 36.5l40 43q10 -20 32 -36t54 -16q42 0 61.5 20.5t19.5 50.5q0 33 -20 53t-56 20q-22 0 -40.5 -8.5t-29.5 -17.5l-40 21l23 175h211v-47h-165z " />
<glyph unicode="&#x2076;" horiz-adv-x="350" d="M177 322q-37 0 -63.5 13t-43 35.5t-24.5 52.5t-8 66q0 31 6.5 65.5t23.5 64t48 48.5t79 19t76.5 -18.5t39.5 -36.5l-46 -31q-5 14 -22 28t-51 14q-28 0 -46 -12.5t-29 -32t-15.5 -42.5t-4.5 -44h3q11 20 34 33t60 13q30 0 53 -9.5t38.5 -25.5t23.5 -36.5t8 -42.5 q0 -19 -7.5 -40.5t-24 -39.5t-43.5 -29.5t-65 -11.5zM256 438q0 33 -21.5 53.5t-56.5 20.5q-15 0 -28.5 -5t-24.5 -14.5t-18 -22.5t-7 -29q0 -28 19.5 -51.5t57.5 -23.5q32 0 55.5 19t23.5 53z" />
<glyph unicode="&#x2077;" horiz-adv-x="320" d="M299 681v-40q-29 -32 -51 -70t-37.5 -78.5t-24.5 -82.5t-12 -81h-59q4 90 34.5 165t85.5 138h-212v49h276z" />
<glyph unicode="&#x2078;" horiz-adv-x="350" d="M236 516q30 -10 55.5 -32t25.5 -57q0 -51 -40.5 -78t-101.5 -27q-30 0 -56 7t-45.5 20t-30.5 32.5t-11 43.5q0 19 7 33.5t18 26t25.5 19t28.5 12.5q-24 10 -42 28.5t-18 48.5q0 37 34 65t90 28q25 0 47.5 -6.5t39.5 -18.5t27 -29t10 -37q0 -33 -19.5 -51.5t-43.5 -27.5z M109 589q0 -23 18.5 -38t47.5 -15q27 0 46.5 14t19.5 39t-19 39t-47 14q-29 0 -47.5 -14.5t-18.5 -38.5zM92 428q0 -30 23 -46t59 -16q35 0 59 15.5t24 46.5q0 29 -24 46.5t-59 17.5t-58.5 -17t-23.5 -47z" />
<glyph unicode="&#x2079;" horiz-adv-x="350" d="M173 686q37 0 63.5 -13t43 -35.5t24.5 -52.5t8 -66q0 -31 -6.5 -65.5t-23.5 -64t-48 -48.5t-79 -19t-76.5 18.5t-39.5 36.5l46 31q5 -14 22 -28t51 -14q28 0 46 12.5t29 32t15.5 42.5t4.5 44h-3q-11 -20 -34 -33t-60 -13q-30 0 -53 9.5t-38.5 25.5t-23.5 36.5t-8 42.5 q0 19 7.5 40.5t24 39.5t43.5 29.5t65 11.5zM94 570q0 -33 21.5 -53.5t56.5 -20.5q15 0 28.5 5t24.5 14.5t18 22.5t7 29q0 28 -19.5 51.5t-57.5 23.5q-32 0 -55.5 -19t-23.5 -53z" />
<glyph unicode="&#x2080;" horiz-adv-x="380" d="M342 26q0 -84 -40 -133.5t-110 -49.5q-72 0 -113 49.5t-41 133.5q0 83 41 132t113 49q70 0 110 -49t40 -132zM280 25q0 60 -24 96t-66 36t-66.5 -36t-24.5 -96t24.5 -95.5t66.5 -35.5t66 35.5t24 95.5z" />
<glyph unicode="&#x2081;" horiz-adv-x="350" d="M41 -101h108v225q-11 -7 -36.5 -11.5t-57.5 -4.5l-6 48q25 0 42 3.5t32.5 9.5t28 14.5t18.5 17.5h38v-302h103v-48h-270v48z" />
<glyph unicode="&#x2082;" horiz-adv-x="350" d="M53 79q-5 18 -5 31q0 21 9.5 38.5t25.5 30.5t38 20.5t47 7.5t47.5 -7t40 -20t27.5 -33t10 -45q0 -34 -12.5 -61.5t-33.5 -51.5t-49 -44.5t-59 -41.5h171v-52h-266v38q36 22 70 47.5t60.5 52.5t43 54t16.5 52q0 23 -15.5 43t-52.5 20q-28 0 -46 -16.5t-18 -42.5 q0 -15 5 -37z" />
<glyph unicode="&#x2083;" horiz-adv-x="350" d="M40 150q14 25 46.5 41t79.5 16q59 0 88.5 -26t29.5 -59q0 -24 -10.5 -39t-22.5 -23q-15 -10 -33 -14q24 -5 43 -16q17 -10 30.5 -28.5t13.5 -50.5q0 -27 -13 -47.5t-33 -34t-44 -20t-46 -6.5q-23 0 -43.5 3.5t-40 12.5t-34.5 19t-21 20l40 46q8 -18 32.5 -36.5 t58.5 -18.5q16 0 31 3.5t27 10.5t19.5 18.5t7.5 28.5q0 29 -17.5 44.5t-62.5 15.5q-7 0 -17.5 -1t-20.5 -2q-12 -2 -25 -3l2 54q5 -1 20.5 -1.5t20.5 -0.5q32 0 55.5 12t23.5 47q0 19 -16.5 33t-53.5 14q-36 0 -55.5 -14.5t-28.5 -37.5z" />
<glyph unicode="&#x2084;" horiz-adv-x="350" d="M176 201h91v-234h66v-48h-66v-68h-55v68h-179l-18 35l17 26zM212 159l-123 -192h123v192z" />
<glyph unicode="&#x2085;" horiz-adv-x="350" d="M118 65q11 5 29 8t36 3q24 0 46.5 -7.5t40 -21.5t28 -35.5t10.5 -49.5q0 -55 -40 -86.5t-101 -31.5q-49 0 -80.5 16.5t-46.5 36.5l40 43q10 -20 32 -36t54 -16q42 0 61.5 20.5t19.5 50.5q0 33 -20 53t-56 20q-22 0 -40.5 -8.5t-29.5 -17.5l-40 21l23 175h211v-47h-165z " />
<glyph unicode="&#x2086;" horiz-adv-x="350" d="M177 -157q-37 0 -63.5 13t-43 35.5t-24.5 52.5t-8 66q0 31 6.5 65.5t23.5 64t48 48.5t79 19t76.5 -18.5t39.5 -36.5l-46 -31q-5 14 -22 28t-51 14q-28 0 -46 -12.5t-29 -32t-15.5 -42.5t-4.5 -44h3q11 20 34 33t60 13q30 0 53 -9.5t38.5 -25.5t23.5 -36.5t8 -42.5 q0 -19 -7.5 -40.5t-24 -39.5t-43.5 -29.5t-65 -11.5zM256 -41q0 33 -21.5 53.5t-56.5 20.5q-15 0 -28.5 -5t-24.5 -14.5t-18 -22.5t-7 -29q0 -28 19.5 -51.5t57.5 -23.5q32 0 55.5 19t23.5 53z" />
<glyph unicode="&#x2087;" horiz-adv-x="320" d="M299 202v-40q-29 -32 -51 -70t-37.5 -78.5t-24.5 -82.5t-12 -81h-59q4 90 34.5 165t85.5 138h-212v49h276z" />
<glyph unicode="&#x2088;" horiz-adv-x="350" d="M236 37q30 -10 55.5 -32t25.5 -57q0 -51 -40.5 -78t-101.5 -27q-30 0 -56 7t-45.5 20t-30.5 32.5t-11 43.5q0 19 7 33.5t18 26t25.5 19t28.5 12.5q-24 10 -42 28.5t-18 48.5q0 37 34 65t90 28q25 0 47.5 -6.5t39.5 -18.5t27 -29t10 -37q0 -33 -19.5 -51.5t-43.5 -27.5z M109 110q0 -23 18.5 -38t47.5 -15q27 0 46.5 14t19.5 39t-19 39t-47 14q-29 0 -47.5 -14.5t-18.5 -38.5zM92 -51q0 -30 23 -46t59 -16q35 0 59 15.5t24 46.5q0 29 -24 46.5t-59 17.5t-58.5 -17t-23.5 -47z" />
<glyph unicode="&#x2089;" horiz-adv-x="350" d="M173 207q37 0 63.5 -13t43 -35.5t24.5 -52.5t8 -66q0 -31 -6.5 -65.5t-23.5 -64t-48 -48.5t-79 -19t-76.5 18.5t-39.5 36.5l46 31q5 -14 22 -28t51 -14q28 0 46 12.5t29 32t15.5 42.5t4.5 44h-3q-11 -20 -34 -33t-60 -13q-30 0 -53 9.5t-38.5 25.5t-23.5 36.5t-8 42.5 q0 19 7.5 40.5t24 39.5t43.5 29.5t65 11.5zM94 91q0 -33 21.5 -53.5t56.5 -20.5q15 0 28.5 5t24.5 14.5t18 22.5t7 29q0 28 -19.5 51.5t-57.5 23.5q-32 0 -55.5 -19t-23.5 -53z" />
<glyph unicode="&#x20ac;" horiz-adv-x="544" d="M38 363h74q11 45 35.5 78.5t57.5 56t71.5 34t79.5 11.5q43 0 74 -6.5t51 -14.5q23 -10 38 -21l-23 -65q-15 11 -35 20q-18 8 -44.5 14.5t-62.5 6.5q-62 0 -103.5 -29t-56.5 -85h278l-21 -61h-269q-1 -5 -1 -11q-1 -5 -1 -12v-15v-15t1 -12q1 -6 2 -11h242l-21 -61h-210 q33 -111 164 -111q35 0 61 5.5t45 13.5q21 8 38 19v-72q-19 -9 -41 -16q-20 -6 -45.5 -11t-57.5 -5q-44 0 -83.5 10.5t-72.5 32t-56.5 55t-34.5 79.5h-94l21 61h63q-1 5 -2 11q-1 5 -1 12v15v15t1 12q0 6 1 11h-83z" />
<glyph unicode="&#x2153;" horiz-adv-x="800" d="M257 0h-64l347 537h67zM23 236h108v225q-11 -7 -36.5 -11.5t-57.5 -4.5l-6 48q25 0 42 3.5t32.5 9.5t28 14.5t18.5 17.5h38v-302h103v-48h-270v48zM490 299q14 25 46.5 41t79.5 16q59 0 88.5 -26t29.5 -59q0 -24 -10.5 -39t-22.5 -23q-15 -10 -33 -14q24 -5 43 -16 q17 -10 30.5 -28.5t13.5 -50.5q0 -27 -13 -47.5t-33 -34t-44 -20t-46 -6.5q-23 0 -43.5 3.5t-40 12.5t-34.5 19t-21 20l40 46q8 -18 32.5 -36.5t58.5 -18.5q16 0 31 3.5t27 10.5t19.5 18.5t7.5 28.5q0 29 -17.5 44.5t-62.5 15.5q-7 0 -17.5 -1t-20.5 -2q-12 -2 -25 -3l2 54 q5 -1 20.5 -1.5t20.5 -0.5q32 0 55.5 12t23.5 47q0 19 -16.5 33t-53.5 14q-36 0 -55.5 -14.5t-28.5 -37.5z" />
<glyph unicode="&#x2154;" horiz-adv-x="800" d="M257 0h-64l347 537h67zM490 299q14 25 46.5 41t79.5 16q59 0 88.5 -26t29.5 -59q0 -24 -10.5 -39t-22.5 -23q-15 -10 -33 -14q24 -5 43 -16q17 -10 30.5 -28.5t13.5 -50.5q0 -27 -13 -47.5t-33 -34t-44 -20t-46 -6.5q-23 0 -43.5 3.5t-40 12.5t-34.5 19t-21 20l40 46 q8 -18 32.5 -36.5t58.5 -18.5q16 0 31 3.5t27 10.5t19.5 18.5t7.5 28.5q0 29 -17.5 44.5t-62.5 15.5q-7 0 -17.5 -1t-20.5 -2q-12 -2 -25 -3l2 54q5 -1 20.5 -1.5t20.5 -0.5q32 0 55.5 12t23.5 47q0 19 -16.5 33t-53.5 14q-36 0 -55.5 -14.5t-28.5 -37.5zM36 416 q-5 18 -5 31q0 21 9.5 38.5t25.5 30.5t38 20.5t47 7.5t47.5 -7t40 -20t27.5 -33t10 -45q0 -34 -12.5 -61.5t-33.5 -51.5t-49 -44.5t-59 -41.5h171v-52h-266v38q36 22 70 47.5t60.5 52.5t43 54t16.5 52q0 23 -15.5 43t-52.5 20q-28 0 -46 -16.5t-18 -42.5q0 -15 5 -37z" />
<glyph unicode="&#x2155;" horiz-adv-x="800" d="M257 0h-64l347 537h67zM23 236h108v225q-11 -7 -36.5 -11.5t-57.5 -4.5l-6 48q25 0 42 3.5t32.5 9.5t28 14.5t18.5 17.5h38v-302h103v-48h-270v48zM551 213q11 5 29 8t36 3q24 0 46.5 -7.5t40 -21.5t28 -35.5t10.5 -49.5q0 -55 -40 -86.5t-101 -31.5q-49 0 -80.5 16.5 t-46.5 36.5l40 43q10 -20 32 -36t54 -16q42 0 61.5 20.5t19.5 50.5q0 33 -20 53t-56 20q-22 0 -40.5 -8.5t-29.5 -17.5l-40 21l23 175h211v-47h-165z" />
<glyph unicode="&#x2156;" horiz-adv-x="800" d="M257 0h-64l347 537h67zM551 213q11 5 29 8t36 3q24 0 46.5 -7.5t40 -21.5t28 -35.5t10.5 -49.5q0 -55 -40 -86.5t-101 -31.5q-49 0 -80.5 16.5t-46.5 36.5l40 43q10 -20 32 -36t54 -16q42 0 61.5 20.5t19.5 50.5q0 33 -20 53t-56 20q-22 0 -40.5 -8.5t-29.5 -17.5l-40 21 l23 175h211v-47h-165zM36 416q-5 18 -5 31q0 21 9.5 38.5t25.5 30.5t38 20.5t47 7.5t47.5 -7t40 -20t27.5 -33t10 -45q0 -34 -12.5 -61.5t-33.5 -51.5t-49 -44.5t-59 -41.5h171v-52h-266v38q36 22 70 47.5t60.5 52.5t43 54t16.5 52q0 23 -15.5 43t-52.5 20q-28 0 -46 -16.5 t-18 -42.5q0 -15 5 -37z" />
<glyph unicode="&#x2157;" horiz-adv-x="800" d="M257 0h-64l347 537h67zM551 213q11 5 29 8t36 3q24 0 46.5 -7.5t40 -21.5t28 -35.5t10.5 -49.5q0 -55 -40 -86.5t-101 -31.5q-49 0 -80.5 16.5t-46.5 36.5l40 43q10 -20 32 -36t54 -16q42 0 61.5 20.5t19.5 50.5q0 33 -20 53t-56 20q-22 0 -40.5 -8.5t-29.5 -17.5l-40 21 l23 175h211v-47h-165zM46 487q14 25 46.5 41t79.5 16q59 0 88.5 -26t29.5 -59q0 -24 -10.5 -39t-22.5 -23q-15 -10 -33 -14q24 -5 43 -16q17 -10 30.5 -28.5t13.5 -50.5q0 -27 -13 -47.5t-33 -34t-44 -20t-46 -6.5q-23 0 -43.5 3.5t-40 12.5t-34.5 19t-21 20l40 46 q8 -18 32.5 -36.5t58.5 -18.5q16 0 31 3.5t27 10.5t19.5 18.5t7.5 28.5q0 29 -17.5 44.5t-62.5 15.5q-7 0 -17.5 -1t-20.5 -2q-12 -2 -25 -3l2 54q5 -1 20.5 -1.5t20.5 -0.5q32 0 55.5 12t23.5 47q0 19 -16.5 33t-53.5 14q-36 0 -55.5 -14.5t-28.5 -37.5z" />
<glyph unicode="&#x2158;" horiz-adv-x="800" d="M257 0h-64l347 537h67zM551 213q11 5 29 8t36 3q24 0 46.5 -7.5t40 -21.5t28 -35.5t10.5 -49.5q0 -55 -40 -86.5t-101 -31.5q-49 0 -80.5 16.5t-46.5 36.5l40 43q10 -20 32 -36t54 -16q42 0 61.5 20.5t19.5 50.5q0 33 -20 53t-56 20q-22 0 -40.5 -8.5t-29.5 -17.5l-40 21 l23 175h211v-47h-165zM140 539h91v-234h66v-48h-66v-68h-55v68h-179l-18 35l17 26zM176 497l-123 -192h123v192z" />
<glyph unicode="&#x2159;" horiz-adv-x="800" d="M257 0h-64l347 537h67zM23 236h108v225q-11 -7 -36.5 -11.5t-57.5 -4.5l-6 48q25 0 42 3.5t32.5 9.5t28 14.5t18.5 17.5h38v-302h103v-48h-270v48zM607 -8q-37 0 -63.5 13t-43 35.5t-24.5 52.5t-8 66q0 31 6.5 65.5t23.5 64t48 48.5t79 19t76.5 -18.5t39.5 -36.5l-46 -31 q-5 14 -22 28t-51 14q-28 0 -46 -12.5t-29 -32t-15.5 -42.5t-4.5 -44h3q11 20 34 33t60 13q30 0 53 -9.5t38.5 -25.5t23.5 -36.5t8 -42.5q0 -19 -7.5 -40.5t-24 -39.5t-43.5 -29.5t-65 -11.5zM686 108q0 33 -21.5 53.5t-56.5 20.5q-15 0 -28.5 -5t-24.5 -14.5t-18 -22.5 t-7 -29q0 -28 19.5 -51.5t57.5 -23.5q32 0 55.5 19t23.5 53z" />
<glyph unicode="&#x215a;" horiz-adv-x="800" d="M257 0h-64l347 537h67zM607 -8q-37 0 -63.5 13t-43 35.5t-24.5 52.5t-8 66q0 31 6.5 65.5t23.5 64t48 48.5t79 19t76.5 -18.5t39.5 -36.5l-46 -31q-5 14 -22 28t-51 14q-28 0 -46 -12.5t-29 -32t-15.5 -42.5t-4.5 -44h3q11 20 34 33t60 13q30 0 53 -9.5t38.5 -25.5 t23.5 -36.5t8 -42.5q0 -19 -7.5 -40.5t-24 -39.5t-43.5 -29.5t-65 -11.5zM686 108q0 33 -21.5 53.5t-56.5 20.5q-15 0 -28.5 -5t-24.5 -14.5t-18 -22.5t-7 -29q0 -28 19.5 -51.5t57.5 -23.5q32 0 55.5 19t23.5 53zM106 401q11 5 29 8t36 3q24 0 46.5 -7.5t40 -21.5t28 -35.5 t10.5 -49.5q0 -55 -40 -86.5t-101 -31.5q-49 0 -80.5 16.5t-46.5 36.5l40 43q10 -20 32 -36t54 -16q42 0 61.5 20.5t19.5 50.5q0 33 -20 53t-56 20q-22 0 -40.5 -8.5t-29.5 -17.5l-40 21l23 175h211v-47h-165z" />
<glyph unicode="&#x215b;" horiz-adv-x="800" d="M257 0h-64l347 537h67zM23 236h108v225q-11 -7 -36.5 -11.5t-57.5 -4.5l-6 48q25 0 42 3.5t32.5 9.5t28 14.5t18.5 17.5h38v-302h103v-48h-270v48zM673 185q30 -10 55.5 -32t25.5 -57q0 -51 -40.5 -78t-101.5 -27q-30 0 -56 7t-45.5 20t-30.5 32.5t-11 43.5q0 19 7 33.5 t18 26t25.5 19t28.5 12.5q-24 10 -42 28.5t-18 48.5q0 37 34 65t90 28q25 0 47.5 -6.5t39.5 -18.5t27 -29t10 -37q0 -33 -19.5 -51.5t-43.5 -27.5zM546 258q0 -23 18.5 -38t47.5 -15q27 0 46.5 14t19.5 39t-19 39t-47 14q-29 0 -47.5 -14.5t-18.5 -38.5zM529 97 q0 -30 23 -46t59 -16q35 0 59 15.5t24 46.5q0 29 -24 46.5t-59 17.5t-58.5 -17t-23.5 -47z" />
<glyph unicode="&#x215c;" horiz-adv-x="800" d="M257 0h-64l347 537h67zM673 185q30 -10 55.5 -32t25.5 -57q0 -51 -40.5 -78t-101.5 -27q-30 0 -56 7t-45.5 20t-30.5 32.5t-11 43.5q0 19 7 33.5t18 26t25.5 19t28.5 12.5q-24 10 -42 28.5t-18 48.5q0 37 34 65t90 28q25 0 47.5 -6.5t39.5 -18.5t27 -29t10 -37 q0 -33 -19.5 -51.5t-43.5 -27.5zM546 258q0 -23 18.5 -38t47.5 -15q27 0 46.5 14t19.5 39t-19 39t-47 14q-29 0 -47.5 -14.5t-18.5 -38.5zM529 97q0 -30 23 -46t59 -16q35 0 59 15.5t24 46.5q0 29 -24 46.5t-59 17.5t-58.5 -17t-23.5 -47zM46 487q14 25 46.5 41t79.5 16 q59 0 88.5 -26t29.5 -59q0 -24 -10.5 -39t-22.5 -23q-15 -10 -33 -14q24 -5 43 -16q17 -10 30.5 -28.5t13.5 -50.5q0 -27 -13 -47.5t-33 -34t-44 -20t-46 -6.5q-23 0 -43.5 3.5t-40 12.5t-34.5 19t-21 20l40 46q8 -18 32.5 -36.5t58.5 -18.5q16 0 31 3.5t27 10.5t19.5 18.5 t7.5 28.5q0 29 -17.5 44.5t-62.5 15.5q-7 0 -17.5 -1t-20.5 -2q-12 -2 -25 -3l2 54q5 -1 20.5 -1.5t20.5 -0.5q32 0 55.5 12t23.5 47q0 19 -16.5 33t-53.5 14q-36 0 -55.5 -14.5t-28.5 -37.5z" />
<glyph unicode="&#x215d;" horiz-adv-x="800" d="M257 0h-64l347 537h67zM673 185q30 -10 55.5 -32t25.5 -57q0 -51 -40.5 -78t-101.5 -27q-30 0 -56 7t-45.5 20t-30.5 32.5t-11 43.5q0 19 7 33.5t18 26t25.5 19t28.5 12.5q-24 10 -42 28.5t-18 48.5q0 37 34 65t90 28q25 0 47.5 -6.5t39.5 -18.5t27 -29t10 -37 q0 -33 -19.5 -51.5t-43.5 -27.5zM546 258q0 -23 18.5 -38t47.5 -15q27 0 46.5 14t19.5 39t-19 39t-47 14q-29 0 -47.5 -14.5t-18.5 -38.5zM529 97q0 -30 23 -46t59 -16q35 0 59 15.5t24 46.5q0 29 -24 46.5t-59 17.5t-58.5 -17t-23.5 -47zM106 401q11 5 29 8t36 3 q24 0 46.5 -7.5t40 -21.5t28 -35.5t10.5 -49.5q0 -55 -40 -86.5t-101 -31.5q-49 0 -80.5 16.5t-46.5 36.5l40 43q10 -20 32 -36t54 -16q42 0 61.5 20.5t19.5 50.5q0 33 -20 53t-56 20q-22 0 -40.5 -8.5t-29.5 -17.5l-40 21l23 175h211v-47h-165z" />
<glyph unicode="&#x215e;" horiz-adv-x="800" d="M257 0h-64l347 537h67zM673 185q30 -10 55.5 -32t25.5 -57q0 -51 -40.5 -78t-101.5 -27q-30 0 -56 7t-45.5 20t-30.5 32.5t-11 43.5q0 19 7 33.5t18 26t25.5 19t28.5 12.5q-24 10 -42 28.5t-18 48.5q0 37 34 65t90 28q25 0 47.5 -6.5t39.5 -18.5t27 -29t10 -37 q0 -33 -19.5 -51.5t-43.5 -27.5zM546 258q0 -23 18.5 -38t47.5 -15q27 0 46.5 14t19.5 39t-19 39t-47 14q-29 0 -47.5 -14.5t-18.5 -38.5zM529 97q0 -30 23 -46t59 -16q35 0 59 15.5t24 46.5q0 29 -24 46.5t-59 17.5t-58.5 -17t-23.5 -47zM329 538v-40q-29 -32 -51 -70 t-37.5 -78.5t-24.5 -82.5t-12 -81h-59q4 90 34.5 165t85.5 138h-212v49h276z" />
<glyph unicode="&#x215f;" horiz-adv-x="800" d="M257 0h-64l347 537h67zM23 236h108v225q-11 -7 -36.5 -11.5t-57.5 -4.5l-6 48q25 0 42 3.5t32.5 9.5t28 14.5t18.5 17.5h38v-302h103v-48h-270v48z" />
<glyph unicode="&#xe000;" horiz-adv-x="535" d="M0 535h535v-535h-535v535z" />
<glyph unicode="&#xf6c3;" horiz-adv-x="250" d="M85 -249l18 151l73 -11l-37 -146z" />
<glyph horiz-adv-x="250" d="M220 657l-41 -41l-145 146l41 41z" />
<glyph horiz-adv-x="182" d="M159 803l41 -41l-145 -146l-41 41z" />
<glyph horiz-adv-x="250" d="M-60 616l159 160h62l159 -160h-82l-108 116l-108 -116h-82z" />
<glyph horiz-adv-x="250" d="M81 671q0 -24 -16 -40q-17 -15 -40 -15q-24 0 -40 15q-15 15 -15 40q0 26 15 41q17 14 40 14t40 -14q16 -16 16 -41zM282 671q0 -24 -16 -40q-17 -15 -39 -15q-25 0 -41 15q-15 15 -15 40q0 26 15 41q17 14 41 14q22 0 39 -14q16 -16 16 -41z" />
<glyph horiz-adv-x="310" d="M300 745q2 -9 4 -21t2 -32q0 -13 -4.5 -26t-13.5 -24t-24 -18.5t-34 -7.5q-25 0 -43 10.5t-33.5 23.5t-29 23.5t-30.5 10.5q-18 0 -23 -15.5t-5 -31.5v-10.5t1 -10.5h-45q-7 19 -7 52q0 13 4.5 27t13.5 25t23.5 18t33.5 7q24 0 42.5 -10.5t34 -23.5t29 -23.5t28.5 -10.5 q10 0 16.5 5.5t10 13t4.5 17t1 17.5v9t-1 6h45z" />
<glyph horiz-adv-x="208" d="M-16 732q0 24 8.5 44.5t24 36.5t37.5 25t50 9q27 0 49 -9t37.5 -25t24.5 -36.5t9 -44.5t-9 -45.5t-24.5 -37t-37.5 -24.5t-49 -9q-56 0 -88 33.5t-32 82.5zM35 732q0 -29 19.5 -49.5t49.5 -20.5q29 0 49 20.5t20 49.5q0 28 -20 48.5t-49 20.5q-30 0 -49.5 -20.5 t-19.5 -48.5z" />
<glyph horiz-adv-x="250" d="M125 671q46 0 70.5 30t24.5 74h68q0 -34 -10.5 -63t-31 -50.5t-51 -33.5t-70.5 -12q-81 0 -122 44.5t-41 114.5h67q0 -44 26 -74t70 -30z" />
<glyph horiz-adv-x="250" d="M-25 670h300v-55h-300v55z" />
<glyph horiz-adv-x="250" d="M316 776l-159 -160h-63l-158 160h81l109 -116l108 116h82z" />
<glyph horiz-adv-x="300" d="M108 803l40 -38l-132 -149l-40 38zM282 803l40 -38l-132 -149l-40 38z" />
<glyph horiz-adv-x="250" d="M181 676q0 -27 -17 -44q-19 -16 -40 -16q-20 0 -38 16q-17 16 -17 44t17 42q16 15 38 15t40 -15q17 -15 17 -42z" />
<glyph horiz-adv-x="605" d="M90 537h78v-272l250 272h80l-215 -230l228 -307h-88l-189 266l-66 -66v-200h-78v537zM605.005 536.984l-17.999 -150.99l-72.9951 10.999l36.998 145.991z" />
<glyph horiz-adv-x="200" d="M50 551l22 171l73 -11l-41 -166z" />
<glyph horiz-adv-x="250" d="M0 616l99 160h62l99 -160h-62l-68 116l-68 -116h-62z" />
</font>
</defs>
</svg>
