<?xml version="1.0" standalone="no"?>
<!DOCTYPE svg PUBLIC "-//W3C//DTD SVG 1.1//EN" "http://www.w3.org/Graphics/SVG/1.1/DTD/svg11.dtd" >
<svg xmlns="http://www.w3.org/2000/svg">
<metadata></metadata>
<defs>
<font id="aften_screenregular" horiz-adv-x="600" >
<font-face units-per-em="1000" ascent="700" descent="-300" />
<missing-glyph horiz-adv-x="250" />
<glyph unicode=" "  horiz-adv-x="250" />
<glyph unicode="&#x09;" horiz-adv-x="250" />
<glyph unicode="&#xa0;" horiz-adv-x="250" />
<glyph unicode="!" horiz-adv-x="229" d="M170 53q0 -28 -17 -44t-40 -16q-21 0 -38 16t-17 44q0 26 17 41.5t38 15.5q23 0 40 -15.5t17 -41.5zM74 187v464h76v-464h-76z" />
<glyph unicode="&#x22;" horiz-adv-x="330" d="M56 651h70v-255h-70v255zM205 651h70v-255h-70v255z" />
<glyph unicode="#" horiz-adv-x="503" d="M360 175h100l-8 -52h-102l-26 -147h-63l26 147h-100l-26 -147h-63l26 147h-84l8 52h86l24 128h-94l8 53h96l25 145h63l-25 -145h98l27 145h63l-25 -145h89l-6 -53h-93zM321 303h-100l-24 -128h100z" />
<glyph unicode="$" horiz-adv-x="540" d="M308 751v-101q33 -2 61.5 -11.5t50 -24.5t35.5 -34t19 -40l-64 -36q-10 29 -34.5 52.5t-67.5 30.5v-229q37 -11 70 -26t58 -37t39.5 -52t14.5 -70q0 -35 -13 -65t-36.5 -53t-57 -37.5t-75.5 -18.5v-101h-63v101q-37 1 -69 11.5t-57 26.5t-42 36.5t-24 43.5l61 37 q14 -35 47 -61.5t84 -31.5v234q-36 11 -67 27t-54 39t-36.5 53.5t-13.5 70.5q0 34 12.5 63t35.5 51t54 36t69 17v99h63zM415 166q0 26 -8.5 44t-23 31t-34 21.5t-41.5 16.5v-218q48 5 77.5 32.5t29.5 72.5zM148 487q0 -25 7.5 -43t21 -31t31 -22t37.5 -17v215 q-52 -8 -74.5 -36.5t-22.5 -65.5z" />
<glyph unicode="%" horiz-adv-x="894" d="M298 0h-64l367 651h64zM204 658q81 0 124.5 -55.5t43.5 -158.5t-43.5 -158.5t-124.5 -55.5t-125 55.5t-44 158.5t44 158.5t125 55.5zM204 282q50 0 74 43.5t24 118.5t-24 118.5t-74 43.5q-51 0 -75 -43.5t-24 -118.5t24 -118.5t75 -43.5zM691 422q81 0 124.5 -55.5 t43.5 -158.5t-43.5 -158.5t-124.5 -55.5t-125 55.5t-44 158.5t44 158.5t125 55.5zM691 46q50 0 74 43.5t24 118.5t-24 118.5t-74 43.5q-51 0 -75 -43.5t-24 -118.5t24 -118.5t75 -43.5z" />
<glyph unicode="&#x26;" horiz-adv-x="647" d="M560 270q0 -42 -12.5 -83t-35.5 -76q14 -18 27 -33t22 -26q11 -13 19 -23l-58 -41q-7 8 -16 19q-8 9 -18 21.5l-22 27.5q-34 -32 -77.5 -50t-94.5 -18q-47 0 -87 13t-69.5 37.5t-46 61t-16.5 84.5q0 40 15.5 69.5t38.5 51t48.5 35.5t45.5 22q-8 10 -14.5 17.5t-8.5 11.5 q-20 26 -36 57t-16 73q0 31 11.5 57.5t32 45t48.5 29t61 10.5q38 0 67 -10.5t48.5 -29t29.5 -43t10 -52.5q0 -38 -14.5 -68.5t-35 -53t-43.5 -37.5t-40 -24l142 -176q21 48 21 101h74zM294 51q42 0 74.5 15.5t56.5 41.5l-167 209q-13 -5 -31 -15.5t-34.5 -26.5t-28 -39 t-11.5 -53q0 -25 9 -49t26.5 -42.5t44 -29.5t61.5 -11zM259 426q7 -10 27 -35q12 5 29 14.5t32 25.5t25.5 39t10.5 55q0 12 -5 26t-14.5 25t-25 18.5t-36.5 7.5q-38 0 -57.5 -24t-19.5 -60q0 -23 7 -44t27 -48z" />
<glyph unicode="'" horiz-adv-x="200" d="M65 651h70v-255h-70v255z" />
<glyph unicode="(" horiz-adv-x="250" d="M50 245q0 103 19.5 183.5t43.5 137.5q28 66 64 115h62q-34 -58 -60 -128q-23 -60 -41.5 -138.5t-18.5 -169.5t18.5 -169.5t41.5 -138.5q26 -70 60 -127h-62q-36 49 -64 115q-24 57 -43.5 137t-19.5 183z" />
<glyph unicode=")" horiz-adv-x="250" d="M200 246q0 -103 -19.5 -183.5t-43.5 -137.5q-28 -66 -64 -115h-62q34 58 60 128q23 60 41.5 138.5t18.5 169.5t-18.5 169.5t-41.5 138.5q-26 70 -60 127h62q36 -49 64 -115q24 -57 43.5 -137t19.5 -183z" />
<glyph unicode="*" horiz-adv-x="402" d="M167 681h67l-5 -145l3 -3l137 50l21 -64l-140 -40l-1 -3l89 -114l-54 -40l-82 121l-3 -1l-81 -120l-55 39l90 116l-2 2l-139 40l20 64l137 -50l3 3z" />
<glyph unicode="+" horiz-adv-x="510" d="M60 257h160v159h70v-159h160v-62h-160v-160h-70v160h-160v62z" />
<glyph unicode="," horiz-adv-x="200" d="M69 106h76v-107q0 -51 -22 -83.5t-54 -46.5l-49 41q20 8 34.5 29.5t14.5 59.5v107z" />
<glyph unicode="-" horiz-adv-x="340" d="M30 259h280v-66h-280v66z" />
<glyph unicode="." horiz-adv-x="200" d="M156 53q0 -28 -17 -44t-40 -16q-21 0 -38 16t-17 44q0 26 17 41.5t38 15.5q23 0 40 -15.5t17 -41.5z" />
<glyph unicode="/" horiz-adv-x="425" d="M82 -190h-68l330 871h68z" />
<glyph unicode="0" horiz-adv-x="580" d="M290 549q51 0 94.5 -18t76 -53.5t51 -88t18.5 -120.5q0 -66 -18.5 -118.5t-51 -88.5t-76 -55t-94.5 -19t-94.5 19t-76 55t-51 88.5t-18.5 118.5q0 70 18.5 122.5t51 87.5t76 52.5t94.5 17.5zM290 51q35 0 64.5 15t51 43.5t33.5 69t12 90.5q0 105 -45 161t-116 56 q-35 0 -65 -14.5t-51.5 -42t-33.5 -68t-12 -92.5q0 -50 12 -90.5t33.5 -69t51.5 -43.5t65 -15z" />
<glyph unicode="1" horiz-adv-x="430" d="M66 62h140v378q-22 -12 -62 -22t-81 -10l-18 61q21 0 49.5 5t57.5 14t53 21.5t36 27.5h41v-475h124v-62h-340v62z" />
<glyph unicode="2" horiz-adv-x="510" d="M43 386q0 32 13.5 61.5t38.5 52t60.5 36t79.5 13.5q41 0 76.5 -11.5t61.5 -33.5t41 -54.5t15 -75.5q0 -51 -23.5 -97t-61 -85t-84.5 -71t-94 -56h289v-65h-405v54q59 31 114 67.5t97 77t67 84t25 88.5q0 54 -32 85.5t-92 31.5q-58 0 -87.5 -32.5t-29.5 -85.5 q0 -29 10 -58l-65 10q-6 10 -10 28t-4 36z" />
<glyph unicode="3" horiz-adv-x="510" d="M356 377q0 20 -6 40t-20.5 35.5t-37.5 25.5t-56 10q-30 0 -52.5 -9.5t-38.5 -24.5t-25.5 -33.5t-12.5 -36.5l-55 43q3 21 17 43t37 39.5t56.5 28.5t75.5 11q49 0 86.5 -13.5t62.5 -37t37.5 -53.5t12.5 -63q0 -32 -14 -57t-35 -44t-46 -32.5t-48 -21.5q30 -6 60 -20.5 t53.5 -36.5t38 -51.5t14.5 -64.5q0 -39 -16.5 -74t-46.5 -61.5t-72 -42t-93 -15.5q-41 0 -73 9t-56 24t-40 33.5t-25 36.5l45 60q17 -45 55.5 -72.5t93.5 -27.5q37 0 65 11.5t47 30t28 42t9 47.5q0 26 -10 50.5t-29.5 43t-48.5 29.5t-67 11q-18 0 -43.5 -1t-48.5 -6l3 71 q3 0 10 -0.5t16 -1t17.5 -0.5h14.5q86 0 123.5 36t37.5 90z" />
<glyph unicode="4" horiz-adv-x="550" d="M521 42h-87v-161h-72v161h-313l-18 50l27 40l273 405h103v-431h87v-64zM362 106v362l-240 -362h240z" />
<glyph unicode="5" horiz-adv-x="510" d="M269 300q36 0 73 -13t67 -39.5t49 -66.5t19 -94q0 -48 -16.5 -89.5t-46.5 -72t-73 -47.5t-96 -17q-72 0 -123.5 28t-77.5 68l48 60q7 -17 20.5 -33.5t33 -30t45 -22t56.5 -8.5q39 0 67 13t47 35t28 51t9 61q0 36 -11.5 64.5t-31 48.5t-47 30.5t-58.5 10.5 q-34 0 -64.5 -11.5t-47.5 -28.5l-59 30l36 310h344v-66h-285l-23 -199q18 11 49 19.5t69 8.5z" />
<glyph unicode="6" horiz-adv-x="550" d="M278 -12q-58 1 -100 23.5t-69.5 61.5t-41 93.5t-13.5 119.5q0 73 13.5 140t43.5 118t77.5 81.5t114.5 30.5q35 0 64 -8t51.5 -20.5t37.5 -29t22 -32.5l-50 -50q-3 13 -13 27.5t-26.5 25.5t-39 18.5t-50.5 7.5q-52 0 -84 -26t-50.5 -65.5t-26 -86.5t-8.5 -90l3 -1 q12 26 35 47q19 17 50.5 32t78.5 15q55 0 94.5 -20t64 -50.5t36 -68t11.5 -71.5q0 -36 -12 -75t-39 -71.5t-70 -54t-104 -21.5zM137 212q0 -32 9.5 -61.5t27.5 -52t44 -36.5t60 -14q26 0 52 9t46.5 28.5t33.5 49t13 70.5q0 37 -11 66t-29.5 48.5t-44 29.5t-54.5 10 q-28 0 -54.5 -9.5t-46.5 -28t-32.5 -46t-13.5 -63.5z" />
<glyph unicode="7" horiz-adv-x="490" d="M448 537v-52q-47 -61 -84 -136.5t-63 -160.5q-25 -79 -39.5 -160t-19.5 -155h-76q1 74 17 160t45 171q25 75 59 142t72 124h-334v67h423z" />
<glyph unicode="8" horiz-adv-x="550" d="M380 346q34 -14 61 -37q23 -20 42.5 -51t19.5 -76q0 -47 -17 -83t-47 -60.5t-71 -37.5t-89 -13q-50 0 -92 13.5t-73.5 38t-49 60t-17.5 79.5q0 46 18.5 78t41.5 52q26 23 61 37q-26 12 -45 32q-17 17 -30.5 44t-13.5 65q0 36 15 67t41 53.5t62.5 35.5t78.5 13t78 -12 t63 -34t42.5 -52t15.5 -67q0 -42 -15 -69t-33 -44q-21 -20 -47 -32zM153 484q0 -26 10 -46.5t26.5 -35t38.5 -22.5t47 -8t47.5 8t39.5 22.5t27 35t10 46.5t-10 46.5t-27 35t-39.5 22.5t-47.5 8t-47 -8t-38.5 -22.5t-26.5 -35t-10 -46.5zM125 180q0 -32 11.5 -56t31.5 -41 t47 -25.5t59 -8.5q31 0 59 8.5t48 25.5t32 41t12 56q0 31 -12 55.5t-33 41.5t-48.5 26t-57.5 9t-57.5 -9t-47.5 -26t-32 -41.5t-12 -55.5z" />
<glyph unicode="9" horiz-adv-x="550" d="M261 549q60 0 103 -24t71 -66t41.5 -100t13.5 -126q0 -86 -12.5 -155t-41 -117t-75.5 -74t-115 -26q-35 0 -65.5 8t-54.5 21t-40.5 29t-23.5 32l50 54q6 -14 17.5 -28.5t28.5 -26.5t39.5 -20t49.5 -8q47 0 78.5 19.5t51.5 55.5t29 87t11 114l-2 1q-15 -26 -38 -46 q-20 -17 -51.5 -31.5t-77.5 -14.5q-56 0 -95.5 21.5t-64.5 53.5t-36 70.5t-11 72.5q0 36 11.5 75.5t37.5 72.5t68 54.5t103 21.5zM407 320q0 32 -9 62.5t-27.5 54t-45.5 38t-63 14.5q-27 0 -52 -9.5t-45 -28.5t-32 -48t-12 -69q0 -38 10.5 -68.5t29.5 -52t44 -33.5t55 -12 q29 0 55 10.5t46.5 30t32.5 48t13 63.5z" />
<glyph unicode=":" horiz-adv-x="200" d="M156 405q0 -28 -17 -44t-40 -16q-21 0 -38 16t-17 44q0 26 17 41.5t38 15.5q23 0 40 -15.5t17 -41.5zM156 53q0 -28 -17 -44t-40 -16q-21 0 -38 16t-17 44q0 26 17 41.5t38 15.5q23 0 40 -15.5t17 -41.5z" />
<glyph unicode=";" horiz-adv-x="200" d="M69 106h76v-107q0 -51 -22 -83.5t-54 -46.5l-49 41q20 8 34.5 29.5t14.5 59.5v107zM162 405q0 -28 -17 -44t-40 -16q-21 0 -38 16t-17 44q0 26 17 41.5t38 15.5q23 0 40 -15.5t17 -41.5z" />
<glyph unicode="&#x3c;" horiz-adv-x="510" d="M326 -14l-231 247l231 242l45 -43l-194 -199l192 -206z" />
<glyph unicode="=" horiz-adv-x="510" d="M60 322h390v-62h-390v62zM60 183h390v-62h-390v62z" />
<glyph unicode="&#x3e;" horiz-adv-x="510" d="M121 21l192 206l-194 199l45 43l231 -242l-231 -247z" />
<glyph unicode="?" horiz-adv-x="400" d="M243 53q0 -28 -17 -44t-40 -16q-21 0 -38 16t-17 44q0 26 17 41.5t38 15.5q23 0 40 -15.5t17 -41.5zM14 561q17 42 62.5 71t109.5 29q40 0 75.5 -10.5t62 -31.5t42 -53.5t15.5 -77.5q0 -35 -12.5 -64t-34 -51.5t-50 -38t-61.5 -22.5v-124h-76v168q24 3 51.5 11.5t51.5 24 t39.5 38.5t15.5 56q0 23 -7 43.5t-21.5 36.5t-37.5 25t-54 9q-41 0 -67 -21.5t-39 -51.5z" />
<glyph unicode="@" horiz-adv-x="900" d="M656 -137q-15 -9 -37.5 -16.5t-49.5 -13.5t-56 -9t-58 -3q-84 0 -156.5 27.5t-125.5 77.5t-83.5 121.5t-30.5 159.5q0 82 27.5 155.5t79.5 129t128 87.5t172 32q97 0 167.5 -31.5t116.5 -82t68 -113t22 -124.5q0 -50 -13 -93t-36.5 -74.5t-56 -50t-70.5 -18.5 q-45 0 -74 24t-39 63h-4q-8 -38 -44.5 -62.5t-88.5 -24.5q-38 0 -68.5 14t-52 39.5t-33 60.5t-11.5 76t11.5 76.5t32.5 61t51 40t67 14.5q44 0 75.5 -18.5t48.5 -44.5l4 2q0 14 1 29t3 21h69q-2 -20 -3 -43t-1 -37v-155q0 -35 17.5 -55t43.5 -20q21 0 39 12.5t31 34.5 t20.5 52.5t7.5 66.5q0 48 -15 100.5t-50 97t-92.5 73t-142.5 28.5q-88 0 -151 -31t-103 -80.5t-59 -110t-19 -120.5q0 -74 26 -134.5t71 -103.5t104.5 -66t126.5 -23q50 0 96.5 11.5t72.5 28.5zM433 85q46 0 76 33t30 97t-30 97t-76 33q-47 0 -77.5 -33t-30.5 -97t30.5 -97 t77.5 -33z" />
<glyph unicode="A" d="M30 0l219 651h102l219 -651h-77l-54 168h-279l-50 -168h-80zM180 230h239l-119 370z" />
<glyph unicode="B" horiz-adv-x="584" d="M405 350q37 -12 67 -34q25 -19 46 -50.5t21 -79.5q0 -93 -57.5 -139.5t-169.5 -46.5h-222v651h235q88 0 139.5 -41t51.5 -119q0 -40 -17.5 -66t-37.5 -42q-25 -18 -55 -30zM164 368h156q57 0 86 29.5t29 80.5q0 54 -32 83t-98 29h-141v-222zM317 61q69 0 106 28t37 88 t-30.5 97t-97.5 37h-168v-250h153z" />
<glyph unicode="C" horiz-adv-x="618" d="M505 498q-6 20 -20.5 38t-35.5 31.5t-46.5 21.5t-54.5 8q-54 0 -93 -21t-64 -58t-37 -88t-12 -110t12.5 -108t38 -84t63 -54.5t87.5 -19.5q31 0 58.5 8t49 22t36 33t21.5 40l66 -40q-11 -27 -31.5 -50.5t-50.5 -41t-68.5 -27.5t-83.5 -10q-59 0 -110.5 22.5t-89 65 t-59 104.5t-21.5 140q0 79 21.5 142.5t60 108t91.5 68.5t115 24q43 0 79.5 -10t65 -27t49 -40t31.5 -48z" />
<glyph unicode="D" horiz-adv-x="658" d="M90 0v651h217q141 0 218.5 -84t77.5 -242q0 -156 -77.5 -240.5t-218.5 -84.5h-217zM308 66q107 0 160 66.5t53 192.5q0 127 -53 193.5t-160 66.5h-139v-519h139z" />
<glyph unicode="E" horiz-adv-x="555" d="M169 585v-224h284v-66h-284v-229h326v-66h-405v651h392v-66h-313z" />
<glyph unicode="F" horiz-adv-x="510" d="M169 585v-252h254v-66h-254v-267h-79v651h375v-66h-296z" />
<glyph unicode="G" horiz-adv-x="675" d="M595 327v-327h-58l-10 99h-4q-8 -21 -24.5 -41t-40 -35.5t-52.5 -25t-61 -9.5q-63 0 -115 22.5t-90 65t-59 104.5t-21 140q0 79 21 142.5t59.5 108t92.5 68.5t119 24q45 0 83 -9.5t67.5 -25.5t50 -37.5t30.5 -45.5l-68 -40q-10 38 -54 65t-109 27q-59 0 -99 -21 t-64.5 -58t-35.5 -88t-11 -110t12.5 -108t38.5 -84t65.5 -54.5t93.5 -19.5q40 0 71 12.5t52.5 32.5t32.5 45.5t11 52.5v64h-176v66h252z" />
<glyph unicode="H" horiz-adv-x="685" d="M595 651v-651h-79v294h-347v-294h-79v651h79v-291h347v291h79z" />
<glyph unicode="I" horiz-adv-x="259" d="M90 0v651h79v-651h-79z" />
<glyph unicode="J" horiz-adv-x="448" d="M363 651v-445q0 -105 -45.5 -161.5t-142.5 -56.5q-55 0 -97.5 20t-62.5 49l57 47q14 -21 41 -35.5t60 -14.5q57 0 83.5 35.5t26.5 113.5v448h80z" />
<glyph unicode="K" horiz-adv-x="582" d="M169 332l283 319h87l-255 -290l273 -361h-99l-224 317l-65 -62v-255h-79v651h79v-319z" />
<glyph unicode="L" horiz-adv-x="505" d="M169 651v-585h306v-66h-385v651h79z" />
<glyph unicode="M" horiz-adv-x="788" d="M352 121l-194 453l5 -574h-73v651h101l205 -472l204 472h98v-651h-73l5 574l-194 -453h-84z" />
<glyph unicode="N" horiz-adv-x="671" d="M161 0h-71v651h92l332 -573l-4 573h71v-651h-93l-332 570z" />
<glyph unicode="O" horiz-adv-x="705" d="M645 326q0 -79 -22 -142t-61 -106.5t-92.5 -66.5t-116.5 -23t-117 23t-93 66.5t-61 106.5t-22 142q0 80 22 142.5t61 106t93 66t117 22.5t116.5 -22.5t92.5 -66t61 -106t22 -142.5zM563 326q0 66 -15 117t-43 85t-66.5 51.5t-85.5 17.5t-85.5 -17.5t-67 -51.5t-44 -85 t-15.5 -117t15.5 -117t44 -85.5t67 -52t85.5 -17.5t85.5 17.5t66.5 52t43 85.5t15 117z" />
<glyph unicode="P" horiz-adv-x="558" d="M508 443q0 -53 -15.5 -93.5t-43.5 -68t-65.5 -41.5t-80.5 -14h-134v-226h-79v651h190q112 0 170 -50.5t58 -157.5zM169 292h131q39 0 63.5 10.5t39 30t20 47t5.5 61.5q0 71 -32.5 107.5t-105.5 36.5h-121v-293z" />
<glyph unicode="Q" horiz-adv-x="705" d="M353 663q63 0 116.5 -22.5t92.5 -66t61 -106.5t22 -144q0 -48 -11 -91t-29.5 -79.5t-44.5 -66t-56 -50.5q24 -26 51 -45t50 -32q26 -15 52 -26l-75 -40q-19 9 -37.5 23.5t-34.5 31t-29 32t-21 27.5q-51 -20 -107 -20q-62 0 -115.5 23t-93 66t-62 105.5t-22.5 141.5 q0 80 22 143t61 106.5t93 66.5t117 23zM353 49q96 0 153 69.5t57 206.5q0 66 -15 117t-43 85.5t-66.5 52t-85.5 17.5t-85.5 -18t-67 -52.5t-44 -85.5t-15.5 -117q0 -69 16.5 -120.5t45 -86t67.5 -51.5t83 -17z" />
<glyph unicode="R" horiz-adv-x="585" d="M169 326h122q43 0 71.5 9.5t45 27t23 42t6.5 55.5q0 58 -30 91.5t-105 33.5h-133v-259zM448 0l-123 260h-156v-260h-79v651h203q111 0 168 -50t57 -142q0 -38 -12.5 -69t-32 -54.5t-42 -38t-42.5 -20.5l141 -277h-82z" />
<glyph unicode="S" horiz-adv-x="542" d="M408 513q-12 34 -45 60t-91 26q-33 0 -56.5 -9t-37.5 -24t-20.5 -34t-6.5 -38q0 -27 11.5 -47t31 -34.5t46 -26t55.5 -22.5q37 -14 72 -29t62 -36.5t43.5 -50.5t16.5 -71q0 -41 -15.5 -75.5t-44.5 -59.5t-69.5 -39.5t-89.5 -14.5q-41 0 -77 10t-64.5 27t-48 39.5 t-26.5 48.5l64 40q14 -42 53.5 -71t101.5 -29t100 30t38 81q0 27 -12 47t-32 35.5t-46 27t-55 22.5q-38 15 -73 30t-61.5 36t-42.5 50t-16 71t16 75.5t43.5 56.5t65.5 35.5t82 12.5q38 0 71 -9t58 -24.5t41.5 -36.5t21.5 -44z" />
<glyph unicode="T" horiz-adv-x="547" d="M30 651h487v-67h-204v-584h-79v584h-204v67z" />
<glyph unicode="U" horiz-adv-x="638" d="M317 -12q-115 0 -173.5 59t-58.5 173v431h80v-436q0 -41 12 -71t33 -50t49 -30t60 -10t60 10t49 30t33 50t12 71v436h80v-431q0 -109 -60.5 -170.5t-175.5 -61.5z" />
<glyph unicode="V" horiz-adv-x="570" d="M545 651l-209 -651h-102l-209 651h77l183 -608l185 608h75z" />
<glyph unicode="W" horiz-adv-x="901" d="M498 651l149 -602l142 602h75l-165 -651h-108l-144 611l-141 -611h-108l-166 651h76l142 -602l149 602h99z" />
<glyph unicode="X" horiz-adv-x="584" d="M118 0h-88l210 330l-204 321h84l170 -290l172 290h84l-204 -321l210 -330h-88l-174 298z" />
<glyph unicode="Y" horiz-adv-x="533" d="M10 651h78l177 -357l183 357h75l-219 -401v-250h-79v250z" />
<glyph unicode="Z" horiz-adv-x="536" d="M492 600l-24 -34l-360 -501h393v-65h-475v51l24 33l361 502h-365v65h446v-51z" />
<glyph unicode="[" horiz-adv-x="300" d="M90 681h169v-64h-98v-743h98v-64h-169v871z" />
<glyph unicode="\" horiz-adv-x="425" d="M341.005 -190h67.9961l-329.979 871h-67.9961z" />
<glyph unicode="]" horiz-adv-x="300" d="M210 -190h-169v64h98v743h-98v64h169v-871z" />
<glyph unicode="^" horiz-adv-x="510" d="M459 401l-206 192l-199 -194l-43 46l242 230l247 -231z" />
<glyph unicode="_" horiz-adv-x="460" d="M0 -70h460v-66h-460v66z" />
<glyph unicode="`" horiz-adv-x="250" d="M220 607l-41 -41l-145 146l41 41z" />
<glyph unicode="a" horiz-adv-x="511" d="M212 48q31 0 54.5 9.5t39.5 25.5t25 36t9 41v40l-44 -5.5t-54 -7.5q-20 -3 -39.5 -8t-33.5 -13q-28 -17 -30 -52q0 -33 19 -49.5t54 -16.5zM66 369q13 29 38 52q21 20 55 35.5t82 15.5t81 -12t53.5 -33t29.5 -52t9 -65v-188q0 -35 8 -46t25 -11q11 0 16 1l10 2l4 -59 q-8 -5 -18.5 -8t-31.5 -3q-32 0 -52 21.5t-24 55.5q-21 -37 -61 -62t-90 -25q-65 0 -101.5 33t-36.5 90q1 35 18.5 57.5t43.5 36.5q26 13 55 20t68 12l93 12v55q0 47 -24 76t-76 29q-33 0 -54 -11t-33 -25q-14 -17 -23 -38z" />
<glyph unicode="b" horiz-adv-x="579" d="M452 230q0 89 -42 134.5t-105 45.5t-104 -45.5t-41 -134.5t41 -134t104 -45t105 45t42 134zM166 711v-263q0 -9 -0.5 -19t-1.5 -18q-1 -10 -1 -20h5q10 13 25 27.5t34.5 26.5t43 20t51.5 8q46 0 84.5 -18t66 -50.5t42.5 -77t15 -97.5t-15.5 -97t-43.5 -76.5t-66.5 -50.5 t-84.5 -18q-26 0 -49.5 7.5t-43.5 20.5t-36 28.5t-26 32.5h-5q0 -9 -1 -20t-1.5 -22t-1.5 -20.5t-2 -14.5h-69q2 22 3.5 49.5t1.5 44.5v617h76z" />
<glyph unicode="c" horiz-adv-x="468" d="M374 345q-10 24 -37 42.5t-74 18.5q-73 0 -105 -48.5t-32 -126.5q0 -80 32.5 -128.5t104.5 -48.5q45 0 74 17.5t37 43.5l61 -35q-14 -39 -59.5 -65.5t-109.5 -26.5q-48 0 -88 16.5t-68.5 48t-44.5 76t-16 101.5t16 101.5t44.5 76t68.5 48t87 16.5q63 0 108 -27t62 -65z " />
<glyph unicode="d" horiz-adv-x="579" d="M127 230q0 -89 42 -134t105 -45t104 45t41 134t-41 134.5t-104 45.5t-105 -45.5t-42 -134.5zM489 711v-617q0 -17 1.5 -44.5t3.5 -49.5h-69q-1 5 -2 14.5t-1.5 20.5t-1.5 22t-1 20h-5q-10 -17 -26 -32.5t-36.5 -28.5t-45 -20.5t-50.5 -7.5q-44 0 -82 17t-65.5 48.5 t-43.5 75.5t-16 98t16.5 99.5t45 78t67.5 50.5t84 18q25 0 48 -7t42.5 -19t34.5 -26.5t24 -29.5h5q-2 14 -2.5 30.5t-0.5 26.5v263h76z" />
<glyph unicode="e" horiz-adv-x="508" d="M125 221q2 -88 42 -129.5t101 -41.5q32 0 53.5 9.5t35.5 21.5q15 13 24 31l68 -35q-14 -26 -39 -45q-21 -17 -55.5 -30.5t-85.5 -13.5q-57 0 -98.5 19t-68.5 52t-40 77t-13 93q0 57 16 102.5t45 76.5t69 47.5t87 16.5q48 0 84 -16.5t59.5 -46.5t35.5 -70.5t12 -88.5 v-14.5t-1 -14.5h-331zM262 410q-57 0 -92 -36t-41 -92h247v8q0 21 -6.5 42.5t-20 39t-35 28t-52.5 10.5z" />
<glyph unicode="f" horiz-adv-x="317" d="M113 0v397h-83v63h83v115q0 70 38.5 109t101.5 39q11 0 20.5 -1t17.5 -3q9 -2 16 -3l-10 -61q-5 1 -11 2q-5 1 -11.5 2t-14.5 1q-30 0 -50.5 -19.5t-20.5 -74.5v-106h105v-63h-105v-397h-76z" />
<glyph unicode="g" horiz-adv-x="537" d="M214 -49q-50 0 -75.5 -18.5t-25.5 -60.5q0 -21 7.5 -36t24 -24t43.5 -13.5t67 -4.5q83 0 120.5 19.5t37.5 64.5q0 38 -26.5 55.5t-86.5 17.5h-86zM249 174q53 0 81.5 29.5t28.5 89.5q0 120 -109 120q-54 0 -85 -30.5t-31 -89.5q0 -60 30.5 -89.5t84.5 -29.5zM526 401 q-5 1 -11.5 1.5t-14.5 0.5q-32 0 -53.5 -11t-30.5 -17q11 -20 15.5 -36.5t4.5 -43.5q0 -85 -45 -128t-141 -53q-29 -3 -50.5 -12.5t-21.5 -38.5q0 -48 55 -48h113q71 0 110 -31.5t39 -85.5q0 -72 -65 -116t-184 -44q-106 0 -159 31.5t-53 88.5q0 26 10.5 46.5t29 35.5 t43.5 23.5t55 10.5q-26 7 -42.5 26t-16.5 44q0 29 20 50t52 29q-24 7 -47 21t-40.5 34.5t-28.5 48t-11 62.5q0 42 15 75.5t41 57.5t61 37t75 13q46 0 84 -19.5t59 -48.5q6 11 16.5 24t25.5 24.5t33.5 19t40.5 7.5q7 0 11.5 -0.5t10.5 -1.5z" />
<glyph unicode="h" horiz-adv-x="553" d="M161 711v-342q15 28 38 51q20 20 50.5 36t73.5 16q33 0 61 -9.5t49 -30.5t33 -53t12 -77v-302h-76v303q0 21 -6.5 40.5t-19 34t-32 23.5t-45.5 9q-35 0 -61 -15.5t-43 -40t-25.5 -54t-8.5 -57.5v-243h-76v711h76z" />
<glyph unicode="i" horiz-adv-x="256" d="M184 627q0 -27 -17 -44q-19 -16 -40 -16q-20 0 -38 16q-17 16 -17 44t17 42q16 15 38 15t40 -15q17 -15 17 -42zM90 0v460h76v-460h-76z" />
<glyph unicode="j" horiz-adv-x="256" d="M166 460v-574q0 -70 -38.5 -109t-99.5 -39q-14 0 -29.5 2t-26.5 5l10 61q17 -5 35 -5q13 0 26 4t23.5 14.5t17 28.5t6.5 46v566h76zM185 627q0 -27 -17 -44q-19 -16 -40 -16q-20 0 -38 16q-17 16 -17 44t17 42q16 15 38 15t40 -15q17 -15 17 -42z" />
<glyph unicode="k" horiz-adv-x="506" d="M378 460h86l-190 -190l207 -270h-90l-165 228l-65 -62v-166h-76v711h76v-483z" />
<glyph unicode="l" horiz-adv-x="256" d="M90 711h76v-711h-76v711z" />
<glyph unicode="m" horiz-adv-x="835" d="M463 0h-76v303q0 21 -5.5 40.5t-17.5 34t-30 23.5t-42 9q-32 0 -55.5 -15t-39 -38.5t-23.5 -52.5t-8 -56v-248h-76v365q0 15 -1.5 42.5t-3.5 52.5h74q1 -6 1.5 -17.5t1 -24t0.5 -26v-23.5h4q9 19 23 37.5t33 33t41.5 23.5t47.5 9q45 0 72 -18t43 -40q18 -26 27 -58h4 q7 22 21.5 43t34.5 37t45.5 26t54.5 10q46 0 74.5 -17t44.5 -42t22 -54t6 -52v-307h-76v303q0 16 -4.5 35t-15.5 35t-29 26.5t-46 10.5t-51.5 -13.5t-40 -36t-25.5 -51.5t-9 -60v-249z" />
<glyph unicode="n" horiz-adv-x="558" d="M407 303q0 21 -6.5 40.5t-19 34t-32 23.5t-46.5 9q-34 0 -59.5 -15t-43 -39t-26 -54t-8.5 -60v-242h-76v365q0 15 -1.5 42.5t-3.5 52.5h74q1 -6 1.5 -17.5t1 -24t0.5 -26v-23.5h5q8 19 23 37.5t35 33t44.5 23.5t53.5 9q34 0 63 -9.5t50.5 -29.5t34 -52t12.5 -77v-304h-76 v303z" />
<glyph unicode="o" horiz-adv-x="537" d="M488 230q0 -57 -16.5 -102t-45.5 -76t-69 -47.5t-88 -16.5t-88 16.5t-69.5 47.5t-46 76t-16.5 102t16.5 102t46 76t69.5 47.5t88 16.5t88 -16.5t69 -47.5t45.5 -76t16.5 -102zM411 230q0 89 -39.5 134t-102.5 45t-103 -45t-40 -134t40 -134t103 -45t102.5 45t39.5 134z " />
<glyph unicode="p" horiz-adv-x="579" d="M452 231q0 89 -42 134t-105 45t-104 -45t-41 -134t41 -134.5t104 -45.5t105 45.5t42 134.5zM90 -250v616q0 15 -1 31.5t-2 30.5l-2 32h69q1 -5 2 -14.5t1.5 -20t1.5 -21.5t1 -20h5q9 16 24.5 31.5t36.5 28.5t46 21t52 8q46 0 84 -18t65 -50.5t42 -77t15 -97.5t-15 -97 t-42.5 -76.5t-66.5 -50.5t-86 -18q-26 0 -49.5 7t-43.5 18.5t-35 26.5t-24 30h-5q2 -14 2.5 -30.5t0.5 -26.5v-263h-76z" />
<glyph unicode="q" horiz-adv-x="579" d="M127 231q0 -89 42 -134.5t105 -45.5t104 45.5t41 134.5t-41 134t-104 45t-105 -45t-42 -134zM413 -250v263v18.5t1 18.5l2 20h-5q-9 -15 -24 -29.5t-34.5 -26.5t-43 -19t-49.5 -7q-47 0 -85.5 18.5t-66.5 50.5t-43.5 76.5t-15.5 97.5q0 52 15.5 96.5t43.5 77t66.5 50.5 t84.5 18q28 0 53 -8.5t45 -21t34.5 -28.5t22.5 -31h5q0 9 1 20t1.5 21.5t1.5 20t2 14.5h69q-2 -22 -3.5 -49.5t-1.5 -44.5v-616h-76z" />
<glyph unicode="r" horiz-adv-x="342" d="M315 386q-10 2 -24 2q-58 0 -91.5 -42.5t-33.5 -114.5v-231h-76v375q0 17 -1.5 42t-3.5 43h72q2 -24 3.5 -51.5t1.5 -42.5h5q5 20 19 38.5t32.5 33t39.5 23.5t41 9q5 0 12 -0.5t9 -1.5z" />
<glyph unicode="s" horiz-adv-x="457" d="M336 349q-11 26 -39 44t-70 18t-65 -19t-23 -48q0 -18 8 -30t22.5 -21t33.5 -15.5t41 -12.5q30 -8 60.5 -17.5t54.5 -24t39 -36.5t15 -56q0 -30 -12 -56t-35.5 -45.5t-56.5 -30.5t-75 -11q-54 0 -88.5 15.5t-56.5 34.5q-26 22 -40 50l61 36q9 -21 27 -38 q14 -14 38.5 -25.5t60.5 -11.5q19 0 37.5 4t32.5 13t22.5 22t8.5 31q0 34 -31 50t-83 31q-28 8 -56.5 18t-51 25t-36.5 37t-14 54q0 31 13 56.5t36 43.5t53.5 28t66.5 10q61 0 106 -26t59 -62z" />
<glyph unicode="t" horiz-adv-x="357" d="M108 460v96l76 10v-106h138v-63h-138v-270q0 -16 2.5 -29.5t9.5 -24t20 -16.5t33 -6q23 0 35.5 4t24.5 12l13 -60q-15 -8 -35 -14t-46 -6q-58 0 -95.5 30t-37.5 99v281h-73v63h73z" />
<glyph unicode="u" horiz-adv-x="549" d="M156 159q0 -22 5.5 -42t17.5 -35t30 -23.5t43 -8.5q31 0 55 13t41 36t26 53t9 65v243h76v-365q0 -14 1.5 -42t3.5 -53h-74q-1 6 -1.5 17.5t-1 24t-1 25.5t-0.5 24h-4q-9 -20 -23.5 -38.5t-33 -33t-42 -23t-51.5 -8.5q-30 0 -57.5 9.5t-48.5 30t-33.5 52t-12.5 76.5v304 h76v-301z" />
<glyph unicode="v" horiz-adv-x="460" d="M186 0l-161 460h76l134 -413l127 413h73l-154 -460h-95z" />
<glyph unicode="w" horiz-adv-x="716" d="M410 460l102 -419l91 419h73l-117 -460h-96l-107 423l-103 -423h-94l-119 460h75l89 -417l102 417h104z" />
<glyph unicode="x" horiz-adv-x="467" d="M232 264l122 196h78l-147 -227l152 -233h-82l-123 202l-121 -202h-81l152 233l-147 227h78z" />
<glyph unicode="y" horiz-adv-x="473" d="M236 -180q-15 -44 -42 -62.5t-66 -18.5q-10 0 -27.5 2t-31.5 5l9 61q7 -2 18 -3t20 -1q26 0 42 12.5t22 32.5q3 11 8.5 30t11.5 39q6 23 14 49l-184 494h75l142 -414l128 414h73z" />
<glyph unicode="z" horiz-adv-x="433" d="M390 407l-33 -42l-234 -302h275v-63h-353v53l25 32l241 312h-261v63h340v-53z" />
<glyph unicode="{" horiz-adv-x="350" d="M309 -190q-48 0 -79 10.5t-49 29t-25.5 44t-7.5 54.5v187q0 32 -23 52.5t-55 20.5v76q32 0 55 20t23 52v187q0 29 7.5 54.5t25.5 44t49 29t79 10.5v-54q-24 0 -42.5 -3.5t-30.5 -14.5t-18.5 -31t-6.5 -53v-184q0 -17 -6 -32.5t-16.5 -28t-25 -21t-30.5 -11.5v-4 q16 -3 30.5 -11.5t25 -21t16.5 -28t6 -32.5v-184q0 -31 6.5 -51t19 -31.5t30.5 -16t42 -4.5v-54z" />
<glyph unicode="|" horiz-adv-x="250" d="M90 -190v871h71v-871h-71z" />
<glyph unicode="}" horiz-adv-x="350" d="M41 681q48 0 79 -10.5t49 -29t25.5 -44t7.5 -54.5v-187q0 -32 23 -52.5t55 -20.5v-76q-32 0 -55 -20t-23 -52v-187q0 -29 -7.5 -54.5t-25.5 -44t-49 -29t-79 -10.5v54q24 0 42.5 3.5t30.5 14.5t18.5 31t6.5 53v184q0 17 6 32.5t16.5 28t25 21t30.5 11.5v4 q-16 3 -30.5 11.5t-25 21t-16.5 28t-6 32.5v184q0 31 -6.5 51t-19 31.5t-30.5 16t-42 4.5v54z" />
<glyph unicode="~" horiz-adv-x="510" d="M398 274h52q5 -14 7.5 -32t2.5 -30q0 -40 -21.5 -59.5t-58.5 -19.5q-32 0 -64.5 12.5t-62.5 27t-58 27t-51 12.5t-30.5 -11.5t-7.5 -22.5q0 -8 2 -19t5 -22h-53q-5 13 -7.5 28.5t-2.5 28.5q0 39 21.5 61.5t61.5 22.5q31 0 62.5 -12.5t61.5 -27t57.5 -27t51.5 -12.5 q21 0 29.5 10t8.5 23q0 7 -2 19t-4 23z" />
<glyph unicode="&#xa1;" horiz-adv-x="230" d="M171 408.003q0 27.999 -17 43.998t-40 15.999q-21 0 -38 -15.999t-17 -43.998q0 -25.998 17 -41.4971t38 -15.499q23 0 40 15.499t17 41.4971zM75 274.012v-463.972h76v463.972h-76z" />
<glyph unicode="&#xa2;" horiz-adv-x="500" d="M392 338q-10 26 -34.5 45.5t-62.5 21.5v-350q38 2 63 22t34 45l62 -37q-7 -17 -20.5 -33t-34 -28.5t-46.5 -20.5t-58 -9v-96h-63v98q-39 6 -72.5 24t-58 48t-38.5 70.5t-14 91.5q0 50 13.5 90.5t38 69.5t58 47.5t73.5 25.5v99h63v-96q57 -2 99.5 -29t59.5 -62zM126 230 q0 -69 27.5 -114.5t78.5 -57.5v343q-54 -14 -80 -58.5t-26 -112.5z" />
<glyph unicode="&#xa3;" horiz-adv-x="580" d="M283 271q12 -22 26 -57t14 -73q0 -15 -3 -28t-7 -22q-4 -11 -9 -19q10 -5 23 -9q11 -4 26.5 -6.5t35.5 -2.5q26 0 39 12t20 26q7 17 9 38h79q0 -24 -5 -49t-19.5 -46t-40.5 -34t-67 -13q-31 0 -55.5 5.5t-41.5 13.5q-20 8 -36 19q-10 -11 -27 -19q-14 -8 -37 -13.5 t-55 -5.5q-42 0 -65 19t-23 51q0 35 24 52t56 17q18 0 36 -4.5t32 -9.5q17 -6 31 -13q2 3 4 7t3 10t1 15q0 18 -5 37.5t-12 38t-16 35t-16 28.5h-119v62h84q-5 8 -12 23.5t-14.5 36t-12.5 45t-5 50.5q0 35 13 66.5t38.5 55.5t63.5 38.5t89 14.5q60 0 95.5 -13.5t55.5 -29.5 q23 -18 31 -42l-36 -60q-12 23 -32 41q-17 16 -44.5 29t-68.5 13q-63 0 -94.5 -33t-31.5 -87q0 -24 5 -46.5t12.5 -42.5t15.5 -35t13 -24h177v-62h-142zM130 56q0 -11 9 -16t22 -5q17 0 29.5 2.5t20.5 6.5q10 4 17 9q-9 6 -20 10q-10 4 -23 7.5t-28 3.5q-10 0 -18.5 -4 t-8.5 -14z" />
<glyph unicode="&#xa4;" d="M476 472q22 -29 34 -65.5t12 -78.5q0 -41 -11.5 -76.5t-31.5 -64.5l70 -68l-37 -37l-66 67q-29 -27 -66.5 -41.5t-79.5 -14.5t-80 14.5t-67 41.5l-65 -67l-37 37l68 68q-20 29 -31 64.5t-11 76.5q0 42 12 79t34 66l-72 71l37 37l70 -71q29 25 65 38.5t77 13.5t77 -14 t65 -39l70 72l37 -37zM449 328q0 34 -11.5 63.5t-31.5 51.5t-47 35t-59 13t-59.5 -13t-47.5 -35t-31.5 -51.5t-11.5 -63.5t12 -63.5t32 -52t47.5 -35.5t58.5 -13t58 13t47.5 35.5t32 52t11.5 63.5z" />
<glyph unicode="&#xa5;" horiz-adv-x="580" d="M70 400h100l-136 251h72l183 -338l196 338h62l-139 -251h104v-61h-137l-43 -76h180v-61h-184v-202h-79v202h-179v61h174l-40 76h-134v61z" />
<glyph unicode="&#xa6;" horiz-adv-x="250" d="M90 164h71v-354h-71v354zM161 327h-71v354h71v-354z" />
<glyph unicode="&#xa7;" horiz-adv-x="480" d="M124 57q14 -25 41 -43.5t75 -18.5q47 0 74 20t27 52q0 28 -20 45.5t-50.5 30t-65.5 24.5t-65.5 29t-50.5 42.5t-20 65.5q0 43 21 70.5t43 46.5q-21 15 -37 41t-16 61q0 26 11 51.5t32.5 45t53.5 31.5t74 12q62 0 105 -25t61 -63l-64 -37q-10 25 -34.5 43.5t-68.5 18.5 t-69 -19.5t-25 -51.5q0 -28 19.5 -46t49 -31t63.5 -24.5t63.5 -28.5t49 -42.5t19.5 -65.5q0 -41 -19.5 -67.5t-43.5 -47.5q27 -18 43.5 -44.5t16.5 -59.5q0 -27 -11.5 -52t-34.5 -44.5t-56.5 -31.5t-77.5 -12q-65 0 -110.5 25t-66.5 63zM343 282q0 25 -15 42t-38.5 29.5 t-51.5 22.5t-55 22q-12 -14 -25 -36.5t-13 -47.5t15 -42t38 -29.5t52 -22.5t56 -21q12 15 24.5 36.5t12.5 46.5z" />
<glyph unicode="&#xa8;" horiz-adv-x="250" d="M81 622q0 -24 -16 -40q-17 -15 -40 -15q-24 0 -40 15q-15 15 -15 40q0 26 15 41q17 14 40 14t40 -14q16 -16 16 -41zM282 622q0 -24 -16 -40q-17 -15 -39 -15q-25 0 -41 15q-15 15 -15 40q0 26 15 41q17 14 41 14q22 0 39 -14q16 -16 16 -41z" />
<glyph unicode="&#xa9;" horiz-adv-x="737" d="M481 243l57 -34q-19 -33 -60.5 -56.5t-95.5 -23.5q-45 0 -82 13.5t-63.5 39t-41 62t-14.5 82.5t15 82t41.5 61.5t63 39t80.5 13.5q54 0 97 -24t61 -58l-62 -36q-10 24 -36 41t-67 17q-36 0 -59 -11.5t-36.5 -31t-18.5 -44t-5 -49.5q0 -26 4.5 -50.5t18 -43.5t38 -31 t63.5 -12q36 0 62.5 15.5t39.5 38.5zM80 326q0 -62 22 -115t61 -93t91.5 -62.5t113.5 -22.5t114 22.5t92 62.5t61 93t22 115q0 61 -22 114.5t-61 93t-92 62t-114 22.5t-113.5 -22.5t-91.5 -62t-61 -93t-22 -114.5zM30 326q0 70 26 131t71.5 107t107 72.5t133.5 26.5 t134 -26.5t107.5 -72.5t71.5 -107t26 -131t-26 -131.5t-71.5 -107.5t-107.5 -72.5t-134 -26.5t-133.5 26.5t-107 72.5t-71.5 107.5t-26 131.5z" />
<glyph unicode="&#xaa;" horiz-adv-x="350" d="M43 577q6 14 15.5 28t25.5 25t37.5 18t51.5 7q61 0 86 -30t25 -82v-141q0 -27 25 -27q7 0 10 1q2 0 4 1l6 -38q-5 -5 -17 -8.5t-26 -3.5q-28 0 -39.5 14.5t-14.5 35.5h-4q-8 -20 -34.5 -37.5t-66.5 -17.5q-48 0 -70 27t-22 61q0 22 8.5 37.5t22 26.5t31 17t36.5 8l94 12 v30q0 32 -12 49.5t-49 17.5q-33 0 -47.5 -13t-19.5 -31zM146 370q13 0 27.5 3.5t26.5 11t19.5 17.5t7.5 24v42l-75 -8q-58 -6 -58 -47q0 -23 15 -33t37 -10z" />
<glyph unicode="&#xab;" horiz-adv-x="455" d="M152 36l-122 180l122 180h70l-110 -180l110 -180h-70zM327 36l-122 180l122 180h70l-110 -180l110 -180h-70z" />
<glyph unicode="&#xac;" horiz-adv-x="510" d="M40 317h430v-197h-58v135h-372v62z" />
<glyph unicode="&#xad;" horiz-adv-x="340" d="M30 257h280v-62h-280v62z" />
<glyph unicode="&#xae;" horiz-adv-x="737" d="M440 138l-63 135h-59v-135h-76v378h132q73 0 110 -34.5t37 -84.5q0 -24 -6 -42t-16.5 -31.5t-24 -22t-27.5 -12.5l74 -151h-81zM318 333h46q26 0 41.5 5.5t24 13.5t11.5 18.5t3 21.5q0 24 -17 42.5t-62 18.5h-47v-120zM80 326q0 -62 22 -115t61 -93t91.5 -62.5 t113.5 -22.5t114 22.5t92 62.5t61 93t22 115q0 61 -22 114.5t-61 93t-92 62t-114 22.5t-113.5 -22.5t-91.5 -62t-61 -93t-22 -114.5zM30 326q0 70 26 131t71.5 107t107 72.5t133.5 26.5t134 -26.5t107.5 -72.5t71.5 -107t26 -131t-26 -131.5t-71.5 -107.5t-107.5 -72.5 t-134 -26.5t-133.5 26.5t-107 72.5t-71.5 107.5t-26 131.5z" />
<glyph unicode="&#xaf;" horiz-adv-x="250" d="M-25 622h300v-55h-300v55z" />
<glyph unicode="&#xb0;" horiz-adv-x="350" d="M175 710q28 0 53 -10.5t43.5 -28.5t29 -43t10.5 -53q0 -29 -10.5 -53.5t-29 -42.5t-43.5 -28.5t-53 -10.5q-29 0 -53.5 10.5t-43 28.5t-29 42.5t-10.5 53.5q0 28 10.5 53t29 43t43 28.5t53.5 10.5zM175 491q37 0 59.5 23t22.5 61q0 37 -22.5 60.5t-59.5 23.5t-59.5 -23.5 t-22.5 -60.5q0 -38 22.5 -61t59.5 -23z" />
<glyph unicode="&#xb1;" horiz-adv-x="510" d="M60 354h160v159h70v-159h160v-62h-160v-160h-70v160h-160v62zM60 63h390v-62h-390v62z" />
<glyph unicode="&#xb2;" horiz-adv-x="350" d="M53 558q-5 18 -5 31q0 21 9.5 38.5t25.5 30.5t38 20.5t47 7.5t47.5 -7t40 -20t27.5 -33t10 -45q0 -34 -12.5 -61.5t-33.5 -51.5t-49 -44.5t-59 -41.5h171v-52h-266v38q36 22 70 47.5t60.5 52.5t43 54t16.5 52q0 23 -15.5 43t-52.5 20q-28 0 -46 -16.5t-18 -42.5 q0 -15 5 -37z" />
<glyph unicode="&#xb3;" horiz-adv-x="350" d="M40 629q14 25 46.5 41t79.5 16q59 0 88.5 -26t29.5 -59q0 -24 -10.5 -39t-22.5 -23q-15 -10 -33 -14q24 -5 43 -16q17 -10 30.5 -28.5t13.5 -50.5q0 -27 -13 -47.5t-33 -34t-44 -20t-45 -6.5q-21 -1 -46 4t-41.5 13t-31.5 18t-21 20l40 46q8 -18 32.5 -36.5t58.5 -18.5 q16 0 31 3.5t27 10.5t19.5 18.5t7.5 28.5q0 29 -17.5 44.5t-62.5 15.5q-7 0 -17.5 -1t-20.5 -2q-12 -2 -25 -3l2 54q5 -1 20.5 -1.5t20.5 -0.5q32 0 55.5 12t23.5 47q0 19 -16.5 33t-53.5 14q-36 0 -55.5 -14.5t-28.5 -37.5z" />
<glyph unicode="&#xb4;" horiz-adv-x="250" d="M179 753l41 -41l-145 -146l-41 41z" />
<glyph unicode="&#xb5;" horiz-adv-x="559" d="M469 85q0 -14 1.5 -39t3.5 -46h-74q-1 6 -1.5 17t-1 23.5t-1 25.5t-0.5 24l-4 1q-7 -19 -19 -37.5t-28 -33t-36 -23.5t-42 -9q-37 0 -65.5 18.5t-38.5 38.5l-3 -2q1 -16 3 -33q1 -14 2 -30t1 -30v-201h-76v711h76v-301q0 -22 5.5 -42t17.5 -35t29.5 -23.5t41.5 -8.5 q32 0 56.5 13t41.5 36t26 53t9 65v243h76v-375z" />
<glyph unicode="&#xb6;" horiz-adv-x="580" d="M299 651v-712h-66v288q-44 0 -81 14t-64 41t-42.5 66.5t-15.5 90.5q0 52 15.5 91.5t42.5 66.5t64 40.5t81 13.5h66zM537 590h-94v-651h-66v712h160v-61z" />
<glyph unicode="&#xb7;" horiz-adv-x="192" d="M153 216q0 -28 -17 -44t-40 -16q-21 0 -38 16t-17 44q0 26 17 41.5t38 15.5q23 0 40 -15.5t17 -41.5z" />
<glyph unicode="&#xb8;" horiz-adv-x="195" d="M87 17q17 -8 31 -17q71 -44 71 -101q0 -98 -115 -98q-50 0 -84 31l25 37q28 -21 62 -21q50 0 50 56q0 59 -97 105z" />
<glyph unicode="&#xb9;" horiz-adv-x="350" d="M41 378h108v225q-11 -7 -36.5 -11.5t-57.5 -4.5l-6 48q25 0 42 3.5t32.5 9.5t28 14.5t18.5 17.5h38v-302h103v-48h-270v48z" />
<glyph unicode="&#xba;" horiz-adv-x="350" d="M27 489q0 79 41 122.5t107 43.5t107 -43.5t41 -122.5t-41 -123t-107 -44t-107 44t-41 123zM87 489q0 -23 5.5 -45t16.5 -38.5t27.5 -26.5t38.5 -10t38.5 9.5t27.5 26t16.5 38.5t5.5 46t-5.5 46t-16.5 38t-27.5 25.5t-38.5 9.5t-38.5 -9.5t-27.5 -25.5t-16.5 -38t-5.5 -46 z" />
<glyph unicode="&#xbb;" horiz-adv-x="455" d="M303 396l122 -180l-122 -180h-70l110 180l-110 180h70zM128 396l122 -180l-122 -180h-70l110 180l-110 180h70z" />
<glyph unicode="&#xbc;" horiz-adv-x="800" d="M249 0h-64l367 651h64zM41 350h108v225q-11 -7 -36.5 -11.5t-57.5 -4.5l-6 48q25 0 42 3.5t32.5 9.5t28 14.5t18.5 17.5h38v-302h103v-48h-270v48zM593 351h91v-234h66v-48h-66v-68h-55v68h-179l-18 35l17 26zM629 309l-123 -192h123v192z" />
<glyph unicode="&#xbd;" horiz-adv-x="800" d="M249 0h-64l367 651h64zM41 350h108v225q-11 -7 -36.5 -11.5t-57.5 -4.5l-6 48q25 0 42 3.5t32.5 9.5t28 14.5t18.5 17.5h38v-302h103v-48h-270v48zM495 229q-5 18 -5 31q0 21 9.5 38.5t25.5 30.5t38 20.5t47 7.5t47.5 -7t40 -20t27.5 -33t10 -45q0 -34 -12.5 -61.5 t-33.5 -51.5t-49 -44.5t-59 -41.5h171v-52h-266v38q36 22 70 47.5t60.5 52.5t43 54t16.5 52q0 23 -15.5 43t-52.5 20q-28 0 -46 -16.5t-18 -42.5q0 -15 5 -37z" />
<glyph unicode="&#xbe;" horiz-adv-x="800" d="M47 601q14 25 46.5 41t79.5 16q59 0 88.5 -26t29.5 -59q0 -24 -10.5 -39t-22.5 -23q-15 -10 -33 -14q24 -5 43 -16q17 -10 30.5 -28.5t13.5 -50.5q0 -27 -13 -47.5t-33 -34t-44 -20t-45 -6.5q-21 -1 -46 4t-41.5 13t-31.5 18t-21 20l40 46q8 -18 32.5 -36.5t58.5 -18.5 q16 0 31 3.5t27 10.5t19.5 18.5t7.5 28.5q0 29 -17.5 44.5t-62.5 15.5q-7 0 -17.5 -1t-20.5 -2q-12 -2 -25 -3l2 54q5 -1 20.5 -1.5t20.5 -0.5q32 0 55.5 12t23.5 47q0 19 -16.5 33t-53.5 14q-36 0 -55.5 -14.5t-28.5 -37.5zM249 0h-64l367 651h64zM593 351h91v-234h66v-48 h-66v-68h-55v68h-179l-18 35l17 26zM629 309l-123 -192h123v192z" />
<glyph unicode="&#xbf;" horiz-adv-x="400" d="M152.015 408.003q0 27.999 16.999 43.998t39.998 15.999q20.998 0 37.9971 -15.999t16.999 -43.998q0 -25.998 -16.999 -41.4971t-37.9971 -15.499q-22.999 0 -39.998 15.499t-16.999 41.4971zM381.001 -99.9658q-16.999 -41.9971 -62.4961 -70.9951 q-45.4971 -28.999 -109.493 -28.999q-39.998 0 -75.4961 10.5q-35.4971 10.499 -61.9961 31.498q-26.498 20.998 -41.9971 53.4961t-15.499 77.4951q0 34.998 12.499 63.9961q12.499 28.999 33.998 51.4971q21.499 22.499 49.9971 37.998t61.4961 22.499v123.992h75.9951 v-167.99q-23.998 -3 -51.4971 -11.499q-27.498 -8.49902 -51.4961 -23.999q-23.999 -15.499 -39.498 -38.4971q-15.499 -22.999 -15.499 -55.9971q0 -22.998 7 -43.4971q6.99902 -20.499 21.498 -36.498t37.498 -24.998t53.9971 -8.99902q40.9971 0 66.9951 21.498 q25.999 21.499 38.998 51.4971z" />
<glyph unicode="&#xc0;" d="M30 0l219 651h102l219 -651h-77l-54 168h-279l-50 -168h-80zM180 230h239l-119 370zM343 798l-41 -41l-145 146l41 41z" />
<glyph unicode="&#xc1;" d="M30 0l219 651h102l219 -651h-77l-54 168h-279l-50 -168h-80zM180 230h239l-119 370zM406 944l41 -41l-145 -146l-41 41z" />
<glyph unicode="&#xc2;" d="M30 0l219 651h102l219 -651h-77l-54 168h-279l-50 -168h-80zM180 230h239l-119 370zM111 758l159 160h62l159 -160h-82l-108 116l-108 -116h-82z" />
<glyph unicode="&#xc3;" d="M30 0l219 651h102l219 -651h-77l-54 168h-279l-50 -168h-80zM180 230h239l-119 370zM440 887q2 -9 4 -21t2 -32q0 -13 -4.5 -26t-13.5 -24t-24 -18.5t-34 -7.5q-25 0 -43 10.5t-33.5 23.5t-29 23.5t-30.5 10.5q-18 0 -23 -15.5t-5 -31.5v-10.5t1 -10.5h-45q-7 19 -7 52 q0 13 4.5 27t13.5 25t23.5 18t33.5 7q24 0 42.5 -10.5t34 -23.5t29 -23.5t28.5 -10.5q10 0 16.5 5.5t10 13t4.5 17t1 17.5v9t-1 6h45z" />
<glyph unicode="&#xc4;" d="M30 0l219 651h102l219 -651h-77l-54 168h-279l-50 -168h-80zM180 230h239l-119 370zM255 813q0 -24 -16 -40q-17 -15 -40 -15q-24 0 -40 15q-15 15 -15 40q0 26 15 41q17 14 40 14t40 -14q16 -16 16 -41zM456 813q0 -24 -16 -40q-17 -15 -39 -15q-25 0 -41 15 q-15 15 -15 40q0 26 15 41q17 14 41 14q22 0 39 -14q16 -16 16 -41z" />
<glyph unicode="&#xc5;" d="M30 0l219 651h102l219 -651h-77l-54 168h-279l-50 -168h-80zM180 230h239l-119 370zM183 872q0 48 31.5 81t85.5 33q26 0 47.5 -9t37 -24.5t24 -36t8.5 -44.5t-8.5 -45t-24 -36t-37 -24t-47.5 -9q-54 0 -85.5 33t-31.5 81zM233 872q0 -29 19 -49t48 -20q28 0 47.5 20 t19.5 49q0 28 -19.5 48.5t-47.5 20.5q-29 0 -48 -20.5t-19 -48.5z" />
<glyph unicode="&#xc6;" horiz-adv-x="818" d="M75 0h-71l333 651h410v-66h-283v-224h264v-66h-264v-229h296v-66h-375v164h-229zM385 610l-199 -381h199v381z" />
<glyph unicode="&#xc7;" horiz-adv-x="618" d="M505 498q-6 20 -20.5 38t-35.5 31.5t-46.5 21.5t-54.5 8q-54 0 -93 -21t-64 -58t-37 -88t-12 -110t12.5 -108t38 -84t63 -54.5t87.5 -19.5q31 0 58.5 8t49 22t36 33t21.5 40l66 -40q-11 -27 -31.5 -50.5t-50.5 -41t-68.5 -27.5t-83.5 -10q-59 0 -110.5 22.5t-89 65 t-59 104.5t-21.5 140q0 79 21.5 142.5t60 108t91.5 68.5t115 24q43 0 79.5 -10t65 -27t49 -40t31.5 -48zM308 17q17 -8 31 -17q71 -44 71 -101q0 -98 -115 -98q-50 0 -84 31l25 37q28 -21 62 -21q50 0 50 56q0 59 -97 105z" />
<glyph unicode="&#xc8;" horiz-adv-x="555" d="M169 585v-224h284v-66h-284v-229h326v-66h-405v651h392v-66h-313zM338 798l-41 -41l-145 146l41 41z" />
<glyph unicode="&#xc9;" horiz-adv-x="555" d="M169 585v-224h284v-66h-284v-229h326v-66h-405v651h392v-66h-313zM397 944l41 -41l-145 -146l-41 41z" />
<glyph unicode="&#xca;" horiz-adv-x="555" d="M169 585v-224h284v-66h-284v-229h326v-66h-405v651h392v-66h-313zM98 758l159 160h62l159 -160h-82l-108 116l-108 -116h-82z" />
<glyph unicode="&#xcb;" horiz-adv-x="555" d="M169 585v-224h284v-66h-284v-229h326v-66h-405v651h392v-66h-313zM242 813q0 -24 -16 -40q-17 -15 -40 -15q-24 0 -40 15q-15 15 -15 40q0 26 15 41q17 14 40 14t40 -14q16 -16 16 -41zM443 813q0 -24 -16 -40q-17 -15 -39 -15q-25 0 -41 15q-15 15 -15 40q0 26 15 41 q17 14 41 14q22 0 39 -14q16 -16 16 -41z" />
<glyph unicode="&#xcc;" horiz-adv-x="259" d="M90 0v651h79v-651h-79zM170 798l-41 -41l-145 146l41 41z" />
<glyph unicode="&#xcd;" horiz-adv-x="259" d="M90 0v651h79v-651h-79zM232 944l41 -41l-145 -146l-41 41z" />
<glyph unicode="&#xce;" horiz-adv-x="259" d="M90 0v651h79v-651h-79zM-61 758l159 160h62l159 -160h-82l-108 116l-108 -116h-82z" />
<glyph unicode="&#xcf;" horiz-adv-x="259" d="M90 0v651h79v-651h-79zM83 813q0 -24 -16 -40q-17 -15 -40 -15q-24 0 -40 15q-15 15 -15 40q0 26 15 41q17 14 40 14t40 -14q16 -16 16 -41zM284 813q0 -24 -16 -40q-17 -15 -39 -15q-25 0 -41 15q-15 15 -15 40q0 26 15 41q17 14 41 14q22 0 39 -14q16 -16 16 -41z" />
<glyph unicode="&#xd0;" horiz-adv-x="668" d="M30 356h90v295h192q141 0 216 -84t75 -242q0 -156 -75 -240.5t-216 -84.5h-192v294h-90v62zM313 66q107 0 157.5 66.5t50.5 192.5q0 127 -50.5 193.5t-157.5 66.5h-114v-229h111v-62h-111v-228h114z" />
<glyph unicode="&#xd1;" horiz-adv-x="671" d="M161 0h-71v651h92l332 -573l-4 573h71v-651h-93l-332 570zM476 887q2 -9 4 -21t2 -32q0 -13 -4.5 -26t-13.5 -24t-24 -18.5t-34 -7.5q-25 0 -43 10.5t-33.5 23.5t-29 23.5t-30.5 10.5q-18 0 -23 -15.5t-5 -31.5v-10.5t1 -10.5h-45q-7 19 -7 52q0 13 4.5 27t13.5 25 t23.5 18t33.5 7q24 0 42.5 -10.5t34 -23.5t29 -23.5t28.5 -10.5q10 0 16.5 5.5t10 13t4.5 17t1 17.5v9t-1 6h45z" />
<glyph unicode="&#xd2;" horiz-adv-x="705" d="M645 326q0 -79 -22 -142t-61 -106.5t-92.5 -66.5t-116.5 -23t-117 23t-93 66.5t-61 106.5t-22 142q0 80 22 142.5t61 106t93 66t117 22.5t116.5 -22.5t92.5 -66t61 -106t22 -142.5zM563 326q0 66 -15 117t-43 85t-66.5 51.5t-85.5 17.5t-85.5 -17.5t-67 -51.5t-44 -85 t-15.5 -117t15.5 -117t44 -85.5t67 -52t85.5 -17.5t85.5 17.5t66.5 52t43 85.5t15 117zM401 798l-41 -41l-145 146l41 41z" />
<glyph unicode="&#xd3;" horiz-adv-x="705" d="M645 326q0 -79 -22 -142t-61 -106.5t-92.5 -66.5t-116.5 -23t-117 23t-93 66.5t-61 106.5t-22 142q0 80 22 142.5t61 106t93 66t117 22.5t116.5 -22.5t92.5 -66t61 -106t22 -142.5zM563 326q0 66 -15 117t-43 85t-66.5 51.5t-85.5 17.5t-85.5 -17.5t-67 -51.5t-44 -85 t-15.5 -117t15.5 -117t44 -85.5t67 -52t85.5 -17.5t85.5 17.5t66.5 52t43 85.5t15 117zM453 944l41 -41l-145 -146l-41 41z" />
<glyph unicode="&#xd4;" horiz-adv-x="705" d="M645 326q0 -79 -22 -142t-61 -106.5t-92.5 -66.5t-116.5 -23t-117 23t-93 66.5t-61 106.5t-22 142q0 80 22 142.5t61 106t93 66t117 22.5t116.5 -22.5t92.5 -66t61 -106t22 -142.5zM563 326q0 66 -15 117t-43 85t-66.5 51.5t-85.5 17.5t-85.5 -17.5t-67 -51.5t-44 -85 t-15.5 -117t15.5 -117t44 -85.5t67 -52t85.5 -17.5t85.5 17.5t66.5 52t43 85.5t15 117zM163 758l159 160h62l159 -160h-82l-108 116l-108 -116h-82z" />
<glyph unicode="&#xd5;" horiz-adv-x="705" d="M645 326q0 -79 -22 -142t-61 -106.5t-92.5 -66.5t-116.5 -23t-117 23t-93 66.5t-61 106.5t-22 142q0 80 22 142.5t61 106t93 66t117 22.5t116.5 -22.5t92.5 -66t61 -106t22 -142.5zM563 326q0 66 -15 117t-43 85t-66.5 51.5t-85.5 17.5t-85.5 -17.5t-67 -51.5t-44 -85 t-15.5 -117t15.5 -117t44 -85.5t67 -52t85.5 -17.5t85.5 17.5t66.5 52t43 85.5t15 117zM493 887q2 -9 4 -21t2 -32q0 -13 -4.5 -26t-13.5 -24t-24 -18.5t-34 -7.5q-25 0 -43 10.5t-33.5 23.5t-29 23.5t-30.5 10.5q-18 0 -23 -15.5t-5 -31.5v-10.5t1 -10.5h-45q-7 19 -7 52 q0 13 4.5 27t13.5 25t23.5 18t33.5 7q24 0 42.5 -10.5t34 -23.5t29 -23.5t28.5 -10.5q10 0 16.5 5.5t10 13t4.5 17t1 17.5v9t-1 6h45z" />
<glyph unicode="&#xd6;" horiz-adv-x="705" d="M645 326q0 -79 -22 -142t-61 -106.5t-92.5 -66.5t-116.5 -23t-117 23t-93 66.5t-61 106.5t-22 142q0 80 22 142.5t61 106t93 66t117 22.5t116.5 -22.5t92.5 -66t61 -106t22 -142.5zM563 326q0 66 -15 117t-43 85t-66.5 51.5t-85.5 17.5t-85.5 -17.5t-67 -51.5t-44 -85 t-15.5 -117t15.5 -117t44 -85.5t67 -52t85.5 -17.5t85.5 17.5t66.5 52t43 85.5t15 117zM305 813q0 -24 -16 -40q-17 -15 -40 -15q-24 0 -40 15q-15 15 -15 40q0 26 15 41q17 14 40 14t40 -14q16 -16 16 -41zM506 813q0 -24 -16 -40q-17 -15 -39 -15q-25 0 -41 15 q-15 15 -15 40q0 26 15 41q17 14 41 14q22 0 39 -14q16 -16 16 -41z" />
<glyph unicode="&#xd7;" horiz-adv-x="510" d="M370 65l-115 114l-115 -114l-46 46l114 115l-114 115l46 46l115 -114l115 114l46 -46l-114 -115l114 -115z" />
<glyph unicode="&#xd8;" horiz-adv-x="705" d="M645 326q0 -79 -22 -142t-61 -106.5t-92.5 -66.5t-116.5 -23q-50 0 -94 14t-79 42l-45 -60l-50 36l50 67q-35 44 -55 104t-20 135q0 80 22 142.5t61 106t93 66t117 22.5q99 0 172 -55l45 61l50 -36l-50 -67q35 -44 55 -104t20 -136zM563 326q0 55 -11 100t-31 78 l-298 -405q51 -45 130 -45q47 0 85.5 17.5t66.5 52t43 85.5t15 117zM141 326q0 -110 42 -178l298 405q-51 44 -128 44q-47 0 -85.5 -17.5t-67 -51.5t-44 -85t-15.5 -117z" />
<glyph unicode="&#xd9;" horiz-adv-x="638" d="M354 -12q-115 0 -173.5 59t-58.5 173v431h80v-436q0 -41 12 -71t33 -50t49 -30t60 -10t60 10t49 30t33 50t12 71v436h80v-431q0 -109 -60.5 -170.5t-175.5 -61.5zM400 798l-41 -41l-145 146l41 41z" />
<glyph unicode="&#xda;" horiz-adv-x="638" d="M354 -12q-115 0 -173.5 59t-58.5 173v431h80v-436q0 -41 12 -71t33 -50t49 -30t60 -10t60 10t49 30t33 50t12 71v436h80v-431q0 -109 -60.5 -170.5t-175.5 -61.5zM451 944l41 -41l-145 -146l-41 41z" />
<glyph unicode="&#xdb;" horiz-adv-x="638" d="M354 -12q-115 0 -173.5 59t-58.5 173v431h80v-436q0 -41 12 -71t33 -50t49 -30t60 -10t60 10t49 30t33 50t12 71v436h80v-431q0 -109 -60.5 -170.5t-175.5 -61.5zM166 758l159 160h62l159 -160h-82l-108 116l-108 -116h-82z" />
<glyph unicode="&#xdc;" horiz-adv-x="638" d="M354 -12q-115 0 -173.5 59t-58.5 173v431h80v-436q0 -41 12 -71t33 -50t49 -30t60 -10t60 10t49 30t33 50t12 71v436h80v-431q0 -109 -60.5 -170.5t-175.5 -61.5zM309 813q0 -24 -16 -40q-17 -15 -40 -15q-24 0 -40 15q-15 15 -15 40q0 26 15 41q17 14 40 14t40 -14 q16 -16 16 -41zM510 813q0 -24 -16 -40q-17 -15 -39 -15q-25 0 -41 15q-15 15 -15 40q0 26 15 41q17 14 41 14q22 0 39 -14q16 -16 16 -41z" />
<glyph unicode="&#xdd;" horiz-adv-x="533" d="M10 651h78l177 -357l183 357h75l-219 -401v-250h-79v250zM350 944l41 -41l-145 -146l-41 41z" />
<glyph unicode="&#xde;" horiz-adv-x="547" d="M283 540q106 0 161.5 -51t55.5 -148q0 -46 -14 -84t-39.5 -65t-60.5 -42t-76 -15h-141v-135h-79v651h79v-111h114zM298 201q36 0 59.5 12.5t37.5 32t19.5 44t5.5 49.5q0 27 -8 51.5t-24.5 43t-41 29.5t-58.5 11h-119v-273h129z" />
<glyph unicode="&#xdf;" horiz-adv-x="555" d="M156 0h-76v538q0 37 12 70t36 58.5t59.5 41t82.5 15.5q49 0 84.5 -15t58.5 -39.5t34 -56t11 -66.5q0 -27 -10 -51.5t-26 -45.5t-37 -36.5t-43 -23.5v-4q35 -6 67 -22t56 -40.5t38 -58t14 -74.5t-12 -77t-36.5 -63.5t-62 -44.5t-88.5 -17q-29 0 -56.5 5t-45.5 12v71 q16 -10 44 -18t57 -8q56 0 89.5 36t33.5 101q0 36 -8.5 63.5t-28 47t-52 30.5t-79.5 11q-6 0 -13.5 -0.5t-13.5 -0.5h-15v60q45 0 74.5 14t46 36t23 48t6.5 52q0 21 -6 41t-19 36t-33.5 26t-50.5 10q-32 0 -54 -11.5t-35.5 -30.5t-19.5 -42.5t-6 -47.5v-529z" />
<glyph unicode="&#xe0;" horiz-adv-x="511" d="M212 48q31 0 54.5 9.5t39.5 25.5t25 36t9 41v40l-44 -5.5t-54 -7.5q-20 -3 -39.5 -8t-33.5 -13q-28 -17 -30 -52q0 -33 19 -49.5t54 -16.5zM66 369q13 29 38 52q21 20 55 35.5t82 15.5t81 -12t53.5 -33t29.5 -52t9 -65v-188q0 -35 8 -46t25 -11q11 0 16 1l10 2l4 -59 q-8 -5 -18.5 -8t-31.5 -3q-32 0 -52 21.5t-24 55.5q-21 -37 -61 -62t-90 -25q-65 0 -101.5 33t-36.5 90q1 35 18.5 57.5t43.5 36.5q26 13 55 20t68 12l93 12v55q0 47 -24 76t-76 29q-33 0 -54 -11t-33 -25q-14 -17 -23 -38zM314 607l-41 -41l-145 146l41 41z" />
<glyph unicode="&#xe1;" horiz-adv-x="511" d="M212 48q31 0 54.5 9.5t39.5 25.5t25 36t9 41v40l-44 -5.5t-54 -7.5q-20 -3 -39.5 -8t-33.5 -13q-28 -17 -30 -52q0 -33 19 -49.5t54 -16.5zM66 369q13 29 38 52q21 20 55 35.5t82 15.5t81 -12t53.5 -33t29.5 -52t9 -65v-188q0 -35 8 -46t25 -11q11 0 16 1l10 2l4 -59 q-8 -5 -18.5 -8t-31.5 -3q-32 0 -52 21.5t-24 55.5q-21 -37 -61 -62t-90 -25q-65 0 -101.5 33t-36.5 90q1 35 18.5 57.5t43.5 36.5q26 13 55 20t68 12l93 12v55q0 47 -24 76t-76 29q-33 0 -54 -11t-33 -25q-14 -17 -23 -38zM335 753l41 -41l-145 -146l-41 41z" />
<glyph unicode="&#xe2;" horiz-adv-x="511" d="M212 48q31 0 54.5 9.5t39.5 25.5t25 36t9 41v40l-44 -5.5t-54 -7.5q-20 -3 -39.5 -8t-33.5 -13q-28 -17 -30 -52q0 -33 19 -49.5t54 -16.5zM66 369q13 29 38 52q21 20 55 35.5t82 15.5t81 -12t53.5 -33t29.5 -52t9 -65v-188q0 -35 8 -46t25 -11q11 0 16 1l10 2l4 -59 q-8 -5 -18.5 -8t-31.5 -3q-32 0 -52 21.5t-24 55.5q-21 -37 -61 -62t-90 -25q-65 0 -101.5 33t-36.5 90q1 35 18.5 57.5t43.5 36.5q26 13 55 20t68 12l93 12v55q0 47 -24 76t-76 29q-33 0 -54 -11t-33 -25q-14 -17 -23 -38zM59 567l159 160h62l159 -160h-82l-108 116 l-108 -116h-82z" />
<glyph unicode="&#xe3;" horiz-adv-x="511" d="M212 48q31 0 54.5 9.5t39.5 25.5t25 36t9 41v40l-44 -5.5t-54 -7.5q-20 -3 -39.5 -8t-33.5 -13q-28 -17 -30 -52q0 -33 19 -49.5t54 -16.5zM66 369q13 29 38 52q21 20 55 35.5t82 15.5t81 -12t53.5 -33t29.5 -52t9 -65v-188q0 -35 8 -46t25 -11q11 0 16 1l10 2l4 -59 q-8 -5 -18.5 -8t-31.5 -3q-32 0 -52 21.5t-24 55.5q-21 -37 -61 -62t-90 -25q-65 0 -101.5 33t-36.5 90q1 35 18.5 57.5t43.5 36.5q26 13 55 20t68 12l93 12v55q0 47 -24 76t-76 29q-33 0 -54 -11t-33 -25q-14 -17 -23 -38zM381 696q2 -9 4 -21t2 -32q0 -13 -4.5 -26 t-13.5 -24t-24 -18.5t-34 -7.5q-25 0 -43 10.5t-33.5 23.5t-29 23.5t-30.5 10.5q-18 0 -23 -15.5t-5 -31.5v-10.5t1 -10.5h-45q-7 19 -7 52q0 13 4.5 27t13.5 25t23.5 18t33.5 7q24 0 42.5 -10.5t34 -23.5t29 -23.5t28.5 -10.5q10 0 16.5 5.5t10 13t4.5 17t1 17.5v9t-1 6h45 z" />
<glyph unicode="&#xe4;" horiz-adv-x="511" d="M212 48q31 0 54.5 9.5t39.5 25.5t25 36t9 41v40l-44 -5.5t-54 -7.5q-20 -3 -39.5 -8t-33.5 -13q-28 -17 -30 -52q0 -33 19 -49.5t54 -16.5zM66 369q13 29 38 52q21 20 55 35.5t82 15.5t81 -12t53.5 -33t29.5 -52t9 -65v-188q0 -35 8 -46t25 -11q11 0 16 1l10 2l4 -59 q-8 -5 -18.5 -8t-31.5 -3q-32 0 -52 21.5t-24 55.5q-21 -37 -61 -62t-90 -25q-65 0 -101.5 33t-36.5 90q1 35 18.5 57.5t43.5 36.5q26 13 55 20t68 12l93 12v55q0 47 -24 76t-76 29q-33 0 -54 -11t-33 -25q-14 -17 -23 -38zM195 622q0 -24 -16 -40q-17 -15 -40 -15 q-24 0 -40 15q-15 15 -15 40q0 26 15 41q17 14 40 14t40 -14q16 -16 16 -41zM396 622q0 -24 -16 -40q-17 -15 -39 -15q-25 0 -41 15q-15 15 -15 40q0 26 15 41q17 14 41 14q22 0 39 -14q16 -16 16 -41z" />
<glyph unicode="&#xe5;" horiz-adv-x="511" d="M212 48q31 0 54.5 9.5t39.5 25.5t25 36t9 41v40l-44 -5.5t-54 -7.5q-20 -3 -39.5 -8t-33.5 -13q-28 -17 -30 -52q0 -33 19 -49.5t54 -16.5zM66 369q13 29 38 52q21 20 55 35.5t82 15.5t81 -12t53.5 -33t29.5 -52t9 -65v-188q0 -35 8 -46t25 -11q11 0 16 1l10 2l4 -59 q-8 -5 -18.5 -8t-31.5 -3q-32 0 -52 21.5t-24 55.5q-21 -37 -61 -62t-90 -25q-65 0 -101.5 33t-36.5 90q1 35 18.5 57.5t43.5 36.5q26 13 55 20t68 12l93 12v55q0 47 -24 76t-76 29q-33 0 -54 -11t-33 -25q-14 -17 -23 -38zM128 681q0 48 31.5 81t85.5 33q26 0 47.5 -9 t37 -24.5t24 -36t8.5 -44.5t-8.5 -45t-24 -36t-37 -24t-47.5 -9q-54 0 -85.5 33t-31.5 81zM178 681q0 -29 19 -49t48 -20q28 0 47.5 20t19.5 49q0 28 -19.5 48.5t-47.5 20.5q-29 0 -48 -20.5t-19 -48.5z" />
<glyph unicode="&#xe6;" horiz-adv-x="786" d="M241 472q31 0 55.5 -8.5t43 -22t32 -32t22.5 -37.5q9 18 23 36.5t33 32.5t44 23t56 9q39 0 73 -12.5t58.5 -39t39 -66.5t14.5 -94q0 -12 -1 -17t-1 -13l-319 -24q3 -32 12.5 -60.5t26.5 -49.5t41 -33.5t56 -12.5q43 0 71 18t39 44l68 -33q-9 -19 -25.5 -36t-39 -29.5 t-51 -19.5t-60.5 -7q-36 0 -64.5 9.5t-49.5 25t-35.5 36t-21.5 42.5q-18 -33 -39 -55t-44.5 -35t-47.5 -18t-48 -5q-60 0 -100 34.5t-40 91.5q0 31 12 54t34.5 39.5t49.5 25.5t60 12l122 10v53q0 47 -24 74t-76 27q-33 0 -54 -11.5t-33 -25.5q-14 -17 -21 -37l-66 34 q15 28 40 51q21 20 54 36t81 16zM546 411q-60 0 -94 -40t-38 -111l241 17q0 2 0.5 6.5t0.5 6.5q0 53 -29.5 87t-80.5 34zM212 48q28 0 53 9.5t41 25.5t25 36t9 41v40q-16 0 -44 -1.5t-54 -4.5q-17 -2 -36.5 -5.5t-34.5 -11.5t-23.5 -22.5t-8.5 -36.5q0 -35 22.5 -52.5 t50.5 -17.5z" />
<glyph unicode="&#xe7;" horiz-adv-x="468" d="M374 345q-10 24 -37 42.5t-74 18.5q-73 0 -105 -48.5t-32 -126.5q0 -80 32.5 -128.5t104.5 -48.5q45 0 74 17.5t37 43.5l61 -35q-14 -39 -59.5 -65.5t-109.5 -26.5q-48 0 -88 16.5t-68.5 48t-44.5 76t-16 101.5t16 101.5t44.5 76t68.5 48t87 16.5q63 0 108 -27t62 -65z M244 17q17 -8 31 -17q71 -44 71 -101q0 -98 -115 -98q-50 0 -84 31l25 37q28 -21 62 -21q50 0 50 56q0 59 -97 105z" />
<glyph unicode="&#xe8;" horiz-adv-x="508" d="M125 221q2 -88 42 -129.5t101 -41.5q32 0 53.5 9.5t35.5 21.5q15 13 24 31l68 -35q-14 -26 -39 -45q-21 -17 -55.5 -30.5t-85.5 -13.5q-57 0 -98.5 19t-68.5 52t-40 77t-13 93q0 57 16 102.5t45 76.5t69 47.5t87 16.5q48 0 84 -16.5t59.5 -46.5t35.5 -70.5t12 -88.5 v-14.5t-1 -14.5h-331zM262 410q-57 0 -92 -36t-41 -92h247v8q0 21 -6.5 42.5t-20 39t-35 28t-52.5 10.5zM319 598l-41 -41l-145 146l41 41z" />
<glyph unicode="&#xe9;" horiz-adv-x="508" d="M125 221q2 -88 42 -129.5t101 -41.5q32 0 53.5 9.5t35.5 21.5q15 13 24 31l68 -35q-14 -26 -39 -45q-21 -17 -55.5 -30.5t-85.5 -13.5q-57 0 -98.5 19t-68.5 52t-40 77t-13 93q0 57 16 102.5t45 76.5t69 47.5t87 16.5q48 0 84 -16.5t59.5 -46.5t35.5 -70.5t12 -88.5 v-14.5t-1 -14.5h-331zM262 410q-57 0 -92 -36t-41 -92h247v8q0 21 -6.5 42.5t-20 39t-35 28t-52.5 10.5zM370 753l41 -41l-145 -146l-41 41z" />
<glyph unicode="&#xea;" horiz-adv-x="508" d="M125 221q2 -88 42 -129.5t101 -41.5q32 0 53.5 9.5t35.5 21.5q15 13 24 31l68 -35q-14 -26 -39 -45q-21 -17 -55.5 -30.5t-85.5 -13.5q-57 0 -98.5 19t-68.5 52t-40 77t-13 93q0 57 16 102.5t45 76.5t69 47.5t87 16.5q48 0 84 -16.5t59.5 -46.5t35.5 -70.5t12 -88.5 v-14.5t-1 -14.5h-331zM262 410q-57 0 -92 -36t-41 -92h247v8q0 21 -6.5 42.5t-20 39t-35 28t-52.5 10.5zM76 567l159 160h62l159 -160h-82l-108 116l-108 -116h-82z" />
<glyph unicode="&#xeb;" horiz-adv-x="508" d="M125 221q2 -88 42 -129.5t101 -41.5q32 0 53.5 9.5t35.5 21.5q15 13 24 31l68 -35q-14 -26 -39 -45q-21 -17 -55.5 -30.5t-85.5 -13.5q-57 0 -98.5 19t-68.5 52t-40 77t-13 93q0 57 16 102.5t45 76.5t69 47.5t87 16.5q48 0 84 -16.5t59.5 -46.5t35.5 -70.5t12 -88.5 v-14.5t-1 -14.5h-331zM262 410q-57 0 -92 -36t-41 -92h247v8q0 21 -6.5 42.5t-20 39t-35 28t-52.5 10.5zM206 622q0 -24 -16 -40q-17 -15 -40 -15q-24 0 -40 15q-15 15 -15 40q0 26 15 41q17 14 40 14t40 -14q16 -16 16 -41zM407 622q0 -24 -16 -40q-17 -15 -39 -15 q-25 0 -41 15q-15 15 -15 40q0 26 15 41q17 14 41 14q22 0 39 -14q16 -16 16 -41z" />
<glyph unicode="&#xec;" horiz-adv-x="256" d="M193 607l-41 -41l-145 146l41 41zM90 0v460h76v-460h-76z" />
<glyph unicode="&#xed;" horiz-adv-x="256" d="M233 753l41 -41l-145 -146l-41 41zM90 0v460h76v-460h-76z" />
<glyph unicode="&#xee;" horiz-adv-x="256" d="M90 0v460h76v-460h-76zM0 567l99 160h62l99 -160h-62l-68 116l-68 -116h-62z" />
<glyph unicode="&#xef;" horiz-adv-x="256" d="M81 622q0 -24 -16 -40q-17 -15 -40 -15q-24 0 -40 15q-15 15 -15 40q0 26 15 41q17 14 40 14t40 -14q16 -16 16 -41zM282 622q0 -24 -16 -40q-17 -15 -39 -15q-25 0 -41 15q-15 15 -15 40q0 26 15 41q17 14 41 14q22 0 39 -14q16 -16 16 -41zM90 0v460h76v-460h-76z" />
<glyph unicode="&#xf0;" horiz-adv-x="548" d="M288 625q-5 4 -12.5 10.5t-16.5 13.5t-19 13.5t-19 10.5l35 50q26 -12 54 -33t43 -35l96 40l22 -52l-74 -31q21 -25 40 -56t32.5 -69.5t21.5 -86t8 -104.5q0 -157 -59 -232.5t-167 -75.5q-62 0 -105 22t-69.5 57t-38 77t-11.5 83q0 42 12 86t38 79.5t66.5 58t97.5 22.5 q52 0 93 -21t64 -52q-8 52 -31 101t-58 86l-131 -54l-23 50zM272 50q66 0 105 41t39 131q0 40 -8.5 74.5t-26 60t-45 40t-65.5 14.5q-39 0 -66.5 -14.5t-45 -40t-25.5 -59t-8 -71.5t8 -70.5t26 -56t45.5 -36.5t66.5 -13z" />
<glyph unicode="&#xf1;" horiz-adv-x="558" d="M407 303q0 21 -6.5 40.5t-19 34t-32 23.5t-46.5 9q-34 0 -59.5 -15t-43 -39t-26 -54t-8.5 -60v-242h-76v365q0 15 -1.5 42.5t-3.5 52.5h74q1 -6 1.5 -17.5t1 -24t0.5 -26v-23.5h5q8 19 23 37.5t35 33t44.5 23.5t53.5 9q34 0 63 -9.5t50.5 -29.5t34 -52t12.5 -77v-304h-76 v303zM438 696q2 -9 4 -21t2 -32q0 -13 -4.5 -26t-13.5 -24t-24 -18.5t-34 -7.5q-25 0 -43 10.5t-33.5 23.5t-29 23.5t-30.5 10.5q-18 0 -23 -15.5t-5 -31.5v-10.5t1 -10.5h-45q-7 19 -7 52q0 13 4.5 27t13.5 25t23.5 18t33.5 7q24 0 42.5 -10.5t34 -23.5t29 -23.5 t28.5 -10.5q10 0 16.5 5.5t10 13t4.5 17t1 17.5v9t-1 6h45z" />
<glyph unicode="&#xf2;" horiz-adv-x="537" d="M488 230q0 -57 -16.5 -102t-45.5 -76t-69 -47.5t-88 -16.5t-88 16.5t-69.5 47.5t-46 76t-16.5 102t16.5 102t46 76t69.5 47.5t88 16.5t88 -16.5t69 -47.5t45.5 -76t16.5 -102zM411 230q0 89 -39.5 134t-102.5 45t-103 -45t-40 -134t40 -134t103 -45t102.5 45t39.5 134z M318 607l-41 -41l-145 146l41 41z" />
<glyph unicode="&#xf3;" horiz-adv-x="537" d="M488 230q0 -57 -16.5 -102t-45.5 -76t-69 -47.5t-88 -16.5t-88 16.5t-69.5 47.5t-46 76t-16.5 102t16.5 102t46 76t69.5 47.5t88 16.5t88 -16.5t69 -47.5t45.5 -76t16.5 -102zM411 230q0 89 -39.5 134t-102.5 45t-103 -45t-40 -134t40 -134t103 -45t102.5 45t39.5 134z M368 753l41 -41l-145 -146l-41 41z" />
<glyph unicode="&#xf4;" horiz-adv-x="537" d="M488 230q0 -57 -16.5 -102t-45.5 -76t-69 -47.5t-88 -16.5t-88 16.5t-69.5 47.5t-46 76t-16.5 102t16.5 102t46 76t69.5 47.5t88 16.5t88 -16.5t69 -47.5t45.5 -76t16.5 -102zM411 230q0 89 -39.5 134t-102.5 45t-103 -45t-40 -134t40 -134t103 -45t102.5 45t39.5 134z M84 567l159 160h62l159 -160h-82l-108 116l-108 -116h-82z" />
<glyph unicode="&#xf5;" horiz-adv-x="537" d="M488 230q0 -57 -16.5 -102t-45.5 -76t-69 -47.5t-88 -16.5t-88 16.5t-69.5 47.5t-46 76t-16.5 102t16.5 102t46 76t69.5 47.5t88 16.5t88 -16.5t69 -47.5t45.5 -76t16.5 -102zM411 230q0 89 -39.5 134t-102.5 45t-103 -45t-40 -134t40 -134t103 -45t102.5 45t39.5 134z M408 696q2 -9 4 -21t2 -32q0 -13 -4.5 -26t-13.5 -24t-24 -18.5t-34 -7.5q-25 0 -43 10.5t-33.5 23.5t-29 23.5t-30.5 10.5q-18 0 -23 -15.5t-5 -31.5v-10.5t1 -10.5h-45q-7 19 -7 52q0 13 4.5 27t13.5 25t23.5 18t33.5 7q24 0 42.5 -10.5t34 -23.5t29 -23.5t28.5 -10.5 q10 0 16.5 5.5t10 13t4.5 17t1 17.5v9t-1 6h45z" />
<glyph unicode="&#xf6;" horiz-adv-x="537" d="M488 230q0 -57 -16.5 -102t-45.5 -76t-69 -47.5t-88 -16.5t-88 16.5t-69.5 47.5t-46 76t-16.5 102t16.5 102t46 76t69.5 47.5t88 16.5t88 -16.5t69 -47.5t45.5 -76t16.5 -102zM411 230q0 89 -39.5 134t-102.5 45t-103 -45t-40 -134t40 -134t103 -45t102.5 45t39.5 134z M224 622q0 -24 -16 -40q-17 -15 -40 -15q-24 0 -40 15q-15 15 -15 40q0 26 15 41q17 14 40 14t40 -14q16 -16 16 -41zM425 622q0 -24 -16 -40q-17 -15 -39 -15q-25 0 -41 15q-15 15 -15 40q0 26 15 41q17 14 41 14q22 0 39 -14q16 -16 16 -41z" />
<glyph unicode="&#xf7;" horiz-adv-x="510" d="M60 257h390v-62h-390v62zM311 375q0 -28 -17 -44t-40 -16q-21 0 -38 16t-17 44q0 26 17 41.5t38 15.5q23 0 40 -15.5t17 -41.5zM311 90q0 -28 -17 -44t-40 -16q-21 0 -38 16t-17 44q0 26 17 41.5t38 15.5q23 0 40 -15.5t17 -41.5z" />
<glyph unicode="&#xf8;" horiz-adv-x="537" d="M87 83q-18 29 -28 65.5t-10 81.5q0 57 16.5 102t46 76t69.5 47.5t88 16.5q90 0 150 -57l66 67l39 -41l-70 -71q16 -28 25 -63t9 -77q0 -57 -16.5 -102t-45.5 -76t-69 -47.5t-88 -16.5q-88 0 -146 52l-61 -63l-38 43zM124 220q0 -26 4 -47.5t11 -40.5l228 236 q-18 20 -43 31.5t-55 11.5q-32 0 -58.5 -13.5t-45.5 -38t-30 -60t-11 -79.5zM413 240q0 25 -4.5 46.5t-11.5 40.5l-227 -235q19 -20 44 -31.5t55 -11.5q31 0 57.5 13t46 38t30 60.5t10.5 79.5z" />
<glyph unicode="&#xf9;" horiz-adv-x="549" d="M156 159q0 -22 5.5 -42t17.5 -35t30 -23.5t43 -8.5q31 0 55 13t41 36t26 53t9 65v243h76v-365q0 -14 1.5 -42t3.5 -53h-74q-1 6 -1.5 17.5t-1 24t-1 25.5t-0.5 24h-4q-9 -20 -23.5 -38.5t-33 -33t-42 -23t-51.5 -8.5q-30 0 -57.5 9.5t-48.5 30t-33.5 52t-12.5 76.5v304 h76v-301zM326 607l-41 -41l-145 146l41 41z" />
<glyph unicode="&#xfa;" horiz-adv-x="549" d="M156 159q0 -22 5.5 -42t17.5 -35t30 -23.5t43 -8.5q31 0 55 13t41 36t26 53t9 65v243h76v-365q0 -14 1.5 -42t3.5 -53h-74q-1 6 -1.5 17.5t-1 24t-1 25.5t-0.5 24h-4q-9 -20 -23.5 -38.5t-33 -33t-42 -23t-51.5 -8.5q-30 0 -57.5 9.5t-48.5 30t-33.5 52t-12.5 76.5v304 h76v-301zM366 753l41 -41l-145 -146l-41 41z" />
<glyph unicode="&#xfb;" horiz-adv-x="549" d="M156 159q0 -22 5.5 -42t17.5 -35t30 -23.5t43 -8.5q31 0 55 13t41 36t26 53t9 65v243h76v-365q0 -14 1.5 -42t3.5 -53h-74q-1 6 -1.5 17.5t-1 24t-1 25.5t-0.5 24h-4q-9 -20 -23.5 -38.5t-33 -33t-42 -23t-51.5 -8.5q-30 0 -57.5 9.5t-48.5 30t-33.5 52t-12.5 76.5v304 h76v-301zM87 567l159 160h62l159 -160h-82l-108 116l-108 -116h-82z" />
<glyph unicode="&#xfc;" horiz-adv-x="549" d="M156 159q0 -22 5.5 -42t17.5 -35t30 -23.5t43 -8.5q31 0 55 13t41 36t26 53t9 65v243h76v-365q0 -14 1.5 -42t3.5 -53h-74q-1 6 -1.5 17.5t-1 24t-1 25.5t-0.5 24h-4q-9 -20 -23.5 -38.5t-33 -33t-42 -23t-51.5 -8.5q-30 0 -57.5 9.5t-48.5 30t-33.5 52t-12.5 76.5v304 h76v-301zM233 622q0 -24 -16 -40q-17 -15 -40 -15q-24 0 -40 15q-15 15 -15 40q0 26 15 41q17 14 40 14t40 -14q16 -16 16 -41zM434 622q0 -24 -16 -40q-17 -15 -39 -15q-25 0 -41 15q-15 15 -15 40q0 26 15 41q17 14 41 14q22 0 39 -14q16 -16 16 -41z" />
<glyph unicode="&#xfd;" horiz-adv-x="473" d="M236 -180q-15 -44 -42 -62.5t-66 -18.5q-10 0 -27.5 2t-31.5 5l9 61q7 -2 18 -3t20 -1q26 0 42 12.5t22 32.5q3 11 8.5 30t11.5 39q6 23 14 49l-184 494h75l142 -414l128 414h73zM346 753l41 -41l-145 -146l-41 41z" />
<glyph unicode="&#xfe;" horiz-adv-x="579" d="M324 471q40 0 77.5 -16t66 -47t45.5 -76t17 -103t-17 -103t-45.5 -76t-66 -47t-77.5 -16q-57 0 -96.5 26t-59.5 56h-5q0 -8 1 -18q1 -8 1.5 -18t0.5 -21v-262h-76v961h76v-265q0 -10 -0.5 -20t-1.5 -18q-1 -10 -1 -19h5q20 30 59.5 56t96.5 26zM303 50q65 0 107 45 t42 134q0 45 -11 78.5t-31 56t-47.5 33.5t-59.5 11q-63 0 -104 -46t-41 -133q0 -86 41 -132.5t104 -46.5z" />
<glyph unicode="&#xff;" horiz-adv-x="473" d="M236 -180q-15 -44 -42 -62.5t-66 -18.5q-10 0 -27.5 2t-31.5 5l9 61q7 -2 18 -3t20 -1q26 0 42 12.5t22 32.5q3 11 8.5 30t11.5 39q6 23 14 49l-184 494h75l142 -414l128 414h73zM188 622q0 -24 -16 -40q-17 -15 -40 -15q-24 0 -40 15q-15 15 -15 40q0 26 15 41 q17 14 40 14t40 -14q16 -16 16 -41zM389 622q0 -24 -16 -40q-17 -15 -39 -15q-25 0 -41 15q-15 15 -15 40q0 26 15 41q17 14 41 14q22 0 39 -14q16 -16 16 -41z" />
<glyph unicode="&#x100;" d="M30 0l219 651h102l219 -651h-77l-54 168h-279l-50 -168h-80zM180 230h239l-119 370zM150 817h300v-55h-300v55z" />
<glyph unicode="&#x101;" horiz-adv-x="511" d="M212 48q31 0 54.5 9.5t39.5 25.5t25 36t9 41v40l-44 -5.5t-54 -7.5q-20 -3 -39.5 -8t-33.5 -13q-28 -17 -30 -52q0 -33 19 -49.5t54 -16.5zM66 369q13 29 38 52q21 20 55 35.5t82 15.5t81 -12t53.5 -33t29.5 -52t9 -65v-188q0 -35 8 -46t25 -11q11 0 16 1l10 2l4 -59 q-8 -5 -18.5 -8t-31.5 -3q-32 0 -52 21.5t-24 55.5q-21 -37 -61 -62t-90 -25q-65 0 -101.5 33t-36.5 90q1 35 18.5 57.5t43.5 36.5q26 13 55 20t68 12l93 12v55q0 47 -24 76t-76 29q-33 0 -54 -11t-33 -25q-14 -17 -23 -38zM102 622h300v-55h-300v55z" />
<glyph unicode="&#x102;" d="M30 0l219 651h102l219 -651h-77l-54 168h-279l-50 -168h-80zM180 230h239l-119 370zM300 813q46 0 70.5 30t24.5 74h68q0 -34 -10.5 -63t-31 -50.5t-51 -33.5t-70.5 -12q-81 0 -122 44.5t-41 114.5h67q0 -44 26 -74t70 -30z" />
<glyph unicode="&#x103;" horiz-adv-x="511" d="M212 48q31 0 54.5 9.5t39.5 25.5t25 36t9 41v40l-44 -5.5t-54 -7.5q-20 -3 -39.5 -8t-33.5 -13q-28 -17 -30 -52q0 -33 19 -49.5t54 -16.5zM66 369q13 29 38 52q21 20 55 35.5t82 15.5t81 -12t53.5 -33t29.5 -52t9 -65v-188q0 -35 8 -46t25 -11q11 0 16 1l10 2l4 -59 q-8 -5 -18.5 -8t-31.5 -3q-32 0 -52 21.5t-24 55.5q-21 -37 -61 -62t-90 -25q-65 0 -101.5 33t-36.5 90q1 35 18.5 57.5t43.5 36.5q26 13 55 20t68 12l93 12v55q0 47 -24 76t-76 29q-33 0 -54 -11t-33 -25q-14 -17 -23 -38zM253 622q46 0 70.5 30t24.5 74h68 q0 -34 -10.5 -63t-31 -50.5t-51 -33.5t-70.5 -12q-81 0 -122 44.5t-41 114.5h67q0 -44 26 -74t70 -30z" />
<glyph unicode="&#x104;" d="M30 0l219 651h102l219 -651h-77l-54 168h-279l-50 -168h-80zM180 230h239l-119 370zM561 9q-117 -57 -117 -111q0 -50 43 -50q29 0 54 21l25 -37q-38 -31 -81 -31q-103 0 -103 88q0 59 91 111q15 10 31 17z" />
<glyph unicode="&#x105;" horiz-adv-x="511" d="M212 48q31 0 54.5 9.5t39.5 25.5t25 36t9 41v40l-44 -5.5t-54 -7.5q-20 -3 -39.5 -8t-33.5 -13q-28 -17 -30 -52q0 -33 19 -49.5t54 -16.5zM66 369q13 29 38 52q21 20 55 35.5t82 15.5t81 -12t53.5 -33t29.5 -52t9 -65v-188q0 -35 8 -46t25 -11q11 0 16 1l10 2l4 -59 q-8 -5 -18.5 -8t-31.5 -3q-32 0 -52 21.5t-24 55.5q-21 -37 -61 -62t-90 -25q-65 0 -101.5 33t-36.5 90q1 35 18.5 57.5t43.5 36.5q26 13 55 20t68 12l93 12v55q0 47 -24 76t-76 29q-33 0 -54 -11t-33 -25q-14 -17 -23 -38zM475 9q-117 -57 -117 -111q0 -50 43 -50 q29 0 54 21l25 -37q-38 -31 -81 -31q-103 0 -103 88q0 59 91 111q15 10 31 17z" />
<glyph unicode="&#x106;" horiz-adv-x="618" d="M505 498q-6 20 -20.5 38t-35.5 31.5t-46.5 21.5t-54.5 8q-54 0 -93 -21t-64 -58t-37 -88t-12 -110t12.5 -108t38 -84t63 -54.5t87.5 -19.5q31 0 58.5 8t49 22t36 33t21.5 40l66 -40q-11 -27 -31.5 -50.5t-50.5 -41t-68.5 -27.5t-83.5 -10q-59 0 -110.5 22.5t-89 65 t-59 104.5t-21.5 140q0 79 21.5 142.5t60 108t91.5 68.5t115 24q43 0 79.5 -10t65 -27t49 -40t31.5 -48zM437 944l41 -41l-145 -146l-41 41z" />
<glyph unicode="&#x107;" horiz-adv-x="468" d="M374 345q-10 24 -37 42.5t-74 18.5q-73 0 -105 -48.5t-32 -126.5q0 -80 32.5 -128.5t104.5 -48.5q45 0 74 17.5t37 43.5l61 -35q-14 -39 -59.5 -65.5t-109.5 -26.5q-48 0 -88 16.5t-68.5 48t-44.5 76t-16 101.5t16 101.5t44.5 76t68.5 48t87 16.5q63 0 108 -27t62 -65z M348 753l41 -41l-145 -146l-41 41z" />
<glyph unicode="&#x108;" horiz-adv-x="618" d="M505 498q-6 20 -20.5 38t-35.5 31.5t-46.5 21.5t-54.5 8q-54 0 -93 -21t-64 -58t-37 -88t-12 -110t12.5 -108t38 -84t63 -54.5t87.5 -19.5q31 0 58.5 8t49 22t36 33t21.5 40l66 -40q-11 -27 -31.5 -50.5t-50.5 -41t-68.5 -27.5t-83.5 -10q-59 0 -110.5 22.5t-89 65 t-59 104.5t-21.5 140q0 79 21.5 142.5t60 108t91.5 68.5t115 24q43 0 79.5 -10t65 -27t49 -40t31.5 -48zM155 758l159 160h62l159 -160h-82l-108 116l-108 -116h-82z" />
<glyph unicode="&#x109;" horiz-adv-x="468" d="M374 345q-10 24 -37 42.5t-74 18.5q-73 0 -105 -48.5t-32 -126.5q0 -80 32.5 -128.5t104.5 -48.5q45 0 74 17.5t37 43.5l61 -35q-14 -39 -59.5 -65.5t-109.5 -26.5q-48 0 -88 16.5t-68.5 48t-44.5 76t-16 101.5t16 101.5t44.5 76t68.5 48t87 16.5q63 0 108 -27t62 -65z M74 567l159 160h62l159 -160h-82l-108 116l-108 -116h-82z" />
<glyph unicode="&#x10a;" horiz-adv-x="618" d="M505 498q-6 20 -20.5 38t-35.5 31.5t-46.5 21.5t-54.5 8q-54 0 -93 -21t-64 -58t-37 -88t-12 -110t12.5 -108t38 -84t63 -54.5t87.5 -19.5q31 0 58.5 8t49 22t36 33t21.5 40l66 -40q-11 -27 -31.5 -50.5t-50.5 -41t-68.5 -27.5t-83.5 -10q-59 0 -110.5 22.5t-89 65 t-59 104.5t-21.5 140q0 79 21.5 142.5t60 108t91.5 68.5t115 24q43 0 79.5 -10t65 -27t49 -40t31.5 -48zM399 818q0 -27 -17 -44q-19 -16 -40 -16q-20 0 -38 16q-17 16 -17 44t17 42q16 15 38 15t40 -15q17 -15 17 -42z" />
<glyph unicode="&#x10b;" horiz-adv-x="468" d="M374 345q-10 24 -37 42.5t-74 18.5q-73 0 -105 -48.5t-32 -126.5q0 -80 32.5 -128.5t104.5 -48.5q45 0 74 17.5t37 43.5l61 -35q-14 -39 -59.5 -65.5t-109.5 -26.5q-48 0 -88 16.5t-68.5 48t-44.5 76t-16 101.5t16 101.5t44.5 76t68.5 48t87 16.5q63 0 108 -27t62 -65z M310 627q0 -27 -17 -44q-19 -16 -40 -16q-20 0 -38 16q-17 16 -17 44t17 42q16 15 38 15t40 -15q17 -15 17 -42z" />
<glyph unicode="&#x10c;" horiz-adv-x="618" d="M505 498q-6 20 -20.5 38t-35.5 31.5t-46.5 21.5t-54.5 8q-54 0 -93 -21t-64 -58t-37 -88t-12 -110t12.5 -108t38 -84t63 -54.5t87.5 -19.5q31 0 58.5 8t49 22t36 33t21.5 40l66 -40q-11 -27 -31.5 -50.5t-50.5 -41t-68.5 -27.5t-83.5 -10q-59 0 -110.5 22.5t-89 65 t-59 104.5t-21.5 140q0 79 21.5 142.5t60 108t91.5 68.5t115 24q43 0 79.5 -10t65 -27t49 -40t31.5 -48zM538 918l-159 -160h-63l-158 160h81l109 -116l108 116h82z" />
<glyph unicode="&#x10d;" horiz-adv-x="468" d="M374 345q-10 24 -37 42.5t-74 18.5q-73 0 -105 -48.5t-32 -126.5q0 -80 32.5 -128.5t104.5 -48.5q45 0 74 17.5t37 43.5l61 -35q-14 -39 -59.5 -65.5t-109.5 -26.5q-48 0 -88 16.5t-68.5 48t-44.5 76t-16 101.5t16 101.5t44.5 76t68.5 48t87 16.5q63 0 108 -27t62 -65z M460 727l-159 -160h-63l-158 160h81l109 -116l108 116h82z" />
<glyph unicode="&#x10e;" horiz-adv-x="658" d="M90 0v651h217q141 0 218.5 -84t77.5 -242q0 -156 -77.5 -240.5t-218.5 -84.5h-217zM308 66q107 0 160 66.5t53 192.5q0 127 -53 193.5t-160 66.5h-139v-519h139zM489 918l-159 -160h-63l-158 160h81l109 -116l108 116h82z" />
<glyph unicode="&#x10f;" horiz-adv-x="599" d="M127 230q0 -89 42 -134t105 -45t104 45t41 134t-41 134.5t-104 45.5t-105 -45.5t-42 -134.5zM489 711v-617q0 -17 1.5 -44.5t3.5 -49.5h-69q-1 5 -2 14.5t-1.5 20.5t-1.5 22t-1 20h-5q-10 -17 -26 -32.5t-36.5 -28.5t-45 -20.5t-50.5 -7.5q-44 0 -82 17t-65.5 48.5 t-43.5 75.5t-16 98t16.5 99.5t45 78t67.5 50.5t84 18q25 0 48 -7t42.5 -19t34.5 -26.5t24 -29.5h5q-2 14 -2.5 30.5t-0.5 26.5v263h76zM544 551l22 171l73 -11l-41 -166z" />
<glyph unicode="&#x110;" horiz-adv-x="668" d="M30 356h90v295h192q141 0 216 -84t75 -242q0 -156 -75 -240.5t-216 -84.5h-192v294h-90v62zM313 66q107 0 157.5 66.5t50.5 192.5q0 127 -50.5 193.5t-157.5 66.5h-114v-229h111v-62h-111v-228h114z" />
<glyph unicode="&#x111;" horiz-adv-x="579" d="M277 607h136v104h76v-104h68v-57h-68v-456q0 -17 1.5 -44.5t3.5 -49.5h-69q-1 5 -2 14.5t-1.5 20.5t-1.5 22t-1 20h-5q-10 -17 -26 -32.5t-36.5 -28.5t-45 -20.5t-50.5 -7.5q-44 0 -82 17t-65.5 48.5t-43.5 75.5t-16 98t16.5 99.5t45 78t67.5 50.5t84 18q25 0 48 -7 t42.5 -19t34.5 -26.5t24 -29.5h5q-2 14 -2.5 30.5t-0.5 26.5v102h-136v57zM127 230q0 -89 42 -134t105 -45t104 45t41 134t-41 134.5t-104 45.5t-105 -45.5t-42 -134.5z" />
<glyph unicode="&#x112;" horiz-adv-x="555" d="M169 585v-224h284v-66h-284v-229h326v-66h-405v651h392v-66h-313zM136 813h300v-55h-300v55z" />
<glyph unicode="&#x113;" horiz-adv-x="508" d="M125 221q2 -88 42 -129.5t101 -41.5q32 0 53.5 9.5t35.5 21.5q15 13 24 31l68 -35q-14 -26 -39 -45q-21 -17 -55.5 -30.5t-85.5 -13.5q-57 0 -98.5 19t-68.5 52t-40 77t-13 93q0 57 16 102.5t45 76.5t69 47.5t87 16.5q48 0 84 -16.5t59.5 -46.5t35.5 -70.5t12 -88.5 v-14.5t-1 -14.5h-331zM262 410q-57 0 -92 -36t-41 -92h247v8q0 21 -6.5 42.5t-20 39t-35 28t-52.5 10.5zM104 622h300v-55h-300v55z" />
<glyph unicode="&#x114;" horiz-adv-x="555" d="M169 585v-224h284v-66h-284v-229h326v-66h-405v651h392v-66h-313zM285 813q46 0 70.5 30t24.5 74h68q0 -34 -10.5 -63t-31 -50.5t-51 -33.5t-70.5 -12q-81 0 -122 44.5t-41 114.5h67q0 -44 26 -74t70 -30z" />
<glyph unicode="&#x115;" horiz-adv-x="508" d="M125 221q2 -88 42 -129.5t101 -41.5q32 0 53.5 9.5t35.5 21.5q15 13 24 31l68 -35q-14 -26 -39 -45q-21 -17 -55.5 -30.5t-85.5 -13.5q-57 0 -98.5 19t-68.5 52t-40 77t-13 93q0 57 16 102.5t45 76.5t69 47.5t87 16.5q48 0 84 -16.5t59.5 -46.5t35.5 -70.5t12 -88.5 v-14.5t-1 -14.5h-331zM262 410q-57 0 -92 -36t-41 -92h247v8q0 21 -6.5 42.5t-20 39t-35 28t-52.5 10.5zM254 622q46 0 70.5 30t24.5 74h68q0 -34 -10.5 -63t-31 -50.5t-51 -33.5t-70.5 -12q-81 0 -122 44.5t-41 114.5h67q0 -44 26 -74t70 -30z" />
<glyph unicode="&#x116;" horiz-adv-x="555" d="M169 585v-224h284v-66h-284v-229h326v-66h-405v651h392v-66h-313zM344 818q0 -27 -17 -44q-19 -16 -40 -16q-20 0 -38 16q-17 16 -17 44t17 42q16 15 38 15t40 -15q17 -15 17 -42z" />
<glyph unicode="&#x117;" horiz-adv-x="508" d="M125 221q2 -88 42 -129.5t101 -41.5q32 0 53.5 9.5t35.5 21.5q15 13 24 31l68 -35q-14 -26 -39 -45q-21 -17 -55.5 -30.5t-85.5 -13.5q-57 0 -98.5 19t-68.5 52t-40 77t-13 93q0 57 16 102.5t45 76.5t69 47.5t87 16.5q48 0 84 -16.5t59.5 -46.5t35.5 -70.5t12 -88.5 v-14.5t-1 -14.5h-331zM262 410q-57 0 -92 -36t-41 -92h247v8q0 21 -6.5 42.5t-20 39t-35 28t-52.5 10.5zM319 627q0 -27 -17 -44q-19 -16 -40 -16q-20 0 -38 16q-17 16 -17 44t17 42q16 15 38 15t40 -15q17 -15 17 -42z" />
<glyph unicode="&#x118;" horiz-adv-x="555" d="M169 585v-224h284v-66h-284v-229h326v-66h-405v651h392v-66h-313zM467 9q-117 -57 -117 -111q0 -50 43 -50q29 0 54 21l25 -37q-38 -31 -81 -31q-103 0 -103 88q0 59 91 111q15 10 31 17z" />
<glyph unicode="&#x119;" horiz-adv-x="508" d="M125 221q2 -88 42 -129.5t101 -41.5q32 0 53.5 9.5t35.5 21.5q15 13 24 31l68 -35q-14 -26 -39 -45q-21 -17 -55.5 -30.5t-85.5 -13.5q-57 0 -98.5 19t-68.5 52t-40 77t-13 93q0 57 16 102.5t45 76.5t69 47.5t87 16.5q48 0 84 -16.5t59.5 -46.5t35.5 -70.5t12 -88.5 v-14.5t-1 -14.5h-331zM262 410q-57 0 -92 -36t-41 -92h247v8q0 21 -6.5 42.5t-20 39t-35 28t-52.5 10.5zM370 9q-117 -57 -117 -111q0 -50 43 -50q29 0 54 21l25 -37q-38 -31 -81 -31q-103 0 -103 88q0 59 91 111q15 10 31 17z" />
<glyph unicode="&#x11a;" horiz-adv-x="555" d="M169 585v-224h284v-66h-284v-229h326v-66h-405v651h392v-66h-313zM473 918l-159 -160h-63l-158 160h81l109 -116l108 116h82z" />
<glyph unicode="&#x11b;" horiz-adv-x="508" d="M125 221q2 -88 42 -129.5t101 -41.5q32 0 53.5 9.5t35.5 21.5q15 13 24 31l68 -35q-14 -26 -39 -45q-21 -17 -55.5 -30.5t-85.5 -13.5q-57 0 -98.5 19t-68.5 52t-40 77t-13 93q0 57 16 102.5t45 76.5t69 47.5t87 16.5q48 0 84 -16.5t59.5 -46.5t35.5 -70.5t12 -88.5 v-14.5t-1 -14.5h-331zM262 410q-57 0 -92 -36t-41 -92h247v8q0 21 -6.5 42.5t-20 39t-35 28t-52.5 10.5zM460 727l-159 -160h-63l-158 160h81l109 -116l108 116h82z" />
<glyph unicode="&#x11c;" horiz-adv-x="675" d="M595 327v-327h-58l-10 99h-4q-8 -21 -24.5 -41t-40 -35.5t-52.5 -25t-61 -9.5q-63 0 -115 22.5t-90 65t-59 104.5t-21 140q0 79 21 142.5t59.5 108t92.5 68.5t119 24q45 0 83 -9.5t67.5 -25.5t50 -37.5t30.5 -45.5l-68 -40q-10 38 -54 65t-109 27q-59 0 -99 -21 t-64.5 -58t-35.5 -88t-11 -110t12.5 -108t38.5 -84t65.5 -54.5t93.5 -19.5q40 0 71 12.5t52.5 32.5t32.5 45.5t11 52.5v64h-176v66h252zM154 758l159 160h62l159 -160h-82l-108 116l-108 -116h-82z" />
<glyph unicode="&#x11d;" horiz-adv-x="537" d="M214 -49q-50 0 -75.5 -18.5t-25.5 -60.5q0 -21 7.5 -36t24 -24t43.5 -13.5t67 -4.5q83 0 120.5 19.5t37.5 64.5q0 38 -26.5 55.5t-86.5 17.5h-86zM249 174q53 0 81.5 29.5t28.5 89.5q0 120 -109 120q-54 0 -85 -30.5t-31 -89.5q0 -60 30.5 -89.5t84.5 -29.5zM526 401 q-5 1 -11.5 1.5t-14.5 0.5q-32 0 -53.5 -11t-30.5 -17q11 -20 15.5 -36.5t4.5 -43.5q0 -85 -45 -128t-141 -53q-29 -3 -50.5 -12.5t-21.5 -38.5q0 -48 55 -48h113q71 0 110 -31.5t39 -85.5q0 -72 -65 -116t-184 -44q-106 0 -159 31.5t-53 88.5q0 26 10.5 46.5t29 35.5 t43.5 23.5t55 10.5q-26 7 -42.5 26t-16.5 44q0 29 20 50t52 29q-24 7 -47 21t-40.5 34.5t-28.5 48t-11 62.5q0 42 15 75.5t41 57.5t61 37t75 13q46 0 84 -19.5t59 -48.5q6 11 16.5 24t25.5 24.5t33.5 19t40.5 7.5q7 0 11.5 -0.5t10.5 -1.5zM78 567l159 160h62l159 -160h-82 l-108 116l-108 -116h-82z" />
<glyph unicode="&#x11e;" horiz-adv-x="675" d="M595 327v-327h-58l-10 99h-4q-8 -21 -24.5 -41t-40 -35.5t-52.5 -25t-61 -9.5q-63 0 -115 22.5t-90 65t-59 104.5t-21 140q0 79 21 142.5t59.5 108t92.5 68.5t119 24q45 0 83 -9.5t67.5 -25.5t50 -37.5t30.5 -45.5l-68 -40q-10 38 -54 65t-109 27q-59 0 -99 -21 t-64.5 -58t-35.5 -88t-11 -110t12.5 -108t38.5 -84t65.5 -54.5t93.5 -19.5q40 0 71 12.5t52.5 32.5t32.5 45.5t11 52.5v64h-176v66h252zM344 813q46 0 70.5 30t24.5 74h68q0 -34 -10.5 -63t-31 -50.5t-51 -33.5t-70.5 -12q-81 0 -122 44.5t-41 114.5h67q0 -44 26 -74t70 -30 z" />
<glyph unicode="&#x11f;" horiz-adv-x="537" d="M214 -49q-50 0 -75.5 -18.5t-25.5 -60.5q0 -21 7.5 -36t24 -24t43.5 -13.5t67 -4.5q83 0 120.5 19.5t37.5 64.5q0 38 -26.5 55.5t-86.5 17.5h-86zM249 174q53 0 81.5 29.5t28.5 89.5q0 120 -109 120q-54 0 -85 -30.5t-31 -89.5q0 -60 30.5 -89.5t84.5 -29.5zM526 401 q-5 1 -11.5 1.5t-14.5 0.5q-32 0 -53.5 -11t-30.5 -17q11 -20 15.5 -36.5t4.5 -43.5q0 -85 -45 -128t-141 -53q-29 -3 -50.5 -12.5t-21.5 -38.5q0 -48 55 -48h113q71 0 110 -31.5t39 -85.5q0 -72 -65 -116t-184 -44q-106 0 -159 31.5t-53 88.5q0 26 10.5 46.5t29 35.5 t43.5 23.5t55 10.5q-26 7 -42.5 26t-16.5 44q0 29 20 50t52 29q-24 7 -47 21t-40.5 34.5t-28.5 48t-11 62.5q0 42 15 75.5t41 57.5t61 37t75 13q46 0 84 -19.5t59 -48.5q6 11 16.5 24t25.5 24.5t33.5 19t40.5 7.5q7 0 11.5 -0.5t10.5 -1.5zM262 622q46 0 70.5 30t24.5 74h68 q0 -34 -10.5 -63t-31 -50.5t-51 -33.5t-70.5 -12q-81 0 -122 44.5t-41 114.5h67q0 -44 26 -74t70 -30z" />
<glyph unicode="&#x120;" horiz-adv-x="675" d="M595 327v-327h-58l-10 99h-4q-8 -21 -24.5 -41t-40 -35.5t-52.5 -25t-61 -9.5q-63 0 -115 22.5t-90 65t-59 104.5t-21 140q0 79 21 142.5t59.5 108t92.5 68.5t119 24q45 0 83 -9.5t67.5 -25.5t50 -37.5t30.5 -45.5l-68 -40q-10 38 -54 65t-109 27q-59 0 -99 -21 t-64.5 -58t-35.5 -88t-11 -110t12.5 -108t38.5 -84t65.5 -54.5t93.5 -19.5q40 0 71 12.5t52.5 32.5t32.5 45.5t11 52.5v64h-176v66h252zM416 818q0 -27 -17 -44q-19 -16 -40 -16q-20 0 -38 16q-17 16 -17 44t17 42q16 15 38 15t40 -15q17 -15 17 -42z" />
<glyph unicode="&#x121;" horiz-adv-x="537" d="M214 -49q-50 0 -75.5 -18.5t-25.5 -60.5q0 -21 7.5 -36t24 -24t43.5 -13.5t67 -4.5q83 0 120.5 19.5t37.5 64.5q0 38 -26.5 55.5t-86.5 17.5h-86zM249 174q53 0 81.5 29.5t28.5 89.5q0 120 -109 120q-54 0 -85 -30.5t-31 -89.5q0 -60 30.5 -89.5t84.5 -29.5zM526 401 q-5 1 -11.5 1.5t-14.5 0.5q-32 0 -53.5 -11t-30.5 -17q11 -20 15.5 -36.5t4.5 -43.5q0 -85 -45 -128t-141 -53q-29 -3 -50.5 -12.5t-21.5 -38.5q0 -48 55 -48h113q71 0 110 -31.5t39 -85.5q0 -72 -65 -116t-184 -44q-106 0 -159 31.5t-53 88.5q0 26 10.5 46.5t29 35.5 t43.5 23.5t55 10.5q-26 7 -42.5 26t-16.5 44q0 29 20 50t52 29q-24 7 -47 21t-40.5 34.5t-28.5 48t-11 62.5q0 42 15 75.5t41 57.5t61 37t75 13q46 0 84 -19.5t59 -48.5q6 11 16.5 24t25.5 24.5t33.5 19t40.5 7.5q7 0 11.5 -0.5t10.5 -1.5zM324 627q0 -27 -17 -44 q-19 -16 -40 -16q-20 0 -38 16q-17 16 -17 44t17 42q16 15 38 15t40 -15q17 -15 17 -42z" />
<glyph unicode="&#x122;" horiz-adv-x="675" d="M595 327v-327h-58l-10 99h-4q-8 -21 -24.5 -41t-40 -35.5t-52.5 -25t-61 -9.5q-63 0 -115 22.5t-90 65t-59 104.5t-21 140q0 79 21 142.5t59.5 108t92.5 68.5t119 24q45 0 83 -9.5t67.5 -25.5t50 -37.5t30.5 -45.5l-68 -40q-10 38 -54 65t-109 27q-59 0 -99 -21 t-64.5 -58t-35.5 -88t-11 -110t12.5 -108t38.5 -84t65.5 -54.5t93.5 -19.5q40 0 71 12.5t52.5 32.5t32.5 45.5t11 52.5v64h-176v66h252zM293 -249l18 151l73 -11l-37 -146z" />
<glyph unicode="&#x123;" horiz-adv-x="537" d="M214 -49q-50 0 -75.5 -18.5t-25.5 -60.5q0 -21 7.5 -36t24 -24t43.5 -13.5t67 -4.5q83 0 120.5 19.5t37.5 64.5q0 38 -26.5 55.5t-86.5 17.5h-86zM249 174q53 0 81.5 29.5t28.5 89.5q0 120 -109 120q-54 0 -85 -30.5t-31 -89.5q0 -60 30.5 -89.5t84.5 -29.5zM526 401 q-5 1 -11.5 1.5t-14.5 0.5q-32 0 -53.5 -11t-30.5 -17q11 -20 15.5 -36.5t4.5 -43.5q0 -85 -45 -128t-141 -53q-29 -3 -50.5 -12.5t-21.5 -38.5q0 -48 55 -48h113q71 0 110 -31.5t39 -85.5q0 -72 -65 -116t-184 -44q-106 0 -159 31.5t-53 88.5q0 26 10.5 46.5t29 35.5 t43.5 23.5t55 10.5q-26 7 -42.5 26t-16.5 44q0 29 20 50t52 29q-24 7 -47 21t-40.5 34.5t-28.5 48t-11 62.5q0 42 15 75.5t41 57.5t61 37t75 13q46 0 84 -19.5t59 -48.5q6 11 16.5 24t25.5 24.5t33.5 19t40.5 7.5q7 0 11.5 -0.5t10.5 -1.5zM325.005 725.984l-17.999 -150.99 l-72.9951 10.999l36.998 145.991z" />
<glyph unicode="&#x124;" horiz-adv-x="685" d="M595 651v-651h-79v294h-347v-294h-79v651h79v-291h347v291h79zM152 758l159 160h62l159 -160h-82l-108 116l-108 -116h-82z" />
<glyph unicode="&#x125;" horiz-adv-x="553" d="M161 711v-342q15 28 38 51q20 20 50.5 36t73.5 16q33 0 61 -9.5t49 -30.5t33 -53t12 -77v-302h-76v303q0 21 -6.5 40.5t-19 34t-32 23.5t-45.5 9q-35 0 -61 -15.5t-43 -40t-25.5 -54t-8.5 -57.5v-243h-76v711h76zM76 798l159 160h62l159 -160h-82l-108 116l-108 -116h-82 z" />
<glyph unicode="&#x126;" horiz-adv-x="705" d="M605 651v-140h80v-62h-80v-449h-79v254h-347v-254h-79v449h-80v62h80v140h79v-140h347v140h79zM526 320v129h-347v-129h347z" />
<glyph unicode="&#x127;" horiz-adv-x="553" d="M161 711v-104h136v-57h-136v-181q15 28 38 51q20 20 50.5 36t73.5 16q33 0 61 -9.5t49 -30.5t33 -53t12 -77v-302h-76v303q0 21 -6.5 40.5t-19 34t-32 23.5t-45.5 9q-35 0 -61 -15.5t-43 -40t-25.5 -54t-8.5 -57.5v-243h-76v550h-68v57h68v104h76z" />
<glyph unicode="&#x128;" horiz-adv-x="259" d="M90 0v651h79v-651h-79zM270 887q2 -9 4 -21t2 -32q0 -13 -4.5 -26t-13.5 -24t-24 -18.5t-34 -7.5q-25 0 -43 10.5t-33.5 23.5t-29 23.5t-30.5 10.5q-18 0 -23 -15.5t-5 -31.5v-10.5t1 -10.5h-45q-7 19 -7 52q0 13 4.5 27t13.5 25t23.5 18t33.5 7q24 0 42.5 -10.5 t34 -23.5t29 -23.5t28.5 -10.5q10 0 16.5 5.5t10 13t4.5 17t1 17.5v9t-1 6h45z" />
<glyph unicode="&#x129;" horiz-adv-x="256" d="M90 0v460h76v-460h-76zM267 696q2 -9 4 -21t2 -32q0 -13 -4.5 -26t-13.5 -24t-24 -18.5t-34 -7.5q-25 0 -43 10.5t-33.5 23.5t-29 23.5t-30.5 10.5q-18 0 -23 -15.5t-5 -31.5v-10.5t1 -10.5h-45q-7 19 -7 52q0 13 4.5 27t13.5 25t23.5 18t33.5 7q24 0 42.5 -10.5 t34 -23.5t29 -23.5t28.5 -10.5q10 0 16.5 5.5t10 13t4.5 17t1 17.5v9t-1 6h45z" />
<glyph unicode="&#x12a;" horiz-adv-x="259" d="M90 0v651h79v-651h-79zM-22 813h300v-55h-300v55z" />
<glyph unicode="&#x12b;" horiz-adv-x="256" d="M-22 622h300v-55h-300v55zM90 0v460h76v-460h-76z" />
<glyph unicode="&#x12c;" horiz-adv-x="259" d="M90 0v651h79v-651h-79zM129 813q46 0 70.5 30t24.5 74h68q0 -34 -10.5 -63t-31 -50.5t-51 -33.5t-70.5 -12q-81 0 -122 44.5t-41 114.5h67q0 -44 26 -74t70 -30z" />
<glyph unicode="&#x12d;" horiz-adv-x="256" d="M90 0v460h76v-460h-76zM128 622q46 0 70.5 30t24.5 74h68q0 -34 -10.5 -63t-31 -50.5t-51 -33.5t-70.5 -12q-81 0 -122 44.5t-41 114.5h67q0 -44 26 -74t70 -30z" />
<glyph unicode="&#x12e;" horiz-adv-x="259" d="M90 0v651h79v-651h-79zM168 9q-117 -57 -117 -111q0 -50 43 -50q29 0 54 21l25 -37q-38 -31 -81 -31q-103 0 -103 88q0 59 91 111q15 10 31 17z" />
<glyph unicode="&#x12f;" horiz-adv-x="256" d="M167 9q-117 -57 -117 -111q0 -50 43 -50q29 0 54 21l25 -37q-38 -31 -81 -31q-103 0 -103 88q0 59 91 111q15 10 31 17zM184 627q0 -27 -17 -44q-19 -16 -40 -16q-20 0 -38 16q-17 16 -17 44t17 42q16 15 38 15t40 -15q17 -15 17 -42zM90 0v460h76v-460h-76z" />
<glyph unicode="&#x130;" horiz-adv-x="259" d="M90 0v651h79v-651h-79zM185 818q0 -27 -17 -44q-19 -16 -40 -16q-20 0 -38 16q-17 16 -17 44t17 42q16 15 38 15t40 -15q17 -15 17 -42z" />
<glyph unicode="&#x131;" horiz-adv-x="256" d="M90 0v460h76v-460h-76z" />
<glyph unicode="&#x132;" horiz-adv-x="707" d="M90 0v651h79v-651h-79zM622 651v-445q0 -105 -45.5 -161.5t-142.5 -56.5q-55 0 -97.5 20t-62.5 49l57 47q14 -21 41 -35.5t60 -14.5q57 0 83.5 35.5t26.5 113.5v448h80z" />
<glyph unicode="&#x133;" horiz-adv-x="512" d="M184 627q0 -27 -17 -44q-19 -16 -40 -16q-20 0 -38 16q-17 16 -17 44t17 42q16 15 38 15t40 -15q17 -15 17 -42zM90 0v460h76v-460h-76zM422 460v-574q0 -70 -38.5 -109t-99.5 -39q-14 0 -29.5 2t-26.5 5l10 61q17 -5 35 -5q13 0 26 4t23.5 14.5t17 28.5t6.5 46v566h76z M441 627q0 -27 -17 -44q-19 -16 -40 -16q-20 0 -38 16q-17 16 -17 44t17 42q16 15 38 15t40 -15q17 -15 17 -42z" />
<glyph unicode="&#x134;" horiz-adv-x="448" d="M363 651v-445q0 -105 -45.5 -161.5t-142.5 -56.5q-55 0 -97.5 20t-62.5 49l57 47q14 -21 41 -35.5t60 -14.5q57 0 83.5 35.5t26.5 113.5v448h80zM132 758l159 160h62l159 -160h-82l-108 116l-108 -116h-82z" />
<glyph unicode="&#x135;" horiz-adv-x="256" d="M166 460v-574q0 -70 -38.5 -109t-99.5 -39q-14 0 -29.5 2t-26.5 5l10 61q17 -5 35 -5q13 0 26 4t23.5 14.5t17 28.5t6.5 46v566h76zM0 567l99 160h62l99 -160h-62l-68 116l-68 -116h-62z" />
<glyph unicode="&#x136;" horiz-adv-x="582" d="M169 332l283 319h87l-255 -290l273 -361h-99l-224 317l-65 -62v-255h-79v651h79v-319zM245 -249l18 151l73 -11l-37 -146z" />
<glyph unicode="&#x137;" horiz-adv-x="506" d="M378 460h86l-190 -190l207 -270h-90l-165 228l-65 -62v-166h-76v711h76v-483zM207 -249l18 151l73 -11l-37 -146z" />
<glyph unicode="&#x138;" horiz-adv-x="506" d="M378 460h86l-190 -190l207 -270h-90l-165 228l-65 -62v-166h-76v460h76v-232z" />
<glyph unicode="&#x139;" horiz-adv-x="505" d="M169 651v-585h306v-66h-385v651h79zM357 944l41 -41l-145 -146l-41 41z" />
<glyph unicode="&#x13a;" horiz-adv-x="256" d="M90 711h76v-711h-76v711zM232 983l41 -41l-145 -146l-41 41z" />
<glyph unicode="&#x13b;" horiz-adv-x="505" d="M169 651v-585h306v-66h-385v651h79zM207 -249l18 151l73 -11l-37 -146z" />
<glyph unicode="&#x13c;" horiz-adv-x="256" d="M90 711h76v-711h-76v711zM77 -249l18 151l73 -11l-37 -146z" />
<glyph unicode="&#x13d;" horiz-adv-x="505" d="M169 651v-585h306v-66h-385v651h79zM264 492l22 171l73 -11l-41 -166z" />
<glyph unicode="&#x13e;" horiz-adv-x="276" d="M90 711h76v-711h-76v711zM221 551l22 171l73 -11l-41 -166z" />
<glyph unicode="&#x13f;" horiz-adv-x="505" d="M169 651v-585h306v-66h-385v651h79zM396 355q0 -28 -17 -44t-40 -16q-21 0 -38 16t-17 44q0 26 17 41.5t38 15.5q23 0 40 -15.5t17 -41.5z" />
<glyph unicode="&#x140;" horiz-adv-x="393" d="M90 711h76v-711h-76v711zM373 355q0 -28 -17 -44t-40 -16q-21 0 -38 16t-17 44q0 26 17 41.5t38 15.5q23 0 40 -15.5t17 -41.5z" />
<glyph unicode="&#x141;" horiz-adv-x="515" d="M30 336l70 19v296h79v-274l106 32v-63l-106 -30v-250h306v-66h-385v293l-70 -20v63z" />
<glyph unicode="&#x142;" horiz-adv-x="276" d="M10 330l90 25v356h76v-335l90 27v-63l-90 -25v-315h-76v293l-90 -26v63z" />
<glyph unicode="&#x143;" horiz-adv-x="671" d="M161 0h-71v651h92l332 -573l-4 573h71v-651h-93l-332 570zM431 944l41 -41l-145 -146l-41 41z" />
<glyph unicode="&#x144;" horiz-adv-x="558" d="M407 303q0 21 -6.5 40.5t-19 34t-32 23.5t-46.5 9q-34 0 -59.5 -15t-43 -39t-26 -54t-8.5 -60v-242h-76v365q0 15 -1.5 42.5t-3.5 52.5h74q1 -6 1.5 -17.5t1 -24t0.5 -26v-23.5h5q8 19 23 37.5t35 33t44.5 23.5t53.5 9q34 0 63 -9.5t50.5 -29.5t34 -52t12.5 -77v-304h-76 v303zM373 753l41 -41l-145 -146l-41 41z" />
<glyph unicode="&#x145;" horiz-adv-x="671" d="M161 0h-71v651h92l332 -573l-4 573h71v-651h-93l-332 570zM280 -249l18 151l73 -11l-37 -146z" />
<glyph unicode="&#x146;" horiz-adv-x="558" d="M407 303q0 21 -6.5 40.5t-19 34t-32 23.5t-46.5 9q-34 0 -59.5 -15t-43 -39t-26 -54t-8.5 -60v-242h-76v365q0 15 -1.5 42.5t-3.5 52.5h74q1 -6 1.5 -17.5t1 -24t0.5 -26v-23.5h5q8 19 23 37.5t35 33t44.5 23.5t53.5 9q34 0 63 -9.5t50.5 -29.5t34 -52t12.5 -77v-304h-76 v303zM236 -249l18 151l73 -11l-37 -146z" />
<glyph unicode="&#x147;" horiz-adv-x="671" d="M161 0h-71v651h92l332 -573l-4 573h71v-651h-93l-332 570zM529 918l-159 -160h-63l-158 160h81l109 -116l108 116h82z" />
<glyph unicode="&#x148;" horiz-adv-x="558" d="M407 303q0 21 -6.5 40.5t-19 34t-32 23.5t-46.5 9q-34 0 -59.5 -15t-43 -39t-26 -54t-8.5 -60v-242h-76v365q0 15 -1.5 42.5t-3.5 52.5h74q1 -6 1.5 -17.5t1 -24t0.5 -26v-23.5h5q8 19 23 37.5t35 33t44.5 23.5t53.5 9q34 0 63 -9.5t50.5 -29.5t34 -52t12.5 -77v-304h-76 v303zM485 727l-159 -160h-63l-158 160h81l109 -116l108 116h82z" />
<glyph unicode="&#x149;" horiz-adv-x="688" d="M537 303q0 21 -6.5 40.5t-19 34t-32 23.5t-46.5 9q-34 0 -59.5 -15t-43 -39t-26 -54t-8.5 -60v-242h-76v365q0 15 -1.5 42.5t-3.5 52.5h74q1 -6 1.5 -17.5t1 -24t0.5 -26v-23.5h5q8 19 23 37.5t35 33t44.5 23.5t53.5 9q34 0 63 -9.5t50.5 -29.5t34 -52t12.5 -77v-304h-76 v303zM69 651h76v-107q0 -51 -22 -83.5t-54 -46.5l-49 41q20 8 34.5 29.5t14.5 59.5v107z" />
<glyph unicode="&#x14a;" horiz-adv-x="671" d="M161 0h-71v651h92l332 -503l-4 503h71v-643q1 -70 -37.5 -109t-99.5 -39q-14 0 -29.5 2t-26.5 5l10 61q18 -5 38 -5q14 0 27.5 4t25 14.5t18.5 28.5t7 46v12l-358 542z" />
<glyph unicode="&#x14b;" horiz-adv-x="558" d="M407 303q0 21 -6.5 40.5t-19 34t-32 23.5t-46.5 9q-34 0 -59.5 -15t-43 -39t-26 -54t-8.5 -60v-242h-76v365q0 15 -1.5 42.5t-3.5 52.5h74q1 -6 1.5 -17.5t1 -24t0.5 -26.5v-23h5q8 19 23 37.5t35 33t44.5 23.5t53.5 9q34 0 63 -9.5t50.5 -29.5t34 -52t12.5 -77v-418 q0 -70 -38.5 -109t-99.5 -39q-14 0 -29.5 2t-26.5 5l10 61q17 -5 35 -5q13 0 26 4t23.5 14.5t17 28.5t6.5 46v409z" />
<glyph unicode="&#x14c;" horiz-adv-x="705" d="M645 326q0 -79 -22 -142t-61 -106.5t-92.5 -66.5t-116.5 -23t-117 23t-93 66.5t-61 106.5t-22 142q0 80 22 142.5t61 106t93 66t117 22.5t116.5 -22.5t92.5 -66t61 -106t22 -142.5zM563 326q0 66 -15 117t-43 85t-66.5 51.5t-85.5 17.5t-85.5 -17.5t-67 -51.5t-44 -85 t-15.5 -117t15.5 -117t44 -85.5t67 -52t85.5 -17.5t85.5 17.5t66.5 52t43 85.5t15 117zM204 813h300v-55h-300v55z" />
<glyph unicode="&#x14d;" horiz-adv-x="537" d="M488 230q0 -57 -16.5 -102t-45.5 -76t-69 -47.5t-88 -16.5t-88 16.5t-69.5 47.5t-46 76t-16.5 102t16.5 102t46 76t69.5 47.5t88 16.5t88 -16.5t69 -47.5t45.5 -76t16.5 -102zM411 230q0 89 -39.5 134t-102.5 45t-103 -45t-40 -134t40 -134t103 -45t102.5 45t39.5 134z M119 622h300v-55h-300v55z" />
<glyph unicode="&#x14e;" horiz-adv-x="705" d="M645 326q0 -79 -22 -142t-61 -106.5t-92.5 -66.5t-116.5 -23t-117 23t-93 66.5t-61 106.5t-22 142q0 80 22 142.5t61 106t93 66t117 22.5t116.5 -22.5t92.5 -66t61 -106t22 -142.5zM563 326q0 66 -15 117t-43 85t-66.5 51.5t-85.5 17.5t-85.5 -17.5t-67 -51.5t-44 -85 t-15.5 -117t15.5 -117t44 -85.5t67 -52t85.5 -17.5t85.5 17.5t66.5 52t43 85.5t15 117zM355 813q46 0 70.5 30t24.5 74h68q0 -34 -10.5 -63t-31 -50.5t-51 -33.5t-70.5 -12q-81 0 -122 44.5t-41 114.5h67q0 -44 26 -74t70 -30z" />
<glyph unicode="&#x14f;" horiz-adv-x="537" d="M488 230q0 -57 -16.5 -102t-45.5 -76t-69 -47.5t-88 -16.5t-88 16.5t-69.5 47.5t-46 76t-16.5 102t16.5 102t46 76t69.5 47.5t88 16.5t88 -16.5t69 -47.5t45.5 -76t16.5 -102zM411 230q0 89 -39.5 134t-102.5 45t-103 -45t-40 -134t40 -134t103 -45t102.5 45t39.5 134z M268 622q46 0 70.5 30t24.5 74h68q0 -34 -10.5 -63t-31 -50.5t-51 -33.5t-70.5 -12q-81 0 -122 44.5t-41 114.5h67q0 -44 26 -74t70 -30z" />
<glyph unicode="&#x150;" horiz-adv-x="705" d="M645 326q0 -79 -22 -142t-61 -106.5t-92.5 -66.5t-116.5 -23t-117 23t-93 66.5t-61 106.5t-22 142q0 80 22 142.5t61 106t93 66t117 22.5t116.5 -22.5t92.5 -66t61 -106t22 -142.5zM563 326q0 66 -15 117t-43 85t-66.5 51.5t-85.5 17.5t-85.5 -17.5t-67 -51.5t-44 -85 t-15.5 -117t15.5 -117t44 -85.5t67 -52t85.5 -17.5t85.5 17.5t66.5 52t43 85.5t15 117zM359 944l41 -38l-134 -149l-41 38zM532 944l41 -38l-134 -149l-41 38z" />
<glyph unicode="&#x151;" horiz-adv-x="537" d="M488 230q0 -57 -16.5 -102t-45.5 -76t-69 -47.5t-88 -16.5t-88 16.5t-69.5 47.5t-46 76t-16.5 102t16.5 102t46 76t69.5 47.5t88 16.5t88 -16.5t69 -47.5t45.5 -76t16.5 -102zM411 230q0 89 -39.5 134t-102.5 45t-103 -45t-40 -134t40 -134t103 -45t102.5 45t39.5 134z M291 759l40 -38l-134 -155l-40 38zM453 759l40 -38l-134 -155l-40 38z" />
<glyph unicode="&#x152;" horiz-adv-x="993" d="M559 651h361v-66h-283v-224h264v-66h-264v-229h296v-66h-374v99q-15 -21 -38 -41t-50.5 -35.5t-58 -25t-61.5 -9.5q-62 0 -115.5 23t-92.5 66t-61 105.5t-22 141.5q0 80 22 143t60.5 106.5t91.5 66.5t115 23q32 0 63 -9.5t59 -25.5t50.5 -35.5t37.5 -40.5v99zM562 324 q0 66 -15.5 117t-43.5 85.5t-67 52.5t-86 18t-85.5 -18t-66 -52.5t-43 -85.5t-15.5 -117t15.5 -116.5t44 -84.5t67 -51.5t85.5 -17.5t85.5 17.5t66.5 51.5t43 84.5t15 116.5z" />
<glyph unicode="&#x153;" horiz-adv-x="871" d="M488 221q2 -88 42 -129.5t101 -41.5q32 0 53.5 9.5t35.5 21.5q15 13 24 31l68 -35q-14 -26 -39 -45q-21 -17 -55.5 -30.5t-85.5 -13.5q-35 0 -64.5 9t-52.5 24.5t-41 36t-30 44.5h-4q-10 -22 -26.5 -42.5t-39 -36t-49.5 -25t-58 -9.5q-47 0 -87 16.5t-69 47.5t-45.5 76 t-16.5 102t16.5 102t45.5 76t69 47.5t87 16.5q34 0 62 -9.5t50 -26t37.5 -37.5t24.5 -44h4q27 51 74.5 83.5t109.5 32.5q48 0 84 -16.5t59.5 -46.5t35.5 -70.5t12 -88.5v-14.5t-1 -14.5h-331zM269 52q63 0 102.5 45t39.5 134t-39.5 134t-102.5 45t-103 -45t-40 -134t40 -134 t103 -45zM621 410q-57 0 -92 -36t-41 -92h247v8q0 21 -6.5 42.5t-20 39t-35 28t-52.5 10.5z" />
<glyph unicode="&#x154;" horiz-adv-x="585" d="M169 326h122q43 0 71.5 9.5t45 27t23 42t6.5 55.5q0 58 -30 91.5t-105 33.5h-133v-259zM448 0l-123 260h-156v-260h-79v651h203q111 0 168 -50t57 -142q0 -38 -12.5 -69t-32 -54.5t-42 -38t-42.5 -20.5l141 -277h-82zM367 944l41 -41l-145 -146l-41 41z" />
<glyph unicode="&#x155;" horiz-adv-x="342" d="M315 386q-10 2 -24 2q-58 0 -91.5 -42.5t-33.5 -114.5v-231h-76v375q0 17 -1.5 42t-3.5 43h72q2 -24 3.5 -51.5t1.5 -42.5h5q5 20 19 38.5t32.5 33t39.5 23.5t41 9q5 0 12 -0.5t9 -1.5zM275 753l41 -41l-145 -146l-41 41z" />
<glyph unicode="&#x156;" horiz-adv-x="585" d="M169 326h122q43 0 71.5 9.5t45 27t23 42t6.5 55.5q0 58 -30 91.5t-105 33.5h-133v-259zM448 0l-123 260h-156v-260h-79v651h203q111 0 168 -50t57 -142q0 -38 -12.5 -69t-32 -54.5t-42 -38t-42.5 -20.5l141 -277h-82zM237 -249l18 151l73 -11l-37 -146z" />
<glyph unicode="&#x157;" horiz-adv-x="342" d="M315 386q-10 2 -24 2q-58 0 -91.5 -42.5t-33.5 -114.5v-231h-76v375q0 17 -1.5 42t-3.5 43h72q2 -24 3.5 -51.5t1.5 -42.5h5q5 20 19 38.5t32.5 33t39.5 23.5t41 9q5 0 12 -0.5t9 -1.5zM78 -249l18 151l73 -11l-37 -146z" />
<glyph unicode="&#x158;" horiz-adv-x="585" d="M169 326h122q43 0 71.5 9.5t45 27t23 42t6.5 55.5q0 58 -30 91.5t-105 33.5h-133v-259zM448 0l-123 260h-156v-260h-79v651h203q111 0 168 -50t57 -142q0 -38 -12.5 -69t-32 -54.5t-42 -38t-42.5 -20.5l141 -277h-82zM471 918l-159 -160h-63l-158 160h81l109 -116 l108 116h82z" />
<glyph unicode="&#x159;" horiz-adv-x="342" d="M315 386q-10 2 -24 2q-58 0 -91.5 -42.5t-33.5 -114.5v-231h-76v375q0 17 -1.5 42t-3.5 43h72q2 -24 3.5 -51.5t1.5 -42.5h5q5 20 19 38.5t32.5 33t39.5 23.5t41 9q5 0 12 -0.5t9 -1.5zM387 727l-159 -160h-63l-158 160h81l109 -116l108 116h82z" />
<glyph unicode="&#x15a;" horiz-adv-x="542" d="M408 513q-12 34 -45 60t-91 26q-33 0 -56.5 -9t-37.5 -24t-20.5 -34t-6.5 -38q0 -27 11.5 -47t31 -34.5t46 -26t55.5 -22.5q37 -14 72 -29t62 -36.5t43.5 -50.5t16.5 -71q0 -41 -15.5 -75.5t-44.5 -59.5t-69.5 -39.5t-89.5 -14.5q-41 0 -77 10t-64.5 27t-48 39.5 t-26.5 48.5l64 40q14 -42 53.5 -71t101.5 -29t100 30t38 81q0 27 -12 47t-32 35.5t-46 27t-55 22.5q-38 15 -73 30t-61.5 36t-42.5 50t-16 71t16 75.5t43.5 56.5t65.5 35.5t82 12.5q38 0 71 -9t58 -24.5t41.5 -36.5t21.5 -44zM381 944l41 -41l-145 -146l-41 41z" />
<glyph unicode="&#x15b;" horiz-adv-x="457" d="M336 349q-11 26 -39 44t-70 18t-65 -19t-23 -48q0 -18 8 -30t22.5 -21t33.5 -15.5t41 -12.5q30 -8 60.5 -17.5t54.5 -24t39 -36.5t15 -56q0 -30 -12 -56t-35.5 -45.5t-56.5 -30.5t-75 -11q-54 0 -88.5 15.5t-56.5 34.5q-26 22 -40 50l61 36q9 -21 27 -38 q14 -14 38.5 -25.5t60.5 -11.5q19 0 37.5 4t32.5 13t22.5 22t8.5 31q0 34 -31 50t-83 31q-28 8 -56.5 18t-51 25t-36.5 37t-14 54q0 31 13 56.5t36 43.5t53.5 28t66.5 10q61 0 106 -26t59 -62zM313 753l41 -41l-145 -146l-41 41z" />
<glyph unicode="&#x15c;" horiz-adv-x="542" d="M408 513q-12 34 -45 60t-91 26q-33 0 -56.5 -9t-37.5 -24t-20.5 -34t-6.5 -38q0 -27 11.5 -47t31 -34.5t46 -26t55.5 -22.5q37 -14 72 -29t62 -36.5t43.5 -50.5t16.5 -71q0 -41 -15.5 -75.5t-44.5 -59.5t-69.5 -39.5t-89.5 -14.5q-41 0 -77 10t-64.5 27t-48 39.5 t-26.5 48.5l64 40q14 -42 53.5 -71t101.5 -29t100 30t38 81q0 27 -12 47t-32 35.5t-46 27t-55 22.5q-38 15 -73 30t-61.5 36t-42.5 50t-16 71t16 75.5t43.5 56.5t65.5 35.5t82 12.5q38 0 71 -9t58 -24.5t41.5 -36.5t21.5 -44zM86 758l159 160h62l159 -160h-82l-108 116 l-108 -116h-82z" />
<glyph unicode="&#x15d;" horiz-adv-x="457" d="M336 349q-11 26 -39 44t-70 18t-65 -19t-23 -48q0 -18 8 -30t22.5 -21t33.5 -15.5t41 -12.5q30 -8 60.5 -17.5t54.5 -24t39 -36.5t15 -56q0 -30 -12 -56t-35.5 -45.5t-56.5 -30.5t-75 -11q-54 0 -88.5 15.5t-56.5 34.5q-26 22 -40 50l61 36q9 -21 27 -38 q14 -14 38.5 -25.5t60.5 -11.5q19 0 37.5 4t32.5 13t22.5 22t8.5 31q0 34 -31 50t-83 31q-28 8 -56.5 18t-51 25t-36.5 37t-14 54q0 31 13 56.5t36 43.5t53.5 28t66.5 10q61 0 106 -26t59 -62zM38 567l159 160h62l159 -160h-82l-108 116l-108 -116h-82z" />
<glyph unicode="&#x15e;" horiz-adv-x="542" d="M408 513q-12 34 -45 60t-91 26q-33 0 -56.5 -9t-37.5 -24t-20.5 -34t-6.5 -38q0 -27 11.5 -47t31 -34.5t46 -26t55.5 -22.5q37 -14 72 -29t62 -36.5t43.5 -50.5t16.5 -71q0 -41 -15.5 -75.5t-44.5 -59.5t-69.5 -39.5t-89.5 -14.5q-41 0 -77 10t-64.5 27t-48 39.5 t-26.5 48.5l64 40q14 -42 53.5 -71t101.5 -29t100 30t38 81q0 27 -12 47t-32 35.5t-46 27t-55 22.5q-38 15 -73 30t-61.5 36t-42.5 50t-16 71t16 75.5t43.5 56.5t65.5 35.5t82 12.5q38 0 71 -9t58 -24.5t41.5 -36.5t21.5 -44zM254 17q17 -8 31 -17q71 -44 71 -101 q0 -98 -115 -98q-50 0 -84 31l25 37q28 -21 62 -21q50 0 50 56q0 59 -97 105z" />
<glyph unicode="&#x15f;" horiz-adv-x="457" d="M336 349q-11 26 -39 44t-70 18t-65 -19t-23 -48q0 -18 8 -30t22.5 -21t33.5 -15.5t41 -12.5q30 -8 60.5 -17.5t54.5 -24t39 -36.5t15 -56q0 -30 -12 -56t-35.5 -45.5t-56.5 -30.5t-75 -11q-54 0 -88.5 15.5t-56.5 34.5q-26 22 -40 50l61 36q9 -21 27 -38 q14 -14 38.5 -25.5t60.5 -11.5q19 0 37.5 4t32.5 13t22.5 22t8.5 31q0 34 -31 50t-83 31q-28 8 -56.5 18t-51 25t-36.5 37t-14 54q0 31 13 56.5t36 43.5t53.5 28t66.5 10q61 0 106 -26t59 -62zM209 17q17 -8 31 -17q71 -44 71 -101q0 -98 -115 -98q-50 0 -84 31l25 37 q28 -21 62 -21q50 0 50 56q0 59 -97 105z" />
<glyph unicode="&#x160;" horiz-adv-x="542" d="M408 513q-12 34 -45 60t-91 26q-33 0 -56.5 -9t-37.5 -24t-20.5 -34t-6.5 -38q0 -27 11.5 -47t31 -34.5t46 -26t55.5 -22.5q37 -14 72 -29t62 -36.5t43.5 -50.5t16.5 -71q0 -41 -15.5 -75.5t-44.5 -59.5t-69.5 -39.5t-89.5 -14.5q-41 0 -77 10t-64.5 27t-48 39.5 t-26.5 48.5l64 40q14 -42 53.5 -71t101.5 -29t100 30t38 81q0 27 -12 47t-32 35.5t-46 27t-55 22.5q-38 15 -73 30t-61.5 36t-42.5 50t-16 71t16 75.5t43.5 56.5t65.5 35.5t82 12.5q38 0 71 -9t58 -24.5t41.5 -36.5t21.5 -44zM464 918l-159 -160h-63l-158 160h81l109 -116 l108 116h82z" />
<glyph unicode="&#x161;" horiz-adv-x="457" d="M336 349q-11 26 -39 44t-70 18t-65 -19t-23 -48q0 -18 8 -30t22.5 -21t33.5 -15.5t41 -12.5q30 -8 60.5 -17.5t54.5 -24t39 -36.5t15 -56q0 -30 -12 -56t-35.5 -45.5t-56.5 -30.5t-75 -11q-54 0 -88.5 15.5t-56.5 34.5q-26 22 -40 50l61 36q9 -21 27 -38 q14 -14 38.5 -25.5t60.5 -11.5q19 0 37.5 4t32.5 13t22.5 22t8.5 31q0 34 -31 50t-83 31q-28 8 -56.5 18t-51 25t-36.5 37t-14 54q0 31 13 56.5t36 43.5t53.5 28t66.5 10q61 0 106 -26t59 -62zM422 727l-159 -160h-63l-158 160h81l109 -116l108 116h82z" />
<glyph unicode="&#x162;" horiz-adv-x="547" d="M30 651h487v-67h-204v-584h-79v584h-204v67zM223 -249l18 151l73 -11l-37 -146z" />
<glyph unicode="&#x163;" horiz-adv-x="372" d="M108 460v96l76 10v-106h138v-63h-138v-270q0 -16 2.5 -29.5t9.5 -24t20 -16.5t33 -6q23 0 35.5 4t24.5 12l13 -60q-15 -8 -35 -14t-46 -6q-58 0 -95.5 30t-37.5 99v281h-73v63h73zM133 -249l18 151l73 -11l-37 -146z" />
<glyph unicode="&#x164;" horiz-adv-x="547" d="M30 651h487v-67h-204v-584h-79v584h-204v67zM463 918l-159 -160h-63l-158 160h81l109 -116l108 116h82z" />
<glyph unicode="&#x165;" horiz-adv-x="357" d="M108 460v96l76 10v-106h138v-63h-138v-270q0 -16 2.5 -29.5t9.5 -24t20 -16.5t33 -6q23 0 35.5 4t24.5 12l13 -60q-15 -8 -35 -14t-46 -6q-58 0 -95.5 30t-37.5 99v281h-73v63h73zM239 551l22 171l73 -11l-41 -166z" />
<glyph unicode="&#x166;" horiz-adv-x="567" d="M40 651h487v-67h-204v-203h154v-62h-154v-319h-79v319h-154v62h154v203h-204v67z" />
<glyph unicode="&#x167;" horiz-adv-x="357" d="M44 279h64v118h-73v63h73v96l76 10v-106h138v-63h-138v-118h128v-57h-128v-95q0 -16 2.5 -29.5t9.5 -24t20 -16.5t33 -6q23 0 35.5 4t24.5 12l13 -60q-15 -8 -35 -14t-46 -6q-58 0 -95.5 30t-37.5 99v106h-64v57z" />
<glyph unicode="&#x168;" horiz-adv-x="638" d="M354 -12q-115 0 -173.5 59t-58.5 173v431h80v-436q0 -41 12 -71t33 -50t49 -30t60 -10t60 10t49 30t33 50t12 71v436h80v-431q0 -109 -60.5 -170.5t-175.5 -61.5zM498 887q2 -9 4 -21t2 -32q0 -13 -4.5 -26t-13.5 -24t-24 -18.5t-34 -7.5q-25 0 -43 10.5t-33.5 23.5 t-29 23.5t-30.5 10.5q-18 0 -23 -15.5t-5 -31.5v-10.5t1 -10.5h-45q-7 19 -7 52q0 13 4.5 27t13.5 25t23.5 18t33.5 7q24 0 42.5 -10.5t34 -23.5t29 -23.5t28.5 -10.5q10 0 16.5 5.5t10 13t4.5 17t1 17.5v9t-1 6h45z" />
<glyph unicode="&#x169;" horiz-adv-x="549" d="M156 159q0 -22 5.5 -42t17.5 -35t30 -23.5t43 -8.5q31 0 55 13t41 36t26 53t9 65v243h76v-365q0 -14 1.5 -42t3.5 -53h-74q-1 6 -1.5 17.5t-1 24t-1 25.5t-0.5 24h-4q-9 -20 -23.5 -38.5t-33 -33t-42 -23t-51.5 -8.5q-30 0 -57.5 9.5t-48.5 30t-33.5 52t-12.5 76.5v304 h76v-301zM414 696q2 -9 4 -21t2 -32q0 -13 -4.5 -26t-13.5 -24t-24 -18.5t-34 -7.5q-25 0 -43 10.5t-33.5 23.5t-29 23.5t-30.5 10.5q-18 0 -23 -15.5t-5 -31.5v-10.5t1 -10.5h-45q-7 19 -7 52q0 13 4.5 27t13.5 25t23.5 18t33.5 7q24 0 42.5 -10.5t34 -23.5t29 -23.5 t28.5 -10.5q10 0 16.5 5.5t10 13t4.5 17t1 17.5v9t-1 6h45z" />
<glyph unicode="&#x16a;" horiz-adv-x="638" d="M354 -12q-115 0 -173.5 59t-58.5 173v431h80v-436q0 -41 12 -71t33 -50t49 -30t60 -10t60 10t49 30t33 50t12 71v436h80v-431q0 -109 -60.5 -170.5t-175.5 -61.5zM203 813h300v-55h-300v55z" />
<glyph unicode="&#x16b;" horiz-adv-x="549" d="M156 159q0 -22 5.5 -42t17.5 -35t30 -23.5t43 -8.5q31 0 55 13t41 36t26 53t9 65v243h76v-365q0 -14 1.5 -42t3.5 -53h-74q-1 6 -1.5 17.5t-1 24t-1 25.5t-0.5 24h-4q-9 -20 -23.5 -38.5t-33 -33t-42 -23t-51.5 -8.5q-30 0 -57.5 9.5t-48.5 30t-33.5 52t-12.5 76.5v304 h76v-301zM125 622h300v-55h-300v55z" />
<glyph unicode="&#x16c;" horiz-adv-x="638" d="M354 -12q-115 0 -173.5 59t-58.5 173v431h80v-436q0 -41 12 -71t33 -50t49 -30t60 -10t60 10t49 30t33 50t12 71v436h80v-431q0 -109 -60.5 -170.5t-175.5 -61.5zM354 813q46 0 70.5 30t24.5 74h68q0 -34 -10.5 -63t-31 -50.5t-51 -33.5t-70.5 -12q-81 0 -122 44.5 t-41 114.5h67q0 -44 26 -74t70 -30z" />
<glyph unicode="&#x16d;" horiz-adv-x="549" d="M156 159q0 -22 5.5 -42t17.5 -35t30 -23.5t43 -8.5q31 0 55 13t41 36t26 53t9 65v243h76v-365q0 -14 1.5 -42t3.5 -53h-74q-1 6 -1.5 17.5t-1 24t-1 25.5t-0.5 24h-4q-9 -20 -23.5 -38.5t-33 -33t-42 -23t-51.5 -8.5q-30 0 -57.5 9.5t-48.5 30t-33.5 52t-12.5 76.5v304 h76v-301zM274 622q46 0 70.5 30t24.5 74h68q0 -34 -10.5 -63t-31 -50.5t-51 -33.5t-70.5 -12q-81 0 -122 44.5t-41 114.5h67q0 -44 26 -74t70 -30z" />
<glyph unicode="&#x16e;" horiz-adv-x="638" d="M354 -12q-115 0 -173.5 59t-58.5 173v431h80v-436q0 -41 12 -71t33 -50t49 -30t60 -10t60 10t49 30t33 50t12 71v436h80v-431q0 -109 -60.5 -170.5t-175.5 -61.5zM240 872q0 48 31.5 81t85.5 33q26 0 47.5 -9t37 -24.5t24 -36t8.5 -44.5t-8.5 -45t-24 -36t-37 -24 t-47.5 -9q-54 0 -85.5 33t-31.5 81zM290 872q0 -29 19 -49t48 -20q28 0 47.5 20t19.5 49q0 28 -19.5 48.5t-47.5 20.5q-29 0 -48 -20.5t-19 -48.5z" />
<glyph unicode="&#x16f;" horiz-adv-x="549" d="M156 159q0 -22 5.5 -42t17.5 -35t30 -23.5t43 -8.5q31 0 55 13t41 36t26 53t9 65v243h76v-365q0 -14 1.5 -42t3.5 -53h-74q-1 6 -1.5 17.5t-1 24t-1 25.5t-0.5 24h-4q-9 -20 -23.5 -38.5t-33 -33t-42 -23t-51.5 -8.5q-30 0 -57.5 9.5t-48.5 30t-33.5 52t-12.5 76.5v304 h76v-301zM157 681q0 48 31.5 81t85.5 33q26 0 47.5 -9t37 -24.5t24 -36t8.5 -44.5t-8.5 -45t-24 -36t-37 -24t-47.5 -9q-54 0 -85.5 33t-31.5 81zM207 681q0 -29 19 -49t48 -20q28 0 47.5 20t19.5 49q0 28 -19.5 48.5t-47.5 20.5q-29 0 -48 -20.5t-19 -48.5z" />
<glyph unicode="&#x170;" horiz-adv-x="638" d="M354 -12q-115 0 -173.5 59t-58.5 173v431h80v-436q0 -41 12 -71t33 -50t49 -30t60 -10t60 10t49 30t33 50t12 71v436h80v-431q0 -109 -60.5 -170.5t-175.5 -61.5zM354 944l41 -38l-134 -149l-41 38zM527 944l41 -38l-134 -149l-41 38z" />
<glyph unicode="&#x171;" horiz-adv-x="549" d="M156 159q0 -22 5.5 -42t17.5 -35t30 -23.5t43 -8.5q31 0 55 13t41 36t26 53t9 65v243h76v-365q0 -14 1.5 -42t3.5 -53h-74q-1 6 -1.5 17.5t-1 24t-1 25.5t-0.5 24h-4q-9 -20 -23.5 -38.5t-33 -33t-42 -23t-51.5 -8.5q-30 0 -57.5 9.5t-48.5 30t-33.5 52t-12.5 76.5v304 h76v-301zM299 759l40 -38l-134 -155l-40 38zM461 759l40 -38l-134 -155l-40 38z" />
<glyph unicode="&#x172;" horiz-adv-x="638" d="M446 9q-117 -57 -117 -111q0 -50 43 -50q29 0 54 21l25 -37q-38 -31 -81 -31q-103 0 -103 88q0 59 91 111q15 10 31 17zM354 -12q-115 0 -173.5 59t-58.5 173v431h80v-436q0 -41 12 -71t33 -50t49 -30t60 -10t60 10t49 30t33 50t12 71v436h80v-431q0 -109 -60.5 -170.5 t-175.5 -61.5z" />
<glyph unicode="&#x173;" horiz-adv-x="549" d="M156 159q0 -22 5.5 -42t17.5 -35t30 -23.5t43 -8.5q31 0 55 13t41 36t26 53t9 65v243h76v-365q0 -14 1.5 -42t3.5 -53h-74q-1 6 -1.5 17.5t-1 24t-1 25.5t-0.5 24h-4q-9 -20 -23.5 -38.5t-33 -33t-42 -23t-51.5 -8.5q-30 0 -57.5 9.5t-48.5 30t-33.5 52t-12.5 76.5v304 h76v-301zM462 9q-117 -57 -117 -111q0 -50 43 -50q29 0 54 21l25 -37q-38 -31 -81 -31q-103 0 -103 88q0 59 91 111q15 10 31 17z" />
<glyph unicode="&#x174;" horiz-adv-x="901" d="M498 651l149 -602l142 602h75l-165 -651h-108l-144 611l-141 -611h-108l-166 651h76l142 -602l149 602h99zM257 758l159 160h62l159 -160h-82l-108 116l-108 -116h-82z" />
<glyph unicode="&#x175;" horiz-adv-x="716" d="M410 460l102 -419l91 419h73l-117 -460h-96l-107 423l-103 -423h-94l-119 460h75l89 -417l102 417h104zM168 567l159 160h62l159 -160h-82l-108 116l-108 -116h-82z" />
<glyph unicode="&#x176;" horiz-adv-x="533" d="M10 651h78l177 -357l183 357h75l-219 -401v-250h-79v250zM74 758l159 160h62l159 -160h-82l-108 116l-108 -116h-82z" />
<glyph unicode="&#x177;" horiz-adv-x="473" d="M236 -180q-15 -44 -42 -62.5t-66 -18.5q-10 0 -27.5 2t-31.5 5l9 61q7 -2 18 -3t20 -1q26 0 42 12.5t22 32.5q3 11 8.5 30t11.5 39q6 23 14 49l-184 494h75l142 -414l128 414h73zM46 567l159 160h62l159 -160h-82l-108 116l-108 -116h-82z" />
<glyph unicode="&#x178;" horiz-adv-x="533" d="M10 651h78l177 -357l183 357h75l-219 -401v-250h-79v250zM220 813q0 -24 -16 -40q-17 -15 -40 -15q-24 0 -40 15q-15 15 -15 40q0 26 15 41q17 14 40 14t40 -14q16 -16 16 -41zM421 813q0 -24 -16 -40q-17 -15 -39 -15q-25 0 -41 15q-15 15 -15 40q0 26 15 41 q17 14 41 14q22 0 39 -14q16 -16 16 -41z" />
<glyph unicode="&#x179;" horiz-adv-x="536" d="M492 600l-24 -34l-360 -501h393v-65h-475v51l24 33l361 502h-365v65h446v-51zM360 944l41 -41l-145 -146l-41 41z" />
<glyph unicode="&#x17a;" horiz-adv-x="433" d="M390 407l-33 -42l-234 -302h275v-63h-353v53l25 32l241 312h-261v63h340v-53zM311 753l41 -41l-145 -146l-41 41z" />
<glyph unicode="&#x17b;" horiz-adv-x="536" d="M492 600l-24 -34l-360 -501h393v-65h-475v51l24 33l361 502h-365v65h446v-51zM322 818q0 -27 -17 -44q-19 -16 -40 -16q-20 0 -38 16q-17 16 -17 44t17 42q16 15 38 15t40 -15q17 -15 17 -42z" />
<glyph unicode="&#x17c;" horiz-adv-x="433" d="M390 407l-33 -42l-234 -302h275v-63h-353v53l25 32l241 312h-261v63h340v-53zM272 627q0 -27 -17 -44q-19 -16 -40 -16q-20 0 -38 16q-17 16 -17 44t17 42q16 15 38 15t40 -15q17 -15 17 -42z" />
<glyph unicode="&#x17d;" horiz-adv-x="536" d="M492 600l-24 -34l-360 -501h393v-65h-475v51l24 33l361 502h-365v65h446v-51zM448 918l-159 -160h-63l-158 160h81l109 -116l108 116h82z" />
<glyph unicode="&#x17e;" horiz-adv-x="433" d="M390 407l-33 -42l-234 -302h275v-63h-353v53l25 32l241 312h-261v63h340v-53zM413 727l-159 -160h-63l-158 160h81l109 -116l108 116h82z" />
<glyph unicode="&#x17f;" horiz-adv-x="246" d="M80 0v575q0 70 38.5 109t101.5 39q11 0 20.5 -1t17.5 -3q9 -2 16 -3l-10 -61q-5 1 -11 2q-5 1 -11.5 2t-14.5 1q-30 0 -50.5 -19.5t-20.5 -74.5v-566h-76z" />
<glyph unicode="&#x180;" horiz-adv-x="579" d="M166 711v-104h136v-57h-136v-102q0 -9 -0.5 -19t-1.5 -18q-1 -10 -1 -20h5q10 13 25 27.5t34.5 26.5t43 20t51.5 8q46 0 84.5 -18t66 -50.5t42.5 -77t15 -97.5t-15.5 -97t-43.5 -76.5t-66.5 -50.5t-84.5 -18q-26 0 -49.5 7.5t-43.5 20.5t-36 28.5t-26 32.5h-5 q0 -9 -1 -20t-1.5 -22t-1.5 -20.5t-2 -14.5h-69q2 22 3.5 49.5t1.5 44.5v456h-68v57h68v104h76zM452 230q0 89 -42 134.5t-105 45.5t-104 -45.5t-41 -134.5t41 -134t104 -45t105 45t42 134z" />
<glyph unicode="&#x18f;" horiz-adv-x="667" d="M527 348q-1 63 -16 110t-41 77.5t-61.5 46t-77.5 15.5q-51 0 -83 -16.5t-54 -37.5t-38 -54l-72 35q11 20 24 38t30 32q28 27 74.5 48t118.5 21q71 0 123 -27t86 -72.5t50.5 -106.5t16.5 -130q0 -81 -21.5 -144.5t-59 -106.5t-88 -65.5t-108.5 -22.5q-67 0 -117 23.5 t-83.5 65t-51 99t-18.5 125.5v20.5t1 26.5h466zM330 54q49 0 85.5 18.5t61 50t36.5 72.5t12 87h-380v-15q0 -38 10 -75.5t32 -68.5t57 -50t86 -19z" />
<glyph unicode="&#x192;" horiz-adv-x="420" d="M63 291v63h83v70q0 70 38.5 109t101.5 39q11 0 20.5 -1t17.5 -3q9 -2 16 -3l-10 -61q-5 1 -11 2q-5 1 -11.5 2t-14.5 1q-30 0 -50.5 -19.5t-20.5 -74.5v-61h105v-63h-105v-265q0 -70 -22.5 -104t-79.5 -34q-17 0 -30 2t-21 4q-10 3 -16 6l10 60q4 -3 10 -5q5 -2 12 -3 t17 -1q12 0 20.5 3t14 12t7.5 25.5t2 43.5v256h-83z" />
<glyph unicode="&#x195;" horiz-adv-x="841" d="M161 711v-342q14 28 36 51q19 20 48 36t70 16q32 0 58.5 -9.5t46.5 -30.5t31.5 -53t11.5 -77v-143q0 -22 5 -42t16.5 -35t28 -23.5t40.5 -8.5q29 0 51 13t38 36t24.5 53t8.5 65v243h76v-365q0 -14 1.5 -42t3.5 -53h-74q-1 6 -1.5 17.5t-1 24t-1 25.5t-0.5 24h-4 q-8 -20 -22 -38.5t-31.5 -33t-40 -23t-48.5 -8.5q-29 0 -55 9.5t-46 30t-32 52t-12 76.5v147q0 21 -6 40.5t-18 34t-30 23.5t-43 9q-32 0 -56.5 -15.5t-40.5 -40t-24 -54t-8 -57.5v-243h-76v711h76z" />
<glyph unicode="&#x1a6;" horiz-adv-x="585" d="M169 201h122q43 0 71.5 10t45 28.5t23 44.5t6.5 57q0 61 -30 97t-105 36h-133v-273zM453 -127l-124 262h-160v-135h-79v651h79v-111h124q111 0 168 -52t57 -147q0 -40 -12.5 -72t-32 -56.5t-42 -39.5t-42.5 -21l142 -279h-78z" />
<glyph unicode="&#x1cd;" d="M30 0l219 651h102l219 -651h-77l-54 168h-279l-50 -168h-80zM180 230h239l-119 370zM491 918l-159 -160h-63l-158 160h81l109 -116l108 116h82z" />
<glyph unicode="&#x1ce;" horiz-adv-x="511" d="M212 48q31 0 54.5 9.5t39.5 25.5t25 36t9 41v40l-44 -5.5t-54 -7.5q-20 -3 -39.5 -8t-33.5 -13q-28 -17 -30 -52q0 -33 19 -49.5t54 -16.5zM66 369q13 29 38 52q21 20 55 35.5t82 15.5t81 -12t53.5 -33t29.5 -52t9 -65v-188q0 -35 8 -46t25 -11q11 0 16 1l10 2l4 -59 q-8 -5 -18.5 -8t-31.5 -3q-32 0 -52 21.5t-24 55.5q-21 -37 -61 -62t-90 -25q-65 0 -101.5 33t-36.5 90q1 35 18.5 57.5t43.5 36.5q26 13 55 20t68 12l93 12v55q0 47 -24 76t-76 29q-33 0 -54 -11t-33 -25q-14 -17 -23 -38zM445 727l-159 -160h-63l-158 160h81l109 -116 l108 116h82z" />
<glyph unicode="&#x1de;" d="M30 0l219 651h102l219 -651h-77l-54 168h-279l-50 -168h-80zM180 230h239l-119 370zM150 933h300v-55h-300v55zM255 774q0 -24 -16 -40q-17 -15 -40 -15q-24 0 -40 15q-15 15 -15 40q0 26 15 41q17 14 40 14t40 -14q16 -16 16 -41zM456 774q0 -24 -16 -40 q-17 -15 -39 -15q-25 0 -41 15q-15 15 -15 40q0 26 15 41q17 14 41 14q22 0 39 -14q16 -16 16 -41z" />
<glyph unicode="&#x1df;" horiz-adv-x="511" d="M212 48q31 0 54.5 9.5t39.5 25.5t25 36t9 41v40l-44 -5.5t-54 -7.5q-20 -3 -39.5 -8t-33.5 -13q-28 -17 -30 -52q0 -33 19 -49.5t54 -16.5zM66 369q13 29 38 52q21 20 55 35.5t82 15.5t81 -12t53.5 -33t29.5 -52t9 -65v-188q0 -35 8 -46t25 -11q11 0 16 1l10 2l4 -59 q-8 -5 -18.5 -8t-31.5 -3q-32 0 -52 21.5t-24 55.5q-21 -37 -61 -62t-90 -25q-65 0 -101.5 33t-36.5 90q1 35 18.5 57.5t43.5 36.5q26 13 55 20t68 12l93 12v55q0 47 -24 76t-76 29q-33 0 -54 -11t-33 -25q-14 -17 -23 -38zM91 742h300v-55h-300v55zM195 583q0 -24 -16 -40 q-17 -15 -40 -15q-24 0 -40 15q-15 15 -15 40q0 26 15 41q17 14 40 14t40 -14q16 -16 16 -41zM396 583q0 -24 -16 -40q-17 -15 -39 -15q-25 0 -41 15q-15 15 -15 40q0 26 15 41q17 14 41 14q22 0 39 -14q16 -16 16 -41z" />
<glyph unicode="&#x1e0;" d="M30 0l219 651h102l219 -651h-77l-54 168h-279l-50 -168h-80zM180 230h239l-119 370zM150 933h300v-55h-300v55zM356 776q0 -27 -17 -44q-19 -16 -40 -16q-20 0 -38 16q-17 16 -17 44t17 42q16 15 38 15t40 -15q17 -15 17 -42z" />
<glyph unicode="&#x1e1;" horiz-adv-x="511" d="M212 48q31 0 54.5 9.5t39.5 25.5t25 36t9 41v40l-44 -5.5t-54 -7.5q-20 -3 -39.5 -8t-33.5 -13q-28 -17 -30 -52q0 -33 19 -49.5t54 -16.5zM66 369q13 29 38 52q21 20 55 35.5t82 15.5t81 -12t53.5 -33t29.5 -52t9 -65v-188q0 -35 8 -46t25 -11q11 0 16 1l10 2l4 -59 q-8 -5 -18.5 -8t-31.5 -3q-32 0 -52 21.5t-24 55.5q-21 -37 -61 -62t-90 -25q-65 0 -101.5 33t-36.5 90q1 35 18.5 57.5t43.5 36.5q26 13 55 20t68 12l93 12v55q0 47 -24 76t-76 29q-33 0 -54 -11t-33 -25q-14 -17 -23 -38zM304 584q0 -27 -17 -44q-19 -16 -40 -16 q-20 0 -38 16q-17 16 -17 44t17 42q16 15 38 15t40 -15q17 -15 17 -42zM91 742h300v-55h-300v55z" />
<glyph unicode="&#x1e2;" horiz-adv-x="818" d="M75 0h-71l333 651h410v-66h-283v-224h264v-66h-264v-229h296v-66h-375v164h-229zM385 610l-199 -381h199v381zM403 813h300v-55h-300v55z" />
<glyph unicode="&#x1e3;" horiz-adv-x="786" d="M241 472q31 0 55.5 -8.5t43 -22t32 -32t22.5 -37.5q9 18 23 36.5t33 32.5t44 23t56 9q39 0 73 -12.5t58.5 -39t39 -66.5t14.5 -94q0 -12 -1 -17t-1 -13l-319 -24q3 -32 12.5 -60.5t26.5 -49.5t41 -33.5t56 -12.5q43 0 71 18t39 44l68 -33q-9 -19 -25.5 -36t-39 -29.5 t-51 -19.5t-60.5 -7q-36 0 -64.5 9.5t-49.5 25t-35.5 36t-21.5 42.5q-18 -33 -39 -55t-44.5 -35t-47.5 -18t-48 -5q-60 0 -100 34.5t-40 91.5q0 31 12 54t34.5 39.5t49.5 25.5t60 12l122 10v53q0 47 -24 74t-76 27q-33 0 -54 -11.5t-33 -25.5q-14 -17 -21 -37l-66 34 q15 28 40 51q21 20 54 36t81 16zM546 411q-60 0 -94 -40t-38 -111l241 17q0 2 0.5 6.5t0.5 6.5q0 53 -29.5 87t-80.5 34zM212 48q28 0 53 9.5t41 25.5t25 36t9 41v40q-16 0 -44 -1.5t-54 -4.5q-17 -2 -36.5 -5.5t-34.5 -11.5t-23.5 -22.5t-8.5 -36.5q0 -35 22.5 -52.5 t50.5 -17.5zM243 622h300v-55h-300v55z" />
<glyph unicode="&#x1e6;" horiz-adv-x="675" d="M595 327v-327h-58l-10 99h-4q-8 -21 -24.5 -41t-40 -35.5t-52.5 -25t-61 -9.5q-63 0 -115 22.5t-90 65t-59 104.5t-21 140q0 79 21 142.5t59.5 108t92.5 68.5t119 24q45 0 83 -9.5t67.5 -25.5t50 -37.5t30.5 -45.5l-68 -40q-10 38 -54 65t-109 27q-59 0 -99 -21 t-64.5 -58t-35.5 -88t-11 -110t12.5 -108t38.5 -84t65.5 -54.5t93.5 -19.5q40 0 71 12.5t52.5 32.5t32.5 45.5t11 52.5v64h-176v66h252zM534 918l-159 -160h-63l-158 160h81l109 -116l108 116h82z" />
<glyph unicode="&#x1e7;" horiz-adv-x="537" d="M214 -49q-50 0 -75.5 -18.5t-25.5 -60.5q0 -21 7.5 -36t24 -24t43.5 -13.5t67 -4.5q83 0 120.5 19.5t37.5 64.5q0 38 -26.5 55.5t-86.5 17.5h-86zM249 174q53 0 81.5 29.5t28.5 89.5q0 120 -109 120q-54 0 -85 -30.5t-31 -89.5q0 -60 30.5 -89.5t84.5 -29.5zM526 401 q-5 1 -11.5 1.5t-14.5 0.5q-32 0 -53.5 -11t-30.5 -17q11 -20 15.5 -36.5t4.5 -43.5q0 -85 -45 -128t-141 -53q-29 -3 -50.5 -12.5t-21.5 -38.5q0 -48 55 -48h113q71 0 110 -31.5t39 -85.5q0 -72 -65 -116t-184 -44q-106 0 -159 31.5t-53 88.5q0 26 10.5 46.5t29 35.5 t43.5 23.5t55 10.5q-26 7 -42.5 26t-16.5 44q0 29 20 50t52 29q-24 7 -47 21t-40.5 34.5t-28.5 48t-11 62.5q0 42 15 75.5t41 57.5t61 37t75 13q46 0 84 -19.5t59 -48.5q6 11 16.5 24t25.5 24.5t33.5 19t40.5 7.5q7 0 11.5 -0.5t10.5 -1.5zM458 727l-159 -160h-63l-158 160 h81l109 -116l108 116h82z" />
<glyph unicode="&#x1e8;" horiz-adv-x="582" d="M169 332l283 319h87l-255 -290l273 -361h-99l-224 317l-65 -62v-255h-79v651h79v-319zM476 918l-159 -160h-63l-158 160h81l109 -116l108 116h82z" />
<glyph unicode="&#x1e9;" horiz-adv-x="506" d="M378 460h86l-190 -190l207 -270h-90l-165 228l-65 -62v-166h-76v711h76v-483zM445 958l-159 -160h-63l-158 160h81l109 -116l108 116h82z" />
<glyph unicode="&#x1ea;" horiz-adv-x="705" d="M645 326q0 -79 -22 -142t-61 -106.5t-92.5 -66.5t-116.5 -23t-117 23t-93 66.5t-61 106.5t-22 142q0 80 22 142.5t61 106t93 66t117 22.5t116.5 -22.5t92.5 -66t61 -106t22 -142.5zM563 326q0 66 -15 117t-43 85t-66.5 51.5t-85.5 17.5t-85.5 -17.5t-67 -51.5t-44 -85 t-15.5 -117t15.5 -117t44 -85.5t67 -52t85.5 -17.5t85.5 17.5t66.5 52t43 85.5t15 117zM441 9q-117 -57 -117 -111q0 -50 43 -50q29 0 54 21l25 -37q-38 -31 -81 -31q-103 0 -103 88q0 59 91 111q15 10 31 17z" />
<glyph unicode="&#x1eb;" horiz-adv-x="537" d="M488 230q0 -57 -16.5 -102t-45.5 -76t-69 -47.5t-88 -16.5t-88 16.5t-69.5 47.5t-46 76t-16.5 102t16.5 102t46 76t69.5 47.5t88 16.5t88 -16.5t69 -47.5t45.5 -76t16.5 -102zM411 230q0 89 -39.5 134t-102.5 45t-103 -45t-40 -134t40 -134t103 -45t102.5 45t39.5 134z M340 9q-117 -57 -117 -111q0 -50 43 -50q29 0 54 21l25 -37q-38 -31 -81 -31q-103 0 -103 88q0 59 91 111q15 10 31 17z" />
<glyph unicode="&#x1f6;" horiz-adv-x="978" d="M575 159q0 -22 5.5 -42t17.5 -35t30 -23.5t53 -8.5q31 0 55 13t41 36t26 53t9 65v243h76v-365q0 -14 1.5 -42t3.5 -53h-74q-1 6 -1.5 17.5t-1 24t-1 25.5t-0.5 24h-4q-9 -20 -23.5 -38.5t-33.5 -33t-42.5 -23t-51.5 -8.5q-31 0 -63.5 9.5t-54 30t-34 52t-12.5 76.5v128 h-327v-284h-79v651h79v-301h327v301h79v-492z" />
<glyph unicode="&#x1fe;" horiz-adv-x="705" d="M645 326q0 -79 -22 -142t-61 -106.5t-92.5 -66.5t-116.5 -23q-50 0 -94 14t-79 42l-45 -60l-50 36l50 67q-35 44 -55 104t-20 135q0 80 22 142.5t61 106t93 66t117 22.5q99 0 172 -55l45 61l50 -36l-50 -67q35 -44 55 -104t20 -136zM563 326q0 55 -11 100t-31 78 l-298 -405q51 -45 130 -45q47 0 85.5 17.5t66.5 52t43 85.5t15 117zM141 326q0 -110 42 -178l298 405q-51 44 -128 44q-47 0 -85.5 -17.5t-67 -51.5t-44 -85t-15.5 -117zM455 944l41 -41l-145 -146l-41 41z" />
<glyph unicode="&#x1ff;" horiz-adv-x="537" d="M367 753l41 -41l-145 -146l-41 41zM87 83q-18 29 -28 65.5t-10 81.5q0 57 16.5 102t46 76t69.5 47.5t88 16.5q90 0 150 -57l66 67l39 -41l-70 -71q16 -28 25 -63t9 -77q0 -57 -16.5 -102t-45.5 -76t-69 -47.5t-88 -16.5q-88 0 -146 52l-61 -63l-38 43zM124 220 q0 -26 4 -47.5t11 -40.5l228 236q-18 20 -43 31.5t-55 11.5q-32 0 -58.5 -13.5t-45.5 -38t-30 -60t-11 -79.5zM413 240q0 25 -4.5 46.5t-11.5 40.5l-227 -235q19 -20 44 -31.5t55 -11.5q31 0 57.5 13t46 38t30 60.5t10.5 79.5z" />
<glyph unicode="&#x218;" horiz-adv-x="542" d="M408 513q-12 34 -45 60t-91 26q-33 0 -56.5 -9t-37.5 -24t-20.5 -34t-6.5 -38q0 -27 11.5 -47t31 -34.5t46 -26t55.5 -22.5q37 -14 72 -29t62 -36.5t43.5 -50.5t16.5 -71q0 -41 -15.5 -75.5t-44.5 -59.5t-69.5 -39.5t-89.5 -14.5q-41 0 -77 10t-64.5 27t-48 39.5 t-26.5 48.5l64 40q14 -42 53.5 -71t101.5 -29t100 30t38 81q0 27 -12 47t-32 35.5t-46 27t-55 22.5q-38 15 -73 30t-61.5 36t-42.5 50t-16 71t16 75.5t43.5 56.5t65.5 35.5t82 12.5q38 0 71 -9t58 -24.5t41.5 -36.5t21.5 -44zM203 -249l18 151l73 -11l-37 -146z" />
<glyph unicode="&#x219;" horiz-adv-x="457" d="M336 349q-11 26 -39 44t-70 18t-65 -19t-23 -48q0 -18 8 -30t22.5 -21t33.5 -15.5t41 -12.5q30 -8 60.5 -17.5t54.5 -24t39 -36.5t15 -56q0 -30 -12 -56t-35.5 -45.5t-56.5 -30.5t-75 -11q-54 0 -88.5 15.5t-56.5 34.5q-26 22 -40 50l61 36q9 -21 27 -38 q14 -14 38.5 -25.5t60.5 -11.5q19 0 37.5 4t32.5 13t22.5 22t8.5 31q0 34 -31 50t-83 31q-28 8 -56.5 18t-51 25t-36.5 37t-14 54q0 31 13 56.5t36 43.5t53.5 28t66.5 10q61 0 106 -26t59 -62zM183 -249l18 151l73 -11l-37 -146z" />
<glyph unicode="&#x21a;" horiz-adv-x="547" d="M30 651h487v-67h-204v-584h-79v584h-204v67zM223 -249l18 151l73 -11l-37 -146z" />
<glyph unicode="&#x21b;" horiz-adv-x="372" d="M108 460v96l76 10v-106h138v-63h-138v-270q0 -16 2.5 -29.5t9.5 -24t20 -16.5t33 -6q23 0 35.5 4t24.5 12l13 -60q-15 -8 -35 -14t-46 -6q-58 0 -95.5 30t-37.5 99v281h-73v63h73zM133 -249l18 151l73 -11l-37 -146z" />
<glyph unicode="&#x22a;" horiz-adv-x="705" d="M645 326q0 -79 -22 -142t-61 -106.5t-92.5 -66.5t-116.5 -23t-117 23t-93 66.5t-61 106.5t-22 142q0 80 22 142.5t61 106t93 66t117 22.5t116.5 -22.5t92.5 -66t61 -106t22 -142.5zM563 326q0 66 -15 117t-43 85t-66.5 51.5t-85.5 17.5t-85.5 -17.5t-67 -51.5t-44 -85 t-15.5 -117t15.5 -117t44 -85.5t67 -52t85.5 -17.5t85.5 17.5t66.5 52t43 85.5t15 117zM206 933h300v-55h-300v55zM311 774q0 -24 -16 -40q-17 -15 -40 -15q-24 0 -40 15q-15 15 -15 40q0 26 15 41q17 14 40 14t40 -14q16 -16 16 -41zM512 774q0 -24 -16 -40 q-17 -15 -39 -15q-25 0 -41 15q-15 15 -15 40q0 26 15 41q17 14 41 14q22 0 39 -14q16 -16 16 -41z" />
<glyph unicode="&#x22b;" horiz-adv-x="537" d="M488 230q0 -57 -16.5 -102t-45.5 -76t-69 -47.5t-88 -16.5t-88 16.5t-69.5 47.5t-46 76t-16.5 102t16.5 102t46 76t69.5 47.5t88 16.5t88 -16.5t69 -47.5t45.5 -76t16.5 -102zM411 230q0 89 -39.5 134t-102.5 45t-103 -45t-40 -134t40 -134t103 -45t102.5 45t39.5 134z M114 742h300v-55h-300v55zM221 583q0 -24 -16 -40q-17 -15 -40 -15q-24 0 -40 15q-15 15 -15 40q0 26 15 41q17 14 40 14t40 -14q16 -16 16 -41zM422 583q0 -24 -16 -40q-17 -15 -39 -15q-25 0 -41 15q-15 15 -15 40q0 26 15 41q17 14 41 14q22 0 39 -14q16 -16 16 -41z" />
<glyph unicode="&#x22c;" horiz-adv-x="705" d="M645 326q0 -79 -22 -142t-61 -106.5t-92.5 -66.5t-116.5 -23t-117 23t-93 66.5t-61 106.5t-22 142q0 80 22 142.5t61 106t93 66t117 22.5t116.5 -22.5t92.5 -66t61 -106t22 -142.5zM563 326q0 66 -15 117t-43 85t-66.5 51.5t-85.5 17.5t-85.5 -17.5t-67 -51.5t-44 -85 t-15.5 -117t15.5 -117t44 -85.5t67 -52t85.5 -17.5t85.5 17.5t66.5 52t43 85.5t15 117zM495 839q2 -9 4 -21t2 -32q0 -13 -4.5 -26t-13.5 -24t-24 -18.5t-34 -7.5q-25 0 -43 10.5t-33.5 23.5t-29 23.5t-30.5 10.5q-18 0 -23 -15.5t-5 -31.5v-10.5t1 -10.5h-45q-7 19 -7 52 q0 13 4.5 27t13.5 25t23.5 18t33.5 7q24 0 42.5 -10.5t34 -23.5t29 -23.5t28.5 -10.5q10 0 16.5 5.5t10 13t4.5 17t1 17.5v9t-1 6h45zM204 933h300v-55h-300v55z" />
<glyph unicode="&#x22d;" horiz-adv-x="537" d="M488 230q0 -57 -16.5 -102t-45.5 -76t-69 -47.5t-88 -16.5t-88 16.5t-69.5 47.5t-46 76t-16.5 102t16.5 102t46 76t69.5 47.5t88 16.5t88 -16.5t69 -47.5t45.5 -76t16.5 -102zM411 230q0 89 -39.5 134t-102.5 45t-103 -45t-40 -134t40 -134t103 -45t102.5 45t39.5 134z M404 650q2 -9 4 -21t2 -32q0 -13 -4.5 -26t-13.5 -24t-24 -18.5t-34 -7.5q-25 0 -43 10.5t-33.5 23.5t-29 23.5t-30.5 10.5q-18 0 -23 -15.5t-5 -31.5v-10.5t1 -10.5h-45q-7 19 -7 52q0 13 4.5 27t13.5 25t23.5 18t33.5 7q24 0 42.5 -10.5t34 -23.5t29 -23.5t28.5 -10.5 q10 0 16.5 5.5t10 13t4.5 17t1 17.5v9t-1 6h45zM114 742h300v-55h-300v55z" />
<glyph unicode="&#x22e;" horiz-adv-x="705" d="M645 326q0 -79 -22 -142t-61 -106.5t-92.5 -66.5t-116.5 -23t-117 23t-93 66.5t-61 106.5t-22 142q0 80 22 142.5t61 106t93 66t117 22.5t116.5 -22.5t92.5 -66t61 -106t22 -142.5zM563 326q0 66 -15 117t-43 85t-66.5 51.5t-85.5 17.5t-85.5 -17.5t-67 -51.5t-44 -85 t-15.5 -117t15.5 -117t44 -85.5t67 -52t85.5 -17.5t85.5 17.5t66.5 52t43 85.5t15 117zM405 818q0 -27 -17 -44q-19 -16 -40 -16q-20 0 -38 16q-17 16 -17 44t17 42q16 15 38 15t40 -15q17 -15 17 -42z" />
<glyph unicode="&#x22f;" horiz-adv-x="537" d="M488 230q0 -57 -16.5 -102t-45.5 -76t-69 -47.5t-88 -16.5t-88 16.5t-69.5 47.5t-46 76t-16.5 102t16.5 102t46 76t69.5 47.5t88 16.5t88 -16.5t69 -47.5t45.5 -76t16.5 -102zM411 230q0 89 -39.5 134t-102.5 45t-103 -45t-40 -134t40 -134t103 -45t102.5 45t39.5 134z M324 627q0 -27 -17 -44q-19 -16 -40 -16q-20 0 -38 16q-17 16 -17 44t17 42q16 15 38 15t40 -15q17 -15 17 -42z" />
<glyph unicode="&#x230;" horiz-adv-x="705" d="M645 326q0 -79 -22 -142t-61 -106.5t-92.5 -66.5t-116.5 -23t-117 23t-93 66.5t-61 106.5t-22 142q0 80 22 142.5t61 106t93 66t117 22.5t116.5 -22.5t92.5 -66t61 -106t22 -142.5zM563 326q0 66 -15 117t-43 85t-66.5 51.5t-85.5 17.5t-85.5 -17.5t-67 -51.5t-44 -85 t-15.5 -117t15.5 -117t44 -85.5t67 -52t85.5 -17.5t85.5 17.5t66.5 52t43 85.5t15 117zM201 933h300v-55h-300v55zM407 776q0 -27 -17 -44q-19 -16 -40 -16q-20 0 -38 16q-17 16 -17 44t17 42q16 15 38 15t40 -15q17 -15 17 -42z" />
<glyph unicode="&#x231;" horiz-adv-x="537" d="M324 584q0 -27 -17 -44q-19 -16 -40 -16q-20 0 -38 16q-17 16 -17 44t17 42q16 15 38 15t40 -15q17 -15 17 -42zM488 230q0 -57 -16.5 -102t-45.5 -76t-69 -47.5t-88 -16.5t-88 16.5t-69.5 47.5t-46 76t-16.5 102t16.5 102t46 76t69.5 47.5t88 16.5t88 -16.5t69 -47.5 t45.5 -76t16.5 -102zM411 230q0 89 -39.5 134t-102.5 45t-103 -45t-40 -134t40 -134t103 -45t102.5 45t39.5 134zM114 742h300v-55h-300v55z" />
<glyph unicode="&#x232;" horiz-adv-x="533" d="M10 651h78l177 -357l183 357h75l-219 -401v-250h-79v250zM115 813h300v-55h-300v55z" />
<glyph unicode="&#x233;" horiz-adv-x="473" d="M236 -180q-15 -44 -42 -62.5t-66 -18.5q-10 0 -27.5 2t-31.5 5l9 61q7 -2 18 -3t20 -1q26 0 42 12.5t22 32.5q3 11 8.5 30t11.5 39q6 23 14 49l-184 494h75l142 -414l128 414h73zM86 622h300v-55h-300v55z" />
<glyph unicode="&#x237;" horiz-adv-x="256" d="M166 460v-574q0 -70 -38.5 -109t-99.5 -39q-14 0 -29.5 2t-26.5 5l10 61q17 -5 35 -5q13 0 26 4t23.5 14.5t17 28.5t6.5 46v566h76z" />
<glyph unicode="&#x243;" horiz-adv-x="594" d="M415 350q37 -12 67 -34q25 -19 46 -50.5t21 -79.5q0 -93 -57.5 -139.5t-169.5 -46.5h-222v158h-80v57h80v436h235q88 0 139.5 -41t51.5 -119q0 -40 -17.5 -66t-37.5 -42q-25 -18 -55 -30zM327 61q69 0 106 28t37 88t-30.5 97t-97.5 37h-168v-96h126v-57h-126v-97h153z M174 368h156q57 0 86 29.5t29 80.5q0 54 -32 83t-98 29h-141v-222z" />
<glyph unicode="&#x259;" horiz-adv-x="508" d="M383 246q0 76 -35.5 120t-103.5 44q-34 0 -56 -9.5t-37 -21.5q-17 -14 -27 -31l-68 35q16 24 43 45q23 17 58.5 30.5t89.5 13.5q62 0 103 -21.5t65 -56.5t34 -80t10 -91q0 -54 -15 -97t-43 -74t-66.5 -47.5t-85.5 -16.5q-48 0 -85 17t-62 47.5t-38 72.5t-13 92v14.5 t1 14.5h331zM252 50q62 0 97 34.5t35 100.5h-252v-8q0 -23 7 -45.5t22 -40.5t37.5 -29.5t53.5 -11.5z" />
<glyph unicode="&#x280;" horiz-adv-x="527" d="M442 324q0 -27 -9 -48.5t-22 -38t-30 -27.5t-35 -17l134 -193h-76l-115 176h-123v-176h-76v460h170q89 0 136.5 -36t45.5 -100zM166 231h108q26 0 43 6t28 17.5t15 26.5t4 33q0 42 -24 66t-76 24h-98v-173z" />
<glyph unicode="&#x2c6;" horiz-adv-x="250" d="M-60 567l159 160h62l159 -160h-82l-108 116l-108 -116h-82z" />
<glyph unicode="&#x2c7;" horiz-adv-x="250" d="M316 727l-159 -160h-63l-158 160h81l109 -116l108 116h82z" />
<glyph unicode="&#x2d8;" horiz-adv-x="250" d="M125 622q46 0 70.5 30t24.5 74h68q0 -34 -10.5 -63t-31 -50.5t-51 -33.5t-70.5 -12q-81 0 -122 44.5t-41 114.5h67q0 -44 26 -74t70 -30z" />
<glyph unicode="&#x2d9;" horiz-adv-x="250" d="M181 627q0 -27 -17 -44q-19 -16 -40 -16q-20 0 -38 16q-17 16 -17 44t17 42q16 15 38 15t40 -15q17 -15 17 -42z" />
<glyph unicode="&#x2da;" horiz-adv-x="250" d="M8 681q0 48 31.5 81t85.5 33q26 0 47.5 -9t37 -24.5t24 -36t8.5 -44.5t-8.5 -45t-24 -36t-37 -24t-47.5 -9q-54 0 -85.5 33t-31.5 81zM58 681q0 -29 19 -49t48 -20q28 0 47.5 20t19.5 49q0 28 -19.5 48.5t-47.5 20.5q-29 0 -48 -20.5t-19 -48.5z" />
<glyph unicode="&#x2db;" horiz-adv-x="250" d="M189 9q-117 -57 -117 -111q0 -50 43 -50q29 0 54 21l25 -37q-38 -31 -81 -31q-103 0 -103 88q0 59 91 111q15 10 31 17z" />
<glyph unicode="&#x2dc;" horiz-adv-x="250" d="M265 696q2 -9 4 -21t2 -32q0 -13 -4.5 -26t-13.5 -24t-24 -18.5t-34 -7.5q-25 0 -43 10.5t-33.5 23.5t-29 23.5t-30.5 10.5q-18 0 -23 -15.5t-5 -31.5v-10.5t1 -10.5h-45q-7 19 -7 52q0 13 4.5 27t13.5 25t23.5 18t33.5 7q24 0 42.5 -10.5t34 -23.5t29 -23.5t28.5 -10.5 q10 0 16.5 5.5t10 13t4.5 17t1 17.5v9t-1 6h45z" />
<glyph unicode="&#x2dd;" horiz-adv-x="300" d="M116 759l40 -38l-134 -155l-40 38zM278 759l40 -38l-134 -155l-40 38z" />
<glyph unicode="&#x300;" horiz-adv-x="1" d="M-179 607l-41 -41l-145 146l41 41z" />
<glyph unicode="&#x301;" horiz-adv-x="1" d="M-160 753l41 -41l-145 -146l-41 41z" />
<glyph unicode="&#x302;" horiz-adv-x="1" d="M-449 567l159 160h62l159 -160h-82l-108 116l-108 -116h-82z" />
<glyph unicode="&#x303;" horiz-adv-x="1" d="M-124 696q2 -9 4 -21t2 -32q0 -13 -4.5 -26t-13.5 -24t-24 -18.5t-34 -7.5q-25 0 -43 10.5t-33.5 23.5t-29 23.5t-30.5 10.5q-18 0 -23 -15.5t-5 -31.5v-10.5t1 -10.5h-45q-7 19 -7 52q0 13 4.5 27t13.5 25t23.5 18t33.5 7q24 0 42.5 -10.5t34 -23.5t29 -23.5t28.5 -10.5 q10 0 16.5 5.5t10 13t4.5 17t1 17.5v9t-1 6h45z" />
<glyph unicode="&#x304;" horiz-adv-x="1" d="M-414 622h300v-55h-300v55z" />
<glyph unicode="&#x306;" horiz-adv-x="1" d="M-264 622q46 0 70.5 30t24.5 74h68q0 -34 -10.5 -63t-31 -50.5t-51 -33.5t-70.5 -12q-81 0 -122 44.5t-41 114.5h67q0 -44 26 -74t70 -30z" />
<glyph unicode="&#x307;" horiz-adv-x="1" d="M-208 627q0 -27 -17 -44q-19 -16 -40 -16q-20 0 -38 16q-17 16 -17 44t17 42q16 15 38 15t40 -15q17 -15 17 -42z" />
<glyph unicode="&#x308;" horiz-adv-x="1" d="M-308 622q0 -24 -16 -40q-17 -15 -40 -15q-24 0 -40 15q-15 15 -15 40q0 26 15 41q17 14 40 14t40 -14q16 -16 16 -41zM-107 622q0 -24 -16 -40q-17 -15 -39 -15q-25 0 -41 15q-15 15 -15 40q0 26 15 41q17 14 41 14q22 0 39 -14q16 -16 16 -41z" />
<glyph unicode="&#x30a;" horiz-adv-x="1" d="M-381 681q0 48 31.5 81t85.5 33q26 0 47.5 -9t37 -24.5t24 -36t8.5 -44.5t-8.5 -45t-24 -36t-37 -24t-47.5 -9q-54 0 -85.5 33t-31.5 81zM-331 681q0 -29 19 -49t48 -20q28 0 47.5 20t19.5 49q0 28 -19.5 48.5t-47.5 20.5q-29 0 -48 -20.5t-19 -48.5z" />
<glyph unicode="&#x30b;" horiz-adv-x="1" d="M-243 759l40 -38l-134 -155l-40 38zM-81 759l40 -38l-134 -155l-40 38z" />
<glyph unicode="&#x30c;" horiz-adv-x="1" d="M-73 727l-159 -160h-63l-158 160h81l109 -116l108 116h82z" />
<glyph unicode="&#x312;" horiz-adv-x="1" d="M-208.995 713.984l-17.999 -150.99l-72.9951 10.999l36.998 145.991z" />
<glyph unicode="&#x313;" horiz-adv-x="1" d="M-293 569l18 151l73 -11l-37 -146z" />
<glyph unicode="&#x323;" horiz-adv-x="1" d="M-218 -155q0 -28 -17 -44t-40 -16q-21 0 -38 16t-17 44q0 26 17 41.5t38 15.5q23 0 40 -15.5t17 -41.5z" />
<glyph unicode="&#x326;" horiz-adv-x="1" d="M-325 -249l18 151l73 -11l-37 -146z" />
<glyph unicode="&#x327;" horiz-adv-x="1" d="M-272 17q17 -8 31 -17q71 -44 71 -101q0 -98 -115 -98q-50 0 -84 31l25 37q28 -21 62 -21q50 0 50 56q0 59 -97 105z" />
<glyph unicode="&#x328;" horiz-adv-x="1" d="M-186 9q-117 -57 -117 -111q0 -50 43 -50q29 0 54 21l25 -37q-38 -31 -81 -31q-103 0 -103 88q0 59 91 111q15 10 31 17z" />
<glyph unicode="&#x3c0;" horiz-adv-x="567" d="M527 460v-63h-73v-397h-76v397h-189v-397h-76v397h-73v63h487z" />
<glyph unicode="&#x1e0c;" horiz-adv-x="658" d="M90 0v651h217q141 0 218.5 -84t77.5 -242q0 -156 -77.5 -240.5t-218.5 -84.5h-217zM308 66q107 0 160 66.5t53 192.5q0 127 -53 193.5t-160 66.5h-139v-519h139zM354 -155q0 -28 -17 -44t-40 -16q-21 0 -38 16t-17 44q0 26 17 41.5t38 15.5q23 0 40 -15.5t17 -41.5z" />
<glyph unicode="&#x1e0d;" horiz-adv-x="579" d="M127 230q0 -89 42 -134t105 -45t104 45t41 134t-41 134.5t-104 45.5t-105 -45.5t-42 -134.5zM489 711v-617q0 -17 1.5 -44.5t3.5 -49.5h-69q-1 5 -2 14.5t-1.5 20.5t-1.5 22t-1 20h-5q-10 -17 -26 -32.5t-36.5 -28.5t-45 -20.5t-50.5 -7.5q-44 0 -82 17t-65.5 48.5 t-43.5 75.5t-16 98t16.5 99.5t45 78t67.5 50.5t84 18q25 0 48 -7t42.5 -19t34.5 -26.5t24 -29.5h5q-2 14 -2.5 30.5t-0.5 26.5v263h76zM315 -155q0 -28 -17 -44t-40 -16q-21 0 -38 16t-17 44q0 26 17 41.5t38 15.5q23 0 40 -15.5t17 -41.5z" />
<glyph unicode="&#x1e10;" horiz-adv-x="658" d="M90 0v651h217q141 0 218.5 -84t77.5 -242q0 -156 -77.5 -240.5t-218.5 -84.5h-217zM308 66q107 0 160 66.5t53 192.5q0 127 -53 193.5t-160 66.5h-139v-519h139zM260 -249l18 151l73 -11l-37 -146z" />
<glyph unicode="&#x1e11;" horiz-adv-x="579" d="M127 230q0 -89 42 -134t105 -45t104 45t41 134t-41 134.5t-104 45.5t-105 -45.5t-42 -134.5zM489 711v-617q0 -17 1.5 -44.5t3.5 -49.5h-69q-1 5 -2 14.5t-1.5 20.5t-1.5 22t-1 20h-5q-10 -17 -26 -32.5t-36.5 -28.5t-45 -20.5t-50.5 -7.5q-44 0 -82 17t-65.5 48.5 t-43.5 75.5t-16 98t16.5 99.5t45 78t67.5 50.5t84 18q25 0 48 -7t42.5 -19t34.5 -26.5t24 -29.5h5q-2 14 -2.5 30.5t-0.5 26.5v263h76zM217 -249l18 151l73 -11l-37 -146z" />
<glyph unicode="&#x1e16;" horiz-adv-x="555" d="M169 585v-224h284v-66h-284v-229h326v-66h-405v651h392v-66h-313zM386 1010l41 -41l-145 -146l-41 41zM142 773h300v-55h-300v55z" />
<glyph unicode="&#x1e17;" horiz-adv-x="508" d="M125 221q2 -88 42 -129.5t101 -41.5q32 0 53.5 9.5t35.5 21.5q15 13 24 31l68 -35q-14 -26 -39 -45q-21 -17 -55.5 -30.5t-85.5 -13.5q-57 0 -98.5 19t-68.5 52t-40 77t-13 93q0 57 16 102.5t45 76.5t69 47.5t87 16.5q48 0 84 -16.5t59.5 -46.5t35.5 -70.5t12 -88.5 v-14.5t-1 -14.5h-331zM262 410q-57 0 -92 -36t-41 -92h247v8q0 21 -6.5 42.5t-20 39t-35 28t-52.5 10.5zM351 819l41 -41l-145 -146l-41 41zM111 583h300v-55h-300v55z" />
<glyph unicode="&#x1e24;" horiz-adv-x="685" d="M595 651v-651h-79v294h-347v-294h-79v651h79v-291h347v291h79zM398 -155q0 -28 -17 -44t-40 -16q-21 0 -38 16t-17 44q0 26 17 41.5t38 15.5q23 0 40 -15.5t17 -41.5z" />
<glyph unicode="&#x1e25;" horiz-adv-x="553" d="M161 711v-342q15 28 38 51q20 20 50.5 36t73.5 16q33 0 61 -9.5t49 -30.5t33 -53t12 -77v-302h-76v303q0 21 -6.5 40.5t-19 34t-32 23.5t-45.5 9q-35 0 -61 -15.5t-43 -40t-25.5 -54t-8.5 -57.5v-243h-76v711h76zM336 -155q0 -28 -17 -44t-40 -16q-21 0 -38 16t-17 44 q0 26 17 41.5t38 15.5q23 0 40 -15.5t17 -41.5z" />
<glyph unicode="&#x1e36;" horiz-adv-x="505" d="M169 651v-585h306v-66h-385v651h79zM331 -155q0 -28 -17 -44t-40 -16q-21 0 -38 16t-17 44q0 26 17 41.5t38 15.5q23 0 40 -15.5t17 -41.5z" />
<glyph unicode="&#x1e37;" horiz-adv-x="256" d="M90 711h76v-711h-76v711zM184 -155q0 -28 -17 -44t-40 -16q-21 0 -38 16t-17 44q0 26 17 41.5t38 15.5q23 0 40 -15.5t17 -41.5z" />
<glyph unicode="&#x1e38;" horiz-adv-x="505" d="M169 651v-585h306v-66h-385v651h79zM121 813h300v-55h-300v55zM331 -155q0 -28 -17 -44t-40 -16q-21 0 -38 16t-17 44q0 26 17 41.5t38 15.5q23 0 40 -15.5t17 -41.5z" />
<glyph unicode="&#x1e39;" horiz-adv-x="256" d="M90 711h76v-711h-76v711zM-23 853h300v-55h-300v55zM184 -155q0 -28 -17 -44t-40 -16q-21 0 -38 16t-17 44q0 26 17 41.5t38 15.5q23 0 40 -15.5t17 -41.5z" />
<glyph unicode="&#x1e42;" horiz-adv-x="788" d="M352 121l-194 453l5 -574h-73v651h101l205 -472l204 472h98v-651h-73l5 574l-194 -453h-84zM451 -155q0 -28 -17 -44t-40 -16q-21 0 -38 16t-17 44q0 26 17 41.5t38 15.5q23 0 40 -15.5t17 -41.5z" />
<glyph unicode="&#x1e43;" horiz-adv-x="835" d="M463 0h-76v303q0 21 -5.5 40.5t-17.5 34t-30 23.5t-42 9q-32 0 -55.5 -15t-39 -38.5t-23.5 -52.5t-8 -56v-248h-76v365q0 15 -1.5 42.5t-3.5 52.5h74q1 -6 1.5 -17.5t1 -24t0.5 -26v-23.5h4q9 19 23 37.5t33 33t41.5 23.5t47.5 9q45 0 72 -18t43 -40q18 -26 27 -58h4 q7 22 21.5 43t34.5 37t45.5 26t54.5 10q46 0 74.5 -17t44.5 -42t22 -54t6 -52v-307h-76v303q0 16 -4.5 35t-15.5 35t-29 26.5t-46 10.5t-51.5 -13.5t-40 -36t-25.5 -51.5t-9 -60v-249zM481 -155q0 -28 -17 -44t-40 -16q-21 0 -38 16t-17 44q0 26 17 41.5t38 15.5 q23 0 40 -15.5t17 -41.5z" />
<glyph unicode="&#x1e44;" horiz-adv-x="671" d="M161 0h-71v651h92l332 -573l-4 573h71v-651h-93l-332 570zM398 818q0 -27 -17 -44q-19 -16 -40 -16q-20 0 -38 16q-17 16 -17 44t17 42q16 15 38 15t40 -15q17 -15 17 -42z" />
<glyph unicode="&#x1e45;" horiz-adv-x="558" d="M407 303q0 21 -6.5 40.5t-19 34t-32 23.5t-46.5 9q-34 0 -59.5 -15t-43 -39t-26 -54t-8.5 -60v-242h-76v365q0 15 -1.5 42.5t-3.5 52.5h74q1 -6 1.5 -17.5t1 -24t0.5 -26v-23.5h5q8 19 23 37.5t35 33t44.5 23.5t53.5 9q34 0 63 -9.5t50.5 -29.5t34 -52t12.5 -77v-304h-76 v303zM335 627q0 -27 -17 -44q-19 -16 -40 -16q-20 0 -38 16q-17 16 -17 44t17 42q16 15 38 15t40 -15q17 -15 17 -42z" />
<glyph unicode="&#x1e46;" horiz-adv-x="671" d="M161 0h-71v651h92l332 -573l-4 573h71v-651h-93l-332 570zM378 -155q0 -28 -17 -44t-40 -16q-21 0 -38 16t-17 44q0 26 17 41.5t38 15.5q23 0 40 -15.5t17 -41.5z" />
<glyph unicode="&#x1e47;" horiz-adv-x="558" d="M407 303q0 21 -6.5 40.5t-19 34t-32 23.5t-46.5 9q-34 0 -59.5 -15t-43 -39t-26 -54t-8.5 -60v-242h-76v365q0 15 -1.5 42.5t-3.5 52.5h74q1 -6 1.5 -17.5t1 -24t0.5 -26v-23.5h5q8 19 23 37.5t35 33t44.5 23.5t53.5 9q34 0 63 -9.5t50.5 -29.5t34 -52t12.5 -77v-304h-76 v303zM334 -155q0 -28 -17 -44t-40 -16q-21 0 -38 16t-17 44q0 26 17 41.5t38 15.5q23 0 40 -15.5t17 -41.5z" />
<glyph unicode="&#x1e52;" horiz-adv-x="705" d="M645 326q0 -79 -22 -142t-61 -106.5t-92.5 -66.5t-116.5 -23t-117 23t-93 66.5t-61 106.5t-22 142q0 80 22 142.5t61 106t93 66t117 22.5t116.5 -22.5t92.5 -66t61 -106t22 -142.5zM563 326q0 66 -15 117t-43 85t-66.5 51.5t-85.5 17.5t-85.5 -17.5t-67 -51.5t-44 -85 t-15.5 -117t15.5 -117t44 -85.5t67 -52t85.5 -17.5t85.5 17.5t66.5 52t43 85.5t15 117zM459 1010l41 -41l-145 -146l-41 41zM209 773h300v-55h-300v55z" />
<glyph unicode="&#x1e53;" horiz-adv-x="537" d="M488 230q0 -57 -16.5 -102t-45.5 -76t-69 -47.5t-88 -16.5t-88 16.5t-69.5 47.5t-46 76t-16.5 102t16.5 102t46 76t69.5 47.5t88 16.5t88 -16.5t69 -47.5t45.5 -76t16.5 -102zM411 230q0 89 -39.5 134t-102.5 45t-103 -45t-40 -134t40 -134t103 -45t102.5 45t39.5 134z M361 819l41 -41l-145 -146l-41 41zM121 583h300v-55h-300v55z" />
<glyph unicode="&#x1e5a;" horiz-adv-x="585" d="M169 326h122q43 0 71.5 9.5t45 27t23 42t6.5 55.5q0 58 -30 91.5t-105 33.5h-133v-259zM448 0l-123 260h-156v-260h-79v651h203q111 0 168 -50t57 -142q0 -38 -12.5 -69t-32 -54.5t-42 -38t-42.5 -20.5l141 -277h-82zM349 -155q0 -28 -17 -44t-40 -16q-21 0 -38 16 t-17 44q0 26 17 41.5t38 15.5q23 0 40 -15.5t17 -41.5z" />
<glyph unicode="&#x1e5b;" horiz-adv-x="342" d="M315 386q-10 2 -24 2q-58 0 -91.5 -42.5t-33.5 -114.5v-231h-76v375q0 17 -1.5 42t-3.5 43h72q2 -24 3.5 -51.5t1.5 -42.5h5q5 20 19 38.5t32.5 33t39.5 23.5t41 9q5 0 12 -0.5t9 -1.5zM185 -155q0 -28 -17 -44t-40 -16q-21 0 -38 16t-17 44q0 26 17 41.5t38 15.5 q23 0 40 -15.5t17 -41.5z" />
<glyph unicode="&#x1e5c;" horiz-adv-x="585" d="M169 326h122q43 0 71.5 9.5t45 27t23 42t6.5 55.5q0 58 -30 91.5t-105 33.5h-133v-259zM448 0l-123 260h-156v-260h-79v651h203q111 0 168 -50t57 -142q0 -38 -12.5 -69t-32 -54.5t-42 -38t-42.5 -20.5l141 -277h-82zM134 813h300v-55h-300v55zM349 -155q0 -28 -17 -44 t-40 -16q-21 0 -38 16t-17 44q0 26 17 41.5t38 15.5q23 0 40 -15.5t17 -41.5z" />
<glyph unicode="&#x1e5d;" horiz-adv-x="342" d="M315 386q-10 2 -24 2q-58 0 -91.5 -42.5t-33.5 -114.5v-231h-76v375q0 17 -1.5 42t-3.5 43h72q2 -24 3.5 -51.5t1.5 -42.5h5q5 20 19 38.5t32.5 33t39.5 23.5t41 9q5 0 12 -0.5t9 -1.5zM45 622h300v-55h-300v55zM184 -155q0 -28 -17 -44t-40 -16q-21 0 -38 16t-17 44 q0 26 17 41.5t38 15.5q23 0 40 -15.5t17 -41.5z" />
<glyph unicode="&#x1e6c;" horiz-adv-x="547" d="M30 651h487v-67h-204v-584h-79v584h-204v67zM329 -155q0 -28 -17 -44t-40 -16q-21 0 -38 16t-17 44q0 26 17 41.5t38 15.5q23 0 40 -15.5t17 -41.5z" />
<glyph unicode="&#x1e6d;" horiz-adv-x="372" d="M108 460v96l76 10v-106h138v-63h-138v-270q0 -16 2.5 -29.5t9.5 -24t20 -16.5t33 -6q23 0 35.5 4t24.5 12l13 -60q-15 -8 -35 -14t-46 -6q-58 0 -95.5 30t-37.5 99v281h-73v63h73zM255 -155q0 -28 -17 -44t-40 -16q-21 0 -38 16t-17 44q0 26 17 41.5t38 15.5 q23 0 40 -15.5t17 -41.5z" />
<glyph unicode="&#x1e80;" horiz-adv-x="901" d="M498 651l149 -602l142 602h75l-165 -651h-108l-144 611l-141 -611h-108l-166 651h76l142 -602l149 602h99zM488 798l-41 -41l-145 146l41 41z" />
<glyph unicode="&#x1e81;" horiz-adv-x="716" d="M410 460l102 -419l91 419h73l-117 -460h-96l-107 423l-103 -423h-94l-119 460h75l89 -417l102 417h104zM401 607l-41 -41l-145 146l41 41z" />
<glyph unicode="&#x1e82;" horiz-adv-x="901" d="M498 651l149 -602l142 602h75l-165 -651h-108l-144 611l-141 -611h-108l-166 651h76l142 -602l149 602h99zM545 944l41 -41l-145 -146l-41 41z" />
<glyph unicode="&#x1e83;" horiz-adv-x="716" d="M410 460l102 -419l91 419h73l-117 -460h-96l-107 423l-103 -423h-94l-119 460h75l89 -417l102 417h104zM460 753l41 -41l-145 -146l-41 41z" />
<glyph unicode="&#x1e84;" horiz-adv-x="901" d="M498 651l149 -602l142 602h75l-165 -651h-108l-144 611l-141 -611h-108l-166 651h76l142 -602l149 602h99zM402 813q0 -24 -16 -40q-17 -15 -40 -15q-24 0 -40 15q-15 15 -15 40q0 26 15 41q17 14 40 14t40 -14q16 -16 16 -41zM603 813q0 -24 -16 -40q-17 -15 -39 -15 q-25 0 -41 15q-15 15 -15 40q0 26 15 41q17 14 41 14q22 0 39 -14q16 -16 16 -41z" />
<glyph unicode="&#x1e85;" horiz-adv-x="716" d="M410 460l102 -419l91 419h73l-117 -460h-96l-107 423l-103 -423h-94l-119 460h75l89 -417l102 417h104zM313 622q0 -24 -16 -40q-17 -15 -40 -15q-24 0 -40 15q-15 15 -15 40q0 26 15 41q17 14 40 14t40 -14q16 -16 16 -41zM514 622q0 -24 -16 -40q-17 -15 -39 -15 q-25 0 -41 15q-15 15 -15 40q0 26 15 41q17 14 41 14q22 0 39 -14q16 -16 16 -41z" />
<glyph unicode="&#x1e9e;" horiz-adv-x="649" d="M85 418q0 109 58.5 171t184.5 62h221v-51l-30 -39l-143 -184v-4q46 0 87.5 -12.5t72.5 -36.5t49.5 -58.5t18.5 -79.5q0 -37 -12.5 -72.5t-39 -63.5t-68.5 -45t-100 -17q-33 0 -62 5t-50 12v74q18 -10 50 -18t65 -8q63 0 100.5 34t37.5 93q0 70 -48.5 101t-149.5 31 q-6 0 -11.5 -0.5t-10.5 -1.5t-10 -1l-10 42l33 44l146 191h-136q-36 0 -65.5 -10t-51.5 -31t-34 -52.5t-12 -74.5v-418h-80v418z" />
<glyph unicode="&#x1ef2;" horiz-adv-x="533" d="M10 651h78l177 -357l183 357h75l-219 -401v-250h-79v250zM319 798l-41 -41l-145 146l41 41z" />
<glyph unicode="&#x1ef3;" horiz-adv-x="473" d="M236 -180q-15 -44 -42 -62.5t-66 -18.5q-10 0 -27.5 2t-31.5 5l9 61q7 -2 18 -3t20 -1q26 0 42 12.5t22 32.5q3 11 8.5 30t11.5 39q6 23 14 49l-184 494h75l142 -414l128 414h73zM287 607l-41 -41l-145 146l41 41z" />
<glyph unicode="&#x2002;" horiz-adv-x="480" />
<glyph unicode="&#x2003;" horiz-adv-x="780" />
<glyph unicode="&#x2004;" horiz-adv-x="260" />
<glyph unicode="&#x2005;" horiz-adv-x="195" />
<glyph unicode="&#x2006;" horiz-adv-x="130" />
<glyph unicode="&#x2008;" horiz-adv-x="200" />
<glyph unicode="&#x2009;" horiz-adv-x="156" />
<glyph unicode="&#x200a;" horiz-adv-x="97" />
<glyph unicode="&#x200b;" horiz-adv-x="0" />
<glyph unicode="&#x2010;" horiz-adv-x="340" d="M30 259h280v-66h-280v66z" />
<glyph unicode="&#x2011;" horiz-adv-x="340" d="M30 259h280v-66h-280v66z" />
<glyph unicode="&#x2012;" horiz-adv-x="540" d="M10 259h520v-66h-520v66z" />
<glyph unicode="&#x2013;" horiz-adv-x="480" d="M10 259h460v-66h-460v66z" />
<glyph unicode="&#x2014;" horiz-adv-x="780" d="M10 259h760v-66h-760v66z" />
<glyph unicode="&#x2016;" horiz-adv-x="421" d="M90 -190v871h71v-871h-71zM260 -190v871h71v-871h-71z" />
<glyph unicode="&#x2018;" horiz-adv-x="200" d="M131.004 429.007h-75.9951v106.993q0 50.9971 21.999 83.4951q21.998 32.498 53.9961 46.4971l48.9971 -40.998q-19.999 -7.99902 -34.498 -29.498q-14.499 -21.498 -14.499 -59.4961v-106.993z" />
<glyph unicode="&#x2019;" horiz-adv-x="200" d="M69 651h76v-107q0 -51 -22 -83.5t-54 -46.5l-49 41q20 8 34.5 29.5t14.5 59.5v107z" />
<glyph unicode="&#x201a;" horiz-adv-x="200" d="M69 106h76v-107q0 -51 -22 -83.5t-54 -46.5l-49 41q20 8 34.5 29.5t14.5 59.5v107z" />
<glyph unicode="&#x201c;" horiz-adv-x="350" d="M131.004 429.007h-75.9951v106.993q0 50.9971 21.999 83.4951q21.998 32.498 53.9961 46.4971l48.9971 -40.998q-19.999 -7.99902 -34.498 -29.498q-14.499 -21.498 -14.499 -59.4961v-106.993zM281.004 429.007h-75.9951v106.993q0 50.9971 21.999 83.4951 q21.998 32.498 53.9961 46.4971l48.9971 -40.998q-19.999 -7.99902 -34.498 -29.498q-14.499 -21.498 -14.499 -59.4961v-106.993z" />
<glyph unicode="&#x201d;" horiz-adv-x="350" d="M69 651h76v-107q0 -51 -22 -83.5t-54 -46.5l-49 41q20 8 34.5 29.5t14.5 59.5v107zM219 651h76v-107q0 -51 -22 -83.5t-54 -46.5l-49 41q20 8 34.5 29.5t14.5 59.5v107z" />
<glyph unicode="&#x201e;" horiz-adv-x="350" d="M69 106h76v-107q0 -51 -22 -83.5t-54 -46.5l-49 41q20 8 34.5 29.5t14.5 59.5v107zM219 106h76v-107q0 -51 -22 -83.5t-54 -46.5l-49 41q20 8 34.5 29.5t14.5 59.5v107z" />
<glyph unicode="&#x2020;" horiz-adv-x="400" d="M20 515h144v166h71v-166h145v-62h-145v-483h-71v483h-144v62z" />
<glyph unicode="&#x2021;" horiz-adv-x="480" d="M60 515h144v166h71v-166h145v-62h-145v-256h145v-62h-145v-165h-71v165h-144v62h144v256h-144v62z" />
<glyph unicode="&#x2022;" horiz-adv-x="400" d="M310 262q0 -55 -32.5 -86.5t-77.5 -31.5q-20 0 -39.5 8t-35.5 23.5t-25.5 37.5t-9.5 49q0 24 9.5 44.5t25.5 35t35.5 22.5t39.5 8q22 0 42 -8t35 -22.5t24 -35t9 -44.5z" />
<glyph unicode="&#x2026;" horiz-adv-x="900" d="M792 53q0 -28 -17 -44t-40 -16q-21 0 -38 16t-17 44q0 26 17 41.5t38 15.5q23 0 40 -15.5t17 -41.5zM222 53q0 -28 -17 -44t-40 -16q-21 0 -38 16t-17 44q0 26 17 41.5t38 15.5q23 0 40 -15.5t17 -41.5zM502 53q0 -28 -17 -44t-40 -16q-21 0 -38 16t-17 44q0 26 17 41.5 t38 15.5q23 0 40 -15.5t17 -41.5z" />
<glyph unicode="&#x2030;" horiz-adv-x="1281" d="M298 0h-64l367 651h64zM204 658q81 0 124.5 -55.5t43.5 -158.5t-43.5 -158.5t-124.5 -55.5t-125 55.5t-44 158.5t44 158.5t125 55.5zM204 282q50 0 74 43.5t24 118.5t-24 118.5t-74 43.5q-51 0 -75 -43.5t-24 -118.5t24 -118.5t75 -43.5zM691 422q81 0 124.5 -55.5 t43.5 -158.5t-43.5 -158.5t-124.5 -55.5t-125 55.5t-44 158.5t44 158.5t125 55.5zM691 46q50 0 74 43.5t24 118.5t-24 118.5t-74 43.5q-51 0 -75 -43.5t-24 -118.5t24 -118.5t75 -43.5zM1078 422q81 0 124.5 -55.5t43.5 -158.5t-43.5 -158.5t-124.5 -55.5t-125 55.5 t-44 158.5t44 158.5t125 55.5zM1078 46q50 0 74 43.5t24 118.5t-24 118.5t-74 43.5q-51 0 -75 -43.5t-24 -118.5t24 -118.5t75 -43.5z" />
<glyph unicode="&#x2032;" horiz-adv-x="200" d="M95 651h70l-60 -255h-70z" />
<glyph unicode="&#x2033;" horiz-adv-x="330" d="M95 651h70l-60 -255h-70zM245 651h70l-60 -255h-70z" />
<glyph unicode="&#x2039;" horiz-adv-x="280" d="M152 36l-122 180l122 180h70l-110 -180l110 -180h-70z" />
<glyph unicode="&#x203a;" horiz-adv-x="280" d="M128 396l122 -180l-122 -180h-70l110 180l-110 180h70z" />
<glyph unicode="&#x2042;" horiz-adv-x="884" d="M409 681h67l-5 -145l3 -3l137 50l21 -64l-140 -40l-1 -3l89 -114l-54 -40l-82 121l-3 -1l-81 -120l-55 39l90 116l-2 2l-139 40l20 64l137 -50l3 3zM631 348h67l-5 -145l3 -3l137 50l21 -64l-140 -40l-1 -3l89 -114l-54 -40l-82 121l-3 -1l-81 -120l-55 39l90 116l-2 2 l-139 40l20 64l137 -50l3 3zM185 348h67l-5 -145l3 -3l137 50l21 -64l-140 -40l-1 -3l89 -114l-54 -40l-82 121l-3 -1l-81 -120l-55 39l90 116l-2 2l-139 40l20 64l137 -50l3 3z" />
<glyph unicode="&#x2044;" horiz-adv-x="231" d="M-36 0h-64l367 651h64z" />
<glyph unicode="&#x2070;" horiz-adv-x="380" d="M342 505q0 -84 -40 -133.5t-110 -49.5q-72 0 -113 49.5t-41 133.5q0 83 41 132t113 49q70 0 110 -49t40 -132zM280 504q0 60 -24 96t-66 36t-66.5 -36t-24.5 -96t24.5 -95.5t66.5 -35.5t66 35.5t24 95.5z" />
<glyph unicode="&#x2074;" horiz-adv-x="350" d="M176 680h91v-234h66v-48h-66v-68h-55v68h-179l-18 35l17 26zM212 638l-123 -192h123v192z" />
<glyph unicode="&#x2075;" horiz-adv-x="350" d="M118 544q11 5 29 8t36 3q24 0 46.5 -7.5t40 -21.5t28 -35.5t10.5 -49.5q0 -55 -40 -86.5t-101 -31.5q-49 0 -80.5 16.5t-46.5 36.5l40 43q10 -20 32 -36t54 -16q42 0 61.5 20.5t19.5 50.5q0 33 -20 53t-56 20q-22 0 -40.5 -8.5t-29.5 -17.5l-40 21l23 175h211v-47h-165z " />
<glyph unicode="&#x2076;" horiz-adv-x="350" d="M177 322q-37 0 -63.5 13t-43 35.5t-24.5 52.5t-8 66q0 31 6.5 65.5t23.5 64t48 48.5t79 19t76.5 -18.5t39.5 -36.5l-46 -31q-5 14 -22 28t-51 14q-28 0 -46 -12.5t-29 -32t-15.5 -42.5t-4.5 -44h3q11 20 34 33t60 13q30 0 53 -9.5t38.5 -25.5t23.5 -36.5t8 -42.5 q0 -19 -7.5 -40.5t-24 -39.5t-43.5 -29.5t-65 -11.5zM256 438q0 33 -21.5 53.5t-56.5 20.5q-15 0 -28.5 -5t-24.5 -14.5t-18 -22.5t-7 -29q0 -28 19.5 -51.5t57.5 -23.5q32 0 55.5 19t23.5 53z" />
<glyph unicode="&#x2077;" horiz-adv-x="320" d="M299 681v-40q-29 -32 -51 -70t-37.5 -78.5t-24.5 -82.5t-12 -81h-59q4 90 34.5 165t85.5 138h-212v49h276z" />
<glyph unicode="&#x2078;" horiz-adv-x="350" d="M236 516q30 -10 55.5 -32t25.5 -57q0 -51 -40.5 -78t-101.5 -27q-30 0 -56 7t-45.5 20t-30.5 32.5t-11 43.5q0 19 7 33.5t18 26t25.5 19t28.5 12.5q-24 10 -42 28.5t-18 48.5q0 37 34 65t90 28q25 0 47.5 -6.5t39.5 -18.5t27 -29t10 -37q0 -33 -19.5 -51.5t-43.5 -27.5z M109 589q0 -23 18.5 -38t47.5 -15q27 0 46.5 14t19.5 39t-19 39t-47 14q-29 0 -47.5 -14.5t-18.5 -38.5zM92 428q0 -30 23 -46t59 -16q35 0 59 15.5t24 46.5q0 29 -24 46.5t-59 17.5t-58.5 -17t-23.5 -47z" />
<glyph unicode="&#x2079;" horiz-adv-x="350" d="M173 686q37 0 63.5 -13t43 -35.5t24.5 -52.5t8 -66q0 -31 -6.5 -65.5t-23.5 -64t-48 -48.5t-79 -19t-76.5 18.5t-39.5 36.5l46 31q5 -14 22 -28t51 -14q28 0 46 12.5t29 32t15.5 42.5t4.5 44h-3q-11 -20 -34 -33t-60 -13q-30 0 -53 9.5t-38.5 25.5t-23.5 36.5t-8 42.5 q0 19 7.5 40.5t24 39.5t43.5 29.5t65 11.5zM94 570q0 -33 21.5 -53.5t56.5 -20.5q15 0 28.5 5t24.5 14.5t18 22.5t7 29q0 28 -19.5 51.5t-57.5 23.5q-32 0 -55.5 -19t-23.5 -53z" />
<glyph unicode="&#x207a;" horiz-adv-x="410" d="M48 529h129v130h56v-130h129v-50h-129v-130h-56v130h-129v50z" />
<glyph unicode="&#x207b;" horiz-adv-x="410" d="M48 529h314v-50h-314v50z" />
<glyph unicode="&#x207c;" horiz-adv-x="410" d="M48 579h314v-50h-314v50zM48 479h314v-50h-314v50z" />
<glyph unicode="&#x207d;" horiz-adv-x="200" d="M50 503q0 42 8.5 74.5t19.5 55.5q13 27 29 46h58q-14 -23 -25 -51q-10 -24 -17.5 -56t-7.5 -69t7.5 -68.5t17.5 -56.5q11 -28 25 -49h-58q-16 18 -29 45q-11 23 -19.5 55.5t-8.5 73.5z" />
<glyph unicode="&#x207e;" horiz-adv-x="200" d="M150 505q0 -42 -8.5 -74.5t-19.5 -55.5q-13 -27 -29 -46h-58q14 23 25 51q10 24 17.5 56t7.5 69t-7.5 68.5t-17.5 56.5q-11 28 -25 49h58q16 -18 29 -45q11 -23 19.5 -55.5t8.5 -73.5z" />
<glyph unicode="&#x2080;" horiz-adv-x="380" d="M342 26q0 -84 -40 -133.5t-110 -49.5q-72 0 -113 49.5t-41 133.5q0 83 41 132t113 49q70 0 110 -49t40 -132zM280 25q0 60 -24 96t-66 36t-66.5 -36t-24.5 -96t24.5 -95.5t66.5 -35.5t66 35.5t24 95.5z" />
<glyph unicode="&#x2081;" horiz-adv-x="350" d="M41 -101h108v225q-11 -7 -36.5 -11.5t-57.5 -4.5l-6 48q25 0 42 3.5t32.5 9.5t28 14.5t18.5 17.5h38v-302h103v-48h-270v48z" />
<glyph unicode="&#x2082;" horiz-adv-x="350" d="M53 79q-5 18 -5 31q0 21 9.5 38.5t25.5 30.5t38 20.5t47 7.5t47.5 -7t40 -20t27.5 -33t10 -45q0 -34 -12.5 -61.5t-33.5 -51.5t-49 -44.5t-59 -41.5h171v-52h-266v38q36 22 70 47.5t60.5 52.5t43 54t16.5 52q0 23 -15.5 43t-52.5 20q-28 0 -46 -16.5t-18 -42.5 q0 -15 5 -37z" />
<glyph unicode="&#x2083;" horiz-adv-x="350" d="M40 150q14 25 46.5 41t79.5 16q59 0 88.5 -26t29.5 -59q0 -24 -10.5 -39t-22.5 -23q-15 -10 -33 -14q24 -5 43 -16q17 -10 30.5 -28.5t13.5 -50.5q0 -27 -13 -47.5t-33 -34t-44 -20t-45 -6.5q-21 -1 -46 4t-41.5 13t-31.5 18t-21 20l40 46q8 -18 32.5 -36.5t58.5 -18.5 q16 0 31 3.5t27 10.5t19.5 18.5t7.5 28.5q0 29 -17.5 44.5t-62.5 15.5q-7 0 -17.5 -1t-20.5 -2q-12 -2 -25 -3l2 54q5 -1 20.5 -1.5t20.5 -0.5q32 0 55.5 12t23.5 47q0 19 -16.5 33t-53.5 14q-36 0 -55.5 -14.5t-28.5 -37.5z" />
<glyph unicode="&#x2084;" horiz-adv-x="350" d="M176 201h91v-234h66v-48h-66v-68h-55v68h-179l-18 35l17 26zM212 159l-123 -192h123v192z" />
<glyph unicode="&#x2085;" horiz-adv-x="350" d="M118 65q11 5 29 8t36 3q24 0 46.5 -7.5t40 -21.5t28 -35.5t10.5 -49.5q0 -55 -40 -86.5t-101 -31.5q-49 0 -80.5 16.5t-46.5 36.5l40 43q10 -20 32 -36t54 -16q42 0 61.5 20.5t19.5 50.5q0 33 -20 53t-56 20q-22 0 -40.5 -8.5t-29.5 -17.5l-40 21l23 175h211v-47h-165z " />
<glyph unicode="&#x2086;" horiz-adv-x="350" d="M177 -157q-37 0 -63.5 13t-43 35.5t-24.5 52.5t-8 66q0 31 6.5 65.5t23.5 64t48 48.5t79 19t76.5 -18.5t39.5 -36.5l-46 -31q-5 14 -22 28t-51 14q-28 0 -46 -12.5t-29 -32t-15.5 -42.5t-4.5 -44h3q11 20 34 33t60 13q30 0 53 -9.5t38.5 -25.5t23.5 -36.5t8 -42.5 q0 -19 -7.5 -40.5t-24 -39.5t-43.5 -29.5t-65 -11.5zM256 -41q0 33 -21.5 53.5t-56.5 20.5q-15 0 -28.5 -5t-24.5 -14.5t-18 -22.5t-7 -29q0 -28 19.5 -51.5t57.5 -23.5q32 0 55.5 19t23.5 53z" />
<glyph unicode="&#x2087;" horiz-adv-x="320" d="M299 202v-40q-29 -32 -51 -70t-37.5 -78.5t-24.5 -82.5t-12 -81h-59q4 90 34.5 165t85.5 138h-212v49h276z" />
<glyph unicode="&#x2088;" horiz-adv-x="350" d="M236 37q30 -10 55.5 -32t25.5 -57q0 -51 -40.5 -78t-101.5 -27q-30 0 -56 7t-45.5 20t-30.5 32.5t-11 43.5q0 19 7 33.5t18 26t25.5 19t28.5 12.5q-24 10 -42 28.5t-18 48.5q0 37 34 65t90 28q25 0 47.5 -6.5t39.5 -18.5t27 -29t10 -37q0 -33 -19.5 -51.5t-43.5 -27.5z M109 110q0 -23 18.5 -38t47.5 -15q27 0 46.5 14t19.5 39t-19 39t-47 14q-29 0 -47.5 -14.5t-18.5 -38.5zM92 -51q0 -30 23 -46t59 -16q35 0 59 15.5t24 46.5q0 29 -24 46.5t-59 17.5t-58.5 -17t-23.5 -47z" />
<glyph unicode="&#x2089;" horiz-adv-x="350" d="M173 207q37 0 63.5 -13t43 -35.5t24.5 -52.5t8 -66q0 -31 -6.5 -65.5t-23.5 -64t-48 -48.5t-79 -19t-76.5 18.5t-39.5 36.5l46 31q5 -14 22 -28t51 -14q28 0 46 12.5t29 32t15.5 42.5t4.5 44h-3q-11 -20 -34 -33t-60 -13q-30 0 -53 9.5t-38.5 25.5t-23.5 36.5t-8 42.5 q0 19 7.5 40.5t24 39.5t43.5 29.5t65 11.5zM94 91q0 -33 21.5 -53.5t56.5 -20.5q15 0 28.5 5t24.5 14.5t18 22.5t7 29q0 28 -19.5 51.5t-57.5 23.5q-32 0 -55.5 -19t-23.5 -53z" />
<glyph unicode="&#x208a;" horiz-adv-x="410" d="M48 50h129v130h56v-130h129v-50h-129v-130h-56v130h-129v50z" />
<glyph unicode="&#x208b;" horiz-adv-x="410" d="M48 50h314v-50h-314v50z" />
<glyph unicode="&#x208c;" horiz-adv-x="410" d="M48 100h314v-50h-314v50zM48 0h314v-50h-314v50z" />
<glyph unicode="&#x208d;" horiz-adv-x="200" d="M50 24q0 42 8.5 74.5t19.5 55.5q13 27 29 46h58q-14 -23 -25 -51q-10 -24 -17.5 -56t-7.5 -69t7.5 -68.5t17.5 -56.5q11 -28 25 -49h-58q-16 18 -29 45q-11 23 -19.5 55.5t-8.5 73.5z" />
<glyph unicode="&#x208e;" horiz-adv-x="200" d="M150 26q0 -42 -8.5 -74.5t-19.5 -55.5q-13 -27 -29 -46h-58q14 23 25 51q10 24 17.5 56t7.5 69t-7.5 68.5t-17.5 56.5q-11 28 -25 49h58q16 -18 29 -45q11 -23 19.5 -55.5t8.5 -73.5z" />
<glyph unicode="&#x2090;" horiz-adv-x="385" d="M45 132q45 73 137 73q36 0 61.5 -9t41 -25t22.5 -37.5t7 -47.5v-139q0 -26 6 -34t19 -8q10 0 18 5l3 -52q-5 -4 -13 -6.5t-23 -2.5q-25 0 -42 16.5t-20 41.5q-16 -28 -46 -46.5t-66 -18.5q-45 0 -75 24t-30 68q0 28 12.5 46.5t37 31t67.5 17.5l91 13v38q0 34 -17.5 53.5 t-55.5 19.5q-57 0 -81 -47zM163 -108q20 0 37 6.5t28.5 17.5t18 24.5t6.5 28.5v27q-12 -2 -32 -4.5t-39 -5.5q-16 -2 -30 -5t-24 -9q-20 -11 -20 -37q0 -23 17.5 -33t37.5 -10z" />
<glyph unicode="&#x2091;" horiz-adv-x="386" d="M102 17q1 -63 30 -93.5t74 -30.5q24 0 39.5 7.5t25.5 16.5q11 9 18 23l56 -26q-11 -20 -29 -35q-17 -15 -43.5 -26t-64.5 -11q-44 0 -75.5 14t-52.5 39t-30.5 58t-9.5 70q0 42 12 76.5t34 57.5t52.5 35.5t67.5 12.5q36 0 63.5 -12.5t45.5 -35t27 -53t9 -66.5v-10.5 t-1 -10.5h-248zM202 153q-42 0 -67.5 -24t-29.5 -62h180v6q0 14 -5 28.5t-14.5 26.5t-25 18.5t-38.5 6.5z" />
<glyph unicode="&#x2092;" horiz-adv-x="414" d="M374 23q0 -42 -12.5 -76t-34.5 -57t-52.5 -35.5t-66.5 -12.5q-37 0 -67.5 12.5t-53 35.5t-35 57t-12.5 76q0 43 12.5 77t35 57t53 35.5t67.5 12.5q36 0 66.5 -12.5t52.5 -35.5t34.5 -57t12.5 -77zM311 23q0 65 -29 97.5t-75 32.5q-45 0 -74.5 -32.5t-29.5 -97.5 q0 -64 29.5 -96.5t74.5 -32.5q46 0 75 32.5t29 96.5z" />
<glyph unicode="&#x2093;" horiz-adv-x="366" d="M182 59l86 140h69l-113 -170l117 -175h-71l-88 146l-86 -146h-71l117 175l-113 170h69z" />
<glyph unicode="&#x2094;" horiz-adv-x="386" d="M284 35q0 61 -27 90t-78 29q-23 0 -41.5 -7t-26.5 -16q-11 -9 -19 -24l-56 26q10 18 29 34q16 15 46.5 26.5t68.5 11.5q46 0 77.5 -15t51 -40t28.5 -59t9 -71q0 -86 -45.5 -132t-118.5 -46q-36 0 -64 13.5t-47.5 36.5t-29.5 54.5t-10 67.5v10.5t1 10.5h252zM184 -106 q43 0 70.5 24t29.5 67h-187v-6q0 -15 5.5 -30t16 -27t27 -20t38.5 -8z" />
<glyph unicode="&#x20ac;" horiz-adv-x="620" d="M55 424h71q13 58 41 102.5t65.5 75t82.5 46t94 15.5q57 0 99 -13t65 -31l-22 -66q-22 18 -61 31t-86 13q-77 0 -126.5 -46t-69.5 -127h304l-19 -61h-294q-1 -11 -1.5 -21.5t-0.5 -21.5v-17t1 -16h272l-20 -61h-243q20 -83 74 -127.5t132 -44.5q54 0 93 14t61 34v-79 q-27 -14 -68.5 -24.5t-91.5 -10.5q-49 0 -94.5 15t-83 45t-65 74.5t-40.5 103.5h-89l20 61h61q-1 8 -1 16v17q0 11 0.5 21.5t1.5 21.5h-82z" />
<glyph unicode="&#x2122;" horiz-adv-x="550" d="M519 651v-253h-54v178l-46 -130h-57l-46 130v-178h-54v253h74l55 -154l54 154h74zM224 605h-70v-207h-54v207h-70v46h194v-46z" />
<glyph unicode="&#x2153;" horiz-adv-x="800" d="M249 0h-64l367 651h64zM40 350h108v225q-11 -7 -36.5 -11.5t-57.5 -4.5l-6 48q25 0 42 3.5t32.5 9.5t28 14.5t18.5 17.5h38v-302h103v-48h-270v48zM490 299q14 25 46.5 41t79.5 16q59 0 88.5 -26t29.5 -59q0 -24 -10.5 -39t-22.5 -23q-15 -10 -33 -14q24 -5 43 -16 q17 -10 30.5 -28.5t13.5 -50.5q0 -27 -13 -47.5t-33 -34t-44 -20t-45 -6.5q-21 -1 -46 4t-41.5 13t-31.5 18t-21 20l40 46q8 -18 32.5 -36.5t58.5 -18.5q16 0 31 3.5t27 10.5t19.5 18.5t7.5 28.5q0 29 -17.5 44.5t-62.5 15.5q-7 0 -17.5 -1t-20.5 -2q-12 -2 -25 -3l2 54 q5 -1 20.5 -1.5t20.5 -0.5q32 0 55.5 12t23.5 47q0 19 -16.5 33t-53.5 14q-36 0 -55.5 -14.5t-28.5 -37.5z" />
<glyph unicode="&#x2154;" horiz-adv-x="800" d="M249 0h-64l367 651h64zM490 299q14 25 46.5 41t79.5 16q59 0 88.5 -26t29.5 -59q0 -24 -10.5 -39t-22.5 -23q-15 -10 -33 -14q24 -5 43 -16q17 -10 30.5 -28.5t13.5 -50.5q0 -27 -13 -47.5t-33 -34t-44 -20t-45 -6.5q-21 -1 -46 4t-41.5 13t-31.5 18t-21 20l40 46 q8 -18 32.5 -36.5t58.5 -18.5q16 0 31 3.5t27 10.5t19.5 18.5t7.5 28.5q0 29 -17.5 44.5t-62.5 15.5q-7 0 -17.5 -1t-20.5 -2q-12 -2 -25 -3l2 54q5 -1 20.5 -1.5t20.5 -0.5q32 0 55.5 12t23.5 47q0 19 -16.5 33t-53.5 14q-36 0 -55.5 -14.5t-28.5 -37.5zM49 530 q-5 18 -5 31q0 21 9.5 38.5t25.5 30.5t38 20.5t47 7.5t47.5 -7t40 -20t27.5 -33t10 -45q0 -34 -12.5 -61.5t-33.5 -51.5t-49 -44.5t-59 -41.5h171v-52h-266v38q36 22 70 47.5t60.5 52.5t43 54t16.5 52q0 23 -15.5 43t-52.5 20q-28 0 -46 -16.5t-18 -42.5q0 -15 5 -37z" />
<glyph unicode="&#x2155;" horiz-adv-x="800" d="M249 0h-64l367 651h64zM40 350h108v225q-11 -7 -36.5 -11.5t-57.5 -4.5l-6 48q25 0 42 3.5t32.5 9.5t28 14.5t18.5 17.5h38v-302h103v-48h-270v48zM561 213q11 5 29 8t36 3q24 0 46.5 -7.5t40 -21.5t28 -35.5t10.5 -49.5q0 -55 -40 -86.5t-101 -31.5q-49 0 -80.5 16.5 t-46.5 36.5l40 43q10 -20 32 -36t54 -16q42 0 61.5 20.5t19.5 50.5q0 33 -20 53t-56 20q-22 0 -40.5 -8.5t-29.5 -17.5l-40 21l23 175h211v-47h-165z" />
<glyph unicode="&#x2156;" horiz-adv-x="800" d="M249 0h-64l367 651h64zM561 213q11 5 29 8t36 3q24 0 46.5 -7.5t40 -21.5t28 -35.5t10.5 -49.5q0 -55 -40 -86.5t-101 -31.5q-49 0 -80.5 16.5t-46.5 36.5l40 43q10 -20 32 -36t54 -16q42 0 61.5 20.5t19.5 50.5q0 33 -20 53t-56 20q-22 0 -40.5 -8.5t-29.5 -17.5l-40 21 l23 175h211v-47h-165zM49 530q-5 18 -5 31q0 21 9.5 38.5t25.5 30.5t38 20.5t47 7.5t47.5 -7t40 -20t27.5 -33t10 -45q0 -34 -12.5 -61.5t-33.5 -51.5t-49 -44.5t-59 -41.5h171v-52h-266v38q36 22 70 47.5t60.5 52.5t43 54t16.5 52q0 23 -15.5 43t-52.5 20q-28 0 -46 -16.5 t-18 -42.5q0 -15 5 -37z" />
<glyph unicode="&#x2157;" horiz-adv-x="800" d="M249 0h-64l367 651h64zM561 213q11 5 29 8t36 3q24 0 46.5 -7.5t40 -21.5t28 -35.5t10.5 -49.5q0 -55 -40 -86.5t-101 -31.5q-49 0 -80.5 16.5t-46.5 36.5l40 43q10 -20 32 -36t54 -16q42 0 61.5 20.5t19.5 50.5q0 33 -20 53t-56 20q-22 0 -40.5 -8.5t-29.5 -17.5l-40 21 l23 175h211v-47h-165zM47 601q14 25 46.5 41t79.5 16q59 0 88.5 -26t29.5 -59q0 -24 -10.5 -39t-22.5 -23q-15 -10 -33 -14q24 -5 43 -16q17 -10 30.5 -28.5t13.5 -50.5q0 -27 -13 -47.5t-33 -34t-44 -20t-45 -6.5q-21 -1 -46 4t-41.5 13t-31.5 18t-21 20l40 46 q8 -18 32.5 -36.5t58.5 -18.5q16 0 31 3.5t27 10.5t19.5 18.5t7.5 28.5q0 29 -17.5 44.5t-62.5 15.5q-7 0 -17.5 -1t-20.5 -2q-12 -2 -25 -3l2 54q5 -1 20.5 -1.5t20.5 -0.5q32 0 55.5 12t23.5 47q0 19 -16.5 33t-53.5 14q-36 0 -55.5 -14.5t-28.5 -37.5z" />
<glyph unicode="&#x2158;" horiz-adv-x="800" d="M249 0h-64l367 651h64zM561 213q11 5 29 8t36 3q24 0 46.5 -7.5t40 -21.5t28 -35.5t10.5 -49.5q0 -55 -40 -86.5t-101 -31.5q-49 0 -80.5 16.5t-46.5 36.5l40 43q10 -20 32 -36t54 -16q42 0 61.5 20.5t19.5 50.5q0 33 -20 53t-56 20q-22 0 -40.5 -8.5t-29.5 -17.5l-40 21 l23 175h211v-47h-165zM176 652h91v-234h66v-48h-66v-68h-55v68h-179l-18 35l17 26zM212 610l-123 -192h123v192z" />
<glyph unicode="&#x2159;" horiz-adv-x="800" d="M249 0h-64l367 651h64zM41 350h108v225q-11 -7 -36.5 -11.5t-57.5 -4.5l-6 48q25 0 42 3.5t32.5 9.5t28 14.5t18.5 17.5h38v-302h103v-48h-270v48zM617 -8q-37 0 -63.5 13t-43 35.5t-24.5 52.5t-8 66q0 31 6.5 65.5t23.5 64t48 48.5t79 19t76.5 -18.5t39.5 -36.5l-46 -31 q-5 14 -22 28t-51 14q-28 0 -46 -12.5t-29 -32t-15.5 -42.5t-4.5 -44h3q11 20 34 33t60 13q30 0 53 -9.5t38.5 -25.5t23.5 -36.5t8 -42.5q0 -19 -7.5 -40.5t-24 -39.5t-43.5 -29.5t-65 -11.5zM696 108q0 33 -21.5 53.5t-56.5 20.5q-15 0 -28.5 -5t-24.5 -14.5t-18 -22.5 t-7 -29q0 -28 19.5 -51.5t57.5 -23.5q32 0 55.5 19t23.5 53z" />
<glyph unicode="&#x215a;" horiz-adv-x="800" d="M249 0h-64l367 651h64zM617 -8q-37 0 -63.5 13t-43 35.5t-24.5 52.5t-8 66q0 31 6.5 65.5t23.5 64t48 48.5t79 19t76.5 -18.5t39.5 -36.5l-46 -31q-5 14 -22 28t-51 14q-28 0 -46 -12.5t-29 -32t-15.5 -42.5t-4.5 -44h3q11 20 34 33t60 13q30 0 53 -9.5t38.5 -25.5 t23.5 -36.5t8 -42.5q0 -19 -7.5 -40.5t-24 -39.5t-43.5 -29.5t-65 -11.5zM696 108q0 33 -21.5 53.5t-56.5 20.5q-15 0 -28.5 -5t-24.5 -14.5t-18 -22.5t-7 -29q0 -28 19.5 -51.5t57.5 -23.5q32 0 55.5 19t23.5 53zM117 515q11 5 29 8t36 3q24 0 46.5 -7.5t40 -21.5t28 -35.5 t10.5 -49.5q0 -55 -40 -86.5t-101 -31.5q-49 0 -80.5 16.5t-46.5 36.5l40 43q10 -20 32 -36t54 -16q42 0 61.5 20.5t19.5 50.5q0 33 -20 53t-56 20q-22 0 -40.5 -8.5t-29.5 -17.5l-40 21l23 175h211v-47h-165z" />
<glyph unicode="&#x215b;" horiz-adv-x="800" d="M249 0h-64l367 651h64zM41 350h108v225q-11 -7 -36.5 -11.5t-57.5 -4.5l-6 48q25 0 42 3.5t32.5 9.5t28 14.5t18.5 17.5h38v-302h103v-48h-270v48zM673 186q30 -10 55.5 -32t25.5 -57q0 -51 -40.5 -78t-101.5 -27q-30 0 -56 7t-45.5 20t-30.5 32.5t-11 43.5q0 19 7 33.5 t18 26t25.5 19t28.5 12.5q-24 10 -42 28.5t-18 48.5q0 37 34 65t90 28q25 0 47.5 -6.5t39.5 -18.5t27 -29t10 -37q0 -33 -19.5 -51.5t-43.5 -27.5zM546 259q0 -23 18.5 -38t47.5 -15q27 0 46.5 14t19.5 39t-19 39t-47 14q-29 0 -47.5 -14.5t-18.5 -38.5zM529 98 q0 -30 23 -46t59 -16q35 0 59 15.5t24 46.5q0 29 -24 46.5t-59 17.5t-58.5 -17t-23.5 -47z" />
<glyph unicode="&#x215c;" horiz-adv-x="800" d="M249 0h-64l367 651h64zM673 186q30 -10 55.5 -32t25.5 -57q0 -51 -40.5 -78t-101.5 -27q-30 0 -56 7t-45.5 20t-30.5 32.5t-11 43.5q0 19 7 33.5t18 26t25.5 19t28.5 12.5q-24 10 -42 28.5t-18 48.5q0 37 34 65t90 28q25 0 47.5 -6.5t39.5 -18.5t27 -29t10 -37 q0 -33 -19.5 -51.5t-43.5 -27.5zM546 259q0 -23 18.5 -38t47.5 -15q27 0 46.5 14t19.5 39t-19 39t-47 14q-29 0 -47.5 -14.5t-18.5 -38.5zM529 98q0 -30 23 -46t59 -16q35 0 59 15.5t24 46.5q0 29 -24 46.5t-59 17.5t-58.5 -17t-23.5 -47zM47 601q14 25 46.5 41t79.5 16 q59 0 88.5 -26t29.5 -59q0 -24 -10.5 -39t-22.5 -23q-15 -10 -33 -14q24 -5 43 -16q17 -10 30.5 -28.5t13.5 -50.5q0 -27 -13 -47.5t-33 -34t-44 -20t-45 -6.5q-21 -1 -46 4t-41.5 13t-31.5 18t-21 20l40 46q8 -18 32.5 -36.5t58.5 -18.5q16 0 31 3.5t27 10.5t19.5 18.5 t7.5 28.5q0 29 -17.5 44.5t-62.5 15.5q-7 0 -17.5 -1t-20.5 -2q-12 -2 -25 -3l2 54q5 -1 20.5 -1.5t20.5 -0.5q32 0 55.5 12t23.5 47q0 19 -16.5 33t-53.5 14q-36 0 -55.5 -14.5t-28.5 -37.5z" />
<glyph unicode="&#x215d;" horiz-adv-x="800" d="M249 0h-64l367 651h64zM673 186q30 -10 55.5 -32t25.5 -57q0 -51 -40.5 -78t-101.5 -27q-30 0 -56 7t-45.5 20t-30.5 32.5t-11 43.5q0 19 7 33.5t18 26t25.5 19t28.5 12.5q-24 10 -42 28.5t-18 48.5q0 37 34 65t90 28q25 0 47.5 -6.5t39.5 -18.5t27 -29t10 -37 q0 -33 -19.5 -51.5t-43.5 -27.5zM546 259q0 -23 18.5 -38t47.5 -15q27 0 46.5 14t19.5 39t-19 39t-47 14q-29 0 -47.5 -14.5t-18.5 -38.5zM529 98q0 -30 23 -46t59 -16q35 0 59 15.5t24 46.5q0 29 -24 46.5t-59 17.5t-58.5 -17t-23.5 -47zM117 515q11 5 29 8t36 3 q24 0 46.5 -7.5t40 -21.5t28 -35.5t10.5 -49.5q0 -55 -40 -86.5t-101 -31.5q-49 0 -80.5 16.5t-46.5 36.5l40 43q10 -20 32 -36t54 -16q42 0 61.5 20.5t19.5 50.5q0 33 -20 53t-56 20q-22 0 -40.5 -8.5t-29.5 -17.5l-40 21l23 175h211v-47h-165z" />
<glyph unicode="&#x215e;" horiz-adv-x="800" d="M249 0h-64l367 651h64zM673 186q30 -10 55.5 -32t25.5 -57q0 -51 -40.5 -78t-101.5 -27q-30 0 -56 7t-45.5 20t-30.5 32.5t-11 43.5q0 19 7 33.5t18 26t25.5 19t28.5 12.5q-24 10 -42 28.5t-18 48.5q0 37 34 65t90 28q25 0 47.5 -6.5t39.5 -18.5t27 -29t10 -37 q0 -33 -19.5 -51.5t-43.5 -27.5zM546 259q0 -23 18.5 -38t47.5 -15q27 0 46.5 14t19.5 39t-19 39t-47 14q-29 0 -47.5 -14.5t-18.5 -38.5zM529 98q0 -30 23 -46t59 -16q35 0 59 15.5t24 46.5q0 29 -24 46.5t-59 17.5t-58.5 -17t-23.5 -47zM319 652v-40q-29 -32 -51 -70 t-37.5 -78.5t-24.5 -82.5t-12 -81h-59q4 90 34.5 165t85.5 138h-212v49h276z" />
<glyph unicode="&#x215f;" horiz-adv-x="800" d="M249 0h-64l367 651h64zM41 350h108v225q-11 -7 -36.5 -11.5t-57.5 -4.5l-6 48q25 0 42 3.5t32.5 9.5t28 14.5t18.5 17.5h38v-302h103v-48h-270v48z" />
<glyph unicode="&#x2190;" horiz-adv-x="700" d="M298 506l40 -47l-178 -170h485v-66h-485l178 -170l-40 -47l-250 250z" />
<glyph unicode="&#x2191;" d="M550 296l-48 -40l-169 177v-484h-67v484l-169 -177l-47 40l250 250z" />
<glyph unicode="&#x2192;" horiz-adv-x="700" d="M402.019 6.03125l-39.998 46.9971l177.989 169.989h-484.971v65.9961h484.971l-177.989 169.989l39.998 46.9971l249.984 -249.984z" />
<glyph unicode="&#x2193;" d="M550 199.018l-48 39.998l-169 -176.989v483.971h-67v-483.971l-169 176.989l-47 -39.998l250 -249.984z" />
<glyph unicode="&#x2212;" horiz-adv-x="510" d="M60 257h390v-62h-390v62z" />
<glyph unicode="&#x25a0;" horiz-adv-x="800" d="M90 651h620v-651h-620v651z" />
<glyph unicode="&#x25a1;" horiz-adv-x="800" d="M90 651h620v-651h-620v651zM169 66h462v519h-462v-519z" />
<glyph unicode="&#x25fb;" horiz-adv-x="680" d="M90 537h500v-537h-500v537zM168 64h344v409h-344v-409z" />
<glyph unicode="&#x25fc;" horiz-adv-x="680" d="M90 537h500v-537h-500v537z" />
<glyph unicode="&#x261c;" horiz-adv-x="1201" d="M858.021 470q-3.99902 0 -8.99902 -5.5t-12.999 -5.5q-7 0 -28.498 7q-21.499 7 -46.9971 15.5q-25.499 8.5 -49.9971 15.5q-24.499 7 -34.498 10q-10 3 -22.999 7.5t-29.498 9.5t-33.998 9t-30.498 4q-24.998 0 -72.4951 -9t-105.494 -9q-9.99902 0 -24.498 -3.5 t-30.498 -8t-31.998 -8.5t-29.998 -6q-14 -2 -38.498 -7.5q-24.499 -5.5 -50.9971 -12.5t-49.4971 -13.5q-22.998 -6.5 -32.998 -9.5q-9.99902 -3 -20.998 -7q-11 -4 -19.999 -8.5q-9 -4.5 -14.999 -9.5q-6 -5 -6 -10q0 -26 25.999 -34.5q25.998 -8.5 66.9951 -8.5 q81.9951 0 105.994 13h50.9971q16.998 0 35.9971 3t37.498 7t33.498 7t22.998 3h21.999q10.999 13 27.498 31t34.998 34t36.998 27t31.498 11q6 0 10.999 -2l10 -4l9.99902 -5v-5h-28.998q-10 0 -25.499 -9.5t-32.498 -24t-32.998 -30t-27.998 -27.5t-24.998 -26.5 t-22.999 -28.5q-9.99902 -14 -16.499 -27.5q-6.49902 -13.5 -6.49902 -24.5t4.99902 -19q5 -8 11.5 -13.5q6.49902 -5.5 13.499 -8.5q6.99902 -3 9.99902 -3q7 0 14.999 20.5q8 20.5 29.998 62.5q21.999 42 41.998 68.5q19.998 26.5 27.998 26.5q7 0 16.999 -4 q4 -2 8.99902 -4v-4h-13.999q-8.99902 0 -20.999 -14q-11.999 -14 -25.998 -36t-27.498 -48t-24.499 -50q-10.999 -24 -17.499 -42.5q-6.49902 -18.5 -6.49902 -24.5q0 -19 15.499 -27.5t30.498 -8.5q7 0 11.499 30.5q4.5 30.5 20.499 78.5t31.498 65.5t24.498 17.5 q5 0 8.5 -0.5t5.5 -0.5q2.99902 -1 4.99902 -1v-5h-9.99902q-9.99902 0 -20.499 -14.5q-10.499 -14.5 -19.499 -36q-8.99902 -21.5 -16.998 -47q-8 -25.5 -13.5 -48q-5.49902 -22.5 -8.99902 -38t-3.5 -17.5q0 -3 3 -8.5t7.99902 -10.5q5 -5 10.5 -8.5 q5.49902 -3.5 11.499 -3.5h71.9961q26.998 0 37.4971 12.5q10.5 12.5 10.5 23.5v26q0 4 -6 9.5t-13.499 10q-7.5 4.5 -14.999 7.5q-7.5 3 -9.5 3t-3.99902 -3.5q-2 -3.5 -4 -7.5t-4 -7.5t-3 -3.5q-4.99902 0 -4.99902 4q0 2 1.49902 8q1.5 6 4 12.5t5.5 11.5t6.99902 5 q8 0 19.999 -8t40.998 -22q28.998 -14 57.4961 -20.5t64.4961 -6.5t64.4961 2.5t47.4971 5.5v82q0 23 -2.5 57.5t-5.5 66.5q-3.99902 37 -8.99902 76h73.9951q8 -28 14 -59q4.99902 -26 9.49902 -58t4.5 -64t-1 -63t-2 -57t-2.5 -46.5t-3.5 -32.5h-3.99902 q2.99902 23 4.99902 75t2 114h-6q0 -17 -0.5 -42q-0.499023 -25 -2.49902 -54h-5v77h-6v-35q0 -14 -0.5 -28t-1.5 -22h-3.99902v73h-5v-15v-22t-0.5 -23t-1.5 -18h-4v65h-4.99902q0 -35 -3 -62h-4v60h-5q0 -13 -1.49902 -31.5q-1.5 -18.5 -2.5 -26.5h-5q0 2 0.5 9t1 16 t0.5 18.5v16.5h-7q0 -58 -8.99902 -90.5q-9 -32.5 -10.999 -40.5h-4q1 3 3 12q1.99902 9 3.99902 20t3.5 21t1.5 16l-60.9961 -6q0 -37 11.499 -63.5t22.499 -44.5h96.9941l-2 -10h-37.998q0 -15 7.5 -28q7.49902 -13 19.498 -13h153.991q9.99902 26 17.999 59 q6.99902 29 11.999 70.5t5 95.5t-6 101t-13.999 82q-9 41 -20.999 75h-147.991q-7.99902 0 -20.998 -5t-17.999 -8h-39.998zM106.066 441q-4.99902 -5 -13.499 -10.5q-8.49902 -5.5 -14.499 -7.5l-2 3q7 3 14.499 8.5q7.5 5.5 10.5 7.5zM915.018 112q7.99902 0 15.999 -4 q7.99902 -4 7.99902 -15q0 -16 -13.999 -24t-28.998 -8q-15.999 0 -15.999 19q0 14 11.499 23q11.5 9 23.499 9z" />
<glyph unicode="&#x261e;" horiz-adv-x="1201" d="M343 470q4 0 9 -5.5t13 -5.5q7 0 28.5 7t47 15.5t50 15.5t34.5 10t23 7.5t29.5 9.5t34 9t30.5 4q25 0 72.5 -9t105.5 -9q10 0 24.5 -3.5t30.5 -8t32 -8.5t30 -6t38.5 -7.5t51 -12.5t49.5 -13.5t33 -9.5t21 -7t20 -8.5t15 -9.5t6 -10q0 -26 -26 -34.5t-67 -8.5 q-82 0 -106 13h-51q-17 0 -36 3t-37.5 7t-33.5 7t-23 3h-22q-11 13 -27.5 31t-35 34t-37 27t-31.5 11q-6 0 -11 -2l-10 -4l-10 -5v-5h29q10 0 25.5 -9.5t32.5 -24t33 -30t28 -27.5t25 -26.5t23 -28.5t16.5 -27.5t6.5 -24.5t-5 -19t-11.5 -13.5t-13.5 -8.5t-10 -3 q-7 0 -15 20.5t-30 62.5t-42 68.5t-28 26.5q-7 0 -17 -4q-4 -2 -9 -4v-4h14q9 0 21 -14t26 -36t27.5 -48t24.5 -50t17.5 -42.5t6.5 -24.5q0 -19 -15.5 -27.5t-30.5 -8.5q-7 0 -11.5 30.5t-20.5 78.5t-31.5 65.5t-24.5 17.5q-5 0 -8.5 -0.5t-5.5 -0.5q-3 -1 -5 -1v-5h10 q10 0 20.5 -14.5t19.5 -36t17 -47t13.5 -48t9 -38t3.5 -17.5q0 -3 -3 -8.5t-8 -10.5t-10.5 -8.5t-11.5 -3.5h-72q-27 0 -37.5 12.5t-10.5 23.5v26q0 4 6 9.5t13.5 10t15 7.5t9.5 3t4 -3.5t4 -7.5t4 -7.5t3 -3.5q5 0 5 4q0 2 -1.5 8t-4 12.5t-5.5 11.5t-7 5q-8 0 -20 -8 t-41 -22t-57.5 -20.5t-64.5 -6.5t-64.5 2.5t-47.5 5.5v82q0 23 2.5 57.5t5.5 66.5q4 37 9 76h-74q-8 -28 -14 -59q-5 -26 -9.5 -58t-4.5 -64t1 -63t2 -57t2.5 -46.5t3.5 -32.5h4q-3 23 -5 75t-2 114h6q0 -17 0.5 -42t2.5 -54h5v77h6v-35q0 -14 0.5 -28t1.5 -22h4v73h5v-15 v-22t0.5 -23t1.5 -18h4v65h5q0 -35 3 -62h4v60h5q0 -13 1.5 -31.5t2.5 -26.5h5q0 2 -0.5 9t-1 16t-0.5 18.5v16.5h7q0 -58 9 -90.5t11 -40.5h4q-1 3 -3 12t-4 20t-3.5 21t-1.5 16l61 -6q0 -37 -11.5 -63.5t-22.5 -44.5h-97l2 -10h38q0 -15 -7.5 -28t-19.5 -13h-154 q-10 26 -18 59q-7 29 -12 70.5t-5 95.5t6 101t14 82q9 41 21 75h148q8 0 21 -5t18 -8h40zM1095 441q5 -5 13.5 -10.5t14.5 -7.5l2 3q-7 3 -14.5 8.5t-10.5 7.5zM286 112q-8 0 -16 -4t-8 -15q0 -16 14 -24t29 -8q16 0 16 19q0 14 -11.5 23t-23.5 9z" />
<glyph unicode="&#xe000;" horiz-adv-x="460" d="M0 460h460v-460h-460v460z" />
<glyph unicode="&#xf6c3;" horiz-adv-x="250" d="M85 -249l18 151l73 -11l-37 -146z" />
<glyph unicode="&#xfb00;" horiz-adv-x="634" d="M113 0v397h-83v63h83v115q0 70 38.5 109t101.5 39q11 0 20.5 -1t17.5 -3q9 -2 16 -3l-10 -61q-5 1 -11 2q-5 1 -11.5 2t-14.5 1q-30 0 -50.5 -19.5t-20.5 -74.5v-106h105v-63h-105v-397h-76zM430 0v397h-83v63h83v115q0 70 38.5 109t101.5 39q11 0 20.5 -1t17.5 -3 q9 -2 16 -3l-10 -61q-5 1 -11 2q-5 1 -11.5 2t-14.5 1q-30 0 -50.5 -19.5t-20.5 -74.5v-106h105v-63h-105v-397h-76z" />
<glyph unicode="&#xfb01;" horiz-adv-x="573" d="M113 0v397h-83v63h83v115q0 70 38.5 109t101.5 39q11 0 20.5 -1t17.5 -3q9 -2 16 -3l-10 -61q-5 1 -11 2q-5 1 -11.5 2t-14.5 1q-30 0 -50.5 -19.5t-20.5 -74.5v-106h105v-63h-105v-397h-76zM501 627q0 -27 -17 -44q-19 -16 -40 -16q-20 0 -38 16q-17 16 -17 44t17 42 q16 15 38 15t40 -15q17 -15 17 -42zM407 0v460h76v-460h-76z" />
<glyph unicode="&#xfb02;" horiz-adv-x="573" d="M113 0v397h-83v63h83v115q0 70 38.5 109t101.5 39q11 0 20.5 -1t17.5 -3q9 -2 16 -3l-10 -61q-5 1 -11 2q-5 1 -11.5 2t-14.5 1q-30 0 -50.5 -19.5t-20.5 -74.5v-106h105v-63h-105v-397h-76zM407 711h76v-711h-76v711z" />
<glyph unicode="&#xfb03;" horiz-adv-x="890" d="M113 0v397h-83v63h83v115q0 70 38.5 109t101.5 39q11 0 20.5 -1t17.5 -3q9 -2 16 -3l-10 -61q-5 1 -11 2q-5 1 -11.5 2t-14.5 1q-30 0 -50.5 -19.5t-20.5 -74.5v-106h105v-63h-105v-397h-76zM430 0v397h-83v63h83v115q0 70 38.5 109t101.5 39q11 0 20.5 -1t17.5 -3 q9 -2 16 -3l-10 -61q-5 1 -11 2q-5 1 -11.5 2t-14.5 1q-30 0 -50.5 -19.5t-20.5 -74.5v-106h105v-63h-105v-397h-76zM818 627q0 -27 -17 -44q-19 -16 -40 -16q-20 0 -38 16q-17 16 -17 44t17 42q16 15 38 15t40 -15q17 -15 17 -42zM724 0v460h76v-460h-76z" />
<glyph unicode="&#xfb04;" horiz-adv-x="890" d="M113 0v397h-83v63h83v115q0 70 38.5 109t101.5 39q11 0 20.5 -1t17.5 -3q9 -2 16 -3l-10 -61q-5 1 -11 2q-5 1 -11.5 2t-14.5 1q-30 0 -50.5 -19.5t-20.5 -74.5v-106h105v-63h-105v-397h-76zM430 0v397h-83v63h83v115q0 70 38.5 109t101.5 39q11 0 20.5 -1t17.5 -3 q9 -2 16 -3l-10 -61q-5 1 -11 2q-5 1 -11.5 2t-14.5 1q-30 0 -50.5 -19.5t-20.5 -74.5v-106h105v-63h-105v-397h-76zM724 711h76v-711h-76v711z" />
<glyph horiz-adv-x="574" d="M489 0h-76q0 9 0.5 31.5t2.5 38.5h-5q-8 -15 -22.5 -29.5t-34 -26.5t-43 -19t-50.5 -7q-45 0 -84 18t-67.5 50t-44.5 76.5t-16 97.5q0 52 17 96.5t45.5 77t66.5 50.5t81 18q31 0 55.5 -7.5t43.5 -20.5t32.5 -29t23.5 -32l5 2q0 6 0.5 15.5t1.5 20t2 20.5t2 18h69 q-2 -22 -3.5 -49.5t-1.5 -44.5v-365zM274 51q63 0 104 45t41 134t-41 134t-104 45t-105 -45t-42 -134t42 -134t105 -45z" />
<glyph horiz-adv-x="574" d="M494 461q-2 -15 -3 -32q-1 -14 -1.5 -31t-0.5 -32v-378q0 -64 -16.5 -111t-46.5 -78t-71.5 -46t-90.5 -15q-36 0 -68 8t-57.5 22t-44.5 32.5t-29 39.5l61 35q13 -31 49 -52.5t87 -21.5q40 0 68.5 13.5t47 37.5t27 56.5t8.5 70.5v41t1 28q1 13 2 22h-5q-9 -15 -23.5 -29.5 t-33.5 -26.5t-42.5 -19t-50.5 -7q-45 0 -84 18t-67.5 50t-44.5 76.5t-16 97.5t16 97.5t43.5 77t65 50.5t80.5 18q28 0 53 -7.5t45.5 -20.5t36 -29t25.5 -32l5 2q0 11 0.5 24t2.5 24q1 13 3 27h69zM274 51q63 0 104 45t41 134q0 90 -41 135t-104 45t-105 -45t-42 -135 q0 -89 42 -134t105 -45z" />
<glyph horiz-adv-x="550" d="M29 0l199 537h94l198 -537h-71l-52 144h-248l-51 -144h-69zM169 200h208l-104 295z" />
<glyph horiz-adv-x="543" d="M354 284q37 -7 66 -24q25 -14 45.5 -39.5t20.5 -67.5q0 -76 -53 -114.5t-156 -38.5h-187v537h200q80 0 127.5 -34.5t47.5 -100.5q0 -35 -17.5 -57t-38.5 -35q-25 -15 -55 -22v-4zM162 308h108q54 0 84.5 24.5t30.5 65.5q0 82 -115 82h-108v-172zM278 57q63 0 95.5 21 t32.5 76q0 43 -31.5 70.5t-96.5 27.5h-116v-195h116z" />
<glyph horiz-adv-x="556" d="M447 408q-23 38 -56 57.5t-81 19.5q-35 0 -66 -14.5t-54 -42.5t-36.5 -68t-13.5 -92q0 -104 47.5 -160t127.5 -56q49 0 80 16.5t52 54.5l63 -41q-34 -48 -85 -71t-110 -23q-57 0 -104 20.5t-80.5 58t-52 88.5t-18.5 113q0 61 19.5 112.5t53.5 89t79.5 58.5t97.5 21 q66 0 117 -26t81 -77z" />
<glyph horiz-adv-x="591" d="M90 0v537h184q67 0 116 -18.5t81 -53.5t47.5 -85t15.5 -113q0 -125 -63 -196t-197 -71h-184zM270 64q51 0 86.5 12.5t57 38t31 63.5t9.5 89q0 100 -42.5 153t-145.5 53h-98v-409h102z" />
<glyph horiz-adv-x="513" d="M168 473v-169h251v-64h-251v-176h282v-64h-360v537h348v-64h-270z" />
<glyph horiz-adv-x="467" d="M168 473v-190h225v-65h-225v-218h-78v537h323v-64h-245z" />
<glyph horiz-adv-x="602" d="M475 93q-27 -58 -70 -81.5t-102 -23.5q-52 0 -96.5 20t-77 56.5t-51 87.5t-18.5 112q0 63 19.5 115.5t54.5 90t83 58.5t105 21q60 0 113 -25.5t84 -75.5l-59 -41q-22 42 -60.5 60t-80.5 18q-39 0 -72 -14.5t-56.5 -42.5t-37 -69t-13.5 -93q0 -102 47.5 -158t127.5 -56 q38 0 65.5 10.5t45 28.5t26 40.5t8.5 46.5v24h-143v62h219v-264h-53z" />
<glyph horiz-adv-x="632" d="M90 0v537h78v-238h296v238h78v-537h-78v235h-296v-235h-78z" />
<glyph horiz-adv-x="258" d="M90 0v537h78v-537h-78z" />
<glyph horiz-adv-x="424" d="M339 537v-361q0 -51 -14 -87t-39.5 -58.5t-60.5 -32.5t-76 -10q-38 0 -65.5 8.5t-44.5 19.5q-20 12 -34 29l55 50q9 -13 22 -23q11 -8 29 -15t42 -7q56 0 82 31t26 102v354h78z" />
<glyph horiz-adv-x="544" d="M90 537h78v-272l250 272h80l-215 -230l228 -307h-88l-189 266l-66 -66v-200h-78v537z" />
<glyph horiz-adv-x="462" d="M168 537v-473h252v-64h-330v537h78z" />
<glyph horiz-adv-x="726" d="M320 90l-166 374l5 -464h-64v537h89l174 -400l186 400h87v-537h-64l5 464l-178 -374h-74z" />
<glyph horiz-adv-x="608" d="M90 0v537h85l284 -455l-7 455h66v-537h-80l-289 459l7 -459h-66z" />
<glyph horiz-adv-x="648" d="M588 268q0 -58 -21 -109t-57 -89t-83.5 -60t-101.5 -22q-57 0 -106 20.5t-84 58t-55 88.5t-20 113q0 61 21.5 112.5t58 89t84.5 58.5t101 21q57 0 105 -20.5t83.5 -58t55 -89t19.5 -113.5zM508 268q0 108 -50.5 162.5t-132.5 54.5q-38 0 -71.5 -14.5t-58.5 -42.5t-40 -68 t-15 -92t14 -92t38.5 -67.5t58.5 -42t74 -14.5q85 0 134 56t49 160z" />
<glyph horiz-adv-x="513" d="M467 362q0 -41 -13.5 -74.5t-37.5 -56.5t-57.5 -35.5t-73.5 -12.5h-117v-183h-78v537h173q103 0 153.5 -47.5t50.5 -127.5zM168 245h106q33 0 55 9t35 24.5t18 36.5t5 44q0 51 -29.5 83.5t-94.5 32.5h-95v-230z" />
<glyph horiz-adv-x="648" d="M588 268q0 -38 -10.5 -72.5t-28.5 -65t-42.5 -56t-52.5 -43.5q12 -14 29 -27.5t35 -26t35 -22t31 -15.5l-67 -37q-16 7 -31 19t-28.5 26t-25.5 28.5t-22 26.5q-20 -7 -41 -11t-44 -4q-57 0 -106 20.5t-84 58t-55 88.5t-20 113q0 61 21.5 112.5t57.5 89t83.5 58.5 t100.5 21q57 0 105.5 -20.5t84 -58t55.5 -89t20 -113.5zM508 268q0 108 -51.5 162.5t-133.5 54.5q-38 0 -71 -14.5t-58 -42.5t-39.5 -68t-14.5 -92t14 -92t38.5 -67.5t58.5 -42t74 -14.5q85 0 134 56t49 160z" />
<glyph horiz-adv-x="567" d="M474 377q0 -32 -9 -57t-24 -44t-33.5 -32t-37.5 -20l142 -224h-84l-123 207h-137v-207h-78v537h180q98 0 151 -42.5t53 -117.5zM168 262h111q33 0 55 8t35.5 22t19 33t5.5 42q0 53 -29 83.5t-94 30.5h-103v-219z" />
<glyph horiz-adv-x="491" d="M365 423q-14 27 -46.5 46.5t-78.5 19.5q-48 0 -75.5 -22t-27.5 -58q0 -21 9 -36t24 -25.5t34.5 -18.5t41.5 -15q32 -12 66 -22.5t62 -27t46 -42.5t18 -69q0 -36 -14 -66.5t-39.5 -52t-62 -34t-81.5 -12.5q-74 0 -121.5 29t-61.5 71l53 41q14 -34 48 -57.5t84 -23.5 q24 0 45.5 5.5t37.5 16.5t25.5 27.5t9.5 39.5q0 26 -11 42.5t-30 28t-43.5 19.5t-49.5 17q-30 10 -59 22t-52.5 29t-37.5 41.5t-14 60.5q0 37 15 65.5t40 48t58 29t70 9.5q66 0 110 -25.5t61 -60.5z" />
<glyph horiz-adv-x="490" d="M21 537h448v-64h-185v-473h-78v473h-185v64z" />
<glyph horiz-adv-x="586" d="M163 537v-343q0 -69 36.5 -105.5t99.5 -36.5q70 0 97 34.5t27 103.5v347h78v-353q0 -41 -10.5 -77t-34.5 -62.5t-62.5 -41.5t-93.5 -15t-95.5 14.5t-67 40.5t-39.5 61.5t-13 78.5v354h78z" />
<glyph horiz-adv-x="514" d="M484 537l-177 -537h-94l-187 537h74l162 -491l150 491h72z" />
<glyph horiz-adv-x="823" d="M463 537l132 -488l112 488h72l-141 -537h-90l-132 495l-128 -495h-90l-150 537h72l125 -488l125 488h93z" />
<glyph horiz-adv-x="519" d="M260 240l-147 -240h-83l181 273l-176 264h80l145 -231l138 231h80l-172 -264l183 -273h-84z" />
<glyph horiz-adv-x="502" d="M19 537h77l154 -286l155 286h78l-197 -331v-206h-74v206z" />
<glyph horiz-adv-x="490" d="M434 490l-23 -32l-281 -396h317v-62h-404v47l23 32l281 397h-301v61h388v-47z" />
<glyph horiz-adv-x="767" d="M348 498l-168 -297h168v297zM348 137h-200l-78 -137h-71l305 537h392v-64h-270v-169h251v-64h-251v-176h282v-64h-360v137z" />
<glyph horiz-adv-x="505" d="M255 448q104 0 157 -45t53 -123q0 -37 -13.5 -69.5t-37.5 -56.5t-58 -38t-74 -14h-114v-102h-78v537h78v-89h87zM268 166q36 0 59 11t35.5 27.5t17.5 37t5 39.5q0 20 -7.5 38.5t-22.5 33t-39 23t-57 8.5h-91v-218h100z" />
<glyph d="M300 663q53 0 97 -20.5t76 -62t49.5 -105t17.5 -150.5q0 -84 -18 -147.5t-50 -105.5t-76 -63t-96 -21q-53 0 -97 20t-76 61.5t-49.5 105t-17.5 150.5q0 88 19.5 152t52.5 105t76.5 61t91.5 20zM300 51q38 0 68 19t50.5 54.5t31.5 86.5t11 114t-11 114t-31.5 87t-50.5 55 t-68 19t-68 -19t-51 -55t-32 -87t-11 -114q0 -127 42.5 -200.5t119.5 -73.5z" />
<glyph horiz-adv-x="315" d="M139 0v544q-11 -6 -27 -12t-34 -11.5t-35 -8.5t-29 -3l-14 63q30 1 57.5 8t49.5 18t37.5 25t21.5 28h49v-651h-76z" />
<glyph horiz-adv-x="520" d="M55 500q0 24 11 52.5t34.5 53t61.5 41t92 16.5q44 0 82 -12.5t66 -37t44 -61t16 -84.5q0 -57 -22.5 -109.5t-63 -102.5t-95.5 -97t-121 -92h306v-67h-405v50q90 65 160 135q30 30 59 64t51.5 70t36.5 73.5t14 73.5q0 26 -8 50.5t-24 43t-40.5 29.5t-58.5 11 q-59 0 -92 -31.5t-33 -81.5q0 -17 4 -37.5t10 -36.5l-70 14q-6 14 -10.5 35t-4.5 38z" />
<glyph horiz-adv-x="520" d="M366 490q0 20 -6 40t-20.5 35.5t-37.5 25.5t-56 10q-30 0 -52.5 -9.5t-38.5 -24.5t-25.5 -33.5t-12.5 -36.5l-55 43q3 21 17 43t37 39.5t56.5 28.5t75.5 11q49 0 86.5 -13.5t62.5 -37t37.5 -53.5t12.5 -63q0 -32 -14 -57t-35 -43t-46 -31t-48 -21q30 -6 60 -19.5 t53.5 -34.5t38 -48.5t14.5 -60.5q0 -39 -16.5 -74t-46.5 -61.5t-72 -42t-93 -15.5q-41 0 -73 9t-56 24t-40 33.5t-25 36.5l45 60q17 -45 55.5 -72.5t93.5 -27.5q37 0 65 11.5t47 30t28 42t9 47.5t-10 46.5t-29.5 40t-48.5 27.5t-67 10q-18 0 -43.5 -1t-48.5 -6l3 71 q3 0 10 -0.5t16 -1t17.5 -0.5h14.5q86 0 123.5 34.5t37.5 88.5z" />
<glyph horiz-adv-x="560" d="M533 156h-87v-156h-72v156h-313l-18 50l22 33l278 412h103v-431h87v-64zM374 220v362l-240 -362h240z" />
<glyph horiz-adv-x="520" d="M270 421q36 0 73 -12.5t67 -38t49 -65t19 -93.5q0 -48 -16.5 -89t-46.5 -71t-73 -47t-96 -17q-72 0 -123.5 28t-77.5 68l48 60q7 -17 20.5 -33.5t33 -30t45 -22t56.5 -8.5q39 0 67 12.5t47 34.5t28 50.5t9 60.5q0 36 -11.5 64t-31 47t-47 29t-58.5 10q-34 0 -64.5 -12 t-47.5 -28l-59 30l36 303h344v-66h-285l-23 -192q18 11 49 19.5t69 8.5z" />
<glyph horiz-adv-x="560" d="M288 -12q-58 1 -100 23.5t-69.5 61.5t-41 93.5t-13.5 119.5q0 75 13 143t42 120t77 83t117 31q35 0 64 -8t51.5 -20.5t37.5 -29t22 -32.5l-50 -50q-3 13 -13 27.5t-26.5 25.5t-39 18.5t-50.5 7.5q-52 0 -84 -27t-50.5 -68t-26 -89t-8.5 -91l3 -1q12 26 35 47 q19 17 50.5 32t78.5 15q55 0 94.5 -20t64 -50.5t36 -68t11.5 -71.5q0 -36 -12 -75t-39 -71.5t-70 -54t-104 -21.5zM147 212q0 -32 9.5 -61.5t27.5 -52t44 -36.5t60 -14q26 0 52 9t46.5 28.5t33.5 49t13 70.5q0 37 -11 66t-29.5 48.5t-44 29.5t-54.5 10q-28 0 -54.5 -9.5 t-46.5 -28t-32.5 -46t-13.5 -63.5z" />
<glyph horiz-adv-x="520" d="M467 651v-52q-47 -62 -84 -134.5t-63 -157.5q-25 -80 -39.5 -156t-19.5 -151h-76q1 75 17 156t45 167q25 75 59 139.5t72 121.5h-329v67h418z" />
<glyph horiz-adv-x="560" d="M375 350q37 -14 66 -38q25 -20 46 -52t21 -77q0 -47 -17 -83t-47 -61t-71 -38t-89 -13q-50 0 -92 13.5t-73.5 38.5t-49 60.5t-17.5 79.5q0 46 20 78.5t45 52.5q29 24 66 39q-28 14 -50 34q-19 17 -34 44.5t-15 65.5q0 36 15 67t41 53.5t62.5 35.5t78.5 13t78 -12t63 -34 t42.5 -52t15.5 -67q0 -42 -16.5 -70t-36.5 -45q-23 -20 -52 -33zM158 491q0 -26 10 -47t26.5 -36t38.5 -23.5t47 -8.5t47.5 8.5t39.5 23.5t27 36t10 47t-10 46.5t-27 35t-39.5 22.5t-47.5 8t-47 -8t-38.5 -22.5t-26.5 -35t-10 -46.5zM130 181q0 -32 11.5 -56.5t31.5 -41 t47 -25.5t59 -9q31 0 59 9t48 25.5t32 41t12 56.5q0 31 -12 56t-33 42.5t-48.5 27t-57.5 9.5t-57.5 -9.5t-47.5 -27t-32 -42.5t-12 -56z" />
<glyph horiz-adv-x="560" d="M267 663q60 0 103 -24t71 -66t41.5 -100t13.5 -126q0 -84 -12.5 -150.5t-41 -113t-75.5 -71t-115 -24.5q-35 0 -65.5 8t-54.5 21t-40.5 29t-23.5 32l50 54q6 -14 17.5 -29t28.5 -27t39.5 -19.5t49.5 -7.5q47 0 78.5 17.5t51.5 51t29 82t11 109.5l-3 1q-14 -25 -37 -43 q-20 -17 -51.5 -30t-77.5 -13q-56 0 -95.5 21t-64.5 52.5t-36 69.5t-11 72q0 36 11.5 75.5t37.5 72.5t68 54.5t103 21.5zM413 434q0 32 -9 62.5t-27.5 54t-45.5 38t-63 14.5q-27 0 -52 -9.5t-45 -28.5t-32 -48t-12 -69q0 -38 10.5 -68t29.5 -51t44 -32.5t55 -11.5 q29 0 55 10t46.5 29t32.5 47t13 63z" />
<glyph horiz-adv-x="556" d="M447 408q-23 38 -56 57.5t-81 19.5q-35 0 -66 -14.5t-54 -42.5t-36.5 -68t-13.5 -92q0 -104 47.5 -160t127.5 -56q49 0 80 16.5t52 54.5l63 -41q-34 -48 -85 -71t-110 -23q-57 0 -104 20.5t-80.5 58t-52 88.5t-18.5 113q0 61 19.5 112.5t53.5 89t79.5 58.5t97.5 21 q66 0 117 -26t81 -77zM287 17q17 -8 31 -17q71 -44 71 -101q0 -98 -115 -98q-50 0 -84 31l25 37q28 -21 62 -21q50 0 50 56q0 59 -97 105z" />
<glyph horiz-adv-x="513" d="M168 473v-169h251v-64h-251v-176h282v-64h-360v537h348v-64h-270zM364 657l-41 -41l-145 146l41 41z" />
<glyph horiz-adv-x="513" d="M168 473v-169h251v-64h-251v-176h282v-64h-360v537h348v-64h-270zM356 803l41 -41l-145 -146l-41 41z" />
<glyph horiz-adv-x="513" d="M168 473v-169h251v-64h-251v-176h282v-64h-360v537h348v-64h-270zM75 616l159 160h62l159 -160h-82l-108 116l-108 -116h-82z" />
<glyph horiz-adv-x="513" d="M168 473v-169h251v-64h-251v-176h282v-64h-360v537h348v-64h-270zM217 671q0 -24 -16 -40q-17 -15 -40 -15q-24 0 -40 15q-15 15 -15 40q0 26 15 41q17 14 40 14t40 -14q16 -16 16 -41zM418 671q0 -24 -16 -40q-17 -15 -39 -15q-25 0 -41 15q-15 15 -15 40q0 26 15 41 q17 14 41 14q22 0 39 -14q16 -16 16 -41z" />
<glyph horiz-adv-x="258" d="M90 0v537h78v-537h-78zM221 657l-41 -41l-145 146l41 41z" />
<glyph horiz-adv-x="258" d="M90 0v537h78v-537h-78zM221 803l41 -41l-145 -146l-41 41z" />
<glyph horiz-adv-x="258" d="M90 0v537h78v-537h-78zM-60 616l159 160h62l159 -160h-82l-108 116l-108 -116h-82z" />
<glyph horiz-adv-x="258" d="M90 0v537h78v-537h-78zM82 671q0 -24 -16 -40q-17 -15 -40 -15q-24 0 -40 15q-15 15 -15 40q0 26 15 41q17 14 40 14t40 -14q16 -16 16 -41zM283 671q0 -24 -16 -40q-17 -15 -39 -15q-25 0 -41 15q-15 15 -15 40q0 26 15 41q17 14 41 14q22 0 39 -14q16 -16 16 -41z" />
<glyph horiz-adv-x="601" d="M100 0v240h-80v64h80v233h184q67 0 116 -18.5t81 -53.5t47.5 -85t15.5 -113q0 -125 -63 -196t-197 -71h-184zM280 64q51 0 86.5 12.5t57 38t31 63.5t9.5 89q0 100 -42.5 153t-145.5 53h-98v-169h120v-64h-120v-176h102z" />
<glyph horiz-adv-x="608" d="M90 0v537h85l284 -455l-7 455h66v-537h-80l-289 459l7 -459h-66zM449 745q2 -9 4 -21t2 -32q0 -13 -4.5 -26t-13.5 -24t-24 -18.5t-34 -7.5q-25 0 -43 10.5t-33.5 23.5t-29 23.5t-30.5 10.5q-18 0 -23 -15.5t-5 -31.5v-10.5t1 -10.5h-45q-7 19 -7 52q0 13 4.5 27t13.5 25 t23.5 18t33.5 7q24 0 42.5 -10.5t34 -23.5t29 -23.5t28.5 -10.5q10 0 16.5 5.5t10 13t4.5 17t1 17.5v9t-1 6h45z" />
<glyph horiz-adv-x="648" d="M588 268q0 -58 -21 -109t-57 -89t-83.5 -60t-101.5 -22q-57 0 -106 20.5t-84 58t-55 88.5t-20 113q0 61 21.5 112.5t58 89t84.5 58.5t101 21q57 0 105 -20.5t83.5 -58t55 -89t19.5 -113.5zM508 268q0 108 -50.5 162.5t-132.5 54.5q-38 0 -71.5 -14.5t-58.5 -42.5t-40 -68 t-15 -92t14 -92t38.5 -67.5t58.5 -42t74 -14.5q85 0 134 56t49 160zM419 657l-41 -41l-145 146l41 41z" />
<glyph horiz-adv-x="648" d="M588 268q0 -58 -21 -109t-57 -89t-83.5 -60t-101.5 -22q-57 0 -106 20.5t-84 58t-55 88.5t-20 113q0 61 21.5 112.5t58 89t84.5 58.5t101 21q57 0 105 -20.5t83.5 -58t55 -89t19.5 -113.5zM508 268q0 108 -50.5 162.5t-132.5 54.5q-38 0 -71.5 -14.5t-58.5 -42.5t-40 -68 t-15 -92t14 -92t38.5 -67.5t58.5 -42t74 -14.5q85 0 134 56t49 160zM403 803l41 -41l-145 -146l-41 41z" />
<glyph horiz-adv-x="648" d="M588 268q0 -58 -21 -109t-57 -89t-83.5 -60t-101.5 -22q-57 0 -106 20.5t-84 58t-55 88.5t-20 113q0 61 21.5 112.5t58 89t84.5 58.5t101 21q57 0 105 -20.5t83.5 -58t55 -89t19.5 -113.5zM508 268q0 108 -50.5 162.5t-132.5 54.5q-38 0 -71.5 -14.5t-58.5 -42.5t-40 -68 t-15 -92t14 -92t38.5 -67.5t58.5 -42t74 -14.5q85 0 134 56t49 160zM132 616l159 160h62l159 -160h-82l-108 116l-108 -116h-82z" />
<glyph horiz-adv-x="648" d="M588 268q0 -58 -21 -109t-57 -89t-83.5 -60t-101.5 -22q-57 0 -106 20.5t-84 58t-55 88.5t-20 113q0 61 21.5 112.5t58 89t84.5 58.5t101 21q57 0 105 -20.5t83.5 -58t55 -89t19.5 -113.5zM508 268q0 108 -50.5 162.5t-132.5 54.5q-38 0 -71.5 -14.5t-58.5 -42.5t-40 -68 t-15 -92t14 -92t38.5 -67.5t58.5 -42t74 -14.5q85 0 134 56t49 160zM467 745q2 -9 4 -21t2 -32q0 -13 -4.5 -26t-13.5 -24t-24 -18.5t-34 -7.5q-25 0 -43 10.5t-33.5 23.5t-29 23.5t-30.5 10.5q-18 0 -23 -15.5t-5 -31.5v-10.5t1 -10.5h-45q-7 19 -7 52q0 13 4.5 27t13.5 25 t23.5 18t33.5 7q24 0 42.5 -10.5t34 -23.5t29 -23.5t28.5 -10.5q10 0 16.5 5.5t10 13t4.5 17t1 17.5v9t-1 6h45z" />
<glyph horiz-adv-x="648" d="M588 268q0 -58 -21 -109t-57 -89t-83.5 -60t-101.5 -22q-57 0 -106 20.5t-84 58t-55 88.5t-20 113q0 61 21.5 112.5t58 89t84.5 58.5t101 21q57 0 105 -20.5t83.5 -58t55 -89t19.5 -113.5zM508 268q0 108 -50.5 162.5t-132.5 54.5q-38 0 -71.5 -14.5t-58.5 -42.5t-40 -68 t-15 -92t14 -92t38.5 -67.5t58.5 -42t74 -14.5q85 0 134 56t49 160zM279 671q0 -24 -16 -40q-17 -15 -40 -15q-24 0 -40 15q-15 15 -15 40q0 26 15 41q17 14 40 14t40 -14q16 -16 16 -41zM480 671q0 -24 -16 -40q-17 -15 -39 -15q-25 0 -41 15q-15 15 -15 40q0 26 15 41 q17 14 41 14q22 0 39 -14q16 -16 16 -41z" />
<glyph horiz-adv-x="648" d="M588 268q0 -58 -21 -109t-57 -89t-83.5 -60t-101.5 -22q-42 0 -79 11t-68 31l-40 -54l-46 35l42 56q-35 38 -54.5 88.5t-19.5 112.5q0 61 21.5 112.5t58 89t84.5 58.5t101 21q40 0 75 -10.5t65 -29.5l41 55l46 -35l-42 -56q37 -38 57.5 -90t20.5 -115zM508 268 q0 48 -11 85.5t-30 64.5l-247 -335q44 -31 105 -31q85 0 134 56t49 160zM140 268q0 -44 10.5 -80t28.5 -62l246 332q-40 27 -100 27q-38 0 -71.5 -14.5t-58.5 -42.5t-40 -68t-15 -92z" />
<glyph horiz-adv-x="586" d="M163 537v-343q0 -69 36.5 -105.5t99.5 -36.5q70 0 97 34.5t27 103.5v347h78v-353q0 -41 -10.5 -77t-34.5 -62.5t-62.5 -41.5t-93.5 -15t-95.5 14.5t-67 40.5t-39.5 61.5t-13 78.5v354h78zM386 657l-41 -41l-145 146l41 41z" />
<glyph horiz-adv-x="586" d="M163 537v-343q0 -69 36.5 -105.5t99.5 -36.5q70 0 97 34.5t27 103.5v347h78v-353q0 -41 -10.5 -77t-34.5 -62.5t-62.5 -41.5t-93.5 -15t-95.5 14.5t-67 40.5t-39.5 61.5t-13 78.5v354h78zM347 803l41 -41l-145 -146l-41 41z" />
<glyph horiz-adv-x="586" d="M163 537v-343q0 -69 36.5 -105.5t99.5 -36.5q70 0 97 34.5t27 103.5v347h78v-353q0 -41 -10.5 -77t-34.5 -62.5t-62.5 -41.5t-93.5 -15t-95.5 14.5t-67 40.5t-39.5 61.5t-13 78.5v354h78zM107 616l159 160h62l159 -160h-82l-108 116l-108 -116h-82z" />
<glyph horiz-adv-x="586" d="M163 537v-343q0 -69 36.5 -105.5t99.5 -36.5q70 0 97 34.5t27 103.5v347h78v-353q0 -41 -10.5 -77t-34.5 -62.5t-62.5 -41.5t-93.5 -15t-95.5 14.5t-67 40.5t-39.5 61.5t-13 78.5v354h78zM252 671q0 -24 -16 -40q-17 -15 -40 -15q-24 0 -40 15q-15 15 -15 40q0 26 15 41 q17 14 40 14t40 -14q16 -16 16 -41zM453 671q0 -24 -16 -40q-17 -15 -39 -15q-25 0 -41 15q-15 15 -15 40q0 26 15 41q17 14 41 14q22 0 39 -14q16 -16 16 -41z" />
<glyph horiz-adv-x="502" d="M19 537h77l154 -286l155 286h78l-197 -331v-206h-74v206zM315 803l41 -41l-145 -146l-41 41z" />
<glyph horiz-adv-x="502" d="M19 537h77l154 -286l155 286h78l-197 -331v-206h-74v206zM206 671q0 -24 -16 -40q-17 -15 -40 -15q-24 0 -40 15q-15 15 -15 40q0 26 15 41q17 14 40 14t40 -14q16 -16 16 -41zM407 671q0 -24 -16 -40q-17 -15 -39 -15q-25 0 -41 15q-15 15 -15 40q0 26 15 41 q17 14 41 14q22 0 39 -14q16 -16 16 -41z" />
<glyph horiz-adv-x="550" d="M29 0l199 537h94l198 -537h-71l-52 144h-248l-51 -144h-69zM169 200h208l-104 295zM362 657l-41 -41l-145 146l41 41z" />
<glyph horiz-adv-x="550" d="M29 0l199 537h94l198 -537h-71l-52 144h-248l-51 -144h-69zM169 200h208l-104 295zM367 803l41 -41l-145 -146l-41 41z" />
<glyph horiz-adv-x="550" d="M29 0l199 537h94l198 -537h-71l-52 144h-248l-51 -144h-69zM169 200h208l-104 295zM84 616l159 160h62l159 -160h-82l-108 116l-108 -116h-82z" />
<glyph horiz-adv-x="550" d="M29 0l199 537h94l198 -537h-71l-52 144h-248l-51 -144h-69zM169 200h208l-104 295zM421 745q2 -9 4 -21t2 -32q0 -13 -4.5 -26t-13.5 -24t-24 -18.5t-34 -7.5q-25 0 -43 10.5t-33.5 23.5t-29 23.5t-30.5 10.5q-18 0 -23 -15.5t-5 -31.5v-10.5t1 -10.5h-45q-7 19 -7 52 q0 13 4.5 27t13.5 25t23.5 18t33.5 7q24 0 42.5 -10.5t34 -23.5t29 -23.5t28.5 -10.5q10 0 16.5 5.5t10 13t4.5 17t1 17.5v9t-1 6h45z" />
<glyph horiz-adv-x="550" d="M29 0l199 537h94l198 -537h-71l-52 144h-248l-51 -144h-69zM169 200h208l-104 295zM228 671q0 -24 -16 -40q-17 -15 -40 -15q-24 0 -40 15q-15 15 -15 40q0 26 15 41q17 14 40 14t40 -14q16 -16 16 -41zM429 671q0 -24 -16 -40q-17 -15 -39 -15q-25 0 -41 15 q-15 15 -15 40q0 26 15 41q17 14 41 14q22 0 39 -14q16 -16 16 -41z" />
<glyph horiz-adv-x="550" d="M29 0l199 537h94l198 -537h-71l-52 144h-248l-51 -144h-69zM169 200h208l-104 295zM155 732q0 24 8.5 44.5t24 36.5t37.5 25t50 9q27 0 49 -9t37.5 -25t24.5 -36.5t9 -44.5t-9 -45.5t-24.5 -37t-37.5 -24.5t-49 -9q-56 0 -88 33.5t-32 82.5zM206 732q0 -29 19.5 -49.5 t49.5 -20.5q29 0 49 20.5t20 49.5q0 28 -20 48.5t-49 20.5q-30 0 -49.5 -20.5t-19.5 -48.5z" />
<glyph horiz-adv-x="490" d="M434 490l-23 -32l-281 -396h317v-62h-404v47l23 32l281 397h-301v61h388v-47zM426 776l-159 -160h-63l-158 160h81l109 -116l108 116h82z" />
<glyph horiz-adv-x="491" d="M365 423q-14 27 -46.5 46.5t-78.5 19.5q-48 0 -75.5 -22t-27.5 -58q0 -21 9 -36t24 -25.5t34.5 -18.5t41.5 -15q32 -12 66 -22.5t62 -27t46 -42.5t18 -69q0 -36 -14 -66.5t-39.5 -52t-62 -34t-81.5 -12.5q-74 0 -121.5 29t-61.5 71l53 41q14 -34 48 -57.5t84 -23.5 q24 0 45.5 5.5t37.5 16.5t25.5 27.5t9.5 39.5q0 26 -11 42.5t-30 28t-43.5 19.5t-49.5 17q-30 10 -59 22t-52.5 29t-37.5 41.5t-14 60.5q0 37 15 65.5t40 48t58 29t70 9.5q66 0 110 -25.5t61 -60.5zM429 776l-159 -160h-63l-158 160h81l109 -116l108 116h82z" />
<glyph horiz-adv-x="470" d="M176 537v-206l108 33v-59l-108 -30v-215h295v-60h-371v258l-80 -24v59l80 20v224h76z" />
<glyph horiz-adv-x="971" d="M908 60v-60h-368v83q-15 -17 -34.5 -34t-44.5 -30.5t-54.5 -22t-65.5 -8.5q-60 0 -111.5 19t-89 55t-59 88t-21.5 118t21.5 118.5t59 88.5t89 55t111.5 19q31 0 61 -8.5t56 -22t47 -30.5t35 -34v83h356v-60h-279v-175h250v-60h-250v-182h291zM338 47q45 0 83.5 13 t66.5 40.5t43.5 69.5t15.5 101q0 55 -16 96t-44 68.5t-66.5 41t-82.5 13.5q-90 0 -145.5 -57t-55.5 -165t55.5 -164.5t145.5 -56.5z" />
<glyph horiz-adv-x="741" d="M168 473v-190h225v-65h-225v-218h-78v537h323v-64h-245zM572 0v537h78v-537h-78z" />
<glyph horiz-adv-x="922" d="M168 473v-190h225v-65h-225v-218h-78v537h323v-64h-245zM650 537v-473h252v-64h-330v537h78z" />
<glyph horiz-adv-x="533" d="M485 221q-2 -38 -16 -72t-31 -55l69 -76l-59 -30l-53 60q-24 -23 -63.5 -41.5t-95.5 -18.5q-39 0 -74 10.5t-62 31t-43 50t-16 68.5q0 30 10 55.5t27 45t40 34.5t49 24q-26 23 -43.5 55.5t-17.5 69.5q0 54 39 85.5t102 31.5q33 0 59 -9t43 -24.5t26 -36.5t9 -44 q0 -26 -10 -47.5t-27 -40t-39 -33t-47 -24.5l133 -151q14 13 20 37t6 45h65zM243 45q38 0 66.5 13t48.5 31l-156 178q-35 -14 -60.5 -41.5t-25.5 -68.5q0 -21 8 -41.5t23.5 -36t39.5 -25t56 -9.5zM176 426q0 -29 15.5 -52.5t34.5 -42.5q45 14 69 42t24 60q0 29 -19 47.5 t-51 18.5q-36 0 -54.5 -22.5t-18.5 -50.5z" />
<glyph horiz-adv-x="265" d="M95 153v384h72v-384h-72zM181 44q0 -23 -14.5 -37t-34.5 -14q-19 0 -34 14t-15 37t15 36t34 13q20 0 34.5 -13t14.5 -36z" />
<glyph horiz-adv-x="380" d="M31 470q15 32 53.5 55.5t91.5 23.5q34 0 65.5 -8t55.5 -25.5t38 -44t14 -63.5q0 -48 -21 -77.5t-46 -46.5q-30 -20 -67 -29v-101h-72v138q21 0 45 5.5t43.5 19t32.5 34.5t13 53q0 36 -25.5 62.5t-76.5 26.5q-37 0 -58 -16t-27 -39zM228 44q0 -23 -15 -37t-35 -14 q-19 0 -33.5 14t-14.5 37t14.5 36t33.5 13q20 0 35 -13t15 -36z" />
<glyph horiz-adv-x="265" d="M95 384.01v-383.977h72v383.977h-72zM181 493.003q0 22.998 -14.5 36.9971q-14.5 14 -34.5 14q-19 0 -34 -14q-15 -13.999 -15 -36.9971q0 -22.999 15 -35.998t34 -12.999q20 0 34.5 12.999t14.5 35.998z" />
<glyph horiz-adv-x="380" d="M349.002 66.0283q-14.999 -31.998 -53.4971 -55.4961q-38.4971 -23.499 -91.4941 -23.499q-33.998 0 -65.4961 8q-31.498 7.99902 -55.4961 25.498q-23.999 17.499 -37.998 43.9971q-13.999 26.499 -13.999 63.4971q0 47.9961 20.998 77.4951 q20.999 29.498 45.998 46.4971q29.998 19.998 66.9951 28.998v100.994h71.9961v-137.992q-20.999 0 -44.9971 -5.49902q-23.999 -5.5 -43.498 -18.999q-19.498 -13.499 -32.498 -34.498q-12.999 -20.999 -12.999 -52.9971q0 -35.9971 25.499 -62.4961 q25.498 -26.498 76.4951 -26.498q36.998 0 57.9961 15.999q20.999 15.999 26.999 38.9971zM152.014 492.003q0 22.998 14.999 36.9971q14.999 14 34.998 14q18.999 0 33.498 -14q14.499 -13.999 14.499 -36.9971q0 -22.999 -14.499 -35.998t-33.498 -12.999 q-19.999 0 -34.998 12.999t-14.999 35.998z" />
<glyph horiz-adv-x="310" d="M300 745q2 -9 4 -21t2 -32q0 -13 -4.5 -26t-13.5 -24t-24 -18.5t-34 -7.5q-25 0 -43 10.5t-33.5 23.5t-29 23.5t-30.5 10.5q-18 0 -23 -15.5t-5 -31.5v-10.5t1 -10.5h-45q-7 19 -7 52q0 13 4.5 27t13.5 25t23.5 18t33.5 7q24 0 42.5 -10.5t34 -23.5t29 -23.5t28.5 -10.5 q10 0 16.5 5.5t10 13t4.5 17t1 17.5v9t-1 6h45z" />
<glyph horiz-adv-x="250" d="M-25 670h300v-55h-300v55z" />
<glyph horiz-adv-x="250" d="M181 676q0 -27 -17 -44q-19 -16 -40 -16q-20 0 -38 16q-17 16 -17 44t17 42q16 15 38 15t40 -15q17 -15 17 -42z" />
<glyph horiz-adv-x="250" d="M125 671q46 0 70.5 30t24.5 74h68q0 -34 -10.5 -63t-31 -50.5t-51 -33.5t-70.5 -12q-81 0 -122 44.5t-41 114.5h67q0 -44 26 -74t70 -30z" />
<glyph horiz-adv-x="250" d="M81 671q0 -24 -16 -40q-17 -15 -40 -15q-24 0 -40 15q-15 15 -15 40q0 26 15 41q17 14 40 14t40 -14q16 -16 16 -41zM282 671q0 -24 -16 -40q-17 -15 -39 -15q-25 0 -41 15q-15 15 -15 40q0 26 15 41q17 14 41 14q22 0 39 -14q16 -16 16 -41z" />
<glyph horiz-adv-x="250" d="M316 776l-159 -160h-63l-158 160h81l109 -116l108 116h82z" />
<glyph horiz-adv-x="300" d="M108 803l40 -38l-132 -149l-40 38zM282 803l40 -38l-132 -149l-40 38z" />
<glyph horiz-adv-x="208" d="M-16 732q0 24 8.5 44.5t24 36.5t37.5 25t50 9q27 0 49 -9t37.5 -25t24.5 -36.5t9 -44.5t-9 -45.5t-24.5 -37t-37.5 -24.5t-49 -9q-56 0 -88 33.5t-32 82.5zM35 732q0 -29 19.5 -49.5t49.5 -20.5q29 0 49 20.5t20 49.5q0 28 -20 48.5t-49 20.5q-30 0 -49.5 -20.5 t-19.5 -48.5z" />
<glyph horiz-adv-x="250" d="M-60 616l159 160h62l159 -160h-82l-108 116l-108 -116h-82z" />
<glyph horiz-adv-x="544" d="M38 363h74q11 45 35.5 78.5t57.5 56t71.5 34t79.5 11.5q43 0 74 -6.5t51 -14.5q23 -10 38 -21l-23 -65q-15 11 -35 20q-18 8 -44.5 14.5t-62.5 6.5q-62 0 -103.5 -29t-56.5 -85h278l-21 -61h-269q-1 -5 -1 -11q-1 -5 -1 -12v-15v-15t1 -12q1 -6 2 -11h242l-21 -61h-210 q33 -111 164 -111q35 0 61 5.5t45 13.5q21 8 38 19v-72q-19 -9 -41 -16q-20 -6 -45.5 -11t-57.5 -5q-44 0 -83.5 10.5t-72.5 32t-56.5 55t-34.5 79.5h-94l21 61h63q-1 5 -2 11q-1 5 -1 12v15v15t1 12q0 6 1 11h-83z" />
<glyph horiz-adv-x="580" d="M289 549q49 0 92 -16.5t75 -50.5t50.5 -86.5t18.5 -124.5q0 -73 -18.5 -126t-50.5 -88t-75 -52t-92 -17t-91.5 17t-74 52t-50 88t-18.5 126t18.5 125.5t50 86.5t74 50t91.5 16zM289 48q70 0 115 54t45 169q0 57 -12 98t-33 68t-50.5 39.5t-64.5 12.5q-34 0 -63 -13 t-50 -39.5t-33 -68t-12 -97.5q0 -57 12 -99t33 -69.5t50 -41t63 -13.5z" />
<glyph horiz-adv-x="444" d="M57 60h147v374q-26 -11 -59.5 -19.5t-62.5 -8.5l-15 55q22 0 46.5 6t47.5 16.5t42 24t31 29.5h46v-477h130v-60h-353v60z" />
<glyph horiz-adv-x="490" d="M55 398q0 29 11.5 56.5t34 48.5t56 33.5t78.5 12.5q35 0 68.5 -11t59.5 -33t41.5 -55t15.5 -76q0 -45 -19.5 -88.5t-52 -83.5t-74.5 -75t-87 -63h249v-64h-371v52q55 31 106 68.5t89.5 78.5t61.5 84.5t23 88.5q0 50 -30 83.5t-84 33.5q-28 0 -48.5 -9t-34 -23.5 t-20 -33.5t-6.5 -40q0 -15 2.5 -34t7.5 -30l-67 20q-5 11 -7.5 28t-2.5 31z" />
<glyph horiz-adv-x="490" d="M330 406q0 15 -5.5 30t-18 27t-32 20t-47.5 8q-47 0 -72 -22t-42 -61l-52 44q23 48 69.5 73t98.5 25q42 0 75 -11t55 -30t33.5 -43t11.5 -51q0 -36 -15 -60.5t-32 -38.5q-20 -17 -46 -26q34 -8 61 -26q23 -16 42 -44t19 -75q0 -32 -13.5 -60.5t-39.5 -50t-63.5 -34 t-84.5 -12.5q-51 0 -85.5 14t-55.5 31q-25 20 -39 46l50 57q13 -26 32 -45q16 -17 40.5 -30.5t58.5 -13.5q63 0 93 29t30 72q0 21 -9 40t-25.5 33.5t-40 23t-53.5 8.5q-17 0 -32.5 -0.5t-27.5 -1.5q-14 -1 -26 -2l3 63q16 -1 32 -1h23q63 0 96.5 26t33.5 69z" />
<glyph horiz-adv-x="520" d="M491 141h-95v-141h-71v141h-261l-24 43l25 35l228 318h103v-335h95v-61zM325 202v271l-197 -271h197z" />
<glyph horiz-adv-x="490" d="M256 340q37 0 70.5 -10.5t58 -31.5t39 -53t14.5 -74q0 -83 -55 -133t-152 -50q-63 0 -107.5 28t-63.5 68l48 51q13 -34 47 -60.5t84 -26.5q31 0 54.5 10t38.5 26.5t22.5 37.5t7.5 44q0 54 -31.5 85t-84.5 31q-23 0 -42 -5.5t-33 -11.5q-16 -7 -28 -16l-55 30l37 258h292 v-62h-233l-22 -157q12 6 26 11q12 4 29 7.5t39 3.5z" />
<glyph horiz-adv-x="521" d="M267 -12q-56 0 -94.5 19.5t-62 54.5t-34 83t-10.5 106q0 50 11 102.5t37 96t69 71.5t108 28q25 0 49.5 -5.5t45 -15t35.5 -22t23 -26.5l-45 -53q-15 28 -45 46t-68 18q-40 0 -67 -17.5t-43.5 -47.5t-24 -69t-8.5 -81l6 10.5t21.5 22.5t42 22t67.5 10q51 0 84.5 -17 t53.5 -43.5t28 -57.5t8 -59q0 -23 -8 -53t-29 -57.5t-57.5 -46.5t-92.5 -19zM148 170q0 -25 8 -47.5t23 -39.5t36 -27t47 -10q50 0 82.5 29t32.5 89t-32.5 90.5t-82.5 30.5q-24 0 -44.5 -8.5t-36 -24t-24.5 -36.5t-9 -46z" />
<glyph horiz-adv-x="444" d="M427 537v-47q-43 -53 -78.5 -110t-60.5 -122q-23 -59 -35.5 -122.5t-12.5 -135.5h-76q0 79 14.5 146t38.5 125q25 60 57 110t67 94h-310v62h396z" />
<glyph horiz-adv-x="520" d="M460 144q0 -37 -16 -66t-43 -49t-62.5 -30.5t-74.5 -10.5q-42 0 -79 10t-64.5 29t-44 47t-16.5 63q0 39 16 67t36 45q23 20 53 33q-21 9 -38 26q-14 14 -25.5 37t-11.5 58q0 31 13 57.5t36 46t54.5 31t68.5 11.5q36 0 68 -10t55.5 -28.5t37 -44.5t13.5 -57q0 -34 -13 -58 t-29 -39q-18 -18 -41 -30q29 -12 53 -30q20 -16 37 -42.5t17 -65.5zM162 400q0 -21 8.5 -38.5t22 -29.5t31.5 -18.5t38 -6.5t38.5 6.5t32.5 18.5t22.5 29.5t8.5 38.5q0 22 -8.5 39t-22.5 28.5t-32.5 17.5t-38.5 6t-38 -6t-31.5 -17.5t-22 -28.5t-8.5 -39zM136 145 q0 -43 35.5 -70t87.5 -27q26 0 48.5 7t39.5 20t27 31t10 39q0 50 -35.5 77.5t-89.5 27.5t-88.5 -27.5t-34.5 -77.5z" />
<glyph horiz-adv-x="520" d="M256 549q101 0 150.5 -70t49.5 -192q0 -53 -11.5 -106.5t-37.5 -96.5t-70 -69.5t-108 -26.5q-57 0 -98 20t-56 49l43 49q14 -23 45.5 -41.5t69.5 -18.5t65.5 16.5t45 46t26.5 69.5t10 87q-14 -28 -50 -46.5t-90 -18.5q-51 0 -84.5 16.5t-53.5 42t-28 56t-8 57.5 q0 23 10 53.5t32.5 58t58.5 46.5t89 19zM372 366q0 52 -30 88.5t-86 36.5q-50 0 -81.5 -31t-31.5 -88t32.5 -86.5t82.5 -29.5q24 0 44.5 8t36 23t24.5 35t9 44z" />
<glyph horiz-adv-x="539" d="M151 163q0 -45 23 -76.5t71 -31.5q32 0 56.5 13t41.5 35.5t26 52.5t9 64v240h76v-498q0 -56 -15 -98.5t-41.5 -70.5t-64 -41.5t-83.5 -13.5q-52 0 -86 15.5t-55 35.5q-25 22 -39 51l61 35q8 -21 24 -37q14 -14 36 -25.5t57 -11.5t60 12.5t41 34t23.5 50.5t7.5 62v46 q0 20 0.5 43.5t0.5 46.5h-4q-14 -29 -34 -52q-17 -20 -44.5 -35.5t-66.5 -15.5q-33 0 -61.5 9.5t-50 29.5t-33.5 51.5t-12 75.5v301h76v-297z" />
<glyph horiz-adv-x="853" d="M345 363q0 -84 -40 -133.5t-110 -49.5q-72 0 -113 49.5t-41 133.5q0 83 41 132t113 49q70 0 110 -49t40 -132zM283 362q0 60 -24 96t-66 36t-66.5 -36t-24.5 -96t24.5 -95.5t66.5 -35.5t66 35.5t24 95.5zM284 0h-64l347 537h67zM813 172q0 -84 -40 -133.5t-110 -49.5 q-72 0 -113 49.5t-41 133.5q0 83 41 132t113 49q70 0 110 -49t40 -132zM751 171q0 60 -24 96t-66 36t-66.5 -36t-24.5 -96t24.5 -95.5t66.5 -35.5t66 35.5t24 95.5z" />
<glyph horiz-adv-x="1214" d="M345 363q0 -84 -40 -133.5t-110 -49.5q-72 0 -113 49.5t-41 133.5q0 83 41 132t113 49q70 0 110 -49t40 -132zM283 362q0 60 -24 96t-66 36t-66.5 -36t-24.5 -96t24.5 -95.5t66.5 -35.5t66 35.5t24 95.5zM284 0h-64l347 537h67zM813 172q0 -84 -40 -133.5t-110 -49.5 q-72 0 -113 49.5t-41 133.5q0 83 41 132t113 49q70 0 110 -49t40 -132zM751 171q0 60 -24 96t-66 36t-66.5 -36t-24.5 -96t24.5 -95.5t66.5 -35.5t66 35.5t24 95.5zM1174 172q0 -84 -40 -133.5t-110 -49.5q-72 0 -113 49.5t-41 133.5q0 83 41 132t113 49q70 0 110 -49 t40 -132zM1112 171q0 60 -24 96t-66 36t-66.5 -36t-24.5 -96t24.5 -95.5t66.5 -35.5t66 35.5t24 95.5z" />
<glyph horiz-adv-x="800" d="M23 236h108v225q-11 -7 -36.5 -11.5t-57.5 -4.5l-6 48q25 0 42 3.5t32.5 9.5t28 14.5t18.5 17.5h38v-302h103v-48h-270v48zM257 0h-64l347 537h67zM593 351h91v-234h66v-48h-66v-68h-55v68h-179l-18 35l17 26zM629 309l-123 -192h123v192z" />
<glyph horiz-adv-x="800" d="M503 229q-5 18 -5 31q0 21 9.5 38.5t25.5 30.5t38 20.5t47 7.5t47.5 -7t40 -20t27.5 -33t10 -45q0 -34 -12.5 -61.5t-33.5 -51.5t-49 -44.5t-59 -41.5h171v-52h-266v38q36 22 70 47.5t60.5 52.5t43 54t16.5 52q0 23 -15.5 43t-52.5 20q-28 0 -46 -16.5t-18 -42.5 q0 -15 5 -37zM23 236h108v225q-11 -7 -36.5 -11.5t-57.5 -4.5l-6 48q25 0 42 3.5t32.5 9.5t28 14.5t18.5 17.5h38v-302h103v-48h-270v48zM257 0h-64l347 537h67z" />
<glyph horiz-adv-x="800" d="M46 487q14 25 46.5 41t79.5 16q59 0 88.5 -26t29.5 -59q0 -24 -10.5 -39t-22.5 -23q-15 -10 -33 -14q24 -5 43 -16q17 -10 30.5 -28.5t13.5 -50.5q0 -27 -13 -47.5t-33 -34t-44 -20t-45 -6.5q-21 -1 -46 4t-41.5 13t-31.5 18t-21 20l40 46q8 -18 32.5 -36.5t58.5 -18.5 q16 0 31 3.5t27 10.5t19.5 18.5t7.5 28.5q0 29 -17.5 44.5t-62.5 15.5q-7 0 -17.5 -1t-20.5 -2q-12 -2 -25 -3l2 54q5 -1 20.5 -1.5t20.5 -0.5q32 0 55.5 12t23.5 47q0 19 -16.5 33t-53.5 14q-36 0 -55.5 -14.5t-28.5 -37.5zM257 0h-64l347 537h67zM593 351h91v-234h66v-48 h-66v-68h-55v68h-179l-18 35l17 26zM629 309l-123 -192h123v192z" />
<glyph horiz-adv-x="527" d="M226 -11q-63 3 -108 32.5t-63 66.5l52 37q17 -27 48.5 -50t70.5 -28v191q-29 8 -57 19t-49.5 28.5t-35 43.5t-13.5 64q0 33 12.5 59t34 44.5t49.5 29.5t59 15v55h62v-55q61 -5 100.5 -29.5t56.5 -54.5l-53 -39q-14 23 -38.5 43t-65.5 25v-183q30 -8 59 -18.5t52 -27.5 t37 -42t14 -62q0 -64 -44.5 -108.5t-117.5 -53.5v-54h-62v52zM381 139q0 22 -7.5 37t-20.5 25.5t-30 17t-35 10.5v-181q41 4 67 27t26 64zM140 401q0 -38 25.5 -59.5t60.5 -26.5v172q-42 -2 -64 -27t-22 -59z" />
<glyph horiz-adv-x="507" d="M264 223q11 -23 17.5 -48t6.5 -54q0 -10 -3 -18.5t-6 -16.5q-4 -9 -8 -17q13 -4 27 -8q12 -3 27.5 -5t30.5 -2q21 0 31 22t10 54h79q0 -24 -4.5 -49t-17 -46t-35.5 -34t-59 -13q-26 0 -46.5 5.5t-35.5 12.5q-18 8 -32 18q-10 -10 -24 -18q-12 -7 -29 -12.5t-40 -5.5 q-38 0 -63.5 17.5t-25.5 49.5q0 35 21.5 51t47.5 16q14 0 29 -5t26 -10q13 -6 25 -14q0 6 1 11t1.5 10t0.5 9q0 26 -12 50t-28 50h-87v61h55q-17 26 -30 57.5t-13 66.5q0 27 10.5 52.5t32 45t54 31.5t76.5 12q77 0 123 -30.5t61 -69.5l-59 -44q-13 32 -44 57t-82 25 q-46 0 -69.5 -28t-23.5 -64q0 -28 15.5 -56.5t36.5 -54.5h139v-61h-107zM150 36q11 0 19 2.5t14 5.5q7 4 12 9q-7 6 -15 10q-7 4 -15.5 7.5t-16.5 3.5q-7 0 -12.5 -4t-5.5 -14q0 -20 20 -20z" />
<glyph horiz-adv-x="540" d="M304 0h-72v143h-154v61h154l-37 61h-117v61h80l-128 211h70l169 -289l170 289h71l-131 -211h79v-61h-117l-37 -61h154v-61h-154v-143z" />
<glyph horiz-adv-x="535" d="M442 418q-14 25 -41 44t-81 23v-435q49 2 80 22t42 45l62 -37q-8 -17 -24.5 -33t-40 -28.5t-54 -20.5t-65.5 -9v-91h-67v93q-45 7 -82.5 29t-64.5 57.5t-42 83.5t-15 107q0 58 14.5 105.5t41.5 82.5t64.5 57t83.5 30v94h67v-91q36 -1 66 -9.5t53 -21t39.5 -28.5t25.5 -32 zM126 268q0 -84 31.5 -142.5t95.5 -72.5v428q-68 -17 -97.5 -74t-29.5 -139z" />
<glyph horiz-adv-x="598" d="M466 410q22 -29 34 -65.5t12 -78.5q0 -41 -11.5 -76.5t-31.5 -64.5l70 -68l-37 -37l-66 67q-29 -27 -66.5 -41.5t-79.5 -14.5t-80 14.5t-67 41.5l-65 -67l-37 37l68 68q-20 29 -31 64.5t-11 76.5q0 42 12 79t34 66l-72 71l37 37l70 -71q29 25 65 38.5t77 13.5t77 -14 t65 -39l70 72l37 -37zM439 266q0 34 -11.5 63.5t-31.5 51.5t-47 35t-59 13t-59.5 -13t-47.5 -35t-31.5 -51.5t-11.5 -63.5t12 -63.5t32 -52t47.5 -35.5t58.5 -13t58 13t47.5 35.5t32 52t11.5 63.5z" />
<glyph horiz-adv-x="200" d="M48 551l22 171l73 -11l-41 -166z" />
<glyph horiz-adv-x="420" d="M67 0h-64l347 537h67z" />
<glyph horiz-adv-x="550" d="M29 0l199 537h94l198 -537h-71l-52 144h-248l-51 -144h-69zM169 200h208l-104 295zM125 670h300v-55h-300v55z" />
<glyph horiz-adv-x="550" d="M29 0l199 537h94l198 -537h-71l-52 144h-248l-51 -144h-69zM169 200h208l-104 295zM274 671q46 0 70.5 30t24.5 74h68q0 -34 -10.5 -63t-31 -50.5t-51 -33.5t-70.5 -12q-81 0 -122 44.5t-41 114.5h67q0 -44 26 -74t70 -30z" />
<glyph horiz-adv-x="550" d="M29 0l199 537h94l198 -537h-71l-52 144h-248l-51 -144h-69zM169 200h208l-104 295zM517 9q-117 -57 -117 -111q0 -50 43 -50q29 0 54 21l25 -37q-38 -31 -81 -31q-103 0 -103 88q0 59 91 111q15 10 31 17z" />
<glyph horiz-adv-x="556" d="M447 408q-23 38 -56 57.5t-81 19.5q-35 0 -66 -14.5t-54 -42.5t-36.5 -68t-13.5 -92q0 -104 47.5 -160t127.5 -56q49 0 80 16.5t52 54.5l63 -41q-34 -48 -85 -71t-110 -23q-57 0 -104 20.5t-80.5 58t-52 88.5t-18.5 113q0 61 19.5 112.5t53.5 89t79.5 58.5t97.5 21 q66 0 117 -26t81 -77zM362 803l41 -41l-145 -146l-41 41z" />
<glyph horiz-adv-x="556" d="M447 408q-23 38 -56 57.5t-81 19.5q-35 0 -66 -14.5t-54 -42.5t-36.5 -68t-13.5 -92q0 -104 47.5 -160t127.5 -56q49 0 80 16.5t52 54.5l63 -41q-34 -48 -85 -71t-110 -23q-57 0 -104 20.5t-80.5 58t-52 88.5t-18.5 113q0 61 19.5 112.5t53.5 89t79.5 58.5t97.5 21 q66 0 117 -26t81 -77zM492 776l-159 -160h-63l-158 160h81l109 -116l108 116h82z" />
<glyph horiz-adv-x="591" d="M90 0v537h184q67 0 116 -18.5t81 -53.5t47.5 -85t15.5 -113q0 -125 -63 -196t-197 -71h-184zM270 64q51 0 86.5 12.5t57 38t31 63.5t9.5 89q0 100 -42.5 153t-145.5 53h-98v-409h102zM455 776l-159 -160h-63l-158 160h81l109 -116l108 116h82z" />
<glyph horiz-adv-x="601" d="M100 0v240h-80v64h80v233h184q67 0 116 -18.5t81 -53.5t47.5 -85t15.5 -113q0 -125 -63 -196t-197 -71h-184zM280 64q51 0 86.5 12.5t57 38t31 63.5t9.5 89q0 100 -42.5 153t-145.5 53h-98v-169h120v-64h-120v-176h102z" />
<glyph horiz-adv-x="513" d="M168 473v-169h251v-64h-251v-176h282v-64h-360v537h348v-64h-270zM106 670h300v-55h-300v55z" />
<glyph horiz-adv-x="513" d="M168 473v-169h251v-64h-251v-176h282v-64h-360v537h348v-64h-270zM330 676q0 -27 -17 -44q-19 -16 -40 -16q-20 0 -38 16q-17 16 -17 44t17 42q16 15 38 15t40 -15q17 -15 17 -42z" />
<glyph horiz-adv-x="513" d="M168 473v-169h251v-64h-251v-176h282v-64h-360v537h348v-64h-270zM407 9q-117 -57 -117 -111q0 -50 43 -50q29 0 54 21l25 -37q-38 -31 -81 -31q-103 0 -103 88q0 59 91 111q15 10 31 17z" />
<glyph horiz-adv-x="513" d="M168 473v-169h251v-64h-251v-176h282v-64h-360v537h348v-64h-270zM454 776l-159 -160h-63l-158 160h81l109 -116l108 116h82z" />
<glyph horiz-adv-x="602" d="M475 93q-27 -58 -70 -81.5t-102 -23.5q-52 0 -96.5 20t-77 56.5t-51 87.5t-18.5 112q0 63 19.5 115.5t54.5 90t83 58.5t105 21q60 0 113 -25.5t84 -75.5l-59 -41q-22 42 -60.5 60t-80.5 18q-39 0 -72 -14.5t-56.5 -42.5t-37 -69t-13.5 -93q0 -102 47.5 -158t127.5 -56 q38 0 65.5 10.5t45 28.5t26 40.5t8.5 46.5v24h-143v62h219v-264h-53zM325 671q46 0 70.5 30t24.5 74h68q0 -34 -10.5 -63t-31 -50.5t-51 -33.5t-70.5 -12q-81 0 -122 44.5t-41 114.5h67q0 -44 26 -74t70 -30z" />
<glyph horiz-adv-x="602" d="M475 93q-27 -58 -70 -81.5t-102 -23.5q-52 0 -96.5 20t-77 56.5t-51 87.5t-18.5 112q0 63 19.5 115.5t54.5 90t83 58.5t105 21q60 0 113 -25.5t84 -75.5l-59 -41q-22 42 -60.5 60t-80.5 18q-39 0 -72 -14.5t-56.5 -42.5t-37 -69t-13.5 -93q0 -102 47.5 -158t127.5 -56 q38 0 65.5 10.5t45 28.5t26 40.5t8.5 46.5v24h-143v62h219v-264h-53zM255 -249l18 151l73 -11l-37 -146z" />
<glyph horiz-adv-x="258" d="M90 0v537h78v-537h-78zM-21 670h300v-55h-300v55z" />
<glyph horiz-adv-x="258" d="M90 0v537h78v-537h-78zM166 9q-117 -57 -117 -111q0 -50 43 -50q29 0 54 21l25 -37q-38 -31 -81 -31q-103 0 -103 88q0 59 91 111q15 10 31 17z" />
<glyph horiz-adv-x="258" d="M90 0v537h78v-537h-78z" />
<glyph horiz-adv-x="635" d="M550 537v-361q0 -51 -14 -87t-39.5 -58.5t-60.5 -32.5t-76 -10q-38 0 -65.5 8.5t-44.5 19.5q-20 12 -34 29l55 50q9 -13 22 -23q11 -8 29 -15t42 -7q56 0 82 31t26 102v354h78zM90 0v537h78v-537h-78z" />
<glyph horiz-adv-x="544" d="M90 537h78v-272l250 272h80l-215 -230l228 -307h-88l-189 266l-66 -66v-200h-78v537zM215 -249l18 151l73 -11l-37 -146z" />
<glyph horiz-adv-x="462" d="M168 537v-473h252v-64h-330v537h78zM313 803l41 -41l-145 -146l-41 41z" />
<glyph horiz-adv-x="462" d="M168 537v-473h252v-64h-330v537h78zM195 -249l18 151l73 -11l-37 -146z" />
<glyph horiz-adv-x="462" d="M168 537v-473h252v-64h-330v537h78zM263 378l22 171l73 -11l-41 -166z" />
<glyph horiz-adv-x="608" d="M90 0v537h85l284 -455l-7 455h66v-537h-80l-289 459l7 -459h-66zM382 803l41 -41l-145 -146l-41 41z" />
<glyph horiz-adv-x="608" d="M90 0v537h85l284 -455l-7 455h66v-537h-80l-289 459l7 -459h-66zM245 -249l18 151l73 -11l-37 -146z" />
<glyph horiz-adv-x="608" d="M90 0v537h85l284 -455l-7 455h66v-537h-80l-289 459l7 -459h-66zM496 776l-159 -160h-63l-158 160h81l109 -116l108 116h82z" />
<glyph horiz-adv-x="648" d="M588 268q0 -58 -21 -109t-57 -89t-83.5 -60t-101.5 -22q-57 0 -106 20.5t-84 58t-55 88.5t-20 113q0 61 21.5 112.5t58 89t84.5 58.5t101 21q57 0 105 -20.5t83.5 -58t55 -89t19.5 -113.5zM508 268q0 108 -50.5 162.5t-132.5 54.5q-38 0 -71.5 -14.5t-58.5 -42.5t-40 -68 t-15 -92t14 -92t38.5 -67.5t58.5 -42t74 -14.5q85 0 134 56t49 160zM174 670h300v-55h-300v55z" />
<glyph horiz-adv-x="648" d="M588 268q0 -58 -21 -109t-57 -89t-83.5 -60t-101.5 -22q-57 0 -106 20.5t-84 58t-55 88.5t-20 113q0 61 21.5 112.5t58 89t84.5 58.5t101 21q57 0 105 -20.5t83.5 -58t55 -89t19.5 -113.5zM508 268q0 108 -50.5 162.5t-132.5 54.5q-38 0 -71.5 -14.5t-58.5 -42.5t-40 -68 t-15 -92t14 -92t38.5 -67.5t58.5 -42t74 -14.5q85 0 134 56t49 160zM348 803l40 -38l-132 -149l-40 38zM522 803l40 -38l-132 -149l-40 38z" />
<glyph horiz-adv-x="567" d="M474 377q0 -32 -9 -57t-24 -44t-33.5 -32t-37.5 -20l142 -224h-84l-123 207h-137v-207h-78v537h180q98 0 151 -42.5t53 -117.5zM168 262h111q33 0 55 8t35.5 22t19 33t5.5 42q0 53 -29 83.5t-94 30.5h-103v-219zM332 803l41 -41l-145 -146l-41 41z" />
</font>
</defs>
</svg>
