<?xml version="1.0" standalone="no"?>
<!DOCTYPE svg PUBLIC "-//W3C//DTD SVG 1.1//EN" "http://www.w3.org/Graphics/SVG/1.1/DTD/svg11.dtd" >
<svg xmlns="http://www.w3.org/2000/svg">
<metadata></metadata>
<defs>
<font id="aften_screenitalic" horiz-adv-x="600" >
<font-face units-per-em="1000" ascent="700" descent="-300" />
<missing-glyph horiz-adv-x="250" />
<glyph unicode=" "  horiz-adv-x="250" />
<glyph unicode="&#x09;" horiz-adv-x="250" />
<glyph unicode="&#xa0;" horiz-adv-x="250" />
<glyph unicode="!" horiz-adv-x="252" d="M98 187l57 464h76l-57 -464h-76zM176 55q0 -25 -16.5 -43.5t-42.5 -18.5q-23 0 -37 15.5t-14 38.5q0 26 16 44.5t42 18.5q23 0 37.5 -15.5t14.5 -39.5z" />
<glyph unicode="&#x22;" horiz-adv-x="351" d="M109 651h69l-32 -215h-69zM258 651h69l-32 -215h-69z" />
<glyph unicode="#" horiz-adv-x="518" d="M379 175h100l-11 -52h-102l-34 -147h-63l34 147h-100l-34 -147h-63l34 147h-84l11 52h86l30 128h-94l11 53h96l33 145h63l-33 -145h98l35 145h63l-33 -145h89l-9 -53h-93zM346 303h-100l-30 -128h100z" />
<glyph unicode="$" horiz-adv-x="547" d="M367 751l-12 -103q30 -2 56.5 -13t46 -27t31.5 -35t15 -36l-66 -35q-6 29 -27.5 52.5t-63.5 30.5l-27 -230q33 -10 61.5 -24t49.5 -34t33 -46.5t12 -61.5q0 -38 -14.5 -71t-40.5 -58t-63 -41t-82 -20l-13 -101h-62l13 101q-36 1 -67 11.5t-54 26.5t-37.5 36.5t-18.5 43.5 l66 37q9 -35 38.5 -61.5t79.5 -31.5l28 243q-31 10 -58 25t-46.5 35.5t-30.5 47t-11 61.5q0 39 14 71.5t39.5 56.5t60 37t76.5 13l12 100h62zM401 176q0 45 -27 68.5t-65 37.5l-26 -221q53 5 85.5 34.5t32.5 80.5zM176 482q0 -42 24.5 -67.5t58.5 -39.5l26 214 q-60 -2 -84.5 -33.5t-24.5 -73.5z" />
<glyph unicode="%" horiz-adv-x="820" d="M241 0h-64l405 651h64zM215 658q65 0 98 -38t33 -109q0 -107 -44.5 -162t-119.5 -55q-66 0 -97.5 38t-31.5 110q0 52 12 92.5t33.5 68t51.5 41.5t65 14zM186 343q48 0 74 43t26 122q0 49 -17.5 75t-54.5 26q-48 0 -74 -43t-26 -121q0 -50 17.5 -76t54.5 -26zM637 359 q65 0 98 -38t33 -109q0 -107 -44.5 -162t-119.5 -55q-66 0 -97.5 38t-31.5 110q0 52 12 92.5t33.5 68t51.5 41.5t65 14zM608 44q48 0 74 43t26 122q0 49 -17.5 75t-54.5 26q-48 0 -74 -43t-26 -121q0 -50 17.5 -76t54.5 -26z" />
<glyph unicode="&#x26;" horiz-adv-x="676" d="M560 267q-5 -39 -18.5 -77.5t-36.5 -72.5l61 -88l-63 -41l-51 74q-37 -35 -80 -54.5t-100 -19.5q-43 0 -78 12t-60.5 34.5t-39.5 54.5t-14 73q0 48 17.5 83t43 59.5t54 39.5t51.5 23q-19 26 -37.5 59.5t-18.5 77.5q0 36 12.5 66t35 50.5t53 31.5t65.5 11t62.5 -10.5 t46.5 -29t29 -43t10 -51.5q0 -39 -17 -68.5t-41 -52.5t-51 -38.5t-46 -25.5l111 -165q20 42 26 88h74zM277 51q42 0 77 18.5t61 47.5l-136 202q-17 -7 -38 -17t-39 -26.5t-30.5 -40t-12.5 -57.5q0 -21 6 -43t19.5 -41t36 -31t56.5 -12zM262 518q0 -27 17 -61.5t37 -63.5 q15 6 35 16t38 25.5t30.5 37t12.5 49.5q0 36 -22.5 58.5t-59.5 22.5q-40 0 -64 -24t-24 -60z" />
<glyph unicode="'" horiz-adv-x="220" d="M118 651h69l-32 -215h-69z" />
<glyph unicode="(" horiz-adv-x="270" d="M51 134q0 62 8.5 118.5t22 107t31.5 93.5t36 79q43 84 99 149h62q-54 -74 -95 -160q-18 -37 -34.5 -80.5t-30 -92t-21.5 -101.5t-8 -108q0 -72 10 -131t23 -104q14 -52 33 -94h-62q-21 37 -37 86q-14 42 -25.5 101.5t-11.5 136.5z" />
<glyph unicode=")" horiz-adv-x="269" d="M230 357q0 -62 -8.5 -118.5t-22 -107t-31.5 -93.5t-36 -79q-43 -84 -99 -149h-62q54 74 95 160q18 37 34.5 80.5t30 92t21.5 101.5t8 108q0 72 -10 131t-23 104q-14 52 -33 94h62q21 -37 37 -86q14 -42 25.5 -101.5t11.5 -136.5z" />
<glyph unicode="*" horiz-adv-x="400" d="M188 681h67l-5 -145l3 -3l137 50l21 -64l-140 -40l-1 -3l89 -114l-54 -40l-82 121l-3 -1l-81 -120l-55 39l90 116l-2 2l-139 40l20 64l137 -50l3 3z" />
<glyph unicode="+" horiz-adv-x="510" d="M60 257h160v159h70v-159h160v-62h-160v-160h-70v160h-160v62z" />
<glyph unicode="," horiz-adv-x="220" d="M148 106l-13 -107q-8 -35 -20.5 -59.5t-23.5 -40.5q-14 -18 -28 -30l-54 31q9 9 19 23q8 12 16.5 31t14.5 45q2 10 4.5 28.5t4.5 35.5q2 20 4 43h76z" />
<glyph unicode="-" horiz-adv-x="360" d="M44 257h280l-9 -62h-280z" />
<glyph unicode="." horiz-adv-x="220" d="M161 55q0 -25 -16.5 -43.5t-42.5 -18.5q-23 0 -37 15.5t-14 38.5q0 26 16 44.5t42 18.5q23 0 37.5 -15.5t14.5 -39.5z" />
<glyph unicode="/" horiz-adv-x="445" d="M92 -190h-68l330 871h68z" />
<glyph unicode="0" d="M326 549q106 0 160.5 -65.5t54.5 -181.5q0 -71 -19.5 -128.5t-53.5 -99t-79 -64t-96 -22.5q-107 0 -166 65t-59 180q0 74 20.5 133t55.5 99.5t82 62t100 21.5zM290 51q40 0 71.5 18t54 51t34.5 80t12 105q0 85 -35 133t-102 48q-39 0 -72 -17.5t-56.5 -50.5t-37 -80 t-13.5 -106q0 -83 39 -132t105 -49z" />
<glyph unicode="1" horiz-adv-x="450" d="M66 62h134l46 372q-12 -4 -26.5 -8t-30 -7t-31 -5t-27.5 -2v60q51 1 93 19.5t69 45.5h41l-58 -475h121l-7 -62h-331z" />
<glyph unicode="2" horiz-adv-x="530" d="M294 549q39 0 73 -11.5t59 -32.5t39.5 -51.5t14.5 -68.5q0 -53 -28 -100.5t-72 -88t-98 -73.5t-105 -58h289l-8 -65h-405l7 54q69 34 131 71t109.5 77.5t75 85t27.5 92.5q0 50 -29.5 79t-84.5 29q-65 0 -97.5 -38t-32.5 -98q0 -9 1 -19.5t3 -20.5l-63 16q-7 21 -7 46 q0 34 14.5 66t40.5 56t63.5 38.5t82.5 14.5z" />
<glyph unicode="3" horiz-adv-x="530" d="M403 383q0 42 -28 74t-86 32q-30 0 -53.5 -9.5t-40.5 -24.5t-27.5 -33.5t-16.5 -37.5l-49 43q6 21 21.5 43t40 39.5t58.5 28.5t76 11q45 0 79.5 -13t57 -34t34 -48.5t11.5 -57.5q0 -33 -14 -60t-36 -48.5t-48.5 -36.5t-50.5 -23q27 -7 50.5 -21t41.5 -35t28.5 -48 t10.5 -59q0 -45 -17.5 -82.5t-49 -64.5t-74 -42t-93.5 -15q-40 0 -73 9t-58 23.5t-41 33t-23 37.5l52 60q11 -45 50 -73t99 -28q39 0 67 12t46 32t27 45.5t9 51.5q0 24 -7.5 46.5t-24 40t-42.5 28t-63 10.5q-5 0 -16 -0.5t-24 -1t-26.5 -2t-23.5 -3.5l11 71q3 0 10 -0.5 t16 -1t17.5 -0.5h14.5q48 0 81.5 11t55 29.5t31.5 42.5t10 49z" />
<glyph unicode="4" horiz-adv-x="570" d="M526 43h-87l-20 -162h-76l20 162h-321l-15 49l40 49l327 396h104l-51 -433h87zM371 104l46 363l-300 -363h254z" />
<glyph unicode="5" horiz-adv-x="530" d="M276 302q39 0 74.5 -14t61.5 -40.5t41.5 -64t15.5 -83.5q0 -57 -20 -101t-54 -75t-80 -47t-98 -16q-54 0 -91.5 15t-60.5 33q-27 21 -45 48l46 63q14 -28 36 -49q19 -19 48.5 -34t72.5 -15q36 0 67 12.5t53 34.5t34.5 51.5t12.5 63.5q0 72 -33 114.5t-99 42.5 q-27 0 -48 -6t-36 -14q-18 -9 -30 -20l-64 28l81 308h330l-8 -66h-267l-52 -197q11 8 28 14q14 5 35 9.5t49 4.5z" />
<glyph unicode="6" horiz-adv-x="570" d="M289 -12q-59 0 -100.5 21t-67.5 57.5t-38 84.5t-12 102q0 62 16 134t51 133.5t91.5 102t136.5 40.5q53 0 85.5 -13t50.5 -29q21 -18 31 -42l-52 -52q-11 32 -42 53.5t-77 21.5q-53 0 -92.5 -27.5t-65.5 -70t-39 -92.5t-13 -96q4 7 16.5 24.5t33.5 35.5t52 32t72 14 q46 0 82.5 -16.5t62 -44t39 -63t13.5 -72.5q0 -36 -13 -78t-41 -77t-72.5 -59t-107.5 -24zM292 50q66 0 108 42t42 122q0 65 -33 102.5t-103 37.5q-39 0 -68 -12t-48 -33t-28.5 -49t-9.5 -60q0 -30 8.5 -57t26 -48t43.5 -33t62 -12z" />
<glyph unicode="7" horiz-adv-x="490" d="M477 537l-7 -52q-64 -82 -119 -180q-24 -42 -48 -91.5t-45.5 -105t-39.5 -116t-28 -119.5h-73q10 60 27 120.5t37 115t43 102.5t45 89q52 94 111 172h-342l8 65h431z" />
<glyph unicode="8" horiz-adv-x="570" d="M268 -12q-49 0 -89 12.5t-68.5 35.5t-44 55.5t-15.5 73.5q0 36 11 63t28 48t36.5 34.5t36.5 22t28.5 12.5l11.5 4q-23 11 -41 29q-16 16 -28.5 40t-12.5 60q0 40 16 74.5t43 59t63.5 38t77.5 13.5q45 0 82 -11.5t62.5 -32t39.5 -49.5t14 -62q0 -45 -18 -75t-40.5 -48.5 t-42 -26.5t-22.5 -9q31 -13 56 -35q21 -19 39 -49t18 -73q0 -51 -19.5 -88.5t-53 -63.5t-77 -39t-91.5 -13zM195 489q0 -53 30.5 -83.5t85.5 -30.5q27 0 50.5 8.5t41.5 24.5t28.5 38.5t10.5 49.5q0 50 -34 78.5t-90 28.5q-25 0 -47.5 -8t-39 -23t-26.5 -36t-10 -47zM130 173 q0 -55 37 -89.5t103 -34.5q33 0 62.5 10t51 28.5t34.5 44.5t13 59q0 58 -40 91t-101 33q-32 0 -61 -9t-51 -27.5t-35 -44.5t-13 -61z" />
<glyph unicode="9" horiz-adv-x="570" d="M298 549q58 0 100 -19.5t70 -54.5t41.5 -84.5t13.5 -108.5q0 -37 -5 -82.5t-17 -92.5t-33.5 -91.5t-54 -78.5t-78 -55t-106.5 -21q-59 0 -94 14.5t-55 31.5q-23 20 -32 47l47 54q11 -25 30 -43q17 -17 44 -30t69 -13q58 0 95.5 28.5t60 70t33 88t14.5 81.5 q-5 -8 -17 -23.5t-32.5 -31.5t-49 -27.5t-65.5 -11.5q-51 0 -90.5 17.5t-66.5 46.5t-40.5 67t-13.5 80q0 36 11 78.5t38 79t71.5 60.5t111.5 24zM294 487q-66 0 -106.5 -43t-40.5 -123q0 -71 34 -113.5t104 -42.5q39 0 68 14t47.5 37t27.5 53t9 62t-9 61t-27 49.5t-44.5 33 t-62.5 12.5z" />
<glyph unicode=":" horiz-adv-x="220" d="M201 407q0 -25 -16.5 -43.5t-42.5 -18.5q-23 0 -37 15.5t-14 38.5q0 26 16 44.5t42 18.5q23 0 37.5 -15.5t14.5 -39.5zM161 55q0 -25 -16.5 -43.5t-42.5 -18.5q-23 0 -37 15.5t-14 38.5q0 26 16 44.5t42 18.5q23 0 37.5 -15.5t14.5 -39.5z" />
<glyph unicode=";" horiz-adv-x="220" d="M148 106l-13 -107q-8 -35 -20.5 -59.5t-23.5 -40.5q-14 -18 -28 -30l-54 31q9 9 19 23q8 12 16.5 31t14.5 45q2 10 4.5 28.5t4.5 35.5q2 20 4 43h76zM201 407q0 -25 -16.5 -43.5t-42.5 -18.5q-23 0 -37 15.5t-14 38.5q0 26 16 44.5t42 18.5q23 0 37.5 -15.5t14.5 -39.5z " />
<glyph unicode="&#x3c;" horiz-adv-x="510" d="M326 -14l-231 247l231 242l45 -43l-194 -199l192 -206z" />
<glyph unicode="=" horiz-adv-x="510" d="M60 322h390v-62h-390v62zM60 183h390v-62h-390v62z" />
<glyph unicode="&#x3e;" horiz-adv-x="510" d="M121 21l192 206l-194 199l45 43l231 -242l-231 -247z" />
<glyph unicode="?" horiz-adv-x="420" d="M51 563q14 28 39 50q21 19 54 34.5t82 15.5q40 0 73.5 -9t58 -28t38.5 -48.5t14 -69.5q0 -53 -26 -91t-58.5 -61t-61 -33.5t-34.5 -10.5l-16 -124h-76l21 168q28 3 58.5 13t56.5 28t43 45.5t17 63.5q0 41 -25 68.5t-82 27.5q-32 0 -53.5 -11.5t-35.5 -25.5 q-16 -16 -26 -36zM216 55q0 -25 -16.5 -43.5t-42.5 -18.5q-23 0 -37 15.5t-14 38.5q0 26 16 44.5t42 18.5q23 0 37.5 -15.5t14.5 -39.5z" />
<glyph unicode="@" horiz-adv-x="910" d="M613 -148q-23 -9 -51 -15q-24 -6 -56.5 -10.5t-70.5 -4.5q-85 0 -153 26.5t-115 74.5t-72.5 113.5t-25.5 143.5q0 84 30 162t85.5 138t135 96t178.5 36q89 0 153.5 -28.5t106 -74.5t61.5 -104.5t20 -118.5q0 -57 -15.5 -105t-42 -82.5t-61 -54t-73.5 -19.5q-35 0 -55 13 t-31 30q-12 19 -17 44h-4q-9 -25 -27 -44q-15 -17 -40.5 -30t-63.5 -13q-69 0 -107.5 47.5t-38.5 123.5q0 45 13.5 83.5t37.5 67t56 44.5t69 16q30 0 52.5 -10t36.5 -22q17 -14 28 -31l4 2q2 13 3.5 22.5t3.5 15.5l3 12h69q-3 -11 -5 -22q-2 -10 -3.5 -21.5t-3.5 -22.5 l-20 -169q0 -2 -0.5 -3t-0.5 -9q0 -32 13.5 -47.5t35.5 -15.5q21 0 41 14t35 39.5t24.5 62t9.5 82.5q0 45 -12 92.5t-42.5 86.5t-82 63.5t-129.5 24.5q-88 0 -154 -31.5t-110.5 -82.5t-66.5 -116t-22 -132q0 -61 18.5 -116.5t55 -98t90.5 -67.5t125 -25q34 0 63.5 5t51.5 11 q26 7 46 17zM429 86q24 0 45 10t37 28.5t25 45.5t9 61q0 60 -26 87.5t-65 27.5q-48 0 -81.5 -38t-33.5 -107q0 -59 25 -87t65 -28z" />
<glyph unicode="A" horiz-adv-x="603" d="M14 0l291 651h102l136 -651h-73l-33 164h-279l-71 -164h-73zM187 229h237l-75 376z" />
<glyph unicode="B" horiz-adv-x="588" d="M407 348q33 -13 59 -33q22 -17 40.5 -45t18.5 -68q0 -101 -66 -151.5t-183 -50.5h-213l79 651h219q82 0 130 -37t48 -109q0 -27 -11 -51.5t-29 -44.5t-42 -34.5t-50 -23.5v-3zM187 368h131q64 0 101.5 34.5t37.5 94.5q0 41 -27.5 67t-84.5 26h-131zM292 61q33 0 61 10.5 t48.5 29.5t32.5 46.5t12 60.5q0 46 -30.5 74.5t-93.5 28.5h-143l-30 -250h143z" />
<glyph unicode="C" horiz-adv-x="618" d="M515 503q-8 37 -42.5 65.5t-97.5 28.5q-55 0 -97 -25.5t-70.5 -70.5t-43 -105.5t-14.5 -129.5q0 -48 10.5 -87t31.5 -66.5t53 -43t75 -15.5q72 0 113 30t56 73l61 -40q-16 -27 -37 -50.5t-49.5 -41t-65 -27.5t-83.5 -10q-55 0 -100.5 18.5t-78 54t-50.5 86.5t-18 117 q0 91 25 164.5t68 125.5t98.5 80.5t117.5 28.5q45 0 79.5 -10t60 -27t43 -39t28.5 -47z" />
<glyph unicode="D" horiz-adv-x="663" d="M63 0l79 651h193q135 0 204 -70t69 -201q0 -90 -25 -161t-70 -119.5t-108 -74t-139 -25.5h-203zM276 66q117 0 183.5 78t66.5 235q0 101 -45.5 153.5t-142.5 52.5h-125l-63 -519h126z" />
<glyph unicode="E" horiz-adv-x="548" d="M213 585l-27 -224h274l-8 -66h-274l-28 -229h316l-8 -66h-395l79 651h382l-8 -66h-303z" />
<glyph unicode="F" horiz-adv-x="496" d="M213 585l-31 -252h244l-8 -66h-244l-32 -267h-79l79 651h365l-8 -66h-286z" />
<glyph unicode="G" horiz-adv-x="655" d="M597 327l-40 -327h-59l3 76h-4q-13 -25 -35 -44q-20 -17 -51.5 -30.5t-81.5 -13.5q-57 0 -105.5 19t-83 54t-54 86t-19.5 116q0 69 19.5 140t59.5 129t101 94.5t144 36.5q46 0 80.5 -9.5t59.5 -25.5t42.5 -37t30.5 -44l-73 -40q-6 19 -16.5 35.5t-27.5 28.5t-41.5 19 t-57.5 7q-60 0 -105 -26.5t-75 -70.5t-44.5 -102.5t-14.5 -122.5q0 -105 43.5 -163t135.5 -58q37 0 68.5 9.5t55 26.5t37 40t16.5 50l8 81h-176l8 66h252z" />
<glyph unicode="H" horiz-adv-x="670" d="M637 651l-79 -651h-79l36 294h-337l-36 -294h-79l79 651h79l-35 -291h337l35 291h79z" />
<glyph unicode="I" horiz-adv-x="254" d="M63 0l79 651h79l-79 -651h-79z" />
<glyph unicode="J" horiz-adv-x="419" d="M388 651l-54 -441q-13 -107 -59 -164.5t-140 -57.5q-56 0 -98 20t-59 49l62 47q11 -21 33 -35.5t54 -14.5q57 0 87.5 38t39.5 116l54 443h80z" />
<glyph unicode="K" horiz-adv-x="580" d="M181 324l318 327h90l-293 -293l234 -358h-92l-194 323l-70 -64l-32 -259h-79l79 651h79z" />
<glyph unicode="L" horiz-adv-x="488" d="M221 651l-71 -585h296l-8 -66h-375l79 651h79z" />
<glyph unicode="M" horiz-adv-x="773" d="M339 121l-143 457l-59 -578h-73l79 651h98l142 -474l259 474h97l-79 -651h-73l81 578l-254 -457h-75z" />
<glyph unicode="N" horiz-adv-x="656" d="M131 0h-68l79 651h89l259 -563l65 563h68l-79 -651h-89l-259 578z" />
<glyph unicode="O" horiz-adv-x="702" d="M647 387q0 -72 -19 -143.5t-59 -128t-100.5 -92t-142.5 -35.5q-59 0 -107 18.5t-82.5 54t-53.5 87t-19 117.5q0 70 20 141t60 128t100 93t140 36q58 0 106.5 -18.5t83 -54t54 -87t19.5 -116.5zM324 54q65 0 111 28t75 74.5t42 106t13 121.5q0 104 -49 158.5t-130 54.5 q-65 0 -110.5 -28.5t-74.5 -74.5t-42.5 -105.5t-13.5 -120.5q0 -105 49.5 -159.5t129.5 -54.5z" />
<glyph unicode="P" horiz-adv-x="552" d="M526 455q0 -45 -16 -86.5t-45 -73t-70.5 -50.5t-93.5 -19h-132l-27 -226h-79l79 651h168q109 0 162.5 -46.5t53.5 -149.5zM177 292h119q31 0 58.5 11.5t47.5 33t31.5 52t11.5 68.5q0 57 -28.5 92.5t-94.5 35.5h-109z" />
<glyph unicode="Q" horiz-adv-x="702" d="M647 388q0 -52 -13 -106t-37.5 -104t-61 -91t-84.5 -66q14 -14 33.5 -28t41 -28.5t45 -27.5t44.5 -23l-70 -40q-17 6 -36 19t-38.5 29.5t-37.5 36t-31 39.5q-18 -5 -37 -7.5t-39 -2.5q-59 0 -107 18.5t-82.5 54t-53.5 87.5t-19 118q0 67 21 137.5t62 128.5t103 94.5 t143 36.5q58 0 105 -18.5t80 -53.5t51 -86.5t18 -116.5zM324 54q65 0 111 29.5t75 77t42 106.5t13 118q0 105 -47.5 158.5t-128.5 53.5q-65 0 -111 -29.5t-75.5 -77t-43.5 -105.5t-14 -116q0 -106 49.5 -160.5t129.5 -54.5z" />
<glyph unicode="R" horiz-adv-x="568" d="M181 322h115q49 0 80 14t49 36t24.5 49t6.5 52q0 22 -6 42.5t-20.5 36t-39 24.5t-61.5 9h-116zM417 0l-96 256h-148l-31 -256h-79l79 651h183q111 0 162 -46t51 -128q0 -43 -14 -78t-36.5 -61.5t-50.5 -43.5t-56 -23l112 -271h-76z" />
<glyph unicode="S" horiz-adv-x="528" d="M429 513q-10 35 -42.5 60t-83.5 25q-35 0 -58.5 -11.5t-38 -29t-21 -37.5t-6.5 -38q0 -24 10 -42t26.5 -32t38 -24.5t44.5 -20.5q33 -14 64 -28.5t55 -34.5t38.5 -48.5t14.5 -70.5q0 -41 -16.5 -76t-46.5 -61t-72 -41t-93 -15q-41 0 -75.5 10t-60.5 27t-43.5 39.5 t-24.5 48.5l68 40q13 -42 50 -70.5t93 -28.5q31 0 57 8.5t45 23t29.5 34t10.5 42.5q0 27 -10.5 47t-27.5 34.5t-40 26t-47 22.5q-30 13 -59.5 28t-53 36t-38.5 50t-15 71q3 48 20 83t45 58t64.5 34t77.5 11t72.5 -9t55 -25t39 -36.5t24.5 -43.5z" />
<glyph unicode="T" horiz-adv-x="504" d="M70 651h477l-8 -67h-199l-71 -584h-79l71 584h-199z" />
<glyph unicode="U" horiz-adv-x="618" d="M222 651l-53 -436q-2 -9 -2 -17v-16q0 -65 35.5 -96.5t95.5 -31.5q67 0 111 42t54 119l53 436h80l-53 -431q-14 -109 -75.5 -170.5t-170.5 -61.5q-106 0 -158.5 48t-52.5 139q0 21 3 45l53 431h80z" />
<glyph unicode="V" horiz-adv-x="558" d="M590 651l-282 -651h-102l-126 651h76l108 -602l250 602h76z" />
<glyph unicode="W" horiz-adv-x="914" d="M562 651l69 -599l211 599h76l-243 -651h-105l-68 613l-214 -613h-95l-88 651h70l72 -599l208 599h107z" />
<glyph unicode="X" horiz-adv-x="568" d="M83 0h-81l241 330l-157 321h78l134 -285l208 285h80l-241 -321l168 -330h-84l-141 293z" />
<glyph unicode="Y" horiz-adv-x="517" d="M61 651h73l134 -354l218 354h78l-262 -401l-30 -250h-79l30 250z" />
<glyph unicode="Z" horiz-adv-x="520" d="M531 600l-29 -35l-404 -500h377l-8 -65h-464l6 51l30 38l403 497h-349l8 65h436z" />
<glyph unicode="[" horiz-adv-x="320" d="M166 681h169l-9 -64h-98l-105 -743h98l-9 -64h-169z" />
<glyph unicode="\" horiz-adv-x="445" d="M331.006 -190h67.9961l-329.98 871h-67.9961z" />
<glyph unicode="]" horiz-adv-x="320" d="M146 -190h-169l9 64h98l105 743h-98l9 64h169z" />
<glyph unicode="^" horiz-adv-x="510" d="M459 401l-206 192l-199 -194l-43 46l242 230l247 -231z" />
<glyph unicode="_" horiz-adv-x="480" d="M2 -70h460l-9 -66h-459z" />
<glyph unicode="`" horiz-adv-x="270" d="M240 607l-41 -41l-145 146l41 41z" />
<glyph unicode="a" horiz-adv-x="578" d="M472 129q-2 -15 -3.5 -26t-1.5 -17q0 -16 5 -22t17 -6q6 0 12 1t11 3q6 2 12 5l-10 -62q-5 -4 -12 -8q-14 -7 -34 -7q-25 0 -38.5 13.5t-19.5 30t-7 30.5t-1 16h-6q-14 -26 -35 -46q-19 -17 -48 -31.5t-73 -14.5q-45 0 -81 15.5t-61 44t-38.5 69t-13.5 89.5 q0 57 17.5 105.5t49 84.5t75 56t94.5 20q42 0 70.5 -14t45.5 -31q20 -19 32 -44l6 2l12 75h71zM250 51q37 0 67.5 15t51.5 42.5t32.5 65.5t11.5 84q0 78 -35 114.5t-92 36.5q-38 0 -68 -15t-51 -42.5t-32.5 -65t-11.5 -82.5q0 -78 35 -115.5t92 -37.5z" />
<glyph unicode="b" horiz-adv-x="569" d="M281 51q36 0 66.5 14.5t53 41t35 63.5t12.5 82q0 41 -10 70.5t-28 49t-42 28.5t-52 9q-34 0 -63.5 -13.5t-51 -39t-34 -62.5t-12.5 -85q0 -82 35 -120t91 -38zM221 711q-1 0 -3.5 -17.5t-6 -44.5t-7.5 -59.5t-7 -61.5t-5.5 -51.5t-3.5 -28.5q-2 -17 -6 -30.5t-4 -16.5h5 q15 19 36 35q18 14 45.5 25t65.5 11q43 0 79 -15t61.5 -43t39.5 -68t14 -90q0 -55 -17 -104t-48 -85.5t-74.5 -57.5t-97.5 -21q-44 0 -71 13.5t-44 30.5q-19 19 -29 45h-5l-12 -77h-69l88 711h76z" />
<glyph unicode="c" horiz-adv-x="475" d="M389 339q-8 29 -34 49.5t-73 20.5q-39 0 -68.5 -16.5t-50 -45t-31 -65.5t-10.5 -79q0 -75 33 -113.5t96 -38.5q46 0 74.5 17t40.5 41l56 -45q-20 -31 -62.5 -53.5t-103.5 -22.5q-45 0 -83.5 13t-67 40t-44.5 68t-16 97q0 58 18 107t50 84.5t75.5 55t94.5 19.5 q66 0 105.5 -25.5t56.5 -62.5z" />
<glyph unicode="d" horiz-adv-x="562" d="M251 50q34 0 65 13.5t53.5 39t36 63t13.5 85.5q0 79 -34.5 118.5t-93.5 39.5q-35 0 -65.5 -13.5t-53 -39t-36 -63t-13.5 -85.5q0 -79 34.5 -118.5t93.5 -39.5zM547 711q-18 -148 -34 -273q-7 -53 -13.5 -107t-12.5 -100.5t-10 -82.5t-6 -53q-1 -7 -1.5 -14t-0.5 -17 q0 -26 3 -44q1 -11 3 -20h-69q-2 7 -4 16q-3 15 -3 36v6.5t1 7.5h-5q-16 -22 -39 -39q-20 -15 -49 -27t-68 -12q-44 0 -79.5 15t-61 43.5t-39.5 68.5t-14 90q0 57 18 106t50 84.5t75 56t94 20.5q40 0 68.5 -13t45.5 -28q20 -18 33 -41h5q6 66 13 128q3 26 6 53.5t6 53t6 48 t6 38.5h76z" />
<glyph unicode="e" horiz-adv-x="500" d="M124 226q-1 -9 -1 -17v-15q0 -74 32.5 -108t93.5 -34q48 0 79 17t44 40l55 -45q-19 -32 -65 -54t-109 -22q-52 0 -90.5 15.5t-64.5 43.5t-39 67t-13 87q0 50 14.5 98.5t43.5 87t72.5 62t102.5 23.5q45 0 77.5 -14.5t53.5 -39.5t31 -59t10 -74q0 -11 -1.5 -27t-4.5 -32 h-321zM269 417q-55 0 -89.5 -33.5t-46.5 -98.5h246v5q0 2 0.5 5t0.5 7q0 13 -4 33t-15.5 38t-33.5 31t-58 13z" />
<glyph unicode="f" horiz-adv-x="315" d="M133 397h-81l7 63h84l17 118q4 31 18 56.5t34 43.5t46.5 28t56.5 10q32 0 54 -7.5t30 -17.5l-19 -65q-7 8 -23 14.5t-43 6.5q-30 0 -55 -20t-30 -67l-11 -100h105l-7 -63h-107l-62 -519q-4 -32 -17 -55t-32.5 -38.5t-43.5 -23t-50 -7.5q-23 0 -40 5t-28 12l14 66 q8 -5 20 -9.5t30 -4.5q10 0 21.5 2.5t22 10t18.5 22t11 38.5z" />
<glyph unicode="g" horiz-adv-x="549" d="M212 -252q-58 0 -96.5 14.5t-61.5 33t-33.5 35t-11.5 20.5l54 45q1 -3 10 -17t27 -29t47 -27t71 -12q124 0 148 148q2 14 5 32.5t6 36t5 29.5t2 13h-5q-14 -23 -35 -41q-18 -16 -45.5 -28.5t-66.5 -12.5q-43 0 -77.5 16t-58.5 44.5t-36.5 68.5t-12.5 88q0 57 17 106 t48 84.5t72.5 56t91.5 20.5q41 0 67.5 -14t42.5 -31q18 -19 29 -44l6 2l11 75h71l-56 -455q-17 -137 -77.5 -197t-157.5 -60zM246 51q33 0 61.5 13.5t49.5 39.5t33 64t12 87q0 80 -31 117t-85 37q-35 0 -64.5 -15t-51.5 -42t-34 -65t-12 -84q0 -80 34 -116t88 -36z" />
<glyph unicode="h" horiz-adv-x="543" d="M421 -9q-66 0 -66 67q0 14 3 29q5 29 9.5 53t9 47.5t9.5 49t11 56.5q3 16 3 31q0 43 -23.5 64.5t-65.5 21.5q-60 0 -98.5 -44.5t-51.5 -138.5q-1 -9 -3 -23t-4 -32t-4 -37.5t-4 -38.5q-5 -45 -10 -96h-76l86 711h76l-46 -337h5q16 27 40 49q20 18 50.5 33.5t72.5 15.5 q64 0 96.5 -35.5t32.5 -92.5q0 -17 -3 -35q-12 -71 -23 -121.5t-20 -97.5q-1 -5 -1 -10q0 -17 7 -22t19 -5q10 0 20 2q4 1 8 3l-9 -57q-6 -3 -14 -5q-15 -5 -36 -5z" />
<glyph unicode="i" horiz-adv-x="255" d="M143 -9q-43 0 -59.5 21t-16.5 49q0 7 0.5 14t1.5 12l52 373h76l-49 -342q-2 -15 -3 -25.5t-1 -15.5q0 -26 25 -26q6 0 12 1t11 3q6 2 12 5l-9 -55q-5 -4 -12 -7q-14 -7 -40 -7zM232 626q0 -28 -17 -44t-40 -16q-21 0 -38 16t-17 44q0 26 17 41.5t38 15.5q23 0 40 -15.5 t17 -41.5z" />
<glyph unicode="j" horiz-adv-x="255" d="M232 626q0 -28 -17 -44t-40 -16q-21 0 -38 16t-17 44q0 26 17 41.5t38 15.5q23 0 40 -15.5t17 -41.5zM-75 -163q8 -5 20 -9.5t30 -4.5q10 0 21.5 2.5t22 10t18.5 22t11 38.5l73 564h75l-74 -582q-4 -32 -17 -55t-32.5 -38.5t-43.5 -23t-50 -7.5q-23 0 -40 5t-28 12z" />
<glyph unicode="k" horiz-adv-x="505" d="M395 460h89l-210 -199l184 -261h-87l-148 224l-67 -57l-20 -167h-76l86 711h76l-61 -485z" />
<glyph unicode="l" horiz-adv-x="260" d="M140 711h76l-77 -593q-2 -15 -3 -25.5t-1 -15.5q0 -13 11 -19.5t22 -6.5q8 0 15.5 2t13.5 4l14 6l-7 -55q-8 -5 -17 -9q-8 -3 -18 -5.5t-23 -2.5q-49 0 -68 23.5t-19 54.5v9t1 9z" />
<glyph unicode="m" horiz-adv-x="813" d="M445 247q-7 -38 -12.5 -81.5t-10.5 -80.5q-5 -43 -10 -85h-76q11 73 21 135q4 26 8 52.5t8 49t6.5 40t4.5 26.5q1 5 1 9.5v9.5q0 38 -22 63t-64 25q-30 0 -52.5 -13t-38.5 -36t-26.5 -53.5t-16.5 -65.5q-5 -26 -10 -67t-10 -80q-6 -46 -12 -95h-76q13 92 24 169 q4 33 9 65t8.5 59t6.5 46t4 26t1.5 15t0.5 17q0 11 -0.5 22.5t-1.5 20.5q-1 11 -2 20h74q0 -8 1 -16q0 -8 0.5 -16.5t0.5 -17.5q0 -17 -3 -36h4q14 27 34 49q17 18 43.5 33.5t61.5 15.5q45 0 70 -16t37 -36q14 -23 17 -52h4q14 29 36 52q19 20 49 36t73 16q40 0 65.5 -12 t40.5 -30.5t20.5 -41.5t5.5 -45q0 -6 -3.5 -29.5t-10 -58t-15 -77.5t-17.5 -89q-1 -4 -1 -11q0 -14 8 -19t19 -5q8 0 18 2q4 1 9 3l-9 -58q-7 -3 -15 -5q-15 -5 -38 -5q-33 0 -48 15.5t-15 46.5q0 15 3 33q6 28 12 61.5t11.5 64.5t10 55.5t6.5 35.5q1 6 1.5 12t0.5 12 q0 16 -4 31.5t-13 26.5t-24 18t-38 7q-31 0 -55.5 -12.5t-42 -34.5t-29 -52t-17.5 -64z" />
<glyph unicode="n" horiz-adv-x="545" d="M419 -9q-64 0 -64 67q0 14 3 29q8 48 18 95t22 111q3 16 3 31q0 43 -23.5 64.5t-66.5 21.5q-60 0 -99.5 -47.5t-51.5 -135.5q-4 -26 -8.5 -65t-9.5 -75q-5 -42 -11 -87h-76q13 92 24 169q4 33 9 65t8.5 59t6.5 46t4 26t1.5 15t0.5 17q0 11 -0.5 22.5t-1.5 20.5 q-1 11 -2 20h74q0 -8 1 -17q1 -8 1.5 -18t0.5 -20v-15t-2 -16h5q14 27 35 49q18 18 47 33.5t71 15.5q69 0 102 -36.5t33 -93.5v-16.5t-2 -16.5q-6 -37 -12.5 -67t-12 -56t-10.5 -49.5t-9 -45.5q-1 -5 -1 -12q0 -16 7.5 -20.5t18.5 -4.5q10 0 20 2q4 1 8 3l-9 -58 q-6 -3 -14 -5q-15 -5 -38 -5z" />
<glyph unicode="o" horiz-adv-x="533" d="M248 -12q-45 0 -82.5 15.5t-64 43.5t-41 67t-14.5 86q0 62 18 112t50 85.5t76 55t97 19.5q99 0 150 -57t51 -151q0 -62 -17 -113t-48.5 -87t-76 -56t-98.5 -20zM251 51q33 0 62.5 13.5t51 40t34.5 65.5t13 91q0 74 -35.5 111t-92.5 37q-33 0 -62.5 -13.5t-51.5 -40.5 t-34.5 -66.5t-12.5 -91.5q0 -73 35.5 -109.5t92.5 -36.5z" />
<glyph unicode="p" horiz-adv-x="573" d="M287 51q32 0 61.5 13t52 39t36 64.5t13.5 89.5q0 76 -35.5 114t-98.5 38q-32 0 -61.5 -13t-52 -38.5t-36 -63.5t-13.5 -89q0 -76 35.5 -115t98.5 -39zM297 -12q-45 0 -74 12.5t-47 28.5q-21 18 -33 41h-5q0 -10 -1 -20q-1 -8 -1.5 -18.5t-1.5 -18.5q0 -5 -2 -18.5 t-4 -32.5t-5 -42t-6 -47q-7 -55 -15 -123h-76l75 616q1 7 1 13.5v14.5q0 12 -1 24t-2 21q-1 11 -2 21h69q1 -7 3 -16q2 -8 3 -17t1 -19q0 -4 -0.5 -7t-0.5 -7h5q15 21 38 39q20 14 49.5 26.5t71.5 12.5t77 -15.5t60.5 -43.5t40 -67t14.5 -86q0 -59 -18 -108.5t-49.5 -86 t-73.5 -57t-90 -20.5z" />
<glyph unicode="q" horiz-adv-x="558" d="M124 230q-1 -8 -1.5 -16t-0.5 -16q0 -73 38.5 -110t95.5 -37q33 0 62 13t50.5 39t33.5 64.5t12 89.5q0 75 -35 113.5t-93 38.5q-63 0 -107 -45t-55 -134zM349 -250q8 67 15 122q3 24 5.5 47t5 42t4 32.5t2.5 18.5q1 8 2.5 16.5t3.5 15.5q2 8 4 15h-5q-15 -20 -36 -36 q-18 -14 -45 -24.5t-64 -10.5q-44 0 -80 15t-61.5 42t-39.5 65.5t-14 85.5q0 59 17.5 109.5t48 87.5t73 58t92.5 21q47 0 75.5 -14t45.5 -31q19 -19 28 -44h5l12 77h69l-87 -710h-76z" />
<glyph unicode="r" horiz-adv-x="343" d="M331 387q-6 1 -12.5 1.5t-11.5 0.5q-58 0 -97 -43t-49 -115q-8 -51 -13 -93.5t-10 -73.5q-5 -36 -9 -64h-76l53 375q1 7 1 13.5v13.5q0 11 -1 22t-2 19q-1 10 -2 17h72q1 -5 3 -11q1 -5 2 -14t1 -20q0 -10 -2 -27.5t-4 -31.5h5q20 49 55 82.5t83 33.5q5 0 10.5 -0.5 t10.5 -1.5z" />
<glyph unicode="s" horiz-adv-x="434" d="M326 357q-6 15 -17 26q-10 10 -27 18t-44 8q-43 0 -66.5 -17.5t-23.5 -52.5q0 -14 7.5 -25t20.5 -19.5t30.5 -15.5t36.5 -14q24 -9 49.5 -19t45.5 -24t33 -34.5t13 -50.5t-11 -57.5t-34 -47.5t-57.5 -32t-80.5 -12q-53 0 -85 14t-51 31q-22 19 -32 45l66 36q7 -18 21 -32 q12 -12 31.5 -22t51.5 -10q44 0 72.5 18t28.5 53q0 16 -7 27.5t-19 20.5t-28 16t-34 13q-25 9 -50.5 18.5t-46.5 24.5t-34 37t-13 54q0 30 11.5 56t33 44.5t51.5 29t67 10.5q49 0 79.5 -12.5t48.5 -26.5q20 -18 31 -39z" />
<glyph unicode="t" horiz-adv-x="349" d="M127 460l14 98l77 10l-15 -108h143l-9 -63h-143l-38 -263q-2 -8 -2.5 -17t-0.5 -15q0 -23 11.5 -36.5t42.5 -13.5q15 0 28.5 4.5t24.5 10.5q12 7 23 16l20 -63q-13 -9 -30 -16q-14 -6 -33.5 -11t-43.5 -5q-58 0 -88.5 28t-30.5 76q0 6 0.5 12t1.5 13l39 280h-73l9 63h73z " />
<glyph unicode="u" horiz-adv-x="527" d="M180 460l-39 -298q-1 -6 -1 -11.5v-10.5q0 -42 20.5 -66t62.5 -24q61 0 93 43t46 144q4 26 8.5 64.5t9.5 73.5q5 41 11 85h76l-47 -331q-2 -15 -4 -26t-2 -16q0 -15 6 -20.5t17 -5.5q13 0 24 3l12 4l-10 -60q-6 -4 -13 -7q-14 -7 -36 -7q-21 0 -32.5 11t-16.5 24.5 t-6 25.5t-1 15h-6q-15 -23 -37 -41q-19 -16 -47.5 -28.5t-69.5 -12.5q-60 0 -96 36t-36 97q0 8 1 16l2 16l39 307h72z" />
<glyph unicode="v" horiz-adv-x="439" d="M141 0l-96 460h68l80 -423l188 423h71l-216 -460h-95z" />
<glyph unicode="w" horiz-adv-x="698" d="M424 460l43 -423l155 423h70l-179 -460h-101l-43 428l-159 -428h-88l-53 460h65l40 -424l148 424h102z" />
<glyph unicode="x" horiz-adv-x="486" d="M256 262l145 198h85l-190 -236l130 -224h-80l-105 199l-154 -199h-87l204 236l-131 224h78z" />
<glyph unicode="y" horiz-adv-x="510" d="M176 460l-39 -298q-1 -5 -1.5 -11.5t-0.5 -14.5q0 -39 19.5 -62.5t61.5 -23.5q32 0 55.5 14t40.5 38.5t28 57.5t17 71q2 15 5.5 38t6.5 48t6 50.5t6 46t4.5 33t1.5 13.5h76l-57 -483q-7 -60 -27 -103t-51 -71t-71 -41.5t-86 -13.5q-54 0 -87 14t-53 31q-23 19 -34 45 l50 44q9 -20 27 -36q15 -14 40.5 -25t63.5 -11q39 0 66 13t44.5 35t27 50.5t14.5 59.5l8 56t5 34q3 14 4 22q-14 -26 -35 -46q-18 -17 -45.5 -31.5t-66.5 -14.5q-63 0 -100 36.5t-37 98.5v14.5t2 15.5l39 307h72z" />
<glyph unicode="z" horiz-adv-x="435" d="M411 407l-22 -25l-283 -319h268l-9 -63h-350l8 53l32 36l272 308h-254l9 63h337z" />
<glyph unicode="{" horiz-adv-x="370" d="M174 356l26 185q4 29 14 54.5t28 44.5t44.5 30t64.5 11q7 0 14.5 -0.5t15.5 -1.5l-8 -54q-7 1 -8.5 1h-3.5q-10 0 -25 -3t-30 -13.5t-27.5 -31t-17.5 -55.5l-26 -182q-5 -31 -19.5 -49t-30.5 -28q-18 -11 -41 -16l-1 -4q18 -3 33 -13q12 -8 22.5 -23t10.5 -40v-8t-1 -9 l-26 -181q-1 -8 -1.5 -14.5t-0.5 -12.5q0 -26 7.5 -41t18.5 -23t23.5 -10.5t21.5 -2.5h11q3 0 4 1l-8 -54q-20 -3 -35 -3q-30 0 -51 8.5t-34 22.5t-18.5 33.5t-5.5 42.5q0 16 3 34l26 184q1 4 1 7.5v6.5q0 21 -9 33t-21 18t-23 7t-15 1l10 76q35 0 59 19.5t29 52.5z" />
<glyph unicode="|" horiz-adv-x="270" d="M100 -190v871h71v-871h-71z" />
<glyph unicode="}" horiz-adv-x="370" d="M175 135l-26 -185q-4 -29 -14 -54.5t-28 -44.5t-44.5 -30t-64.5 -11q-7 0 -14.5 0.5t-15.5 1.5l8 54q7 -1 8.5 -1h3.5q10 0 25 3t30 13.5t27.5 31t17.5 55.5l26 182q5 31 19.5 49t30.5 28q18 11 41 16l1 4q-18 3 -33 13q-12 8 -22.5 23t-10.5 40v8t1 9l26 181 q1 8 1.5 14.5t0.5 12.5q0 26 -7.5 41t-18.5 23t-23.5 10.5t-21.5 2.5h-11q-3 0 -4 -1l8 54q20 3 35 3q30 0 51 -8.5t34 -22.5t18.5 -33.5t5.5 -42.5q0 -16 -3 -34l-26 -184q-1 -4 -1 -7.5v-6.5q0 -21 9 -33t21 -18t23 -7t15 -1l-10 -76q-35 0 -59 -19.5t-29 -52.5z" />
<glyph unicode="~" horiz-adv-x="510" d="M398 274h52q5 -14 7.5 -32t2.5 -30q0 -40 -21.5 -59.5t-58.5 -19.5q-32 0 -64.5 12.5t-62.5 27t-58 27t-51 12.5t-30.5 -11.5t-7.5 -22.5q0 -8 2 -19t5 -22h-53q-5 13 -7.5 28.5t-2.5 28.5q0 39 21.5 61.5t61.5 22.5q31 0 62.5 -12.5t61.5 -27t57.5 -27t51.5 -12.5 q21 0 29.5 10t8.5 23q0 7 -2 19t-4 23z" />
<glyph unicode="&#xa1;" horiz-adv-x="252" d="M162.006 274.012l-56.9961 -463.972h-75.9961l56.9971 463.972h75.9951zM84.0107 406.003q0 24.999 16.499 43.498t42.4971 18.499q22.999 0 36.998 -15.499t13.999 -38.498q0 -25.998 -15.999 -44.4971t-41.9971 -18.499q-22.999 0 -37.498 15.499t-14.499 39.4971z" />
<glyph unicode="&#xa2;" horiz-adv-x="505" d="M414 342q-8 17 -20 31q-11 12 -27.5 23t-40.5 13l-44 -359q30 3 50.5 13.5t32.5 22.5q14 14 23 31l57 -37q-12 -24 -34 -43q-20 -17 -52.5 -31t-83.5 -17l-11 -91h-67l11 93q-68 11 -108.5 63t-40.5 139q0 49 12 95.5t37.5 84.5t65 64t93.5 35l11 90h67l-12 -92 q42 -3 70 -17t45 -31q20 -19 33 -43zM259 410q-34 -8 -57.5 -29t-38.5 -49t-21.5 -60t-6.5 -63q0 -68 18 -106.5t63 -49.5z" />
<glyph unicode="&#xa3;" horiz-adv-x="587" d="M275 272q14 -21 20 -46t6 -48q0 -26 -6 -49t-21 -51q19 -8 47 -16t53 -8q41 0 55 22t14 54h79q0 -24 -7.5 -49t-24.5 -45.5t-45 -34t-69 -13.5q-40 0 -73.5 15t-56.5 29q-21 -17 -48.5 -30.5t-62.5 -13.5q-44 0 -69 18t-25 49q0 18 7.5 31.5t19 22.5t26 13.5t28.5 4.5 q29 0 56 -8.5t50 -21.5q11 22 11 49q0 32 -13 65t-27 61h-117l7 61h83q-11 24 -24.5 60.5t-13.5 81.5q0 37 14 70.5t41.5 59.5t68 42t94.5 16q80 0 127 -28t68 -67l-64 -44q-12 32 -46.5 54.5t-91.5 22.5q-63 0 -98 -37.5t-35 -106.5q0 -23 5.5 -45.5t13.5 -39.5 q8 -20 19 -39h181l-7 -61h-149zM134 36q20 0 36 3t28 14q-16 11 -32 16t-30 5q-11 0 -20 -5t-9 -16q0 -17 27 -17z" />
<glyph unicode="&#xa4;" horiz-adv-x="620" d="M486 472q22 -29 34 -65.5t12 -78.5q0 -41 -11.5 -76.5t-31.5 -64.5l70 -68l-37 -37l-66 67q-29 -27 -66.5 -41.5t-79.5 -14.5t-80 14.5t-67 41.5l-65 -67l-37 37l68 68q-20 29 -31 64.5t-11 76.5q0 42 12 79t34 66l-72 71l37 37l70 -71q29 25 65 38.5t77 13.5t77 -14 t65 -39l70 72l37 -37zM459 328q0 34 -11.5 63.5t-31.5 51.5t-47 35t-59 13t-59.5 -13t-47.5 -35t-31.5 -51.5t-11.5 -63.5t12 -63.5t32 -52t47.5 -35.5t58.5 -13t58 13t47.5 35.5t32 52t11.5 63.5z" />
<glyph unicode="&#xa5;" d="M92 400h100l-106 251h69l144 -338l235 338h65l-169 -251h104l-8 -61h-137l-52 -76h180l-8 -61h-184l-24 -202h-79l24 202h-179l8 61h174l-31 76h-134z" />
<glyph unicode="&#xa6;" horiz-adv-x="270" d="M100 164h71v-354h-71v354zM171 327h-71v354h71v-354z" />
<glyph unicode="&#xa7;" horiz-adv-x="500" d="M109 57q8 -18 22 -31q12 -12 31.5 -21.5t49.5 -9.5q55 0 85 20t30 52q0 27 -18 44t-45 29.5t-58.5 23.5t-58.5 27t-45 39.5t-18 61.5q0 22 7.5 41.5t18.5 35.5t25 29t28 23q-41 32 -41 96q0 25 10.5 51t33 47t57 34.5t81.5 13.5q49 0 80.5 -13.5t49.5 -30.5 q21 -19 32 -44l-69 -37q-8 17 -20 31q-11 11 -29 21t-47 10q-49 0 -75.5 -21t-26.5 -56q0 -26 17.5 -42t43.5 -28t56 -23t56 -27t43.5 -39.5t17.5 -60.5q0 -22 -7 -41t-18 -34.5t-24.5 -28.5t-26.5 -23q22 -17 34 -39.5t12 -57.5q0 -24 -11.5 -50t-35 -47.5t-59.5 -35.5 t-85 -14q-50 0 -83 13.5t-53 30.5q-24 19 -36 44zM354 281q0 25 -13 42t-34 30t-46.5 23t-50.5 22q-15 -16 -31.5 -40t-16.5 -51q0 -23 13 -38.5t34 -27.5t47 -21.5t51 -20.5q14 15 30.5 36.5t16.5 45.5z" />
<glyph unicode="&#xa8;" horiz-adv-x="280" d="M105 624q0 -26 -17 -42t-42 -16q-23 0 -37.5 14.5t-14.5 37.5q0 27 16.5 43t41.5 16q23 0 38 -14.5t15 -38.5zM306 624q0 -26 -17 -42t-41 -16t-38.5 14.5t-14.5 37.5q0 27 16.5 43t42.5 16q23 0 37.5 -14.5t14.5 -38.5z" />
<glyph unicode="&#xa9;" horiz-adv-x="737" d="M481 243l57 -34q-19 -33 -60.5 -56.5t-95.5 -23.5q-45 0 -82 13.5t-63.5 39t-41 62t-14.5 82.5t15 82t41.5 61.5t63 39t80.5 13.5q54 0 97 -24t61 -58l-62 -36q-10 24 -36 41t-67 17q-36 0 -59 -11.5t-36.5 -31t-18.5 -44t-5 -49.5q0 -26 4.5 -50.5t18 -43.5t38 -31 t63.5 -12q36 0 62.5 15.5t39.5 38.5zM80 326q0 -62 22 -115t61 -93t91.5 -62.5t113.5 -22.5t114 22.5t92 62.5t61 93t22 115q0 61 -22 114.5t-61 93t-92 62t-114 22.5t-113.5 -22.5t-91.5 -62t-61 -93t-22 -114.5zM30 326q0 70 26 131t71.5 107t107 72.5t133.5 26.5 t134 -26.5t107.5 -72.5t71.5 -107t26 -131t-26 -131.5t-71.5 -107.5t-107.5 -72.5t-134 -26.5t-133.5 26.5t-107 72.5t-71.5 107.5t-26 131.5z" />
<glyph unicode="&#xaa;" horiz-adv-x="370" d="M24 476q0 43 13.5 76.5t35.5 56.5t51 34.5t60 11.5q39 0 61 -16t34 -45l13 53h60l-49 -225q-2 -10 -3.5 -16t-1.5 -9q0 -15 23 -15q7 0 17 4q4 2 9 5l-7 -47q-7 -5 -14 -8q-14 -7 -31 -7q-26 0 -35 14.5t-11 25.5q-18 -20 -41 -33.5t-58 -13.5q-60 0 -93 43.5t-33 110.5z M192 608q-55 0 -81.5 -37t-26.5 -94q0 -20 4.5 -39t14 -34.5t23.5 -25t33 -9.5q40 0 67 25t35 71l1 5q1 7 1.5 13.5t0.5 14.5q0 23 -3 43t-11.5 35t-22.5 23.5t-35 8.5z" />
<glyph unicode="&#xab;" horiz-adv-x="486" d="M151 36l-101 180l142 180h75l-138 -180l88 -180h-66zM330 36l-101 180l142 180h75l-138 -180l88 -180h-66z" />
<glyph unicode="&#xac;" horiz-adv-x="510" d="M40 317h430v-197h-58v135h-372v62z" />
<glyph unicode="&#xad;" horiz-adv-x="340" d="M30 257h280v-62h-280v62z" />
<glyph unicode="&#xae;" horiz-adv-x="737" d="M440 138l-63 135h-59v-135h-76v378h132q73 0 110 -34.5t37 -84.5q0 -24 -6 -42t-16.5 -31.5t-24 -22t-27.5 -12.5l74 -151h-81zM318 333h46q26 0 41.5 5.5t24 13.5t11.5 18.5t3 21.5q0 24 -17 42.5t-62 18.5h-47v-120zM80 326q0 -62 22 -115t61 -93t91.5 -62.5 t113.5 -22.5t114 22.5t92 62.5t61 93t22 115q0 61 -22 114.5t-61 93t-92 62t-114 22.5t-113.5 -22.5t-91.5 -62t-61 -93t-22 -114.5zM30 326q0 70 26 131t71.5 107t107 72.5t133.5 26.5t134 -26.5t107.5 -72.5t71.5 -107t26 -131t-26 -131.5t-71.5 -107.5t-107.5 -72.5 t-134 -26.5t-133.5 26.5t-107 72.5t-71.5 107.5t-26 131.5z" />
<glyph unicode="&#xaf;" horiz-adv-x="270" d="M-3 621h303l-6 -55h-303z" />
<glyph unicode="&#xb0;" horiz-adv-x="384" d="M185 710q28 0 53 -10.5t43.5 -28.5t29 -43t10.5 -53q0 -29 -10.5 -53.5t-29 -42.5t-43.5 -28.5t-53 -10.5q-29 0 -53.5 10.5t-43 28.5t-29 42.5t-10.5 53.5q0 28 10.5 53t29 43t43 28.5t53.5 10.5zM185 491q37 0 59.5 23t22.5 61q0 37 -22.5 60.5t-59.5 23.5t-59.5 -23.5 t-22.5 -60.5q0 -38 22.5 -61t59.5 -23z" />
<glyph unicode="&#xb1;" horiz-adv-x="510" d="M60 354h160v159h70v-159h160v-62h-160v-160h-70v160h-160v62zM60 63h390v-62h-390v62z" />
<glyph unicode="&#xb2;" horiz-adv-x="350" d="M62 558q-1 5 -1.5 11.5t-0.5 11.5q0 22 10 41t27.5 33.5t41 22.5t50.5 8q49 0 83 -25.5t34 -77.5q0 -32 -14.5 -59t-39 -51t-57.5 -46.5t-69 -44.5h171l-6 -52h-266l5 38q40 23 78.5 48t69 51t49.5 52t19 52q0 30 -15.5 48t-48.5 18q-30 0 -49.5 -19.5t-19.5 -51.5v-12.5 t1 -12.5z" />
<glyph unicode="&#xb3;" horiz-adv-x="350" d="M63 629q16 25 44 41t73 16q52 0 82 -22.5t30 -60.5q0 -23 -11.5 -38t-25.5 -24q-17 -11 -37 -16q21 -3 38 -14q14 -9 26 -25.5t12 -43.5q0 -32 -13 -54.5t-34 -37t-46.5 -21.5t-50.5 -7q-22 0 -42.5 4.5t-37 12.5t-30 18t-18.5 20l38 48q3 -9 11.5 -19t21 -18.5t27.5 -14 t31 -5.5t31 4t27 12t19 21.5t7 32.5q0 20 -14.5 35.5t-52.5 15.5q-7 0 -14 -0.5t-23 -1.5q-11 -1 -23 -4l9 54q5 -1 18.5 -1.5t18.5 -0.5q32 0 56 12.5t24 45.5q0 21 -14 34.5t-46 13.5q-34 0 -53 -16t-30 -39z" />
<glyph unicode="&#xb4;" horiz-adv-x="270" d="M199 753l41 -41l-145 -146l-41 41z" />
<glyph unicode="&#xb5;" horiz-adv-x="538" d="M26 -250l87 710h70l-34 -282q-3 -17 -3 -31q0 -45 22 -71t60 -26q48 0 83 32.5t48 95.5q3 13 6 32t6.5 41.5t7.5 46.5t7 47q8 55 16 115h76l-47 -331q-2 -15 -3.5 -25.5t-1.5 -15.5q0 -26 23 -26q6 0 12.5 1t11.5 3q6 2 12 5l-9 -62q-7 -4 -14 -7q-14 -7 -36 -7 q-23 0 -36 8.5t-19.5 21t-8.5 25.5t-2 22v10q0 2 1 4h-6q-12 -28 -30 -49q-16 -19 -41.5 -34t-63.5 -15q-29 0 -51 16.5t-37 36.5h-5v-23q0 -3 -1 -19.5t-3 -40.5t-4.5 -53.5t-5 -58t-5.5 -54t-6 -42.5h-76z" />
<glyph unicode="&#xb6;" d="M370 681l-87 -712h-66l35 288q-38 0 -70.5 12.5t-56.5 36t-37.5 58t-13.5 79.5q0 55 18.5 99t50 75t73.5 47.5t88 16.5h66zM601 620h-94l-80 -651h-66l87 712h160z" />
<glyph unicode="&#xb7;" horiz-adv-x="212" d="M161 218q0 -25 -16.5 -43.5t-42.5 -18.5q-23 0 -37 15.5t-14 38.5q0 26 16 44.5t42 18.5q23 0 37.5 -15.5t14.5 -39.5z" />
<glyph unicode="&#xb8;" horiz-adv-x="195" d="M107 17q15 -8 28 -17q64 -44 64 -101q0 -98 -115 -98q-50 0 -84 31l25 37q28 -21 62 -21q50 0 50 56q0 59 -87 105z" />
<glyph unicode="&#xb9;" horiz-adv-x="350" d="M36 378h108l28 225q-13 -7 -39 -11.5t-58 -4.5v48q25 0 42.5 3.5t33.5 9.5t29.5 14.5t21.5 17.5h38l-37 -302h103l-6 -48h-270z" />
<glyph unicode="&#xba;" horiz-adv-x="370" d="M35 476q0 43 12 76.5t34 56.5t51 34.5t64 11.5q65 0 102 -40.5t37 -115.5q0 -40 -12.5 -72.5t-34 -56t-51.5 -36t-66 -12.5q-30 0 -55 11.5t-43 32t-28 49t-10 61.5zM188 608q-46 0 -69.5 -37t-23.5 -94q0 -20 4.5 -39t14.5 -34.5t25.5 -25t37.5 -9.5q42 0 70 34t28 95 q0 23 -4 43t-13.5 35t-26.5 23.5t-43 8.5z" />
<glyph unicode="&#xbb;" horiz-adv-x="486" d="M137 396l101 -180l-142 -180h-75l138 180l-88 180h66zM314 396l101 -180l-142 -180h-75l138 180l-88 180h66z" />
<glyph unicode="&#xbc;" horiz-adv-x="820" d="M261 0h-64l405 651h64zM50 350h108l28 225q-13 -7 -39 -11.5t-58 -4.5v48q25 0 42.5 3.5t33.5 9.5t29.5 14.5t21.5 17.5h38l-37 -302h103l-6 -48h-270zM638 351h77l-28 -234h70l-6 -45h-68l-9 -71h-55l9 71h-173l-14 32l23 29zM659 311l-145 -194h120z" />
<glyph unicode="&#xbd;" horiz-adv-x="820" d="M261 0h-64l405 651h64zM50 350h108l28 225q-13 -7 -39 -11.5t-58 -4.5v48q25 0 42.5 3.5t33.5 9.5t29.5 14.5t21.5 17.5h38l-37 -302h103l-6 -48h-270zM526 229q-1 5 -1.5 11.5t-0.5 11.5q0 22 10 41t27.5 33.5t41 22.5t50.5 8q49 0 83 -25.5t34 -77.5q0 -32 -14.5 -59 t-39 -51t-57.5 -46.5t-69 -44.5h171l-6 -52h-266l5 38q40 23 78.5 48t69 51t49.5 52t19 52q0 30 -15.5 48t-48.5 18q-30 0 -49.5 -19.5t-19.5 -51.5v-12.5t1 -12.5z" />
<glyph unicode="&#xbe;" horiz-adv-x="820" d="M261 0h-64l405 651h64zM115 601q16 25 44 41t73 16q52 0 82 -22.5t30 -60.5q0 -23 -11.5 -38t-25.5 -24q-17 -11 -37 -16q21 -3 38 -14q14 -9 26 -25.5t12 -43.5q0 -32 -13 -54.5t-34 -37t-46.5 -21.5t-50.5 -7q-22 0 -42.5 4.5t-37 12.5t-30 18t-18.5 20l38 48 q3 -9 11.5 -19t21 -18.5t27.5 -14t31 -5.5t31 4t27 12t19 21.5t7 32.5q0 20 -14.5 35.5t-52.5 15.5q-7 0 -14 -0.5t-23 -1.5q-11 -1 -23 -4l9 54q5 -1 18.5 -1.5t18.5 -0.5q32 0 56 12.5t24 45.5q0 21 -14 34.5t-46 13.5q-34 0 -53 -16t-30 -39zM638 351h77l-28 -234h70 l-6 -45h-68l-9 -71h-55l9 71h-173l-14 32l23 29zM659 311l-145 -194h120z" />
<glyph unicode="&#xbf;" horiz-adv-x="420" d="M383.003 -101.966q-13.999 -27.998 -38.9971 -49.9971q-20.999 -18.998 -53.9971 -34.498q-32.998 -15.499 -81.9951 -15.499q-39.9971 0 -73.4951 9q-33.498 8.99902 -57.9971 27.998q-24.498 18.999 -38.4971 48.4971t-13.999 69.4961q0 52.9961 25.998 90.9941 t58.4961 60.9961q32.498 22.999 60.9971 33.498q28.498 10.5 34.4971 10.5l15.999 123.992h75.9961l-20.999 -167.99q-27.998 -3 -58.4961 -12.999t-56.4971 -27.998q-25.998 -17.999 -42.9971 -45.4971q-16.999 -27.499 -16.999 -63.4961q0 -40.998 24.998 -68.4961 q24.999 -27.498 81.9951 -27.498q31.998 0 53.4971 11.499t35.498 25.498q15.999 15.999 25.998 35.998zM218.014 406.003q0 24.999 16.498 43.498q16.499 18.499 42.498 18.499q22.998 0 36.998 -15.499q13.999 -15.499 13.999 -38.498q0 -25.998 -15.999 -44.4971 t-41.998 -18.499q-22.998 0 -37.4971 15.499t-14.499 39.4971z" />
<glyph unicode="&#xc0;" horiz-adv-x="603" d="M14 0l291 651h102l136 -651h-73l-33 164h-279l-71 -164h-73zM187 229h237l-75 376zM412 798l-41 -41l-145 146l41 41z" />
<glyph unicode="&#xc1;" horiz-adv-x="603" d="M14 0l291 651h102l136 -651h-73l-33 164h-279l-71 -164h-73zM187 229h237l-75 376zM481 944l41 -41l-145 -146l-41 41z" />
<glyph unicode="&#xc2;" horiz-adv-x="603" d="M14 0l291 651h102l136 -651h-73l-33 164h-279l-71 -164h-73zM187 229h237l-75 376zM189 757l175 160h62l142 -160h-82l-96 116l-120 -116h-81z" />
<glyph unicode="&#xc3;" horiz-adv-x="603" d="M14 0l291 651h102l136 -651h-73l-33 164h-279l-71 -164h-73zM187 229h237l-75 376zM530 886q1 -6 1.5 -13t0.5 -17q0 -19 -5.5 -36t-16.5 -31.5t-27 -23t-38 -8.5q-25 0 -42 10.5t-31 23.5t-26.5 23.5t-28.5 10.5q-12 0 -18.5 -7t-10 -16t-4.5 -20t-1 -18v-7h-45 q-3 12 -3 34q0 17 5.5 34.5t15.5 31t26.5 21.5t38.5 8q24 0 41 -10.5t31.5 -23.5t27 -23.5t27.5 -10.5q13 0 20.5 7t11 18t4.5 22t1 16v5h45z" />
<glyph unicode="&#xc4;" horiz-adv-x="603" d="M14 0l291 651h102l136 -651h-73l-33 164h-279l-71 -164h-73zM187 229h237l-75 376zM336 815q0 -26 -17 -42t-42 -16q-23 0 -37.5 14.5t-14.5 37.5q0 27 16.5 43t41.5 16q23 0 38 -14.5t15 -38.5zM537 815q0 -26 -17 -42t-41 -16t-38.5 14.5t-14.5 37.5q0 27 16.5 43 t42.5 16q23 0 37.5 -14.5t14.5 -38.5z" />
<glyph unicode="&#xc5;" horiz-adv-x="603" d="M14 0l291 651h102l136 -651h-73l-33 164h-279l-71 -164h-73zM187 229h237l-75 376zM271 863q0 24 8.5 45t24 36.5t37 25t48.5 9.5q49 0 78.5 -31t29.5 -75q0 -24 -8.5 -45.5t-24.5 -37t-37.5 -24.5t-47.5 -9q-51 0 -79.5 30.5t-28.5 75.5zM319 866q0 -28 17 -46.5 t45 -18.5t48 20t20 49q0 26 -18 45.5t-44 19.5q-29 0 -48.5 -20.5t-19.5 -48.5z" />
<glyph unicode="&#xc6;" horiz-adv-x="827" d="M49 0h-72l396 651h434l-8 -66h-298l-27 -224h274l-8 -66h-274l-28 -229h311l-8 -66h-390l20 164h-221zM427 618l-238 -389h190z" />
<glyph unicode="&#xc7;" horiz-adv-x="618" d="M271 17q15 -8 28 -17q64 -44 64 -101q0 -98 -115 -98q-50 0 -84 31l25 37q28 -21 62 -21q50 0 50 56q0 59 -87 105zM515 503q-8 37 -42.5 65.5t-97.5 28.5q-55 0 -97 -25.5t-70.5 -70.5t-43 -105.5t-14.5 -129.5q0 -48 10.5 -87t31.5 -66.5t53 -43t75 -15.5q72 0 113 30 t56 73l61 -40q-16 -27 -37 -50.5t-49.5 -41t-65 -27.5t-83.5 -10q-55 0 -100.5 18.5t-78 54t-50.5 86.5t-18 117q0 91 25 164.5t68 125.5t98.5 80.5t117.5 28.5q45 0 79.5 -10t60 -27t43 -39t28.5 -47z" />
<glyph unicode="&#xc8;" horiz-adv-x="548" d="M213 585l-27 -224h274l-8 -66h-274l-28 -229h316l-8 -66h-395l79 651h382l-8 -66h-303zM412 798l-41 -41l-145 146l41 41z" />
<glyph unicode="&#xc9;" horiz-adv-x="548" d="M213 585l-27 -224h274l-8 -66h-274l-28 -229h316l-8 -66h-395l79 651h382l-8 -66h-303zM457 944l41 -41l-145 -146l-41 41z" />
<glyph unicode="&#xca;" horiz-adv-x="548" d="M213 585l-27 -224h274l-8 -66h-274l-28 -229h316l-8 -66h-395l79 651h382l-8 -66h-303zM155 757l175 160h62l142 -160h-82l-96 116l-120 -116h-81z" />
<glyph unicode="&#xcb;" horiz-adv-x="548" d="M213 585l-27 -224h274l-8 -66h-274l-28 -229h316l-8 -66h-395l79 651h382l-8 -66h-303zM304 815q0 -26 -17 -42t-42 -16q-23 0 -37.5 14.5t-14.5 37.5q0 27 16.5 43t41.5 16q23 0 38 -14.5t15 -38.5zM505 815q0 -26 -17 -42t-41 -16t-38.5 14.5t-14.5 37.5q0 27 16.5 43 t42.5 16q23 0 37.5 -14.5t14.5 -38.5z" />
<glyph unicode="&#xcc;" horiz-adv-x="254" d="M63 0l79 651h79l-79 -651h-79zM238 798l-41 -41l-145 146l41 41z" />
<glyph unicode="&#xcd;" horiz-adv-x="254" d="M63 0l79 651h79l-79 -651h-79zM297 944l41 -41l-145 -146l-41 41z" />
<glyph unicode="&#xce;" horiz-adv-x="254" d="M63 0l79 651h79l-79 -651h-79zM17 757l175 160h62l142 -160h-82l-96 116l-120 -116h-81z" />
<glyph unicode="&#xcf;" horiz-adv-x="254" d="M63 0l79 651h79l-79 -651h-79zM155 815q0 -26 -17 -42t-42 -16q-23 0 -37.5 14.5t-14.5 37.5q0 27 16.5 43t41.5 16q23 0 38 -14.5t15 -38.5zM356 815q0 -26 -17 -42t-41 -16t-38.5 14.5t-14.5 37.5q0 27 16.5 43t42.5 16q23 0 37.5 -14.5t14.5 -38.5z" />
<glyph unicode="&#xd0;" horiz-adv-x="673" d="M83 0l35 296h-88l7 62h89l36 293h183q135 0 204 -70t69 -201q0 -90 -25 -161t-70 -119.5t-108 -74t-139 -25.5h-193zM286 66q117 0 183.5 78t66.5 235q0 101 -45.5 153.5t-142.5 52.5h-115l-28 -227h132l-7 -62h-133l-27 -230h116z" />
<glyph unicode="&#xd1;" horiz-adv-x="656" d="M131 0h-68l79 651h89l259 -563l65 563h68l-79 -651h-89l-259 578zM549 886q1 -6 1.5 -13t0.5 -17q0 -19 -5.5 -36t-16.5 -31.5t-27 -23t-38 -8.5q-25 0 -42 10.5t-31 23.5t-26.5 23.5t-28.5 10.5q-12 0 -18.5 -7t-10 -16t-4.5 -20t-1 -18v-7h-45q-3 12 -3 34 q0 17 5.5 34.5t15.5 31t26.5 21.5t38.5 8q24 0 41 -10.5t31.5 -23.5t27 -23.5t27.5 -10.5q13 0 20.5 7t11 18t4.5 22t1 16v5h45z" />
<glyph unicode="&#xd2;" horiz-adv-x="702" d="M647 387q0 -72 -19 -143.5t-59 -128t-100.5 -92t-142.5 -35.5q-59 0 -107 18.5t-82.5 54t-53.5 87t-19 117.5q0 70 20 141t60 128t100 93t140 36q58 0 106.5 -18.5t83 -54t54 -87t19.5 -116.5zM324 54q65 0 111 28t75 74.5t42 106t13 121.5q0 104 -49 158.5t-130 54.5 q-65 0 -110.5 -28.5t-74.5 -74.5t-42.5 -105.5t-13.5 -120.5q0 -105 49.5 -159.5t129.5 -54.5zM463 798l-41 -41l-145 146l41 41z" />
<glyph unicode="&#xd3;" horiz-adv-x="702" d="M647 387q0 -72 -19 -143.5t-59 -128t-100.5 -92t-142.5 -35.5q-59 0 -107 18.5t-82.5 54t-53.5 87t-19 117.5q0 70 20 141t60 128t100 93t140 36q58 0 106.5 -18.5t83 -54t54 -87t19.5 -116.5zM324 54q65 0 111 28t75 74.5t42 106t13 121.5q0 104 -49 158.5t-130 54.5 q-65 0 -110.5 -28.5t-74.5 -74.5t-42.5 -105.5t-13.5 -120.5q0 -105 49.5 -159.5t129.5 -54.5zM537 944l41 -41l-145 -146l-41 41z" />
<glyph unicode="&#xd4;" horiz-adv-x="702" d="M647 387q0 -72 -19 -143.5t-59 -128t-100.5 -92t-142.5 -35.5q-59 0 -107 18.5t-82.5 54t-53.5 87t-19 117.5q0 70 20 141t60 128t100 93t140 36q58 0 106.5 -18.5t83 -54t54 -87t19.5 -116.5zM324 54q65 0 111 28t75 74.5t42 106t13 121.5q0 104 -49 158.5t-130 54.5 q-65 0 -110.5 -28.5t-74.5 -74.5t-42.5 -105.5t-13.5 -120.5q0 -105 49.5 -159.5t129.5 -54.5zM221 757l175 160h62l142 -160h-82l-96 116l-120 -116h-81z" />
<glyph unicode="&#xd5;" horiz-adv-x="702" d="M647 387q0 -72 -19 -143.5t-59 -128t-100.5 -92t-142.5 -35.5q-59 0 -107 18.5t-82.5 54t-53.5 87t-19 117.5q0 70 20 141t60 128t100 93t140 36q58 0 106.5 -18.5t83 -54t54 -87t19.5 -116.5zM324 54q65 0 111 28t75 74.5t42 106t13 121.5q0 104 -49 158.5t-130 54.5 q-65 0 -110.5 -28.5t-74.5 -74.5t-42.5 -105.5t-13.5 -120.5q0 -105 49.5 -159.5t129.5 -54.5zM556 886q1 -6 1.5 -13t0.5 -17q0 -19 -5.5 -36t-16.5 -31.5t-27 -23t-38 -8.5q-25 0 -42 10.5t-31 23.5t-26.5 23.5t-28.5 10.5q-12 0 -18.5 -7t-10 -16t-4.5 -20t-1 -18v-7h-45 q-3 12 -3 34q0 17 5.5 34.5t15.5 31t26.5 21.5t38.5 8q24 0 41 -10.5t31.5 -23.5t27 -23.5t27.5 -10.5q13 0 20.5 7t11 18t4.5 22t1 16v5h45z" />
<glyph unicode="&#xd6;" horiz-adv-x="702" d="M647 387q0 -72 -19 -143.5t-59 -128t-100.5 -92t-142.5 -35.5q-59 0 -107 18.5t-82.5 54t-53.5 87t-19 117.5q0 70 20 141t60 128t100 93t140 36q58 0 106.5 -18.5t83 -54t54 -87t19.5 -116.5zM324 54q65 0 111 28t75 74.5t42 106t13 121.5q0 104 -49 158.5t-130 54.5 q-65 0 -110.5 -28.5t-74.5 -74.5t-42.5 -105.5t-13.5 -120.5q0 -105 49.5 -159.5t129.5 -54.5zM363 815q0 -26 -17 -42t-42 -16q-23 0 -37.5 14.5t-14.5 37.5q0 27 16.5 43t41.5 16q23 0 38 -14.5t15 -38.5zM564 815q0 -26 -17 -42t-41 -16t-38.5 14.5t-14.5 37.5 q0 27 16.5 43t42.5 16q23 0 37.5 -14.5t14.5 -38.5z" />
<glyph unicode="&#xd7;" horiz-adv-x="510" d="M370 65l-115 114l-115 -114l-46 46l114 115l-114 115l46 46l115 -114l115 114l46 -46l-114 -115l114 -115z" />
<glyph unicode="&#xd8;" horiz-adv-x="702" d="M119 82q-55 73 -55 190q0 92 25.5 164.5t69.5 123t102.5 77t123.5 26.5q51 0 93 -14.5t75 -40.5l54 61l46 -41l-57 -67q23 -35 36 -81t13 -102q0 -92 -26 -164t-69.5 -122.5t-102 -77t-122.5 -26.5q-98 0 -162 50l-46 -53l-46 42zM387 597q-65 0 -111.5 -31t-75.5 -80 t-42.5 -109.5t-13.5 -120.5q0 -70 25 -120l339 414q-45 47 -121 47zM323 54q66 0 112 29.5t74.5 77.5t41 108.5t12.5 122.5q0 66 -20 114l-335 -412q44 -40 115 -40z" />
<glyph unicode="&#xd9;" horiz-adv-x="618" d="M222 651l-53 -436q-2 -9 -2 -17v-16q0 -65 35.5 -96.5t95.5 -31.5q67 0 111 42t54 119l53 436h80l-53 -431q-14 -109 -75.5 -170.5t-170.5 -61.5q-106 0 -158.5 48t-52.5 139q0 21 3 45l53 431h80zM421 798l-41 -41l-145 146l41 41z" />
<glyph unicode="&#xda;" horiz-adv-x="618" d="M222 651l-53 -436q-2 -9 -2 -17v-16q0 -65 35.5 -96.5t95.5 -31.5q67 0 111 42t54 119l53 436h80l-53 -431q-14 -109 -75.5 -170.5t-170.5 -61.5q-106 0 -158.5 48t-52.5 139q0 21 3 45l53 431h80zM494 944l41 -41l-145 -146l-41 41z" />
<glyph unicode="&#xdb;" horiz-adv-x="618" d="M222 651l-53 -436q-2 -9 -2 -17v-16q0 -65 35.5 -96.5t95.5 -31.5q67 0 111 42t54 119l53 436h80l-53 -431q-14 -109 -75.5 -170.5t-170.5 -61.5q-106 0 -158.5 48t-52.5 139q0 21 3 45l53 431h80zM196 757l175 160h62l142 -160h-82l-96 116l-120 -116h-81z" />
<glyph unicode="&#xdc;" horiz-adv-x="618" d="M222 651l-53 -436q-2 -9 -2 -17v-16q0 -65 35.5 -96.5t95.5 -31.5q67 0 111 42t54 119l53 436h80l-53 -431q-14 -109 -75.5 -170.5t-170.5 -61.5q-106 0 -158.5 48t-52.5 139q0 21 3 45l53 431h80zM344 815q0 -26 -17 -42t-42 -16q-23 0 -37.5 14.5t-14.5 37.5 q0 27 16.5 43t41.5 16q23 0 38 -14.5t15 -38.5zM545 815q0 -26 -17 -42t-41 -16t-38.5 14.5t-14.5 37.5q0 27 16.5 43t42.5 16q23 0 37.5 -14.5t14.5 -38.5z" />
<glyph unicode="&#xdd;" horiz-adv-x="517" d="M61 651h73l134 -354l218 354h78l-262 -401l-30 -250h-79l30 250zM425 944l41 -41l-145 -146l-41 41z" />
<glyph unicode="&#xde;" horiz-adv-x="531" d="M310 540q96 0 144 -46.5t48 -131.5q0 -51 -16 -93t-44 -71.5t-65.5 -46t-80.5 -16.5h-141l-16 -135h-79l79 651h79l-13 -111h105zM289 201q37 0 62.5 14t41 36.5t22.5 50t7 53.5q0 25 -7 46.5t-21 37.5t-35.5 25.5t-51.5 9.5h-110l-34 -273h126z" />
<glyph unicode="&#xdf;" horiz-adv-x="563" d="M117 -122q-4 -32 -17 -55t-32.5 -38.5t-43.5 -23t-50 -7.5q-23 0 -40 5t-28 12l14 66q8 -5 20 -9.5t30 -4.5q10 0 21.5 2.5t22 10t18.5 22t11 38.5l80 642q4 37 19.5 70t40.5 58.5t60.5 41t80.5 15.5q46 0 78.5 -14.5t52 -37.5t28.5 -51.5t9 -56.5q0 -52 -20 -85.5 t-44 -53.5q-28 -24 -64 -37v-4q43 -8 76 -30q14 -9 28 -22.5t24.5 -31.5t17 -41t6.5 -52q0 -47 -16 -86.5t-45 -68.5t-69.5 -46t-89.5 -17q-23 0 -40.5 2.5t-29.5 5.5q-14 4 -24 9l8 71q11 -8 26 -13q13 -5 31 -9t41 -4q26 0 49.5 9.5t41.5 28.5t29 47t11 67q0 26 -7.5 51.5 t-25 46t-47 33.5t-72.5 13q-5 0 -11 -0.5t-12 -0.5h-15l8 60q47 0 77.5 14.5t48 37t24.5 50.5t7 52q0 19 -4 37.5t-14.5 33t-29 23t-46.5 8.5q-30 0 -51.5 -11.5t-36.5 -30.5t-23 -38t-12 -52z" />
<glyph unicode="&#xe0;" horiz-adv-x="578" d="M430 607l-41 -41l-145 146l41 41zM472 129q-2 -15 -3.5 -26t-1.5 -17q0 -16 5 -22t17 -6q6 0 12 1t11 3q6 2 12 5l-10 -62q-5 -4 -12 -8q-14 -7 -34 -7q-25 0 -38.5 13.5t-19.5 30t-7 30.5t-1 16h-6q-14 -26 -35 -46q-19 -17 -48 -31.5t-73 -14.5q-45 0 -81 15.5t-61 44 t-38.5 69t-13.5 89.5q0 57 17.5 105.5t49 84.5t75 56t94.5 20q42 0 70.5 -14t45.5 -31q20 -19 32 -44l6 2l12 75h71zM250 51q37 0 67.5 15t51.5 42.5t32.5 65.5t11.5 84q0 78 -35 114.5t-92 36.5q-38 0 -68 -15t-51 -42.5t-32.5 -65t-11.5 -82.5q0 -78 35 -115.5t92 -37.5z " />
<glyph unicode="&#xe1;" horiz-adv-x="578" d="M410 749l41 -41l-145 -146l-41 41zM472 129q-2 -15 -3.5 -26t-1.5 -17q0 -16 5 -22t17 -6q6 0 12 1t11 3q6 2 12 5l-10 -62q-5 -4 -12 -8q-14 -7 -34 -7q-25 0 -38.5 13.5t-19.5 30t-7 30.5t-1 16h-6q-14 -26 -35 -46q-19 -17 -48 -31.5t-73 -14.5q-45 0 -81 15.5t-61 44 t-38.5 69t-13.5 89.5q0 57 17.5 105.5t49 84.5t75 56t94.5 20q42 0 70.5 -14t45.5 -31q20 -19 32 -44l6 2l12 75h71zM250 51q37 0 67.5 15t51.5 42.5t32.5 65.5t11.5 84q0 78 -35 114.5t-92 36.5q-38 0 -68 -15t-51 -42.5t-32.5 -65t-11.5 -82.5q0 -78 35 -115.5t92 -37.5z " />
<glyph unicode="&#xe2;" horiz-adv-x="578" d="M135 566l175 160h62l142 -160h-82l-96 116l-120 -116h-81zM472 129q-2 -15 -3.5 -26t-1.5 -17q0 -16 5 -22t17 -6q6 0 12 1t11 3q6 2 12 5l-10 -62q-5 -4 -12 -8q-14 -7 -34 -7q-25 0 -38.5 13.5t-19.5 30t-7 30.5t-1 16h-6q-14 -26 -35 -46q-19 -17 -48 -31.5t-73 -14.5 q-45 0 -81 15.5t-61 44t-38.5 69t-13.5 89.5q0 57 17.5 105.5t49 84.5t75 56t94.5 20q42 0 70.5 -14t45.5 -31q20 -19 32 -44l6 2l12 75h71zM250 51q37 0 67.5 15t51.5 42.5t32.5 65.5t11.5 84q0 78 -35 114.5t-92 36.5q-38 0 -68 -15t-51 -42.5t-32.5 -65t-11.5 -82.5 q0 -78 35 -115.5t92 -37.5z" />
<glyph unicode="&#xe3;" horiz-adv-x="578" d="M487 695q1 -6 1.5 -13t0.5 -17q0 -19 -5.5 -36t-16.5 -31.5t-27 -23t-38 -8.5q-25 0 -42 10.5t-31 23.5t-26.5 23.5t-28.5 10.5q-12 0 -18.5 -7t-10 -16t-4.5 -20t-1 -18v-7h-45q-3 12 -3 34q0 17 5.5 34.5t16 31t26.5 21.5t38 8q24 0 41.5 -10.5t31.5 -23.5t26.5 -23.5 t27.5 -10.5q13 0 20.5 7t11 18t4.5 22t1 16v5h45zM472 129q-2 -15 -3.5 -26t-1.5 -17q0 -16 5 -22t17 -6q6 0 12 1t11 3q6 2 12 5l-10 -62q-5 -4 -12 -8q-14 -7 -34 -7q-25 0 -38.5 13.5t-19.5 30t-7 30.5t-1 16h-6q-14 -26 -35 -46q-19 -17 -48 -31.5t-73 -14.5 q-45 0 -81 15.5t-61 44t-38.5 69t-13.5 89.5q0 57 17.5 105.5t49 84.5t75 56t94.5 20q42 0 70.5 -14t45.5 -31q20 -19 32 -44l6 2l12 75h71zM250 51q37 0 67.5 15t51.5 42.5t32.5 65.5t11.5 84q0 78 -35 114.5t-92 36.5q-38 0 -68 -15t-51 -42.5t-32.5 -65t-11.5 -82.5 q0 -78 35 -115.5t92 -37.5z" />
<glyph unicode="&#xe4;" horiz-adv-x="578" d="M294 624q0 -26 -17 -42t-42 -16q-23 0 -37.5 14.5t-14.5 37.5q0 27 16.5 43t41.5 16q23 0 38 -14.5t15 -38.5zM495 624q0 -26 -17 -42t-41 -16t-38.5 14.5t-14.5 37.5q0 27 16.5 43t42.5 16q23 0 37.5 -14.5t14.5 -38.5zM472 129q-2 -15 -3.5 -26t-1.5 -17q0 -16 5 -22 t17 -6q6 0 12 1t11 3q6 2 12 5l-10 -62q-5 -4 -12 -8q-14 -7 -34 -7q-25 0 -38.5 13.5t-19.5 30t-7 30.5t-1 16h-6q-14 -26 -35 -46q-19 -17 -48 -31.5t-73 -14.5q-45 0 -81 15.5t-61 44t-38.5 69t-13.5 89.5q0 57 17.5 105.5t49 84.5t75 56t94.5 20q42 0 70.5 -14t45.5 -31 q20 -19 32 -44l6 2l12 75h71zM250 51q37 0 67.5 15t51.5 42.5t32.5 65.5t11.5 84q0 78 -35 114.5t-92 36.5q-38 0 -68 -15t-51 -42.5t-32.5 -65t-11.5 -82.5q0 -78 35 -115.5t92 -37.5z" />
<glyph unicode="&#xe5;" horiz-adv-x="578" d="M215 672q0 24 8.5 45t24 36.5t37 25t48.5 9.5q49 0 78.5 -31t29.5 -75q0 -24 -8.5 -45.5t-24.5 -37t-37.5 -24.5t-47.5 -9q-51 0 -79.5 30.5t-28.5 75.5zM263 675q0 -28 17 -46.5t45 -18.5t48 20t20 49q0 26 -18 45.5t-44 19.5q-29 0 -48.5 -20.5t-19.5 -48.5zM472 129 q-2 -15 -3.5 -26t-1.5 -17q0 -16 5 -22t17 -6q6 0 12 1t11 3q6 2 12 5l-10 -62q-5 -4 -12 -8q-14 -7 -34 -7q-25 0 -38.5 13.5t-19.5 30t-7 30.5t-1 16h-6q-14 -26 -35 -46q-19 -17 -48 -31.5t-73 -14.5q-45 0 -81 15.5t-61 44t-38.5 69t-13.5 89.5q0 57 17.5 105.5t49 84.5 t75 56t94.5 20q42 0 70.5 -14t45.5 -31q20 -19 32 -44l6 2l12 75h71zM250 51q37 0 67.5 15t51.5 42.5t32.5 65.5t11.5 84q0 78 -35 114.5t-92 36.5q-38 0 -68 -15t-51 -42.5t-32.5 -65t-11.5 -82.5q0 -78 35 -115.5t92 -37.5z" />
<glyph unicode="&#xe6;" horiz-adv-x="806" d="M443 204q0 -32 6 -59.5t18.5 -47.5t32.5 -32t48 -12q31 0 52 9.5t34 21.5q15 13 24 31l66 -35q-15 -26 -39 -46q-20 -17 -52.5 -31.5t-79.5 -14.5q-53 0 -85.5 17.5t-50.5 39.5q-21 26 -31 58h-6q-9 -22 -27 -42.5t-41.5 -36.5t-52 -26t-59.5 -10q-41 0 -69 10.5t-45 27 t-24 38t-7 42.5q0 64 49.5 99.5t127.5 42.5l136 11l6 47q1 5 1 9v9q0 42 -25 64t-72 22q-35 0 -59 -12t-38 -26q-17 -17 -27 -37l-61 34q14 29 39 52q21 20 55.5 36t87.5 16q54 0 84 -17t45 -37q18 -24 22 -54h4q15 30 38 54q20 20 49.5 37t71.5 17q37 0 68 -12t53.5 -36 t35 -60t12.5 -84q0 -13 -1 -25.5t-3 -26.5zM576 409q-45 0 -81.5 -38.5t-44.5 -104.5l230 16q1 5 1 12.5v12.5q0 47 -27.5 74.5t-77.5 27.5zM204 52q60 0 101.5 24t49.5 78l7 48q-24 -2 -47 -5q-20 -2 -42.5 -4t-39.5 -4q-52 -5 -76.5 -22t-24.5 -52q0 -29 18.5 -46 t53.5 -17z" />
<glyph unicode="&#xe7;" horiz-adv-x="475" d="M389 339q-8 29 -34 49.5t-73 20.5q-39 0 -68.5 -16.5t-50 -45t-31 -65.5t-10.5 -79q0 -75 33 -113.5t96 -38.5q46 0 74.5 17t40.5 41l56 -45q-20 -31 -62.5 -53.5t-103.5 -22.5q-45 0 -83.5 13t-67 40t-44.5 68t-16 97q0 58 18 107t50 84.5t75.5 55t94.5 19.5 q66 0 105.5 -25.5t56.5 -62.5zM204 17q15 -8 28 -17q64 -44 64 -101q0 -98 -115 -98q-50 0 -84 31l25 37q28 -21 62 -21q50 0 50 56q0 59 -87 105z" />
<glyph unicode="&#xe8;" horiz-adv-x="500" d="M124 226q-1 -9 -1 -17v-15q0 -74 32.5 -108t93.5 -34q48 0 79 17t44 40l55 -45q-19 -32 -65 -54t-109 -22q-52 0 -90.5 15.5t-64.5 43.5t-39 67t-13 87q0 50 14.5 98.5t43.5 87t72.5 62t102.5 23.5q45 0 77.5 -14.5t53.5 -39.5t31 -59t10 -74q0 -11 -1.5 -27t-4.5 -32 h-321zM269 417q-55 0 -89.5 -33.5t-46.5 -98.5h246v5q0 2 0.5 5t0.5 7q0 13 -4 33t-15.5 38t-33.5 31t-58 13zM339 607l-41 -41l-145 146l41 41z" />
<glyph unicode="&#xe9;" horiz-adv-x="500" d="M124 226q-1 -9 -1 -17v-15q0 -74 32.5 -108t93.5 -34q48 0 79 17t44 40l55 -45q-19 -32 -65 -54t-109 -22q-52 0 -90.5 15.5t-64.5 43.5t-39 67t-13 87q0 50 14.5 98.5t43.5 87t72.5 62t102.5 23.5q45 0 77.5 -14.5t53.5 -39.5t31 -59t10 -74q0 -11 -1.5 -27t-4.5 -32 h-321zM269 417q-55 0 -89.5 -33.5t-46.5 -98.5h246v5q0 2 0.5 5t0.5 7q0 13 -4 33t-15.5 38t-33.5 31t-58 13zM406 753l41 -41l-145 -146l-41 41z" />
<glyph unicode="&#xea;" horiz-adv-x="500" d="M124 226q-1 -9 -1 -17v-15q0 -74 32.5 -108t93.5 -34q48 0 79 17t44 40l55 -45q-19 -32 -65 -54t-109 -22q-52 0 -90.5 15.5t-64.5 43.5t-39 67t-13 87q0 50 14.5 98.5t43.5 87t72.5 62t102.5 23.5q45 0 77.5 -14.5t53.5 -39.5t31 -59t10 -74q0 -11 -1.5 -27t-4.5 -32 h-321zM269 417q-55 0 -89.5 -33.5t-46.5 -98.5h246v5q0 2 0.5 5t0.5 7q0 13 -4 33t-15.5 38t-33.5 31t-58 13zM110 566l175 160h62l142 -160h-82l-96 116l-120 -116h-81z" />
<glyph unicode="&#xeb;" horiz-adv-x="500" d="M124 226q-1 -9 -1 -17v-15q0 -74 32.5 -108t93.5 -34q48 0 79 17t44 40l55 -45q-19 -32 -65 -54t-109 -22q-52 0 -90.5 15.5t-64.5 43.5t-39 67t-13 87q0 50 14.5 98.5t43.5 87t72.5 62t102.5 23.5q45 0 77.5 -14.5t53.5 -39.5t31 -59t10 -74q0 -11 -1.5 -27t-4.5 -32 h-321zM269 417q-55 0 -89.5 -33.5t-46.5 -98.5h246v5q0 2 0.5 5t0.5 7q0 13 -4 33t-15.5 38t-33.5 31t-58 13zM269 624q0 -26 -17 -42t-42 -16q-23 0 -37.5 14.5t-14.5 37.5q0 27 16.5 43t41.5 16q23 0 38 -14.5t15 -38.5zM470 624q0 -26 -17 -42t-41 -16t-38.5 14.5 t-14.5 37.5q0 27 16.5 43t42.5 16q23 0 37.5 -14.5t14.5 -38.5z" />
<glyph unicode="&#xec;" horiz-adv-x="255" d="M239 607l-41 -41l-145 146l41 41zM143 -9q-43 0 -59.5 21t-16.5 49q0 7 0.5 14t1.5 12l52 373h76l-49 -342q-2 -15 -3 -25.5t-1 -15.5q0 -26 25 -26q6 0 12 1t11 3q6 2 12 5l-9 -55q-5 -4 -12 -7q-14 -7 -40 -7z" />
<glyph unicode="&#xed;" horiz-adv-x="255" d="M282 753l41 -41l-145 -146l-41 41zM143 -9q-43 0 -59.5 21t-16.5 49q0 7 0.5 14t1.5 12l52 373h76l-49 -342q-2 -15 -3 -25.5t-1 -15.5q0 -26 25 -26q6 0 12 1t11 3q6 2 12 5l-9 -55q-5 -4 -12 -7q-14 -7 -40 -7z" />
<glyph unicode="&#xee;" horiz-adv-x="255" d="M143 -9q-43 0 -59.5 21t-16.5 49q0 7 0.5 14t1.5 12l52 373h76l-49 -342q-2 -15 -3 -25.5t-1 -15.5q0 -26 25 -26q6 0 12 1t11 3q6 2 12 5l-9 -55q-5 -4 -12 -7q-14 -7 -40 -7zM27 566l135 160h62l102 -160h-72l-66 116l-90 -116h-71z" />
<glyph unicode="&#xef;" horiz-adv-x="255" d="M143 -9q-43 0 -59.5 21t-16.5 49q0 7 0.5 14t1.5 12l52 373h76l-49 -342q-2 -15 -3 -25.5t-1 -15.5q0 -26 25 -26q6 0 12 1t11 3q6 2 12 5l-9 -55q-5 -4 -12 -7q-14 -7 -40 -7zM139 624q0 -26 -17 -42t-42 -16q-23 0 -37.5 14.5t-14.5 37.5q0 27 16.5 43t41.5 16 q23 0 38 -14.5t15 -38.5zM340 624q0 -26 -17 -42t-41 -16t-38.5 14.5t-14.5 37.5q0 27 16.5 43t42.5 16q23 0 37.5 -14.5t14.5 -38.5z" />
<glyph unicode="&#xf0;" horiz-adv-x="567" d="M442 359q1 5 1 10.5v11.5q0 27 -5.5 56.5t-15.5 57t-22.5 51t-26.5 38.5l-141 -55l-17 50l122 48q-4 5 -13 12t-19 14.5t-20 14.5t-17 11l41 43q8 -4 21 -13t26.5 -19t25 -20t17.5 -15l100 41l15 -52l-78 -31q32 -42 54 -106t22 -149q0 -80 -17.5 -148t-51.5 -117.5 t-84 -78t-116 -28.5q-54 0 -92 18.5t-62.5 48.5t-35.5 69.5t-11 81.5q0 39 14 85t43 86t74 67t108 27q34 0 61 -11t47 -27.5t32.5 -36t17.5 -36.5zM251 48q35 0 65 15t52 41.5t34.5 62.5t12.5 77q0 33 -7 62.5t-23 52t-40.5 35.5t-58.5 13q-42 0 -72.5 -17.5t-51 -46 t-30 -65t-9.5 -74.5q0 -73 29 -114.5t99 -41.5z" />
<glyph unicode="&#xf1;" horiz-adv-x="545" d="M419 -9q-64 0 -64 67q0 14 3 29q8 48 18 95t22 111q3 16 3 31q0 43 -23.5 64.5t-66.5 21.5q-60 0 -99.5 -47.5t-51.5 -135.5q-4 -26 -8.5 -65t-9.5 -75q-5 -42 -11 -87h-76q13 92 24 169q4 33 9 65t8.5 59t6.5 46t4 26t1.5 15t0.5 17q0 11 -0.5 22.5t-1.5 20.5 q-1 11 -2 20h74q0 -8 1 -17q1 -8 1.5 -18t0.5 -20v-15t-2 -16h5q14 27 35 49q18 18 47 33.5t71 15.5q69 0 102 -36.5t33 -93.5v-16.5t-2 -16.5q-6 -37 -12.5 -67t-12 -56t-10.5 -49.5t-9 -45.5q-1 -5 -1 -12q0 -16 7.5 -20.5t18.5 -4.5q10 0 20 2q4 1 8 3l-9 -58 q-6 -3 -14 -5q-15 -5 -38 -5zM482 695q1 -6 1.5 -13t0.5 -17q0 -19 -5.5 -36t-16.5 -31.5t-27 -23t-38 -8.5q-25 0 -42 10.5t-31 23.5t-26.5 23.5t-28.5 10.5q-12 0 -18.5 -7t-10 -16t-4.5 -20t-1 -18v-7h-45q-3 12 -3 34q0 17 5.5 34.5t16 31t26.5 21.5t38 8 q24 0 41.5 -10.5t31.5 -23.5t26.5 -23.5t27.5 -10.5q13 0 20.5 7t11 18t4.5 22t1 16v5h45z" />
<glyph unicode="&#xf2;" horiz-adv-x="533" d="M248 -12q-45 0 -82.5 15.5t-64 43.5t-41 67t-14.5 86q0 62 18 112t50 85.5t76 55t97 19.5q99 0 150 -57t51 -151q0 -62 -17 -113t-48.5 -87t-76 -56t-98.5 -20zM251 51q33 0 62.5 13.5t51 40t34.5 65.5t13 91q0 74 -35.5 111t-92.5 37q-33 0 -62.5 -13.5t-51.5 -40.5 t-34.5 -66.5t-12.5 -91.5q0 -73 35.5 -109.5t92.5 -36.5zM368 607l-41 -41l-145 146l41 41z" />
<glyph unicode="&#xf3;" horiz-adv-x="533" d="M248 -12q-45 0 -82.5 15.5t-64 43.5t-41 67t-14.5 86q0 62 18 112t50 85.5t76 55t97 19.5q99 0 150 -57t51 -151q0 -62 -17 -113t-48.5 -87t-76 -56t-98.5 -20zM251 51q33 0 62.5 13.5t51 40t34.5 65.5t13 91q0 74 -35.5 111t-92.5 37q-33 0 -62.5 -13.5t-51.5 -40.5 t-34.5 -66.5t-12.5 -91.5q0 -73 35.5 -109.5t92.5 -36.5zM414 753l41 -41l-145 -146l-41 41z" />
<glyph unicode="&#xf4;" horiz-adv-x="533" d="M248 -12q-45 0 -82.5 15.5t-64 43.5t-41 67t-14.5 86q0 62 18 112t50 85.5t76 55t97 19.5q99 0 150 -57t51 -151q0 -62 -17 -113t-48.5 -87t-76 -56t-98.5 -20zM251 51q33 0 62.5 13.5t51 40t34.5 65.5t13 91q0 74 -35.5 111t-92.5 37q-33 0 -62.5 -13.5t-51.5 -40.5 t-34.5 -66.5t-12.5 -91.5q0 -73 35.5 -109.5t92.5 -36.5zM125 566l175 160h62l142 -160h-82l-96 116l-120 -116h-81z" />
<glyph unicode="&#xf5;" horiz-adv-x="533" d="M248 -12q-45 0 -82.5 15.5t-64 43.5t-41 67t-14.5 86q0 62 18 112t50 85.5t76 55t97 19.5q99 0 150 -57t51 -151q0 -62 -17 -113t-48.5 -87t-76 -56t-98.5 -20zM251 51q33 0 62.5 13.5t51 40t34.5 65.5t13 91q0 74 -35.5 111t-92.5 37q-33 0 -62.5 -13.5t-51.5 -40.5 t-34.5 -66.5t-12.5 -91.5q0 -73 35.5 -109.5t92.5 -36.5zM469 695q1 -6 1.5 -13t0.5 -17q0 -19 -5.5 -36t-16.5 -31.5t-27 -23t-38 -8.5q-25 0 -42 10.5t-31 23.5t-26.5 23.5t-28.5 10.5q-12 0 -18.5 -7t-10 -16t-4.5 -20t-1 -18v-7h-45q-3 12 -3 34q0 17 5.5 34.5t16 31 t26.5 21.5t38 8q24 0 41.5 -10.5t31.5 -23.5t26.5 -23.5t27.5 -10.5q13 0 20.5 7t11 18t4.5 22t1 16v5h45z" />
<glyph unicode="&#xf6;" horiz-adv-x="533" d="M248 -12q-45 0 -82.5 15.5t-64 43.5t-41 67t-14.5 86q0 62 18 112t50 85.5t76 55t97 19.5q99 0 150 -57t51 -151q0 -62 -17 -113t-48.5 -87t-76 -56t-98.5 -20zM251 51q33 0 62.5 13.5t51 40t34.5 65.5t13 91q0 74 -35.5 111t-92.5 37q-33 0 -62.5 -13.5t-51.5 -40.5 t-34.5 -66.5t-12.5 -91.5q0 -73 35.5 -109.5t92.5 -36.5zM289 624q0 -26 -17 -42t-42 -16q-23 0 -37.5 14.5t-14.5 37.5q0 27 16.5 43t41.5 16q23 0 38 -14.5t15 -38.5zM490 624q0 -26 -17 -42t-41 -16t-38.5 14.5t-14.5 37.5q0 27 16.5 43t42.5 16q23 0 37.5 -14.5 t14.5 -38.5z" />
<glyph unicode="&#xf7;" horiz-adv-x="510" d="M60 257h390v-62h-390v62zM311 375q0 -28 -17 -44t-40 -16q-21 0 -38 16t-17 44q0 26 17 41.5t38 15.5q23 0 40 -15.5t17 -41.5zM311 90q0 -28 -17 -44t-40 -16q-21 0 -38 16t-17 44q0 26 17 41.5t38 15.5q23 0 40 -15.5t17 -41.5z" />
<glyph unicode="&#xf8;" horiz-adv-x="533" d="M75 82q-29 50 -29 118q0 62 18 112t50 85.5t76 55t97 19.5q50 0 87 -15t63 -43l61 54l34 -41l-65 -58q21 -45 21 -105q0 -62 -17 -113t-48.5 -87t-76 -56t-98.5 -20q-43 0 -78 13.5t-61 37.5l-59 -53l-33 43zM123 197q0 -38 9 -65l250 233q-35 44 -98 44 q-33 0 -62.5 -13.5t-51.5 -40.5t-34.5 -66.5t-12.5 -91.5zM251 51q33 0 62.5 13.5t51 40t34.5 65.5t13 91q0 32 -8 61l-248 -232q33 -39 95 -39z" />
<glyph unicode="&#xf9;" horiz-adv-x="527" d="M180 460l-39 -298q-1 -6 -1 -11.5v-10.5q0 -42 20.5 -66t62.5 -24q61 0 93 43t46 144q4 26 8.5 64.5t9.5 73.5q5 41 11 85h76l-47 -331q-2 -15 -4 -26t-2 -16q0 -15 6 -20.5t17 -5.5q13 0 24 3l12 4l-10 -60q-6 -4 -13 -7q-14 -7 -36 -7q-21 0 -32.5 11t-16.5 24.5 t-6 25.5t-1 15h-6q-15 -23 -37 -41q-19 -16 -47.5 -28.5t-69.5 -12.5q-60 0 -96 36t-36 97q0 8 1 16l2 16l39 307h72zM368 607l-41 -41l-145 146l41 41z" />
<glyph unicode="&#xfa;" horiz-adv-x="527" d="M180 460l-39 -298q-1 -6 -1 -11.5v-10.5q0 -42 20.5 -66t62.5 -24q61 0 93 43t46 144q4 26 8.5 64.5t9.5 73.5q5 41 11 85h76l-47 -331q-2 -15 -4 -26t-2 -16q0 -15 6 -20.5t17 -5.5q13 0 24 3l12 4l-10 -60q-6 -4 -13 -7q-14 -7 -36 -7q-21 0 -32.5 11t-16.5 24.5 t-6 25.5t-1 15h-6q-15 -23 -37 -41q-19 -16 -47.5 -28.5t-69.5 -12.5q-60 0 -96 36t-36 97q0 8 1 16l2 16l39 307h72zM415 753l41 -41l-145 -146l-41 41z" />
<glyph unicode="&#xfb;" horiz-adv-x="527" d="M180 460l-39 -298q-1 -6 -1 -11.5v-10.5q0 -42 20.5 -66t62.5 -24q61 0 93 43t46 144q4 26 8.5 64.5t9.5 73.5q5 41 11 85h76l-47 -331q-2 -15 -4 -26t-2 -16q0 -15 6 -20.5t17 -5.5q13 0 24 3l12 4l-10 -60q-6 -4 -13 -7q-14 -7 -36 -7q-21 0 -32.5 11t-16.5 24.5 t-6 25.5t-1 15h-6q-15 -23 -37 -41q-19 -16 -47.5 -28.5t-69.5 -12.5q-60 0 -96 36t-36 97q0 8 1 16l2 16l39 307h72zM121 566l175 160h62l142 -160h-82l-96 116l-120 -116h-81z" />
<glyph unicode="&#xfc;" horiz-adv-x="527" d="M180 460l-39 -298q-1 -6 -1 -11.5v-10.5q0 -42 20.5 -66t62.5 -24q61 0 93 43t46 144q4 26 8.5 64.5t9.5 73.5q5 41 11 85h76l-47 -331q-2 -15 -4 -26t-2 -16q0 -15 6 -20.5t17 -5.5q13 0 24 3l12 4l-10 -60q-6 -4 -13 -7q-14 -7 -36 -7q-21 0 -32.5 11t-16.5 24.5 t-6 25.5t-1 15h-6q-15 -23 -37 -41q-19 -16 -47.5 -28.5t-69.5 -12.5q-60 0 -96 36t-36 97q0 8 1 16l2 16l39 307h72zM273 624q0 -26 -17 -42t-42 -16q-23 0 -37.5 14.5t-14.5 37.5q0 27 16.5 43t41.5 16q23 0 38 -14.5t15 -38.5zM474 624q0 -26 -17 -42t-41 -16t-38.5 14.5 t-14.5 37.5q0 27 16.5 43t42.5 16q23 0 37.5 -14.5t14.5 -38.5z" />
<glyph unicode="&#xfd;" horiz-adv-x="510" d="M176 460l-39 -298q-1 -5 -1.5 -11.5t-0.5 -14.5q0 -39 19.5 -62.5t61.5 -23.5q32 0 55.5 14t40.5 38.5t28 57.5t17 71q2 15 5.5 38t6.5 48t6 50.5t6 46t4.5 33t1.5 13.5h76l-57 -483q-7 -60 -27 -103t-51 -71t-71 -41.5t-86 -13.5q-54 0 -87 14t-53 31q-23 19 -34 45 l50 44q9 -20 27 -36q15 -14 40.5 -25t63.5 -11q39 0 66 13t44.5 35t27 50.5t14.5 59.5l8 56t5 34q3 14 4 22q-14 -26 -35 -46q-18 -17 -45.5 -31.5t-66.5 -14.5q-63 0 -100 36.5t-37 98.5v14.5t2 15.5l39 307h72zM410 753l41 -41l-145 -146l-41 41z" />
<glyph unicode="&#xfe;" horiz-adv-x="573" d="M450 257q0 76 -35 114.5t-98 38.5q-34 0 -63.5 -14.5t-52 -41t-35.5 -64.5t-13 -85q0 -76 35.5 -115t98.5 -39q32 0 61.5 14t52 40.5t36 64.5t13.5 87zM26 -250l117 961h77l-31 -242q-1 -12 -4 -24q-2 -11 -5 -24.5t-8 -26.5h5q16 21 39 39q20 15 49.5 27.5t71.5 12.5 t77.5 -15.5t60.5 -44t39 -67.5t14 -86q0 -56 -17.5 -105.5t-48.5 -86.5t-73.5 -58.5t-91.5 -21.5q-45 0 -74 12.5t-47 28.5q-21 18 -33 41h-5q0 -10 -1 -20q-1 -8 -1.5 -18.5t-1.5 -18.5q0 -5 -2 -18.5t-4 -32.5t-5 -42t-6 -47q-7 -55 -15 -123h-76z" />
<glyph unicode="&#xff;" horiz-adv-x="510" d="M176 460l-39 -298q-1 -5 -1.5 -11.5t-0.5 -14.5q0 -39 19.5 -62.5t61.5 -23.5q32 0 55.5 14t40.5 38.5t28 57.5t17 71q2 15 5.5 38t6.5 48t6 50.5t6 46t4.5 33t1.5 13.5h76l-57 -483q-7 -60 -27 -103t-51 -71t-71 -41.5t-86 -13.5q-54 0 -87 14t-53 31q-23 19 -34 45 l50 44q9 -20 27 -36q15 -14 40.5 -25t63.5 -11q39 0 66 13t44.5 35t27 50.5t14.5 59.5l8 56t5 34q3 14 4 22q-14 -26 -35 -46q-18 -17 -45.5 -31.5t-66.5 -14.5q-63 0 -100 36.5t-37 98.5v14.5t2 15.5l39 307h72zM260 624q0 -26 -17 -42t-42 -16q-23 0 -37.5 14.5 t-14.5 37.5q0 27 16.5 43t41.5 16q23 0 38 -14.5t15 -38.5zM461 624q0 -26 -17 -42t-41 -16t-38.5 14.5t-14.5 37.5q0 27 16.5 43t42.5 16q23 0 37.5 -14.5t14.5 -38.5z" />
<glyph unicode="&#x100;" horiz-adv-x="603" d="M14 0l291 651h102l136 -651h-73l-33 164h-279l-71 -164h-73zM187 229h237l-75 376zM215 812h303l-6 -55h-303z" />
<glyph unicode="&#x101;" horiz-adv-x="578" d="M472 129q-2 -15 -3.5 -26t-1.5 -17q0 -16 5 -22t17 -6q6 0 12 1t11 3q6 2 12 5l-10 -62q-5 -4 -12 -8q-14 -7 -34 -7q-25 0 -38.5 13.5t-19.5 30t-7 30.5t-1 16h-6q-14 -26 -35 -46q-19 -17 -48 -31.5t-73 -14.5q-45 0 -81 15.5t-61 44t-38.5 69t-13.5 89.5 q0 57 17.5 105.5t49 84.5t75 56t94.5 20q42 0 70.5 -14t45.5 -31q20 -19 32 -44l6 2l12 75h71zM250 51q37 0 67.5 15t51.5 42.5t32.5 65.5t11.5 84q0 78 -35 114.5t-92 36.5q-38 0 -68 -15t-51 -42.5t-32.5 -65t-11.5 -82.5q0 -78 35 -115.5t92 -37.5zM177 621h303l-6 -55 h-303z" />
<glyph unicode="&#x102;" horiz-adv-x="603" d="M14 0l291 651h102l136 -651h-73l-33 164h-279l-71 -164h-73zM187 229h237l-75 376zM372 812q46 0 73.5 30t32.5 74h68q-4 -34 -17.5 -63t-36 -50.5t-54.5 -33.5t-72 -12q-81 0 -117 44.5t-28 114.5h66q-5 -44 18 -74t67 -30z" />
<glyph unicode="&#x103;" horiz-adv-x="578" d="M472 129q-2 -15 -3.5 -26t-1.5 -17q0 -16 5 -22t17 -6q6 0 12 1t11 3q6 2 12 5l-10 -62q-5 -4 -12 -8q-14 -7 -34 -7q-25 0 -38.5 13.5t-19.5 30t-7 30.5t-1 16h-6q-14 -26 -35 -46q-19 -17 -48 -31.5t-73 -14.5q-45 0 -81 15.5t-61 44t-38.5 69t-13.5 89.5 q0 57 17.5 105.5t49 84.5t75 56t94.5 20q42 0 70.5 -14t45.5 -31q20 -19 32 -44l6 2l12 75h71zM250 51q37 0 67.5 15t51.5 42.5t32.5 65.5t11.5 84q0 78 -35 114.5t-92 36.5q-38 0 -68 -15t-51 -42.5t-32.5 -65t-11.5 -82.5q0 -78 35 -115.5t92 -37.5zM319 621q46 0 73.5 30 t32.5 74h68q-4 -34 -17.5 -63t-36 -50.5t-54.5 -33.5t-72 -12q-81 0 -117 44.5t-28 114.5h66q-5 -44 18 -74t67 -30z" />
<glyph unicode="&#x104;" horiz-adv-x="603" d="M531 9q-127 -57 -127 -111q0 -50 43 -50q29 0 54 21l25 -37q-38 -31 -81 -31q-103 0 -103 88q0 59 98 111q17 10 34 17zM14 0l291 651h102l136 -651h-73l-33 164h-279l-71 -164h-73zM187 229h237l-75 376z" />
<glyph unicode="&#x105;" horiz-adv-x="578" d="M472 129q-2 -15 -3.5 -26t-1.5 -17q0 -16 5 -22t17 -6q6 0 12 1t11 3q6 2 12 5l-10 -62q-5 -4 -12 -8q-14 -7 -34 -7q-25 0 -38.5 13.5t-19.5 30t-7 30.5t-1 16h-6q-14 -26 -35 -46q-19 -17 -48 -31.5t-73 -14.5q-45 0 -81 15.5t-61 44t-38.5 69t-13.5 89.5 q0 57 17.5 105.5t49 84.5t75 56t94.5 20q42 0 70.5 -14t45.5 -31q20 -19 32 -44l6 2l12 75h71zM250 51q37 0 67.5 15t51.5 42.5t32.5 65.5t11.5 84q0 78 -35 114.5t-92 36.5q-38 0 -68 -15t-51 -42.5t-32.5 -65t-11.5 -82.5q0 -78 35 -115.5t92 -37.5zM512 9 q-127 -57 -127 -111q0 -50 43 -50q29 0 54 21l25 -37q-38 -31 -81 -31q-103 0 -103 88q0 59 98 111q17 10 34 17z" />
<glyph unicode="&#x106;" horiz-adv-x="618" d="M515 503q-8 37 -42.5 65.5t-97.5 28.5q-55 0 -97 -25.5t-70.5 -70.5t-43 -105.5t-14.5 -129.5q0 -48 10.5 -87t31.5 -66.5t53 -43t75 -15.5q72 0 113 30t56 73l61 -40q-16 -27 -37 -50.5t-49.5 -41t-65 -27.5t-83.5 -10q-55 0 -100.5 18.5t-78 54t-50.5 86.5t-18 117 q0 91 25 164.5t68 125.5t98.5 80.5t117.5 28.5q45 0 79.5 -10t60 -27t43 -39t28.5 -47zM480 944l41 -41l-145 -146l-41 41z" />
<glyph unicode="&#x107;" horiz-adv-x="475" d="M389 339q-8 29 -34 49.5t-73 20.5q-39 0 -68.5 -16.5t-50 -45t-31 -65.5t-10.5 -79q0 -75 33 -113.5t96 -38.5q46 0 74.5 17t40.5 41l56 -45q-20 -31 -62.5 -53.5t-103.5 -22.5q-45 0 -83.5 13t-67 40t-44.5 68t-16 97q0 58 18 107t50 84.5t75.5 55t94.5 19.5 q66 0 105.5 -25.5t56.5 -62.5zM397 753l41 -41l-145 -146l-41 41z" />
<glyph unicode="&#x108;" horiz-adv-x="618" d="M515 503q-8 37 -42.5 65.5t-97.5 28.5q-55 0 -97 -25.5t-70.5 -70.5t-43 -105.5t-14.5 -129.5q0 -48 10.5 -87t31.5 -66.5t53 -43t75 -15.5q72 0 113 30t56 73l61 -40q-16 -27 -37 -50.5t-49.5 -41t-65 -27.5t-83.5 -10q-55 0 -100.5 18.5t-78 54t-50.5 86.5t-18 117 q0 91 25 164.5t68 125.5t98.5 80.5t117.5 28.5q45 0 79.5 -10t60 -27t43 -39t28.5 -47zM216 757l175 160h62l142 -160h-82l-96 116l-120 -116h-81z" />
<glyph unicode="&#x109;" horiz-adv-x="475" d="M389 339q-8 29 -34 49.5t-73 20.5q-39 0 -68.5 -16.5t-50 -45t-31 -65.5t-10.5 -79q0 -75 33 -113.5t96 -38.5q46 0 74.5 17t40.5 41l56 -45q-20 -31 -62.5 -53.5t-103.5 -22.5q-45 0 -83.5 13t-67 40t-44.5 68t-16 97q0 58 18 107t50 84.5t75.5 55t94.5 19.5 q66 0 105.5 -25.5t56.5 -62.5zM108 566l175 160h62l142 -160h-82l-96 116l-120 -116h-81z" />
<glyph unicode="&#x10a;" horiz-adv-x="618" d="M515 503q-8 37 -42.5 65.5t-97.5 28.5q-55 0 -97 -25.5t-70.5 -70.5t-43 -105.5t-14.5 -129.5q0 -48 10.5 -87t31.5 -66.5t53 -43t75 -15.5q72 0 113 30t56 73l61 -40q-16 -27 -37 -50.5t-49.5 -41t-65 -27.5t-83.5 -10q-55 0 -100.5 18.5t-78 54t-50.5 86.5t-18 117 q0 91 25 164.5t68 125.5t98.5 80.5t117.5 28.5q45 0 79.5 -10t60 -27t43 -39t28.5 -47zM473 817q0 -28 -17 -44t-40 -16q-21 0 -38 16t-17 44q0 26 17 41.5t38 15.5q23 0 40 -15.5t17 -41.5z" />
<glyph unicode="&#x10b;" horiz-adv-x="475" d="M389 339q-8 29 -34 49.5t-73 20.5q-39 0 -68.5 -16.5t-50 -45t-31 -65.5t-10.5 -79q0 -75 33 -113.5t96 -38.5q46 0 74.5 17t40.5 41l56 -45q-20 -31 -62.5 -53.5t-103.5 -22.5q-45 0 -83.5 13t-67 40t-44.5 68t-16 97q0 58 18 107t50 84.5t75.5 55t94.5 19.5 q66 0 105.5 -25.5t56.5 -62.5zM353 626q0 -28 -17 -44t-40 -16q-21 0 -38 16t-17 44q0 26 17 41.5t38 15.5q23 0 40 -15.5t17 -41.5z" />
<glyph unicode="&#x10c;" horiz-adv-x="618" d="M515 503q-8 37 -42.5 65.5t-97.5 28.5q-55 0 -97 -25.5t-70.5 -70.5t-43 -105.5t-14.5 -129.5q0 -48 10.5 -87t31.5 -66.5t53 -43t75 -15.5q72 0 113 30t56 73l61 -40q-16 -27 -37 -50.5t-49.5 -41t-65 -27.5t-83.5 -10q-55 0 -100.5 18.5t-78 54t-50.5 86.5t-18 117 q0 91 25 164.5t68 125.5t98.5 80.5t117.5 28.5q45 0 79.5 -10t60 -27t43 -39t28.5 -47zM615 917l-176 -160h-63l-140 160h80l97 -116l120 116h82z" />
<glyph unicode="&#x10d;" horiz-adv-x="475" d="M389 339q-8 29 -34 49.5t-73 20.5q-39 0 -68.5 -16.5t-50 -45t-31 -65.5t-10.5 -79q0 -75 33 -113.5t96 -38.5q46 0 74.5 17t40.5 41l56 -45q-20 -31 -62.5 -53.5t-103.5 -22.5q-45 0 -83.5 13t-67 40t-44.5 68t-16 97q0 58 18 107t50 84.5t75.5 55t94.5 19.5 q66 0 105.5 -25.5t56.5 -62.5zM504 726l-176 -160h-63l-140 160h80l97 -116l120 116h82z" />
<glyph unicode="&#x10e;" horiz-adv-x="663" d="M63 0l79 651h193q135 0 204 -70t69 -201q0 -90 -25 -161t-70 -119.5t-108 -74t-139 -25.5h-203zM276 66q117 0 183.5 78t66.5 235q0 101 -45.5 153.5t-142.5 52.5h-125l-63 -519h126zM565 917l-176 -160h-63l-140 160h80l97 -116l120 116h82z" />
<glyph unicode="&#x10f;" horiz-adv-x="582" d="M251 50q34 0 65 13.5t53.5 39t36 63t13.5 85.5q0 79 -34.5 118.5t-93.5 39.5q-35 0 -65.5 -13.5t-53 -39t-36 -63t-13.5 -85.5q0 -79 34.5 -118.5t93.5 -39.5zM547 711q-18 -148 -34 -273q-7 -53 -13.5 -107t-12.5 -100.5t-10 -82.5t-6 -53q-1 -7 -1.5 -14t-0.5 -17 q0 -26 3 -44q1 -11 3 -20h-69q-2 7 -4 16q-3 15 -3 36v6.5t1 7.5h-5q-16 -22 -39 -39q-20 -15 -49 -27t-68 -12q-44 0 -79.5 15t-61 43.5t-39.5 68.5t-14 90q0 57 18 106t50 84.5t75 56t94 20.5q40 0 68.5 -13t45.5 -28q20 -18 33 -41h5q6 66 13 128q3 26 6 53.5t6 53t6 48 t6 38.5h76zM586 551l43 171l72 -11l-62 -166z" />
<glyph unicode="&#x110;" horiz-adv-x="673" d="M83 0l35 296h-88l7 62h89l36 293h183q135 0 204 -70t69 -201q0 -90 -25 -161t-70 -119.5t-108 -74t-139 -25.5h-193zM286 66q117 0 183.5 78t66.5 235q0 101 -45.5 153.5t-142.5 52.5h-115l-28 -227h132l-7 -62h-133l-27 -230h116z" />
<glyph unicode="&#x111;" horiz-adv-x="562" d="M547 711q-2 -13 -4 -29q-2 -14 -4 -33t-5 -42h64l-7 -62h-65q-8 -61 -16.5 -130.5t-16.5 -133.5t-14 -114t-8 -72q-1 -7 -1.5 -14t-0.5 -17q0 -26 3 -44q1 -11 3 -20h-69q-2 7 -4 16q-3 15 -3 36v6.5t1 7.5h-5q-16 -22 -39 -39q-20 -15 -49 -27t-68 -12q-44 0 -79.5 15 t-61 43.5t-39.5 68.5t-14 90q0 57 18 106t50 84.5t75 56t94 20.5q40 0 68.5 -13t45.5 -28q20 -18 33 -41h5q2 23 5 49q2 22 5 49.5t6 56.5h-139l7 62h139l14 104h76zM251 50q34 0 65 13.5t53.5 39t36 63t13.5 85.5q0 79 -34.5 118.5t-93.5 39.5q-35 0 -65.5 -13.5t-53 -39 t-36 -63t-13.5 -85.5q0 -79 34.5 -118.5t93.5 -39.5z" />
<glyph unicode="&#x112;" horiz-adv-x="548" d="M213 585l-27 -224h274l-8 -66h-274l-28 -229h316l-8 -66h-395l79 651h382l-8 -66h-303zM200 812h303l-6 -55h-303z" />
<glyph unicode="&#x113;" horiz-adv-x="500" d="M124 226q-1 -9 -1 -17v-15q0 -74 32.5 -108t93.5 -34q48 0 79 17t44 40l55 -45q-19 -32 -65 -54t-109 -22q-52 0 -90.5 15.5t-64.5 43.5t-39 67t-13 87q0 50 14.5 98.5t43.5 87t72.5 62t102.5 23.5q45 0 77.5 -14.5t53.5 -39.5t31 -59t10 -74q0 -11 -1.5 -27t-4.5 -32 h-321zM269 417q-55 0 -89.5 -33.5t-46.5 -98.5h246v5q0 2 0.5 5t0.5 7q0 13 -4 33t-15.5 38t-33.5 31t-58 13zM151 621h303l-6 -55h-303z" />
<glyph unicode="&#x114;" horiz-adv-x="548" d="M213 585l-27 -224h274l-8 -66h-274l-28 -229h316l-8 -66h-395l79 651h382l-8 -66h-303zM357 812q46 0 73.5 30t32.5 74h68q-4 -34 -17.5 -63t-36 -50.5t-54.5 -33.5t-72 -12q-81 0 -117 44.5t-28 114.5h66q-5 -44 18 -74t67 -30z" />
<glyph unicode="&#x115;" horiz-adv-x="500" d="M124 226q-1 -9 -1 -17v-15q0 -74 32.5 -108t93.5 -34q48 0 79 17t44 40l55 -45q-19 -32 -65 -54t-109 -22q-52 0 -90.5 15.5t-64.5 43.5t-39 67t-13 87q0 50 14.5 98.5t43.5 87t72.5 62t102.5 23.5q45 0 77.5 -14.5t53.5 -39.5t31 -59t10 -74q0 -11 -1.5 -27t-4.5 -32 h-321zM269 417q-55 0 -89.5 -33.5t-46.5 -98.5h246v5q0 2 0.5 5t0.5 7q0 13 -4 33t-15.5 38t-33.5 31t-58 13zM302 621q46 0 73.5 30t32.5 74h68q-4 -34 -17.5 -63t-36 -50.5t-54.5 -33.5t-72 -12q-81 0 -117 44.5t-28 114.5h66q-5 -44 18 -74t67 -30z" />
<glyph unicode="&#x116;" horiz-adv-x="548" d="M213 585l-27 -224h274l-8 -66h-274l-28 -229h316l-8 -66h-395l79 651h382l-8 -66h-303zM417 817q0 -28 -17 -44t-40 -16q-21 0 -38 16t-17 44q0 26 17 41.5t38 15.5q23 0 40 -15.5t17 -41.5z" />
<glyph unicode="&#x117;" horiz-adv-x="500" d="M124 226q-1 -9 -1 -17v-15q0 -74 32.5 -108t93.5 -34q48 0 79 17t44 40l55 -45q-19 -32 -65 -54t-109 -22q-52 0 -90.5 15.5t-64.5 43.5t-39 67t-13 87q0 50 14.5 98.5t43.5 87t72.5 62t102.5 23.5q45 0 77.5 -14.5t53.5 -39.5t31 -59t10 -74q0 -11 -1.5 -27t-4.5 -32 h-321zM269 417q-55 0 -89.5 -33.5t-46.5 -98.5h246v5q0 2 0.5 5t0.5 7q0 13 -4 33t-15.5 38t-33.5 31t-58 13zM364 626q0 -28 -17 -44t-40 -16q-21 0 -38 16t-17 44q0 26 17 41.5t38 15.5q23 0 40 -15.5t17 -41.5z" />
<glyph unicode="&#x118;" horiz-adv-x="548" d="M213 585l-27 -224h274l-8 -66h-274l-28 -229h316l-8 -66h-395l79 651h382l-8 -66h-303zM449 9q-127 -57 -127 -111q0 -50 43 -50q29 0 54 21l25 -37q-38 -31 -81 -31q-103 0 -103 88q0 59 98 111q17 10 34 17z" />
<glyph unicode="&#x119;" horiz-adv-x="500" d="M124 226q-1 -9 -1 -17v-15q0 -74 32.5 -108t93.5 -34q48 0 79 17t44 40l55 -45q-19 -32 -65 -54t-109 -22q-52 0 -90.5 15.5t-64.5 43.5t-39 67t-13 87q0 50 14.5 98.5t43.5 87t72.5 62t102.5 23.5q45 0 77.5 -14.5t53.5 -39.5t31 -59t10 -74q0 -11 -1.5 -27t-4.5 -32 h-321zM269 417q-55 0 -89.5 -33.5t-46.5 -98.5h246v5q0 2 0.5 5t0.5 7q0 13 -4 33t-15.5 38t-33.5 31t-58 13zM343 9q-127 -57 -127 -111q0 -50 43 -50q29 0 54 21l25 -37q-38 -31 -81 -31q-103 0 -103 88q0 59 98 111q17 10 34 17z" />
<glyph unicode="&#x11a;" horiz-adv-x="548" d="M213 585l-27 -224h274l-8 -66h-274l-28 -229h316l-8 -66h-395l79 651h382l-8 -66h-303zM552 917l-176 -160h-63l-140 160h80l97 -116l120 116h82z" />
<glyph unicode="&#x11b;" horiz-adv-x="500" d="M124 226q-1 -9 -1 -17v-15q0 -74 32.5 -108t93.5 -34q48 0 79 17t44 40l55 -45q-19 -32 -65 -54t-109 -22q-52 0 -90.5 15.5t-64.5 43.5t-39 67t-13 87q0 50 14.5 98.5t43.5 87t72.5 62t102.5 23.5q45 0 77.5 -14.5t53.5 -39.5t31 -59t10 -74q0 -11 -1.5 -27t-4.5 -32 h-321zM269 417q-55 0 -89.5 -33.5t-46.5 -98.5h246v5q0 2 0.5 5t0.5 7q0 13 -4 33t-15.5 38t-33.5 31t-58 13zM503 726l-176 -160h-63l-140 160h80l97 -116l120 116h82z" />
<glyph unicode="&#x11c;" horiz-adv-x="655" d="M597 327l-40 -327h-59l3 76h-4q-13 -25 -35 -44q-20 -17 -51.5 -30.5t-81.5 -13.5q-57 0 -105.5 19t-83 54t-54 86t-19.5 116q0 69 19.5 140t59.5 129t101 94.5t144 36.5q46 0 80.5 -9.5t59.5 -25.5t42.5 -37t30.5 -44l-73 -40q-6 19 -16.5 35.5t-27.5 28.5t-41.5 19 t-57.5 7q-60 0 -105 -26.5t-75 -70.5t-44.5 -102.5t-14.5 -122.5q0 -105 43.5 -163t135.5 -58q37 0 68.5 9.5t55 26.5t37 40t16.5 50l8 81h-176l8 66h252zM215 757l175 160h62l142 -160h-82l-96 116l-120 -116h-81z" />
<glyph unicode="&#x11d;" horiz-adv-x="549" d="M212 -252q-58 0 -96.5 14.5t-61.5 33t-33.5 35t-11.5 20.5l54 45q1 -3 10 -17t27 -29t47 -27t71 -12q124 0 148 148q2 14 5 32.5t6 36t5 29.5t2 13h-5q-14 -23 -35 -41q-18 -16 -45.5 -28.5t-66.5 -12.5q-43 0 -77.5 16t-58.5 44.5t-36.5 68.5t-12.5 88q0 57 17 106 t48 84.5t72.5 56t91.5 20.5q41 0 67.5 -14t42.5 -31q18 -19 29 -44l6 2l11 75h71l-56 -455q-17 -137 -77.5 -197t-157.5 -60zM246 51q33 0 61.5 13.5t49.5 39.5t33 64t12 87q0 80 -31 117t-85 37q-35 0 -64.5 -15t-51.5 -42t-34 -65t-12 -84q0 -80 34 -116t88 -36zM115 566 l175 160h62l142 -160h-82l-96 116l-120 -116h-81z" />
<glyph unicode="&#x11e;" horiz-adv-x="655" d="M597 327l-40 -327h-59l3 76h-4q-13 -25 -35 -44q-20 -17 -51.5 -30.5t-81.5 -13.5q-57 0 -105.5 19t-83 54t-54 86t-19.5 116q0 69 19.5 140t59.5 129t101 94.5t144 36.5q46 0 80.5 -9.5t59.5 -25.5t42.5 -37t30.5 -44l-73 -40q-6 19 -16.5 35.5t-27.5 28.5t-41.5 19 t-57.5 7q-60 0 -105 -26.5t-75 -70.5t-44.5 -102.5t-14.5 -122.5q0 -105 43.5 -163t135.5 -58q37 0 68.5 9.5t55 26.5t37 40t16.5 50l8 81h-176l8 66h252zM415 812q46 0 73.5 30t32.5 74h68q-4 -34 -17.5 -63t-36 -50.5t-54.5 -33.5t-72 -12q-81 0 -117 44.5t-28 114.5h66 q-5 -44 18 -74t67 -30z" />
<glyph unicode="&#x11f;" horiz-adv-x="549" d="M212 -252q-58 0 -96.5 14.5t-61.5 33t-33.5 35t-11.5 20.5l54 45q1 -3 10 -17t27 -29t47 -27t71 -12q124 0 148 148q2 14 5 32.5t6 36t5 29.5t2 13h-5q-14 -23 -35 -41q-18 -16 -45.5 -28.5t-66.5 -12.5q-43 0 -77.5 16t-58.5 44.5t-36.5 68.5t-12.5 88q0 57 17 106 t48 84.5t72.5 56t91.5 20.5q41 0 67.5 -14t42.5 -31q18 -19 29 -44l6 2l11 75h71l-56 -455q-17 -137 -77.5 -197t-157.5 -60zM246 51q33 0 61.5 13.5t49.5 39.5t33 64t12 87q0 80 -31 117t-85 37q-35 0 -64.5 -15t-51.5 -42t-34 -65t-12 -84q0 -80 34 -116t88 -36zM313 621 q46 0 73.5 30t32.5 74h68q-4 -34 -17.5 -63t-36 -50.5t-54.5 -33.5t-72 -12q-81 0 -117 44.5t-28 114.5h66q-5 -44 18 -74t67 -30z" />
<glyph unicode="&#x120;" horiz-adv-x="655" d="M597 327l-40 -327h-59l3 76h-4q-13 -25 -35 -44q-20 -17 -51.5 -30.5t-81.5 -13.5q-57 0 -105.5 19t-83 54t-54 86t-19.5 116q0 69 19.5 140t59.5 129t101 94.5t144 36.5q46 0 80.5 -9.5t59.5 -25.5t42.5 -37t30.5 -44l-73 -40q-6 19 -16.5 35.5t-27.5 28.5t-41.5 19 t-57.5 7q-60 0 -105 -26.5t-75 -70.5t-44.5 -102.5t-14.5 -122.5q0 -105 43.5 -163t135.5 -58q37 0 68.5 9.5t55 26.5t37 40t16.5 50l8 81h-176l8 66h252zM471 817q0 -28 -17 -44t-40 -16q-21 0 -38 16t-17 44q0 26 17 41.5t38 15.5q23 0 40 -15.5t17 -41.5z" />
<glyph unicode="&#x121;" horiz-adv-x="549" d="M212 -252q-58 0 -96.5 14.5t-61.5 33t-33.5 35t-11.5 20.5l54 45q1 -3 10 -17t27 -29t47 -27t71 -12q124 0 148 148q2 14 5 32.5t6 36t5 29.5t2 13h-5q-14 -23 -35 -41q-18 -16 -45.5 -28.5t-66.5 -12.5q-43 0 -77.5 16t-58.5 44.5t-36.5 68.5t-12.5 88q0 57 17 106 t48 84.5t72.5 56t91.5 20.5q41 0 67.5 -14t42.5 -31q18 -19 29 -44l6 2l11 75h71l-56 -455q-17 -137 -77.5 -197t-157.5 -60zM246 51q33 0 61.5 13.5t49.5 39.5t33 64t12 87q0 80 -31 117t-85 37q-35 0 -64.5 -15t-51.5 -42t-34 -65t-12 -84q0 -80 34 -116t88 -36zM360 626 q0 -28 -17 -44t-40 -16q-21 0 -38 16t-17 44q0 26 17 41.5t38 15.5q23 0 40 -15.5t17 -41.5z" />
<glyph unicode="&#x122;" horiz-adv-x="655" d="M597 327l-40 -327h-59l3 76h-4q-13 -25 -35 -44q-20 -17 -51.5 -30.5t-81.5 -13.5q-57 0 -105.5 19t-83 54t-54 86t-19.5 116q0 69 19.5 140t59.5 129t101 94.5t144 36.5q46 0 80.5 -9.5t59.5 -25.5t42.5 -37t30.5 -44l-73 -40q-6 19 -16.5 35.5t-27.5 28.5t-41.5 19 t-57.5 7q-60 0 -105 -26.5t-75 -70.5t-44.5 -102.5t-14.5 -122.5q0 -105 43.5 -163t135.5 -58q37 0 68.5 9.5t55 26.5t37 40t16.5 50l8 81h-176l8 66h252zM252 -249l18 151l73 -11l-37 -146z" />
<glyph unicode="&#x123;" horiz-adv-x="549" d="M212 -252q-58 0 -96.5 14.5t-61.5 33t-33.5 35t-11.5 20.5l54 45q1 -3 10 -17t27 -29t47 -27t71 -12q124 0 148 148q2 14 5 32.5t6 36t5 29.5t2 13h-5q-14 -23 -35 -41q-18 -16 -45.5 -28.5t-66.5 -12.5q-43 0 -77.5 16t-58.5 44.5t-36.5 68.5t-12.5 88q0 57 17 106 t48 84.5t72.5 56t91.5 20.5q41 0 67.5 -14t42.5 -31q18 -19 29 -44l6 2l11 75h71l-56 -455q-17 -137 -77.5 -197t-157.5 -60zM246 51q33 0 61.5 13.5t49.5 39.5t33 64t12 87q0 80 -31 117t-85 37q-35 0 -64.5 -15t-51.5 -42t-34 -65t-12 -84q0 -80 34 -116t88 -36z M352.005 725.984l-17.999 -150.99l-72.9951 10.999l36.998 145.991z" />
<glyph unicode="&#x124;" horiz-adv-x="670" d="M637 651l-79 -651h-79l36 294h-337l-36 -294h-79l79 651h79l-35 -291h337l35 291h79zM217 757l175 160h62l142 -160h-82l-96 116l-120 -116h-81z" />
<glyph unicode="&#x125;" horiz-adv-x="543" d="M421 -9q-66 0 -66 67q0 14 3 29q5 29 9.5 53t9 47.5t9.5 49t11 56.5q3 16 3 31q0 43 -23.5 64.5t-65.5 21.5q-60 0 -98.5 -44.5t-51.5 -138.5q-1 -9 -3 -23t-4 -32t-4 -37.5t-4 -38.5q-5 -45 -10 -96h-76l86 711h76l-46 -337h5q16 27 40 49q20 18 50.5 33.5t72.5 15.5 q64 0 96.5 -35.5t32.5 -92.5q0 -17 -3 -35q-12 -71 -23 -121.5t-20 -97.5q-1 -5 -1 -10q0 -17 7 -22t19 -5q10 0 20 2q4 1 8 3l-9 -57q-6 -3 -14 -5q-15 -5 -36 -5zM158 797l175 160h62l142 -160h-82l-96 116l-120 -116h-81z" />
<glyph unicode="&#x126;" horiz-adv-x="690" d="M45 511h90l17 140h79l-17 -140h337l17 140h79l-17 -140h89l-7 -62h-90l-54 -449h-79l31 254h-337l-31 -254h-79l54 449h-89zM528 320l15 129h-337l-15 -129h337z" />
<glyph unicode="&#x127;" horiz-adv-x="543" d="M421 -9q-66 0 -66 67q0 14 3 29q5 29 9.5 53t9 47.5t9.5 49t11 56.5q3 16 3 31q0 43 -23.5 64.5t-65.5 21.5q-60 0 -98.5 -44.5t-51.5 -138.5q-1 -9 -3 -23t-4 -32t-4 -37.5t-4 -38.5q-5 -45 -10 -96h-76l66 545h-63l7 62h63l13 104h76l-14 -104h142l-7 -62h-144 l-23 -171h5q16 27 40 49q20 18 50.5 33.5t72.5 15.5q64 0 96.5 -35.5t32.5 -92.5q0 -17 -3 -35q-12 -71 -23 -121.5t-20 -97.5q-1 -5 -1 -10q0 -17 7 -22t19 -5q10 0 20 2q4 1 8 3l-9 -57q-6 -3 -14 -5q-15 -5 -36 -5z" />
<glyph unicode="&#x128;" horiz-adv-x="254" d="M63 0l79 651h79l-79 -651h-79zM338 886q1 -6 1.5 -13t0.5 -17q0 -19 -5.5 -36t-16.5 -31.5t-27 -23t-38 -8.5q-25 0 -42 10.5t-31 23.5t-26.5 23.5t-28.5 10.5q-12 0 -18.5 -7t-10 -16t-4.5 -20t-1 -18v-7h-45q-3 12 -3 34q0 17 5.5 34.5t15.5 31t26.5 21.5t38.5 8 q24 0 41 -10.5t31.5 -23.5t27 -23.5t27.5 -10.5q13 0 20.5 7t11 18t4.5 22t1 16v5h45z" />
<glyph unicode="&#x129;" horiz-adv-x="255" d="M143 -9q-43 0 -59.5 21t-16.5 49q0 7 0.5 14t1.5 12l52 373h76l-49 -342q-2 -15 -3 -25.5t-1 -15.5q0 -26 25 -26q6 0 12 1t11 3q6 2 12 5l-9 -55q-5 -4 -12 -7q-14 -7 -40 -7zM320 695q1 -6 1.5 -13t0.5 -17q0 -19 -5.5 -36t-16.5 -31.5t-27 -23t-38 -8.5 q-25 0 -42 10.5t-31 23.5t-26.5 23.5t-28.5 10.5q-12 0 -18.5 -7t-10 -16t-4.5 -20t-1 -18v-7h-45q-3 12 -3 34q0 17 5.5 34.5t16 31t26.5 21.5t38 8q24 0 41.5 -10.5t31.5 -23.5t26.5 -23.5t27.5 -10.5q13 0 20.5 7t11 18t4.5 22t1 16v5h45z" />
<glyph unicode="&#x12a;" horiz-adv-x="254" d="M63 0l79 651h79l-79 -651h-79zM50 812h303l-6 -55h-303z" />
<glyph unicode="&#x12b;" horiz-adv-x="255" d="M143 -9q-43 0 -59.5 21t-16.5 49q0 7 0.5 14t1.5 12l52 373h76l-49 -342q-2 -15 -3 -25.5t-1 -15.5q0 -26 25 -26q6 0 12 1t11 3q6 2 12 5l-9 -55q-5 -4 -12 -7q-14 -7 -40 -7zM25 621h303l-6 -55h-303z" />
<glyph unicode="&#x12c;" horiz-adv-x="254" d="M63 0l79 651h79l-79 -651h-79zM199 812q46 0 73.5 30t32.5 74h68q-4 -34 -17.5 -63t-36 -50.5t-54.5 -33.5t-72 -12q-81 0 -117 44.5t-28 114.5h66q-5 -44 18 -74t67 -30z" />
<glyph unicode="&#x12d;" horiz-adv-x="255" d="M143 -9q-43 0 -59.5 21t-16.5 49q0 7 0.5 14t1.5 12l52 373h76l-49 -342q-2 -15 -3 -25.5t-1 -15.5q0 -26 25 -26q6 0 12 1t11 3q6 2 12 5l-9 -55q-5 -4 -12 -7q-14 -7 -40 -7zM185 621q46 0 73.5 30t32.5 74h68q-4 -34 -17.5 -63t-36 -50.5t-54.5 -33.5t-72 -12 q-81 0 -117 44.5t-28 114.5h66q-5 -44 18 -74t67 -30z" />
<glyph unicode="&#x12e;" horiz-adv-x="254" d="M63 0l79 651h79l-79 -651h-79zM133 9q-127 -57 -127 -111q0 -50 43 -50q29 0 54 21l25 -37q-38 -31 -81 -31q-103 0 -103 88q0 59 98 111q17 10 34 17z" />
<glyph unicode="&#x12f;" horiz-adv-x="255" d="M143 -9q-43 0 -59.5 21t-16.5 49q0 7 0.5 14t1.5 12l52 373h76l-49 -342q-2 -15 -3 -25.5t-1 -15.5q0 -26 25 -26q6 0 12 1t11 3q6 2 12 5l-9 -55q-5 -4 -12 -7q-14 -7 -40 -7zM232 626q0 -28 -17 -44t-40 -16q-21 0 -38 16t-17 44q0 26 17 41.5t38 15.5q23 0 40 -15.5 t17 -41.5zM192 9q-127 -57 -127 -111q0 -50 43 -50q29 0 54 21l25 -37q-38 -31 -81 -31q-103 0 -103 88q0 59 98 111q17 10 34 17z" />
<glyph unicode="&#x130;" horiz-adv-x="254" d="M63 0l79 651h79l-79 -651h-79zM255 817q0 -28 -17 -44t-40 -16q-21 0 -38 16t-17 44q0 26 17 41.5t38 15.5q23 0 40 -15.5t17 -41.5z" />
<glyph unicode="&#x131;" horiz-adv-x="255" d="M143 -9q-43 0 -59.5 21t-16.5 49q0 7 0.5 14t1.5 12l52 373h76l-49 -342q-2 -15 -3 -25.5t-1 -15.5q0 -26 25 -26q6 0 12 1t11 3q6 2 12 5l-9 -55q-5 -4 -12 -7q-14 -7 -40 -7z" />
<glyph unicode="&#x132;" horiz-adv-x="653" d="M63 0l79 651h79l-79 -651h-79zM622 651l-54 -441q-13 -107 -59 -164.5t-140 -57.5q-56 0 -98 20t-59 49l62 47q11 -21 33 -35.5t54 -14.5q57 0 87.5 38t39.5 116l54 443h80z" />
<glyph unicode="&#x133;" horiz-adv-x="510" d="M143 -9q-43 0 -59.5 21t-16.5 49q0 7 0.5 14t1.5 12l52 373h76l-49 -342q-2 -15 -3 -25.5t-1 -15.5q0 -26 25 -26q6 0 12 1t11 3q6 2 12 5l-9 -55q-5 -4 -12 -7q-14 -7 -40 -7zM232 626q0 -28 -17 -44t-40 -16q-21 0 -38 16t-17 44q0 26 17 41.5t38 15.5q23 0 40 -15.5 t17 -41.5zM487 626q0 -28 -17 -44t-40 -16q-21 0 -38 16t-17 44q0 26 17 41.5t38 15.5q23 0 40 -15.5t17 -41.5zM180 -163q8 -5 20 -9.5t30 -4.5q10 0 21.5 2.5t22 10t18.5 22t11 38.5l73 564h75l-74 -582q-4 -32 -17 -55t-32.5 -38.5t-43.5 -23t-50 -7.5q-23 0 -40 5 t-28 12z" />
<glyph unicode="&#x134;" horiz-adv-x="419" d="M388 651l-54 -441q-13 -107 -59 -164.5t-140 -57.5q-56 0 -98 20t-59 49l62 47q11 -21 33 -35.5t54 -14.5q57 0 87.5 38t39.5 116l54 443h80zM172 757l175 160h62l142 -160h-82l-96 116l-120 -116h-81z" />
<glyph unicode="&#x135;" horiz-adv-x="255" d="M-75 -163q8 -5 20 -9.5t30 -4.5q10 0 21.5 2.5t22 10t18.5 22t11 38.5l73 564h75l-74 -582q-4 -32 -17 -55t-32.5 -38.5t-43.5 -23t-50 -7.5q-23 0 -40 5t-28 12zM22 566l135 160h62l102 -160h-72l-66 116l-90 -116h-71z" />
<glyph unicode="&#x136;" horiz-adv-x="580" d="M181 324l318 327h90l-293 -293l234 -358h-92l-194 323l-70 -64l-32 -259h-79l79 651h79zM180 -249l18 151l73 -11l-37 -146z" />
<glyph unicode="&#x137;" horiz-adv-x="505" d="M395 460h89l-210 -199l184 -261h-87l-148 224l-67 -57l-20 -167h-76l86 711h76l-61 -485zM144 -249l18 151l73 -11l-37 -146z" />
<glyph unicode="&#x138;" horiz-adv-x="505" d="M395 460h89l-210 -199l184 -261h-87l-148 224l-67 -57l-20 -167h-76l55 460h76l-30 -234z" />
<glyph unicode="&#x139;" horiz-adv-x="488" d="M221 651l-71 -585h296l-8 -66h-375l79 651h79zM298 944l41 -41l-145 -146l-41 41z" />
<glyph unicode="&#x13a;" horiz-adv-x="260" d="M140 711h76l-77 -593q-2 -15 -3 -25.5t-1 -15.5q0 -13 11 -19.5t22 -6.5q8 0 15.5 2t13.5 4l14 6l-7 -55q-8 -5 -17 -9q-8 -3 -18 -5.5t-23 -2.5q-49 0 -68 23.5t-19 54.5v9t1 9zM305 983l41 -41l-145 -146l-41 41z" />
<glyph unicode="&#x13b;" horiz-adv-x="488" d="M221 651l-71 -585h296l-8 -66h-375l79 651h79zM178 -249l18 151l73 -11l-37 -146z" />
<glyph unicode="&#x13c;" horiz-adv-x="260" d="M140 711h76l-77 -593q-2 -15 -3 -25.5t-1 -15.5q0 -13 11 -19.5t22 -6.5q8 0 15.5 2t13.5 4l14 6l-7 -55q-8 -5 -17 -9q-8 -3 -18 -5.5t-23 -2.5q-49 0 -68 23.5t-19 54.5v9t1 9zM43 -249l18 151l73 -11l-37 -146z" />
<glyph unicode="&#x13d;" horiz-adv-x="488" d="M221 651l-71 -585h296l-8 -66h-375l79 651h79zM290 492l43 171l72 -11l-62 -166z" />
<glyph unicode="&#x13e;" horiz-adv-x="280" d="M140 711h76l-77 -593q-2 -15 -3 -25.5t-1 -15.5q0 -13 11 -19.5t22 -6.5q8 0 15.5 2t13.5 4l14 6l-7 -55q-8 -5 -17 -9q-8 -3 -18 -5.5t-23 -2.5q-49 0 -68 23.5t-19 54.5v9t1 9zM254 551l43 171l72 -11l-62 -166z" />
<glyph unicode="&#x13f;" horiz-adv-x="488" d="M221 651l-71 -585h296l-8 -66h-375l79 651h79zM385 335q0 -25 -16.5 -43.5t-42.5 -18.5q-23 0 -37 15.5t-14 38.5q0 26 16 44.5t42 18.5q23 0 37.5 -15.5t14.5 -39.5z" />
<glyph unicode="&#x140;" horiz-adv-x="410" d="M140 711h76l-77 -593q-2 -15 -3 -25.5t-1 -15.5q0 -13 11 -19.5t22 -6.5q8 0 15.5 2t13.5 4l14 6l-7 -55q-8 -5 -17 -9q-8 -3 -18 -5.5t-23 -2.5q-49 0 -68 23.5t-19 54.5v9t1 9zM385 358q0 -25 -16.5 -43.5t-42.5 -18.5q-23 0 -37 15.5t-14 38.5q0 26 16 44.5t42 18.5 q23 0 37.5 -15.5t14.5 -39.5z" />
<glyph unicode="&#x141;" horiz-adv-x="488" d="M34 336l72 19l36 296h79l-33 -274l110 32l-8 -63l-110 -30l-30 -250h296l-8 -66h-375l36 293l-73 -20z" />
<glyph unicode="&#x142;" horiz-adv-x="280" d="M97 301l-90 -25l6 63l92 25l45 347h76l-43 -328l90 26l-7 -63l-91 -25l-26 -203q-2 -15 -3 -25.5t-1 -15.5q0 -13 11 -19.5t22 -6.5q8 0 15.5 2t13.5 4l14 6l-9 -55q-6 -5 -15 -9q-8 -3 -18 -5.5t-23 -2.5q-49 0 -68 23.5t-19 54.5v9t1 9z" />
<glyph unicode="&#x143;" horiz-adv-x="656" d="M131 0h-68l79 651h89l259 -563l65 563h68l-79 -651h-89l-259 578zM500 944l41 -41l-145 -146l-41 41z" />
<glyph unicode="&#x144;" horiz-adv-x="545" d="M419 -9q-64 0 -64 67q0 14 3 29q8 48 18 95t22 111q3 16 3 31q0 43 -23.5 64.5t-66.5 21.5q-60 0 -99.5 -47.5t-51.5 -135.5q-4 -26 -8.5 -65t-9.5 -75q-5 -42 -11 -87h-76q13 92 24 169q4 33 9 65t8.5 59t6.5 46t4 26t1.5 15t0.5 17q0 11 -0.5 22.5t-1.5 20.5 q-1 11 -2 20h74q0 -8 1 -17q1 -8 1.5 -18t0.5 -20v-15t-2 -16h5q14 27 35 49q18 18 47 33.5t71 15.5q69 0 102 -36.5t33 -93.5v-16.5t-2 -16.5q-6 -37 -12.5 -67t-12 -56t-10.5 -49.5t-9 -45.5q-1 -5 -1 -12q0 -16 7.5 -20.5t18.5 -4.5q10 0 20 2q4 1 8 3l-9 -58 q-6 -3 -14 -5q-15 -5 -38 -5zM384 753l41 -41l-145 -146l-41 41z" />
<glyph unicode="&#x145;" horiz-adv-x="656" d="M131 0h-68l79 651h89l259 -563l65 563h68l-79 -651h-89l-259 578zM242 -249l18 151l73 -11l-37 -146z" />
<glyph unicode="&#x146;" horiz-adv-x="545" d="M419 -9q-64 0 -64 67q0 14 3 29q8 48 18 95t22 111q3 16 3 31q0 43 -23.5 64.5t-66.5 21.5q-60 0 -99.5 -47.5t-51.5 -135.5q-4 -26 -8.5 -65t-9.5 -75q-5 -42 -11 -87h-76q13 92 24 169q4 33 9 65t8.5 59t6.5 46t4 26t1.5 15t0.5 17q0 11 -0.5 22.5t-1.5 20.5 q-1 11 -2 20h74q0 -8 1 -17q1 -8 1.5 -18t0.5 -20v-15t-2 -16h5q14 27 35 49q18 18 47 33.5t71 15.5q69 0 102 -36.5t33 -93.5v-16.5t-2 -16.5q-6 -37 -12.5 -67t-12 -56t-10.5 -49.5t-9 -45.5q-1 -5 -1 -12q0 -16 7.5 -20.5t18.5 -4.5q10 0 20 2q4 1 8 3l-9 -58 q-6 -3 -14 -5q-15 -5 -38 -5zM179 -249l18 151l73 -11l-37 -146z" />
<glyph unicode="&#x147;" horiz-adv-x="656" d="M131 0h-68l79 651h89l259 -563l65 563h68l-79 -651h-89l-259 578zM595 917l-176 -160h-63l-140 160h80l97 -116l120 116h82z" />
<glyph unicode="&#x148;" horiz-adv-x="545" d="M419 -9q-64 0 -64 67q0 14 3 29q8 48 18 95t22 111q3 16 3 31q0 43 -23.5 64.5t-66.5 21.5q-60 0 -99.5 -47.5t-51.5 -135.5q-4 -26 -8.5 -65t-9.5 -75q-5 -42 -11 -87h-76q13 92 24 169q4 33 9 65t8.5 59t6.5 46t4 26t1.5 15t0.5 17q0 11 -0.5 22.5t-1.5 20.5 q-1 11 -2 20h74q0 -8 1 -17q1 -8 1.5 -18t0.5 -20v-15t-2 -16h5q14 27 35 49q18 18 47 33.5t71 15.5q69 0 102 -36.5t33 -93.5v-16.5t-2 -16.5q-6 -37 -12.5 -67t-12 -56t-10.5 -49.5t-9 -45.5q-1 -5 -1 -12q0 -16 7.5 -20.5t18.5 -4.5q10 0 20 2q4 1 8 3l-9 -58 q-6 -3 -14 -5q-15 -5 -38 -5zM530 726l-176 -160h-63l-140 160h80l97 -116l120 116h82z" />
<glyph unicode="&#x149;" horiz-adv-x="702" d="M576 -9q-64 0 -64 67q0 14 3 29q8 48 18 95t22 111q3 16 3 31q0 43 -23.5 64.5t-66.5 21.5q-60 0 -99.5 -47.5t-51.5 -135.5q-4 -26 -8.5 -65t-9.5 -75q-5 -42 -11 -87h-76q13 92 24 169q4 33 9 65t8.5 59t6.5 46t4 26t1.5 15t0.5 17q0 11 -0.5 22.5t-1.5 20.5 q-1 11 -2 20h74q0 -8 1 -17q1 -8 1.5 -18t0.5 -20v-15t-2 -16h5q14 27 35 49q18 18 47 33.5t71 15.5q69 0 102 -36.5t33 -93.5v-16.5t-2 -16.5q-6 -37 -12.5 -67t-12 -56t-10.5 -49.5t-9 -45.5q-1 -5 -1 -12q0 -16 7.5 -20.5t18.5 -4.5q10 0 20 2q4 1 8 3l-9 -58 q-6 -3 -14 -5q-15 -5 -38 -5zM210 651l-13 -107q-8 -35 -20.5 -59.5t-23.5 -40.5q-14 -18 -28 -30l-54 31q9 9 19 23q8 12 16.5 31t14.5 45q2 10 4.5 28.5t4.5 35.5q2 20 4 43h76z" />
<glyph unicode="&#x14a;" horiz-adv-x="656" d="M342 -163q8 -5 20 -9.5t30 -4.5q10 0 21.5 2.5t22 10t18.5 22t13 38.5l12 105l-283 577l-65 -578h-68l79 651h89l264 -523l60 523h68l-94 -773q-3 -32 -14.5 -55t-28.5 -38.5t-40.5 -23t-49.5 -7.5q-23 0 -40 5t-28 12z" />
<glyph unicode="&#x14b;" horiz-adv-x="535" d="M468 342q0 -9 -0.5 -18t-1.5 -17l-55 -429q-4 -32 -17 -55t-32.5 -38.5t-43.5 -23t-50 -7.5q-23 0 -40 5t-28 12l14 66q8 -5 20 -9.5t30 -4.5q10 0 21.5 2.5t22 10t18.5 22t11 38.5l52 397q3 24 3 38q0 35 -19 57t-65 22q-59 0 -97.5 -47.5t-50.5 -135.5 q-23 -182 -29 -227h-76q38 266 41.5 293t6.5 46t4 26t1.5 15t0.5 17q0 11 -0.5 22.5t-1.5 20.5q-1 11 -2 20h74q0 -8 1 -17q1 -8 1.5 -18t0.5 -20v-15q0 -8 -2 -16h5q7 14 15.5 26t18.5 23q18 18 46 33.5t70 15.5q69 0 101 -36.5t32 -93.5z" />
<glyph unicode="&#x14c;" horiz-adv-x="702" d="M647 387q0 -72 -19 -143.5t-59 -128t-100.5 -92t-142.5 -35.5q-59 0 -107 18.5t-82.5 54t-53.5 87t-19 117.5q0 70 20 141t60 128t100 93t140 36q58 0 106.5 -18.5t83 -54t54 -87t19.5 -116.5zM324 54q65 0 111 28t75 74.5t42 106t13 121.5q0 104 -49 158.5t-130 54.5 q-65 0 -110.5 -28.5t-74.5 -74.5t-42.5 -105.5t-13.5 -120.5q0 -105 49.5 -159.5t129.5 -54.5zM268 812h303l-6 -55h-303z" />
<glyph unicode="&#x14d;" horiz-adv-x="533" d="M248 -12q-45 0 -82.5 15.5t-64 43.5t-41 67t-14.5 86q0 62 18 112t50 85.5t76 55t97 19.5q99 0 150 -57t51 -151q0 -62 -17 -113t-48.5 -87t-76 -56t-98.5 -20zM251 51q33 0 62.5 13.5t51 40t34.5 65.5t13 91q0 74 -35.5 111t-92.5 37q-33 0 -62.5 -13.5t-51.5 -40.5 t-34.5 -66.5t-12.5 -91.5q0 -73 35.5 -109.5t92.5 -36.5zM183 621h303l-6 -55h-303z" />
<glyph unicode="&#x14e;" horiz-adv-x="702" d="M647 387q0 -72 -19 -143.5t-59 -128t-100.5 -92t-142.5 -35.5q-59 0 -107 18.5t-82.5 54t-53.5 87t-19 117.5q0 70 20 141t60 128t100 93t140 36q58 0 106.5 -18.5t83 -54t54 -87t19.5 -116.5zM324 54q65 0 111 28t75 74.5t42 106t13 121.5q0 104 -49 158.5t-130 54.5 q-65 0 -110.5 -28.5t-74.5 -74.5t-42.5 -105.5t-13.5 -120.5q0 -105 49.5 -159.5t129.5 -54.5zM428 812q46 0 73.5 30t32.5 74h68q-4 -34 -17.5 -63t-36 -50.5t-54.5 -33.5t-72 -12q-81 0 -117 44.5t-28 114.5h66q-5 -44 18 -74t67 -30z" />
<glyph unicode="&#x14f;" horiz-adv-x="533" d="M248 -12q-45 0 -82.5 15.5t-64 43.5t-41 67t-14.5 86q0 62 18 112t50 85.5t76 55t97 19.5q99 0 150 -57t51 -151q0 -62 -17 -113t-48.5 -87t-76 -56t-98.5 -20zM251 51q33 0 62.5 13.5t51 40t34.5 65.5t13 91q0 74 -35.5 111t-92.5 37q-33 0 -62.5 -13.5t-51.5 -40.5 t-34.5 -66.5t-12.5 -91.5q0 -73 35.5 -109.5t92.5 -36.5zM289 621q46 0 73.5 30t32.5 74h68q-4 -34 -17.5 -63t-36 -50.5t-54.5 -33.5t-72 -12q-81 0 -117 44.5t-28 114.5h66q-5 -44 18 -74t67 -30z" />
<glyph unicode="&#x150;" horiz-adv-x="702" d="M647 387q0 -72 -19 -143.5t-59 -128t-100.5 -92t-142.5 -35.5q-59 0 -107 18.5t-82.5 54t-53.5 87t-19 117.5q0 70 20 141t60 128t100 93t140 36q58 0 106.5 -18.5t83 -54t54 -87t19.5 -116.5zM324 54q65 0 111 28t75 74.5t42 106t13 121.5q0 104 -49 158.5t-130 54.5 q-65 0 -110.5 -28.5t-74.5 -74.5t-42.5 -105.5t-13.5 -120.5q0 -105 49.5 -159.5t129.5 -54.5zM431 944l41 -35l-134 -151l-41 34zM600 944l41 -35l-134 -151l-41 34z" />
<glyph unicode="&#x151;" horiz-adv-x="533" d="M248 -12q-45 0 -82.5 15.5t-64 43.5t-41 67t-14.5 86q0 62 18 112t50 85.5t76 55t97 19.5q99 0 150 -57t51 -151q0 -62 -17 -113t-48.5 -87t-76 -56t-98.5 -20zM251 51q33 0 62.5 13.5t51 40t34.5 65.5t13 91q0 74 -35.5 111t-92.5 37q-33 0 -62.5 -13.5t-51.5 -40.5 t-34.5 -66.5t-12.5 -91.5q0 -73 35.5 -109.5t92.5 -36.5zM315 753l43 -35l-134 -151l-43 34zM488 753l43 -35l-134 -151l-43 34z" />
<glyph unicode="&#x152;" horiz-adv-x="992" d="M657 585l-27 -224h274l-8 -66h-274l-28 -229h316l-8 -66h-395l12 96q-40 -48 -91.5 -78t-111.5 -30q-57 0 -103.5 19t-79.5 55t-51 88.5t-18 119.5q0 25 3 54q9 80 36 143t66.5 106.5t91 66.5t110.5 23q66 0 118 -33.5t83 -85.5l14 107h382l-8 -66h-303zM540 324 q2 17 3 32t1 30q0 103 -46 157t-123 54q-50 0 -92 -21.5t-73 -63.5t-48.5 -104t-17.5 -142q0 -105 46.5 -158.5t124.5 -53.5q94 0 152 68.5t73 201.5z" />
<glyph unicode="&#x153;" horiz-adv-x="864" d="M488 226q-1 -9 -1 -17v-15q0 -74 32.5 -108t93.5 -34q35 0 58.5 8.5t37.5 19.5q17 12 27 29l55 -45q-15 -21 -39 -38q-20 -14 -53.5 -26t-81.5 -12q-71 0 -115 34t-64 84q-29 -51 -77 -84.5t-113 -33.5q-45 0 -82.5 15.5t-64 43.5t-41 67t-14.5 86q0 62 18 112t50 85.5 t76 55t97 19.5q33 0 60.5 -9.5t49 -25t37 -36.5t24.5 -44q13 23 31.5 44t41.5 36.5t51 25t61 9.5q45 0 77.5 -14.5t53.5 -39.5t31 -59t10 -74q0 -11 -1.5 -27t-4.5 -32h-321zM251 51q33 0 62.5 13.5t51 40t34.5 65.5t13 91q0 74 -35.5 111t-92.5 37q-33 0 -62.5 -13.5 t-51.5 -40.5t-34.5 -66.5t-12.5 -91.5q0 -73 35.5 -109.5t92.5 -36.5zM633 417q-55 0 -89.5 -33.5t-46.5 -98.5h246v5q0 2 0.5 5t0.5 7q0 13 -4 33t-15.5 38t-33.5 31t-58 13z" />
<glyph unicode="&#x154;" horiz-adv-x="568" d="M181 322h115q49 0 80 14t49 36t24.5 49t6.5 52q0 22 -6 42.5t-20.5 36t-39 24.5t-61.5 9h-116zM417 0l-96 256h-148l-31 -256h-79l79 651h183q111 0 162 -46t51 -128q0 -43 -14 -78t-36.5 -61.5t-50.5 -43.5t-56 -23l112 -271h-76zM445 944l41 -41l-145 -146l-41 41z" />
<glyph unicode="&#x155;" horiz-adv-x="343" d="M331 387q-6 1 -12.5 1.5t-11.5 0.5q-58 0 -97 -43t-49 -115q-8 -51 -13 -93.5t-10 -73.5q-5 -36 -9 -64h-76l53 375q1 7 1 13.5v13.5q0 11 -1 22t-2 19q-1 10 -2 17h72q1 -5 3 -11q1 -5 2 -14t1 -20q0 -10 -2 -27.5t-4 -31.5h5q20 49 55 82.5t83 33.5q5 0 10.5 -0.5 t10.5 -1.5zM292 753l41 -41l-145 -146l-41 41z" />
<glyph unicode="&#x156;" horiz-adv-x="568" d="M181 322h115q49 0 80 14t49 36t24.5 49t6.5 52q0 22 -6 42.5t-20.5 36t-39 24.5t-61.5 9h-116zM417 0l-96 256h-148l-31 -256h-79l79 651h183q111 0 162 -46t51 -128q0 -43 -14 -78t-36.5 -61.5t-50.5 -43.5t-56 -23l112 -271h-76zM170 -249l18 151l73 -11l-37 -146z" />
<glyph unicode="&#x157;" horiz-adv-x="343" d="M331 387q-6 1 -12.5 1.5t-11.5 0.5q-58 0 -97 -43t-49 -115q-8 -51 -13 -93.5t-10 -73.5q-5 -36 -9 -64h-76l53 375q1 7 1 13.5v13.5q0 11 -1 22t-2 19q-1 10 -2 17h72q1 -5 3 -11q1 -5 2 -14t1 -20q0 -10 -2 -27.5t-4 -31.5h5q20 49 55 82.5t83 33.5q5 0 10.5 -0.5 t10.5 -1.5zM17 -249l18 151l73 -11l-37 -146z" />
<glyph unicode="&#x158;" horiz-adv-x="568" d="M181 322h115q49 0 80 14t49 36t24.5 49t6.5 52q0 22 -6 42.5t-20.5 36t-39 24.5t-61.5 9h-116zM417 0l-96 256h-148l-31 -256h-79l79 651h183q111 0 162 -46t51 -128q0 -43 -14 -78t-36.5 -61.5t-50.5 -43.5t-56 -23l112 -271h-76zM530 917l-176 -160h-63l-140 160h80 l97 -116l120 116h82z" />
<glyph unicode="&#x159;" horiz-adv-x="343" d="M331 387q-6 1 -12.5 1.5t-11.5 0.5q-58 0 -97 -43t-49 -115q-8 -51 -13 -93.5t-10 -73.5q-5 -36 -9 -64h-76l53 375q1 7 1 13.5v13.5q0 11 -1 22t-2 19q-1 10 -2 17h72q1 -5 3 -11q1 -5 2 -14t1 -20q0 -10 -2 -27.5t-4 -31.5h5q20 49 55 82.5t83 33.5q5 0 10.5 -0.5 t10.5 -1.5zM426 726l-176 -160h-63l-140 160h80l97 -116l120 116h82z" />
<glyph unicode="&#x15a;" horiz-adv-x="528" d="M429 513q-10 35 -42.5 60t-83.5 25q-35 0 -58.5 -11.5t-38 -29t-21 -37.5t-6.5 -38q0 -24 10 -42t26.5 -32t38 -24.5t44.5 -20.5q33 -14 64 -28.5t55 -34.5t38.5 -48.5t14.5 -70.5q0 -41 -16.5 -76t-46.5 -61t-72 -41t-93 -15q-41 0 -75.5 10t-60.5 27t-43.5 39.5 t-24.5 48.5l68 40q13 -42 50 -70.5t93 -28.5q31 0 57 8.5t45 23t29.5 34t10.5 42.5q0 27 -10.5 47t-27.5 34.5t-40 26t-47 22.5q-30 13 -59.5 28t-53 36t-38.5 50t-15 71q3 48 20 83t45 58t64.5 34t77.5 11t72.5 -9t55 -25t39 -36.5t24.5 -43.5zM411 944l41 -41l-145 -146 l-41 41z" />
<glyph unicode="&#x15b;" horiz-adv-x="434" d="M326 357q-6 15 -17 26q-10 10 -27 18t-44 8q-43 0 -66.5 -17.5t-23.5 -52.5q0 -14 7.5 -25t20.5 -19.5t30.5 -15.5t36.5 -14q24 -9 49.5 -19t45.5 -24t33 -34.5t13 -50.5t-11 -57.5t-34 -47.5t-57.5 -32t-80.5 -12q-53 0 -85 14t-51 31q-22 19 -32 45l66 36q7 -18 21 -32 q12 -12 31.5 -22t51.5 -10q44 0 72.5 18t28.5 53q0 16 -7 27.5t-19 20.5t-28 16t-34 13q-25 9 -50.5 18.5t-46.5 24.5t-34 37t-13 54q0 30 11.5 56t33 44.5t51.5 29t67 10.5q49 0 79.5 -12.5t48.5 -26.5q20 -18 31 -39zM361 753l41 -41l-145 -146l-41 41z" />
<glyph unicode="&#x15c;" horiz-adv-x="528" d="M429 513q-10 35 -42.5 60t-83.5 25q-35 0 -58.5 -11.5t-38 -29t-21 -37.5t-6.5 -38q0 -24 10 -42t26.5 -32t38 -24.5t44.5 -20.5q33 -14 64 -28.5t55 -34.5t38.5 -48.5t14.5 -70.5q0 -41 -16.5 -76t-46.5 -61t-72 -41t-93 -15q-41 0 -75.5 10t-60.5 27t-43.5 39.5 t-24.5 48.5l68 40q13 -42 50 -70.5t93 -28.5q31 0 57 8.5t45 23t29.5 34t10.5 42.5q0 27 -10.5 47t-27.5 34.5t-40 26t-47 22.5q-30 13 -59.5 28t-53 36t-38.5 50t-15 71q3 48 20 83t45 58t64.5 34t77.5 11t72.5 -9t55 -25t39 -36.5t24.5 -43.5zM139 757l175 160h62 l142 -160h-82l-96 116l-120 -116h-81z" />
<glyph unicode="&#x15d;" horiz-adv-x="434" d="M326 357q-6 15 -17 26q-10 10 -27 18t-44 8q-43 0 -66.5 -17.5t-23.5 -52.5q0 -14 7.5 -25t20.5 -19.5t30.5 -15.5t36.5 -14q24 -9 49.5 -19t45.5 -24t33 -34.5t13 -50.5t-11 -57.5t-34 -47.5t-57.5 -32t-80.5 -12q-53 0 -85 14t-51 31q-22 19 -32 45l66 36q7 -18 21 -32 q12 -12 31.5 -22t51.5 -10q44 0 72.5 18t28.5 53q0 16 -7 27.5t-19 20.5t-28 16t-34 13q-25 9 -50.5 18.5t-46.5 24.5t-34 37t-13 54q0 30 11.5 56t33 44.5t51.5 29t67 10.5q49 0 79.5 -12.5t48.5 -26.5q20 -18 31 -39zM67 566l175 160h62l142 -160h-82l-96 116l-120 -116 h-81z" />
<glyph unicode="&#x15e;" horiz-adv-x="528" d="M429 513q-10 35 -42.5 60t-83.5 25q-35 0 -58.5 -11.5t-38 -29t-21 -37.5t-6.5 -38q0 -24 10 -42t26.5 -32t38 -24.5t44.5 -20.5q33 -14 64 -28.5t55 -34.5t38.5 -48.5t14.5 -70.5q0 -41 -16.5 -76t-46.5 -61t-72 -41t-93 -15q-41 0 -75.5 10t-60.5 27t-43.5 39.5 t-24.5 48.5l68 40q13 -42 50 -70.5t93 -28.5q31 0 57 8.5t45 23t29.5 34t10.5 42.5q0 27 -10.5 47t-27.5 34.5t-40 26t-47 22.5q-30 13 -59.5 28t-53 36t-38.5 50t-15 71q3 48 20 83t45 58t64.5 34t77.5 11t72.5 -9t55 -25t39 -36.5t24.5 -43.5zM216 17q15 -8 28 -17 q64 -44 64 -101q0 -98 -115 -98q-50 0 -84 31l25 37q28 -21 62 -21q50 0 50 56q0 59 -87 105z" />
<glyph unicode="&#x15f;" horiz-adv-x="434" d="M326 357q-6 15 -17 26q-10 10 -27 18t-44 8q-43 0 -66.5 -17.5t-23.5 -52.5q0 -14 7.5 -25t20.5 -19.5t30.5 -15.5t36.5 -14q24 -9 49.5 -19t45.5 -24t33 -34.5t13 -50.5t-11 -57.5t-34 -47.5t-57.5 -32t-80.5 -12q-53 0 -85 14t-51 31q-22 19 -32 45l66 36q7 -18 21 -32 q12 -12 31.5 -22t51.5 -10q44 0 72.5 18t28.5 53q0 16 -7 27.5t-19 20.5t-28 16t-34 13q-25 9 -50.5 18.5t-46.5 24.5t-34 37t-13 54q0 30 11.5 56t33 44.5t51.5 29t67 10.5q49 0 79.5 -12.5t48.5 -26.5q20 -18 31 -39zM176 17q15 -8 28 -17q64 -44 64 -101q0 -98 -115 -98 q-50 0 -84 31l25 37q28 -21 62 -21q50 0 50 56q0 59 -87 105z" />
<glyph unicode="&#x160;" horiz-adv-x="528" d="M429 513q-10 35 -42.5 60t-83.5 25q-35 0 -58.5 -11.5t-38 -29t-21 -37.5t-6.5 -38q0 -24 10 -42t26.5 -32t38 -24.5t44.5 -20.5q33 -14 64 -28.5t55 -34.5t38.5 -48.5t14.5 -70.5q0 -41 -16.5 -76t-46.5 -61t-72 -41t-93 -15q-41 0 -75.5 10t-60.5 27t-43.5 39.5 t-24.5 48.5l68 40q13 -42 50 -70.5t93 -28.5q31 0 57 8.5t45 23t29.5 34t10.5 42.5q0 27 -10.5 47t-27.5 34.5t-40 26t-47 22.5q-30 13 -59.5 28t-53 36t-38.5 50t-15 71q3 48 20 83t45 58t64.5 34t77.5 11t72.5 -9t55 -25t39 -36.5t24.5 -43.5zM530 917l-176 -160h-63 l-140 160h80l97 -116l120 116h82z" />
<glyph unicode="&#x161;" horiz-adv-x="434" d="M326 357q-6 15 -17 26q-10 10 -27 18t-44 8q-43 0 -66.5 -17.5t-23.5 -52.5q0 -14 7.5 -25t20.5 -19.5t30.5 -15.5t36.5 -14q24 -9 49.5 -19t45.5 -24t33 -34.5t13 -50.5t-11 -57.5t-34 -47.5t-57.5 -32t-80.5 -12q-53 0 -85 14t-51 31q-22 19 -32 45l66 36q7 -18 21 -32 q12 -12 31.5 -22t51.5 -10q44 0 72.5 18t28.5 53q0 16 -7 27.5t-19 20.5t-28 16t-34 13q-25 9 -50.5 18.5t-46.5 24.5t-34 37t-13 54q0 30 11.5 56t33 44.5t51.5 29t67 10.5q49 0 79.5 -12.5t48.5 -26.5q20 -18 31 -39zM479 726l-176 -160h-63l-140 160h80l97 -116l120 116 h82z" />
<glyph unicode="&#x162;" horiz-adv-x="504" d="M70 651h477l-8 -67h-199l-71 -584h-79l71 584h-199zM156 -249l18 151l73 -11l-37 -146z" />
<glyph unicode="&#x163;" horiz-adv-x="349" d="M127 460l14 98l77 10l-15 -108h143l-9 -63h-143l-38 -263q-2 -8 -2.5 -17t-0.5 -15q0 -23 11.5 -36.5t42.5 -13.5q15 0 28.5 4.5t24.5 10.5q12 7 23 16l20 -63q-13 -9 -30 -16q-14 -6 -33.5 -11t-43.5 -5q-58 0 -88.5 28t-30.5 76q0 6 0.5 12t1.5 13l39 280h-73l9 63h73z M97 -249l18 151l73 -11l-37 -146z" />
<glyph unicode="&#x164;" horiz-adv-x="504" d="M70 651h477l-8 -67h-199l-71 -584h-79l71 584h-199zM526 917l-176 -160h-63l-140 160h80l97 -116l120 116h82z" />
<glyph unicode="&#x165;" horiz-adv-x="349" d="M127 460l14 98l77 10l-15 -108h143l-9 -63h-143l-38 -263q-2 -8 -2.5 -17t-0.5 -15q0 -23 11.5 -36.5t42.5 -13.5q15 0 28.5 4.5t24.5 10.5q12 7 23 16l20 -63q-13 -9 -30 -16q-14 -6 -33.5 -11t-43.5 -5q-58 0 -88.5 28t-30.5 76q0 6 0.5 12t1.5 13l39 280h-73l9 63h73z M274 551l43 171l72 -11l-62 -166z" />
<glyph unicode="&#x166;" horiz-adv-x="524" d="M79 651h477l-8 -67h-199l-25 -203h155l-9 -62h-153l-39 -319h-79l39 319h-155l9 62h153l25 203h-199z" />
<glyph unicode="&#x167;" horiz-adv-x="369" d="M47 279h64l17 118h-73l9 63h73l14 98l77 10l-15 -108h143l-9 -63h-143l-17 -118h128l-9 -57h-127l-13 -88q-2 -8 -2.5 -17t-0.5 -15q0 -23 11.5 -36.5t42.5 -13.5q15 0 28.5 4.5t24.5 10.5q12 7 23 16l20 -63q-13 -9 -30 -16q-14 -6 -33.5 -11t-43.5 -5q-58 0 -88.5 28 t-30.5 76q0 6 0.5 12t1.5 13l15 105h-68z" />
<glyph unicode="&#x168;" horiz-adv-x="618" d="M222 651l-53 -436q-2 -9 -2 -17v-16q0 -65 35.5 -96.5t95.5 -31.5q67 0 111 42t54 119l53 436h80l-53 -431q-14 -109 -75.5 -170.5t-170.5 -61.5q-106 0 -158.5 48t-52.5 139q0 21 3 45l53 431h80zM525 886q1 -6 1.5 -13t0.5 -17q0 -19 -5.5 -36t-16.5 -31.5t-27 -23 t-38 -8.5q-25 0 -42 10.5t-31 23.5t-26.5 23.5t-28.5 10.5q-12 0 -18.5 -7t-10 -16t-4.5 -20t-1 -18v-7h-45q-3 12 -3 34q0 17 5.5 34.5t15.5 31t26.5 21.5t38.5 8q24 0 41 -10.5t31.5 -23.5t27 -23.5t27.5 -10.5q13 0 20.5 7t11 18t4.5 22t1 16v5h45z" />
<glyph unicode="&#x169;" horiz-adv-x="527" d="M180 460l-39 -298q-1 -6 -1 -11.5v-10.5q0 -42 20.5 -66t62.5 -24q61 0 93 43t46 144q4 26 8.5 64.5t9.5 73.5q5 41 11 85h76l-47 -331q-2 -15 -4 -26t-2 -16q0 -15 6 -20.5t17 -5.5q13 0 24 3l12 4l-10 -60q-6 -4 -13 -7q-14 -7 -36 -7q-21 0 -32.5 11t-16.5 24.5 t-6 25.5t-1 15h-6q-15 -23 -37 -41q-19 -16 -47.5 -28.5t-69.5 -12.5q-60 0 -96 36t-36 97q0 8 1 16l2 16l39 307h72zM440 695q1 -6 1.5 -13t0.5 -17q0 -19 -5.5 -36t-16.5 -31.5t-27 -23t-38 -8.5q-25 0 -42 10.5t-31 23.5t-26.5 23.5t-28.5 10.5q-12 0 -18.5 -7t-10 -16 t-4.5 -20t-1 -18v-7h-45q-3 12 -3 34q0 17 5.5 34.5t16 31t26.5 21.5t38 8q24 0 41.5 -10.5t31.5 -23.5t26.5 -23.5t27.5 -10.5q13 0 20.5 7t11 18t4.5 22t1 16v5h45z" />
<glyph unicode="&#x16a;" horiz-adv-x="618" d="M222 651l-53 -436q-2 -9 -2 -17v-16q0 -65 35.5 -96.5t95.5 -31.5q67 0 111 42t54 119l53 436h80l-53 -431q-14 -109 -75.5 -170.5t-170.5 -61.5q-106 0 -158.5 48t-52.5 139q0 21 3 45l53 431h80zM241 812h303l-6 -55h-303z" />
<glyph unicode="&#x16b;" horiz-adv-x="527" d="M180 460l-39 -298q-1 -6 -1 -11.5v-10.5q0 -42 20.5 -66t62.5 -24q61 0 93 43t46 144q4 26 8.5 64.5t9.5 73.5q5 41 11 85h76l-47 -331q-2 -15 -4 -26t-2 -16q0 -15 6 -20.5t17 -5.5q13 0 24 3l12 4l-10 -60q-6 -4 -13 -7q-14 -7 -36 -7q-21 0 -32.5 11t-16.5 24.5 t-6 25.5t-1 15h-6q-15 -23 -37 -41q-19 -16 -47.5 -28.5t-69.5 -12.5q-60 0 -96 36t-36 97q0 8 1 16l2 16l39 307h72zM163 621h303l-6 -55h-303z" />
<glyph unicode="&#x16c;" horiz-adv-x="618" d="M222 651l-53 -436q-2 -9 -2 -17v-16q0 -65 35.5 -96.5t95.5 -31.5q67 0 111 42t54 119l53 436h80l-53 -431q-14 -109 -75.5 -170.5t-170.5 -61.5q-106 0 -158.5 48t-52.5 139q0 21 3 45l53 431h80zM383 812q46 0 73.5 30t32.5 74h68q-4 -34 -17.5 -63t-36 -50.5 t-54.5 -33.5t-72 -12q-81 0 -117 44.5t-28 114.5h66q-5 -44 18 -74t67 -30z" />
<glyph unicode="&#x16d;" horiz-adv-x="527" d="M180 460l-39 -298q-1 -6 -1 -11.5v-10.5q0 -42 20.5 -66t62.5 -24q61 0 93 43t46 144q4 26 8.5 64.5t9.5 73.5q5 41 11 85h76l-47 -331q-2 -15 -4 -26t-2 -16q0 -15 6 -20.5t17 -5.5q13 0 24 3l12 4l-10 -60q-6 -4 -13 -7q-14 -7 -36 -7q-21 0 -32.5 11t-16.5 24.5 t-6 25.5t-1 15h-6q-15 -23 -37 -41q-19 -16 -47.5 -28.5t-69.5 -12.5q-60 0 -96 36t-36 97q0 8 1 16l2 16l39 307h72zM305 621q46 0 73.5 30t32.5 74h68q-4 -34 -17.5 -63t-36 -50.5t-54.5 -33.5t-72 -12q-81 0 -117 44.5t-28 114.5h66q-5 -44 18 -74t67 -30z" />
<glyph unicode="&#x16e;" horiz-adv-x="618" d="M222 651l-53 -436q-2 -9 -2 -17v-16q0 -65 35.5 -96.5t95.5 -31.5q67 0 111 42t54 119l53 436h80l-53 -431q-14 -109 -75.5 -170.5t-170.5 -61.5q-106 0 -158.5 48t-52.5 139q0 21 3 45l53 431h80zM279 863q0 24 8.5 45t24 36.5t37 25t48.5 9.5q49 0 78.5 -31t29.5 -75 q0 -24 -8.5 -45.5t-24.5 -37t-37.5 -24.5t-47.5 -9q-51 0 -79.5 30.5t-28.5 75.5zM327 866q0 -28 17 -46.5t45 -18.5t48 20t20 49q0 26 -18 45.5t-44 19.5q-29 0 -48.5 -20.5t-19.5 -48.5z" />
<glyph unicode="&#x16f;" horiz-adv-x="527" d="M180 460l-39 -298q-1 -6 -1 -11.5v-10.5q0 -42 20.5 -66t62.5 -24q61 0 93 43t46 144q4 26 8.5 64.5t9.5 73.5q5 41 11 85h76l-47 -331q-2 -15 -4 -26t-2 -16q0 -15 6 -20.5t17 -5.5q13 0 24 3l12 4l-10 -60q-6 -4 -13 -7q-14 -7 -36 -7q-21 0 -32.5 11t-16.5 24.5 t-6 25.5t-1 15h-6q-15 -23 -37 -41q-19 -16 -47.5 -28.5t-69.5 -12.5q-60 0 -96 36t-36 97q0 8 1 16l2 16l39 307h72zM195 672q0 24 8.5 45t24 36.5t37 25t48.5 9.5q49 0 78.5 -31t29.5 -75q0 -24 -8.5 -45.5t-24.5 -37t-37.5 -24.5t-47.5 -9q-51 0 -79.5 30.5t-28.5 75.5z M243 675q0 -28 17 -46.5t45 -18.5t48 20t20 49q0 26 -18 45.5t-44 19.5q-29 0 -48.5 -20.5t-19.5 -48.5z" />
<glyph unicode="&#x170;" horiz-adv-x="618" d="M222 651l-53 -436q-2 -9 -2 -17v-16q0 -65 35.5 -96.5t95.5 -31.5q67 0 111 42t54 119l53 436h80l-53 -431q-14 -109 -75.5 -170.5t-170.5 -61.5q-106 0 -158.5 48t-52.5 139q0 21 3 45l53 431h80zM409 944l41 -35l-134 -151l-41 34zM578 944l41 -35l-134 -151l-41 34z " />
<glyph unicode="&#x171;" horiz-adv-x="527" d="M180 460l-39 -298q-1 -6 -1 -11.5v-10.5q0 -42 20.5 -66t62.5 -24q61 0 93 43t46 144q4 26 8.5 64.5t9.5 73.5q5 41 11 85h76l-47 -331q-2 -15 -4 -26t-2 -16q0 -15 6 -20.5t17 -5.5q13 0 24 3l12 4l-10 -60q-6 -4 -13 -7q-14 -7 -36 -7q-21 0 -32.5 11t-16.5 24.5 t-6 25.5t-1 15h-6q-15 -23 -37 -41q-19 -16 -47.5 -28.5t-69.5 -12.5q-60 0 -96 36t-36 97q0 8 1 16l2 16l39 307h72zM312 753l43 -35l-134 -151l-43 34zM485 753l43 -35l-134 -151l-43 34z" />
<glyph unicode="&#x172;" horiz-adv-x="618" d="M222 651l-53 -436q-2 -9 -2 -17v-16q0 -65 35.5 -96.5t95.5 -31.5q67 0 111 42t54 119l53 436h80l-53 -431q-14 -109 -75.5 -170.5t-170.5 -61.5q-106 0 -158.5 48t-52.5 139q0 21 3 45l53 431h80zM382 9q-127 -57 -127 -111q0 -50 43 -50q29 0 54 21l25 -37 q-38 -31 -81 -31q-103 0 -103 88q0 59 98 111q17 10 34 17z" />
<glyph unicode="&#x173;" horiz-adv-x="527" d="M180 460l-39 -298q-1 -6 -1 -11.5v-10.5q0 -42 20.5 -66t62.5 -24q61 0 93 43t46 144q4 26 8.5 64.5t9.5 73.5q5 41 11 85h76l-47 -331q-2 -15 -4 -26t-2 -16q0 -15 6 -20.5t17 -5.5q13 0 24 3l12 4l-10 -60q-6 -4 -13 -7q-14 -7 -36 -7q-21 0 -32.5 11t-16.5 24.5 t-6 25.5t-1 15h-6q-15 -23 -37 -41q-19 -16 -47.5 -28.5t-69.5 -12.5q-60 0 -96 36t-36 97q0 8 1 16l2 16l39 307h72zM455 9q-127 -57 -127 -111q0 -50 43 -50q29 0 54 21l25 -37q-38 -31 -81 -31q-103 0 -103 88q0 59 98 111q17 10 34 17z" />
<glyph unicode="&#x174;" horiz-adv-x="914" d="M562 651l69 -599l211 599h76l-243 -651h-105l-68 613l-214 -613h-95l-88 651h70l72 -599l208 599h107zM331 757l175 160h62l142 -160h-82l-96 116l-120 -116h-81z" />
<glyph unicode="&#x175;" horiz-adv-x="698" d="M424 460l43 -423l155 423h70l-179 -460h-101l-43 428l-159 -428h-88l-53 460h65l40 -424l148 424h102zM199 566l175 160h62l142 -160h-82l-96 116l-120 -116h-81z" />
<glyph unicode="&#x176;" horiz-adv-x="517" d="M61 651h73l134 -354l218 354h78l-262 -401l-30 -250h-79l30 250zM135 757l175 160h62l142 -160h-82l-96 116l-120 -116h-81z" />
<glyph unicode="&#x177;" horiz-adv-x="510" d="M176 460l-39 -298q-1 -5 -1.5 -11.5t-0.5 -14.5q0 -39 19.5 -62.5t61.5 -23.5q32 0 55.5 14t40.5 38.5t28 57.5t17 71q2 15 5.5 38t6.5 48t6 50.5t6 46t4.5 33t1.5 13.5h76l-57 -483q-7 -60 -27 -103t-51 -71t-71 -41.5t-86 -13.5q-54 0 -87 14t-53 31q-23 19 -34 45 l50 44q9 -20 27 -36q15 -14 40.5 -25t63.5 -11q39 0 66 13t44.5 35t27 50.5t14.5 59.5l8 56t5 34q3 14 4 22q-14 -26 -35 -46q-18 -17 -45.5 -31.5t-66.5 -14.5q-63 0 -100 36.5t-37 98.5v14.5t2 15.5l39 307h72zM105 566l175 160h62l142 -160h-82l-96 116l-120 -116h-81z " />
<glyph unicode="&#x178;" horiz-adv-x="517" d="M61 651h73l134 -354l218 354h78l-262 -401l-30 -250h-79l30 250zM280 815q0 -26 -17 -42t-42 -16q-23 0 -37.5 14.5t-14.5 37.5q0 27 16.5 43t41.5 16q23 0 38 -14.5t15 -38.5zM481 815q0 -26 -17 -42t-41 -16t-38.5 14.5t-14.5 37.5q0 27 16.5 43t42.5 16 q23 0 37.5 -14.5t14.5 -38.5z" />
<glyph unicode="&#x179;" horiz-adv-x="520" d="M531 600l-29 -35l-404 -500h377l-8 -65h-464l6 51l30 38l403 497h-349l8 65h436zM419 944l41 -41l-145 -146l-41 41z" />
<glyph unicode="&#x17a;" horiz-adv-x="435" d="M411 407l-22 -25l-283 -319h268l-9 -63h-350l8 53l32 36l272 308h-254l9 63h337zM378 753l41 -41l-145 -146l-41 41z" />
<glyph unicode="&#x17b;" horiz-adv-x="520" d="M531 600l-29 -35l-404 -500h377l-8 -65h-464l6 51l30 38l403 497h-349l8 65h436zM385 817q0 -28 -17 -44t-40 -16q-21 0 -38 16t-17 44q0 26 17 41.5t38 15.5q23 0 40 -15.5t17 -41.5z" />
<glyph unicode="&#x17c;" horiz-adv-x="435" d="M411 407l-22 -25l-283 -319h268l-9 -63h-350l8 53l32 36l272 308h-254l9 63h337zM337 626q0 -28 -17 -44t-40 -16q-21 0 -38 16t-17 44q0 26 17 41.5t38 15.5q23 0 40 -15.5t17 -41.5z" />
<glyph unicode="&#x17d;" horiz-adv-x="520" d="M531 600l-29 -35l-404 -500h377l-8 -65h-464l6 51l30 38l403 497h-349l8 65h436zM529 917l-176 -160h-63l-140 160h80l97 -116l120 116h82z" />
<glyph unicode="&#x17e;" horiz-adv-x="435" d="M411 407l-22 -25l-283 -319h268l-9 -63h-350l8 53l32 36l272 308h-254l9 63h337zM474 726l-176 -160h-63l-140 160h80l97 -116l120 116h82z" />
<glyph unicode="&#x17f;" horiz-adv-x="234" d="M130 578q4 31 18 56.5t34 43.5t46.5 28t56.5 10q32 0 54 -7.5t30 -17.5l-19 -65q-7 8 -23 14.5t-43 6.5q-30 0 -55 -20t-30 -67l-82 -682q-4 -32 -17 -55t-32.5 -38.5t-43.5 -23t-50 -7.5q-23 0 -40 5t-28 12l14 66q8 -5 20 -9.5t30 -4.5q10 0 21.5 2.5t22 10t18.5 22 t11 38.5z" />
<glyph unicode="&#x180;" horiz-adv-x="569" d="M220 711q0 -1 -3 -18q-2 -17 -6 -44q-2 -20 -5 -42h142l-7 -62h-143q0 -9 -1 -17q-3 -29 -5.5 -51.5t-3.5 -28.5q-2 -17 -6 -30.5t-4 -16.5h5q15 19 36 35q18 14 45.5 25t65.5 11q43 0 79 -15t61.5 -43t39.5 -68t14 -90q0 -55 -17 -104t-48 -85.5t-74.5 -57.5t-97.5 -21 q-44 0 -71 13.5t-44 30.5q-19 19 -29 45h-5l-12 -77h-69l67 545h-63l7 62h64l13 104h75zM281 51q36 0 66.5 14.5t53 41t35 63.5t12.5 82q0 41 -10 70.5t-28 49t-42 28.5t-52 9q-34 0 -63.5 -13.5t-51 -39t-34 -62.5t-12.5 -85q0 -82 35 -120t91 -38z" />
<glyph unicode="&#x18f;" horiz-adv-x="657" d="M518 348q2 10 2 19v21q0 104 -46.5 156.5t-131.5 52.5q-72 0 -111.5 -27.5t-64.5 -72.5l-68 35q14 23 35.5 46.5t51.5 42t70 30.5t92 12q68 0 116.5 -21t79 -59t45 -90t14.5 -115q0 -84 -22.5 -155.5t-63 -123.5t-97 -81.5t-124.5 -29.5q-59 0 -104 18t-75 51t-45.5 79.5 t-15.5 104.5q0 47 3.5 68.5t6.5 38.5h453zM299 54q49 0 86.5 19.5t63.5 51.5t41.5 73t20.5 84h-370l-2 -15q-3 -18 -3 -39q0 -33 8 -64.5t27 -56t50 -39t78 -14.5z" />
<glyph unicode="&#x192;" horiz-adv-x="440" d="M190 291h-81l7 63h84l13 82q10 62 52.5 100t102.5 38q27 0 51.5 -7t32.5 -18l-19 -65q-7 8 -24 14.5t-42 6.5q-30 0 -55 -20t-30 -67l-7 -64h105l-7 -63h-107l-33 -279q-4 -32 -17 -55t-32.5 -38.5t-43.5 -23t-50 -7.5q-23 0 -40 5t-28 12l14 66q8 -5 20 -9.5t30 -4.5 q10 0 21.5 2.5t22 10t18.5 22t11 38.5z" />
<glyph unicode="&#x195;" horiz-adv-x="827" d="M466 316l-19 -147q-2 -13 -2 -19v-10q0 -42 20 -66t61 -24q60 0 91 43t45 144q4 26 8.5 64.5t9.5 73.5q5 41 11 85h76l-47 -331q-2 -15 -4 -26t-2 -16q0 -15 6 -20.5t17 -5.5q13 0 24 3l12 4l-10 -60q-6 -4 -13 -7q-14 -7 -36 -7q-21 0 -32.5 11t-16.5 24.5t-6 25.5 t-1 15h-6q-15 -23 -36 -41q-19 -16 -47 -28.5t-68 -12.5q-59 0 -94.5 36t-35.5 97q0 8 1 16l23 187q0 43 -23 64.5t-64 21.5q-59 0 -96.5 -44.5t-50.5 -138.5q-1 -9 -3 -23t-4 -32t-4 -37.5t-4 -38.5q-5 -45 -10 -96h-76l86 711h76l-46 -337h5q16 27 39 49q20 18 50 33.5 t71 15.5q63 0 95 -35.5t32 -92.5q0 -14 -2 -28z" />
<glyph unicode="&#x1a6;" horiz-adv-x="568" d="M166 204h115q49 0 80 14t49 36t24.5 49t6.5 52q0 22 -6 42.5t-20.5 36t-39 24.5t-61.5 9h-116zM406 -127l-100 265h-148l-16 -138h-79l79 651h78l-14 -118h104q111 0 162 -46t51 -128q0 -43 -14 -78t-36.5 -61.5t-50.5 -43.5t-56 -23l116 -280h-76z" />
<glyph unicode="&#x1cd;" horiz-adv-x="603" d="M14 0l291 651h102l136 -651h-73l-33 164h-279l-71 -164h-73zM187 229h237l-75 376zM577 917l-176 -160h-63l-140 160h80l97 -116l120 116h82z" />
<glyph unicode="&#x1ce;" horiz-adv-x="578" d="M472 129q-2 -15 -3.5 -26t-1.5 -17q0 -16 5 -22t17 -6q6 0 12 1t11 3q6 2 12 5l-10 -62q-5 -4 -12 -8q-14 -7 -34 -7q-25 0 -38.5 13.5t-19.5 30t-7 30.5t-1 16h-6q-14 -26 -35 -46q-19 -17 -48 -31.5t-73 -14.5q-45 0 -81 15.5t-61 44t-38.5 69t-13.5 89.5 q0 57 17.5 105.5t49 84.5t75 56t94.5 20q42 0 70.5 -14t45.5 -31q20 -19 32 -44l6 2l12 75h71zM250 51q37 0 67.5 15t51.5 42.5t32.5 65.5t11.5 84q0 78 -35 114.5t-92 36.5q-38 0 -68 -15t-51 -42.5t-32.5 -65t-11.5 -82.5q0 -78 35 -115.5t92 -37.5zM528 726l-176 -160 h-63l-140 160h80l97 -116l120 116h82z" />
<glyph unicode="&#x1de;" horiz-adv-x="603" d="M14 0l291 651h102l136 -651h-73l-33 164h-279l-71 -164h-73zM187 229h237l-75 376zM321 775q0 -26 -17 -42t-42 -16q-23 0 -37.5 14.5t-14.5 37.5q0 27 16.5 43t41.5 16q23 0 38 -14.5t15 -38.5zM522 775q0 -26 -17 -42t-41 -16t-38.5 14.5t-14.5 37.5q0 27 16.5 43 t42.5 16q23 0 37.5 -14.5t14.5 -38.5zM235 932h303l-6 -55h-303z" />
<glyph unicode="&#x1df;" horiz-adv-x="578" d="M472 129q-2 -15 -3.5 -26t-1.5 -17q0 -16 5 -22t17 -6q6 0 12 1t11 3q6 2 12 5l-10 -62q-5 -4 -12 -8q-14 -7 -34 -7q-25 0 -38.5 13.5t-19.5 30t-7 30.5t-1 16h-6q-14 -26 -35 -46q-19 -17 -48 -31.5t-73 -14.5q-45 0 -81 15.5t-61 44t-38.5 69t-13.5 89.5 q0 57 17.5 105.5t49 84.5t75 56t94.5 20q42 0 70.5 -14t45.5 -31q20 -19 32 -44l6 2l12 75h71zM250 51q37 0 67.5 15t51.5 42.5t32.5 65.5t11.5 84q0 78 -35 114.5t-92 36.5q-38 0 -68 -15t-51 -42.5t-32.5 -65t-11.5 -82.5q0 -78 35 -115.5t92 -37.5zM173 741h303l-6 -55 h-303zM259 585q0 -26 -17 -42t-42 -16q-23 0 -37.5 14.5t-14.5 37.5q0 27 16.5 43t41.5 16q23 0 38 -14.5t15 -38.5zM460 585q0 -26 -17 -42t-41 -16t-38.5 14.5t-14.5 37.5q0 27 16.5 43t42.5 16q23 0 37.5 -14.5t14.5 -38.5z" />
<glyph unicode="&#x1e0;" horiz-adv-x="603" d="M14 0l291 651h102l136 -651h-73l-33 164h-279l-71 -164h-73zM187 229h237l-75 376zM421 774q0 -28 -17 -44t-40 -16q-21 0 -38 16t-17 44q0 26 17 41.5t38 15.5q23 0 40 -15.5t17 -41.5zM235 932h303l-6 -55h-303z" />
<glyph unicode="&#x1e1;" horiz-adv-x="578" d="M472 129q-2 -15 -3.5 -26t-1.5 -17q0 -16 5 -22t17 -6q6 0 12 1t11 3q6 2 12 5l-10 -62q-5 -4 -12 -8q-14 -7 -34 -7q-25 0 -38.5 13.5t-19.5 30t-7 30.5t-1 16h-6q-14 -26 -35 -46q-19 -17 -48 -31.5t-73 -14.5q-45 0 -81 15.5t-61 44t-38.5 69t-13.5 89.5 q0 57 17.5 105.5t49 84.5t75 56t94.5 20q42 0 70.5 -14t45.5 -31q20 -19 32 -44l6 2l12 75h71zM250 51q37 0 67.5 15t51.5 42.5t32.5 65.5t11.5 84q0 78 -35 114.5t-92 36.5q-38 0 -68 -15t-51 -42.5t-32.5 -65t-11.5 -82.5q0 -78 35 -115.5t92 -37.5zM360 583 q0 -28 -17 -44t-40 -16q-21 0 -38 16t-17 44q0 26 17 41.5t38 15.5q23 0 40 -15.5t17 -41.5zM173 741h303l-6 -55h-303z" />
<glyph unicode="&#x1e2;" horiz-adv-x="827" d="M49 0h-72l396 651h434l-8 -66h-298l-27 -224h274l-8 -66h-274l-28 -229h311l-8 -66h-390l20 164h-221zM427 618l-238 -389h190zM455 812h303l-6 -55h-303z" />
<glyph unicode="&#x1e3;" horiz-adv-x="806" d="M443 204q0 -32 6 -59.5t18.5 -47.5t32.5 -32t48 -12q31 0 52 9.5t34 21.5q15 13 24 31l66 -35q-15 -26 -39 -46q-20 -17 -52.5 -31.5t-79.5 -14.5q-53 0 -85.5 17.5t-50.5 39.5q-21 26 -31 58h-6q-9 -22 -27 -42.5t-41.5 -36.5t-52 -26t-59.5 -10q-41 0 -69 10.5t-45 27 t-24 38t-7 42.5q0 64 49.5 99.5t127.5 42.5l136 11l6 47q1 5 1 9v9q0 42 -25 64t-72 22q-35 0 -59 -12t-38 -26q-17 -17 -27 -37l-61 34q14 29 39 52q21 20 55.5 36t87.5 16q54 0 84 -17t45 -37q18 -24 22 -54h4q15 30 38 54q20 20 49.5 37t71.5 17q37 0 68 -12t53.5 -36 t35 -60t12.5 -84q0 -13 -1 -25.5t-3 -26.5zM576 409q-45 0 -81.5 -38.5t-44.5 -104.5l230 16q1 5 1 12.5v12.5q0 47 -27.5 74.5t-77.5 27.5zM204 52q60 0 101.5 24t49.5 78l7 48q-24 -2 -47 -5q-20 -2 -42.5 -4t-39.5 -4q-52 -5 -76.5 -22t-24.5 -52q0 -29 18.5 -46 t53.5 -17zM304 621h303l-6 -55h-303z" />
<glyph unicode="&#x1e6;" horiz-adv-x="655" d="M597 327l-40 -327h-59l3 76h-4q-13 -25 -35 -44q-20 -17 -51.5 -30.5t-81.5 -13.5q-57 0 -105.5 19t-83 54t-54 86t-19.5 116q0 69 19.5 140t59.5 129t101 94.5t144 36.5q46 0 80.5 -9.5t59.5 -25.5t42.5 -37t30.5 -44l-73 -40q-6 19 -16.5 35.5t-27.5 28.5t-41.5 19 t-57.5 7q-60 0 -105 -26.5t-75 -70.5t-44.5 -102.5t-14.5 -122.5q0 -105 43.5 -163t135.5 -58q37 0 68.5 9.5t55 26.5t37 40t16.5 50l8 81h-176l8 66h252zM613 917l-176 -160h-63l-140 160h80l97 -116l120 116h82z" />
<glyph unicode="&#x1e7;" horiz-adv-x="549" d="M212 -252q-58 0 -96.5 14.5t-61.5 33t-33.5 35t-11.5 20.5l54 45q1 -3 10 -17t27 -29t47 -27t71 -12q124 0 148 148q2 14 5 32.5t6 36t5 29.5t2 13h-5q-14 -23 -35 -41q-18 -16 -45.5 -28.5t-66.5 -12.5q-43 0 -77.5 16t-58.5 44.5t-36.5 68.5t-12.5 88q0 57 17 106 t48 84.5t72.5 56t91.5 20.5q41 0 67.5 -14t42.5 -31q18 -19 29 -44l6 2l11 75h71l-56 -455q-17 -137 -77.5 -197t-157.5 -60zM246 51q33 0 61.5 13.5t49.5 39.5t33 64t12 87q0 80 -31 117t-85 37q-35 0 -64.5 -15t-51.5 -42t-34 -65t-12 -84q0 -80 34 -116t88 -36zM494 726 l-176 -160h-63l-140 160h80l97 -116l120 116h82z" />
<glyph unicode="&#x1e8;" horiz-adv-x="580" d="M181 324l318 327h90l-293 -293l234 -358h-92l-194 323l-70 -64l-32 -259h-79l79 651h79zM558 917l-176 -160h-63l-140 160h80l97 -116l120 116h82z" />
<glyph unicode="&#x1e9;" horiz-adv-x="505" d="M395 460h89l-210 -199l184 -261h-87l-148 224l-67 -57l-20 -167h-76l86 711h76l-61 -485zM522 957l-176 -160h-63l-140 160h80l97 -116l120 116h82z" />
<glyph unicode="&#x1ea;" horiz-adv-x="702" d="M647 387q0 -72 -19 -143.5t-59 -128t-100.5 -92t-142.5 -35.5q-59 0 -107 18.5t-82.5 54t-53.5 87t-19 117.5q0 70 20 141t60 128t100 93t140 36q58 0 106.5 -18.5t83 -54t54 -87t19.5 -116.5zM324 54q65 0 111 28t75 74.5t42 106t13 121.5q0 104 -49 158.5t-130 54.5 q-65 0 -110.5 -28.5t-74.5 -74.5t-42.5 -105.5t-13.5 -120.5q0 -105 49.5 -159.5t129.5 -54.5zM369 9q-127 -57 -127 -111q0 -50 43 -50q29 0 54 21l25 -37q-38 -31 -81 -31q-103 0 -103 88q0 59 98 111q17 10 34 17z" />
<glyph unicode="&#x1eb;" horiz-adv-x="533" d="M248 -12q-45 0 -82.5 15.5t-64 43.5t-41 67t-14.5 86q0 62 18 112t50 85.5t76 55t97 19.5q99 0 150 -57t51 -151q0 -62 -17 -113t-48.5 -87t-76 -56t-98.5 -20zM251 51q33 0 62.5 13.5t51 40t34.5 65.5t13 91q0 74 -35.5 111t-92.5 37q-33 0 -62.5 -13.5t-51.5 -40.5 t-34.5 -66.5t-12.5 -91.5q0 -73 35.5 -109.5t92.5 -36.5zM305 9q-127 -57 -127 -111q0 -50 43 -50q29 0 54 21l25 -37q-38 -31 -81 -31q-103 0 -103 88q0 59 98 111q17 10 34 17z" />
<glyph unicode="&#x1f6;" horiz-adv-x="955" d="M612 651l-58 -491v-11q-1 -51 21 -75t67 -24q65 0 99 43t49 144q4 26 8.5 64.5t9.5 73.5q5 41 11 85h76l-47 -331q-2 -15 -4 -26t-2 -16q0 -15 6 -20.5t17 -5.5q13 0 24 3l12 4l-10 -60q-6 -4 -13 -7q-14 -7 -36 -7q-21 0 -32.5 11t-16.5 24.5t-6 25.5t-1 15h-6 q-17 -23 -40 -41q-21 -16 -52 -28.5t-75 -12.5q-65 0 -104.5 36t-38.5 106q0 8 1 16l17 138h-312l-34 -284h-79l79 651h79l-37 -301h312l37 301h79z" />
<glyph unicode="&#x1fe;" horiz-adv-x="702" d="M119 82q-55 73 -55 190q0 92 25.5 164.5t69.5 123t102.5 77t123.5 26.5q51 0 93 -14.5t75 -40.5l54 61l46 -41l-57 -67q23 -35 36 -81t13 -102q0 -92 -26 -164t-69.5 -122.5t-102 -77t-122.5 -26.5q-98 0 -162 50l-46 -53l-46 42zM387 597q-65 0 -111.5 -31t-75.5 -80 t-42.5 -109.5t-13.5 -120.5q0 -70 25 -120l339 414q-45 47 -121 47zM323 54q66 0 112 29.5t74.5 77.5t41 108.5t12.5 122.5q0 66 -20 114l-335 -412q44 -40 115 -40zM510 944l41 -41l-145 -146l-41 41z" />
<glyph unicode="&#x1ff;" horiz-adv-x="533" d="M413 753l41 -41l-145 -146l-41 41zM75 82q-29 50 -29 118q0 62 18 112t50 85.5t76 55t97 19.5q50 0 87 -15t63 -43l61 54l34 -41l-65 -58q21 -45 21 -105q0 -62 -17 -113t-48.5 -87t-76 -56t-98.5 -20q-43 0 -78 13.5t-61 37.5l-59 -53l-33 43zM123 197q0 -38 9 -65 l250 233q-35 44 -98 44q-33 0 -62.5 -13.5t-51.5 -40.5t-34.5 -66.5t-12.5 -91.5zM251 51q33 0 62.5 13.5t51 40t34.5 65.5t13 91q0 32 -8 61l-248 -232q33 -39 95 -39z" />
<glyph unicode="&#x218;" horiz-adv-x="528" d="M429 513q-10 35 -42.5 60t-83.5 25q-35 0 -58.5 -11.5t-38 -29t-21 -37.5t-6.5 -38q0 -24 10 -42t26.5 -32t38 -24.5t44.5 -20.5q33 -14 64 -28.5t55 -34.5t38.5 -48.5t14.5 -70.5q0 -41 -16.5 -76t-46.5 -61t-72 -41t-93 -15q-41 0 -75.5 10t-60.5 27t-43.5 39.5 t-24.5 48.5l68 40q13 -42 50 -70.5t93 -28.5q31 0 57 8.5t45 23t29.5 34t10.5 42.5q0 27 -10.5 47t-27.5 34.5t-40 26t-47 22.5q-30 13 -59.5 28t-53 36t-38.5 50t-15 71q3 48 20 83t45 58t64.5 34t77.5 11t72.5 -9t55 -25t39 -36.5t24.5 -43.5zM166 -249l18 151l73 -11 l-37 -146z" />
<glyph unicode="&#x219;" horiz-adv-x="434" d="M326 357q-6 15 -17 26q-10 10 -27 18t-44 8q-43 0 -66.5 -17.5t-23.5 -52.5q0 -14 7.5 -25t20.5 -19.5t30.5 -15.5t36.5 -14q24 -9 49.5 -19t45.5 -24t33 -34.5t13 -50.5t-11 -57.5t-34 -47.5t-57.5 -32t-80.5 -12q-53 0 -85 14t-51 31q-22 19 -32 45l66 36q7 -18 21 -32 q12 -12 31.5 -22t51.5 -10q44 0 72.5 18t28.5 53q0 16 -7 27.5t-19 20.5t-28 16t-34 13q-25 9 -50.5 18.5t-46.5 24.5t-34 37t-13 54q0 30 11.5 56t33 44.5t51.5 29t67 10.5q49 0 79.5 -12.5t48.5 -26.5q20 -18 31 -39zM134 -249l18 151l73 -11l-37 -146z" />
<glyph unicode="&#x21a;" horiz-adv-x="504" d="M70 651h477l-8 -67h-199l-71 -584h-79l71 584h-199zM156 -249l18 151l73 -11l-37 -146z" />
<glyph unicode="&#x21b;" horiz-adv-x="349" d="M127 460l14 98l77 10l-15 -108h143l-9 -63h-143l-38 -263q-2 -8 -2.5 -17t-0.5 -15q0 -23 11.5 -36.5t42.5 -13.5q15 0 28.5 4.5t24.5 10.5q12 7 23 16l20 -63q-13 -9 -30 -16q-14 -6 -33.5 -11t-43.5 -5q-58 0 -88.5 28t-30.5 76q0 6 0.5 12t1.5 13l39 280h-73l9 63h73z M97 -249l18 151l73 -11l-37 -146z" />
<glyph unicode="&#x22a;" horiz-adv-x="702" d="M647 387q0 -72 -19 -143.5t-59 -128t-100.5 -92t-142.5 -35.5q-59 0 -107 18.5t-82.5 54t-53.5 87t-19 117.5q0 70 20 141t60 128t100 93t140 36q58 0 106.5 -18.5t83 -54t54 -87t19.5 -116.5zM324 54q65 0 111 28t75 74.5t42 106t13 121.5q0 104 -49 158.5t-130 54.5 q-65 0 -110.5 -28.5t-74.5 -74.5t-42.5 -105.5t-13.5 -120.5q0 -105 49.5 -159.5t129.5 -54.5zM371 775q0 -26 -17 -42t-42 -16q-23 0 -37.5 14.5t-14.5 37.5q0 27 16.5 43t41.5 16q23 0 38 -14.5t15 -38.5zM572 775q0 -26 -17 -42t-41 -16t-38.5 14.5t-14.5 37.5 q0 27 16.5 43t42.5 16q23 0 37.5 -14.5t14.5 -38.5zM285 932h303l-6 -55h-303z" />
<glyph unicode="&#x22b;" horiz-adv-x="533" d="M248 -12q-45 0 -82.5 15.5t-64 43.5t-41 67t-14.5 86q0 62 18 112t50 85.5t76 55t97 19.5q99 0 150 -57t51 -151q0 -62 -17 -113t-48.5 -87t-76 -56t-98.5 -20zM251 51q33 0 62.5 13.5t51 40t34.5 65.5t13 91q0 74 -35.5 111t-92.5 37q-33 0 -62.5 -13.5t-51.5 -40.5 t-34.5 -66.5t-12.5 -91.5q0 -73 35.5 -109.5t92.5 -36.5zM173 741h303l-6 -55h-303zM260 585q0 -26 -17 -42t-42 -16q-23 0 -37.5 14.5t-14.5 37.5q0 27 16.5 43t41.5 16q23 0 38 -14.5t15 -38.5zM461 585q0 -26 -17 -42t-41 -16t-38.5 14.5t-14.5 37.5q0 27 16.5 43 t42.5 16q23 0 37.5 -14.5t14.5 -38.5z" />
<glyph unicode="&#x22c;" horiz-adv-x="702" d="M561 839q1 -6 1.5 -13t0.5 -17q0 -19 -5.5 -36t-16.5 -31.5t-27 -23t-38 -8.5q-25 0 -42 10.5t-31 23.5t-26.5 23.5t-28.5 10.5q-12 0 -18.5 -7t-10 -16t-4.5 -20t-1 -18v-7h-45q-3 12 -3 34q0 17 5.5 34.5t16 31t26.5 21.5t38 8q24 0 41.5 -10.5t31.5 -23.5t26.5 -23.5 t27.5 -10.5q13 0 20.5 7t11 18t4.5 22t1 16v5h45zM647 387q0 -72 -19 -143.5t-59 -128t-100.5 -92t-142.5 -35.5q-59 0 -107 18.5t-82.5 54t-53.5 87t-19 117.5q0 70 20 141t60 128t100 93t140 36q58 0 106.5 -18.5t83 -54t54 -87t19.5 -116.5zM324 54q65 0 111 28t75 74.5 t42 106t13 121.5q0 104 -49 158.5t-130 54.5q-65 0 -110.5 -28.5t-74.5 -74.5t-42.5 -105.5t-13.5 -120.5q0 -105 49.5 -159.5t129.5 -54.5zM285 932h303l-6 -55h-303z" />
<glyph unicode="&#x22d;" horiz-adv-x="533" d="M248 -12q-45 0 -82.5 15.5t-64 43.5t-41 67t-14.5 86q0 62 18 112t50 85.5t76 55t97 19.5q99 0 150 -57t51 -151q0 -62 -17 -113t-48.5 -87t-76 -56t-98.5 -20zM251 51q33 0 62.5 13.5t51 40t34.5 65.5t13 91q0 74 -35.5 111t-92.5 37q-33 0 -62.5 -13.5t-51.5 -40.5 t-34.5 -66.5t-12.5 -91.5q0 -73 35.5 -109.5t92.5 -36.5zM454 649q1 -6 1.5 -13t0.5 -17q0 -19 -5.5 -36t-16.5 -31.5t-27 -23t-38 -8.5q-25 0 -42 10.5t-31 23.5t-26.5 23.5t-28.5 10.5q-12 0 -18.5 -7t-10 -16t-4.5 -20t-1 -18v-7h-45q-3 12 -3 34q0 17 5.5 34.5t16 31 t26.5 21.5t38 8q24 0 41.5 -10.5t31.5 -23.5t26.5 -23.5t27.5 -10.5q13 0 20.5 7t11 18t4.5 22t1 16v5h45zM173 741h303l-6 -55h-303z" />
<glyph unicode="&#x22e;" horiz-adv-x="702" d="M647 387q0 -72 -19 -143.5t-59 -128t-100.5 -92t-142.5 -35.5q-59 0 -107 18.5t-82.5 54t-53.5 87t-19 117.5q0 70 20 141t60 128t100 93t140 36q58 0 106.5 -18.5t83 -54t54 -87t19.5 -116.5zM324 54q65 0 111 28t75 74.5t42 106t13 121.5q0 104 -49 158.5t-130 54.5 q-65 0 -110.5 -28.5t-74.5 -74.5t-42.5 -105.5t-13.5 -120.5q0 -105 49.5 -159.5t129.5 -54.5zM468 817q0 -28 -17 -44t-40 -16q-21 0 -38 16t-17 44q0 26 17 41.5t38 15.5q23 0 40 -15.5t17 -41.5z" />
<glyph unicode="&#x22f;" horiz-adv-x="533" d="M248 -12q-45 0 -82.5 15.5t-64 43.5t-41 67t-14.5 86q0 62 18 112t50 85.5t76 55t97 19.5q99 0 150 -57t51 -151q0 -62 -17 -113t-48.5 -87t-76 -56t-98.5 -20zM251 51q33 0 62.5 13.5t51 40t34.5 65.5t13 91q0 74 -35.5 111t-92.5 37q-33 0 -62.5 -13.5t-51.5 -40.5 t-34.5 -66.5t-12.5 -91.5q0 -73 35.5 -109.5t92.5 -36.5zM356 626q0 -28 -17 -44t-40 -16q-21 0 -38 16t-17 44q0 26 17 41.5t38 15.5q23 0 40 -15.5t17 -41.5z" />
<glyph unicode="&#x230;" horiz-adv-x="702" d="M647 387q0 -72 -19 -143.5t-59 -128t-100.5 -92t-142.5 -35.5q-59 0 -107 18.5t-82.5 54t-53.5 87t-19 117.5q0 70 20 141t60 128t100 93t140 36q58 0 106.5 -18.5t83 -54t54 -87t19.5 -116.5zM324 54q65 0 111 28t75 74.5t42 106t13 121.5q0 104 -49 158.5t-130 54.5 q-65 0 -110.5 -28.5t-74.5 -74.5t-42.5 -105.5t-13.5 -120.5q0 -105 49.5 -159.5t129.5 -54.5zM472 774q0 -28 -17 -44t-40 -16q-21 0 -38 16t-17 44q0 26 17 41.5t38 15.5q23 0 40 -15.5t17 -41.5zM286 932h303l-6 -55h-303z" />
<glyph unicode="&#x231;" horiz-adv-x="533" d="M362 583q0 -28 -17 -44t-40 -16q-21 0 -38 16t-17 44q0 26 17 41.5t38 15.5q23 0 40 -15.5t17 -41.5zM248 -12q-45 0 -82.5 15.5t-64 43.5t-41 67t-14.5 86q0 62 18 112t50 85.5t76 55t97 19.5q99 0 150 -57t51 -151q0 -62 -17 -113t-48.5 -87t-76 -56t-98.5 -20zM251 51 q33 0 62.5 13.5t51 40t34.5 65.5t13 91q0 74 -35.5 111t-92.5 37q-33 0 -62.5 -13.5t-51.5 -40.5t-34.5 -66.5t-12.5 -91.5q0 -73 35.5 -109.5t92.5 -36.5zM173 741h303l-6 -55h-303z" />
<glyph unicode="&#x232;" horiz-adv-x="517" d="M61 651h73l134 -354l218 354h78l-262 -401l-30 -250h-79l30 250zM174 812h303l-6 -55h-303z" />
<glyph unicode="&#x233;" horiz-adv-x="510" d="M176 460l-39 -298q-1 -5 -1.5 -11.5t-0.5 -14.5q0 -39 19.5 -62.5t61.5 -23.5q32 0 55.5 14t40.5 38.5t28 57.5t17 71q2 15 5.5 38t6.5 48t6 50.5t6 46t4.5 33t1.5 13.5h76l-57 -483q-7 -60 -27 -103t-51 -71t-71 -41.5t-86 -13.5q-54 0 -87 14t-53 31q-23 19 -34 45 l50 44q9 -20 27 -36q15 -14 40.5 -25t63.5 -11q39 0 66 13t44.5 35t27 50.5t14.5 59.5l8 56t5 34q3 14 4 22q-14 -26 -35 -46q-18 -17 -45.5 -31.5t-66.5 -14.5q-63 0 -100 36.5t-37 98.5v14.5t2 15.5l39 307h72zM149 621h303l-6 -55h-303z" />
<glyph unicode="&#x237;" horiz-adv-x="255" d="M-75 -163q8 -5 20 -9.5t30 -4.5q10 0 21.5 2.5t22 10t18.5 22t11 38.5l73 564h75l-74 -582q-4 -32 -17 -55t-32.5 -38.5t-43.5 -23t-50 -7.5q-23 0 -40 5t-28 12z" />
<glyph unicode="&#x243;" horiz-adv-x="598" d="M18 215h80l54 436h219q82 0 130 -37t48 -109q0 -27 -11 -51.5t-29 -44.5t-42 -34.5t-50 -22.5v-4q33 -13 59 -33q22 -17 40.5 -45t18.5 -68q0 -101 -66 -151.5t-183 -50.5h-213l19 158h-80zM302 61q33 0 61 10.5t48.5 29.5t32.5 46.5t12 60.5q0 46 -30.5 74.5t-93.5 28.5 h-143l-13 -96h142l-6 -57h-142l-11 -97h143zM197 368h131q64 0 101.5 34.5t37.5 94.5q0 41 -27.5 67t-84.5 26h-131z" />
<glyph unicode="&#x259;" horiz-adv-x="500" d="M373 232q1 9 1 17v15q0 75 -31.5 109.5t-92.5 34.5q-27 0 -47.5 -5.5t-36 -14.5t-25.5 -19.5t-16 -20.5l-55 45q8 12 23.5 25.5t38.5 25.5t52 20t64 8q52 0 90 -16.5t63 -45.5t37.5 -70t12.5 -89q0 -50 -13.5 -97.5t-41.5 -84t-71 -59t-101 -22.5q-45 0 -78.5 14 t-55.5 38.5t-33 58.5t-11 74q0 11 1.5 27t4.5 32h321zM228 43q55 0 92.5 32t43.5 98h-246v-5q0 -2 -0.5 -5t-0.5 -7q0 -14 4 -33t15.5 -37t33.5 -30.5t58 -12.5z" />
<glyph unicode="&#x280;" horiz-adv-x="527" d="M452 322q-3 -27 -14.5 -48.5t-30 -38t-36 -26.5t-37.5 -16l116 -193h-80l-99 176h-114l-21 -176h-76l55 460h184q82 0 123.5 -35.5t29.5 -102.5zM163 231h104q26 0 44 6t33 17.5t21 26.5t8 33q5 42 -16.5 66t-73.5 24h-99z" />
<glyph unicode="&#x2c6;" horiz-adv-x="270" d="M-48 566l175 160h62l142 -160h-82l-96 116l-120 -116h-81z" />
<glyph unicode="&#x2c7;" horiz-adv-x="270" d="M334 726l-176 -160h-63l-140 160h80l97 -116l120 116h82z" />
<glyph unicode="&#x2d8;" horiz-adv-x="245" d="M122 621q46 0 73.5 30t32.5 74h68q-4 -34 -17.5 -63t-36 -50.5t-54.5 -33.5t-72 -12q-81 0 -117 44.5t-28 114.5h66q-5 -44 18 -74t67 -30z" />
<glyph unicode="&#x2d9;" horiz-adv-x="108" d="M123 626q0 -28 -17 -44t-40 -16q-21 0 -38 16t-17 44q0 26 17 41.5t38 15.5q23 0 40 -15.5t17 -41.5z" />
<glyph unicode="&#x2da;" horiz-adv-x="270" d="M35 672q0 24 8.5 45t24 36.5t37 25t48.5 9.5q49 0 78.5 -31t29.5 -75q0 -24 -8.5 -45.5t-24.5 -37t-37.5 -24.5t-47.5 -9q-51 0 -79.5 30.5t-28.5 75.5zM83 675q0 -28 17 -46.5t45 -18.5t48 20t20 49q0 26 -18 45.5t-44 19.5q-29 0 -48.5 -20.5t-19.5 -48.5z" />
<glyph unicode="&#x2db;" horiz-adv-x="250" d="M209 9q-127 -57 -127 -111q0 -50 43 -50q29 0 54 21l25 -37q-38 -31 -81 -31q-103 0 -103 88q0 59 98 111q17 10 34 17z" />
<glyph unicode="&#x2dc;" horiz-adv-x="270" d="M292 695q1 -6 1.5 -13t0.5 -17q0 -19 -5.5 -36t-16.5 -31.5t-27 -23t-38 -8.5q-25 0 -42 10.5t-31 23.5t-26.5 23.5t-28.5 10.5q-12 0 -18.5 -7t-10 -16t-4.5 -20t-1 -18v-7h-45q-3 12 -3 34q0 17 5.5 34.5t16 31t26.5 21.5t38 8q24 0 41.5 -10.5t31.5 -23.5t26.5 -23.5 t27.5 -10.5q13 0 20.5 7t11 18t4.5 22t1 16v5h45z" />
<glyph unicode="&#x2dd;" horiz-adv-x="300" d="M110 753l43 -35l-134 -151l-43 34zM283 753l43 -35l-134 -151l-43 34z" />
<glyph unicode="&#x300;" horiz-adv-x="1" d="M-119 607l-41 -41l-145 146l41 41z" />
<glyph unicode="&#x301;" horiz-adv-x="1" d="M-110 753l41 -41l-145 -146l-41 41z" />
<glyph unicode="&#x302;" horiz-adv-x="1" d="M-413 566l175 160h62l142 -160h-82l-96 116l-120 -116h-81z" />
<glyph unicode="&#x303;" horiz-adv-x="1" d="M-67 695q1 -6 1.5 -13t0.5 -17q0 -19 -5.5 -36t-16.5 -31.5t-27 -23t-38 -8.5q-25 0 -42 10.5t-31 23.5t-26.5 23.5t-28.5 10.5q-12 0 -18.5 -7t-10 -16t-4.5 -20t-1 -18v-7h-45q-3 12 -3 34q0 17 5.5 34.5t16 31t26.5 21.5t38 8q24 0 41.5 -10.5t31.5 -23.5t26.5 -23.5 t27.5 -10.5q13 0 20.5 7t11 18t4.5 22t1 16v5h45z" />
<glyph unicode="&#x304;" horiz-adv-x="1" d="M-381 621h303l-6 -55h-303z" />
<glyph unicode="&#x306;" horiz-adv-x="1" d="M-226 621q46 0 73.5 30t32.5 74h68q-4 -34 -17.5 -63t-36 -50.5t-54.5 -33.5t-72 -12q-81 0 -117 44.5t-28 114.5h66q-5 -44 18 -74t67 -30z" />
<glyph unicode="&#x307;" horiz-adv-x="1" d="M-159 626q0 -28 -17 -44t-40 -16q-21 0 -38 16t-17 44q0 26 17 41.5t38 15.5q23 0 40 -15.5t17 -41.5z" />
<glyph unicode="&#x308;" horiz-adv-x="1" d="M-281 624q0 -26 -17 -42t-42 -16q-23 0 -37.5 14.5t-14.5 37.5q0 27 16.5 43t41.5 16q23 0 38 -14.5t15 -38.5zM-80 624q0 -26 -17 -42t-41 -16t-38.5 14.5t-14.5 37.5q0 27 16.5 43t42.5 16q23 0 37.5 -14.5t14.5 -38.5z" />
<glyph unicode="&#x30a;" horiz-adv-x="1" d="M-323 672q0 24 8.5 45t24 36.5t37 25t48.5 9.5q49 0 78.5 -31t29.5 -75q0 -24 -8.5 -45.5t-24.5 -37t-37.5 -24.5t-47.5 -9q-51 0 -79.5 30.5t-28.5 75.5zM-275 675q0 -28 17 -46.5t45 -18.5t48 20t20 49q0 26 -18 45.5t-44 19.5q-29 0 -48.5 -20.5t-19.5 -48.5z" />
<glyph unicode="&#x30b;" horiz-adv-x="1" d="M-225 753l43 -35l-134 -151l-43 34zM-52 753l43 -35l-134 -151l-43 34z" />
<glyph unicode="&#x30c;" horiz-adv-x="1" d="M-15 726l-176 -160h-63l-140 160h80l97 -116l120 116h82z" />
<glyph unicode="&#x312;" horiz-adv-x="1" d="M-158.995 713.984l-17.999 -150.99l-72.9951 10.999l36.998 145.991z" />
<glyph unicode="&#x313;" horiz-adv-x="1" d="M-243 569l18 151l73 -11l-37 -146z" />
<glyph unicode="&#x323;" horiz-adv-x="0" d="M-278 -154q0 -25 -16.5 -43.5t-42.5 -18.5q-23 0 -37 15.5t-14 38.5q0 26 16 44.5t42 18.5q23 0 37.5 -15.5t14.5 -39.5z" />
<glyph unicode="&#x326;" horiz-adv-x="1" d="M-363 -249l18 151l73 -11l-37 -146z" />
<glyph unicode="&#x327;" horiz-adv-x="1" d="M-282 17q15 -8 28 -17q64 -44 64 -101q0 -98 -115 -98q-50 0 -84 31l25 37q28 -21 62 -21q50 0 50 56q0 59 -87 105z" />
<glyph unicode="&#x328;" horiz-adv-x="1" d="M-212 9q-127 -57 -127 -111q0 -50 43 -50q29 0 54 21l25 -37q-38 -31 -81 -31q-103 0 -103 88q0 59 98 111q17 10 34 17z" />
<glyph unicode="&#x3c0;" horiz-adv-x="510" d="M530 460l-8 -63h-73l-49 -397h-76l49 397h-184l-49 -397h-76l49 397h-73l8 63h482z" />
<glyph unicode="&#x1e0c;" horiz-adv-x="663" d="M63 0l79 651h193q135 0 204 -70t69 -201q0 -90 -25 -161t-70 -119.5t-108 -74t-139 -25.5h-203zM276 66q117 0 183.5 78t66.5 235q0 101 -45.5 153.5t-142.5 52.5h-125l-63 -519h126zM325 -152q0 -25 -16.5 -43.5t-42.5 -18.5q-23 0 -37 15.5t-14 38.5q0 26 16 44.5 t42 18.5q23 0 37.5 -15.5t14.5 -39.5z" />
<glyph unicode="&#x1e0d;" horiz-adv-x="562" d="M251 50q34 0 65 13.5t53.5 39t36 63t13.5 85.5q0 79 -34.5 118.5t-93.5 39.5q-35 0 -65.5 -13.5t-53 -39t-36 -63t-13.5 -85.5q0 -79 34.5 -118.5t93.5 -39.5zM547 711q-18 -148 -34 -273q-7 -53 -13.5 -107t-12.5 -100.5t-10 -82.5t-6 -53q-1 -7 -1.5 -14t-0.5 -17 q0 -26 3 -44q1 -11 3 -20h-69q-2 7 -4 16q-3 15 -3 36v6.5t1 7.5h-5q-16 -22 -39 -39q-20 -15 -49 -27t-68 -12q-44 0 -79.5 15t-61 43.5t-39.5 68.5t-14 90q0 57 18 106t50 84.5t75 56t94 20.5q40 0 68.5 -13t45.5 -28q20 -18 33 -41h5q6 66 13 128q3 26 6 53.5t6 53t6 48 t6 38.5h76zM280 -152q0 -25 -16.5 -43.5t-42.5 -18.5q-23 0 -37 15.5t-14 38.5q0 26 16 44.5t42 18.5q23 0 37.5 -15.5t14.5 -39.5z" />
<glyph unicode="&#x1e10;" horiz-adv-x="663" d="M63 0l79 651h193q135 0 204 -70t69 -201q0 -90 -25 -161t-70 -119.5t-108 -74t-139 -25.5h-203zM276 66q117 0 183.5 78t66.5 235q0 101 -45.5 153.5t-142.5 52.5h-125l-63 -519h126zM204 -249l18 151l73 -11l-37 -146z" />
<glyph unicode="&#x1e11;" horiz-adv-x="562" d="M251 50q34 0 65 13.5t53.5 39t36 63t13.5 85.5q0 79 -34.5 118.5t-93.5 39.5q-35 0 -65.5 -13.5t-53 -39t-36 -63t-13.5 -85.5q0 -79 34.5 -118.5t93.5 -39.5zM547 711q-18 -148 -34 -273q-7 -53 -13.5 -107t-12.5 -100.5t-10 -82.5t-6 -53q-1 -7 -1.5 -14t-0.5 -17 q0 -26 3 -44q1 -11 3 -20h-69q-2 7 -4 16q-3 15 -3 36v6.5t1 7.5h-5q-16 -22 -39 -39q-20 -15 -49 -27t-68 -12q-44 0 -79.5 15t-61 43.5t-39.5 68.5t-14 90q0 57 18 106t50 84.5t75 56t94 20.5q40 0 68.5 -13t45.5 -28q20 -18 33 -41h5q6 66 13 128q3 26 6 53.5t6 53t6 48 t6 38.5h76zM163 -249l18 151l73 -11l-37 -146z" />
<glyph unicode="&#x1e16;" horiz-adv-x="548" d="M213 585l-27 -224h274l-8 -66h-274l-28 -229h316l-8 -66h-395l79 651h382l-8 -66h-303zM205 772h303l-6 -55h-303zM473 1010l41 -41l-145 -146l-41 41z" />
<glyph unicode="&#x1e17;" horiz-adv-x="500" d="M124 226q-1 -9 -1 -17v-15q0 -74 32.5 -108t93.5 -34q48 0 79 17t44 40l55 -45q-19 -32 -65 -54t-109 -22q-52 0 -90.5 15.5t-64.5 43.5t-39 67t-13 87q0 50 14.5 98.5t43.5 87t72.5 62t102.5 23.5q45 0 77.5 -14.5t53.5 -39.5t31 -59t10 -74q0 -11 -1.5 -27t-4.5 -32 h-321zM269 417q-55 0 -89.5 -33.5t-46.5 -98.5h246v5q0 2 0.5 5t0.5 7q0 13 -4 33t-15.5 38t-33.5 31t-58 13zM431 819l41 -41l-145 -146l-41 41zM163 582h303l-6 -55h-303z" />
<glyph unicode="&#x1e24;" horiz-adv-x="670" d="M637 651l-79 -651h-79l36 294h-337l-36 -294h-79l79 651h79l-35 -291h337l35 291h79zM345 -152q0 -25 -16.5 -43.5t-42.5 -18.5q-23 0 -37 15.5t-14 38.5q0 26 16 44.5t42 18.5q23 0 37.5 -15.5t14.5 -39.5z" />
<glyph unicode="&#x1e25;" horiz-adv-x="543" d="M421 -9q-66 0 -66 67q0 14 3 29q5 29 9.5 53t9 47.5t9.5 49t11 56.5q3 16 3 31q0 43 -23.5 64.5t-65.5 21.5q-60 0 -98.5 -44.5t-51.5 -138.5q-1 -9 -3 -23t-4 -32t-4 -37.5t-4 -38.5q-5 -45 -10 -96h-76l86 711h76l-46 -337h5q16 27 40 49q20 18 50.5 33.5t72.5 15.5 q64 0 96.5 -35.5t32.5 -92.5q0 -17 -3 -35q-12 -71 -23 -121.5t-20 -97.5q-1 -5 -1 -10q0 -17 7 -22t19 -5q10 0 20 2q4 1 8 3l-9 -57q-6 -3 -14 -5q-15 -5 -36 -5zM285 -152q0 -25 -16.5 -43.5t-42.5 -18.5q-23 0 -37 15.5t-14 38.5q0 26 16 44.5t42 18.5q23 0 37.5 -15.5 t14.5 -39.5z" />
<glyph unicode="&#x1e36;" horiz-adv-x="488" d="M221 651l-71 -585h296l-8 -66h-375l79 651h79zM285 -152q0 -25 -16.5 -43.5t-42.5 -18.5q-23 0 -37 15.5t-14 38.5q0 26 16 44.5t42 18.5q23 0 37.5 -15.5t14.5 -39.5z" />
<glyph unicode="&#x1e37;" horiz-adv-x="260" d="M140 711h76l-77 -593q-2 -15 -3 -25.5t-1 -15.5q0 -13 11 -19.5t22 -6.5q8 0 15.5 2t13.5 4l14 6l-7 -55q-8 -5 -17 -9q-8 -3 -18 -5.5t-23 -2.5q-49 0 -68 23.5t-19 54.5v9t1 9zM138 -153q0 -25 -16.5 -43.5t-42.5 -18.5q-23 0 -37 15.5t-14 38.5q0 26 16 44.5t42 18.5 q23 0 37.5 -15.5t14.5 -39.5z" />
<glyph unicode="&#x1e38;" horiz-adv-x="488" d="M221 651l-71 -585h296l-8 -66h-375l79 651h79zM285 -152q0 -25 -16.5 -43.5t-42.5 -18.5q-23 0 -37 15.5t-14 38.5q0 26 16 44.5t42 18.5q23 0 37.5 -15.5t14.5 -39.5zM185 812h303l-6 -55h-303z" />
<glyph unicode="&#x1e39;" horiz-adv-x="260" d="M140 711h76l-77 -593q-2 -15 -3 -25.5t-1 -15.5q0 -13 11 -19.5t22 -6.5q8 0 15.5 2t13.5 4l14 6l-7 -55q-8 -5 -17 -9q-8 -3 -18 -5.5t-23 -2.5q-49 0 -68 23.5t-19 54.5v9t1 9zM140 -152q0 -25 -16.5 -43.5t-42.5 -18.5q-23 0 -37 15.5t-14 38.5q0 26 16 44.5t42 18.5 q23 0 37.5 -15.5t14.5 -39.5zM45 852h303l-6 -55h-303z" />
<glyph unicode="&#x1e42;" horiz-adv-x="773" d="M339 121l-143 457l-59 -578h-73l79 651h98l142 -474l259 474h97l-79 -651h-73l81 578l-254 -457h-75zM395 -152q0 -25 -16.5 -43.5t-42.5 -18.5q-23 0 -37 15.5t-14 38.5q0 26 16 44.5t42 18.5q23 0 37.5 -15.5t14.5 -39.5z" />
<glyph unicode="&#x1e43;" horiz-adv-x="813" d="M445 247q-7 -38 -12.5 -81.5t-10.5 -80.5q-5 -43 -10 -85h-76q11 73 21 135q4 26 8 52.5t8 49t6.5 40t4.5 26.5q1 5 1 9.5v9.5q0 38 -22 63t-64 25q-30 0 -52.5 -13t-38.5 -36t-26.5 -53.5t-16.5 -65.5q-5 -26 -10 -67t-10 -80q-6 -46 -12 -95h-76q13 92 24 169 q4 33 9 65t8.5 59t6.5 46t4 26t1.5 15t0.5 17q0 11 -0.5 22.5t-1.5 20.5q-1 11 -2 20h74q0 -8 1 -16q0 -8 0.5 -16.5t0.5 -17.5q0 -17 -3 -36h4q14 27 34 49q17 18 43.5 33.5t61.5 15.5q45 0 70 -16t37 -36q14 -23 17 -52h4q14 29 36 52q19 20 49 36t73 16q40 0 65.5 -12 t40.5 -30.5t20.5 -41.5t5.5 -45q0 -6 -3.5 -29.5t-10 -58t-15 -77.5t-17.5 -89q-1 -4 -1 -11q0 -14 8 -19t19 -5q8 0 18 2q4 1 9 3l-9 -58q-7 -3 -15 -5q-15 -5 -38 -5q-33 0 -48 15.5t-15 46.5q0 15 3 33q6 28 12 61.5t11.5 64.5t10 55.5t6.5 35.5q1 6 1.5 12t0.5 12 q0 16 -4 31.5t-13 26.5t-24 18t-38 7q-31 0 -55.5 -12.5t-42 -34.5t-29 -52t-17.5 -64zM403 -152q0 -25 -16.5 -43.5t-42.5 -18.5q-23 0 -37 15.5t-14 38.5q0 26 16 44.5t42 18.5q23 0 37.5 -15.5t14.5 -39.5z" />
<glyph unicode="&#x1e44;" horiz-adv-x="656" d="M131 0h-68l79 651h89l259 -563l65 563h68l-79 -651h-89l-259 578zM458 817q0 -28 -17 -44t-40 -16q-21 0 -38 16t-17 44q0 26 17 41.5t38 15.5q23 0 40 -15.5t17 -41.5z" />
<glyph unicode="&#x1e45;" horiz-adv-x="545" d="M419 -9q-64 0 -64 67q0 14 3 29q8 48 18 95t22 111q3 16 3 31q0 43 -23.5 64.5t-66.5 21.5q-60 0 -99.5 -47.5t-51.5 -135.5q-4 -26 -8.5 -65t-9.5 -75q-5 -42 -11 -87h-76q13 92 24 169q4 33 9 65t8.5 59t6.5 46t4 26t1.5 15t0.5 17q0 11 -0.5 22.5t-1.5 20.5 q-1 11 -2 20h74q0 -8 1 -17q1 -8 1.5 -18t0.5 -20v-15t-2 -16h5q14 27 35 49q18 18 47 33.5t71 15.5q69 0 102 -36.5t33 -93.5v-16.5t-2 -16.5q-6 -37 -12.5 -67t-12 -56t-10.5 -49.5t-9 -45.5q-1 -5 -1 -12q0 -16 7.5 -20.5t18.5 -4.5q10 0 20 2q4 1 8 3l-9 -58 q-6 -3 -14 -5q-15 -5 -38 -5zM398 626q0 -28 -17 -44t-40 -16q-21 0 -38 16t-17 44q0 26 17 41.5t38 15.5q23 0 40 -15.5t17 -41.5z" />
<glyph unicode="&#x1e46;" horiz-adv-x="656" d="M131 0h-68l79 651h89l259 -563l65 563h68l-79 -651h-89l-259 578zM345 -152q0 -25 -16.5 -43.5t-42.5 -18.5q-23 0 -37 15.5t-14 38.5q0 26 16 44.5t42 18.5q23 0 37.5 -15.5t14.5 -39.5z" />
<glyph unicode="&#x1e47;" horiz-adv-x="545" d="M419 -9q-64 0 -64 67q0 14 3 29q8 48 18 95t22 111q3 16 3 31q0 43 -23.5 64.5t-66.5 21.5q-60 0 -99.5 -47.5t-51.5 -135.5q-4 -26 -8.5 -65t-9.5 -75q-5 -42 -11 -87h-76q13 92 24 169q4 33 9 65t8.5 59t6.5 46t4 26t1.5 15t0.5 17q0 11 -0.5 22.5t-1.5 20.5 q-1 11 -2 20h74q0 -8 1 -17q1 -8 1.5 -18t0.5 -20v-15t-2 -16h5q14 27 35 49q18 18 47 33.5t71 15.5q69 0 102 -36.5t33 -93.5v-16.5t-2 -16.5q-6 -37 -12.5 -67t-12 -56t-10.5 -49.5t-9 -45.5q-1 -5 -1 -12q0 -16 7.5 -20.5t18.5 -4.5q10 0 20 2q4 1 8 3l-9 -58 q-6 -3 -14 -5q-15 -5 -38 -5zM274 -152q0 -25 -16.5 -43.5t-42.5 -18.5q-23 0 -37 15.5t-14 38.5q0 26 16 44.5t42 18.5q23 0 37.5 -15.5t14.5 -39.5z" />
<glyph unicode="&#x1e52;" horiz-adv-x="702" d="M647 387q0 -72 -19 -143.5t-59 -128t-100.5 -92t-142.5 -35.5q-59 0 -107 18.5t-82.5 54t-53.5 87t-19 117.5q0 70 20 141t60 128t100 93t140 36q58 0 106.5 -18.5t83 -54t54 -87t19.5 -116.5zM324 54q65 0 111 28t75 74.5t42 106t13 121.5q0 104 -49 158.5t-130 54.5 q-65 0 -110.5 -28.5t-74.5 -74.5t-42.5 -105.5t-13.5 -120.5q0 -105 49.5 -159.5t129.5 -54.5zM276 772h303l-6 -55h-303zM544 1010l41 -41l-145 -146l-41 41z" />
<glyph unicode="&#x1e53;" horiz-adv-x="533" d="M248 -12q-45 0 -82.5 15.5t-64 43.5t-41 67t-14.5 86q0 62 18 112t50 85.5t76 55t97 19.5q99 0 150 -57t51 -151q0 -62 -17 -113t-48.5 -87t-76 -56t-98.5 -20zM251 51q33 0 62.5 13.5t51 40t34.5 65.5t13 91q0 74 -35.5 111t-92.5 37q-33 0 -62.5 -13.5t-51.5 -40.5 t-34.5 -66.5t-12.5 -91.5q0 -73 35.5 -109.5t92.5 -36.5zM431 819l41 -41l-145 -146l-41 41zM163 582h303l-6 -55h-303z" />
<glyph unicode="&#x1e5a;" horiz-adv-x="568" d="M181 322h115q49 0 80 14t49 36t24.5 49t6.5 52q0 22 -6 42.5t-20.5 36t-39 24.5t-61.5 9h-116zM417 0l-96 256h-148l-31 -256h-79l79 651h183q111 0 162 -46t51 -128q0 -43 -14 -78t-36.5 -61.5t-50.5 -43.5t-56 -23l112 -271h-76zM295 -152q0 -25 -16.5 -43.5 t-42.5 -18.5q-23 0 -37 15.5t-14 38.5q0 26 16 44.5t42 18.5q23 0 37.5 -15.5t14.5 -39.5z" />
<glyph unicode="&#x1e5b;" horiz-adv-x="343" d="M331 387q-6 1 -12.5 1.5t-11.5 0.5q-58 0 -97 -43t-49 -115q-8 -51 -13 -93.5t-10 -73.5q-5 -36 -9 -64h-76l53 375q1 7 1 13.5v13.5q0 11 -1 22t-2 19q-1 10 -2 17h72q1 -5 3 -11q1 -5 2 -14t1 -20q0 -10 -2 -27.5t-4 -31.5h5q20 49 55 82.5t83 33.5q5 0 10.5 -0.5 t10.5 -1.5zM134 -152q0 -25 -16.5 -43.5t-42.5 -18.5q-23 0 -37 15.5t-14 38.5q0 26 16 44.5t42 18.5q23 0 37.5 -15.5t14.5 -39.5z" />
<glyph unicode="&#x1e5c;" horiz-adv-x="568" d="M181 322h115q49 0 80 14t49 36t24.5 49t6.5 52q0 22 -6 42.5t-20.5 36t-39 24.5t-61.5 9h-116zM417 0l-96 256h-148l-31 -256h-79l79 651h183q111 0 162 -46t51 -128q0 -43 -14 -78t-36.5 -61.5t-50.5 -43.5t-56 -23l112 -271h-76zM295 -152q0 -25 -16.5 -43.5 t-42.5 -18.5q-23 0 -37 15.5t-14 38.5q0 26 16 44.5t42 18.5q23 0 37.5 -15.5t14.5 -39.5zM205 812h303l-6 -55h-303z" />
<glyph unicode="&#x1e5d;" horiz-adv-x="343" d="M331 387q-6 1 -12.5 1.5t-11.5 0.5q-58 0 -97 -43t-49 -115q-8 -51 -13 -93.5t-10 -73.5q-5 -36 -9 -64h-76l53 375q1 7 1 13.5v13.5q0 11 -1 22t-2 19q-1 10 -2 17h72q1 -5 3 -11q1 -5 2 -14t1 -20q0 -10 -2 -27.5t-4 -31.5h5q20 49 55 82.5t83 33.5q5 0 10.5 -0.5 t10.5 -1.5zM134 -152q0 -25 -16.5 -43.5t-42.5 -18.5q-23 0 -37 15.5t-14 38.5q0 26 16 44.5t42 18.5q23 0 37.5 -15.5t14.5 -39.5zM83 621h303l-6 -55h-303z" />
<glyph unicode="&#x1e6c;" horiz-adv-x="504" d="M70 651h477l-8 -67h-199l-71 -584h-79l71 584h-199zM267 -152q0 -25 -16.5 -43.5t-42.5 -18.5q-23 0 -37 15.5t-14 38.5q0 26 16 44.5t42 18.5q23 0 37.5 -15.5t14.5 -39.5z" />
<glyph unicode="&#x1e6d;" horiz-adv-x="349" d="M127 460l14 98l77 10l-15 -108h143l-9 -63h-143l-38 -263q-2 -8 -2.5 -17t-0.5 -15q0 -23 11.5 -36.5t42.5 -13.5q15 0 28.5 4.5t24.5 10.5q12 7 23 16l20 -63q-13 -9 -30 -16q-14 -6 -33.5 -11t-43.5 -5q-58 0 -88.5 28t-30.5 76q0 6 0.5 12t1.5 13l39 280h-73l9 63h73z M216 -152q0 -25 -16.5 -43.5t-42.5 -18.5q-23 0 -37 15.5t-14 38.5q0 26 16 44.5t42 18.5q23 0 37.5 -15.5t14.5 -39.5z" />
<glyph unicode="&#x1e80;" horiz-adv-x="914" d="M562 651l69 -599l211 599h76l-243 -651h-105l-68 613l-214 -613h-95l-88 651h70l72 -599l208 599h107zM550 798l-41 -41l-145 146l41 41z" />
<glyph unicode="&#x1e81;" horiz-adv-x="698" d="M424 460l43 -423l155 423h70l-179 -460h-101l-43 428l-159 -428h-88l-53 460h65l40 -424l148 424h102zM432 607l-41 -41l-145 146l41 41z" />
<glyph unicode="&#x1e82;" horiz-adv-x="914" d="M562 651l69 -599l211 599h76l-243 -651h-105l-68 613l-214 -613h-95l-88 651h70l72 -599l208 599h107zM636 944l41 -41l-145 -146l-41 41z" />
<glyph unicode="&#x1e83;" horiz-adv-x="698" d="M424 460l43 -423l155 423h70l-179 -460h-101l-43 428l-159 -428h-88l-53 460h65l40 -424l148 424h102zM491 753l41 -41l-145 -146l-41 41z" />
<glyph unicode="&#x1e84;" horiz-adv-x="914" d="M562 651l69 -599l211 599h76l-243 -651h-105l-68 613l-214 -613h-95l-88 651h70l72 -599l208 599h107zM480 815q0 -26 -17 -42t-42 -16q-23 0 -37.5 14.5t-14.5 37.5q0 27 16.5 43t41.5 16q23 0 38 -14.5t15 -38.5zM681 815q0 -26 -17 -42t-41 -16t-38.5 14.5t-14.5 37.5 q0 27 16.5 43t42.5 16q23 0 37.5 -14.5t14.5 -38.5z" />
<glyph unicode="&#x1e85;" horiz-adv-x="698" d="M424 460l43 -423l155 423h70l-179 -460h-101l-43 428l-159 -428h-88l-53 460h65l40 -424l148 424h102zM344 624q0 -26 -17 -42t-42 -16q-23 0 -37.5 14.5t-14.5 37.5q0 27 16.5 43t41.5 16q23 0 38 -14.5t15 -38.5zM545 624q0 -26 -17 -42t-41 -16t-38.5 14.5t-14.5 37.5 q0 27 16.5 43t42.5 16q23 0 37.5 -14.5t14.5 -38.5z" />
<glyph unicode="&#x1e9e;" horiz-adv-x="629" d="M99 418q7 54 25 97.5t49.5 73.5t78 46t109.5 16h231l-6 -51l-35 -39l-166 -184v-4q43 0 80.5 -11t65 -32.5t44 -52.5t16.5 -71q0 -39 -13 -78t-40.5 -70t-72.5 -50.5t-109 -19.5q-33 0 -66 5t-54 12l9 74q17 -10 48 -18t63 -8q69 0 112.5 34t43.5 102q0 60 -45.5 91.5 t-138.5 31.5q-6 0 -11.5 -0.5t-10.5 -1.5q-3 -1 -10 -1l-5 42l38 44l170 191h-136q-72 0 -122.5 -40.5t-61.5 -127.5l-51 -418h-80z" />
<glyph unicode="&#x1ef2;" horiz-adv-x="517" d="M61 651h73l134 -354l218 354h78l-262 -401l-30 -250h-79l30 250zM361 798l-41 -41l-145 146l41 41z" />
<glyph unicode="&#x1ef3;" horiz-adv-x="510" d="M176 460l-39 -298q-1 -5 -1.5 -11.5t-0.5 -14.5q0 -39 19.5 -62.5t61.5 -23.5q32 0 55.5 14t40.5 38.5t28 57.5t17 71q2 15 5.5 38t6.5 48t6 50.5t6 46t4.5 33t1.5 13.5h76l-57 -483q-7 -60 -27 -103t-51 -71t-71 -41.5t-86 -13.5q-54 0 -87 14t-53 31q-23 19 -34 45 l50 44q9 -20 27 -36q15 -14 40.5 -25t63.5 -11q39 0 66 13t44.5 35t27 50.5t14.5 59.5l8 56t5 34q3 14 4 22q-14 -26 -35 -46q-18 -17 -45.5 -31.5t-66.5 -14.5q-63 0 -100 36.5t-37 98.5v14.5t2 15.5l39 307h72zM338 607l-41 -41l-145 146l41 41z" />
<glyph unicode="&#x2002;" horiz-adv-x="500" />
<glyph unicode="&#x2003;" horiz-adv-x="800" />
<glyph unicode="&#x2004;" horiz-adv-x="267" />
<glyph unicode="&#x2005;" horiz-adv-x="200" />
<glyph unicode="&#x2006;" horiz-adv-x="133" />
<glyph unicode="&#x2008;" horiz-adv-x="220" />
<glyph unicode="&#x2009;" horiz-adv-x="160" />
<glyph unicode="&#x200a;" horiz-adv-x="97" />
<glyph unicode="&#x200b;" horiz-adv-x="0" />
<glyph unicode="&#x2010;" horiz-adv-x="360" d="M44 257h280l-9 -62h-280z" />
<glyph unicode="&#x2011;" horiz-adv-x="360" d="M44 257h280l-9 -62h-280z" />
<glyph unicode="&#x2012;" horiz-adv-x="550" d="M49 259h461l-9 -66h-461z" />
<glyph unicode="&#x2013;" horiz-adv-x="500" d="M24 259h461l-9 -66h-461z" />
<glyph unicode="&#x2014;" horiz-adv-x="800" d="M24 259h760l-9 -66h-760z" />
<glyph unicode="&#x2016;" horiz-adv-x="421" d="M100 -190v871h71v-871h-71zM270 -190v871h71v-871h-71z" />
<glyph unicode="&#x2018;" horiz-adv-x="220" d="M72.0088 438.007l12.999 106.993q8 34.998 20.499 59.4961q12.499 24.499 23.499 40.498q13.999 17.999 27.998 29.998l53.9971 -30.998q-9 -9 -18.999 -22.999q-8 -11.999 -16.499 -30.998q-8.5 -18.999 -14.499 -44.9971q-2 -9.99902 -4.5 -28.498t-4.5 -35.498 q-2 -19.999 -4 -42.9971h-75.9951z" />
<glyph unicode="&#x2019;" horiz-adv-x="270" d="M210 651l-13 -107q-8 -35 -20.5 -59.5t-23.5 -40.5q-14 -18 -28 -30l-54 31q9 9 19 23q8 12 16.5 31t14.5 45q2 10 4.5 28.5t4.5 35.5q2 20 4 43h76z" />
<glyph unicode="&#x201a;" horiz-adv-x="220" d="M148 106l-13 -107q-8 -35 -20.5 -59.5t-23.5 -40.5q-14 -18 -28 -30l-54 31q9 9 19 23q8 12 16.5 31t14.5 45q2 10 4.5 28.5t4.5 35.5q2 20 4 43h76z" />
<glyph unicode="&#x201c;" horiz-adv-x="370" d="M62.0088 439.007l12.999 106.993q8 34.998 20.499 59.4961q12.499 24.499 23.499 40.498q13.999 17.999 27.998 29.998l53.9971 -30.998q-9 -9 -18.999 -22.999q-8 -11.999 -16.499 -30.998q-8.5 -18.999 -14.499 -44.9971q-2 -9.99902 -4.5 -28.498t-4.5 -35.498 q-2 -19.999 -4 -42.9971h-75.9951zM222.009 439.007l12.999 106.993q8 34.998 20.499 59.4961q12.499 24.499 23.499 40.498q13.999 17.999 27.998 29.998l53.9971 -30.998q-9 -9 -18.999 -22.999q-8 -11.999 -16.499 -30.998q-8.5 -18.999 -14.499 -44.9971 q-2 -9.99902 -4.5 -28.498t-4.5 -35.498q-2 -19.999 -4 -42.9971h-75.9951z" />
<glyph unicode="&#x201d;" horiz-adv-x="370" d="M211 651l-13 -107q-8 -35 -20.5 -59.5t-23.5 -40.5q-14 -18 -28 -30l-54 31q9 9 19 23q8 12 16.5 31t14.5 45q2 10 4.5 28.5t4.5 35.5q2 20 4 43h76zM371 651l-13 -107q-8 -35 -20.5 -59.5t-23.5 -40.5q-14 -18 -28 -30l-54 31q9 9 19 23q8 12 16.5 31t14.5 45 q2 10 4.5 28.5t4.5 35.5q2 20 4 43h76z" />
<glyph unicode="&#x201e;" horiz-adv-x="370" d="M148 106l-13 -107q-8 -35 -20.5 -59.5t-23.5 -40.5q-14 -18 -28 -30l-54 31q9 9 19 23q8 12 16.5 31t14.5 45q2 10 4.5 28.5t4.5 35.5q2 20 4 43h76zM308 106l-13 -107q-8 -35 -20.5 -59.5t-23.5 -40.5q-14 -18 -28 -30l-54 31q9 9 19 23q8 12 16.5 31t14.5 45 q2 10 4.5 28.5t4.5 35.5q2 20 4 43h76z" />
<glyph unicode="&#x2020;" horiz-adv-x="420" d="M53 515h144l20 166h71l-20 -166h145l-8 -62h-145l-59 -483h-71l59 483h-144z" />
<glyph unicode="&#x2021;" horiz-adv-x="500" d="M113 515h144l20 166h71l-20 -166h145l-8 -62h-145l-31 -256h145l-8 -62h-145l-20 -165h-71l20 165h-144l8 62h144l31 256h-144z" />
<glyph unicode="&#x2022;" horiz-adv-x="400" d="M310 262q0 -55 -32.5 -86.5t-77.5 -31.5q-20 0 -39.5 8t-35.5 23.5t-25.5 37.5t-9.5 49q0 24 9.5 44.5t25.5 35t35.5 22.5t39.5 8q22 0 42 -8t35 -22.5t24 -35t9 -44.5z" />
<glyph unicode="&#x2026;" horiz-adv-x="920" d="M230 55q0 -25 -16.5 -43.5t-42.5 -18.5q-23 0 -37 15.5t-14 38.5q0 26 16 44.5t42 18.5q23 0 37.5 -15.5t14.5 -39.5zM510 55q0 -25 -16.5 -43.5t-42.5 -18.5q-23 0 -37 15.5t-14 38.5q0 26 16 44.5t42 18.5q23 0 37.5 -15.5t14.5 -39.5zM800 55q0 -25 -16.5 -43.5 t-42.5 -18.5q-23 0 -37 15.5t-14 38.5q0 26 16 44.5t42 18.5q23 0 37.5 -15.5t14.5 -39.5z" />
<glyph unicode="&#x2030;" horiz-adv-x="1170" d="M241 0h-64l405 651h64zM215 658q65 0 98 -38t33 -109q0 -107 -44.5 -162t-119.5 -55q-66 0 -97.5 38t-31.5 110q0 52 12 92.5t33.5 68t51.5 41.5t65 14zM186 343q48 0 74 43t26 122q0 49 -17.5 75t-54.5 26q-48 0 -74 -43t-26 -121q0 -50 17.5 -76t54.5 -26zM637 359 q65 0 98 -38t33 -109q0 -107 -44.5 -162t-119.5 -55q-66 0 -97.5 38t-31.5 110q0 52 12 92.5t33.5 68t51.5 41.5t65 14zM608 44q48 0 74 43t26 122q0 49 -17.5 75t-54.5 26q-48 0 -74 -43t-26 -121q0 -50 17.5 -76t54.5 -26zM987 359q65 0 98 -38t33 -109q0 -107 -44.5 -162 t-119.5 -55q-66 0 -97.5 38t-31.5 110q0 52 12 92.5t33.5 68t51.5 41.5t65 14zM958 44q48 0 74 43t26 122q0 49 -17.5 75t-54.5 26q-48 0 -74 -43t-26 -121q0 -50 17.5 -76t54.5 -26z" />
<glyph unicode="&#x2032;" horiz-adv-x="200" d="M135 651h70l-80 -255h-70z" />
<glyph unicode="&#x2033;" horiz-adv-x="330" d="M106 651h70l-80 -255h-70zM255 651h70l-80 -255h-70z" />
<glyph unicode="&#x2039;" horiz-adv-x="297" d="M146 36l-101 180l142 180h75l-138 -180l88 -180h-66z" />
<glyph unicode="&#x203a;" horiz-adv-x="297" d="M141 396l101 -180l-142 -180h-75l138 180l-88 180h66z" />
<glyph unicode="&#x2042;" horiz-adv-x="884" d="M409 681h67l-5 -145l3 -3l137 50l21 -64l-140 -40l-1 -3l89 -114l-54 -40l-82 121l-3 -1l-81 -120l-55 39l90 116l-2 2l-139 40l20 64l137 -50l3 3zM631 348h67l-5 -145l3 -3l137 50l21 -64l-140 -40l-1 -3l89 -114l-54 -40l-82 121l-3 -1l-81 -120l-55 39l90 116l-2 2 l-139 40l20 64l137 -50l3 3zM186 348h67l-5 -145l3 -3l137 50l21 -64l-140 -40l-1 -3l89 -114l-54 -40l-82 121l-3 -1l-81 -120l-55 39l90 116l-2 2l-139 40l20 64l137 -50l3 3z" />
<glyph unicode="&#x2044;" horiz-adv-x="165" d="M-88 0h-64l405 651h64z" />
<glyph unicode="&#x2070;" horiz-adv-x="380" d="M206 686q65 0 98 -38t33 -109q0 -107 -44.5 -162t-119.5 -55q-66 0 -97.5 38t-31.5 110q0 52 12 92.5t33.5 68t51.5 41.5t65 14zM177 371q48 0 74 43t26 122q0 49 -17.5 75t-54.5 26q-48 0 -74 -43t-26 -121q0 -50 17.5 -76t54.5 -26z" />
<glyph unicode="&#x2074;" horiz-adv-x="350" d="M202 680h77l-28 -234h70l-6 -45h-68l-9 -71h-55l9 71h-173l-14 32l23 29zM223 640l-145 -194h120z" />
<glyph unicode="&#x2075;" horiz-adv-x="350" d="M125 544q11 5 29.5 8t36.5 3q24 0 45.5 -7.5t38 -21.5t25 -35.5t6.5 -49.5q-5 -55 -46.5 -86.5t-100.5 -31.5q-51 0 -82 16.5t-45 36.5l44 43q8 -20 28.5 -36t52.5 -16q42 0 63.5 20.5t23.5 50.5q3 33 -15 53t-54 20q-22 0 -41.5 -8.5t-30.5 -17.5l-39 21l39 175h211 l-4 -47h-165z" />
<glyph unicode="&#x2076;" horiz-adv-x="350" d="M171 322q-38 0 -64.5 13t-42 35.5t-21 52.5t-2.5 66q3 31 12 65.5t28 64t50.5 48.5t78.5 19q50 0 78.5 -18.5t38.5 -36.5l-49 -31q-4 14 -19.5 28t-49.5 14q-28 0 -47.5 -12.5t-32 -32t-19 -42.5t-9.5 -44h4q13 20 37 33t61 13q30 0 52 -9.5t36.5 -25.5t20.5 -36.5 t4 -42.5q-2 -19 -10.5 -40.5t-26 -39.5t-44.5 -29.5t-64 -11.5zM255 438q3 33 -17 53.5t-55 20.5q-15 0 -29 -5t-25.5 -14.5t-20 -22.5t-9.5 -29q-2 -28 15 -51.5t55 -23.5q32 0 57.5 19t28.5 53z" />
<glyph unicode="&#x2077;" horiz-adv-x="320" d="M310 681l-3 -40q-32 -32 -57.5 -70t-44.5 -78.5t-31.5 -82.5t-19.5 -81h-59q12 90 49 165t98 138h-212l4 49h276z" />
<glyph unicode="&#x2078;" horiz-adv-x="350" d="M244 516q29 -10 52.5 -32t20.5 -57q-4 -51 -45.5 -78t-100.5 -27q-31 0 -57.5 7t-45 20t-28.5 32.5t-8 43.5q2 19 10 33.5t20 26t27.5 19t29.5 12.5q-23 10 -39.5 28.5t-13.5 48.5q3 37 38 65t89 28q26 0 49 -6.5t39.5 -18.5t25.5 -29t7 -37q-3 -33 -24 -51.5t-46 -27.5z M123 589q-2 -23 15.5 -38t46.5 -15q27 0 47.5 14t22.5 39q3 25 -15 39t-46 14q-29 0 -48.5 -14.5t-22.5 -38.5zM92 428q-2 -30 19.5 -46t57.5 -16q35 0 60.5 15.5t27.5 46.5q3 29 -19.5 46.5t-57.5 17.5t-60 -17t-28 -47z" />
<glyph unicode="&#x2079;" horiz-adv-x="350" d="M179 686q38 0 64.5 -13t42 -35.5t21 -52.5t1.5 -66q-2 -31 -11 -65.5t-28 -64t-51 -48.5t-79 -19q-50 0 -78.5 18.5t-37.5 36.5l49 31q3 -14 19 -28t50 -14q28 0 47 12.5t32 32t19.5 42.5t7.5 44h-5q-10 -20 -34.5 -33t-61.5 -13q-30 0 -52 9.5t-36 25.5t-20 36.5 t-5 42.5q2 19 11 40.5t26.5 39.5t44.5 29.5t64 11.5zM95 570q-3 -33 16.5 -53.5t54.5 -20.5q15 0 29 5t26 14.5t20 22.5t10 29q2 28 -15.5 51.5t-55.5 23.5q-32 0 -57 -19t-28 -53z" />
<glyph unicode="&#x207a;" horiz-adv-x="410" d="M48 529h129v130h56v-130h129v-50h-129v-130h-56v130h-129v50z" />
<glyph unicode="&#x207b;" horiz-adv-x="410" d="M48 529h314v-50h-314v50z" />
<glyph unicode="&#x207c;" horiz-adv-x="410" d="M48 579h314v-50h-314v50zM48 479h314v-50h-314v50z" />
<glyph unicode="&#x207d;" horiz-adv-x="200" d="M50 483q0 62 21 109t56 87h58q-34 -42 -52 -91t-18 -105q0 -23 1.5 -42.5t5 -37.5t9 -36t13.5 -38h-58q-9 19 -16 35.5t-11.5 34t-6.5 38t-2 46.5z" />
<glyph unicode="&#x207e;" horiz-adv-x="200" d="M150 525q0 -62 -21 -109t-56 -87h-58q34 42 52 91t18 105q0 23 -1.5 42.5t-5 37.5t-9 36t-13.5 38h58q9 -19 16 -35.5t11.5 -34t6.5 -38t2 -46.5z" />
<glyph unicode="&#x2080;" horiz-adv-x="380" d="M177 207q65 0 98 -38t33 -109q0 -107 -44.5 -162t-119.5 -55q-66 0 -97.5 38t-31.5 110q0 52 12 92.5t33.5 68t51.5 41.5t65 14zM148 -108q48 0 74 43t26 122q0 49 -17.5 75t-54.5 26q-48 0 -74 -43t-26 -121q0 -50 17.5 -76t54.5 -26z" />
<glyph unicode="&#x2081;" horiz-adv-x="350" d="M7 -101h108l28 225q-13 -7 -39 -11.5t-58 -4.5v48q25 0 42.5 3.5t33.5 9.5t29.5 14.5t21.5 17.5h38l-37 -302h103l-6 -48h-270z" />
<glyph unicode="&#x2082;" horiz-adv-x="350" d="M33 79q-1 5 -1.5 11.5t-0.5 11.5q0 22 10 41t27.5 33.5t41 22.5t50.5 8q49 0 83 -25.5t34 -77.5q0 -32 -14.5 -59t-39 -51t-57.5 -46.5t-69 -44.5h171l-6 -52h-266l5 38q40 23 78.5 48t69 51t49.5 52t19 52q0 30 -15.5 48t-48.5 18q-30 0 -49.5 -19.5t-19.5 -51.5v-12.5 t1 -12.5z" />
<glyph unicode="&#x2083;" horiz-adv-x="350" d="M34 150q16 25 44 41t73 16q52 0 82 -22.5t30 -60.5q0 -23 -11.5 -38t-25.5 -24q-17 -11 -37 -16q21 -3 38 -14q14 -9 26 -25.5t12 -43.5q0 -32 -13 -54.5t-34 -37t-46.5 -21.5t-50.5 -7q-22 0 -42.5 4.5t-37 12.5t-30 18t-18.5 20l38 48q3 -9 11.5 -19t21 -18.5t27.5 -14 t31 -5.5t31 4t27 12t19 21.5t7 32.5q0 20 -14.5 35.5t-52.5 15.5q-7 0 -14 -0.5t-23 -1.5q-11 -1 -23 -4l9 54q5 -1 18.5 -1.5t18.5 -0.5q32 0 56 12.5t24 45.5q0 21 -14 34.5t-46 13.5q-34 0 -53 -16t-30 -39z" />
<glyph unicode="&#x2084;" horiz-adv-x="350" d="M173 201h77l-28 -234h70l-6 -45h-68l-9 -71h-55l9 71h-173l-14 32l23 29zM194 161l-145 -194h120z" />
<glyph unicode="&#x2085;" horiz-adv-x="350" d="M96 65q11 5 29.5 8t36.5 3q24 0 45.5 -7.5t38 -21.5t25 -35.5t6.5 -49.5q-5 -55 -46.5 -86.5t-100.5 -31.5q-51 0 -82 16.5t-45 36.5l44 43q8 -20 28.5 -36t52.5 -16q42 0 63.5 20.5t23.5 50.5q3 33 -15 53t-54 20q-22 0 -41.5 -8.5t-30.5 -17.5l-39 21l39 175h211 l-4 -47h-165z" />
<glyph unicode="&#x2086;" horiz-adv-x="350" d="M142 -157q-38 0 -64.5 13t-42 35.5t-21 52.5t-2.5 66q3 31 12 65.5t28 64t50.5 48.5t78.5 19q50 0 78.5 -18.5t38.5 -36.5l-49 -31q-4 14 -19.5 28t-49.5 14q-28 0 -47.5 -12.5t-32 -32t-19 -42.5t-9.5 -44h4q13 20 37 33t61 13q30 0 52 -9.5t36.5 -25.5t20.5 -36.5 t4 -42.5q-2 -19 -10.5 -40.5t-26 -39.5t-44.5 -29.5t-64 -11.5zM226 -41q3 33 -17 53.5t-55 20.5q-15 0 -29 -5t-25.5 -14.5t-20 -22.5t-9.5 -29q-2 -28 15 -51.5t55 -23.5q32 0 57.5 19t28.5 53z" />
<glyph unicode="&#x2087;" horiz-adv-x="320" d="M281 202l-3 -40q-32 -32 -57.5 -70t-44.5 -78.5t-31.5 -82.5t-19.5 -81h-59q12 90 49 165t98 138h-212l4 49h276z" />
<glyph unicode="&#x2088;" horiz-adv-x="350" d="M215 37q29 -10 52.5 -32t20.5 -57q-4 -51 -45.5 -78t-100.5 -27q-31 0 -57.5 7t-45 20t-28.5 32.5t-8 43.5q2 19 10 33.5t20 26t27.5 19t29.5 12.5q-23 10 -39.5 28.5t-13.5 48.5q3 37 38 65t89 28q26 0 49 -6.5t39.5 -18.5t25.5 -29t7 -37q-3 -33 -24 -51.5t-46 -27.5z M94 110q-2 -23 15.5 -38t46.5 -15q27 0 47.5 14t22.5 39q3 25 -15 39t-46 14q-29 0 -48.5 -14.5t-22.5 -38.5zM63 -51q-2 -30 19.5 -46t57.5 -16q35 0 60.5 15.5t27.5 46.5q3 29 -19.5 46.5t-57.5 17.5t-60 -17t-28 -47z" />
<glyph unicode="&#x2089;" horiz-adv-x="350" d="M150 207q38 0 64.5 -13t42 -35.5t21 -52.5t1.5 -66q-2 -31 -11 -65.5t-28 -64t-51 -48.5t-79 -19q-50 0 -78.5 18.5t-37.5 36.5l49 31q3 -14 19 -28t50 -14q28 0 47 12.5t32 32t19.5 42.5t7.5 44h-5q-10 -20 -34.5 -33t-61.5 -13q-30 0 -52 9.5t-36 25.5t-20 36.5 t-5 42.5q2 19 11 40.5t26.5 39.5t44.5 29.5t64 11.5zM66 91q-3 -33 16.5 -53.5t54.5 -20.5q15 0 29 5t26 14.5t20 22.5t10 29q2 28 -15.5 51.5t-55.5 23.5q-32 0 -57 -19t-28 -53z" />
<glyph unicode="&#x208a;" horiz-adv-x="410" d="M19 50h129v130h56v-130h129v-50h-129v-130h-56v130h-129v50z" />
<glyph unicode="&#x208b;" horiz-adv-x="410" d="M19 50h314v-50h-314v50z" />
<glyph unicode="&#x208c;" horiz-adv-x="410" d="M19 100h314v-50h-314v50zM19 0h314v-50h-314v50z" />
<glyph unicode="&#x208d;" horiz-adv-x="200" d="M21 4q0 62 21 109t56 87h58q-34 -42 -52 -91t-18 -105q0 -23 1.5 -42.5t5 -37.5t9 -36t13.5 -38h-58q-9 19 -16 35.5t-11.5 34t-6.5 38t-2 46.5z" />
<glyph unicode="&#x208e;" horiz-adv-x="200" d="M155 46q0 -62 -21 -109t-56 -87h-58q34 42 52 91t18 105q0 23 -1.5 42.5t-5 37.5t-9 36t-13.5 38h58q9 -19 16 -35.5t11.5 -34t6.5 -38t2 -46.5z" />
<glyph unicode="&#x2090;" horiz-adv-x="437" d="M328 -52q-1 -12 -2 -20t-1 -13q0 -12 3.5 -16.5t12.5 -4.5q5 0 9.5 1t7.5 2q5 2 9 4l-7 -46q-4 -3 -9 -6q-11 -6 -26 -6q-20 0 -31.5 10.5t-16.5 22.5t-5.5 22.5t-0.5 12.5h-5q-10 -20 -26 -35q-14 -12 -36 -23t-55 -11t-60 11.5t-46 33t-29 52t-10 66.5q0 43 13 79.5 t36.5 63.5t56.5 42t71 15q31 0 52.5 -10.5t34.5 -23.5q15 -14 24 -33l4 2l9 56h59zM160 -106q27 0 49 11t37.5 31t24 47.5t8.5 59.5q0 57 -25.5 83.5t-67.5 26.5q-28 0 -50 -11t-37 -31t-23.5 -47t-8.5 -59q0 -57 25.5 -84t67.5 -27z" />
<glyph unicode="&#x2091;" horiz-adv-x="376" d="M67 15v-11.5v-11.5q0 -50 23.5 -73.5t67.5 -23.5q36 0 58.5 12.5t31.5 30.5l47 -34q-15 -26 -50 -44t-83 -18q-40 0 -69.5 11.5t-49.5 32.5t-29.5 50.5t-9.5 65.5q0 37 11 73.5t33 65.5t55 46.5t79 17.5q33 0 58 -11.5t41.5 -30.5t24 -45t7.5 -57q0 -9 -1.5 -21.5 t-3.5 -24.5h-241zM173 159q-40 0 -65 -24t-34 -70h180v7v5q0 9 -3 23.5t-11 27t-24 22t-43 9.5z" />
<glyph unicode="&#x2092;" horiz-adv-x="403" d="M157 -158q-33 0 -62 11.5t-49 32.5t-31 50.5t-11 64.5q0 46 13.5 83.5t38 64.5t58 41.5t74.5 14.5q75 0 113.5 -43t38.5 -113q0 -47 -12.5 -85t-36.5 -65t-58 -42t-76 -15zM161 -106q23 0 45 9.5t37.5 29t25 48t9.5 65.5q0 53 -26 80t-68 27q-23 0 -45 -10t-38 -29.5 t-25 -48t-9 -65.5q0 -53 26 -79.5t68 -26.5z" />
<glyph unicode="&#x2093;" horiz-adv-x="394" d="M180 60l101 139h73l-142 -177l97 -168h-70l-71 139l-108 -139h-75l153 177l-98 168h68z" />
<glyph unicode="&#x2094;" horiz-adv-x="376" d="M250 29v26q0 51 -24.5 74t-69.5 23q-36 0 -55 -12.5t-32 -30.5l-47 34q7 10 19.5 21t30 20t38.5 15t45 6q81 0 119.5 -45t38.5 -117q0 -38 -10.5 -74t-32 -64t-54.5 -45.5t-78 -17.5q-68 0 -101 40t-33 101q0 9 1.5 21.5t3.5 24.5h241zM144 -112q42 0 68 21t31 70h-180 v-12q0 -9 2.5 -22.5t11 -26t24.5 -21.5t43 -9z" />
<glyph unicode="&#x20ac;" horiz-adv-x="640" d="M89 424h79q18 58 48.5 102.5t69.5 75t85 46t95 15.5q57 0 97.5 -13t62.5 -31l-26 -66q-20 18 -58.5 31t-85.5 13q-77 0 -130 -46t-78 -127h296l-15 -61h-294q-2 -17 -4.5 -34.5t-2.5 -41.5h264l-16 -61h-245q14 -83 62.5 -127.5t123.5 -44.5q53 0 93.5 14t63.5 34l-5 -79 q-29 -14 -71 -24.5t-92 -10.5q-47 0 -89.5 15t-76 45t-57 74.5t-31.5 103.5h-89l16 61h69q0 19 2 37.5t5 38.5h-82z" />
<glyph unicode="&#x2122;" horiz-adv-x="570" d="M540 651l-31 -253h-54l22 178l-62 -130h-57l-30 130l-22 -178h-54l31 253h71l36 -154l73 154h77zM239 605h-70l-25 -207h-54l25 207h-70l6 46h194z" />
<glyph unicode="&#x2153;" horiz-adv-x="820" d="M513 299q16 25 44 41t73 16q52 0 82 -22.5t30 -60.5q0 -23 -11.5 -38t-25.5 -24q-17 -11 -37 -16q21 -3 38 -14q14 -9 26 -25.5t12 -43.5q0 -32 -13 -54.5t-34 -37t-46.5 -21.5t-50.5 -7q-22 0 -42.5 4.5t-37 12.5t-30 18t-18.5 20l38 48q3 -9 11.5 -19t21 -18.5 t27.5 -14t31 -5.5t31 4t27 12t19 21.5t7 32.5q0 20 -14.5 35.5t-52.5 15.5q-7 0 -14 -0.5t-23 -1.5q-11 -1 -23 -4l9 54q5 -1 18.5 -1.5t18.5 -0.5q32 0 56 12.5t24 45.5q0 21 -14 34.5t-46 13.5q-34 0 -53 -16t-30 -39zM261 0h-64l405 651h64zM50 350h108l28 225 q-13 -7 -39 -11.5t-58 -4.5v48q25 0 42.5 3.5t33.5 9.5t29.5 14.5t21.5 17.5h38l-37 -302h103l-6 -48h-270z" />
<glyph unicode="&#x2154;" horiz-adv-x="820" d="M513 299q16 25 44 41t73 16q52 0 82 -22.5t30 -60.5q0 -23 -11.5 -38t-25.5 -24q-17 -11 -37 -16q21 -3 38 -14q14 -9 26 -25.5t12 -43.5q0 -32 -13 -54.5t-34 -37t-46.5 -21.5t-50.5 -7q-22 0 -42.5 4.5t-37 12.5t-30 18t-18.5 20l38 48q3 -9 11.5 -19t21 -18.5 t27.5 -14t31 -5.5t31 4t27 12t19 21.5t7 32.5q0 20 -14.5 35.5t-52.5 15.5q-7 0 -14 -0.5t-23 -1.5q-11 -1 -23 -4l9 54q5 -1 18.5 -1.5t18.5 -0.5q32 0 56 12.5t24 45.5q0 21 -14 34.5t-46 13.5q-34 0 -53 -16t-30 -39zM85 530q-1 5 -1.5 11.5t-0.5 11.5q0 22 10 41 t27.5 33.5t41 22.5t50.5 8q49 0 83 -25.5t34 -77.5q0 -32 -14.5 -59t-39 -51t-57.5 -46.5t-69 -44.5h171l-6 -52h-266l5 38q40 23 78.5 48t69 51t49.5 52t19 52q0 30 -15.5 48t-48.5 18q-30 0 -49.5 -19.5t-19.5 -51.5v-12.5t1 -12.5zM261 0h-64l405 651h64z" />
<glyph unicode="&#x2155;" horiz-adv-x="820" d="M568 213q11 5 29.5 8t36.5 3q24 0 45.5 -7.5t38 -21.5t25 -35.5t6.5 -49.5q-5 -55 -46.5 -86.5t-100.5 -31.5q-51 0 -82 16.5t-45 36.5l44 43q8 -20 28.5 -36t52.5 -16q42 0 63.5 20.5t23.5 50.5q3 33 -15 53t-54 20q-22 0 -41.5 -8.5t-30.5 -17.5l-39 21l39 175h211 l-4 -47h-165zM261 0h-64l405 651h64zM50 350h108l28 225q-13 -7 -39 -11.5t-58 -4.5v48q25 0 42.5 3.5t33.5 9.5t29.5 14.5t21.5 17.5h38l-37 -302h103l-6 -48h-270z" />
<glyph unicode="&#x2156;" horiz-adv-x="820" d="M568 213q11 5 29.5 8t36.5 3q24 0 45.5 -7.5t38 -21.5t25 -35.5t6.5 -49.5q-5 -55 -46.5 -86.5t-100.5 -31.5q-51 0 -82 16.5t-45 36.5l44 43q8 -20 28.5 -36t52.5 -16q42 0 63.5 20.5t23.5 50.5q3 33 -15 53t-54 20q-22 0 -41.5 -8.5t-30.5 -17.5l-39 21l39 175h211 l-4 -47h-165zM85 530q-1 5 -1.5 11.5t-0.5 11.5q0 22 10 41t27.5 33.5t41 22.5t50.5 8q49 0 83 -25.5t34 -77.5q0 -32 -14.5 -59t-39 -51t-57.5 -46.5t-69 -44.5h171l-6 -52h-266l5 38q40 23 78.5 48t69 51t49.5 52t19 52q0 30 -15.5 48t-48.5 18q-30 0 -49.5 -19.5 t-19.5 -51.5v-12.5t1 -12.5zM261 0h-64l405 651h64z" />
<glyph unicode="&#x2157;" horiz-adv-x="820" d="M568 213q11 5 29.5 8t36.5 3q24 0 45.5 -7.5t38 -21.5t25 -35.5t6.5 -49.5q-5 -55 -46.5 -86.5t-100.5 -31.5q-51 0 -82 16.5t-45 36.5l44 43q8 -20 28.5 -36t52.5 -16q42 0 63.5 20.5t23.5 50.5q3 33 -15 53t-54 20q-22 0 -41.5 -8.5t-30.5 -17.5l-39 21l39 175h211 l-4 -47h-165zM110 601q16 25 44 41t73 16q52 0 82 -22.5t30 -60.5q0 -23 -11.5 -38t-25.5 -24q-17 -11 -37 -16q21 -3 38 -14q14 -9 26 -25.5t12 -43.5q0 -32 -13 -54.5t-34 -37t-46.5 -21.5t-50.5 -7q-22 0 -42.5 4.5t-37 12.5t-30 18t-18.5 20l38 48q3 -9 11.5 -19 t21 -18.5t27.5 -14t31 -5.5t31 4t27 12t19 21.5t7 32.5q0 20 -14.5 35.5t-52.5 15.5q-7 0 -14 -0.5t-23 -1.5q-11 -1 -23 -4l9 54q5 -1 18.5 -1.5t18.5 -0.5q32 0 56 12.5t24 45.5q0 21 -14 34.5t-46 13.5q-34 0 -53 -16t-30 -39zM261 0h-64l405 651h64z" />
<glyph unicode="&#x2158;" horiz-adv-x="820" d="M568 213q11 5 29.5 8t36.5 3q24 0 45.5 -7.5t38 -21.5t25 -35.5t6.5 -49.5q-5 -55 -46.5 -86.5t-100.5 -31.5q-51 0 -82 16.5t-45 36.5l44 43q8 -20 28.5 -36t52.5 -16q42 0 63.5 20.5t23.5 50.5q3 33 -15 53t-54 20q-22 0 -41.5 -8.5t-30.5 -17.5l-39 21l39 175h211 l-4 -47h-165zM242 652h77l-28 -234h70l-6 -45h-68l-9 -71h-55l9 71h-173l-14 32l23 29zM263 612l-145 -194h120zM261 0h-64l405 651h64z" />
<glyph unicode="&#x2159;" horiz-adv-x="820" d="M621 -8q-38 0 -64.5 13t-42 35.5t-21 52.5t-2.5 66q3 31 12 65.5t28 64t50.5 48.5t78.5 19q50 0 78.5 -18.5t38.5 -36.5l-49 -31q-4 14 -19.5 28t-49.5 14q-28 0 -47.5 -12.5t-32 -32t-19 -42.5t-9.5 -44h4q13 20 37 33t61 13q30 0 52 -9.5t36.5 -25.5t20.5 -36.5 t4 -42.5q-2 -19 -10.5 -40.5t-26 -39.5t-44.5 -29.5t-64 -11.5zM705 108q3 33 -17 53.5t-55 20.5q-15 0 -29 -5t-25.5 -14.5t-20 -22.5t-9.5 -29q-2 -28 15 -51.5t55 -23.5q32 0 57.5 19t28.5 53zM261 0h-64l405 651h64zM50 350h108l28 225q-13 -7 -39 -11.5t-58 -4.5v48 q25 0 42.5 3.5t33.5 9.5t29.5 14.5t21.5 17.5h38l-37 -302h103l-6 -48h-270z" />
<glyph unicode="&#x215a;" horiz-adv-x="820" d="M621 -8q-38 0 -64.5 13t-42 35.5t-21 52.5t-2.5 66q3 31 12 65.5t28 64t50.5 48.5t78.5 19q50 0 78.5 -18.5t38.5 -36.5l-49 -31q-4 14 -19.5 28t-49.5 14q-28 0 -47.5 -12.5t-32 -32t-19 -42.5t-9.5 -44h4q13 20 37 33t61 13q30 0 52 -9.5t36.5 -25.5t20.5 -36.5 t4 -42.5q-2 -19 -10.5 -40.5t-26 -39.5t-44.5 -29.5t-64 -11.5zM705 108q3 33 -17 53.5t-55 20.5q-15 0 -29 -5t-25.5 -14.5t-20 -22.5t-9.5 -29q-2 -28 15 -51.5t55 -23.5q32 0 57.5 19t28.5 53zM153 515q11 5 29.5 8t36.5 3q24 0 45.5 -7.5t38 -21.5t25 -35.5t6.5 -49.5 q-5 -55 -46.5 -86.5t-100.5 -31.5q-51 0 -82 16.5t-45 36.5l44 43q8 -20 28.5 -36t52.5 -16q42 0 63.5 20.5t23.5 50.5q3 33 -15 53t-54 20q-22 0 -41.5 -8.5t-30.5 -17.5l-39 21l39 175h211l-4 -47h-165zM261 0h-64l405 651h64z" />
<glyph unicode="&#x215b;" horiz-adv-x="820" d="M691 186q29 -10 52.5 -32t20.5 -57q-4 -51 -45.5 -78t-100.5 -27q-31 0 -57.5 7t-45 20t-28.5 32.5t-8 43.5q2 19 10 33.5t20 26t27.5 19t29.5 12.5q-23 10 -39.5 28.5t-13.5 48.5q3 37 38 65t89 28q26 0 49 -6.5t39.5 -18.5t25.5 -29t7 -37q-3 -33 -24 -51.5t-46 -27.5z M570 259q-2 -23 15.5 -38t46.5 -15q27 0 47.5 14t22.5 39q3 25 -15 39t-46 14q-29 0 -48.5 -14.5t-22.5 -38.5zM539 98q-2 -30 19.5 -46t57.5 -16q35 0 60.5 15.5t27.5 46.5q3 29 -19.5 46.5t-57.5 17.5t-60 -17t-28 -47zM261 0h-64l405 651h64zM50 350h108l28 225 q-13 -7 -39 -11.5t-58 -4.5v48q25 0 42.5 3.5t33.5 9.5t29.5 14.5t21.5 17.5h38l-37 -302h103l-6 -48h-270z" />
<glyph unicode="&#x215c;" horiz-adv-x="820" d="M691 186q29 -10 52.5 -32t20.5 -57q-4 -51 -45.5 -78t-100.5 -27q-31 0 -57.5 7t-45 20t-28.5 32.5t-8 43.5q2 19 10 33.5t20 26t27.5 19t29.5 12.5q-23 10 -39.5 28.5t-13.5 48.5q3 37 38 65t89 28q26 0 49 -6.5t39.5 -18.5t25.5 -29t7 -37q-3 -33 -24 -51.5t-46 -27.5z M570 259q-2 -23 15.5 -38t46.5 -15q27 0 47.5 14t22.5 39q3 25 -15 39t-46 14q-29 0 -48.5 -14.5t-22.5 -38.5zM539 98q-2 -30 19.5 -46t57.5 -16q35 0 60.5 15.5t27.5 46.5q3 29 -19.5 46.5t-57.5 17.5t-60 -17t-28 -47zM110 601q16 25 44 41t73 16q52 0 82 -22.5t30 -60.5 q0 -23 -11.5 -38t-25.5 -24q-17 -11 -37 -16q21 -3 38 -14q14 -9 26 -25.5t12 -43.5q0 -32 -13 -54.5t-34 -37t-46.5 -21.5t-50.5 -7q-22 0 -42.5 4.5t-37 12.5t-30 18t-18.5 20l38 48q3 -9 11.5 -19t21 -18.5t27.5 -14t31 -5.5t31 4t27 12t19 21.5t7 32.5q0 20 -14.5 35.5 t-52.5 15.5q-7 0 -14 -0.5t-23 -1.5q-11 -1 -23 -4l9 54q5 -1 18.5 -1.5t18.5 -0.5q32 0 56 12.5t24 45.5q0 21 -14 34.5t-46 13.5q-34 0 -53 -16t-30 -39zM261 0h-64l405 651h64z" />
<glyph unicode="&#x215d;" horiz-adv-x="820" d="M691 186q29 -10 52.5 -32t20.5 -57q-4 -51 -45.5 -78t-100.5 -27q-31 0 -57.5 7t-45 20t-28.5 32.5t-8 43.5q2 19 10 33.5t20 26t27.5 19t29.5 12.5q-23 10 -39.5 28.5t-13.5 48.5q3 37 38 65t89 28q26 0 49 -6.5t39.5 -18.5t25.5 -29t7 -37q-3 -33 -24 -51.5t-46 -27.5z M570 259q-2 -23 15.5 -38t46.5 -15q27 0 47.5 14t22.5 39q3 25 -15 39t-46 14q-29 0 -48.5 -14.5t-22.5 -38.5zM539 98q-2 -30 19.5 -46t57.5 -16q35 0 60.5 15.5t27.5 46.5q3 29 -19.5 46.5t-57.5 17.5t-60 -17t-28 -47zM153 515q11 5 29.5 8t36.5 3q24 0 45.5 -7.5 t38 -21.5t25 -35.5t6.5 -49.5q-5 -55 -46.5 -86.5t-100.5 -31.5q-51 0 -82 16.5t-45 36.5l44 43q8 -20 28.5 -36t52.5 -16q42 0 63.5 20.5t23.5 50.5q3 33 -15 53t-54 20q-22 0 -41.5 -8.5t-30.5 -17.5l-39 21l39 175h211l-4 -47h-165zM261 0h-64l405 651h64z" />
<glyph unicode="&#x215e;" horiz-adv-x="820" d="M691 186q29 -10 52.5 -32t20.5 -57q-4 -51 -45.5 -78t-100.5 -27q-31 0 -57.5 7t-45 20t-28.5 32.5t-8 43.5q2 19 10 33.5t20 26t27.5 19t29.5 12.5q-23 10 -39.5 28.5t-13.5 48.5q3 37 38 65t89 28q26 0 49 -6.5t39.5 -18.5t25.5 -29t7 -37q-3 -33 -24 -51.5t-46 -27.5z M570 259q-2 -23 15.5 -38t46.5 -15q27 0 47.5 14t22.5 39q3 25 -15 39t-46 14q-29 0 -48.5 -14.5t-22.5 -38.5zM539 98q-2 -30 19.5 -46t57.5 -16q35 0 60.5 15.5t27.5 46.5q3 29 -19.5 46.5t-57.5 17.5t-60 -17t-28 -47zM380 652l-3 -40q-32 -32 -57.5 -70t-44.5 -78.5 t-31.5 -82.5t-19.5 -81h-59q12 90 49 165t98 138h-212l4 49h276zM261 0h-64l405 651h64z" />
<glyph unicode="&#x215f;" horiz-adv-x="820" d="M261 0h-64l405 651h64zM50 350h108l28 225q-13 -7 -39 -11.5t-58 -4.5v48q25 0 42.5 3.5t33.5 9.5t29.5 14.5t21.5 17.5h38l-37 -302h103l-6 -48h-270z" />
<glyph unicode="&#x2190;" horiz-adv-x="720" d="M308 506l40 -47l-178 -170h485v-66h-485l178 -170l-40 -47l-250 250z" />
<glyph unicode="&#x2191;" horiz-adv-x="620" d="M560 296l-48 -40l-169 177v-484h-67v484l-169 -177l-47 40l250 250z" />
<glyph unicode="&#x2192;" horiz-adv-x="720" d="M392.019 6.03125l-39.9971 46.9971l177.989 169.989h-484.971v65.9961h484.971l-177.989 169.989l39.9971 46.9971l249.985 -249.984z" />
<glyph unicode="&#x2193;" horiz-adv-x="620" d="M560 199.018l-48 39.998l-169 -176.989v483.971h-67v-483.971l-169 176.989l-47 -39.998l250 -249.984z" />
<glyph unicode="&#x2212;" horiz-adv-x="510" d="M60 257h390v-62h-390v62z" />
<glyph unicode="&#x25a0;" horiz-adv-x="800" d="M90 651h620v-651h-620v651z" />
<glyph unicode="&#x25a1;" horiz-adv-x="800" d="M90 651h620v-651h-620v651zM169 66h462v519h-462v-519z" />
<glyph unicode="&#x25fb;" horiz-adv-x="680" d="M90 537h500v-537h-500v537zM168 64h344v409h-344v-409z" />
<glyph unicode="&#x25fc;" horiz-adv-x="680" d="M90 537h500v-537h-500v537z" />
<glyph unicode="&#x261c;" horiz-adv-x="1201" d="M858.021 470q-3.99902 0 -8.99902 -5.5t-12.999 -5.5q-7 0 -28.498 7q-21.499 7 -46.9971 15.5q-25.499 8.5 -49.9971 15.5q-24.499 7 -47.4971 14.5q-22.999 7.5 -39.498 12.5t-33.998 9t-30.498 4q-24.998 0 -72.4951 -9t-105.494 -9q-9.99902 0 -24.498 -3.5 t-30.498 -8t-31.998 -8.5t-29.998 -6q-14 -2 -38.498 -7.5q-24.499 -5.5 -50.9971 -12.5t-49.4971 -13.5q-22.998 -6.5 -32.998 -9.5q-9.99902 -3 -20.998 -7q-11 -4 -19.999 -8.5q-9 -4.5 -14.999 -9.5q-6 -5 -6 -10q0 -26 25.999 -34.5q25.998 -8.5 66.9951 -8.5 q81.9951 0 105.994 13h50.9971q16.998 0 35.9971 3t37.498 7t33.498 7t22.998 3h21.999q10.999 13 27.498 31t34.998 34t36.998 27t31.498 11q6 0 10.999 -2l10 -4l9.99902 -5v-5h-28.998q-10 0 -25.499 -9.5t-32.498 -24t-32.998 -30t-27.998 -27.5t-24.998 -26.5 t-22.999 -28.5q-9.99902 -14 -16.499 -27.5q-6.49902 -13.5 -6.49902 -24.5t4.99902 -19q5 -8 11.5 -13.5q6.49902 -5.5 13.499 -8.5q6.99902 -3 9.99902 -3q7 0 14.999 20.5q8 20.5 29.998 62.5q21.999 42 41.998 68.5q19.998 26.5 27.998 26.5q7 0 16.999 -4 q4 -2 8.99902 -4v-4h-13.999q-8.99902 0 -20.999 -14q-11.999 -14 -25.998 -36t-27.498 -48t-24.499 -50q-10.999 -24 -17.499 -42.5q-6.49902 -18.5 -6.49902 -24.5q0 -19 15.499 -27.5t30.498 -8.5q7 0 11.499 30.5q4.5 30.5 20.499 78.5t31.498 65.5t24.498 17.5 q5 0 8.5 -0.5t5.5 -0.5q2.99902 -1 4.99902 -1v-5h-9.99902q-9.99902 0 -20.499 -14.5q-10.499 -14.5 -19.499 -36q-8.99902 -21.5 -16.998 -47q-8 -25.5 -13.5 -48q-5.49902 -22.5 -8.99902 -38t-3.5 -17.5q0 -3 3 -8.5t7.99902 -10.5q5 -5 10.5 -8.5 q5.49902 -3.5 11.499 -3.5h71.9961q26.998 0 37.4971 12.5q10.5 12.5 10.5 23.5v26q0 4 -6 9.5t-13.499 10q-7.5 4.5 -14.999 7.5q-7.5 3 -9.5 3t-3.99902 -3.5q-2 -3.5 -4 -7.5t-4 -7.5t-3 -3.5q-4.99902 0 -4.99902 4q0 2 1.49902 8q1.5 6 4 12.5t5.5 11.5t6.99902 5 q8 0 19.999 -8t40.998 -22q28.998 -14 57.4961 -20.5t64.4961 -6.5t64.4961 2.5t47.4971 5.5v82q0 23 -2.5 57.5t-5.5 66.5q-3.99902 37 -8.99902 76h73.9951q8 -28 14 -59q4.99902 -26 9.49902 -58t4.5 -64t-1 -63t-2 -57t-2.5 -46.5t-3.5 -32.5h-3.99902 q2.99902 23 4.99902 75t2 114h-6q0 -17 -0.5 -42q-0.499023 -25 -2.49902 -54h-5v77h-6v-35q0 -14 -0.5 -28t-1.5 -22h-3.99902v73h-5v-15v-22t-0.5 -23t-1.5 -18h-4v65h-4.99902q0 -35 -3 -62h-4v60h-5q0 -13 -1.49902 -31.5q-1.5 -18.5 -2.5 -26.5h-5q0 2 0.5 9t1 16 t0.5 18.5v16.5h-7q0 -58 -8.99902 -90.5q-9 -32.5 -10.999 -40.5h-4q1 3 3 12q1.99902 9 3.99902 20t3.5 21t1.5 16l-60.9961 -6q0 -37 11.499 -63.5t22.499 -44.5h96.9941l-2 -10h-37.998q0 -15 7.5 -28q7.49902 -13 19.498 -13h153.991q9.99902 26 17.999 59 q6.99902 29 11.999 70.5t5 95.5t-6 101t-13.999 82q-9 41 -20.999 75h-147.991q-7.99902 0 -20.998 -5t-17.999 -8h-39.998zM106.066 441q-4.99902 -5 -13.499 -10.5q-8.49902 -5.5 -14.499 -7.5l-2 3q7 3 14.499 8.5q7.5 5.5 10.5 7.5zM915.018 112q7.99902 0 15.999 -4 q7.99902 -4 7.99902 -15q0 -16 -13.999 -24t-28.998 -8q-15.999 0 -15.999 19q0 14 11.499 23q11.5 9 23.499 9z" />
<glyph unicode="&#x261e;" horiz-adv-x="1201" d="M343 470q4 0 9 -5.5t13 -5.5q7 0 28.5 7t47 15.5t50 15.5t47.5 14.5t39.5 12.5t34 9t30.5 4q25 0 72.5 -9t105.5 -9q10 0 24.5 -3.5t30.5 -8t32 -8.5t30 -6t38.5 -7.5t51 -12.5t49.5 -13.5t33 -9.5t21 -7t20 -8.5t15 -9.5t6 -10q0 -26 -26 -34.5t-67 -8.5q-82 0 -106 13 h-51q-17 0 -36 3t-37.5 7t-33.5 7t-23 3h-22q-11 13 -27.5 31t-35 34t-37 27t-31.5 11q-6 0 -11 -2l-10 -4l-10 -5v-5h29q10 0 25.5 -9.5t32.5 -24t33 -30t28 -27.5t25 -26.5t23 -28.5t16.5 -27.5t6.5 -24.5t-5 -19t-11.5 -13.5t-13.5 -8.5t-10 -3q-7 0 -15 20.5t-30 62.5 t-42 68.5t-28 26.5q-7 0 -17 -4q-4 -2 -9 -4v-4h14q9 0 21 -14t26 -36t27.5 -48t24.5 -50t17.5 -42.5t6.5 -24.5q0 -19 -15.5 -27.5t-30.5 -8.5q-7 0 -11.5 30.5t-20.5 78.5t-31.5 65.5t-24.5 17.5q-5 0 -8.5 -0.5t-5.5 -0.5q-3 -1 -5 -1v-5h10q10 0 20.5 -14.5t19.5 -36 t17 -47t13.5 -48t9 -38t3.5 -17.5q0 -3 -3 -8.5t-8 -10.5t-10.5 -8.5t-11.5 -3.5h-72q-27 0 -37.5 12.5t-10.5 23.5v26q0 4 6 9.5t13.5 10t15 7.5t9.5 3t4 -3.5t4 -7.5t4 -7.5t3 -3.5q5 0 5 4q0 2 -1.5 8t-4 12.5t-5.5 11.5t-7 5q-8 0 -20 -8t-41 -22t-57.5 -20.5 t-64.5 -6.5t-64.5 2.5t-47.5 5.5v82q0 23 2.5 57.5t5.5 66.5q4 37 9 76h-74q-8 -28 -14 -59q-5 -26 -9.5 -58t-4.5 -64t1 -63t2 -57t2.5 -46.5t3.5 -32.5h4q-3 23 -5 75t-2 114h6q0 -17 0.5 -42t2.5 -54h5v77h6v-35q0 -14 0.5 -28t1.5 -22h4v73h5v-15v-22t0.5 -23t1.5 -18h4 v65h5q0 -35 3 -62h4v60h5q0 -13 1.5 -31.5t2.5 -26.5h5q0 2 -0.5 9t-1 16t-0.5 18.5v16.5h7q0 -58 9 -90.5t11 -40.5h4q-1 3 -3 12t-4 20t-3.5 21t-1.5 16l61 -6q0 -37 -11.5 -63.5t-22.5 -44.5h-97l2 -10h38q0 -15 -7.5 -28t-19.5 -13h-154q-10 26 -18 59q-7 29 -12 70.5 t-5 95.5t6 101t14 82q9 41 21 75h148q8 0 21 -5t18 -8h40zM1095 441q5 -5 13.5 -10.5t14.5 -7.5l2 3q-7 3 -14.5 8.5t-10.5 7.5zM286 112q-8 0 -16 -4t-8 -15q0 -16 14 -24t29 -8q16 0 16 19q0 14 -11.5 23t-23.5 9z" />
<glyph unicode="&#xe000;" horiz-adv-x="460" d="M0 460h460v-460h-460v460z" />
<glyph unicode="&#xf6c3;" horiz-adv-x="270" d="M85 -249l18 151l73 -11l-37 -146z" />
<glyph unicode="&#xfb00;" horiz-adv-x="642" d="M133 397h-81l7 63h84l17 118q4 31 18 56.5t34 43.5t46.5 28t56.5 10q32 0 54 -7.5t30 -17.5l-19 -65q-7 8 -23 14.5t-43 6.5q-30 0 -55 -20t-30 -67l-11 -100h105l-7 -63h-107l-62 -519q-4 -32 -17 -55t-32.5 -38.5t-43.5 -23t-50 -7.5q-23 0 -40 5t-28 12l14 66 q8 -5 20 -9.5t30 -4.5q10 0 21.5 2.5t22 10t18.5 22t11 38.5zM460 397h-81l7 63h84l17 118q4 31 18 56.5t34 43.5t46.5 28t56.5 10q32 0 54 -7.5t30 -17.5l-19 -65q-7 8 -23 14.5t-43 6.5q-30 0 -55 -20t-30 -67l-11 -100h105l-7 -63h-107l-62 -519q-4 -32 -17 -55 t-32.5 -38.5t-43.5 -23t-50 -7.5q-23 0 -40 5t-28 12l14 66q8 -5 20 -9.5t30 -4.5q10 0 21.5 2.5t22 10t18.5 22t11 38.5z" />
<glyph unicode="&#xfb01;" horiz-adv-x="578" d="M133 397h-81l7 63h84l17 118q4 31 18 56.5t34 43.5t46.5 28t56.5 10q32 0 54 -7.5t30 -17.5l-19 -65q-7 8 -23 14.5t-43 6.5q-30 0 -55 -20t-30 -67l-11 -100h105l-7 -63h-107l-62 -519q-4 -32 -17 -55t-32.5 -38.5t-43.5 -23t-50 -7.5q-23 0 -40 5t-28 12l14 66 q8 -5 20 -9.5t30 -4.5q10 0 21.5 2.5t22 10t18.5 22t11 38.5zM466 -9q-43 0 -59.5 21t-16.5 49q0 7 0.5 14t1.5 12l52 373h76l-49 -342q-2 -15 -3 -25.5t-1 -15.5q0 -26 25 -26q6 0 12 1t11 3q6 2 12 5l-9 -55q-5 -4 -12 -7q-14 -7 -40 -7zM555 626q0 -28 -17 -44t-40 -16 q-21 0 -38 16t-17 44q0 26 17 41.5t38 15.5q23 0 40 -15.5t17 -41.5z" />
<glyph unicode="&#xfb02;" horiz-adv-x="591" d="M133 397h-81l7 63h84l17 118q4 31 18 56.5t34 43.5t46.5 28t56.5 10q32 0 54 -7.5t30 -17.5l-19 -65q-7 8 -23 14.5t-43 6.5q-30 0 -55 -20t-30 -67l-11 -100h105l-7 -63h-107l-62 -519q-4 -32 -17 -55t-32.5 -38.5t-43.5 -23t-50 -7.5q-23 0 -40 5t-28 12l14 66 q8 -5 20 -9.5t30 -4.5q10 0 21.5 2.5t22 10t18.5 22t11 38.5zM471 711h76l-77 -593q-2 -15 -3 -25.5t-1 -15.5q0 -13 11 -19.5t22 -6.5q8 0 15.5 2t13.5 4l14 6l-7 -55q-8 -5 -17 -9q-8 -3 -18 -5.5t-23 -2.5q-49 0 -68 23.5t-19 54.5v9t1 9z" />
<glyph unicode="&#xfb03;" horiz-adv-x="905" d="M133 397h-81l7 63h84l17 118q4 31 18 56.5t34 43.5t46.5 28t56.5 10q32 0 54 -7.5t30 -17.5l-19 -65q-7 8 -23 14.5t-43 6.5q-30 0 -55 -20t-30 -67l-11 -100h105l-7 -63h-107l-62 -519q-4 -32 -17 -55t-32.5 -38.5t-43.5 -23t-50 -7.5q-23 0 -40 5t-28 12l14 66 q8 -5 20 -9.5t30 -4.5q10 0 21.5 2.5t22 10t18.5 22t11 38.5zM460 397h-81l7 63h84l17 118q4 31 18 56.5t34 43.5t46.5 28t56.5 10q32 0 54 -7.5t30 -17.5l-19 -65q-7 8 -23 14.5t-43 6.5q-30 0 -55 -20t-30 -67l-11 -100h105l-7 -63h-107l-62 -519q-4 -32 -17 -55 t-32.5 -38.5t-43.5 -23t-50 -7.5q-23 0 -40 5t-28 12l14 66q8 -5 20 -9.5t30 -4.5q10 0 21.5 2.5t22 10t18.5 22t11 38.5zM793 -9q-43 0 -59.5 21t-16.5 49q0 7 0.5 14t1.5 12l52 373h76l-49 -342q-2 -15 -3 -25.5t-1 -15.5q0 -26 25 -26q6 0 12 1t11 3q6 2 12 5l-9 -55 q-5 -4 -12 -7q-14 -7 -40 -7zM882 626q0 -28 -17 -44t-40 -16q-21 0 -38 16t-17 44q0 26 17 41.5t38 15.5q23 0 40 -15.5t17 -41.5z" />
<glyph unicode="&#xfb04;" horiz-adv-x="918" d="M133 397h-81l7 63h84l17 118q4 31 18 56.5t34 43.5t46.5 28t56.5 10q32 0 54 -7.5t30 -17.5l-19 -65q-7 8 -23 14.5t-43 6.5q-30 0 -55 -20t-30 -67l-11 -100h105l-7 -63h-107l-62 -519q-4 -32 -17 -55t-32.5 -38.5t-43.5 -23t-50 -7.5q-23 0 -40 5t-28 12l14 66 q8 -5 20 -9.5t30 -4.5q10 0 21.5 2.5t22 10t18.5 22t11 38.5zM460 397h-81l7 63h84l17 118q4 31 18 56.5t34 43.5t46.5 28t56.5 10q32 0 54 -7.5t30 -17.5l-19 -65q-7 8 -23 14.5t-43 6.5q-30 0 -55 -20t-30 -67l-11 -100h105l-7 -63h-107l-62 -519q-4 -32 -17 -55 t-32.5 -38.5t-43.5 -23t-50 -7.5q-23 0 -40 5t-28 12l14 66q8 -5 20 -9.5t30 -4.5q10 0 21.5 2.5t22 10t18.5 22t11 38.5zM798 711h76l-77 -593q-2 -15 -3 -25.5t-1 -15.5q0 -13 11 -19.5t22 -6.5q8 0 15.5 2t13.5 4l14 6l-7 -55q-8 -5 -17 -9q-8 -3 -18 -5.5t-23 -2.5 q-49 0 -68 23.5t-19 54.5v9t1 9z" />
<glyph horiz-adv-x="620" d="M339 663q93 0 149.5 -63.5t56.5 -196.5q0 -19 -1.5 -38t-3.5 -40q-9 -87 -34.5 -150.5t-63 -105t-84.5 -61.5t-99 -20q-100 0 -152 62t-52 195q0 19 1.5 38.5t3.5 41.5q10 88 34 152t60 105t82.5 61t102.5 20zM267 51q44 0 80.5 25t63 71.5t41 111.5t14.5 146 q0 91 -35.5 143t-104.5 52q-46 0 -82 -24.5t-61 -70.5t-38 -112t-13 -149q0 -91 33 -142t102 -51z" />
<glyph horiz-adv-x="335" d="M106 0l67 540q-16 -4 -34 -8q-15 -3 -35 -5.5t-40 -2.5l-4 50q44 5 73.5 17.5t47.5 26.5q21 15 33 33h49l-81 -651h-76z" />
<glyph horiz-adv-x="540" d="M94 490q0 27 10.5 57.5t35 56t65.5 42.5t102 17q41 0 76.5 -12t61.5 -35.5t41 -58.5t15 -81q0 -54 -26.5 -106.5t-73.5 -104t-112 -101.5t-141 -98h307l-8 -66h-406l6 50q104 68 187 139q35 30 68.5 64.5t60 70t42.5 71t16 69.5q0 61 -32 98.5t-95 37.5 q-64 0 -96.5 -36.5t-32.5 -94.5q0 -14 1.5 -29.5t4.5 -26.5l-69 14q-3 11 -5.5 30t-2.5 33z" />
<glyph horiz-adv-x="540" d="M393 497q0 42 -28 74t-86 32q-30 0 -53.5 -9.5t-40.5 -24.5t-27.5 -33.5t-16.5 -37.5l-49 43q6 21 21 43t39.5 39.5t58 28.5t75.5 11q45 0 79.5 -13t58 -34.5t35 -49t11.5 -56.5q0 -31 -14 -57t-36 -46.5t-48 -35.5t-51 -23q25 -6 48.5 -19t42 -33t29.5 -46.5t11 -59.5 q0 -46 -17.5 -83t-49 -63.5t-74.5 -41t-93 -14.5q-41 0 -74 9t-57.5 23.5t-40.5 33t-23 37.5l52 60q11 -44 49.5 -72.5t100.5 -28.5q38 0 66 11.5t46 31t27 44.5t9 51q0 24 -7.5 46t-25 38.5t-44.5 26.5t-66 10q-11 0 -36 -1t-48 -6l11 71q13 -1 25.5 -1.5t25.5 -0.5 q51 0 86.5 10.5t57.5 28.5t31.5 40.5t9.5 46.5z" />
<glyph horiz-adv-x="580" d="M506 157h-91l-20 -157h-72l20 157h-307l-17 39l30 38l334 417h93l-54 -432h91zM350 219l48 355l-277 -355h229z" />
<glyph horiz-adv-x="540" d="M292 419q36 0 70.5 -12t61.5 -36.5t43.5 -61.5t16.5 -87t-17 -92.5t-49.5 -74t-80 -49.5t-107.5 -18q-39 0 -70.5 8.5t-55.5 22.5t-41 32.5t-28 38.5l49 68q6 -17 17 -36t29 -35t44.5 -26.5t62.5 -10.5q82 0 124.5 47t42.5 119q0 68 -35 105t-94 37q-38 0 -68.5 -12 t-48.5 -28l-56 30l73 303h330l-8 -66h-271l-46 -192q19 11 50 18.5t62 7.5z" />
<glyph horiz-adv-x="580" d="M284 -12q-57 0 -96 19t-63 52t-34.5 78t-10.5 97q0 36 5 82t18 93.5t34.5 93t54.5 81.5t77.5 57.5t104.5 21.5q66 0 107.5 -25t52.5 -60l-60 -53q-6 35 -34 56t-73 21q-52 0 -88.5 -27t-60.5 -68t-37 -90t-19 -93l3 -1q19 41 63 69t109 28q48 0 82 -16.5t55.5 -43 t31.5 -60t10 -66.5q0 -31 -9.5 -73t-35.5 -80.5t-71 -65.5t-116 -27zM314 359q-36 0 -65 -13t-49 -35.5t-31 -53t-11 -64.5q0 -28 7.5 -54t23.5 -46.5t40.5 -32.5t57.5 -12q30 0 57 10.5t47.5 32t32.5 54t12 75.5q0 71 -32.5 105t-89.5 34z" />
<glyph horiz-adv-x="540" d="M526 651l-6 -52q-55 -60 -105 -131.5t-90 -149t-67.5 -158.5t-36.5 -160h-80q8 65 33 143.5t62.5 158t86 153.5t104.5 130h-331l8 66h422z" />
<glyph horiz-adv-x="580" d="M387 339q30 -11 55 -30q21 -17 38.5 -46t17.5 -74q0 -47 -19 -84t-51.5 -63t-76 -40t-91.5 -14t-87.5 13t-67.5 37t-43.5 57.5t-15.5 73.5q0 51 23 85.5t51 55.5t51.5 30t24.5 9l1 3q-25 12 -44 31q-17 17 -30.5 42t-13.5 61q0 38 15 70.5t42 56t64 37t82 13.5 q41 0 75.5 -11.5t59.5 -32.5t39 -50.5t14 -65.5q0 -42 -17.5 -72.5t-38.5 -50.5q-25 -23 -56 -38zM303 602q-56 0 -88.5 -29.5t-32.5 -80.5q0 -52 32 -84.5t82 -32.5q26 0 49 9t40.5 25.5t27.5 39t10 49.5q0 49 -33 76.5t-87 27.5zM275 315q-31 0 -58.5 -10t-48 -28 t-32.5 -43.5t-12 -56.5q0 -57 37.5 -92.5t100.5 -35.5q31 0 59.5 9.5t50 27.5t34.5 43.5t13 57.5q0 30 -11.5 53.5t-31 40t-45.5 25.5t-56 9z" />
<glyph horiz-adv-x="580" d="M310 663q56 0 95 -19t63.5 -52.5t35.5 -80t11 -100.5q0 -34 -4.5 -78.5t-16.5 -91.5t-33 -92.5t-53 -81t-77.5 -57.5t-105.5 -22q-36 0 -64.5 8t-49.5 21t-36.5 30t-26.5 35l60 53q8 -16 20 -31.5t28 -27.5t36.5 -19.5t45.5 -7.5q47 0 81 26t57.5 66t37 89t19.5 95l-3 1 q-8 -14 -22.5 -30.5t-36 -30t-50 -22.5t-64.5 -9q-48 0 -82 17t-55 44t-31 60.5t-10 65.5q0 33 11 75t37.5 79t71 62.5t111.5 25.5zM278 295q36 0 65.5 12.5t50.5 34.5t32 52t11 64q0 28 -7.5 54t-23.5 46t-40.5 32.5t-57.5 12.5q-30 0 -57 -10.5t-47.5 -32t-32.5 -54 t-12 -75.5q0 -71 31.5 -103.5t87.5 -32.5z" />
<glyph horiz-adv-x="270" d="M95 551l43 171l72 -11l-62 -166z" />
<glyph horiz-adv-x="250" d="M218 798l-41 -41l-145 146l41 41z" />
<glyph horiz-adv-x="250" d="M177 944l41 -41l-145 -146l-41 41z" />
<glyph horiz-adv-x="250" d="M-64 757l175 160h62l142 -160h-82l-96 116l-120 -116h-81z" />
<glyph horiz-adv-x="250" d="M315 917l-176 -160h-63l-140 160h80l97 -116l120 116h82z" />
<glyph horiz-adv-x="250" d="M272 886q1 -6 1.5 -13t0.5 -17q0 -19 -5.5 -36t-16.5 -31.5t-27 -23t-38 -8.5q-25 0 -42 10.5t-31 23.5t-26.5 23.5t-28.5 10.5q-12 0 -18.5 -7t-10 -16t-4.5 -20t-1 -18v-7h-45q-3 12 -3 34q0 17 5.5 34.5t15.5 31t26.5 21.5t38.5 8q24 0 41 -10.5t31.5 -23.5t27 -23.5 t27.5 -10.5q13 0 20.5 7t11 18t4.5 22t1 16v5h45z" />
<glyph horiz-adv-x="250" d="M-23 812h303l-6 -55h-303z" />
<glyph horiz-adv-x="250" d="M118 812q46 0 73.5 30t32.5 74h68q-4 -34 -17.5 -63t-36 -50.5t-54.5 -33.5t-72 -12q-81 0 -117 44.5t-28 114.5h66q-5 -44 18 -74t67 -30z" />
<glyph horiz-adv-x="250" d="M80 815q0 -26 -17 -42t-42 -16q-23 0 -37.5 14.5t-14.5 37.5q0 27 16.5 43t41.5 16q23 0 38 -14.5t15 -38.5zM281 815q0 -26 -17 -42t-41 -16t-38.5 14.5t-14.5 37.5q0 27 16.5 43t42.5 16q23 0 37.5 -14.5t14.5 -38.5z" />
<glyph horiz-adv-x="250" d="M181 817q0 -28 -17 -44t-40 -16q-21 0 -38 16t-17 44q0 26 17 41.5t38 15.5q23 0 40 -15.5t17 -41.5z" />
<glyph horiz-adv-x="250" d="M12 863q0 24 8.5 45t24 36.5t37 25t48.5 9.5q49 0 78.5 -31t29.5 -75q0 -24 -8.5 -45.5t-24.5 -37t-37.5 -24.5t-47.5 -9q-51 0 -79.5 30.5t-28.5 75.5zM60 866q0 -28 17 -46.5t45 -18.5t48 20t20 49q0 26 -18 45.5t-44 19.5q-29 0 -48.5 -20.5t-19.5 -48.5z" />
<glyph horiz-adv-x="250" d="M114 944l41 -35l-134 -151l-41 34zM283 944l41 -35l-134 -151l-41 34z" />
<glyph horiz-adv-x="674" d="M181 324l318 327h90l-293 -293l234 -358h-92l-194 323l-70 -64l-32 -259h-79l79 651h79zM723.005 649.984l-17.999 -150.99l-72.9951 10.999l36.998 145.991z" />
<glyph d="M349 663q93 0 149.5 -63.5t56.5 -196.5q0 -19 -1.5 -38t-3.5 -40q-9 -87 -34.5 -150.5t-63 -105t-84.5 -61.5t-99 -20q-100 0 -152 62t-52 195q0 19 1.5 38.5t3.5 41.5q10 88 34 152t60 105t82.5 61t102.5 20zM277 51q44 0 80.5 25t63 71.5t41 111.5t14.5 146 q0 91 -35.5 143t-104.5 52q-46 0 -82 -24.5t-61 -70.5t-38 -112t-13 -149q0 -91 33 -142t102 -51z" />
<glyph d="M118 62h154l59 486q-14 -4 -31 -8t-35.5 -7t-36.5 -5t-32 -2v60q59 1 107 19.5t75 45.5h41l-71 -589h151l-7 -62h-381z" />
<glyph d="M113 490q0 27 10.5 57.5t35 56t65.5 42.5t102 17q41 0 76.5 -12t61.5 -35.5t41 -58.5t15 -81q0 -54 -26.5 -106.5t-73.5 -104t-112 -101.5t-141 -98h307l-8 -66h-406l6 50q104 68 187 139q35 30 68.5 64.5t60 70t42.5 71t16 69.5q0 61 -32 98.5t-95 37.5 q-64 0 -96.5 -36.5t-32.5 -94.5q0 -14 1.5 -29.5t4.5 -26.5l-69 14q-3 11 -5.5 30t-2.5 33z" />
<glyph d="M436 497q0 42 -28 74t-86 32q-30 0 -53.5 -9.5t-40.5 -24.5t-27.5 -33.5t-16.5 -37.5l-49 43q6 21 21 43t39.5 39.5t58 28.5t75.5 11q45 0 79.5 -13t58 -34.5t35 -49t11.5 -56.5q0 -31 -14 -57t-36 -46.5t-48 -35.5t-51 -23q25 -6 48.5 -19t42 -33t29.5 -46.5t11 -59.5 q0 -46 -17.5 -83t-49 -63.5t-74.5 -41t-93 -14.5q-41 0 -74 9t-57.5 23.5t-40.5 33t-23 37.5l52 60q11 -44 49.5 -72.5t100.5 -28.5q38 0 66 11.5t46 31t27 44.5t9 51q0 24 -7.5 46t-25 38.5t-44.5 26.5t-66 10q-11 0 -36 -1t-48 -6l11 71q13 -1 25.5 -1.5t25.5 -0.5 q51 0 86.5 10.5t57.5 28.5t31.5 40.5t9.5 46.5z" />
<glyph d="M540 157h-91l-20 -157h-72l20 157h-307l-17 39l30 38l334 417h93l-54 -432h91zM384 219l48 355l-277 -355h229z" />
<glyph d="M312 419q36 0 70.5 -12t61.5 -36.5t43.5 -61.5t16.5 -87t-17 -92.5t-49.5 -74t-80 -49.5t-107.5 -18q-39 0 -70.5 8.5t-55.5 22.5t-41 32.5t-28 38.5l49 68q6 -17 17 -36t29 -35t44.5 -26.5t62.5 -10.5q82 0 124.5 47t42.5 119q0 68 -35 105t-94 37q-38 0 -68.5 -12 t-48.5 -28l-56 30l73 303h330l-8 -66h-271l-46 -192q19 11 50 18.5t62 7.5z" />
<glyph d="M297 -12q-57 0 -96 19t-63 52t-34.5 78t-10.5 97q0 36 5 82t18 93.5t34.5 93t54.5 81.5t77.5 57.5t104.5 21.5q66 0 107.5 -25t52.5 -60l-60 -53q-6 35 -34 56t-73 21q-52 0 -88.5 -27t-60.5 -68t-37 -90t-19 -93l3 -1q19 41 63 69t109 28q48 0 82 -16.5t55.5 -43 t31.5 -60t10 -66.5q0 -31 -9.5 -73t-35.5 -80.5t-71 -65.5t-116 -27zM327 359q-36 0 -65 -13t-49 -35.5t-31 -53t-11 -64.5q0 -28 7.5 -54t23.5 -46.5t40.5 -32.5t57.5 -12q30 0 57 10.5t47.5 32t32.5 54t12 75.5q0 71 -32.5 105t-89.5 34z" />
<glyph d="M555 651l-6 -52q-55 -60 -105 -131.5t-90 -149t-67.5 -158.5t-36.5 -160h-80q8 65 33 143.5t62.5 158t86 153.5t104.5 130h-331l8 66h422z" />
<glyph d="M414 339q30 -11 55 -30q21 -17 38.5 -46t17.5 -74q0 -47 -19 -84t-51.5 -63t-76 -40t-91.5 -14t-87.5 13t-67.5 37t-43.5 57.5t-15.5 73.5q0 51 23 85.5t51 55.5t51.5 30t24.5 9l1 3q-25 12 -44 31q-17 17 -30.5 42t-13.5 61q0 38 15 70.5t42 56t64 37t82 13.5 q41 0 75.5 -11.5t59.5 -32.5t39 -50.5t14 -65.5q0 -42 -17.5 -72.5t-38.5 -50.5q-25 -23 -56 -38zM330 602q-56 0 -88.5 -29.5t-32.5 -80.5q0 -52 32 -84.5t82 -32.5q26 0 49 9t40.5 25.5t27.5 39t10 49.5q0 49 -33 76.5t-87 27.5zM302 315q-31 0 -58.5 -10t-48 -28 t-32.5 -43.5t-12 -56.5q0 -57 37.5 -92.5t100.5 -35.5q31 0 59.5 9.5t50 27.5t34.5 43.5t13 57.5q0 30 -11.5 53.5t-31 40t-45.5 25.5t-56 9z" />
<glyph d="M338 663q56 0 95 -19t63.5 -52.5t35.5 -80t11 -100.5q0 -34 -4.5 -78.5t-16.5 -91.5t-33 -92.5t-53 -81t-77.5 -57.5t-105.5 -22q-36 0 -64.5 8t-49.5 21t-36.5 30t-26.5 35l60 53q8 -16 20 -31.5t28 -27.5t36.5 -19.5t45.5 -7.5q47 0 81 26t57.5 66t37 89t19.5 95l-3 1 q-8 -14 -22.5 -30.5t-36 -30t-50 -22.5t-64.5 -9q-48 0 -82 17t-55 44t-31 60.5t-10 65.5q0 33 11 75t37.5 79t71 62.5t111.5 25.5zM306 295q36 0 65.5 12.5t50.5 34.5t32 52t11 64q0 28 -7.5 54t-23.5 46t-40.5 32.5t-57.5 12.5q-30 0 -57 -10.5t-47.5 -32t-32.5 -54 t-12 -75.5q0 -71 31.5 -103.5t87.5 -32.5z" />
<glyph d="M405 175h100l-11 -52h-102l-34 -147h-63l34 147h-100l-34 -147h-63l34 147h-84l11 52h86l30 128h-94l11 53h96l33 145h63l-33 -145h98l35 145h63l-33 -145h89l-9 -53h-93zM372 303h-100l-30 -128h100z" />
<glyph d="M396 751l-12 -103q30 -2 56.5 -13t46 -27t31.5 -35t15 -36l-66 -35q-6 29 -27.5 52.5t-63.5 30.5l-27 -230q33 -10 61.5 -24t49.5 -34t33 -46.5t12 -61.5q0 -38 -14.5 -71t-40.5 -58t-63 -41t-82 -20l-13 -101h-62l13 101q-36 1 -67 11.5t-54 26.5t-37.5 36.5t-18.5 43.5 l66 37q9 -35 38.5 -61.5t79.5 -31.5l28 243q-31 10 -58 25t-46.5 35.5t-30.5 47t-11 61.5q0 39 14 71.5t39.5 56.5t60 37t76.5 13l12 100h62zM430 176q0 45 -27 68.5t-65 37.5l-26 -221q53 5 85.5 34.5t32.5 80.5zM205 482q0 -42 24.5 -67.5t58.5 -39.5l26 214 q-60 -2 -84.5 -33.5t-24.5 -73.5z" />
<glyph d="M272 272q14 -21 20 -46t6 -48q0 -26 -6 -49t-21 -51q19 -8 47 -16t53 -8q41 0 55 22t14 54h79q0 -24 -7.5 -49t-24.5 -45.5t-45 -34t-69 -13.5q-40 0 -73.5 15t-56.5 29q-21 -17 -48.5 -30.5t-62.5 -13.5q-44 0 -69 18t-25 49q0 18 7.5 31.5t19 22.5t26 13.5t28.5 4.5 q29 0 56 -8.5t50 -21.5q11 22 11 49q0 32 -13 65t-27 61h-117l7 61h83q-11 24 -24.5 60.5t-13.5 81.5q0 37 14 70.5t41.5 59.5t68 42t94.5 16q80 0 127 -28t68 -67l-64 -44q-12 32 -46.5 54.5t-91.5 22.5q-63 0 -98 -37.5t-35 -106.5q0 -23 5.5 -45.5t13.5 -39.5 q8 -20 19 -39h181l-7 -61h-149zM131 36q20 0 36 3t28 14q-16 11 -32 16t-30 5q-11 0 -20 -5t-9 -16q0 -17 27 -17z" />
<glyph d="M101 400h100l-106 251h69l144 -338l235 338h65l-169 -251h104l-8 -61h-137l-52 -76h180l-8 -61h-184l-24 -202h-79l24 202h-179l8 61h174l-31 76h-134z" />
<glyph d="M46 424h79q18 58 48.5 102.5t69.5 75t85 46t95 15.5q57 0 97.5 -13t62.5 -31l-26 -66q-20 18 -58.5 31t-85.5 13q-77 0 -130 -46t-78 -127h296l-15 -61h-294q-2 -17 -4.5 -34.5t-2.5 -41.5h264l-16 -61h-245q14 -83 62.5 -127.5t123.5 -44.5q53 0 93.5 14t63.5 34l-5 -79 q-29 -14 -71 -24.5t-92 -10.5q-47 0 -89.5 15t-76 45t-57 74.5t-31.5 103.5h-89l16 61h69q0 19 2 37.5t5 38.5h-82z" />
<glyph d="M418 175h100l-11 -52h-102l-34 -147h-63l34 147h-100l-34 -147h-63l34 147h-84l11 52h86l30 128h-94l11 53h96l33 145h63l-33 -145h98l35 145h63l-33 -145h89l-9 -53h-93zM385 303h-100l-30 -128h100z" />
<glyph d="M393 751l-12 -103q30 -2 56.5 -13t46 -27t31.5 -35t15 -36l-66 -35q-6 29 -27.5 52.5t-63.5 30.5l-27 -230q33 -10 61.5 -24t49.5 -34t33 -46.5t12 -61.5q0 -38 -14.5 -71t-40.5 -58t-63 -41t-82 -20l-13 -101h-62l13 101q-36 1 -67 11.5t-54 26.5t-37.5 36.5t-18.5 43.5 l66 37q9 -35 38.5 -61.5t79.5 -31.5l28 243q-31 10 -58 25t-46.5 35.5t-30.5 47t-11 61.5q0 39 14 71.5t39.5 56.5t60 37t76.5 13l12 100h62zM427 176q0 45 -27 68.5t-65 37.5l-26 -221q53 5 85.5 34.5t32.5 80.5zM202 482q0 -42 24.5 -67.5t58.5 -39.5l26 214 q-60 -2 -84.5 -33.5t-24.5 -73.5z" />
<glyph d="M277 272q14 -21 20 -46t6 -48q0 -26 -6 -49t-21 -51q19 -8 47 -16t53 -8q41 0 55 22t14 54h79q0 -24 -7.5 -49t-24.5 -45.5t-45 -34t-69 -13.5q-40 0 -73.5 15t-56.5 29q-21 -17 -48.5 -30.5t-62.5 -13.5q-44 0 -69 18t-25 49q0 18 7.5 31.5t19 22.5t26 13.5t28.5 4.5 q29 0 56 -8.5t50 -21.5q11 22 11 49q0 32 -13 65t-27 61h-117l7 61h83q-11 24 -24.5 60.5t-13.5 81.5q0 37 14 70.5t41.5 59.5t68 42t94.5 16q80 0 127 -28t68 -67l-64 -44q-12 32 -46.5 54.5t-91.5 22.5q-63 0 -98 -37.5t-35 -106.5q0 -23 5.5 -45.5t13.5 -39.5 q8 -20 19 -39h181l-7 -61h-149zM136 36q20 0 36 3t28 14q-16 11 -32 16t-30 5q-11 0 -20 -5t-9 -16q0 -17 27 -17z" />
<glyph d="M102 400h100l-106 251h69l144 -338l235 338h65l-169 -251h104l-8 -61h-137l-52 -76h180l-8 -61h-184l-24 -202h-79l24 202h-179l8 61h174l-31 76h-134z" />
<glyph d="M87 424h79q18 58 48.5 102.5t69.5 75t85 46t95 15.5q57 0 97.5 -13t62.5 -31l-26 -66q-20 18 -58.5 31t-85.5 13q-77 0 -130 -46t-78 -127h296l-15 -61h-294q-2 -17 -4.5 -34.5t-2.5 -41.5h264l-16 -61h-245q14 -83 62.5 -127.5t123.5 -44.5q53 0 93.5 14t63.5 34l-5 -79 q-29 -14 -71 -24.5t-92 -10.5q-47 0 -89.5 15t-76 45t-57 74.5t-31.5 103.5h-89l16 61h69q0 19 2 37.5t5 38.5h-82z" />
<glyph horiz-adv-x="650" d="M194 57q8 -18 22 -31q12 -12 31.5 -21.5t49.5 -9.5q55 0 85 20t30 52q0 27 -18 44t-45 29.5t-58.5 23.5t-58.5 27t-45 39.5t-18 61.5q0 22 7.5 41.5t18.5 35.5t25 29t28 23q-41 32 -41 96q0 25 10.5 51t33 47t57 34.5t81.5 13.5q49 0 80.5 -13.5t49.5 -30.5 q21 -19 32 -44l-69 -37q-8 17 -20 31q-11 11 -29 21t-47 10q-49 0 -75.5 -21t-26.5 -56q0 -26 17.5 -42t43.5 -28t56 -23t56 -27t43.5 -39.5t17.5 -60.5q0 -22 -7 -41t-18 -34.5t-24.5 -28.5t-26.5 -23q22 -17 34 -39.5t12 -57.5q0 -24 -11.5 -50t-35 -47.5t-59.5 -35.5 t-85 -14q-50 0 -83 13.5t-53 30.5q-24 19 -36 44zM439 281q0 25 -13 42t-34 30t-46.5 23t-50.5 22q-15 -16 -31.5 -40t-16.5 -51q0 -23 13 -38.5t34 -27.5t47 -21.5t51 -20.5q14 15 30.5 36.5t16.5 45.5z" />
<glyph d="M336 549q106 0 160.5 -65.5t54.5 -181.5q0 -71 -19.5 -128.5t-53.5 -99t-79 -64t-96 -22.5q-107 0 -166 65t-59 180q0 74 20.5 133t55.5 99.5t82 62t100 21.5zM300 51q40 0 71.5 18t54 51t34.5 80t12 105q0 85 -35 133t-102 48q-39 0 -72 -17.5t-56.5 -50.5t-37 -80 t-13.5 -106q0 -83 39 -132t105 -49z" />
<glyph d="M152 62h134l46 372q-12 -4 -26.5 -8t-30 -7t-31 -5t-27.5 -2v60q51 1 93 19.5t69 45.5h41l-58 -475h121l-7 -62h-331z" />
<glyph d="M345 549q39 0 73 -11.5t59 -32.5t39.5 -51.5t14.5 -68.5q0 -53 -28 -100.5t-72 -88t-98 -73.5t-105 -58h289l-8 -65h-405l7 54q69 34 131 71t109.5 77.5t75 85t27.5 92.5q0 50 -29.5 79t-84.5 29q-65 0 -97.5 -38t-32.5 -98q0 -9 1 -19.5t3 -20.5l-63 16q-7 21 -7 46 q0 34 14.5 66t40.5 56t63.5 38.5t82.5 14.5z" />
<glyph d="M454 383q0 42 -28 74t-86 32q-30 0 -53.5 -9.5t-40.5 -24.5t-27.5 -33.5t-16.5 -37.5l-49 43q6 21 21.5 43t40 39.5t58.5 28.5t76 11q45 0 79.5 -13t57 -34t34 -48.5t11.5 -57.5q0 -33 -14 -60t-36 -48.5t-48.5 -36.5t-50.5 -23q27 -7 50.5 -21t41.5 -35t28.5 -48 t10.5 -59q0 -45 -17.5 -82.5t-49 -64.5t-74 -42t-93.5 -15q-40 0 -73 9t-58 23.5t-41 33t-23 37.5l52 60q11 -45 50 -73t99 -28q39 0 67 12t46 32t27 45.5t9 51.5q0 24 -7.5 46.5t-24 40t-42.5 28t-63 10.5q-5 0 -16 -0.5t-24 -1t-26.5 -2t-23.5 -3.5l11 71q3 0 10 -0.5 t16 -1t17.5 -0.5h14.5q48 0 81.5 11t55 29.5t31.5 42.5t10 49z" />
<glyph d="M550 43h-87l-20 -162h-76l20 162h-321l-15 49l40 49l327 396h104l-51 -433h87zM395 104l46 363l-300 -363h254z" />
<glyph d="M307 302q39 0 74.5 -14t61.5 -40.5t41.5 -64t15.5 -83.5q0 -57 -20 -101t-54 -75t-80 -47t-98 -16q-54 0 -91.5 15t-60.5 33q-27 21 -45 48l46 63q14 -28 36 -49q19 -19 48.5 -34t72.5 -15q36 0 67 12.5t53 34.5t34.5 51.5t12.5 63.5q0 72 -33 114.5t-99 42.5 q-27 0 -48 -6t-36 -14q-18 -9 -30 -20l-64 28l81 308h330l-8 -66h-267l-52 -197q11 8 28 14q14 5 35 9.5t49 4.5z" />
<glyph d="M295 -12q-59 0 -100.5 21t-67.5 57.5t-38 84.5t-12 102q0 62 16 134t51 133.5t91.5 102t136.5 40.5q53 0 85.5 -13t50.5 -29q21 -18 31 -42l-52 -52q-11 32 -42 53.5t-77 21.5q-53 0 -92.5 -27.5t-65.5 -70t-39 -92.5t-13 -96q4 7 16.5 24.5t33.5 35.5t52 32t72 14 q46 0 82.5 -16.5t62 -44t39 -63t13.5 -72.5q0 -36 -13 -78t-41 -77t-72.5 -59t-107.5 -24zM298 50q66 0 108 42t42 122q0 65 -33 102.5t-103 37.5q-39 0 -68 -12t-48 -33t-28.5 -49t-9.5 -60q0 -30 8.5 -57t26 -48t43.5 -33t62 -12z" />
<glyph d="M529 537l-7 -52q-64 -82 -119 -180q-24 -42 -48 -91.5t-45.5 -105t-39.5 -116t-28 -119.5h-73q10 60 27 120.5t37 115t43 102.5t45 89q52 94 111 172h-342l8 65h431z" />
<glyph d="M293 -12q-49 0 -89 12.5t-68.5 35.5t-44 55.5t-15.5 73.5q0 36 11 63t28 48t36.5 34.5t36.5 22t28.5 12.5l11.5 4q-23 11 -41 29q-16 16 -28.5 40t-12.5 60q0 40 16 74.5t43 59t63.5 38t77.5 13.5q45 0 82 -11.5t62.5 -32t39.5 -49.5t14 -62q0 -45 -18 -75t-40.5 -48.5 t-42 -26.5t-22.5 -9q31 -13 56 -35q21 -19 39 -49t18 -73q0 -51 -19.5 -88.5t-53 -63.5t-77 -39t-91.5 -13zM220 489q0 -53 30.5 -83.5t85.5 -30.5q27 0 50.5 8.5t41.5 24.5t28.5 38.5t10.5 49.5q0 50 -34 78.5t-90 28.5q-25 0 -47.5 -8t-39 -23t-26.5 -36t-10 -47zM155 173 q0 -55 37 -89.5t103 -34.5q33 0 62.5 10t51 28.5t34.5 44.5t13 59q0 58 -40 91t-101 33q-32 0 -61 -9t-51 -27.5t-35 -44.5t-13 -61z" />
<glyph d="M332 549q58 0 100 -19.5t70 -54.5t41.5 -84.5t13.5 -108.5q0 -37 -5 -82.5t-17 -92.5t-33.5 -91.5t-54 -78.5t-78 -55t-106.5 -21q-59 0 -94 14.5t-55 31.5q-23 20 -32 47l47 54q11 -25 30 -43q17 -17 44 -30t69 -13q58 0 95.5 28.5t60 70t33 88t14.5 81.5 q-5 -8 -17 -23.5t-32.5 -31.5t-49 -27.5t-65.5 -11.5q-51 0 -90.5 17.5t-66.5 46.5t-40.5 67t-13.5 80q0 36 11 78.5t38 79t71.5 60.5t111.5 24zM328 487q-66 0 -106.5 -43t-40.5 -123q0 -71 34 -113.5t104 -42.5q39 0 68 14t47.5 37t27.5 53t9 62t-9 61t-27 49.5t-44.5 33 t-62.5 12.5z" />
<glyph d="M418 175h100l-11 -52h-102l-34 -147h-63l34 147h-100l-34 -147h-63l34 147h-84l11 52h86l30 128h-94l11 53h96l33 145h63l-33 -145h98l35 145h63l-33 -145h89l-9 -53h-93zM385 303h-100l-30 -128h100z" />
<glyph d="M393 751l-12 -103q30 -2 56.5 -13t46 -27t31.5 -35t15 -36l-66 -35q-6 29 -27.5 52.5t-63.5 30.5l-27 -230q33 -10 61.5 -24t49.5 -34t33 -46.5t12 -61.5q0 -38 -14.5 -71t-40.5 -58t-63 -41t-82 -20l-13 -101h-62l13 101q-36 1 -67 11.5t-54 26.5t-37.5 36.5t-18.5 43.5 l66 37q9 -35 38.5 -61.5t79.5 -31.5l28 243q-31 10 -58 25t-46.5 35.5t-30.5 47t-11 61.5q0 39 14 71.5t39.5 56.5t60 37t76.5 13l12 100h62zM427 176q0 45 -27 68.5t-65 37.5l-26 -221q53 5 85.5 34.5t32.5 80.5zM202 482q0 -42 24.5 -67.5t58.5 -39.5l26 214 q-60 -2 -84.5 -33.5t-24.5 -73.5z" />
<glyph d="M277 272q14 -21 20 -46t6 -48q0 -26 -6 -49t-21 -51q19 -8 47 -16t53 -8q41 0 55 22t14 54h79q0 -24 -7.5 -49t-24.5 -45.5t-45 -34t-69 -13.5q-40 0 -73.5 15t-56.5 29q-21 -17 -48.5 -30.5t-62.5 -13.5q-44 0 -69 18t-25 49q0 18 7.5 31.5t19 22.5t26 13.5t28.5 4.5 q29 0 56 -8.5t50 -21.5q11 22 11 49q0 32 -13 65t-27 61h-117l7 61h83q-11 24 -24.5 60.5t-13.5 81.5q0 37 14 70.5t41.5 59.5t68 42t94.5 16q80 0 127 -28t68 -67l-64 -44q-12 32 -46.5 54.5t-91.5 22.5q-63 0 -98 -37.5t-35 -106.5q0 -23 5.5 -45.5t13.5 -39.5 q8 -20 19 -39h181l-7 -61h-149zM136 36q20 0 36 3t28 14q-16 11 -32 16t-30 5q-11 0 -20 -5t-9 -16q0 -17 27 -17z" />
<glyph d="M102 400h100l-106 251h69l144 -338l235 338h65l-169 -251h104l-8 -61h-137l-52 -76h180l-8 -61h-184l-24 -202h-79l24 202h-179l8 61h174l-31 76h-134z" />
<glyph d="M87 424h79q18 58 48.5 102.5t69.5 75t85 46t95 15.5q57 0 97.5 -13t62.5 -31l-26 -66q-20 18 -58.5 31t-85.5 13q-77 0 -130 -46t-78 -127h296l-15 -61h-294q-2 -17 -4.5 -34.5t-2.5 -41.5h264l-16 -61h-245q14 -83 62.5 -127.5t123.5 -44.5q53 0 93.5 14t63.5 34l-5 -79 q-29 -14 -71 -24.5t-92 -10.5q-47 0 -89.5 15t-76 45t-57 74.5t-31.5 103.5h-89l16 61h69q0 19 2 37.5t5 38.5h-82z" />
<glyph d="M169 57q8 -18 22 -31q12 -12 31.5 -21.5t49.5 -9.5q55 0 85 20t30 52q0 27 -18 44t-45 29.5t-58.5 23.5t-58.5 27t-45 39.5t-18 61.5q0 22 7.5 41.5t18.5 35.5t25 29t28 23q-41 32 -41 96q0 25 10.5 51t33 47t57 34.5t81.5 13.5q49 0 80.5 -13.5t49.5 -30.5 q21 -19 32 -44l-69 -37q-8 17 -20 31q-11 11 -29 21t-47 10q-49 0 -75.5 -21t-26.5 -56q0 -26 17.5 -42t43.5 -28t56 -23t56 -27t43.5 -39.5t17.5 -60.5q0 -22 -7 -41t-18 -34.5t-24.5 -28.5t-26.5 -23q22 -17 34 -39.5t12 -57.5q0 -24 -11.5 -50t-35 -47.5t-59.5 -35.5 t-85 -14q-50 0 -83 13.5t-53 30.5q-24 19 -36 44zM414 281q0 25 -13 42t-34 30t-46.5 23t-50.5 22q-15 -16 -31.5 -40t-16.5 -51q0 -23 13 -38.5t34 -27.5t47 -21.5t51 -20.5q14 15 30.5 36.5t16.5 45.5z" />
<glyph horiz-adv-x="1" d="M-196 798l-41 -41l-145 146l41 41z" />
<glyph horiz-adv-x="1" d="M-217 944l41 -41l-145 -146l-41 41z" />
<glyph horiz-adv-x="1" d="M-468 757l175 160h62l142 -160h-82l-96 116l-120 -116h-81z" />
</font>
</defs>
</svg>
