<?xml version="1.0" standalone="no"?>
<!DOCTYPE svg PUBLIC "-//W3C//DTD SVG 1.1//EN" "http://www.w3.org/Graphics/SVG/1.1/DTD/svg11.dtd" >
<svg xmlns="http://www.w3.org/2000/svg">
<metadata></metadata>
<defs>
<font id="aften_screenbold" horiz-adv-x="300" >
<font-face units-per-em="1000" ascent="700" descent="-300" />
<missing-glyph horiz-adv-x="250" />
<glyph unicode=" "  horiz-adv-x="250" />
<glyph unicode="&#x09;" horiz-adv-x="250" />
<glyph unicode="&#xa0;" horiz-adv-x="250" />
<glyph unicode="!" horiz-adv-x="250" d="M58 216v435h130v-435h-130zM200 71q0 -37 -22.5 -59t-54.5 -22q-29 0 -51 22t-22 59q0 35 22 56.5t51 21.5q32 0 54.5 -21.5t22.5 -56.5z" />
<glyph unicode="&#x22;" horiz-adv-x="420" d="M69 660h111v-285h-111v285zM239 660h111v-285h-111v285z" />
<glyph unicode="#" horiz-adv-x="503" d="M370 175h95l-15 -86h-97l-19 -113h-93l19 113h-90l-19 -113h-93l19 113h-74l15 86h76l17 95h-84l15 86h86l25 145h93l-25 -145h88l27 145h93l-25 -145h86l-15 -86h-88zM294 270h-90l-17 -95h90z" />
<glyph unicode="$" horiz-adv-x="584" d="M275 -102v102q-40 0 -77 9t-68 24t-54.5 35.5t-35.5 43.5l88 79q21 -35 56 -60t91 -27v172q-41 11 -77.5 26t-64.5 36t-44.5 49.5t-16.5 67.5q0 34 14 67.5t40 60.5t63.5 45t85.5 21v102h63v-102q73 -2 123 -30.5t73 -66.5l-89 -69q-17 23 -43 41.5t-64 19.5v-164 q43 -11 80 -26t64 -35.5t42 -48t15 -63.5q0 -38 -12 -72t-36.5 -61.5t-62.5 -46t-90 -25.5v-104h-63zM338 104q41 6 57 27.5t16 47.5q0 11 -3.5 23.5t-11.5 23.5t-22.5 20.5t-35.5 14.5v-157zM198 474q0 -32 19.5 -49.5t57.5 -29.5v151q-40 -4 -58.5 -23.5t-18.5 -48.5z" />
<glyph unicode="%" horiz-adv-x="934" d="M341 0h-111l367 651h111zM204 658q88 0 135.5 -55.5t47.5 -158.5t-47.5 -158.5t-135.5 -55.5t-136 55.5t-48 158.5t48 158.5t136 55.5zM204 312q42 0 62.5 35t20.5 97q0 61 -20.5 96.5t-62.5 35.5q-43 0 -63.5 -35.5t-20.5 -96.5q0 -62 20.5 -97t63.5 -35zM731 422 q88 0 135.5 -55.5t47.5 -158.5t-47.5 -158.5t-135.5 -55.5t-136 55.5t-48 158.5t48 158.5t136 55.5zM731 76q42 0 62.5 35t20.5 97q0 61 -20.5 96.5t-62.5 35.5q-43 0 -63.5 -35.5t-20.5 -96.5q0 -62 20.5 -97t63.5 -35z" />
<glyph unicode="&#x26;" horiz-adv-x="647" d="M610 299q0 -21 -5 -44t-14 -45t-22 -42.5t-29 -36.5q17 -18 31.5 -34t24.5 -28q11 -14 20 -25l-108 -56l-54 62q-9 -8 -25 -18.5t-37.5 -20t-48.5 -16.5t-57 -7q-56 0 -102 13t-79 37.5t-51 61t-18 84.5q0 40 14.5 70.5t37 53t48.5 37.5t50 23q-34 31 -50.5 67.5 t-16.5 71.5q0 31 12 59t35.5 49.5t58.5 34.5t80 13q48 0 83 -12.5t58 -34t34 -49.5t11 -59q0 -38 -14 -66t-35 -48t-45.5 -33t-45.5 -22l114 -133q15 19 21 43t6 50h118zM286 98q30 0 53.5 9.5t41.5 26.5l-136 155q-29 -10 -51.5 -35t-22.5 -66q0 -40 31 -65t84 -25z M238 513q0 -29 13 -51.5t36 -44.5q15 5 30 12t27 18t20 26.5t8 36.5q0 27 -20 43.5t-45 16.5q-24 0 -46.5 -14t-22.5 -43z" />
<glyph unicode="'" horiz-adv-x="250" d="M69 660h111v-285h-111v285z" />
<glyph unicode="(" d="M45 245q0 103 20.5 183.5t45.5 137.5q29 66 66 115h102q-34 -58 -60 -128q-23 -60 -41.5 -138.5t-18.5 -169.5t18.5 -169.5t41.5 -138.5q26 -70 60 -127h-102q-37 49 -66 115q-25 57 -45.5 137t-20.5 183z" />
<glyph unicode=")" d="M255 246q0 -103 -20.5 -183.5t-45.5 -137.5q-29 -66 -66 -115h-102q34 58 60 128q23 60 41.5 138.5t18.5 169.5t-18.5 169.5t-41.5 138.5q-26 70 -60 127h102q37 -49 66 -115q25 -57 45.5 -137t20.5 -183z" />
<glyph unicode="*" horiz-adv-x="440" d="M164 681h112l-4 -104l98 38l35 -107l-100 -29l64 -83l-91 -66l-58 88l-58 -88l-91 66l64 83l-100 29l35 107l98 -38z" />
<glyph unicode="+" horiz-adv-x="510" d="M60 277h140v140h110v-140h140v-102h-140v-140h-110v140h-140v102z" />
<glyph unicode="," horiz-adv-x="250" d="M84 106h111v-107q0 -51 -22 -83.5t-54 -46.5l-84 41q20 8 34.5 29.5t14.5 59.5v107z" />
<glyph unicode="-" horiz-adv-x="340" d="M30 295h280v-115h-280v115z" />
<glyph unicode="." horiz-adv-x="250" d="M200 71q0 -37 -22 -59t-54 -22q-29 0 -51.5 22t-22.5 59q0 35 22.5 56.5t51.5 21.5q32 0 54 -21.5t22 -56.5z" />
<glyph unicode="/" horiz-adv-x="425" d="M105 -190h-108l322 871h108z" />
<glyph unicode="0" horiz-adv-x="580" d="M290 549q57 0 106.5 -18.5t85.5 -53.5t57 -87.5t21 -119.5q0 -68 -21 -120.5t-57 -88.5t-85.5 -54.5t-106.5 -18.5t-106.5 18.5t-85.5 54.5t-57 88.5t-21 120.5t21 120.5t57 87.5t85.5 53t106.5 18zM290 98q57 0 93.5 43.5t36.5 128.5q0 83 -36.5 126t-93.5 43 q-58 0 -94 -43t-36 -126q0 -85 36 -128.5t94 -43.5z" />
<glyph unicode="1" horiz-adv-x="471" d="M50 102h130v292q-22 -7 -45 -11q-20 -5 -43 -8t-45 -4l-18 99q27 0 56 5.5t55 14.5t47 21t32 26h101v-435h121v-102h-391v102z" />
<glyph unicode="2" horiz-adv-x="533" d="M50 382q0 33 14 63t40.5 53.5t66 37t90.5 13.5q43 0 83 -10.5t70.5 -33t48.5 -56.5t18 -81q0 -30 -10.5 -56.5t-28 -50.5t-40 -44.5t-45.5 -37.5q-55 -40 -124 -72h260v-107h-446v93q83 40 149 86q28 19 54.5 41t47.5 46t34 49t13 50q0 36 -21.5 60.5t-69.5 24.5 q-20 0 -35 -7t-25.5 -19t-16 -27.5t-5.5 -31.5q0 -22 5 -42q2 -11 5 -21l-119 20q-4 8 -7 18q-2 8 -4 19t-2 23z" />
<glyph unicode="3" horiz-adv-x="527" d="M351 369q0 28 -22.5 52t-71.5 24q-32 0 -54 -11.5t-36 -25.5q-17 -17 -27 -37l-83 77q27 43 77 72t132 29q56 0 98 -13t69.5 -35.5t41 -53t13.5 -66.5q0 -45 -22.5 -73.5t-49.5 -46.5q-32 -21 -72 -33q48 -10 86 -31q16 -9 31.5 -21.5t27.5 -30t19.5 -39t7.5 -48.5 q0 -43 -18 -79t-51.5 -62.5t-80.5 -41.5t-105 -15q-86 0 -144.5 28.5t-89.5 65.5l66 89q23 -29 62.5 -52t102.5 -23q27 0 48.5 8t36 20.5t22 28.5t7.5 33q0 21 -6.5 40t-22.5 33.5t-41.5 23t-63.5 8.5q-17 0 -35 -1.5t-32 -3.5q-18 -3 -33 -5l5 112q5 -1 11 -1h24 q92 0 132.5 29t40.5 76z" />
<glyph unicode="4" horiz-adv-x="620" d="M580 23h-87v-126h-127v126h-314l-22 89l33 47l267 378h163v-413h87v-101zM366 124v275l-189 -275h189z" />
<glyph unicode="5" horiz-adv-x="588" d="M324 306q42 0 82 -13t71.5 -39t50.5 -65.5t19 -92.5t-20 -96.5t-56.5 -74.5t-87.5 -48t-113 -17q-60 0 -102.5 13t-71.5 30q-33 19 -56 44l82 82q19 -19 43 -34q20 -13 48 -23t62 -10q32 0 56.5 10t40.5 27.5t24 40t8 46.5q0 59 -32.5 89.5t-98.5 30.5q-29 0 -52.5 -8.5 t-40.5 -19.5q-19 -12 -35 -27l-70 48l43 338h392v-105h-282l-18 -142q12 4 30 8q15 3 36 5.5t48 2.5z" />
<glyph unicode="6" horiz-adv-x="610" d="M358 420q54 0 94.5 -16.5t67.5 -44.5t40 -65t13 -80q0 -29 -11.5 -68.5t-40 -74t-78.5 -59t-126 -24.5q-81 0 -133.5 25.5t-83 68.5t-42 100.5t-11.5 120.5q0 33 5 73.5t17.5 80.5t34.5 77t56 66t81 46t110 17q53 0 92.5 -13.5t66.5 -29.5q32 -19 54 -43l-76 -94 q-16 19 -37 34q-19 13 -46 24t-63 11q-53 0 -83 -21.5t-46 -54t-21 -72.5t-6 -77l10.5 15t32 32t54 31.5t75.5 14.5zM311 90q61 0 91.5 32t30.5 80q0 51 -30.5 83t-91.5 32q-26 0 -48 -9t-39 -24.5t-26.5 -35.5t-9.5 -42q0 -24 9 -45t25 -37t39 -25t50 -9z" />
<glyph unicode="7" horiz-adv-x="531" d="M506 537v-92q-53 -76 -96 -167q-18 -39 -36.5 -84.5t-33.5 -97t-25 -108t-13 -116.5h-140q4 122 36 223.5t69 175.5q43 86 97 156h-349v110h491z" />
<glyph unicode="8" horiz-adv-x="567" d="M414 349q37 -14 67 -37q26 -20 47 -51.5t21 -76.5q0 -48 -19.5 -84t-54 -61t-82.5 -38t-104 -13q-59 0 -108.5 13.5t-85.5 38.5t-56.5 60.5t-20.5 80.5q0 46 20.5 78.5t45.5 52.5q29 23 67 37q-29 12 -51 32q-19 18 -34.5 45t-15.5 66q0 36 17.5 67.5t48.5 54.5t74.5 36 t94.5 13q50 0 93.5 -12t75 -34.5t49.5 -53t18 -67.5q0 -43 -17 -70t-37 -45q-24 -20 -53 -32zM186 479q0 -39 24.5 -61.5t73.5 -22.5t74 22.5t25 61.5t-25 61.5t-74 22.5t-73.5 -22.5t-24.5 -61.5zM158 191q0 -47 32.5 -74.5t92.5 -27.5t93 27.5t33 74.5q0 49 -33 76.5 t-93 27.5t-92.5 -27.5t-32.5 -76.5z" />
<glyph unicode="9" horiz-adv-x="596" d="M292 536q81 0 133.5 -26.5t83 -71t42 -103.5t11.5 -124q0 -54 -12 -117t-44.5 -118t-89.5 -91.5t-148 -36.5q-59 0 -100.5 12t-67.5 26q-31 17 -50 39l76 94q18 -20 41 -35q20 -14 47 -24.5t60 -10.5q52 0 81.5 22t44 56t18 75t5.5 79l-9.5 -17t-30 -37.5t-53.5 -37 t-79 -16.5q-54 0 -94.5 18.5t-67.5 50t-40 73t-13 87.5q0 30 11.5 70.5t40 76.5t78 61.5t126.5 25.5zM298 181q25 0 47.5 9.5t39.5 26t26.5 39t9.5 48.5t-9 49.5t-25 41.5t-39 28.5t-50 10.5q-30 0 -53 -10t-38.5 -27.5t-23 -40.5t-7.5 -49t7.5 -49t23 -40t38.5 -27t53 -10z " />
<glyph unicode=":" horiz-adv-x="250" d="M200 384q0 -37 -22 -59t-54 -22q-29 0 -51.5 22t-22.5 59q0 35 22.5 56.5t51.5 21.5q32 0 54 -21.5t22 -56.5zM200 71q0 -37 -22 -59t-54 -22q-29 0 -51.5 22t-22.5 59q0 35 22.5 56.5t51.5 21.5q32 0 54 -21.5t22 -56.5z" />
<glyph unicode=";" horiz-adv-x="250" d="M75 106h111v-107q0 -51 -22 -83.5t-54 -46.5l-84 41q20 8 34.5 29.5t14.5 59.5v107zM200 384q0 -37 -22 -59t-54 -22q-29 0 -51.5 22t-22.5 59q0 35 22.5 56.5t51.5 21.5q32 0 54 -21.5t22 -56.5z" />
<glyph unicode="&#x3c;" horiz-adv-x="510" d="M313 1l-230 230l230 230l72 -72l-158 -158l158 -158z" />
<glyph unicode="=" horiz-adv-x="510" d="M450 362v-102h-390v102h390zM450 183v-102h-390v102h390z" />
<glyph unicode="&#x3e;" horiz-adv-x="510" d="M105 67l158 158l-158 158l72 72l230 -230l-230 -230z" />
<glyph unicode="?" horiz-adv-x="450" d="M15 569q12 21 33.5 38t49 29.5t60 19.5t66.5 7q49 0 87 -15t64.5 -42t40.5 -64t14 -80q0 -78 -45 -123.5t-126 -54.5v-85h-130v163q27 2 57.5 6t57 14t43.5 28t17 48q0 15 -5.5 30t-16.5 27t-29 19.5t-42 7.5q-23 0 -42.5 -7t-36 -18.5t-28.5 -25.5t-19 -29zM271 71 q0 -37 -22.5 -59t-54.5 -22q-29 0 -51 22t-22 59q0 35 22 56.5t51 21.5q32 0 54.5 -21.5t22.5 -56.5z" />
<glyph unicode="@" horiz-adv-x="900" d="M656 -137q-14 -8 -35 -15.5t-46 -13.5t-53 -9.5t-56 -3.5q-90 0 -165.5 28.5t-130 80.5t-85 125t-30.5 162q0 77 28 148.5t81 126t129.5 87t173.5 32.5q102 0 176 -31.5t122.5 -82t71.5 -113t23 -124.5q0 -53 -14 -96.5t-40 -74.5t-62 -48t-80 -17q-45 0 -74 24t-39 63 h-4q-8 -38 -44.5 -62.5t-88.5 -24.5q-38 0 -68.5 14t-52 39.5t-33 60.5t-11.5 76t11.5 76.5t32.5 61t51 40t67 14.5q44 0 75.5 -18.5t48.5 -44.5l4 2q0 14 1 29t3 21h99q-2 -20 -3 -43t-1 -37v-117q0 -43 13.5 -62.5t31.5 -19.5q42 0 58 35.5t16 99.5q0 45 -14.5 92.5 t-48.5 86.5t-89 64.5t-137 25.5t-140.5 -27.5t-95.5 -70t-54.5 -95t-17.5 -103.5q0 -74 22 -130.5t61.5 -95t94 -58t118.5 -19.5q23 0 47 3t46 8.5t41 13t32 15.5zM433 132q29 0 48 21t19 62t-19 62t-48 21q-30 0 -49.5 -21t-19.5 -62t19.5 -62t49.5 -21z" />
<glyph unicode="A" horiz-adv-x="642" d="M5 0l221 651h170l241 -651h-148l-41 118h-262l-36 -118h-145zM218 240h194l-103 294z" />
<glyph unicode="B" horiz-adv-x="644" d="M467 352q38 -10 68 -30q26 -17 47.5 -48.5t21.5 -82.5q0 -86 -66 -138.5t-193 -52.5h-275v651h292q49 0 89.5 -10.5t69 -30.5t44 -49.5t15.5 -67.5q0 -42 -18 -67.5t-39 -41.5q-25 -18 -56 -28v-4zM213 391h128q89 0 89 74q0 33 -21 51.5t-72 18.5h-124v-144zM349 119 q55 0 80 21t25 61t-24 58.5t-78 18.5h-139v-159h136z" />
<glyph unicode="C" horiz-adv-x="675" d="M516 449q-17 35 -55.5 60.5t-104.5 25.5q-86 0 -126 -55.5t-40 -150.5q0 -99 44 -156t128 -57q66 0 104.5 27.5t54.5 65.5l123 -67q-36 -70 -107 -112t-180 -42q-70 0 -129 23t-101.5 66.5t-66.5 106t-24 141.5q0 80 24.5 143t68 106.5t102.5 66t128 22.5q56 0 101.5 -12 t80 -31t57 -43t33.5 -47z" />
<glyph unicode="D" horiz-adv-x="695" d="M70 0v651h268q153 0 237.5 -84t84.5 -242q0 -156 -84.5 -240.5t-237.5 -84.5h-268zM328 123q89 0 135.5 48t46.5 154q0 107 -46.5 155t-135.5 48h-111v-405h111z" />
<glyph unicode="E" horiz-adv-x="595" d="M220 528v-140h288v-121h-288v-144h320v-123h-470v651h460v-123h-310z" />
<glyph unicode="F" horiz-adv-x="555" d="M220 527v-156h271v-123h-271v-248h-150v651h445v-124h-295z" />
<glyph unicode="G" horiz-adv-x="690" d="M501 246h-147v120h281v-366h-103l-12 87h-4q-5 -12 -17 -28.5t-33 -32.5t-51.5 -27t-72.5 -11q-62 0 -117.5 23.5t-97.5 67.5t-66.5 107t-24.5 142t24.5 141t68 105t103 66t129.5 23q43 0 78.5 -5t66 -16.5t56.5 -29.5t52 -44l-89 -98q-28 35 -69 55.5t-101 20.5 q-43 0 -75 -16t-53 -45t-31.5 -68.5t-10.5 -86.5q0 -50 11.5 -90.5t34.5 -69.5t57.5 -45t81.5 -16q36 0 61 9t40.5 23t22.5 31t7 33v41z" />
<glyph unicode="H" horiz-adv-x="716" d="M646 651v-651h-150v263h-276v-263h-150v651h150v-263h276v263h150z" />
<glyph unicode="I" horiz-adv-x="290" d="M70 0v651h150v-651h-150z" />
<glyph unicode="J" horiz-adv-x="499" d="M434 651v-441q0 -105 -53.5 -163.5t-163.5 -58.5q-64 0 -105 15.5t-65 35.5q-28 22 -42 51l84 107q11 -24 27 -42q14 -16 34.5 -29t49.5 -13q41 0 62.5 18.5t21.5 68.5v451h150z" />
<glyph unicode="K" horiz-adv-x="652" d="M220 344l241 307h164l-236 -276l243 -375h-162l-181 296l-69 -79v-217h-150v651h150v-307z" />
<glyph unicode="L" horiz-adv-x="525" d="M220 651v-526h285v-125h-435v651h150z" />
<glyph unicode="M" horiz-adv-x="852" d="M373 80l-195 440q6 -68 10 -137.5t6 -136.5t3 -129.5t1 -116.5h-128v651h180l182 -431l175 431h175v-651h-128q0 54 1 116.5t3 129.5t6 136.5t10 137.5l-188 -440h-113z" />
<glyph unicode="N" horiz-adv-x="726" d="M190 0h-120v651h132l344 -485q-2 55 -4 123t-3.5 134.5t-2 126.5t-0.5 101h120v-651h-133l-343 473q2 -54 4 -120t3.5 -131t2 -123.5t0.5 -98.5z" />
<glyph unicode="O" horiz-adv-x="717" d="M681 326q0 -79 -24 -142t-67 -106.5t-102 -66.5t-129 -23t-129 23t-102 66.5t-67.5 106.5t-24.5 142q0 80 24.5 142.5t67.5 106t102 66t129 22.5t129 -22.5t102 -66t67 -106t24 -142.5zM530 326q0 106 -47.5 158t-123.5 52t-124 -52t-48 -158q0 -105 48 -158t124 -53 t123.5 53t47.5 158z" />
<glyph unicode="P" horiz-adv-x="600" d="M565 416q0 -54 -17 -97t-45 -73t-63.5 -46t-72.5 -16h-161v-184h-148v651h268q118 0 178.5 -62.5t60.5 -172.5zM206 305h96q60 0 86.5 30.5t26.5 85.5q0 56 -30.5 81.5t-88.5 25.5h-90v-223z" />
<glyph unicode="Q" horiz-adv-x="725" d="M681 326q0 -45 -13 -86.5t-34 -78t-49 -66.5t-58 -52q17 -23 43.5 -41.5t52.5 -32.5q29 -16 61 -29l-77 -100q-17 8 -41 27t-48 42.5t-45.5 47t-33.5 41.5q-19 -5 -39.5 -7.5t-40.5 -2.5q-70 0 -129 23t-102 66.5t-67.5 106.5t-24.5 142q0 80 24.5 142.5t67.5 106t102 66 t129 22.5t129 -22.5t102 -66t67 -106t24 -142.5zM530 326q0 106 -47.5 158t-123.5 52t-124 -52t-48 -158q0 -105 48 -158t124 -53t123.5 53t47.5 158z" />
<glyph unicode="R" horiz-adv-x="642" d="M459 0l-128 238h-115v-238h-146v651h284q63 0 108 -15t73.5 -41t42 -62t13.5 -79q0 -47 -14 -80.5t-35 -56.5t-44.5 -37t-42.5 -20l157 -260h-153zM216 352h114q66 0 89.5 24t23.5 66t-23 66t-82 24h-122v-180z" />
<glyph unicode="S" horiz-adv-x="592" d="M440 477q-22 29 -56.5 48.5t-88.5 19.5q-23 0 -39 -7t-26.5 -17.5t-15 -23t-4.5 -24.5q0 -18 11 -30.5t29.5 -22.5t43.5 -18t53 -15q40 -11 76.5 -25t64.5 -35t44.5 -52t16.5 -76q0 -44 -17.5 -82t-50 -67t-79.5 -45.5t-107 -16.5q-51 0 -91.5 9.5t-72 26t-54 38.5 t-38.5 48l104 89q23 -38 63.5 -65t100.5 -27q42 0 70 17t28 51q0 21 -7.5 34.5t-23 22.5t-39 16.5t-54.5 16.5q-39 11 -77.5 26t-69 37.5t-49.5 54.5t-19 77q0 44 17.5 81t50 64t77.5 42.5t100 15.5q87 0 141 -31t81 -74z" />
<glyph unicode="T" horiz-adv-x="567" d="M15 651h537v-125h-193v-526h-150v526h-194v125z" />
<glyph unicode="U" horiz-adv-x="680" d="M338 -12q-130 0 -201.5 64t-71.5 178v421h150v-400q0 -38 10 -64t27 -42t39.5 -23t48.5 -7t48.5 7t39.5 23t27 42t10 64v400h150v-421q0 -54 -19 -99t-55 -76.5t-87.5 -49t-115.5 -17.5z" />
<glyph unicode="V" horiz-adv-x="627" d="M612 651l-218 -651h-166l-213 651h140l158 -514l154 514h145z" />
<glyph unicode="W" horiz-adv-x="952" d="M189 0l-174 651h139l116 -527l134 527h147l138 -527l112 527h136l-170 -651h-155l-136 535l-132 -535h-155z" />
<glyph unicode="X" horiz-adv-x="656" d="M179 0h-154l212 328l-209 323h157l142 -241l144 241h153l-208 -319l215 -332h-158l-148 246z" />
<glyph unicode="Y" horiz-adv-x="616" d="M10 651h152l148 -282l147 282h149l-222 -387v-264h-151v264z" />
<glyph unicode="Z" horiz-adv-x="565" d="M522 543l-34 -43l-297 -375h334v-125h-500v108l37 47l296 371h-323v125h487v-108z" />
<glyph unicode="[" d="M50 681h219v-74h-108v-723h108v-74h-219v871z" />
<glyph unicode="\" horiz-adv-x="425" d="M318.007 -190h107.993l-321.98 871h-107.993z" />
<glyph unicode="]" d="M250 -190h-219v74h108v723h-108v74h219v-871z" />
<glyph unicode="^" horiz-adv-x="510" d="M29 471l224 224l224 -224l-72 -72l-152 152l-152 -152z" />
<glyph unicode="_" horiz-adv-x="460" d="M0 -46h460v-90h-460v90z" />
<glyph unicode="`" d="M255 637l-71 -71l-165 166l71 71z" />
<glyph unicode="a" horiz-adv-x="555" d="M511 105q11 0 19 3v-90q-13 -10 -33.5 -17t-49.5 -7q-44 0 -64 24t-23 59h-4q-14 -37 -50.5 -63t-93.5 -26q-80 0 -124.5 40.5t-44.5 104.5q0 37 16.5 61t43 39t58.5 22.5t63 11.5l122 16v11q0 42 -27.5 59.5t-74.5 17.5t-79.5 -17.5t-49.5 -42.5l-54 85q11 12 28.5 26 t42.5 25t58.5 18.5t76.5 7.5q99 0 155 -42t56 -134v-37t0.5 -44t0.5 -41v-29q0 -41 32 -41zM347 205l-97 -14q-35 -5 -55.5 -16.5t-20.5 -38.5q0 -22 16 -36.5t48 -14.5q30 0 51 7.5t34 19t18.5 25t5.5 26.5v42z" />
<glyph unicode="b" horiz-adv-x="609" d="M210 711v-254q0 -9 -0.5 -19t-1.5 -18q-1 -10 -1 -20h5q11 20 31 36q17 14 45.5 25t70.5 11q45 0 85 -17t70 -48.5t47.5 -76.5t17.5 -100q0 -56 -16.5 -101t-45.5 -76.5t-67.5 -48t-82.5 -16.5q-45 0 -75 13.5t-49 30.5q-22 19 -34 44h-5q-2 -33 -3 -53q-1 -12 -1 -23 h-135l2 32q1 14 2 30t1 32v617h140zM434 230q0 36 -9 61t-25 40.5t-37 23t-46 7.5q-50 0 -81.5 -30.5t-31.5 -101.5t31.5 -101.5t81.5 -30.5q25 0 46 7.5t37 23t25 40.5t9 61z" />
<glyph unicode="c" horiz-adv-x="495" d="M279 473q78 0 127.5 -22t68.5 -54l-66 -94q-14 26 -43 43.5t-74 17.5q-54 0 -85.5 -33.5t-31.5 -99.5t33.5 -98.5t84.5 -32.5q44 0 70 15t37 36l75 -87q-19 -32 -69.5 -54t-126.5 -22q-53 0 -99 16.5t-79.5 47.5t-52 76.5t-18.5 102.5t19.5 102t53 76t79.5 47.5t97 16.5z " />
<glyph unicode="d" horiz-adv-x="609" d="M539 711v-617q0 -16 0.5 -32t1.5 -30q1 -16 3 -32h-135q0 11 -1 23q-1 20 -3 53h-5q-8 -18 -21.5 -34t-33 -28t-45 -19t-58.5 -7q-44 0 -82.5 16.5t-67.5 48t-45.5 76.5t-16.5 101q0 55 17.5 100t47.5 76.5t70 48.5t85 17q56 0 94.5 -22t52.5 -50h5l-2 20q-1 8 -1 18v19 v254h140zM175 230q0 -71 33.5 -101.5t83.5 -30.5q25 0 45.5 7.5t35.5 23t23.5 40.5t8.5 61t-8.5 61t-23.5 40.5t-35.5 23t-45.5 7.5q-50 0 -83.5 -30.5t-33.5 -101.5z" />
<glyph unicode="e" horiz-adv-x="550" d="M515 235q0 -7 -0.5 -13.5t-0.5 -11.5q-1 -6 -1 -13h-338q0 -30 11 -50t28 -32.5t37.5 -17.5t40.5 -5q54 0 89 14t58 40l46 -92q-32 -29 -84 -47.5t-112 -18.5q-67 0 -115.5 22t-80 57.5t-46.5 80t-15 89.5q0 44 15.5 86.5t46.5 75.5t76 53.5t105 20.5q78 0 125 -25 t72.5 -61.5t34 -77.5t8.5 -74zM374 283q0 37 -24.5 62.5t-73.5 25.5q-51 0 -77 -25.5t-26 -62.5h201z" />
<glyph unicode="f" horiz-adv-x="345" d="M93 0v342h-83v118h83v105q0 70 42.5 114t125.5 44q24 0 41.5 -3t29.5 -7q13 -4 23 -10l-9 -116q-7 2 -17 5q-8 2 -19 4t-22 2q-26 0 -40.5 -15t-14.5 -49v-74h105v-118h-105v-342h-140z" />
<glyph unicode="g" horiz-adv-x="569" d="M553 359q-4 1 -10 3q-5 1 -14.5 2t-22.5 1q-20 0 -33 -4.5t-20 -7.5q14 -33 14 -68q0 -42 -17.5 -71t-46 -47.5t-65 -28.5t-73.5 -13q-9 -1 -19 -2.5t-18.5 -5.5t-14 -11t-5.5 -19q0 -15 10.5 -23t27.5 -8h143q74 0 105 -29t31 -77q0 -52 -27 -88.5t-68 -59.5t-89 -33.5 t-90 -10.5q-47 0 -88.5 5.5t-72 19t-48 37.5t-17.5 61q0 33 16 54t37 33t42 16.5t30 4.5q-5 2 -13.5 6t-16.5 11.5t-14.5 19.5t-6.5 29q0 16 7 28t17.5 20.5t22 14.5t20.5 9q-24 7 -46 22.5t-39 36.5t-27 47.5t-10 57.5q0 41 17 74.5t45.5 57t67 36.5t82.5 13q47 0 85 -14 t66 -38q5 8 15 19.5t24 22.5t33 19t42 8q8 0 15 -0.5t12 -0.5q6 -1 11 -1zM222 -40q-38 0 -51.5 -18t-13.5 -44q0 -29 25.5 -43.5t83.5 -14.5t91 14.5t33 49.5t-20 45.5t-56 10.5h-92zM255 211q85 0 85 83t-85 83t-85 -83t85 -83z" />
<glyph unicode="h" horiz-adv-x="595" d="M395 263q0 38 -21 62.5t-61 24.5q-51 0 -77 -34t-26 -88v-228h-140v711h140v-332q9 18 24 35t35.5 30t45 20.5t52.5 7.5q34 0 64.5 -9.5t53.5 -29.5t36.5 -52t13.5 -77v-304h-140v263z" />
<glyph unicode="i" horiz-adv-x="280" d="M70 0v460h140v-460h-140zM223 649q0 -38 -23.5 -60.5t-58.5 -22.5q-36 0 -59.5 22.5t-23.5 60.5t23.5 61t59.5 23q35 0 58.5 -23t23.5 -61z" />
<glyph unicode="j" horiz-adv-x="280" d="M223 649q0 -38 -23.5 -60.5t-58.5 -22.5q-36 0 -59.5 22.5t-23.5 60.5t23.5 61t59.5 23q35 0 58.5 -23t23.5 -61zM210 460v-544q0 -70 -40 -114t-123 -44q-31 0 -55.5 6t-47.5 15l10 117q11 -6 27 -10.5t32 -4.5q29 0 43 17.5t14 69.5v492h140z" />
<glyph unicode="k" horiz-adv-x="530" d="M362 460h153l-177 -200l187 -260h-155l-124 204l-40 -40v-164h-136v711h136v-445z" />
<glyph unicode="l" horiz-adv-x="280" d="M70 711h140v-711h-140v711z" />
<glyph unicode="m" horiz-adv-x="900" d="M626 350q-51 0 -76 -34t-25 -88v-228h-140v263q0 38 -17 62.5t-57 24.5q-51 0 -76 -34t-25 -88v-228h-140v365q0 14 -1 30.5t-2 30.5l-2 34h138q0 -13 1 -27q1 -13 1.5 -29t0.5 -35h5q17 43 56.5 73t99.5 30q53 0 93 -28.5t56 -79.5h5q9 22 23 42t33.5 34.5t45 23 t59.5 8.5t63 -9.5t50 -29.5t33 -52t12 -77v-304h-140v263q0 38 -17 62.5t-57 24.5z" />
<glyph unicode="n" horiz-adv-x="595" d="M395 263q0 38 -19 62.5t-59 24.5q-51 0 -79 -34t-28 -88v-228h-140v365q0 14 -1 30.5t-2 30.5l-2 34h138q0 -13 1 -27q1 -13 1.5 -29t0.5 -35h5q8 21 23 39.5t35 32.5t45 22.5t53 8.5q34 0 64.5 -9.5t53.5 -29.5t36.5 -52t13.5 -77v-304h-140v263z" />
<glyph unicode="o" horiz-adv-x="575" d="M545 230q0 -58 -20 -103t-54.5 -76t-81.5 -47t-101 -16t-101 16t-82 47t-55 76t-20 103t20 103.5t55 76t82 46.5t101 16t101 -16t81.5 -46.5t54.5 -76t20 -103.5zM400 230q0 71 -31.5 101.5t-80.5 30.5q-50 0 -81.5 -30.5t-31.5 -101.5t31.5 -101.5t81.5 -30.5 q49 0 80.5 30.5t31.5 101.5z" />
<glyph unicode="p" horiz-adv-x="609" d="M70 -230v596q0 15 -1 31.5t-2 30.5l-2 32h135q0 -11 1 -23q1 -11 1.5 -24.5t1.5 -28.5h5q9 18 22.5 34t31.5 28t41.5 19t53.5 7q40 0 80 -15.5t71 -45.5t50.5 -75.5t19.5 -105.5t-19.5 -105.5t-50.5 -75.5t-71 -45.5t-80 -15.5q-55 0 -90.5 21t-55.5 51h-5q0 -10 1 -20 q1 -8 1.5 -18.5t0.5 -18.5v-233h-140zM434 230q0 36 -9 61t-25 40.5t-37 23t-46 7.5q-50 0 -81.5 -30.5t-31.5 -101.5t31.5 -101.5t81.5 -30.5q25 0 46 7.5t37 23t25 40.5t9 61z" />
<glyph unicode="q" horiz-adv-x="609" d="M399 -230v233v18.5t1 18.5l2 20h-5q-20 -30 -56 -51t-90 -21q-41 0 -80.5 15.5t-70.5 45.5t-50.5 75.5t-19.5 105.5t19.5 105.5t50.5 75.5t70.5 45.5t80.5 15.5q31 0 55.5 -7.5t43 -20t30.5 -28.5t20 -32h5q1 15 1.5 28.5t1.5 24.5q1 12 1 23h135q-2 -16 -3 -32 q-1 -14 -1.5 -30.5t-0.5 -31.5v-596h-140zM175 230q0 -71 33.5 -101.5t83.5 -30.5q25 0 45.5 7.5t35.5 23t23.5 40.5t8.5 61t-8.5 61t-23.5 40.5t-35.5 23t-45.5 7.5q-50 0 -83.5 -30.5t-33.5 -101.5z" />
<glyph unicode="r" horiz-adv-x="395" d="M368 312q-7 2 -23.5 4t-36.5 2q-27 0 -46 -10.5t-30.5 -28t-16.5 -41.5t-5 -51v-187h-140v365q0 14 -1 30.5t-2 30.5l-2 34h138q0 -16 1 -34q1 -15 1.5 -33.5t0.5 -37.5h5q11 32 31 58q17 22 45.5 40.5t73.5 18.5q3 0 7.5 -0.5t6.5 -1.5z" />
<glyph unicode="s" horiz-adv-x="480" d="M367 331q-15 14 -45 27.5t-72 13.5q-27 0 -46.5 -12t-19.5 -29q0 -11 6.5 -18t19.5 -12t32 -10t44 -12q33 -9 62 -19.5t51 -26t35 -39t13 -58.5q0 -29 -15 -55.5t-43 -47t-66.5 -33t-86.5 -12.5q-46 0 -79 7t-56.5 17t-38 20.5t-22.5 16.5l-4 3l77 90q18 -21 48 -37 t68 -16q32 0 53.5 10.5t21.5 30.5q0 12 -5.5 19t-18 12.5t-34 11t-52.5 14.5q-30 9 -57 19t-48 24.5t-33 36t-12 52.5q0 34 16 62t43.5 48.5t65 31.5t80.5 11q46 0 79.5 -6.5t55.5 -15t34.5 -17.5t17.5 -14z" />
<glyph unicode="t" horiz-adv-x="400" d="M85 460v103l137 30v-133h136v-118h-136v-164q0 -29 13.5 -47.5t45.5 -18.5q23 0 43.5 7t32.5 16l8 -116q-20 -12 -55 -21.5t-77 -9.5q-32 0 -59.5 7.5t-47 24t-30.5 43t-11 64.5v215h-70v118h70z" />
<glyph unicode="u" horiz-adv-x="585" d="M200 460v-263q0 -38 17.5 -62.5t57.5 -24.5q51 0 75.5 29.5t24.5 83.5v237h140v-365q0 -14 0.5 -30.5t1.5 -30.5q1 -17 3 -34h-138q-1 11 -2 25q-1 11 -1 27v35h-5q-16 -41 -56 -70t-97 -29q-34 0 -63.5 9.5t-51 29.5t-34 52t-12.5 77v304h140z" />
<glyph unicode="v" horiz-adv-x="525" d="M181 0l-175 460h150l110 -356l107 356h146l-172 -460h-166z" />
<glyph unicode="w" horiz-adv-x="780" d="M458 460l94 -348l77 348h136l-150 -460h-136l-91 358l-92 -358h-138l-143 460h140l76 -348l91 348h136z" />
<glyph unicode="x" horiz-adv-x="550" d="M276 293l105 167h154l-169 -232l169 -228h-162l-102 163l-99 -163h-157l169 228l-169 232h159z" />
<glyph unicode="y" horiz-adv-x="503" d="M-7 460h150l109 -359l104 359h146l-214 -594q-11 -32 -27.5 -53t-36 -33t-41 -17t-43.5 -5q-25 0 -52.5 4.5t-47.5 11.5l22 120q15 -5 31 -8.5t32 -3.5q15 0 28.5 5.5t18.5 22.5l14 41z" />
<glyph unicode="z" horiz-adv-x="463" d="M429 367l-47 -48l-196 -201h247v-118h-403v93l44 45l204 204h-239v118h390v-93z" />
<glyph unicode="{" horiz-adv-x="350" d="M108 125q0 32 -23 47.5t-55 15.5v116q32 0 55 15t23 47v167q0 55 17.5 85t45.5 44t64 16.5t74 2.5v-69q-24 0 -41 -3t-27.5 -12t-15 -25t-4.5 -42v-189q0 -17 -7.5 -32.5t-20 -28t-28.5 -21t-32 -11.5v-4q16 -3 32 -11.5t28.5 -21t20 -28t7.5 -32.5v-190q0 -26 4.5 -42 t15 -25t27.5 -12t41 -3v-69q-38 0 -74 2.5t-64 16.5t-45.5 44t-17.5 85v167z" />
<glyph unicode="|" d="M95 -190v871h110v-871h-110z" />
<glyph unicode="}" horiz-adv-x="350" d="M242 366q0 -32 23 -47.5t55 -15.5v-116q-32 0 -55 -15t-23 -47v-167q0 -55 -17.5 -85t-45.5 -44t-64 -16.5t-74 -2.5v69q24 0 41 3t27.5 12t15 25t4.5 42v189q0 17 7.5 32.5t20 28t28.5 21t32 11.5v4q-16 3 -32 11.5t-28.5 21t-20 28t-7.5 32.5v190q0 26 -4.5 42t-15 25 t-27.5 12t-41 3v69q38 0 74 -2.5t64 -16.5t45.5 -44t17.5 -85v-167z" />
<glyph unicode="~" horiz-adv-x="510" d="M443 305q3 -12 6 -33t3 -39q0 -17 -4.5 -32.5t-16 -28.5t-29.5 -20.5t-45 -7.5q-23 0 -48 8.5t-48.5 18.5t-44 18.5t-34.5 8.5q-23 0 -31 -9.5t-8 -23.5v-8t1 -9h-76q-5 16 -7.5 35.5t-2.5 33.5q0 39 25.5 65t70.5 26q22 0 48 -8.5t51.5 -18t47.5 -18t34 -8.5q20 0 27 9 t7 20v10.5t-1 10.5h75z" />
<glyph unicode="&#xa1;" horiz-adv-x="250" d="M58 245.014v-434.974h130v434.974h-130zM200 390.004q0 36.998 -22.5 58.9971q-22.5 21.998 -54.5 21.998q-29 0 -51 -21.998q-22 -21.999 -22 -58.9971q0 -34.9971 22 -56.4961t51 -21.499q32 0 54.5 21.499t22.5 56.4961z" />
<glyph unicode="&#xa2;" horiz-adv-x="550" d="M506 74q-13 -29 -58.5 -54t-123.5 -30v-92h-70v94q-45 6 -82.5 24.5t-64.5 49t-42 72t-15 93.5q0 51 14.5 92.5t41.5 72t64.5 49.5t83.5 25v92h70v-90q70 -1 116 -25.5t66 -59.5l-76 -84q-14 26 -41 43.5t-65 18.5v-269q42 5 66.5 22.5t29.5 38.5zM254 363 q-42 -11 -60.5 -45.5t-18.5 -86.5q0 -51 19.5 -84.5t59.5 -46.5v263z" />
<glyph unicode="&#xa3;" horiz-adv-x="598" d="M306 271q6 -15 11.5 -36.5t5.5 -48.5q0 -16 -3 -29t-6 -22q-4 -11 -8 -19q8 -5 19 -9q9 -4 21 -6.5t27 -2.5q21 0 32.5 11t16.5 25q6 16 7 36h139q0 -31 -8 -63t-27 -58.5t-49 -43.5t-75 -17q-36 0 -64.5 8t-48.5 18q-24 11 -41 27q-11 -16 -29 -27q-15 -10 -38 -18 t-56 -8q-48 0 -80 23.5t-32 71.5q0 26 10 44t25 29t32.5 16t32.5 5q19 0 35 -5t29 -11q14 -7 27 -16q1 6 2 14q1 6 1.5 14t0.5 16q0 24 -10.5 45.5t-21.5 36.5h-114v62h73q-5 7 -12.5 20t-14 30t-11.5 38.5t-5 46.5q0 35 14 70t42.5 62.5t73 45t106.5 17.5q72 0 115.5 -21 t66.5 -47q27 -30 38 -67l-106 -80q-7 26 -22 46q-13 17 -35 32t-57 15q-53 0 -75 -28t-22 -75q0 -38 15 -65.5t26 -39.5h192v-62h-165zM116 83q0 -13 8.5 -17t18.5 -4q11 0 20 3.5t16 8.5q8 5 14 13q-8 3 -17 7q-8 2 -17 4.5t-20 2.5q-7 0 -15 -3t-8 -15z" />
<glyph unicode="&#xa4;" horiz-adv-x="600" d="M484 470q23 -29 35.5 -64.5t12.5 -77.5q0 -40 -12 -75t-33 -64l67 -65l-47 -47l-65 65q-30 -23 -66.5 -36t-75.5 -13q-40 0 -76.5 13t-66.5 36l-64 -65l-47 47l65 65q-21 29 -32.5 64t-11.5 75q0 42 12.5 77.5t35.5 64.5l-69 69l47 47l69 -70q29 22 64.5 34t73.5 12 t73.5 -12t64.5 -34l69 70l47 -47zM429 328q0 30 -8.5 56t-24.5 45.5t-40.5 30.5t-55.5 11q-32 0 -56 -11t-40.5 -30.5t-25 -45.5t-8.5 -56t9 -56t25.5 -45.5t40.5 -31t55 -11.5t55 11.5t40.5 31t25 45.5t8.5 56z" />
<glyph unicode="&#xa5;" horiz-adv-x="673" d="M82 400h100l-142 251h150l148 -283l147 283h148l-142 -251h105v-61h-140l-45 -76h185v-61h-184v-202h-151v202h-179v61h180l-46 76h-134v61z" />
<glyph unicode="&#xa6;" d="M95 164h110v-354h-110v354zM205 327h-110v354h110v-354z" />
<glyph unicode="&#xa7;" horiz-adv-x="480" d="M117 77q7 -9 18.5 -19t26 -18.5t31.5 -14.5t35 -6q25 0 42.5 13.5t17.5 36.5q0 20 -16 33.5t-40.5 25.5t-53 25t-53 32t-40.5 46.5t-16 67.5q0 43 21 70.5t43 46.5q-21 15 -37 41t-16 61q0 26 11 52t32.5 46.5t53.5 33.5t74 13q62 0 103.5 -19.5t66.5 -52.5l-64 -61 q-14 23 -38.5 36t-59.5 13q-30 0 -46.5 -16t-16.5 -38q0 -20 16.5 -34.5t41.5 -27.5t54 -27t54 -34t41.5 -48t16.5 -68q0 -41 -19.5 -67.5t-43.5 -47.5q27 -18 43.5 -42t16.5 -57q0 -27 -12.5 -52t-36 -44.5t-58 -31.5t-78.5 -12q-65 0 -108 21.5t-69 56.5zM317 273 q0 19 -9.5 33.5t-25.5 26t-35.5 21t-39.5 19.5q-11 -10 -24 -28t-13 -39q0 -17 10 -30t26 -24t35.5 -20t39.5 -18q12 11 23 25.5t13 33.5z" />
<glyph unicode="&#xa8;" d="M112 644q0 -35 -22.5 -56.5t-56.5 -21.5t-56 21.5t-22 56.5q0 36 22 57.5t56 21.5t56.5 -21.5t22.5 -57.5zM345 644q0 -35 -22.5 -56.5t-54.5 -21.5q-35 0 -57 21.5t-22 56.5q0 36 22 57.5t57 21.5q32 0 54.5 -21.5t22.5 -57.5z" />
<glyph unicode="&#xa9;" horiz-adv-x="737" d="M461 265l72 -53q-19 -32 -59.5 -54.5t-92.5 -22.5q-44 0 -79.5 13t-61.5 38t-40 60.5t-14 79.5t14.5 79.5t40.5 60t61.5 37.5t77.5 13q26 0 50 -6.5t44 -17t35.5 -25t24.5 -30.5l-77 -53q-8 20 -29.5 33.5t-54.5 13.5q-27 0 -45 -8.5t-29 -23t-15.5 -33.5t-4.5 -40 t5.5 -40t17 -33.5t30 -23t44.5 -8.5q30 0 52 12.5t33 31.5zM112 326q0 -56 19.5 -104t53.5 -83.5t81 -56t102 -20.5t102.5 20.5t81.5 56t53.5 83.5t19.5 104q0 55 -19.5 103.5t-53.5 83.5t-81.5 55.5t-102.5 20.5t-102 -20.5t-81 -55.5t-53.5 -83.5t-19.5 -103.5zM30 326 q0 70 26 131t71.5 107t107 72.5t133.5 26.5t134 -26.5t107.5 -72.5t71.5 -107t26 -131t-26 -131.5t-71.5 -107.5t-107.5 -72.5t-134 -26.5t-133.5 26.5t-107 72.5t-71.5 107.5t-26 131.5z" />
<glyph unicode="&#xaa;" horiz-adv-x="350" d="M340 403q5 0 13 2v-62q-6 -5 -15 -9q-8 -3 -18 -5.5t-24 -2.5q-20 0 -32.5 7.5t-20.5 17.5q-9 11 -13 26h-4q-9 -16 -22 -28q-11 -11 -30 -19t-46 -8q-55 0 -86 27t-31 77q0 45 31.5 65t93.5 26l85 9v7q0 29 -17.5 40t-47.5 11q-17 0 -32.5 -5t-26.5 -10q-13 -7 -24 -15 l-43 49q4 7 17 16.5t31 17t39.5 13t44.5 5.5q40 0 69.5 -5t49 -17.5t28.5 -34.5t9 -55v-112q0 -28 22 -28zM221 469l-63 -7q-26 -2 -38.5 -10t-12.5 -26q0 -15 11 -24t29 -9q13 0 26 2t23.5 7t17.5 13.5t7 20.5v33z" />
<glyph unicode="&#xab;" horiz-adv-x="525" d="M152 36l-122 180l122 180h111l-110 -180l110 -180h-111zM357 36l-122 180l122 180h111l-110 -180l110 -180h-111z" />
<glyph unicode="&#xac;" horiz-adv-x="510" d="M450 277v-242h-110v140h-280v102h390z" />
<glyph unicode="&#xad;" horiz-adv-x="340" d="M30 295h280v-115h-280v115z" />
<glyph unicode="&#xae;" horiz-adv-x="737" d="M425 138l-58 135h-38v-135h-90v378h142q73 0 110 -34.5t37 -84.5q0 -24 -6 -42t-16.5 -31.5t-24 -22t-27.5 -12.5l69 -151h-98zM329 344h43q21 0 34 4.5t20 11t9.5 15t2.5 17.5q0 20 -14 35t-51 15h-44v-98zM112 326q0 -56 19.5 -104t53.5 -83.5t81 -56t102 -20.5 t102.5 20.5t81.5 56t53.5 83.5t19.5 104q0 55 -19.5 103.5t-53.5 83.5t-81.5 55.5t-102.5 20.5t-102 -20.5t-81 -55.5t-53.5 -83.5t-19.5 -103.5zM30 326q0 70 26 131t71.5 107t107 72.5t133.5 26.5t134 -26.5t107.5 -72.5t71.5 -107t26 -131t-26 -131.5t-71.5 -107.5 t-107.5 -72.5t-134 -26.5t-133.5 26.5t-107 72.5t-71.5 107.5t-26 131.5z" />
<glyph unicode="&#xaf;" d="M-20 661h340v-95h-340v95z" />
<glyph unicode="&#xb0;" horiz-adv-x="350" d="M175 710q28 0 53 -10.5t43.5 -28.5t29 -43t10.5 -53q0 -29 -10.5 -53.5t-29 -42.5t-43.5 -28.5t-53 -10.5q-29 0 -53.5 10.5t-43 28.5t-29 42.5t-10.5 53.5q0 28 10.5 53t29 43t43 28.5t53.5 10.5zM175 506q30 0 48.5 19t18.5 50q0 30 -18.5 49.5t-48.5 19.5t-48.5 -19.5 t-18.5 -49.5q0 -31 18.5 -50t48.5 -19z" />
<glyph unicode="&#xb1;" horiz-adv-x="510" d="M450 103v-102h-390v102h390zM60 427h140v140h110v-140h140v-102h-140v-140h-110v140h-140v102z" />
<glyph unicode="&#xb2;" horiz-adv-x="380" d="M41 555q-2 10 -3.5 14.5t-1.5 13.5q0 18 9 36t27.5 33t45.5 24.5t63 9.5q26 0 50.5 -7t43.5 -21t30.5 -34t11.5 -47q0 -29 -11.5 -51.5t-31.5 -42t-47 -38t-58 -38.5h176v-77h-297v83q25 13 56.5 30t58.5 36.5t45.5 40t18.5 41.5q0 22 -13.5 36.5t-39.5 14.5 q-24 0 -40 -13t-16 -34q0 -13 5 -30z" />
<glyph unicode="&#xb3;" horiz-adv-x="380" d="M47 629q14 25 51.5 41t84.5 16q29 0 53 -6.5t41.5 -18t27.5 -27t10 -33.5q0 -23 -10.5 -38.5t-22.5 -25.5q-15 -11 -33 -18q24 -2 43 -13q17 -9 30.5 -26.5t13.5 -49.5q0 -27 -16.5 -47.5t-41.5 -34t-54 -20t-55 -6.5q-46 0 -74 11t-53 31l40 63q15 -14 40.5 -23t52.5 -9 t46.5 11t19.5 34q0 17 -16 28t-38 11q-14 0 -26 -1t-21 -3q-11 -2 -20 -4l6 69q2 -1 16.5 -2.5t29.5 -1.5q20 0 35 11t15 28t-18.5 27t-40.5 10q-30 0 -54 -14.5t-29 -28.5z" />
<glyph unicode="&#xb4;" d="M203 803l71 -71l-165 -166l-71 71z" />
<glyph unicode="&#xb5;" horiz-adv-x="585" d="M281 -12q-23 0 -39 4.5t-26 10.5q-12 7 -19 16h-5q0 -10 1 -20q1 -8 1.5 -18.5t0.5 -18.5v-192h-135v690h140v-263q0 -38 17.5 -62.5t57.5 -24.5q51 0 75.5 29.5t24.5 83.5v237h140v-365q0 -14 0.5 -30.5t1.5 -30.5q1 -17 3 -34h-128q-1 12 -2 25q-1 11 -1 24.5v27.5h-5 q-8 -26 -21 -45q-12 -17 -31.5 -30.5t-50.5 -13.5z" />
<glyph unicode="&#xb6;" horiz-adv-x="580" d="M281 651v-712h-112v294q-44 0 -82 13t-67 38.5t-45.5 63.5t-16.5 89q0 52 16.5 92t45.5 67t67 41t82 14h112zM570 547h-87v-608h-112v712h199v-104z" />
<glyph unicode="&#xb7;" horiz-adv-x="192" d="M172 234q0 -37 -22 -59t-54 -22q-29 0 -51.5 22t-22.5 59q0 35 22.5 56.5t51.5 21.5q32 0 54 -21.5t22 -56.5z" />
<glyph unicode="&#xb8;" d="M157 17q13 -7 26 -17q76 -52 76 -101q0 -98 -131 -98q-57 0 -108 34l35 54q29 -21 62 -21q50 0 50 44q0 47 -97 97z" />
<glyph unicode="&#xb9;" horiz-adv-x="380" d="M61 408h98v164q-6 -3 -19 -7.5t-28.5 -8.5t-31 -6.5t-26.5 -2.5l-15 82q15 0 35.5 4.5t41 11.5t37 16t22.5 18h83v-271h93v-78h-290v78z" />
<glyph unicode="&#xba;" horiz-adv-x="350" d="M17 489q0 39 12.5 70t33.5 52.5t50 32.5t62 11t62 -11t50 -32.5t33.5 -52.5t12.5 -70t-12.5 -70t-33.5 -52.5t-50 -33t-62 -11.5t-62 11.5t-50 33t-33.5 52.5t-12.5 70zM114 489q0 -32 15 -56t46 -24t46 23t15 57t-15 56.5t-46 22.5t-46 -22.5t-15 -56.5z" />
<glyph unicode="&#xbb;" horiz-adv-x="525" d="M168 396l122 -180l-122 -180h-111l110 180l-110 180h111zM373 396l122 -180l-122 -180h-111l110 180l-110 180h111z" />
<glyph unicode="&#xbc;" horiz-adv-x="850" d="M297 0h-111l367 651h111zM29 381h98v164q-6 -3 -19 -7.5t-28.5 -8.5t-31 -6.5t-26.5 -2.5l-15 82q15 0 35.5 4.5t41 11.5t37 16t22.5 18h83v-271h93v-78h-290v78zM631 350h121v-213h56v-78h-56v-58h-88v58h-179l-23 55l31 44zM664 273l-93 -136h93v136z" />
<glyph unicode="&#xbd;" horiz-adv-x="850" d="M297 0h-111l367 651h111zM29 381h98v164q-6 -3 -19 -7.5t-28.5 -8.5t-31 -6.5t-26.5 -2.5l-15 82q15 0 35.5 4.5t41 11.5t37 16t22.5 18h83v-271h93v-78h-290v78zM515 226q-2 10 -3.5 14.5t-1.5 13.5q0 18 9 36t27.5 33t45.5 24.5t63 9.5q26 0 50.5 -7t43.5 -21t30.5 -34 t11.5 -47q0 -29 -11.5 -51.5t-31.5 -42t-47 -38t-58 -38.5h176v-77h-297v83q25 13 56.5 30t58.5 36.5t45.5 40t18.5 41.5q0 22 -13.5 36.5t-39.5 14.5q-24 0 -40 -13t-16 -34q0 -13 5 -30z" />
<glyph unicode="&#xbe;" horiz-adv-x="850" d="M297 0h-111l367 651h111zM631 350h121v-213h56v-78h-56v-58h-88v58h-179l-23 55l31 44zM664 273l-93 -136h93v136zM27 601q14 25 51.5 41t84.5 16q29 0 53 -6.5t41.5 -18t27.5 -27t10 -33.5q0 -23 -10.5 -38.5t-22.5 -25.5q-15 -11 -33 -18q24 -2 43 -13 q17 -9 30.5 -26.5t13.5 -49.5q0 -27 -16.5 -47.5t-41.5 -34t-54 -20t-55 -6.5q-46 0 -74 11t-53 31l40 63q15 -14 40.5 -23t52.5 -9t46.5 11t19.5 34q0 17 -16 28t-38 11q-14 0 -26 -1t-21 -3q-11 -2 -20 -4l6 69q2 -1 16.5 -2.5t29.5 -1.5q20 0 35 11t15 28t-18.5 27 t-40.5 10q-30 0 -54 -14.5t-29 -28.5z" />
<glyph unicode="&#xbf;" horiz-adv-x="450" d="M435.001 -107.965q-11.999 -20.999 -33.498 -37.998t-48.9971 -29.498t-59.9961 -19.499t-66.4961 -7q-48.9971 0 -86.9951 14.999q-37.9971 15 -64.4961 41.998q-26.498 26.998 -40.4971 63.9961t-13.999 79.9951q0 77.9951 44.9971 123.492t125.992 54.4971v84.9941 h129.992v-162.989q-26.998 -2 -57.4961 -6t-56.9971 -13.999q-26.498 -10 -43.4971 -27.998q-16.999 -17.999 -16.999 -47.9971q0 -14.999 5.5 -29.999q5.49902 -14.999 16.499 -26.998q10.999 -11.999 28.998 -19.499q17.999 -7.49902 41.9971 -7.49902 q22.999 0 42.498 6.99902q19.498 7 35.9971 18.499q16.499 11.5 28.498 25.499q12 13.999 18.999 28.998zM179.017 390.004q0 36.998 22.499 58.9971q22.498 21.998 54.4961 21.998q28.998 0 50.9971 -21.998q21.999 -21.999 21.999 -58.9971q0 -34.9971 -21.999 -56.4961 t-50.9971 -21.499q-31.998 0 -54.4961 21.499q-22.499 21.499 -22.499 56.4961z" />
<glyph unicode="&#xc0;" horiz-adv-x="642" d="M5 0l221 651h170l241 -651h-148l-41 118h-262l-36 -118h-145zM218 240h194l-103 294zM382 809l-71 -71l-165 166l71 71z" />
<glyph unicode="&#xc1;" horiz-adv-x="642" d="M5 0l221 651h170l241 -651h-148l-41 118h-262l-36 -118h-145zM218 240h194l-103 294zM405 975l71 -71l-165 -166l-71 71z" />
<glyph unicode="&#xc2;" horiz-adv-x="642" d="M5 0l221 651h170l241 -651h-148l-41 118h-262l-36 -118h-145zM218 240h194l-103 294zM99 738l179 190h63l178 -190h-126l-84 116l-83 -116h-127z" />
<glyph unicode="&#xc3;" horiz-adv-x="642" d="M5 0l221 651h170l241 -651h-148l-41 118h-262l-36 -118h-145zM218 240h194l-103 294zM478 902q3 -12 6 -33t3 -39q0 -20 -5 -35.5t-16.5 -28.5t-30.5 -20.5t-47 -7.5q-31 0 -49 10.5t-31 20.5t-25.5 20.5t-29.5 10.5q-20 0 -27.5 -12.5t-7.5 -28.5v-11t1 -10h-76 q-5 16 -7.5 36.5t-2.5 34.5q0 39 26.5 66t73.5 27q28 0 48 -10.5t36 -22t29.5 -19.5t29.5 -8q17 0 22.5 11t5.5 24v11.5t-1 13.5h75z" />
<glyph unicode="&#xc4;" horiz-adv-x="642" d="M5 0l221 651h170l241 -651h-148l-41 118h-262l-36 -118h-145zM218 240h194l-103 294zM271 816q0 -35 -22.5 -56.5t-56.5 -21.5t-56 21.5t-22 56.5q0 36 22 57.5t56 21.5t56.5 -21.5t22.5 -57.5zM504 816q0 -35 -22.5 -56.5t-54.5 -21.5q-35 0 -57 21.5t-22 56.5 q0 36 22 57.5t57 21.5q32 0 54.5 -21.5t22.5 -57.5z" />
<glyph unicode="&#xc5;" horiz-adv-x="642" d="M5 0l221 651h170l241 -651h-148l-41 118h-262l-36 -118h-145zM218 240h194l-103 294zM178 865q0 26 9 49t26.5 40t42 27t54.5 10q29 0 53.5 -10t42 -27t27 -40t9.5 -49q0 -55 -36.5 -91t-95.5 -36q-61 0 -96.5 36t-35.5 91zM251 865q0 -30 16 -45t43 -15q26 0 42.5 15 t16.5 45q0 29 -16.5 44t-42.5 15q-27 0 -43 -15t-16 -44z" />
<glyph unicode="&#xc6;" horiz-adv-x="903" d="M392 253v287h-25l-135 -287h160zM183 135l-63 -135h-140l315 651h543v-123h-301v-140h279v-121h-279v-144h311v-123h-456v135h-209z" />
<glyph unicode="&#xc7;" horiz-adv-x="675" d="M516 449q-17 35 -55.5 60.5t-104.5 25.5q-86 0 -126 -55.5t-40 -150.5q0 -99 44 -156t128 -57q66 0 104.5 27.5t54.5 65.5l123 -67q-36 -70 -107 -112t-180 -42q-70 0 -129 23t-101.5 66.5t-66.5 106t-24 141.5q0 80 24.5 143t68 106.5t102.5 66t128 22.5q56 0 101.5 -12 t80 -31t57 -43t33.5 -47zM341 17q13 -7 26 -17q76 -52 76 -101q0 -98 -131 -98q-57 0 -108 34l35 54q29 -21 62 -21q50 0 50 44q0 47 -97 97z" />
<glyph unicode="&#xc8;" horiz-adv-x="595" d="M220 528v-140h288v-121h-288v-144h320v-123h-470v651h460v-123h-310zM392 809l-71 -71l-165 166l71 71z" />
<glyph unicode="&#xc9;" horiz-adv-x="595" d="M220 528v-140h288v-121h-288v-144h320v-123h-470v651h460v-123h-310zM390 975l71 -71l-165 -166l-71 71z" />
<glyph unicode="&#xca;" horiz-adv-x="595" d="M220 528v-140h288v-121h-288v-144h320v-123h-470v651h460v-123h-310zM93 738l179 190h63l178 -190h-126l-84 116l-83 -116h-127z" />
<glyph unicode="&#xcb;" horiz-adv-x="595" d="M220 528v-140h288v-121h-288v-144h320v-123h-470v651h460v-123h-310zM265 816q0 -35 -22.5 -56.5t-56.5 -21.5t-56 21.5t-22 56.5q0 36 22 57.5t56 21.5t56.5 -21.5t22.5 -57.5zM498 816q0 -35 -22.5 -56.5t-54.5 -21.5q-35 0 -57 21.5t-22 56.5q0 36 22 57.5t57 21.5 q32 0 54.5 -21.5t22.5 -57.5z" />
<glyph unicode="&#xcc;" horiz-adv-x="290" d="M70 0v651h150v-651h-150zM215 809l-71 -71l-165 166l71 71z" />
<glyph unicode="&#xcd;" horiz-adv-x="290" d="M70 0v651h150v-651h-150zM240 975l71 -71l-165 -166l-71 71z" />
<glyph unicode="&#xce;" horiz-adv-x="290" d="M70 0v651h150v-651h-150zM-64 738l179 190h63l178 -190h-126l-84 116l-83 -116h-127z" />
<glyph unicode="&#xcf;" horiz-adv-x="290" d="M70 0v651h150v-651h-150zM108 816q0 -35 -22.5 -56.5t-56.5 -21.5t-56 21.5t-22 56.5q0 36 22 57.5t56 21.5t56.5 -21.5t22.5 -57.5zM341 816q0 -35 -22.5 -56.5t-54.5 -21.5q-35 0 -57 21.5t-22 56.5q0 36 22 57.5t57 21.5q32 0 54.5 -21.5t22.5 -57.5z" />
<glyph unicode="&#xd0;" horiz-adv-x="725" d="M25 387h75v264h268q153 0 237.5 -84t84.5 -242q0 -156 -84.5 -240.5t-237.5 -84.5h-268v268h-75v119zM358 123q89 0 135.5 48t46.5 154q0 107 -46.5 155t-135.5 48h-111v-141h149v-119h-149v-145h111z" />
<glyph unicode="&#xd1;" horiz-adv-x="726" d="M190 0h-120v651h132l344 -485q-2 55 -4 123t-3.5 134.5t-2 126.5t-0.5 101h120v-651h-133l-343 473q2 -54 4 -120t3.5 -131t2 -123.5t0.5 -98.5zM535 902q3 -12 6 -33t3 -39q0 -20 -5 -35.5t-16.5 -28.5t-30.5 -20.5t-47 -7.5q-31 0 -49 10.5t-31 20.5t-25.5 20.5 t-29.5 10.5q-20 0 -27.5 -12.5t-7.5 -28.5v-11t1 -10h-76q-5 16 -7.5 36.5t-2.5 34.5q0 39 26.5 66t73.5 27q28 0 48 -10.5t36 -22t29.5 -19.5t29.5 -8q17 0 22.5 11t5.5 24v11.5t-1 13.5h75z" />
<glyph unicode="&#xd2;" horiz-adv-x="717" d="M681 326q0 -79 -24 -142t-67 -106.5t-102 -66.5t-129 -23t-129 23t-102 66.5t-67.5 106.5t-24.5 142q0 80 24.5 142.5t67.5 106t102 66t129 22.5t129 -22.5t102 -66t67 -106t24 -142.5zM530 326q0 106 -47.5 158t-123.5 52t-124 -52t-48 -158q0 -105 48 -158t124 -53 t123.5 53t47.5 158zM430 809l-71 -71l-165 166l71 71z" />
<glyph unicode="&#xd3;" horiz-adv-x="717" d="M681 326q0 -79 -24 -142t-67 -106.5t-102 -66.5t-129 -23t-129 23t-102 66.5t-67.5 106.5t-24.5 142q0 80 24.5 142.5t67.5 106t102 66t129 22.5t129 -22.5t102 -66t67 -106t24 -142.5zM530 326q0 106 -47.5 158t-123.5 52t-124 -52t-48 -158q0 -105 48 -158t124 -53 t123.5 53t47.5 158zM440 975l71 -71l-165 -166l-71 71z" />
<glyph unicode="&#xd4;" horiz-adv-x="717" d="M681 326q0 -79 -24 -142t-67 -106.5t-102 -66.5t-129 -23t-129 23t-102 66.5t-67.5 106.5t-24.5 142q0 80 24.5 142.5t67.5 106t102 66t129 22.5t129 -22.5t102 -66t67 -106t24 -142.5zM530 326q0 106 -47.5 158t-123.5 52t-124 -52t-48 -158q0 -105 48 -158t124 -53 t123.5 53t47.5 158zM147 738l179 190h63l178 -190h-126l-84 116l-83 -116h-127z" />
<glyph unicode="&#xd5;" horiz-adv-x="717" d="M681 326q0 -79 -24 -142t-67 -106.5t-102 -66.5t-129 -23t-129 23t-102 66.5t-67.5 106.5t-24.5 142q0 80 24.5 142.5t67.5 106t102 66t129 22.5t129 -22.5t102 -66t67 -106t24 -142.5zM530 326q0 106 -47.5 158t-123.5 52t-124 -52t-48 -158q0 -105 48 -158t124 -53 t123.5 53t47.5 158zM523 902q3 -12 6 -33t3 -39q0 -20 -5 -35.5t-16.5 -28.5t-30.5 -20.5t-47 -7.5q-31 0 -49 10.5t-31 20.5t-25.5 20.5t-29.5 10.5q-20 0 -27.5 -12.5t-7.5 -28.5v-11t1 -10h-76q-5 16 -7.5 36.5t-2.5 34.5q0 39 26.5 66t73.5 27q28 0 48 -10.5t36 -22 t29.5 -19.5t29.5 -8q17 0 22.5 11t5.5 24v11.5t-1 13.5h75z" />
<glyph unicode="&#xd6;" horiz-adv-x="717" d="M681 326q0 -79 -24 -142t-67 -106.5t-102 -66.5t-129 -23t-129 23t-102 66.5t-67.5 106.5t-24.5 142q0 80 24.5 142.5t67.5 106t102 66t129 22.5t129 -22.5t102 -66t67 -106t24 -142.5zM530 326q0 106 -47.5 158t-123.5 52t-124 -52t-48 -158q0 -105 48 -158t124 -53 t123.5 53t47.5 158zM317 816q0 -35 -22.5 -56.5t-56.5 -21.5t-56 21.5t-22 56.5q0 36 22 57.5t56 21.5t56.5 -21.5t22.5 -57.5zM550 816q0 -35 -22.5 -56.5t-54.5 -21.5q-35 0 -57 21.5t-22 56.5q0 36 22 57.5t57 21.5q32 0 54.5 -21.5t22.5 -57.5z" />
<glyph unicode="&#xd7;" horiz-adv-x="510" d="M63 110l116 116l-116 116l72 72l116 -116l116 116l72 -72l-116 -116l116 -116l-72 -72l-116 116l-116 -116z" />
<glyph unicode="&#xd8;" horiz-adv-x="717" d="M611 548q33 -42 51.5 -98.5t18.5 -125.5q0 -79 -24 -141.5t-67 -105.5t-102 -66t-129 -23q-122 0 -206 66l-60 -65l-56 46l65 70q-32 42 -49 97t-17 122q0 80 24.5 142.5t67.5 106t102 66t129 22.5q117 0 200 -63l61 66l53 -49zM539 329q0 71 -22 123l-281 -309 q23 -25 54.5 -37t68.5 -12q40 0 73 15.5t57 45.5t37 74t13 100zM177 318q0 -35 5 -64t14 -53l281 308q-48 46 -118 46q-40 0 -73.5 -16t-57.5 -46t-37.5 -74t-13.5 -101z" />
<glyph unicode="&#xd9;" horiz-adv-x="680" d="M338 -12q-130 0 -201.5 64t-71.5 178v421h150v-400q0 -38 10 -64t27 -42t39.5 -23t48.5 -7t48.5 7t39.5 23t27 42t10 64v400h150v-421q0 -54 -19 -99t-55 -76.5t-87.5 -49t-115.5 -17.5zM412 809l-71 -71l-165 166l71 71z" />
<glyph unicode="&#xda;" horiz-adv-x="680" d="M338 -12q-130 0 -201.5 64t-71.5 178v421h150v-400q0 -38 10 -64t27 -42t39.5 -23t48.5 -7t48.5 7t39.5 23t27 42t10 64v400h150v-421q0 -54 -19 -99t-55 -76.5t-87.5 -49t-115.5 -17.5zM435 975l71 -71l-165 -166l-71 71z" />
<glyph unicode="&#xdb;" horiz-adv-x="680" d="M338 -12q-130 0 -201.5 64t-71.5 178v421h150v-400q0 -38 10 -64t27 -42t39.5 -23t48.5 -7t48.5 7t39.5 23t27 42t10 64v400h150v-421q0 -54 -19 -99t-55 -76.5t-87.5 -49t-115.5 -17.5zM128 738l179 190h63l178 -190h-126l-84 116l-83 -116h-127z" />
<glyph unicode="&#xdc;" horiz-adv-x="680" d="M338 -12q-130 0 -201.5 64t-71.5 178v421h150v-400q0 -38 10 -64t27 -42t39.5 -23t48.5 -7t48.5 7t39.5 23t27 42t10 64v400h150v-421q0 -54 -19 -99t-55 -76.5t-87.5 -49t-115.5 -17.5zM303 816q0 -35 -22.5 -56.5t-56.5 -21.5t-56 21.5t-22 56.5q0 36 22 57.5t56 21.5 t56.5 -21.5t22.5 -57.5zM536 816q0 -35 -22.5 -56.5t-54.5 -21.5q-35 0 -57 21.5t-22 56.5q0 36 22 57.5t57 21.5q32 0 54.5 -21.5t22.5 -57.5z" />
<glyph unicode="&#xdd;" horiz-adv-x="616" d="M10 651h152l148 -282l147 282h149l-222 -387v-264h-151v264zM398 975l71 -71l-165 -166l-71 71z" />
<glyph unicode="&#xde;" horiz-adv-x="621" d="M70 651h148v-96h128q118 0 178.5 -58.5t60.5 -168.5t-60.5 -168t-178.5 -58h-128v-102h-148v651zM316 221q58 0 88.5 25.5t30.5 81.5t-30.5 81.5t-88.5 25.5h-98v-214h98z" />
<glyph unicode="&#xdf;" horiz-adv-x="605" d="M205 0h-140v528q0 44 16 80t45.5 61.5t72 39.5t96.5 14q58 0 100 -16t69 -42.5t40 -58.5t13 -64q0 -30 -9.5 -53.5t-26 -40.5t-38.5 -28t-47 -16v-4q39 -3 73.5 -18t60 -40t40.5 -59.5t15 -77.5q0 -45 -14 -84.5t-40.5 -69t-65.5 -46.5t-90 -17q-28 0 -57 5t-48 12v122 q12 -8 33 -14t44 -6q48 0 70.5 27.5t22.5 71.5q0 23 -6 41.5t-19.5 32t-35 21.5t-53.5 8h-56v109q30 0 50 9t32 23.5t17 32.5t5 37q0 33 -19.5 58t-61.5 25q-88 0 -88 -91v-512z" />
<glyph unicode="&#xe0;" horiz-adv-x="555" d="M511 105q11 0 19 3v-90q-13 -10 -33.5 -17t-49.5 -7q-44 0 -64 24t-23 59h-4q-14 -37 -50.5 -63t-93.5 -26q-80 0 -124.5 40.5t-44.5 104.5q0 37 16.5 61t43 39t58.5 22.5t63 11.5l122 16v11q0 42 -27.5 59.5t-74.5 17.5t-79.5 -17.5t-49.5 -42.5l-54 85q11 12 28.5 26 t42.5 25t58.5 18.5t76.5 7.5q99 0 155 -42t56 -134v-37t0.5 -44t0.5 -41v-29q0 -41 32 -41zM347 205l-97 -14q-35 -5 -55.5 -16.5t-20.5 -38.5q0 -22 16 -36.5t48 -14.5q30 0 51 7.5t34 19t18.5 25t5.5 26.5v42zM352 637l-71 -71l-165 166l71 71z" />
<glyph unicode="&#xe1;" horiz-adv-x="555" d="M511 105q11 0 19 3v-90q-13 -10 -33.5 -17t-49.5 -7q-44 0 -64 24t-23 59h-4q-14 -37 -50.5 -63t-93.5 -26q-80 0 -124.5 40.5t-44.5 104.5q0 37 16.5 61t43 39t58.5 22.5t63 11.5l122 16v11q0 42 -27.5 59.5t-74.5 17.5t-79.5 -17.5t-49.5 -42.5l-54 85q11 12 28.5 26 t42.5 25t58.5 18.5t76.5 7.5q99 0 155 -42t56 -134v-37t0.5 -44t0.5 -41v-29q0 -41 32 -41zM347 205l-97 -14q-35 -5 -55.5 -16.5t-20.5 -38.5q0 -22 16 -36.5t48 -14.5q30 0 51 7.5t34 19t18.5 25t5.5 26.5v42zM360 803l71 -71l-165 -166l-71 71z" />
<glyph unicode="&#xe2;" horiz-adv-x="555" d="M511 105q11 0 19 3v-90q-13 -10 -33.5 -17t-49.5 -7q-44 0 -64 24t-23 59h-4q-14 -37 -50.5 -63t-93.5 -26q-80 0 -124.5 40.5t-44.5 104.5q0 37 16.5 61t43 39t58.5 22.5t63 11.5l122 16v11q0 42 -27.5 59.5t-74.5 17.5t-79.5 -17.5t-49.5 -42.5l-54 85q11 12 28.5 26 t42.5 25t58.5 18.5t76.5 7.5q99 0 155 -42t56 -134v-37t0.5 -44t0.5 -41v-29q0 -41 32 -41zM347 205l-97 -14q-35 -5 -55.5 -16.5t-20.5 -38.5q0 -22 16 -36.5t48 -14.5q30 0 51 7.5t34 19t18.5 25t5.5 26.5v42zM69 566l179 190h63l178 -190h-126l-84 116l-83 -116h-127z " />
<glyph unicode="&#xe3;" horiz-adv-x="555" d="M511 105q11 0 19 3v-90q-13 -10 -33.5 -17t-49.5 -7q-44 0 -64 24t-23 59h-4q-14 -37 -50.5 -63t-93.5 -26q-80 0 -124.5 40.5t-44.5 104.5q0 37 16.5 61t43 39t58.5 22.5t63 11.5l122 16v11q0 42 -27.5 59.5t-74.5 17.5t-79.5 -17.5t-49.5 -42.5l-54 85q11 12 28.5 26 t42.5 25t58.5 18.5t76.5 7.5q99 0 155 -42t56 -134v-37t0.5 -44t0.5 -41v-29q0 -41 32 -41zM347 205l-97 -14q-35 -5 -55.5 -16.5t-20.5 -38.5q0 -22 16 -36.5t48 -14.5q30 0 51 7.5t34 19t18.5 25t5.5 26.5v42zM445 730q3 -12 6 -33t3 -39q0 -20 -5 -35.5t-16.5 -28.5 t-30.5 -20.5t-47 -7.5q-31 0 -49 10.5t-31 20.5t-25.5 20.5t-29.5 10.5q-20 0 -27.5 -12.5t-7.5 -28.5v-11t1 -10h-76q-5 16 -7.5 36.5t-2.5 34.5q0 39 26.5 66t73.5 27q28 0 48 -10.5t36 -22t29.5 -19.5t29.5 -8q17 0 22.5 11t5.5 24v11.5t-1 13.5h75z" />
<glyph unicode="&#xe4;" horiz-adv-x="555" d="M511 105q11 0 19 3v-90q-13 -10 -33.5 -17t-49.5 -7q-44 0 -64 24t-23 59h-4q-14 -37 -50.5 -63t-93.5 -26q-80 0 -124.5 40.5t-44.5 104.5q0 37 16.5 61t43 39t58.5 22.5t63 11.5l122 16v11q0 42 -27.5 59.5t-74.5 17.5t-79.5 -17.5t-49.5 -42.5l-54 85q11 12 28.5 26 t42.5 25t58.5 18.5t76.5 7.5q99 0 155 -42t56 -134v-37t0.5 -44t0.5 -41v-29q0 -41 32 -41zM347 205l-97 -14q-35 -5 -55.5 -16.5t-20.5 -38.5q0 -22 16 -36.5t48 -14.5q30 0 51 7.5t34 19t18.5 25t5.5 26.5v42zM239 644q0 -35 -22.5 -56.5t-56.5 -21.5t-56 21.5t-22 56.5 q0 36 22 57.5t56 21.5t56.5 -21.5t22.5 -57.5zM472 644q0 -35 -22.5 -56.5t-54.5 -21.5q-35 0 -57 21.5t-22 56.5q0 36 22 57.5t57 21.5q32 0 54.5 -21.5t22.5 -57.5z" />
<glyph unicode="&#xe5;" horiz-adv-x="555" d="M511 105q11 0 19 3v-90q-13 -10 -33.5 -17t-49.5 -7q-44 0 -64 24t-23 59h-4q-14 -37 -50.5 -63t-93.5 -26q-80 0 -124.5 40.5t-44.5 104.5q0 37 16.5 61t43 39t58.5 22.5t63 11.5l122 16v11q0 42 -27.5 59.5t-74.5 17.5t-79.5 -17.5t-49.5 -42.5l-54 85q11 12 28.5 26 t42.5 25t58.5 18.5t76.5 7.5q99 0 155 -42t56 -134v-37t0.5 -44t0.5 -41v-29q0 -41 32 -41zM347 205l-97 -14q-35 -5 -55.5 -16.5t-20.5 -38.5q0 -22 16 -36.5t48 -14.5q30 0 51 7.5t34 19t18.5 25t5.5 26.5v42zM145 693q0 26 9 49t26.5 40t42 27t54.5 10q29 0 53.5 -10 t42 -27t27 -40t9.5 -49q0 -55 -36.5 -91t-95.5 -36q-61 0 -96.5 36t-35.5 91zM218 693q0 -30 16 -45t43 -15q26 0 42.5 15t16.5 45q0 29 -16.5 44t-42.5 15q-27 0 -43 -15t-16 -44z" />
<glyph unicode="&#xe6;" horiz-adv-x="854" d="M819 234q0 -8 -0.5 -13t-1.5 -13l-338 -13q0 -29 11 -49t28 -32t39 -17.5t45 -5.5q48 0 85.5 16.5t55.5 39.5l46 -94q-25 -26 -76.5 -45.5t-123.5 -19.5q-73 0 -121.5 29t-76.5 71q-6 -10 -18.5 -26.5t-33.5 -33t-52.5 -28.5t-74.5 -12q-41 0 -72.5 11t-53 30.5 t-32.5 45.5t-11 57q0 32 13 56.5t37 41.5t57 26.5t73 12.5l121 7v17q0 42 -27.5 59.5t-65.5 17.5q-37 0 -62.5 -9.5t-42.5 -20.5q-19 -13 -31 -30l-54 85q15 21 42 38q23 14 61 26.5t96 12.5q37 0 62.5 -6.5t43 -17t29.5 -23.5t22 -25q12 13 30 25.5t39 23t44.5 17t48.5 6.5 q63 0 108 -17.5t74.5 -49t43.5 -75.5t14 -96zM345 197l-91 -3q-34 -2 -57 -16t-23 -42q0 -25 17 -38t46 -13q20 0 39.5 4.5t34.5 14.5t24.5 24t9.5 34v35zM678 280q0 49 -28.5 70t-69.5 21q-44 0 -72 -22.5t-31 -76.5z" />
<glyph unicode="&#xe7;" horiz-adv-x="495" d="M279 473q78 0 127.5 -22t68.5 -54l-66 -94q-14 26 -43 43.5t-74 17.5q-54 0 -85.5 -33.5t-31.5 -99.5t33.5 -98.5t84.5 -32.5q44 0 70 15t37 36l75 -87q-19 -32 -69.5 -54t-126.5 -22q-53 0 -99 16.5t-79.5 47.5t-52 76.5t-18.5 102.5t19.5 102t53 76t79.5 47.5t97 16.5z M267 17q13 -7 26 -17q76 -52 76 -101q0 -98 -131 -98q-57 0 -108 34l35 54q29 -21 62 -21q50 0 50 44q0 47 -97 97z" />
<glyph unicode="&#xe8;" horiz-adv-x="550" d="M515 235q0 -7 -0.5 -13.5t-0.5 -11.5q-1 -6 -1 -13h-338q0 -30 11 -50t28 -32.5t37.5 -17.5t40.5 -5q54 0 89 14t58 40l46 -92q-32 -29 -84 -47.5t-112 -18.5q-67 0 -115.5 22t-80 57.5t-46.5 80t-15 89.5q0 44 15.5 86.5t46.5 75.5t76 53.5t105 20.5q78 0 125 -25 t72.5 -61.5t34 -77.5t8.5 -74zM374 283q0 37 -24.5 62.5t-73.5 25.5q-51 0 -77 -25.5t-26 -62.5h201zM353 637l-71 -71l-165 166l71 71z" />
<glyph unicode="&#xe9;" horiz-adv-x="550" d="M515 235q0 -7 -0.5 -13.5t-0.5 -11.5q-1 -6 -1 -13h-338q0 -30 11 -50t28 -32.5t37.5 -17.5t40.5 -5q54 0 89 14t58 40l46 -92q-32 -29 -84 -47.5t-112 -18.5q-67 0 -115.5 22t-80 57.5t-46.5 80t-15 89.5q0 44 15.5 86.5t46.5 75.5t76 53.5t105 20.5q78 0 125 -25 t72.5 -61.5t34 -77.5t8.5 -74zM374 283q0 37 -24.5 62.5t-73.5 25.5q-51 0 -77 -25.5t-26 -62.5h201zM371 803l71 -71l-165 -166l-71 71z" />
<glyph unicode="&#xea;" horiz-adv-x="550" d="M515 235q0 -7 -0.5 -13.5t-0.5 -11.5q-1 -6 -1 -13h-338q0 -30 11 -50t28 -32.5t37.5 -17.5t40.5 -5q54 0 89 14t58 40l46 -92q-32 -29 -84 -47.5t-112 -18.5q-67 0 -115.5 22t-80 57.5t-46.5 80t-15 89.5q0 44 15.5 86.5t46.5 75.5t76 53.5t105 20.5q78 0 125 -25 t72.5 -61.5t34 -77.5t8.5 -74zM374 283q0 37 -24.5 62.5t-73.5 25.5q-51 0 -77 -25.5t-26 -62.5h201zM67 566l179 190h63l178 -190h-126l-84 116l-83 -116h-127z" />
<glyph unicode="&#xeb;" horiz-adv-x="550" d="M515 235q0 -7 -0.5 -13.5t-0.5 -11.5q-1 -6 -1 -13h-338q0 -30 11 -50t28 -32.5t37.5 -17.5t40.5 -5q54 0 89 14t58 40l46 -92q-32 -29 -84 -47.5t-112 -18.5q-67 0 -115.5 22t-80 57.5t-46.5 80t-15 89.5q0 44 15.5 86.5t46.5 75.5t76 53.5t105 20.5q78 0 125 -25 t72.5 -61.5t34 -77.5t8.5 -74zM374 283q0 37 -24.5 62.5t-73.5 25.5q-51 0 -77 -25.5t-26 -62.5h201zM237 644q0 -35 -22.5 -56.5t-56.5 -21.5t-56 21.5t-22 56.5q0 36 22 57.5t56 21.5t56.5 -21.5t22.5 -57.5zM470 644q0 -35 -22.5 -56.5t-54.5 -21.5q-35 0 -57 21.5 t-22 56.5q0 36 22 57.5t57 21.5q32 0 54.5 -21.5t22.5 -57.5z" />
<glyph unicode="&#xec;" horiz-adv-x="280" d="M206 637l-71 -71l-165 166l71 71zM70 0v460h140v-460h-140z" />
<glyph unicode="&#xed;" horiz-adv-x="280" d="M233 803l71 -71l-165 -166l-71 71zM70 0v460h140v-460h-140z" />
<glyph unicode="&#xee;" horiz-adv-x="280" d="M70 0v460h140v-460h-140zM-17 566l129 190h63l128 -190h-106l-54 116l-53 -116h-107z" />
<glyph unicode="&#xef;" horiz-adv-x="280" d="M103 644q0 -35 -22.5 -56.5t-56.5 -21.5t-56 21.5t-22 56.5q0 36 22 57.5t56 21.5t56.5 -21.5t22.5 -57.5zM336 644q0 -35 -22.5 -56.5t-54.5 -21.5q-35 0 -57 21.5t-22 56.5q0 36 22 57.5t57 21.5q32 0 54.5 -21.5t22.5 -57.5zM70 0v460h140v-460h-140z" />
<glyph unicode="&#xf0;" horiz-adv-x="584" d="M154 582l106 41q-25 14 -56 24.5t-58 17.5l103 56q28 -8 57.5 -19.5t57.5 -28.5l105 46l60 -60l-98 -43q50 -53 84 -134.5t34 -194.5q0 -81 -20.5 -137.5t-56 -92.5t-83 -52.5t-101.5 -16.5t-100.5 17t-80 48.5t-53 77.5t-19.5 104t18 103t50 76t76 46.5t97 15.5 q21 0 42.5 -4.5t40.5 -11t34 -15t24 -16.5q-5 16 -12.5 35t-18 38.5t-24.5 37.5t-31 33l-117 -51zM409 235q0 36 -9.5 61.5t-25.5 42.5t-37.5 25t-46.5 8q-50 0 -82.5 -33t-32.5 -104t32.5 -104t82.5 -33q25 0 46.5 8t37.5 25t25.5 42.5t9.5 61.5z" />
<glyph unicode="&#xf1;" horiz-adv-x="595" d="M395 263q0 38 -19 62.5t-59 24.5q-51 0 -79 -34t-28 -88v-228h-140v365q0 14 -1 30.5t-2 30.5l-2 34h138q0 -13 1 -27q1 -13 1.5 -29t0.5 -35h5q8 21 23 39.5t35 32.5t45 22.5t53 8.5q34 0 64.5 -9.5t53.5 -29.5t36.5 -52t13.5 -77v-304h-140v263zM480 730q3 -12 6 -33 t3 -39q0 -20 -5 -35.5t-16.5 -28.5t-30.5 -20.5t-47 -7.5q-31 0 -49 10.5t-31 20.5t-25.5 20.5t-29.5 10.5q-20 0 -27.5 -12.5t-7.5 -28.5v-11t1 -10h-76q-5 16 -7.5 36.5t-2.5 34.5q0 39 26.5 66t73.5 27q28 0 48 -10.5t36 -22t29.5 -19.5t29.5 -8q17 0 22.5 11t5.5 24 v11.5t-1 13.5h75z" />
<glyph unicode="&#xf2;" horiz-adv-x="575" d="M545 230q0 -58 -20 -103t-54.5 -76t-81.5 -47t-101 -16t-101 16t-82 47t-55 76t-20 103t20 103.5t55 76t82 46.5t101 16t101 -16t81.5 -46.5t54.5 -76t20 -103.5zM400 230q0 71 -31.5 101.5t-80.5 30.5q-50 0 -81.5 -30.5t-31.5 -101.5t31.5 -101.5t81.5 -30.5 q49 0 80.5 30.5t31.5 101.5zM342 637l-71 -71l-165 166l71 71z" />
<glyph unicode="&#xf3;" horiz-adv-x="575" d="M545 230q0 -58 -20 -103t-54.5 -76t-81.5 -47t-101 -16t-101 16t-82 47t-55 76t-20 103t20 103.5t55 76t82 46.5t101 16t101 -16t81.5 -46.5t54.5 -76t20 -103.5zM400 230q0 71 -31.5 101.5t-80.5 30.5q-50 0 -81.5 -30.5t-31.5 -101.5t31.5 -101.5t81.5 -30.5 q49 0 80.5 30.5t31.5 101.5zM390 803l71 -71l-165 -166l-71 71z" />
<glyph unicode="&#xf4;" horiz-adv-x="575" d="M545 230q0 -58 -20 -103t-54.5 -76t-81.5 -47t-101 -16t-101 16t-82 47t-55 76t-20 103t20 103.5t55 76t82 46.5t101 16t101 -16t81.5 -46.5t54.5 -76t20 -103.5zM400 230q0 71 -31.5 101.5t-80.5 30.5q-50 0 -81.5 -30.5t-31.5 -101.5t31.5 -101.5t81.5 -30.5 q49 0 80.5 30.5t31.5 101.5zM79 566l179 190h63l178 -190h-126l-84 116l-83 -116h-127z" />
<glyph unicode="&#xf5;" horiz-adv-x="575" d="M545 230q0 -58 -20 -103t-54.5 -76t-81.5 -47t-101 -16t-101 16t-82 47t-55 76t-20 103t20 103.5t55 76t82 46.5t101 16t101 -16t81.5 -46.5t54.5 -76t20 -103.5zM400 230q0 71 -31.5 101.5t-80.5 30.5q-50 0 -81.5 -30.5t-31.5 -101.5t31.5 -101.5t81.5 -30.5 q49 0 80.5 30.5t31.5 101.5zM455 730q3 -12 6 -33t3 -39q0 -20 -5 -35.5t-16.5 -28.5t-30.5 -20.5t-47 -7.5q-31 0 -49 10.5t-31 20.5t-25.5 20.5t-29.5 10.5q-20 0 -27.5 -12.5t-7.5 -28.5v-11t1 -10h-76q-5 16 -7.5 36.5t-2.5 34.5q0 39 26.5 66t73.5 27q28 0 48 -10.5 t36 -22t29.5 -19.5t29.5 -8q17 0 22.5 11t5.5 24v11.5t-1 13.5h75z" />
<glyph unicode="&#xf6;" horiz-adv-x="575" d="M545 230q0 -58 -20 -103t-54.5 -76t-81.5 -47t-101 -16t-101 16t-82 47t-55 76t-20 103t20 103.5t55 76t82 46.5t101 16t101 -16t81.5 -46.5t54.5 -76t20 -103.5zM400 230q0 71 -31.5 101.5t-80.5 30.5q-50 0 -81.5 -30.5t-31.5 -101.5t31.5 -101.5t81.5 -30.5 q49 0 80.5 30.5t31.5 101.5zM249 644q0 -35 -22.5 -56.5t-56.5 -21.5t-56 21.5t-22 56.5q0 36 22 57.5t56 21.5t56.5 -21.5t22.5 -57.5zM482 644q0 -35 -22.5 -56.5t-54.5 -21.5q-35 0 -57 21.5t-22 56.5q0 36 22 57.5t57 21.5q32 0 54.5 -21.5t22.5 -57.5z" />
<glyph unicode="&#xf7;" horiz-adv-x="510" d="M450 277v-102h-390v102h390zM330 43q0 -37 -22 -59t-54 -22q-29 0 -51.5 22t-22.5 59q0 35 22.5 56.5t51.5 21.5q32 0 54 -21.5t22 -56.5zM330 412q0 -37 -22 -59t-54 -22q-29 0 -51.5 22t-22.5 59q0 35 22.5 56.5t51.5 21.5q32 0 54 -21.5t22 -56.5z" />
<glyph unicode="&#xf8;" horiz-adv-x="575" d="M545 230q0 -58 -20 -103t-54.5 -76t-81.5 -47t-101 -16q-45 0 -84.5 10.5t-71.5 31.5l-43 -40l-53 49l42 40q-23 29 -35.5 66.5t-12.5 84.5q0 58 20 103.5t55 76t82 46.5t101 16q91 0 159 -45l46 44l52 -50l-46 -43q22 -29 34 -66t12 -82zM158 224q0 -17 2.5 -33t6.5 -30 l205 188q-33 30 -78 30q-27 0 -52 -9t-43.5 -28t-29.5 -48.5t-11 -69.5zM416 236q0 15 -1.5 30t-5.5 28l-202 -186q15 -14 34.5 -20.5t40.5 -6.5q27 0 51.5 9t43 28t29 48.5t10.5 69.5z" />
<glyph unicode="&#xf9;" horiz-adv-x="585" d="M200 460v-263q0 -38 17.5 -62.5t57.5 -24.5q51 0 75.5 29.5t24.5 83.5v237h140v-365q0 -14 0.5 -30.5t1.5 -30.5q1 -17 3 -34h-138q-1 11 -2 25q-1 11 -1 27v35h-5q-16 -41 -56 -70t-97 -29q-34 0 -63.5 9.5t-51 29.5t-34 52t-12.5 77v304h140zM357 637l-71 -71l-165 166 l71 71z" />
<glyph unicode="&#xfa;" horiz-adv-x="585" d="M200 460v-263q0 -38 17.5 -62.5t57.5 -24.5q51 0 75.5 29.5t24.5 83.5v237h140v-365q0 -14 0.5 -30.5t1.5 -30.5q1 -17 3 -34h-138q-1 11 -2 25q-1 11 -1 27v35h-5q-16 -41 -56 -70t-97 -29q-34 0 -63.5 9.5t-51 29.5t-34 52t-12.5 77v304h140zM375 803l71 -71l-165 -166 l-71 71z" />
<glyph unicode="&#xfb;" horiz-adv-x="585" d="M200 460v-263q0 -38 17.5 -62.5t57.5 -24.5q51 0 75.5 29.5t24.5 83.5v237h140v-365q0 -14 0.5 -30.5t1.5 -30.5q1 -17 3 -34h-138q-1 11 -2 25q-1 11 -1 27v35h-5q-16 -41 -56 -70t-97 -29q-34 0 -63.5 9.5t-51 29.5t-34 52t-12.5 77v304h140zM84 566l179 190h63 l178 -190h-126l-84 116l-83 -116h-127z" />
<glyph unicode="&#xfc;" horiz-adv-x="585" d="M200 460v-263q0 -38 17.5 -62.5t57.5 -24.5q51 0 75.5 29.5t24.5 83.5v237h140v-365q0 -14 0.5 -30.5t1.5 -30.5q1 -17 3 -34h-138q-1 11 -2 25q-1 11 -1 27v35h-5q-16 -41 -56 -70t-97 -29q-34 0 -63.5 9.5t-51 29.5t-34 52t-12.5 77v304h140zM254 644 q0 -35 -22.5 -56.5t-56.5 -21.5t-56 21.5t-22 56.5q0 36 22 57.5t56 21.5t56.5 -21.5t22.5 -57.5zM487 644q0 -35 -22.5 -56.5t-54.5 -21.5q-35 0 -57 21.5t-22 56.5q0 36 22 57.5t57 21.5q32 0 54.5 -21.5t22.5 -57.5z" />
<glyph unicode="&#xfd;" horiz-adv-x="503" d="M-7 460h150l109 -359l104 359h146l-214 -594q-11 -32 -27.5 -53t-36 -33t-41 -17t-43.5 -5q-25 0 -52.5 4.5t-47.5 11.5l22 120q15 -5 31 -8.5t32 -3.5q15 0 28.5 5.5t18.5 22.5l14 41zM354 803l71 -71l-165 -166l-71 71z" />
<glyph unicode="&#xfe;" horiz-adv-x="609" d="M209 384q17 37 56 62.5t93 25.5q40 0 80 -15.5t71 -45.5t50.5 -75.5t19.5 -105.5t-19.5 -105.5t-50.5 -75.5t-71 -45.5t-80 -15.5q-51 0 -88.5 21t-57.5 51h-5q2 -14 2.5 -30.5t0.5 -26.5v-233h-140v941h140v-254q0 -10 -2 -31l-4 -42h5zM434 230q0 36 -9 61t-25 40.5 t-37 23t-46 7.5q-50 0 -81.5 -30.5t-31.5 -101.5t31.5 -101.5t81.5 -30.5q25 0 46 7.5t37 23t25 40.5t9 61z" />
<glyph unicode="&#xff;" horiz-adv-x="503" d="M-7 460h150l109 -359l104 359h146l-214 -594q-11 -32 -27.5 -53t-36 -33t-41 -17t-43.5 -5q-25 0 -52.5 4.5t-47.5 11.5l22 120q15 -5 31 -8.5t32 -3.5q15 0 28.5 5.5t18.5 22.5l14 41zM213 644q0 -35 -22.5 -56.5t-56.5 -21.5t-56 21.5t-22 56.5q0 36 22 57.5t56 21.5 t56.5 -21.5t22.5 -57.5zM446 644q0 -35 -22.5 -56.5t-54.5 -21.5q-35 0 -57 21.5t-22 56.5q0 36 22 57.5t57 21.5q32 0 54.5 -21.5t22.5 -57.5z" />
<glyph unicode="&#x100;" horiz-adv-x="642" d="M5 0l221 651h170l241 -651h-148l-41 118h-262l-36 -118h-145zM218 240h194l-103 294zM139 833h340v-95h-340v95z" />
<glyph unicode="&#x101;" horiz-adv-x="555" d="M511 105q11 0 19 3v-90q-13 -10 -33.5 -17t-49.5 -7q-44 0 -64 24t-23 59h-4q-14 -37 -50.5 -63t-93.5 -26q-80 0 -124.5 40.5t-44.5 104.5q0 37 16.5 61t43 39t58.5 22.5t63 11.5l122 16v11q0 42 -27.5 59.5t-74.5 17.5t-79.5 -17.5t-49.5 -42.5l-54 85q11 12 28.5 26 t42.5 25t58.5 18.5t76.5 7.5q99 0 155 -42t56 -134v-37t0.5 -44t0.5 -41v-29q0 -41 32 -41zM347 205l-97 -14q-35 -5 -55.5 -16.5t-20.5 -38.5q0 -22 16 -36.5t48 -14.5q30 0 51 7.5t34 19t18.5 25t5.5 26.5v42zM107 661h340v-95h-340v95z" />
<glyph unicode="&#x102;" horiz-adv-x="642" d="M5 0l221 651h170l241 -651h-148l-41 118h-262l-36 -118h-145zM218 240h194l-103 294zM508 917q0 -45 -16.5 -78.5t-44 -56t-63.5 -33.5t-75 -11t-75 11t-63 33.5t-43.5 56t-16.5 78.5h106q0 -50 26.5 -70.5t65.5 -20.5q40 0 66 20.5t26 70.5h107z" />
<glyph unicode="&#x103;" horiz-adv-x="555" d="M511 105q11 0 19 3v-90q-13 -10 -33.5 -17t-49.5 -7q-44 0 -64 24t-23 59h-4q-14 -37 -50.5 -63t-93.5 -26q-80 0 -124.5 40.5t-44.5 104.5q0 37 16.5 61t43 39t58.5 22.5t63 11.5l122 16v11q0 42 -27.5 59.5t-74.5 17.5t-79.5 -17.5t-49.5 -42.5l-54 85q11 12 28.5 26 t42.5 25t58.5 18.5t76.5 7.5q99 0 155 -42t56 -134v-37t0.5 -44t0.5 -41v-29q0 -41 32 -41zM347 205l-97 -14q-35 -5 -55.5 -16.5t-20.5 -38.5q0 -22 16 -36.5t48 -14.5q30 0 51 7.5t34 19t18.5 25t5.5 26.5v42zM474 745q0 -45 -16.5 -78.5t-44 -56t-63.5 -33.5t-75 -11 t-75 11t-63 33.5t-43.5 56t-16.5 78.5h106q0 -50 26.5 -70.5t65.5 -20.5q40 0 66 20.5t26 70.5h107z" />
<glyph unicode="&#x104;" horiz-adv-x="642" d="M5 0l221 651h170l241 -651h-148l-41 118h-262l-36 -118h-145zM218 240h194l-103 294zM607 9q-107 -50 -107 -97q0 -44 48 -44q31 0 59 21l35 -54q-50 -34 -116 -34q-118 4 -118 98q0 55 80 101q18 10 32 17z" />
<glyph unicode="&#x105;" horiz-adv-x="555" d="M511 105q11 0 19 3v-90q-13 -10 -33.5 -17t-49.5 -7q-44 0 -64 24t-23 59h-4q-14 -37 -50.5 -63t-93.5 -26q-80 0 -124.5 40.5t-44.5 104.5q0 37 16.5 61t43 39t58.5 22.5t63 11.5l122 16v11q0 42 -27.5 59.5t-74.5 17.5t-79.5 -17.5t-49.5 -42.5l-54 85q11 12 28.5 26 t42.5 25t58.5 18.5t76.5 7.5q99 0 155 -42t56 -134v-37t0.5 -44t0.5 -41v-29q0 -41 32 -41zM347 205l-97 -14q-35 -5 -55.5 -16.5t-20.5 -38.5q0 -22 16 -36.5t48 -14.5q30 0 51 7.5t34 19t18.5 25t5.5 26.5v42zM505 9q-107 -50 -107 -97q0 -44 48 -44q31 0 59 21l35 -54 q-50 -34 -116 -34q-118 4 -118 98q0 55 80 101q18 10 32 17z" />
<glyph unicode="&#x106;" horiz-adv-x="675" d="M516 449q-17 35 -55.5 60.5t-104.5 25.5q-86 0 -126 -55.5t-40 -150.5q0 -99 44 -156t128 -57q66 0 104.5 27.5t54.5 65.5l123 -67q-36 -70 -107 -112t-180 -42q-70 0 -129 23t-101.5 66.5t-66.5 106t-24 141.5q0 80 24.5 143t68 106.5t102.5 66t128 22.5q56 0 101.5 -12 t80 -31t57 -43t33.5 -47zM447 975l71 -71l-165 -166l-71 71z" />
<glyph unicode="&#x107;" horiz-adv-x="495" d="M279 473q78 0 127.5 -22t68.5 -54l-66 -94q-14 26 -43 43.5t-74 17.5q-54 0 -85.5 -33.5t-31.5 -99.5t33.5 -98.5t84.5 -32.5q44 0 70 15t37 36l75 -87q-19 -32 -69.5 -54t-126.5 -22q-53 0 -99 16.5t-79.5 47.5t-52 76.5t-18.5 102.5t19.5 102t53 76t79.5 47.5t97 16.5z M362 803l71 -71l-165 -166l-71 71z" />
<glyph unicode="&#x108;" horiz-adv-x="675" d="M516 449q-17 35 -55.5 60.5t-104.5 25.5q-86 0 -126 -55.5t-40 -150.5q0 -99 44 -156t128 -57q66 0 104.5 27.5t54.5 65.5l123 -67q-36 -70 -107 -112t-180 -42q-70 0 -129 23t-101.5 66.5t-66.5 106t-24 141.5q0 80 24.5 143t68 106.5t102.5 66t128 22.5q56 0 101.5 -12 t80 -31t57 -43t33.5 -47zM148 738l179 190h63l178 -190h-126l-84 116l-83 -116h-127z" />
<glyph unicode="&#x109;" horiz-adv-x="495" d="M279 473q78 0 127.5 -22t68.5 -54l-66 -94q-14 26 -43 43.5t-74 17.5q-54 0 -85.5 -33.5t-31.5 -99.5t33.5 -98.5t84.5 -32.5q44 0 70 15t37 36l75 -87q-19 -32 -69.5 -54t-126.5 -22q-53 0 -99 16.5t-79.5 47.5t-52 76.5t-18.5 102.5t19.5 102t53 76t79.5 47.5t97 16.5z M57 566l179 190h63l178 -190h-126l-84 116l-83 -116h-127z" />
<glyph unicode="&#x10a;" horiz-adv-x="675" d="M516 449q-17 35 -55.5 60.5t-104.5 25.5q-86 0 -126 -55.5t-40 -150.5q0 -99 44 -156t128 -57q66 0 104.5 27.5t54.5 65.5l123 -67q-36 -70 -107 -112t-180 -42q-70 0 -129 23t-101.5 66.5t-66.5 106t-24 141.5q0 80 24.5 143t68 106.5t102.5 66t128 22.5q56 0 101.5 -12 t80 -31t57 -43t33.5 -47zM439 791q0 -38 -23.5 -60.5t-58.5 -22.5q-36 0 -59.5 22.5t-23.5 60.5t23.5 61t59.5 23q35 0 58.5 -23t23.5 -61z" />
<glyph unicode="&#x10b;" horiz-adv-x="495" d="M279 473q78 0 127.5 -22t68.5 -54l-66 -94q-14 26 -43 43.5t-74 17.5q-54 0 -85.5 -33.5t-31.5 -99.5t33.5 -98.5t84.5 -32.5q44 0 70 15t37 36l75 -87q-19 -32 -69.5 -54t-126.5 -22q-53 0 -99 16.5t-79.5 47.5t-52 76.5t-18.5 102.5t19.5 102t53 76t79.5 47.5t97 16.5z M360 649q0 -38 -23.5 -60.5t-58.5 -22.5q-36 0 -59.5 22.5t-23.5 60.5t23.5 61t59.5 23q35 0 58.5 -23t23.5 -61z" />
<glyph unicode="&#x10c;" horiz-adv-x="675" d="M516 449q-17 35 -55.5 60.5t-104.5 25.5q-86 0 -126 -55.5t-40 -150.5q0 -99 44 -156t128 -57q66 0 104.5 27.5t54.5 65.5l123 -67q-36 -70 -107 -112t-180 -42q-70 0 -129 23t-101.5 66.5t-66.5 106t-24 141.5q0 80 24.5 143t68 106.5t102.5 66t128 22.5q56 0 101.5 -12 t80 -31t57 -43t33.5 -47zM567 928l-179 -190h-63l-178 190h126l84 -116l83 116h127z" />
<glyph unicode="&#x10d;" horiz-adv-x="495" d="M279 473q78 0 127.5 -22t68.5 -54l-66 -94q-14 26 -43 43.5t-74 17.5q-54 0 -85.5 -33.5t-31.5 -99.5t33.5 -98.5t84.5 -32.5q44 0 70 15t37 36l75 -87q-19 -32 -69.5 -54t-126.5 -22q-53 0 -99 16.5t-79.5 47.5t-52 76.5t-18.5 102.5t19.5 102t53 76t79.5 47.5t97 16.5z M480 756l-179 -190h-63l-178 190h126l84 -116l83 116h127z" />
<glyph unicode="&#x10e;" horiz-adv-x="695" d="M70 0v651h268q153 0 237.5 -84t84.5 -242q0 -156 -84.5 -240.5t-237.5 -84.5h-268zM328 123q89 0 135.5 48t46.5 154q0 107 -46.5 155t-135.5 48h-111v-405h111zM531 928l-179 -190h-63l-178 190h126l84 -116l83 116h127z" />
<glyph unicode="&#x10f;" horiz-adv-x="629" d="M539 711v-617q0 -16 0.5 -32t1.5 -30q1 -16 3 -32h-135q0 11 -1 23q-1 20 -3 53h-5q-8 -18 -21.5 -34t-33 -28t-45 -19t-58.5 -7q-44 0 -82.5 16.5t-67.5 48t-45.5 76.5t-16.5 101q0 55 17.5 100t47.5 76.5t70 48.5t85 17q56 0 94.5 -22t52.5 -50h5l-2 20q-1 8 -1 18v19 v254h140zM175 230q0 -71 33.5 -101.5t83.5 -30.5q25 0 45.5 7.5t35.5 23t23.5 40.5t8.5 61t-8.5 61t-23.5 40.5t-35.5 23t-45.5 7.5q-50 0 -83.5 -30.5t-33.5 -101.5zM585 520l15 207l129 -16l-48 -202z" />
<glyph unicode="&#x110;" horiz-adv-x="725" d="M25 387h75v264h268q153 0 237.5 -84t84.5 -242q0 -156 -84.5 -240.5t-237.5 -84.5h-268v268h-75v119zM358 123q89 0 135.5 48t46.5 154q0 107 -46.5 155t-135.5 48h-111v-141h149v-119h-149v-145h111z" />
<glyph unicode="&#x111;" horiz-adv-x="609" d="M276 619h123v92h140v-92h75v-94h-75v-431q0 -16 0.5 -32t1.5 -30q1 -16 3 -32h-135q0 11 -1 23q-1 20 -3 53h-5q-17 -37 -57 -62.5t-101 -25.5q-44 0 -82.5 16.5t-67.5 48t-45.5 76.5t-16.5 101q0 55 17.5 100t47.5 76.5t70 48.5t85 17q62 0 97.5 -21t49.5 -51h5l-2 20 q-1 8 -1 18v19v68h-123v94zM175 230q0 -71 33.5 -101.5t83.5 -30.5q25 0 45.5 7.5t35.5 23t23.5 40.5t8.5 61t-8.5 61t-23.5 40.5t-35.5 23t-45.5 7.5q-50 0 -83.5 -30.5t-33.5 -101.5z" />
<glyph unicode="&#x112;" horiz-adv-x="595" d="M220 528v-140h288v-121h-288v-144h320v-123h-470v651h460v-123h-310zM131 833h340v-95h-340v95z" />
<glyph unicode="&#x113;" horiz-adv-x="550" d="M515 235q0 -7 -0.5 -13.5t-0.5 -11.5q-1 -6 -1 -13h-338q0 -30 11 -50t28 -32.5t37.5 -17.5t40.5 -5q54 0 89 14t58 40l46 -92q-32 -29 -84 -47.5t-112 -18.5q-67 0 -115.5 22t-80 57.5t-46.5 80t-15 89.5q0 44 15.5 86.5t46.5 75.5t76 53.5t105 20.5q78 0 125 -25 t72.5 -61.5t34 -77.5t8.5 -74zM374 283q0 37 -24.5 62.5t-73.5 25.5q-51 0 -77 -25.5t-26 -62.5h201zM105 661h340v-95h-340v95z" />
<glyph unicode="&#x114;" horiz-adv-x="595" d="M220 528v-140h288v-121h-288v-144h320v-123h-470v651h460v-123h-310zM495 917q0 -45 -16.5 -78.5t-44 -56t-63.5 -33.5t-75 -11t-75 11t-63 33.5t-43.5 56t-16.5 78.5h106q0 -50 26.5 -70.5t65.5 -20.5q40 0 66 20.5t26 70.5h107z" />
<glyph unicode="&#x115;" horiz-adv-x="550" d="M515 235q0 -7 -0.5 -13.5t-0.5 -11.5q-1 -6 -1 -13h-338q0 -30 11 -50t28 -32.5t37.5 -17.5t40.5 -5q54 0 89 14t58 40l46 -92q-32 -29 -84 -47.5t-112 -18.5q-67 0 -115.5 22t-80 57.5t-46.5 80t-15 89.5q0 44 15.5 86.5t46.5 75.5t76 53.5t105 20.5q78 0 125 -25 t72.5 -61.5t34 -77.5t8.5 -74zM374 283q0 37 -24.5 62.5t-73.5 25.5q-51 0 -77 -25.5t-26 -62.5h201zM473 745q0 -45 -16.5 -78.5t-44 -56t-63.5 -33.5t-75 -11t-75 11t-63 33.5t-43.5 56t-16.5 78.5h106q0 -50 26.5 -70.5t65.5 -20.5q40 0 66 20.5t26 70.5h107z" />
<glyph unicode="&#x116;" horiz-adv-x="595" d="M220 528v-140h288v-121h-288v-144h320v-123h-470v651h460v-123h-310zM392 791q0 -38 -23.5 -60.5t-58.5 -22.5q-36 0 -59.5 22.5t-23.5 60.5t23.5 61t59.5 23q35 0 58.5 -23t23.5 -61z" />
<glyph unicode="&#x117;" horiz-adv-x="550" d="M515 235q0 -7 -0.5 -13.5t-0.5 -11.5q-1 -6 -1 -13h-338q0 -30 11 -50t28 -32.5t37.5 -17.5t40.5 -5q54 0 89 14t58 40l46 -92q-32 -29 -84 -47.5t-112 -18.5q-67 0 -115.5 22t-80 57.5t-46.5 80t-15 89.5q0 44 15.5 86.5t46.5 75.5t76 53.5t105 20.5q78 0 125 -25 t72.5 -61.5t34 -77.5t8.5 -74zM374 283q0 37 -24.5 62.5t-73.5 25.5q-51 0 -77 -25.5t-26 -62.5h201zM357 649q0 -38 -23.5 -60.5t-58.5 -22.5q-36 0 -59.5 22.5t-23.5 60.5t23.5 61t59.5 23q35 0 58.5 -23t23.5 -61z" />
<glyph unicode="&#x118;" horiz-adv-x="595" d="M220 528v-140h288v-121h-288v-144h320v-123h-470v651h460v-123h-310zM506 9q-107 -50 -107 -97q0 -44 48 -44q31 0 59 21l35 -54q-50 -34 -116 -34q-118 4 -118 98q0 55 80 101q18 10 32 17z" />
<glyph unicode="&#x119;" horiz-adv-x="550" d="M515 235q0 -7 -0.5 -13.5t-0.5 -11.5q-1 -6 -1 -13h-338q0 -30 11 -50t28 -32.5t37.5 -17.5t40.5 -5q54 0 89 14t58 40l46 -92q-32 -29 -84 -47.5t-112 -18.5q-67 0 -115.5 22t-80 57.5t-46.5 80t-15 89.5q0 44 15.5 86.5t46.5 75.5t76 53.5t105 20.5q78 0 125 -25 t72.5 -61.5t34 -77.5t8.5 -74zM374 283q0 37 -24.5 62.5t-73.5 25.5q-51 0 -77 -25.5t-26 -62.5h201zM390 9q-107 -50 -107 -97q0 -44 48 -44q31 0 59 21l35 -54q-50 -34 -116 -34q-118 4 -118 98q0 55 80 101q18 10 32 17z" />
<glyph unicode="&#x11a;" horiz-adv-x="595" d="M220 528v-140h288v-121h-288v-144h320v-123h-470v651h460v-123h-310zM511 928l-179 -190h-63l-178 190h126l84 -116l83 116h127z" />
<glyph unicode="&#x11b;" horiz-adv-x="550" d="M515 235q0 -7 -0.5 -13.5t-0.5 -11.5q-1 -6 -1 -13h-338q0 -30 11 -50t28 -32.5t37.5 -17.5t40.5 -5q54 0 89 14t58 40l46 -92q-32 -29 -84 -47.5t-112 -18.5q-67 0 -115.5 22t-80 57.5t-46.5 80t-15 89.5q0 44 15.5 86.5t46.5 75.5t76 53.5t105 20.5q78 0 125 -25 t72.5 -61.5t34 -77.5t8.5 -74zM374 283q0 37 -24.5 62.5t-73.5 25.5q-51 0 -77 -25.5t-26 -62.5h201zM488 756l-179 -190h-63l-178 190h126l84 -116l83 116h127z" />
<glyph unicode="&#x11c;" horiz-adv-x="690" d="M501 246h-147v120h281v-366h-103l-12 87h-4q-5 -12 -17 -28.5t-33 -32.5t-51.5 -27t-72.5 -11q-62 0 -117.5 23.5t-97.5 67.5t-66.5 107t-24.5 142t24.5 141t68 105t103 66t129.5 23q43 0 78.5 -5t66 -16.5t56.5 -29.5t52 -44l-89 -98q-28 35 -69 55.5t-101 20.5 q-43 0 -75 -16t-53 -45t-31.5 -68.5t-10.5 -86.5q0 -50 11.5 -90.5t34.5 -69.5t57.5 -45t81.5 -16q36 0 61 9t40.5 23t22.5 31t7 33v41zM143 738l179 190h63l178 -190h-126l-84 116l-83 -116h-127z" />
<glyph unicode="&#x11d;" horiz-adv-x="569" d="M553 359q-4 1 -10 3q-5 1 -14.5 2t-22.5 1q-20 0 -33 -4.5t-20 -7.5q14 -33 14 -68q0 -42 -17.5 -71t-46 -47.5t-65 -28.5t-73.5 -13q-9 -1 -19 -2.5t-18.5 -5.5t-14 -11t-5.5 -19q0 -15 10.5 -23t27.5 -8h143q74 0 105 -29t31 -77q0 -52 -27 -88.5t-68 -59.5t-89 -33.5 t-90 -10.5q-47 0 -88.5 5.5t-72 19t-48 37.5t-17.5 61q0 33 16 54t37 33t42 16.5t30 4.5q-5 2 -13.5 6t-16.5 11.5t-14.5 19.5t-6.5 29q0 16 7 28t17.5 20.5t22 14.5t20.5 9q-24 7 -46 22.5t-39 36.5t-27 47.5t-10 57.5q0 41 17 74.5t45.5 57t67 36.5t82.5 13q47 0 85 -14 t66 -38q5 8 15 19.5t24 22.5t33 19t42 8q8 0 15 -0.5t12 -0.5q6 -1 11 -1zM222 -40q-38 0 -51.5 -18t-13.5 -44q0 -29 25.5 -43.5t83.5 -14.5t91 14.5t33 49.5t-20 45.5t-56 10.5h-92zM255 211q85 0 85 83t-85 83t-85 -83t85 -83zM74 566l179 190h63l178 -190h-126l-84 116 l-83 -116h-127z" />
<glyph unicode="&#x11e;" horiz-adv-x="690" d="M501 246h-147v120h281v-366h-103l-12 87h-4q-5 -12 -17 -28.5t-33 -32.5t-51.5 -27t-72.5 -11q-62 0 -117.5 23.5t-97.5 67.5t-66.5 107t-24.5 142t24.5 141t68 105t103 66t129.5 23q43 0 78.5 -5t66 -16.5t56.5 -29.5t52 -44l-89 -98q-28 35 -69 55.5t-101 20.5 q-43 0 -75 -16t-53 -45t-31.5 -68.5t-10.5 -86.5q0 -50 11.5 -90.5t34.5 -69.5t57.5 -45t81.5 -16q36 0 61 9t40.5 23t22.5 31t7 33v41zM553 917q0 -45 -16.5 -78.5t-44 -56t-63.5 -33.5t-75 -11t-75 11t-63 33.5t-43.5 56t-16.5 78.5h106q0 -50 26.5 -70.5t65.5 -20.5 q40 0 66 20.5t26 70.5h107z" />
<glyph unicode="&#x11f;" horiz-adv-x="569" d="M553 359q-4 1 -10 3q-5 1 -14.5 2t-22.5 1q-20 0 -33 -4.5t-20 -7.5q14 -33 14 -68q0 -42 -17.5 -71t-46 -47.5t-65 -28.5t-73.5 -13q-9 -1 -19 -2.5t-18.5 -5.5t-14 -11t-5.5 -19q0 -15 10.5 -23t27.5 -8h143q74 0 105 -29t31 -77q0 -52 -27 -88.5t-68 -59.5t-89 -33.5 t-90 -10.5q-47 0 -88.5 5.5t-72 19t-48 37.5t-17.5 61q0 33 16 54t37 33t42 16.5t30 4.5q-5 2 -13.5 6t-16.5 11.5t-14.5 19.5t-6.5 29q0 16 7 28t17.5 20.5t22 14.5t20.5 9q-24 7 -46 22.5t-39 36.5t-27 47.5t-10 57.5q0 41 17 74.5t45.5 57t67 36.5t82.5 13q47 0 85 -14 t66 -38q5 8 15 19.5t24 22.5t33 19t42 8q8 0 15 -0.5t12 -0.5q6 -1 11 -1zM222 -40q-38 0 -51.5 -18t-13.5 -44q0 -29 25.5 -43.5t83.5 -14.5t91 14.5t33 49.5t-20 45.5t-56 10.5h-92zM255 211q85 0 85 83t-85 83t-85 -83t85 -83zM455 745q0 -45 -16.5 -78.5t-44 -56 t-63.5 -33.5t-75 -11t-75 11t-63 33.5t-43.5 56t-16.5 78.5h106q0 -50 26.5 -70.5t65.5 -20.5q40 0 66 20.5t26 70.5h107z" />
<glyph unicode="&#x120;" horiz-adv-x="690" d="M501 246h-147v120h281v-366h-103l-12 87h-4q-5 -12 -17 -28.5t-33 -32.5t-51.5 -27t-72.5 -11q-62 0 -117.5 23.5t-97.5 67.5t-66.5 107t-24.5 142t24.5 141t68 105t103 66t129.5 23q43 0 78.5 -5t66 -16.5t56.5 -29.5t52 -44l-89 -98q-28 35 -69 55.5t-101 20.5 q-43 0 -75 -16t-53 -45t-31.5 -68.5t-10.5 -86.5q0 -50 11.5 -90.5t34.5 -69.5t57.5 -45t81.5 -16q36 0 61 9t40.5 23t22.5 31t7 33v41zM437 791q0 -38 -23.5 -60.5t-58.5 -22.5q-36 0 -59.5 22.5t-23.5 60.5t23.5 61t59.5 23q35 0 58.5 -23t23.5 -61z" />
<glyph unicode="&#x121;" horiz-adv-x="569" d="M553 359q-4 1 -10 3q-5 1 -14.5 2t-22.5 1q-20 0 -33 -4.5t-20 -7.5q14 -33 14 -68q0 -42 -17.5 -71t-46 -47.5t-65 -28.5t-73.5 -13q-9 -1 -19 -2.5t-18.5 -5.5t-14 -11t-5.5 -19q0 -15 10.5 -23t27.5 -8h143q74 0 105 -29t31 -77q0 -52 -27 -88.5t-68 -59.5t-89 -33.5 t-90 -10.5q-47 0 -88.5 5.5t-72 19t-48 37.5t-17.5 61q0 33 16 54t37 33t42 16.5t30 4.5q-5 2 -13.5 6t-16.5 11.5t-14.5 19.5t-6.5 29q0 16 7 28t17.5 20.5t22 14.5t20.5 9q-24 7 -46 22.5t-39 36.5t-27 47.5t-10 57.5q0 41 17 74.5t45.5 57t67 36.5t82.5 13q47 0 85 -14 t66 -38q5 8 15 19.5t24 22.5t33 19t42 8q8 0 15 -0.5t12 -0.5q6 -1 11 -1zM222 -40q-38 0 -51.5 -18t-13.5 -44q0 -29 25.5 -43.5t83.5 -14.5t91 14.5t33 49.5t-20 45.5t-56 10.5h-92zM255 211q85 0 85 83t-85 83t-85 -83t85 -83zM367 649q0 -38 -23.5 -60.5t-58.5 -22.5 q-36 0 -59.5 22.5t-23.5 60.5t23.5 61t59.5 23q35 0 58.5 -23t23.5 -61z" />
<glyph unicode="&#x122;" horiz-adv-x="690" d="M501 246h-147v120h281v-366h-103l-12 87h-4q-5 -12 -17 -28.5t-33 -32.5t-51.5 -27t-72.5 -11q-62 0 -117.5 23.5t-97.5 67.5t-66.5 107t-24.5 142t24.5 141t68 105t103 66t129.5 23q43 0 78.5 -5t66 -16.5t56.5 -29.5t52 -44l-89 -98q-28 35 -69 55.5t-101 20.5 q-43 0 -75 -16t-53 -45t-31.5 -68.5t-10.5 -86.5q0 -50 11.5 -90.5t34.5 -69.5t57.5 -45t81.5 -16q36 0 61 9t40.5 23t22.5 31t7 33v41zM274 -258l11 176l120 -19l-54 -170z" />
<glyph unicode="&#x123;" horiz-adv-x="569" d="M553 359q-4 1 -10 3q-5 1 -14.5 2t-22.5 1q-20 0 -33 -4.5t-20 -7.5q14 -33 14 -68q0 -42 -17.5 -71t-46 -47.5t-65 -28.5t-73.5 -13q-9 -1 -19 -2.5t-18.5 -5.5t-14 -11t-5.5 -19q0 -15 10.5 -23t27.5 -8h143q74 0 105 -29t31 -77q0 -52 -27 -88.5t-68 -59.5t-89 -33.5 t-90 -10.5q-47 0 -88.5 5.5t-72 19t-48 37.5t-17.5 61q0 33 16 54t37 33t42 16.5t30 4.5q-5 2 -13.5 6t-16.5 11.5t-14.5 19.5t-6.5 29q0 16 7 28t17.5 20.5t22 14.5t20.5 9q-24 7 -46 22.5t-39 36.5t-27 47.5t-10 57.5q0 41 17 74.5t45.5 57t67 36.5t82.5 13q47 0 85 -14 t66 -38q5 8 15 19.5t24 22.5t33 19t42 8q8 0 15 -0.5t12 -0.5q6 -1 11 -1zM222 -40q-38 0 -51.5 -18t-13.5 -44q0 -29 25.5 -43.5t83.5 -14.5t91 14.5t33 49.5t-20 45.5t-56 10.5h-92zM255 211q85 0 85 83t-85 83t-85 -83t85 -83zM351.006 734.984l-10.999 -175.989 l-119.993 18.999l53.9971 169.989z" />
<glyph unicode="&#x124;" horiz-adv-x="716" d="M646 651v-651h-150v263h-276v-263h-150v651h150v-263h276v263h150zM143 738l179 190h63l178 -190h-126l-84 116l-83 -116h-127z" />
<glyph unicode="&#x125;" horiz-adv-x="595" d="M395 263q0 38 -21 62.5t-61 24.5q-51 0 -77 -34t-26 -88v-228h-140v711h140v-332q9 18 24 35t35.5 30t45 20.5t52.5 7.5q34 0 64.5 -9.5t53.5 -29.5t36.5 -52t13.5 -77v-304h-140v263zM85 847l179 190h63l178 -190h-126l-84 116l-83 -116h-127z" />
<glyph unicode="&#x126;" horiz-adv-x="776" d="M676 651v-94h75v-119h-75v-438h-150v213h-276v-213h-150v438h-75v119h75v94h150v-94h276v94h150zM526 338v100h-276v-100h276z" />
<glyph unicode="&#x127;" horiz-adv-x="595" d="M-5 619h75v92h140v-92h123v-94h-123v-146q9 18 24 35t35.5 30t45 20.5t52.5 7.5q34 0 64.5 -9.5t53.5 -29.5t36.5 -52t13.5 -77v-304h-140v263q0 38 -21 62.5t-61 24.5q-51 0 -77 -34t-26 -88v-228h-140v525h-75v94z" />
<glyph unicode="&#x128;" horiz-adv-x="290" d="M70 0v651h150v-651h-150zM314 902q3 -12 6 -33t3 -39q0 -20 -5 -35.5t-16.5 -28.5t-30.5 -20.5t-47 -7.5q-31 0 -49 10.5t-31 20.5t-25.5 20.5t-29.5 10.5q-20 0 -27.5 -12.5t-7.5 -28.5v-11t1 -10h-76q-5 16 -7.5 36.5t-2.5 34.5q0 39 26.5 66t73.5 27q28 0 48 -10.5 t36 -22t29.5 -19.5t29.5 -8q17 0 22.5 11t5.5 24v11.5t-1 13.5h75z" />
<glyph unicode="&#x129;" horiz-adv-x="280" d="M70 0v460h140v-460h-140zM309 730q3 -12 6 -33t3 -39q0 -20 -5 -35.5t-16.5 -28.5t-30.5 -20.5t-47 -7.5q-31 0 -49 10.5t-31 20.5t-25.5 20.5t-29.5 10.5q-20 0 -27.5 -12.5t-7.5 -28.5v-11t1 -10h-76q-5 16 -7.5 36.5t-2.5 34.5q0 39 26.5 66t73.5 27q28 0 48 -10.5 t36 -22t29.5 -19.5t29.5 -8q17 0 22.5 11t5.5 24v11.5t-1 13.5h75z" />
<glyph unicode="&#x12a;" horiz-adv-x="290" d="M70 0v651h150v-651h-150zM-27 833h340v-95h-340v95z" />
<glyph unicode="&#x12b;" horiz-adv-x="280" d="M-29 661h340v-95h-340v95zM70 0v460h140v-460h-140z" />
<glyph unicode="&#x12c;" horiz-adv-x="290" d="M70 0v651h150v-651h-150zM340 917q0 -45 -16.5 -78.5t-44 -56t-63.5 -33.5t-75 -11t-75 11t-63 33.5t-43.5 56t-16.5 78.5h106q0 -50 26.5 -70.5t65.5 -20.5q40 0 66 20.5t26 70.5h107z" />
<glyph unicode="&#x12d;" horiz-adv-x="280" d="M70 0v460h140v-460h-140zM340 745q0 -45 -16.5 -78.5t-44 -56t-63.5 -33.5t-75 -11t-75 11t-63 33.5t-43.5 56t-16.5 78.5h106q0 -50 26.5 -70.5t65.5 -20.5q40 0 66 20.5t26 70.5h107z" />
<glyph unicode="&#x12e;" horiz-adv-x="290" d="M70 0v651h150v-651h-150zM180 9q-107 -50 -107 -97q0 -44 48 -44q31 0 59 21l35 -54q-50 -34 -116 -34q-118 4 -118 98q0 55 80 101q18 10 32 17z" />
<glyph unicode="&#x12f;" horiz-adv-x="280" d="M176 9q-107 -50 -107 -97q0 -44 48 -44q31 0 59 21l35 -54q-50 -34 -116 -34q-118 4 -118 98q0 55 80 101q18 10 32 17zM70 0v460h140v-460h-140zM220 649q0 -38 -23.5 -60.5t-58.5 -22.5q-36 0 -59.5 22.5t-23.5 60.5t23.5 61t59.5 23q35 0 58.5 -23t23.5 -61z" />
<glyph unicode="&#x130;" horiz-adv-x="290" d="M70 0v651h150v-651h-150zM225 791q0 -38 -23.5 -60.5t-58.5 -22.5q-36 0 -59.5 22.5t-23.5 60.5t23.5 61t59.5 23q35 0 58.5 -23t23.5 -61z" />
<glyph unicode="&#x131;" horiz-adv-x="280" d="M70 0v460h140v-460h-140z" />
<glyph unicode="&#x132;" horiz-adv-x="789" d="M70 0v651h150v-651h-150zM724 651v-441q0 -105 -53.5 -163.5t-163.5 -58.5q-64 0 -105 15.5t-65 35.5q-28 22 -42 51l84 107q11 -24 27 -42q14 -16 34.5 -29t49.5 -13q41 0 62.5 18.5t21.5 68.5v451h150z" />
<glyph unicode="&#x133;" horiz-adv-x="560" d="M70 0v460h140v-460h-140zM223 649q0 -38 -23.5 -60.5t-58.5 -22.5q-36 0 -59.5 22.5t-23.5 60.5t23.5 61t59.5 23q35 0 58.5 -23t23.5 -61zM502 649q0 -38 -23.5 -60.5t-58.5 -22.5q-36 0 -59.5 22.5t-23.5 60.5t23.5 61t59.5 23q35 0 58.5 -23t23.5 -61zM490 460v-544 q0 -70 -40 -114t-123 -44q-31 0 -55.5 6t-47.5 15l10 117q11 -6 27 -10.5t32 -4.5q29 0 43 17.5t14 69.5v492h140z" />
<glyph unicode="&#x134;" horiz-adv-x="499" d="M434 651v-441q0 -105 -53.5 -163.5t-163.5 -58.5q-64 0 -105 15.5t-65 35.5q-28 22 -42 51l84 107q11 -24 27 -42q14 -16 34.5 -29t49.5 -13q41 0 62.5 18.5t21.5 68.5v451h150zM149 738l179 190h63l178 -190h-126l-84 116l-83 -116h-127z" />
<glyph unicode="&#x135;" horiz-adv-x="280" d="M210 460v-544q0 -70 -40 -114t-123 -44q-31 0 -55.5 6t-47.5 15l10 117q11 -6 27 -10.5t32 -4.5q29 0 43 17.5t14 69.5v492h140zM-17 566l129 190h63l128 -190h-106l-54 116l-53 -116h-107z" />
<glyph unicode="&#x136;" horiz-adv-x="652" d="M220 344l241 307h164l-236 -276l243 -375h-162l-181 296l-69 -79v-217h-150v651h150v-307zM249 -258l11 176l120 -19l-54 -170z" />
<glyph unicode="&#x137;" horiz-adv-x="530" d="M362 460h153l-177 -200l187 -260h-155l-124 204l-40 -40v-164h-136v711h136v-445zM199 -258l11 176l120 -19l-54 -170z" />
<glyph unicode="&#x138;" horiz-adv-x="530" d="M362 460h153l-177 -200l187 -260h-155l-124 204l-40 -40v-164h-136v460h136v-194z" />
<glyph unicode="&#x139;" horiz-adv-x="525" d="M220 651v-526h285v-125h-435v651h150zM347 975l71 -71l-165 -166l-71 71z" />
<glyph unicode="&#x13a;" horiz-adv-x="280" d="M70 711h140v-711h-140v711zM228 1084l71 -71l-165 -166l-71 71z" />
<glyph unicode="&#x13b;" horiz-adv-x="525" d="M220 651v-526h285v-125h-435v651h150zM197 -258l11 176l120 -19l-54 -170z" />
<glyph unicode="&#x13c;" horiz-adv-x="280" d="M70 711h140v-711h-140v711zM74 -258l11 176l120 -19l-54 -170z" />
<glyph unicode="&#x13d;" horiz-adv-x="525" d="M220 651v-526h285v-125h-435v651h150zM306 461l15 207l129 -16l-48 -202z" />
<glyph unicode="&#x13e;" d="M70 711h140v-711h-140v711zM256 520l15 207l129 -16l-48 -202z" />
<glyph unicode="&#x13f;" horiz-adv-x="525" d="M220 651v-526h285v-125h-435v651h150zM474 369q0 -37 -22 -59t-54 -22q-29 0 -51.5 22t-22.5 59q0 35 22.5 56.5t51.5 21.5q32 0 54 -21.5t22 -56.5z" />
<glyph unicode="&#x140;" horiz-adv-x="472" d="M70 711h140v-711h-140v711zM441 363q0 -37 -22 -59t-54 -22q-29 0 -51.5 22t-22.5 59q0 35 22.5 56.5t51.5 21.5q32 0 54 -21.5t22 -56.5z" />
<glyph unicode="&#x141;" horiz-adv-x="525" d="M220 125h285v-125h-435v268l-70 -23v118l70 22v266h150v-224l148 46v-118l-148 -44v-186z" />
<glyph unicode="&#x142;" d="M80 282l-70 -20v93l70 19v337h140v-309l70 21v-93l-70 -20v-310h-140v282z" />
<glyph unicode="&#x143;" horiz-adv-x="726" d="M190 0h-120v651h132l344 -485q-2 55 -4 123t-3.5 134.5t-2 126.5t-0.5 101h120v-651h-133l-343 473q2 -54 4 -120t3.5 -131t2 -123.5t0.5 -98.5zM448 975l71 -71l-165 -166l-71 71z" />
<glyph unicode="&#x144;" horiz-adv-x="595" d="M395 263q0 38 -19 62.5t-59 24.5q-51 0 -79 -34t-28 -88v-228h-140v365q0 14 -1 30.5t-2 30.5l-2 34h138q0 -13 1 -27q1 -13 1.5 -29t0.5 -35h5q8 21 23 39.5t35 32.5t45 22.5t53 8.5q34 0 64.5 -9.5t53.5 -29.5t36.5 -52t13.5 -77v-304h-140v263zM375 803l71 -71 l-165 -166l-71 71z" />
<glyph unicode="&#x145;" horiz-adv-x="726" d="M190 0h-120v651h132l344 -485q-2 55 -4 123t-3.5 134.5t-2 126.5t-0.5 101h120v-651h-133l-343 473q2 -54 4 -120t3.5 -131t2 -123.5t0.5 -98.5zM307 -258l11 176l120 -19l-54 -170z" />
<glyph unicode="&#x146;" horiz-adv-x="595" d="M395 263q0 38 -19 62.5t-59 24.5q-51 0 -79 -34t-28 -88v-228h-140v365q0 14 -1 30.5t-2 30.5l-2 34h138q0 -13 1 -27q1 -13 1.5 -29t0.5 -35h5q8 21 23 39.5t35 32.5t45 22.5t53 8.5q34 0 64.5 -9.5t53.5 -29.5t36.5 -52t13.5 -77v-304h-140v263zM242 -258l11 176 l120 -19l-54 -170z" />
<glyph unicode="&#x147;" horiz-adv-x="726" d="M190 0h-120v651h132l344 -485q-2 55 -4 123t-3.5 134.5t-2 126.5t-0.5 101h120v-651h-133l-343 473q2 -54 4 -120t3.5 -131t2 -123.5t0.5 -98.5zM577 928l-179 -190h-63l-178 190h126l84 -116l83 116h127z" />
<glyph unicode="&#x148;" horiz-adv-x="595" d="M395 263q0 38 -19 62.5t-59 24.5q-51 0 -79 -34t-28 -88v-228h-140v365q0 14 -1 30.5t-2 30.5l-2 34h138q0 -13 1 -27q1 -13 1.5 -29t0.5 -35h5q8 21 23 39.5t35 32.5t45 22.5t53 8.5q34 0 64.5 -9.5t53.5 -29.5t36.5 -52t13.5 -77v-304h-140v263zM510 756l-179 -190h-63 l-178 190h126l84 -116l83 116h127z" />
<glyph unicode="&#x149;" horiz-adv-x="775" d="M575 263q0 38 -19 62.5t-59 24.5q-51 0 -79 -34t-28 -88v-228h-140v365q0 14 -1 30.5t-2 30.5l-2 34h138q0 -13 1 -27q1 -13 1.5 -29t0.5 -35h5q8 21 23 39.5t35 32.5t45 22.5t53 8.5q34 0 64.5 -9.5t53.5 -29.5t36.5 -52t13.5 -77v-304h-140v263zM84 651h111v-107 q0 -51 -22 -83.5t-54 -46.5l-84 41q20 8 34.5 29.5t14.5 59.5v107z" />
<glyph unicode="&#x14a;" horiz-adv-x="726" d="M656 651v-735q0 -70 -40 -114t-123 -44q-31 0 -55.5 6t-47.5 15l10 117q13 -6 31.5 -10.5t36.5 -4.5q33 0 49 17.5t16 69.5v32l-353 473q2 -54 4 -120t3.5 -131t2 -123.5t0.5 -98.5h-120v651h132l344 -474q-2 55 -4 117.5t-3.5 129t-2 126.5t-0.5 101h120z" />
<glyph unicode="&#x14b;" horiz-adv-x="595" d="M395 263q0 38 -19 62.5t-59 24.5q-51 0 -79 -34t-28 -88v-228h-140v365q0 14 -1 30.5t-2 30.5l-2 34h138q0 -13 1 -27q1 -13 1.5 -29t0.5 -35h5q8 21 23 39.5t35 32.5t45 22.5t53 8.5q34 0 64.5 -9.5t53.5 -29.5t36.5 -52t13.5 -77v-388q0 -70 -40 -114t-123 -44 q-31 0 -55.5 6t-47.5 15l10 117q11 -6 27 -10.5t32 -4.5q29 0 43 17.5t14 69.5v295z" />
<glyph unicode="&#x14c;" horiz-adv-x="717" d="M681 326q0 -79 -24 -142t-67 -106.5t-102 -66.5t-129 -23t-129 23t-102 66.5t-67.5 106.5t-24.5 142q0 80 24.5 142.5t67.5 106t102 66t129 22.5t129 -22.5t102 -66t67 -106t24 -142.5zM530 326q0 106 -47.5 158t-123.5 52t-124 -52t-48 -158q0 -105 48 -158t124 -53 t123.5 53t47.5 158zM185 833h340v-95h-340v95z" />
<glyph unicode="&#x14d;" horiz-adv-x="575" d="M545 230q0 -58 -20 -103t-54.5 -76t-81.5 -47t-101 -16t-101 16t-82 47t-55 76t-20 103t20 103.5t55 76t82 46.5t101 16t101 -16t81.5 -46.5t54.5 -76t20 -103.5zM400 230q0 71 -31.5 101.5t-80.5 30.5q-50 0 -81.5 -30.5t-31.5 -101.5t31.5 -101.5t81.5 -30.5 q49 0 80.5 30.5t31.5 101.5zM117 661h340v-95h-340v95z" />
<glyph unicode="&#x14e;" horiz-adv-x="717" d="M681 326q0 -79 -24 -142t-67 -106.5t-102 -66.5t-129 -23t-129 23t-102 66.5t-67.5 106.5t-24.5 142q0 80 24.5 142.5t67.5 106t102 66t129 22.5t129 -22.5t102 -66t67 -106t24 -142.5zM530 326q0 106 -47.5 158t-123.5 52t-124 -52t-48 -158q0 -105 48 -158t124 -53 t123.5 53t47.5 158zM552 917q0 -45 -16.5 -78.5t-44 -56t-63.5 -33.5t-75 -11t-75 11t-63 33.5t-43.5 56t-16.5 78.5h106q0 -50 26.5 -70.5t65.5 -20.5q40 0 66 20.5t26 70.5h107z" />
<glyph unicode="&#x14f;" horiz-adv-x="575" d="M545 230q0 -58 -20 -103t-54.5 -76t-81.5 -47t-101 -16t-101 16t-82 47t-55 76t-20 103t20 103.5t55 76t82 46.5t101 16t101 -16t81.5 -46.5t54.5 -76t20 -103.5zM400 230q0 71 -31.5 101.5t-80.5 30.5q-50 0 -81.5 -30.5t-31.5 -101.5t31.5 -101.5t81.5 -30.5 q49 0 80.5 30.5t31.5 101.5zM484 745q0 -45 -16.5 -78.5t-44 -56t-63.5 -33.5t-75 -11t-75 11t-63 33.5t-43.5 56t-16.5 78.5h106q0 -50 26.5 -70.5t65.5 -20.5q40 0 66 20.5t26 70.5h107z" />
<glyph unicode="&#x150;" horiz-adv-x="717" d="M681 326q0 -79 -24 -142t-67 -106.5t-102 -66.5t-129 -23t-129 23t-102 66.5t-67.5 106.5t-24.5 142q0 80 24.5 142.5t67.5 106t102 66t129 22.5t129 -22.5t102 -66t67 -106t24 -142.5zM530 326q0 106 -47.5 158t-123.5 52t-124 -52t-48 -158q0 -105 48 -158t124 -53 t123.5 53t47.5 158zM342 975l71 -66l-148 -171l-71 66zM557 975l71 -66l-148 -171l-71 66z" />
<glyph unicode="&#x151;" horiz-adv-x="575" d="M545 230q0 -58 -20 -103t-54.5 -76t-81.5 -47t-101 -16t-101 16t-82 47t-55 76t-20 103t20 103.5t55 76t82 46.5t101 16t101 -16t81.5 -46.5t54.5 -76t20 -103.5zM400 230q0 71 -31.5 101.5t-80.5 30.5q-50 0 -81.5 -30.5t-31.5 -101.5t31.5 -101.5t81.5 -30.5 q49 0 80.5 30.5t31.5 101.5zM273 803l68 -66l-149 -171l-68 66zM475 803l68 -66l-149 -171l-68 66z" />
<glyph unicode="&#x152;" horiz-adv-x="1041" d="M675 528v-140h279v-121h-279v-144h311v-123h-456v80q-15 -17 -35 -33.5t-45 -29.5t-54.5 -21t-63.5 -8q-62 0 -116 23.5t-94 67.5t-63 106.5t-23 140.5t23 140t63 106t94 67.5t116 23.5q34 0 63.5 -8t54.5 -21t45 -29.5t35 -33.5v80h446v-123h-301zM530 326 q0 106 -47.5 158t-123.5 52t-124 -52t-48 -158q0 -105 48 -158t124 -53t123.5 53t47.5 158z" />
<glyph unicode="&#x153;" horiz-adv-x="909" d="M874 233q0 -8 -0.5 -18.5t-1.5 -18.5h-338q0 -30 11.5 -50t29 -32t39 -17.5t43.5 -5.5q34 0 60.5 8.5t44.5 19.5q21 12 36 28l46 -94q-20 -19 -48 -33q-25 -12 -62 -22t-90 -10q-69 0 -113 26t-70 64q-28 -39 -72.5 -64.5t-105.5 -25.5q-54 0 -100.5 16t-80 47t-53 76 t-19.5 103t19.5 103.5t53 76t80 46.5t100.5 16q66 0 109 -26t71 -66q27 39 75 65t106 26q63 0 106.5 -17.5t71 -49t40 -75.5t12.5 -96zM283 98q49 0 80.5 30.5t31.5 101.5t-31.5 101.5t-80.5 30.5q-50 0 -81.5 -30.5t-31.5 -101.5t31.5 -101.5t81.5 -30.5zM733 282 q0 49 -28.5 68.5t-69.5 19.5q-44 0 -72 -20t-31 -68h201z" />
<glyph unicode="&#x154;" horiz-adv-x="642" d="M459 0l-128 238h-115v-238h-146v651h284q63 0 108 -15t73.5 -41t42 -62t13.5 -79q0 -47 -14 -80.5t-35 -56.5t-44.5 -37t-42.5 -20l157 -260h-153zM216 352h114q66 0 89.5 24t23.5 66t-23 66t-82 24h-122v-180zM392 975l71 -71l-165 -166l-71 71z" />
<glyph unicode="&#x155;" horiz-adv-x="395" d="M368 312q-7 2 -23.5 4t-36.5 2q-27 0 -46 -10.5t-30.5 -28t-16.5 -41.5t-5 -51v-187h-140v365q0 14 -1 30.5t-2 30.5l-2 34h138q0 -16 1 -34q1 -15 1.5 -33.5t0.5 -37.5h5q11 32 31 58q17 22 45.5 40.5t73.5 18.5q3 0 7.5 -0.5t6.5 -1.5zM295 803l71 -71l-165 -166 l-71 71z" />
<glyph unicode="&#x156;" horiz-adv-x="642" d="M459 0l-128 238h-115v-238h-146v651h284q63 0 108 -15t73.5 -41t42 -62t13.5 -79q0 -47 -14 -80.5t-35 -56.5t-44.5 -37t-42.5 -20l157 -260h-153zM216 352h114q66 0 89.5 24t23.5 66t-23 66t-82 24h-122v-180zM261 -258l11 176l120 -19l-54 -170z" />
<glyph unicode="&#x157;" horiz-adv-x="395" d="M368 312q-7 2 -23.5 4t-36.5 2q-27 0 -46 -10.5t-30.5 -28t-16.5 -41.5t-5 -51v-187h-140v365q0 14 -1 30.5t-2 30.5l-2 34h138q0 -16 1 -34q1 -15 1.5 -33.5t0.5 -37.5h5q11 32 31 58q17 22 45.5 40.5t73.5 18.5q3 0 7.5 -0.5t6.5 -1.5zM60 -258l11 176l120 -19 l-54 -170z" />
<glyph unicode="&#x158;" horiz-adv-x="642" d="M459 0l-128 238h-115v-238h-146v651h284q63 0 108 -15t73.5 -41t42 -62t13.5 -79q0 -47 -14 -80.5t-35 -56.5t-44.5 -37t-42.5 -20l157 -260h-153zM216 352h114q66 0 89.5 24t23.5 66t-23 66t-82 24h-122v-180zM518 928l-179 -190h-63l-178 190h126l84 -116l83 116h127z " />
<glyph unicode="&#x159;" horiz-adv-x="395" d="M368 312q-7 2 -23.5 4t-36.5 2q-27 0 -46 -10.5t-30.5 -28t-16.5 -41.5t-5 -51v-187h-140v365q0 14 -1 30.5t-2 30.5l-2 34h138q0 -16 1 -34q1 -15 1.5 -33.5t0.5 -37.5h5q11 32 31 58q17 22 45.5 40.5t73.5 18.5q3 0 7.5 -0.5t6.5 -1.5zM410 756l-179 -190h-63l-178 190 h126l84 -116l83 116h127z" />
<glyph unicode="&#x15a;" horiz-adv-x="592" d="M440 477q-22 29 -56.5 48.5t-88.5 19.5q-23 0 -39 -7t-26.5 -17.5t-15 -23t-4.5 -24.5q0 -18 11 -30.5t29.5 -22.5t43.5 -18t53 -15q40 -11 76.5 -25t64.5 -35t44.5 -52t16.5 -76q0 -44 -17.5 -82t-50 -67t-79.5 -45.5t-107 -16.5q-51 0 -91.5 9.5t-72 26t-54 38.5 t-38.5 48l104 89q23 -38 63.5 -65t100.5 -27q42 0 70 17t28 51q0 21 -7.5 34.5t-23 22.5t-39 16.5t-54.5 16.5q-39 11 -77.5 26t-69 37.5t-49.5 54.5t-19 77q0 44 17.5 81t50 64t77.5 42.5t100 15.5q87 0 141 -31t81 -74zM402 975l71 -71l-165 -166l-71 71z" />
<glyph unicode="&#x15b;" horiz-adv-x="480" d="M341 803l71 -71l-165 -166l-71 71zM367 331q-15 14 -45 27.5t-72 13.5q-27 0 -46.5 -12t-19.5 -29q0 -11 6.5 -18t19.5 -12t32 -10t44 -12q33 -9 62 -19.5t51 -26t35 -39t13 -58.5q0 -29 -15 -55.5t-43 -47t-66.5 -33t-86.5 -12.5q-46 0 -79 7t-56.5 17t-38 20.5 t-22.5 16.5l-4 3l77 90q18 -21 48 -37t68 -16q32 0 53.5 10.5t21.5 30.5q0 12 -5.5 19t-18 12.5t-34 11t-52.5 14.5q-30 9 -57 19t-48 24.5t-33 36t-12 52.5q0 34 16 62t43.5 48.5t65 31.5t80.5 11q46 0 79.5 -6.5t55.5 -15t34.5 -17.5t17.5 -14z" />
<glyph unicode="&#x15c;" horiz-adv-x="592" d="M440 477q-22 29 -56.5 48.5t-88.5 19.5q-23 0 -39 -7t-26.5 -17.5t-15 -23t-4.5 -24.5q0 -18 11 -30.5t29.5 -22.5t43.5 -18t53 -15q40 -11 76.5 -25t64.5 -35t44.5 -52t16.5 -76q0 -44 -17.5 -82t-50 -67t-79.5 -45.5t-107 -16.5q-51 0 -91.5 9.5t-72 26t-54 38.5 t-38.5 48l104 89q23 -38 63.5 -65t100.5 -27q42 0 70 17t28 51q0 21 -7.5 34.5t-23 22.5t-39 16.5t-54.5 16.5q-39 11 -77.5 26t-69 37.5t-49.5 54.5t-19 77q0 44 17.5 81t50 64t77.5 42.5t100 15.5q87 0 141 -31t81 -74zM95 738l179 190h63l178 -190h-126l-84 116l-83 -116 h-127z" />
<glyph unicode="&#x15d;" horiz-adv-x="480" d="M37 566l179 190h63l178 -190h-126l-84 116l-83 -116h-127zM367 331q-15 14 -45 27.5t-72 13.5q-27 0 -46.5 -12t-19.5 -29q0 -11 6.5 -18t19.5 -12t32 -10t44 -12q33 -9 62 -19.5t51 -26t35 -39t13 -58.5q0 -29 -15 -55.5t-43 -47t-66.5 -33t-86.5 -12.5q-46 0 -79 7 t-56.5 17t-38 20.5t-22.5 16.5l-4 3l77 90q18 -21 48 -37t68 -16q32 0 53.5 10.5t21.5 30.5q0 12 -5.5 19t-18 12.5t-34 11t-52.5 14.5q-30 9 -57 19t-48 24.5t-33 36t-12 52.5q0 34 16 62t43.5 48.5t65 31.5t80.5 11q46 0 79.5 -6.5t55.5 -15t34.5 -17.5t17.5 -14z" />
<glyph unicode="&#x15e;" horiz-adv-x="592" d="M440 477q-22 29 -56.5 48.5t-88.5 19.5q-23 0 -39 -7t-26.5 -17.5t-15 -23t-4.5 -24.5q0 -18 11 -30.5t29.5 -22.5t43.5 -18t53 -15q40 -11 76.5 -25t64.5 -35t44.5 -52t16.5 -76q0 -44 -17.5 -82t-50 -67t-79.5 -45.5t-107 -16.5q-51 0 -91.5 9.5t-72 26t-54 38.5 t-38.5 48l104 89q23 -38 63.5 -65t100.5 -27q42 0 70 17t28 51q0 21 -7.5 34.5t-23 22.5t-39 16.5t-54.5 16.5q-39 11 -77.5 26t-69 37.5t-49.5 54.5t-19 77q0 44 17.5 81t50 64t77.5 42.5t100 15.5q87 0 141 -31t81 -74zM304 17q13 -7 26 -17q76 -52 76 -101 q0 -98 -131 -98q-57 0 -108 34l35 54q29 -21 62 -21q50 0 50 44q0 47 -97 97z" />
<glyph unicode="&#x15f;" horiz-adv-x="480" d="M367 331q-15 14 -45 27.5t-72 13.5q-27 0 -46.5 -12t-19.5 -29q0 -11 6.5 -18t19.5 -12t32 -10t44 -12q33 -9 62 -19.5t51 -26t35 -39t13 -58.5q0 -29 -15 -55.5t-43 -47t-66.5 -33t-86.5 -12.5q-46 0 -79 7t-56.5 17t-38 20.5t-22.5 16.5l-4 3l77 90q18 -21 48 -37 t68 -16q32 0 53.5 10.5t21.5 30.5q0 12 -5.5 19t-18 12.5t-34 11t-52.5 14.5q-30 9 -57 19t-48 24.5t-33 36t-12 52.5q0 34 16 62t43.5 48.5t65 31.5t80.5 11q46 0 79.5 -6.5t55.5 -15t34.5 -17.5t17.5 -14zM240 17q13 -7 26 -17q76 -52 76 -101q0 -98 -131 -98 q-57 0 -108 34l35 54q29 -21 62 -21q50 0 50 44q0 47 -97 97z" />
<glyph unicode="&#x160;" horiz-adv-x="592" d="M440 477q-22 29 -56.5 48.5t-88.5 19.5q-23 0 -39 -7t-26.5 -17.5t-15 -23t-4.5 -24.5q0 -18 11 -30.5t29.5 -22.5t43.5 -18t53 -15q40 -11 76.5 -25t64.5 -35t44.5 -52t16.5 -76q0 -44 -17.5 -82t-50 -67t-79.5 -45.5t-107 -16.5q-51 0 -91.5 9.5t-72 26t-54 38.5 t-38.5 48l104 89q23 -38 63.5 -65t100.5 -27q42 0 70 17t28 51q0 21 -7.5 34.5t-23 22.5t-39 16.5t-54.5 16.5q-39 11 -77.5 26t-69 37.5t-49.5 54.5t-19 77q0 44 17.5 81t50 64t77.5 42.5t100 15.5q87 0 141 -31t81 -74zM519 928l-179 -190h-63l-178 190h126l84 -116 l83 116h127z" />
<glyph unicode="&#x161;" horiz-adv-x="480" d="M456 756l-179 -190h-63l-178 190h126l84 -116l83 116h127zM367 331q-15 14 -45 27.5t-72 13.5q-27 0 -46.5 -12t-19.5 -29q0 -11 6.5 -18t19.5 -12t32 -10t44 -12q33 -9 62 -19.5t51 -26t35 -39t13 -58.5q0 -29 -15 -55.5t-43 -47t-66.5 -33t-86.5 -12.5q-46 0 -79 7 t-56.5 17t-38 20.5t-22.5 16.5l-4 3l77 90q18 -21 48 -37t68 -16q32 0 53.5 10.5t21.5 30.5q0 12 -5.5 19t-18 12.5t-34 11t-52.5 14.5q-30 9 -57 19t-48 24.5t-33 36t-12 52.5q0 34 16 62t43.5 48.5t65 31.5t80.5 11q46 0 79.5 -6.5t55.5 -15t34.5 -17.5t17.5 -14z" />
<glyph unicode="&#x162;" horiz-adv-x="567" d="M15 651h537v-125h-193v-526h-150v526h-194v125zM213 -258l11 176l120 -19l-54 -170z" />
<glyph unicode="&#x163;" horiz-adv-x="400" d="M85 460v103l137 30v-133h136v-118h-136v-164q0 -29 13.5 -47.5t45.5 -18.5q23 0 43.5 7t32.5 16l8 -116q-20 -12 -55 -21.5t-77 -9.5q-32 0 -59.5 7.5t-47 24t-30.5 43t-11 64.5v215h-70v118h70zM124 -258l11 176l120 -19l-54 -170z" />
<glyph unicode="&#x164;" horiz-adv-x="567" d="M15 651h537v-125h-193v-526h-150v526h-194v125zM494 928l-179 -190h-63l-178 190h126l84 -116l83 116h127z" />
<glyph unicode="&#x165;" horiz-adv-x="400" d="M85 460v103l137 30v-133h136v-118h-136v-164q0 -29 13.5 -47.5t45.5 -18.5q23 0 43.5 7t32.5 16l8 -116q-20 -12 -55 -21.5t-77 -9.5q-32 0 -59.5 7.5t-47 24t-30.5 43t-11 64.5v215h-70v118h70zM268 520l15 207l129 -16l-48 -202z" />
<glyph unicode="&#x166;" horiz-adv-x="587" d="M25 651h537v-125h-193v-149h143v-119h-143v-258h-150v258h-144v119h144v149h-194v125z" />
<glyph unicode="&#x167;" horiz-adv-x="420" d="M95 460v103l137 30v-133h136v-118h-136v-60h126v-89h-126v-15q0 -29 13.5 -47.5t45.5 -18.5q23 0 43.5 7t32.5 16l8 -116q-20 -12 -55 -21.5t-77 -9.5q-32 0 -59.5 7.5t-47 24t-30.5 43t-11 64.5v66h-65v89h65v60h-70v118h70z" />
<glyph unicode="&#x168;" horiz-adv-x="680" d="M338 -12q-130 0 -201.5 64t-71.5 178v421h150v-400q0 -38 10 -64t27 -42t39.5 -23t48.5 -7t48.5 7t39.5 23t27 42t10 64v400h150v-421q0 -54 -19 -99t-55 -76.5t-87.5 -49t-115.5 -17.5zM504 902q3 -12 6 -33t3 -39q0 -20 -5 -35.5t-16.5 -28.5t-30.5 -20.5t-47 -7.5 q-31 0 -49 10.5t-31 20.5t-25.5 20.5t-29.5 10.5q-20 0 -27.5 -12.5t-7.5 -28.5v-11t1 -10h-76q-5 16 -7.5 36.5t-2.5 34.5q0 39 26.5 66t73.5 27q28 0 48 -10.5t36 -22t29.5 -19.5t29.5 -8q17 0 22.5 11t5.5 24v11.5t-1 13.5h75z" />
<glyph unicode="&#x169;" horiz-adv-x="585" d="M200 460v-263q0 -38 17.5 -62.5t57.5 -24.5q51 0 75.5 29.5t24.5 83.5v237h140v-365q0 -14 0.5 -30.5t1.5 -30.5q1 -17 3 -34h-138q-1 11 -2 25q-1 11 -1 27v35h-5q-16 -41 -56 -70t-97 -29q-34 0 -63.5 9.5t-51 29.5t-34 52t-12.5 77v304h140zM460 730q3 -12 6 -33 t3 -39q0 -20 -5 -35.5t-16.5 -28.5t-30.5 -20.5t-47 -7.5q-31 0 -49 10.5t-31 20.5t-25.5 20.5t-29.5 10.5q-20 0 -27.5 -12.5t-7.5 -28.5v-11t1 -10h-76q-5 16 -7.5 36.5t-2.5 34.5q0 39 26.5 66t73.5 27q28 0 48 -10.5t36 -22t29.5 -19.5t29.5 -8q17 0 22.5 11t5.5 24 v11.5t-1 13.5h75z" />
<glyph unicode="&#x16a;" horiz-adv-x="680" d="M338 -12q-130 0 -201.5 64t-71.5 178v421h150v-400q0 -38 10 -64t27 -42t39.5 -23t48.5 -7t48.5 7t39.5 23t27 42t10 64v400h150v-421q0 -54 -19 -99t-55 -76.5t-87.5 -49t-115.5 -17.5zM167 833h340v-95h-340v95z" />
<glyph unicode="&#x16b;" horiz-adv-x="585" d="M200 460v-263q0 -38 17.5 -62.5t57.5 -24.5q51 0 75.5 29.5t24.5 83.5v237h140v-365q0 -14 0.5 -30.5t1.5 -30.5q1 -17 3 -34h-138q-1 11 -2 25q-1 11 -1 27v35h-5q-16 -41 -56 -70t-97 -29q-34 0 -63.5 9.5t-51 29.5t-34 52t-12.5 77v304h140zM122 661h340v-95h-340v95z " />
<glyph unicode="&#x16c;" horiz-adv-x="680" d="M338 -12q-130 0 -201.5 64t-71.5 178v421h150v-400q0 -38 10 -64t27 -42t39.5 -23t48.5 -7t48.5 7t39.5 23t27 42t10 64v400h150v-421q0 -54 -19 -99t-55 -76.5t-87.5 -49t-115.5 -17.5zM534 917q0 -45 -16.5 -78.5t-44 -56t-63.5 -33.5t-75 -11t-75 11t-63 33.5 t-43.5 56t-16.5 78.5h106q0 -50 26.5 -70.5t65.5 -20.5q40 0 66 20.5t26 70.5h107z" />
<glyph unicode="&#x16d;" horiz-adv-x="585" d="M200 460v-263q0 -38 17.5 -62.5t57.5 -24.5q51 0 75.5 29.5t24.5 83.5v237h140v-365q0 -14 0.5 -30.5t1.5 -30.5q1 -17 3 -34h-138q-1 11 -2 25q-1 11 -1 27v35h-5q-16 -41 -56 -70t-97 -29q-34 0 -63.5 9.5t-51 29.5t-34 52t-12.5 77v304h140zM491 745 q0 -45 -16.5 -78.5t-44 -56t-63.5 -33.5t-75 -11t-75 11t-63 33.5t-43.5 56t-16.5 78.5h106q0 -50 26.5 -70.5t65.5 -20.5q40 0 66 20.5t26 70.5h107z" />
<glyph unicode="&#x16e;" horiz-adv-x="680" d="M338 -12q-130 0 -201.5 64t-71.5 178v421h150v-400q0 -38 10 -64t27 -42t39.5 -23t48.5 -7t48.5 7t39.5 23t27 42t10 64v400h150v-421q0 -54 -19 -99t-55 -76.5t-87.5 -49t-115.5 -17.5zM205 865q0 26 9 49t26.5 40t42 27t54.5 10q29 0 53.5 -10t42 -27t27 -40t9.5 -49 q0 -55 -36.5 -91t-95.5 -36q-61 0 -96.5 36t-35.5 91zM278 865q0 -30 16 -45t43 -15q26 0 42.5 15t16.5 45q0 29 -16.5 44t-42.5 15q-27 0 -43 -15t-16 -44z" />
<glyph unicode="&#x16f;" horiz-adv-x="585" d="M200 460v-263q0 -38 17.5 -62.5t57.5 -24.5q51 0 75.5 29.5t24.5 83.5v237h140v-365q0 -14 0.5 -30.5t1.5 -30.5q1 -17 3 -34h-138q-1 11 -2 25q-1 11 -1 27v35h-5q-16 -41 -56 -70t-97 -29q-34 0 -63.5 9.5t-51 29.5t-34 52t-12.5 77v304h140zM160 693q0 26 9 49 t26.5 40t42 27t54.5 10q29 0 53.5 -10t42 -27t27 -40t9.5 -49q0 -55 -36.5 -91t-95.5 -36q-61 0 -96.5 36t-35.5 91zM233 693q0 -30 16 -45t43 -15q26 0 42.5 15t16.5 45q0 29 -16.5 44t-42.5 15q-27 0 -43 -15t-16 -44z" />
<glyph unicode="&#x170;" horiz-adv-x="680" d="M338 -12q-130 0 -201.5 64t-71.5 178v421h150v-400q0 -38 10 -64t27 -42t39.5 -23t48.5 -7t48.5 7t39.5 23t27 42t10 64v400h150v-421q0 -54 -19 -99t-55 -76.5t-87.5 -49t-115.5 -17.5zM302 975l71 -66l-148 -171l-71 66zM517 975l71 -66l-148 -171l-71 66z" />
<glyph unicode="&#x171;" horiz-adv-x="585" d="M200 460v-263q0 -38 17.5 -62.5t57.5 -24.5q51 0 75.5 29.5t24.5 83.5v237h140v-365q0 -14 0.5 -30.5t1.5 -30.5q1 -17 3 -34h-138q-1 11 -2 25q-1 11 -1 27v35h-5q-16 -41 -56 -70t-97 -29q-34 0 -63.5 9.5t-51 29.5t-34 52t-12.5 77v304h140zM270 803l68 -66l-149 -171 l-68 66zM472 803l68 -66l-149 -171l-68 66z" />
<glyph unicode="&#x172;" horiz-adv-x="680" d="M338 -12q-130 0 -201.5 64t-71.5 178v421h150v-400q0 -38 10 -64t27 -42t39.5 -23t48.5 -7t48.5 7t39.5 23t27 42t10 64v400h150v-421q0 -54 -19 -99t-55 -76.5t-87.5 -49t-115.5 -17.5zM451 9q-107 -50 -107 -97q0 -44 48 -44q31 0 59 21l35 -54q-50 -34 -116 -34 q-118 4 -118 98q0 55 80 101q18 10 32 17z" />
<glyph unicode="&#x173;" horiz-adv-x="585" d="M200 460v-263q0 -38 17.5 -62.5t57.5 -24.5q51 0 75.5 29.5t24.5 83.5v237h140v-365q0 -14 0.5 -30.5t1.5 -30.5q1 -17 3 -34h-138q-1 11 -2 25q-1 11 -1 27v35h-5q-16 -41 -56 -70t-97 -29q-34 0 -63.5 9.5t-51 29.5t-34 52t-12.5 77v304h140zM491 9q-107 -50 -107 -97 q0 -44 48 -44q31 0 59 21l35 -54q-50 -34 -116 -34q-118 4 -118 98q0 55 80 101q18 10 32 17z" />
<glyph unicode="&#x174;" horiz-adv-x="952" d="M189 0l-174 651h139l116 -527l134 527h147l138 -527l112 527h136l-170 -651h-155l-136 535l-132 -535h-155zM265 738l179 190h63l178 -190h-126l-84 116l-83 -116h-127z" />
<glyph unicode="&#x175;" horiz-adv-x="780" d="M458 460l94 -348l77 348h136l-150 -460h-136l-91 358l-92 -358h-138l-143 460h140l76 -348l91 348h136zM180 566l179 190h63l178 -190h-126l-84 116l-83 -116h-127z" />
<glyph unicode="&#x176;" horiz-adv-x="616" d="M10 651h152l148 -282l147 282h149l-222 -387v-264h-151v264zM99 738l179 190h63l178 -190h-126l-84 116l-83 -116h-127z" />
<glyph unicode="&#x177;" horiz-adv-x="503" d="M-7 460h150l109 -359l104 359h146l-214 -594q-11 -32 -27.5 -53t-36 -33t-41 -17t-43.5 -5q-25 0 -52.5 4.5t-47.5 11.5l22 120q15 -5 31 -8.5t32 -3.5q15 0 28.5 5.5t18.5 22.5l14 41zM41 566l179 190h63l178 -190h-126l-84 116l-83 -116h-127z" />
<glyph unicode="&#x178;" horiz-adv-x="616" d="M10 651h152l148 -282l147 282h149l-222 -387v-264h-151v264zM272 816q0 -35 -22.5 -56.5t-56.5 -21.5t-56 21.5t-22 56.5q0 36 22 57.5t56 21.5t56.5 -21.5t22.5 -57.5zM505 816q0 -35 -22.5 -56.5t-54.5 -21.5q-35 0 -57 21.5t-22 56.5q0 36 22 57.5t57 21.5 q32 0 54.5 -21.5t22.5 -57.5z" />
<glyph unicode="&#x179;" horiz-adv-x="565" d="M522 543l-34 -43l-297 -375h334v-125h-500v108l37 47l296 371h-323v125h487v-108zM360 975l71 -71l-165 -166l-71 71z" />
<glyph unicode="&#x17a;" horiz-adv-x="463" d="M429 367l-47 -48l-196 -201h247v-118h-403v93l44 45l204 204h-239v118h390v-93zM329 803l71 -71l-165 -166l-71 71z" />
<glyph unicode="&#x17b;" horiz-adv-x="565" d="M522 543l-34 -43l-297 -375h334v-125h-500v108l37 47l296 371h-323v125h487v-108zM359 791q0 -38 -23.5 -60.5t-58.5 -22.5q-36 0 -59.5 22.5t-23.5 60.5t23.5 61t59.5 23q35 0 58.5 -23t23.5 -61z" />
<glyph unicode="&#x17c;" horiz-adv-x="463" d="M429 367l-47 -48l-196 -201h247v-118h-403v93l44 45l204 204h-239v118h390v-93zM314 649q0 -38 -23.5 -60.5t-58.5 -22.5q-36 0 -59.5 22.5t-23.5 60.5t23.5 61t59.5 23q35 0 58.5 -23t23.5 -61z" />
<glyph unicode="&#x17d;" horiz-adv-x="565" d="M522 543l-34 -43l-297 -375h334v-125h-500v108l37 47l296 371h-323v125h487v-108zM490 928l-179 -190h-63l-178 190h126l84 -116l83 116h127z" />
<glyph unicode="&#x17e;" horiz-adv-x="463" d="M429 367l-47 -48l-196 -201h247v-118h-403v93l44 45l204 204h-239v118h390v-93zM446 756l-179 -190h-63l-178 190h126l84 -116l83 116h127z" />
<glyph unicode="&#x17f;" horiz-adv-x="280" d="M70 0v565q0 70 42.5 114t125.5 44q24 0 41.5 -3t29.5 -7q13 -4 23 -10l-9 -116q-7 2 -17 5q-8 2 -19 4t-22 2q-26 0 -40.5 -15t-14.5 -49v-534h-140z" />
<glyph unicode="&#x180;" horiz-adv-x="609" d="M210 711v-92h123v-94h-123v-68q0 -9 -0.5 -19t-1.5 -18q-1 -10 -1 -20h5q11 20 31 36q17 14 45.5 25t70.5 11q45 0 85 -17t70 -48.5t47.5 -76.5t17.5 -100q0 -56 -16.5 -101t-45.5 -76.5t-67.5 -48t-82.5 -16.5q-45 0 -75 13.5t-49 30.5q-22 19 -34 44h-5q-2 -33 -3 -53 q-1 -12 -1 -23h-135l2 32q1 14 2 30t1 32v431h-75v94h75v92h140zM434 230q0 36 -9 61t-25 40.5t-37 23t-46 7.5q-50 0 -81.5 -30.5t-31.5 -101.5t31.5 -101.5t81.5 -30.5q25 0 46 7.5t37 23t25 40.5t9 61z" />
<glyph unicode="&#x18f;" horiz-adv-x="667" d="M452 362q-2 84 -45 128.5t-121 44.5q-36 0 -62.5 -7t-45.5 -19t-32.5 -28.5t-23.5 -36.5l-123 68q12 26 37 53t61.5 48.5t84.5 35.5t106 14q84 0 144 -27t99 -73.5t57.5 -107.5t18.5 -130q0 -81 -24 -144t-67 -105.5t-102 -65t-129 -22.5q-75 0 -131 23t-93 65t-56 100.5 t-20 130.5v24t1 31h466zM294 110q66 0 110 35.5t46 98.5h-305v-9q0 -22 8 -44t26 -40t46 -29.5t69 -11.5z" />
<glyph unicode="&#x192;" horiz-adv-x="420" d="M33 272v61h83v91q0 70 44.5 109t119.5 39q24 0 42 -3t30 -7q14 -4 24 -10l-10 -114q-9 2 -19 4q-8 2 -17 3.5t-17 1.5q-30 0 -45.5 -13t-15.5 -47v-54h105v-61h-105v-246q0 -35 -12 -61t-31.5 -43t-45.5 -25.5t-53 -8.5q-28 0 -44.5 2.5t-26.5 6.5q-11 4 -16 9l10 114 q4 -3 8 -5q10 -4 21 -4q12 0 22 2.5t17 9.5t11 20t4 35v194h-83z" />
<glyph unicode="&#x195;" horiz-adv-x="910" d="M530 304v-107q0 -38 17 -62.5t56 -24.5q49 0 73 29.5t24 83.5v237h140v-365q0 -14 0.5 -30.5t1.5 -30.5q1 -17 3 -34h-138q-1 11 -2 25q-1 11 -1 27v35h-5q-16 -41 -55 -70t-96 -29q-33 0 -62 9.5t-50 29.5t-33.5 52t-12.5 77v107q0 38 -20.5 62.5t-59.5 24.5 q-49 0 -74.5 -34t-25.5 -88v-228h-140v711h140v-332q9 18 24 35t35 30t44 20.5t52 7.5q33 0 63 -9.5t52.5 -29.5t36 -52t13.5 -77z" />
<glyph unicode="&#x1a6;" horiz-adv-x="642" d="M466 -127l-135 250h-115v-123h-146v651h146v-115h138q63 0 108 -15t73.5 -41t42 -62t13.5 -79q0 -47 -14 -80.5t-35 -56.5t-44.5 -37t-42.5 -20l164 -272h-153zM216 237h114q66 0 89.5 24t23.5 66t-23 66t-82 24h-122v-180z" />
<glyph unicode="&#x1cd;" horiz-adv-x="642" d="M5 0l221 651h170l241 -651h-148l-41 118h-262l-36 -118h-145zM218 240h194l-103 294zM520 928l-179 -190h-63l-178 190h126l84 -116l83 116h127z" />
<glyph unicode="&#x1ce;" horiz-adv-x="555" d="M511 105q11 0 19 3v-90q-13 -10 -33.5 -17t-49.5 -7q-44 0 -64 24t-23 59h-4q-14 -37 -50.5 -63t-93.5 -26q-80 0 -124.5 40.5t-44.5 104.5q0 37 16.5 61t43 39t58.5 22.5t63 11.5l122 16v11q0 42 -27.5 59.5t-74.5 17.5t-79.5 -17.5t-49.5 -42.5l-54 85q11 12 28.5 26 t42.5 25t58.5 18.5t76.5 7.5q99 0 155 -42t56 -134v-37t0.5 -44t0.5 -41v-29q0 -41 32 -41zM347 205l-97 -14q-35 -5 -55.5 -16.5t-20.5 -38.5q0 -22 16 -36.5t48 -14.5q30 0 51 7.5t34 19t18.5 25t5.5 26.5v42zM487 756l-179 -190h-63l-178 190h126l84 -116l83 116h127z " />
<glyph unicode="&#x1de;" horiz-adv-x="642" d="M5 0l221 651h170l241 -651h-148l-41 118h-262l-36 -118h-145zM218 240h194l-103 294zM140 1032h340v-95h-340v95zM271 804q0 -35 -22.5 -56.5t-56.5 -21.5t-56 21.5t-22 56.5q0 36 22 57.5t56 21.5t56.5 -21.5t22.5 -57.5zM504 804q0 -35 -22.5 -56.5t-54.5 -21.5 q-35 0 -57 21.5t-22 56.5q0 36 22 57.5t57 21.5q32 0 54.5 -21.5t22.5 -57.5z" />
<glyph unicode="&#x1df;" horiz-adv-x="555" d="M511 105q11 0 19 3v-90q-13 -10 -33.5 -17t-49.5 -7q-44 0 -64 24t-23 59h-4q-14 -37 -50.5 -63t-93.5 -26q-80 0 -124.5 40.5t-44.5 104.5q0 37 16.5 61t43 39t58.5 22.5t63 11.5l122 16v11q0 42 -27.5 59.5t-74.5 17.5t-79.5 -17.5t-49.5 -42.5l-54 85q11 12 28.5 26 t42.5 25t58.5 18.5t76.5 7.5q99 0 155 -42t56 -134v-37t0.5 -44t0.5 -41v-29q0 -41 32 -41zM347 205l-97 -14q-35 -5 -55.5 -16.5t-20.5 -38.5q0 -22 16 -36.5t48 -14.5q30 0 51 7.5t34 19t18.5 25t5.5 26.5v42zM96 861h340v-95h-340v95zM226 635q0 -35 -22.5 -56.5 t-56.5 -21.5t-56 21.5t-22 56.5q0 36 22 57.5t56 21.5t56.5 -21.5t22.5 -57.5zM459 635q0 -35 -22.5 -56.5t-54.5 -21.5q-35 0 -57 21.5t-22 56.5q0 36 22 57.5t57 21.5q32 0 54.5 -21.5t22.5 -57.5z" />
<glyph unicode="&#x1e0;" horiz-adv-x="642" d="M5 0l221 651h170l241 -651h-148l-41 118h-262l-36 -118h-145zM218 240h194l-103 294zM139 1032h340v-95h-340v95zM392 804q0 -38 -23.5 -60.5t-58.5 -22.5q-36 0 -59.5 22.5t-23.5 60.5t23.5 61t59.5 23q35 0 58.5 -23t23.5 -61z" />
<glyph unicode="&#x1e1;" horiz-adv-x="555" d="M511 105q11 0 19 3v-90q-13 -10 -33.5 -17t-49.5 -7q-44 0 -64 24t-23 59h-4q-14 -37 -50.5 -63t-93.5 -26q-80 0 -124.5 40.5t-44.5 104.5q0 37 16.5 61t43 39t58.5 22.5t63 11.5l122 16v11q0 42 -27.5 59.5t-74.5 17.5t-79.5 -17.5t-49.5 -42.5l-54 85q11 12 28.5 26 t42.5 25t58.5 18.5t76.5 7.5q99 0 155 -42t56 -134v-37t0.5 -44t0.5 -41v-29q0 -41 32 -41zM347 205l-97 -14q-35 -5 -55.5 -16.5t-20.5 -38.5q0 -22 16 -36.5t48 -14.5q30 0 51 7.5t34 19t18.5 25t5.5 26.5v42zM355 636q0 -38 -23.5 -60.5t-58.5 -22.5q-36 0 -59.5 22.5 t-23.5 60.5t23.5 61t59.5 23q35 0 58.5 -23t23.5 -61zM106 861h340v-95h-340v95z" />
<glyph unicode="&#x1e2;" horiz-adv-x="903" d="M392 253v287h-25l-135 -287h160zM183 135l-63 -135h-140l315 651h543v-123h-301v-140h279v-121h-279v-144h311v-123h-456v135h-209zM419 833h340v-95h-340v95z" />
<glyph unicode="&#x1e3;" horiz-adv-x="854" d="M819 234q0 -8 -0.5 -13t-1.5 -13l-338 -13q0 -29 11 -49t28 -32t39 -17.5t45 -5.5q48 0 85.5 16.5t55.5 39.5l46 -94q-25 -26 -76.5 -45.5t-123.5 -19.5q-73 0 -121.5 29t-76.5 71q-6 -10 -18.5 -26.5t-33.5 -33t-52.5 -28.5t-74.5 -12q-41 0 -72.5 11t-53 30.5 t-32.5 45.5t-11 57q0 32 13 56.5t37 41.5t57 26.5t73 12.5l121 7v17q0 42 -27.5 59.5t-65.5 17.5q-37 0 -62.5 -9.5t-42.5 -20.5q-19 -13 -31 -30l-54 85q15 21 42 38q23 14 61 26.5t96 12.5q37 0 62.5 -6.5t43 -17t29.5 -23.5t22 -25q12 13 30 25.5t39 23t44.5 17t48.5 6.5 q63 0 108 -17.5t74.5 -49t43.5 -75.5t14 -96zM345 197l-91 -3q-34 -2 -57 -16t-23 -42q0 -25 17 -38t46 -13q20 0 39.5 4.5t34.5 14.5t24.5 24t9.5 34v35zM678 280q0 49 -28.5 70t-69.5 21q-44 0 -72 -22.5t-31 -76.5zM256 661h340v-95h-340v95z" />
<glyph unicode="&#x1e6;" horiz-adv-x="690" d="M501 246h-147v120h281v-366h-103l-12 87h-4q-5 -12 -17 -28.5t-33 -32.5t-51.5 -27t-72.5 -11q-62 0 -117.5 23.5t-97.5 67.5t-66.5 107t-24.5 142t24.5 141t68 105t103 66t129.5 23q43 0 78.5 -5t66 -16.5t56.5 -29.5t52 -44l-89 -98q-28 35 -69 55.5t-101 20.5 q-43 0 -75 -16t-53 -45t-31.5 -68.5t-10.5 -86.5q0 -50 11.5 -90.5t34.5 -69.5t57.5 -45t81.5 -16q36 0 61 9t40.5 23t22.5 31t7 33v41zM564 947l-179 -190h-63l-178 190h126l84 -116l83 116h127z" />
<glyph unicode="&#x1e7;" horiz-adv-x="569" d="M553 359q-4 1 -10 3q-5 1 -14.5 2t-22.5 1q-20 0 -33 -4.5t-20 -7.5q14 -33 14 -68q0 -42 -17.5 -71t-46 -47.5t-65 -28.5t-73.5 -13q-9 -1 -19 -2.5t-18.5 -5.5t-14 -11t-5.5 -19q0 -15 10.5 -23t27.5 -8h143q74 0 105 -29t31 -77q0 -52 -27 -88.5t-68 -59.5t-89 -33.5 t-90 -10.5q-47 0 -88.5 5.5t-72 19t-48 37.5t-17.5 61q0 33 16 54t37 33t42 16.5t30 4.5q-5 2 -13.5 6t-16.5 11.5t-14.5 19.5t-6.5 29q0 16 7 28t17.5 20.5t22 14.5t20.5 9q-24 7 -46 22.5t-39 36.5t-27 47.5t-10 57.5q0 41 17 74.5t45.5 57t67 36.5t82.5 13q47 0 85 -14 t66 -38q5 8 15 19.5t24 22.5t33 19t42 8q8 0 15 -0.5t12 -0.5q6 -1 11 -1zM222 -40q-38 0 -51.5 -18t-13.5 -44q0 -29 25.5 -43.5t83.5 -14.5t91 14.5t33 49.5t-20 45.5t-56 10.5h-92zM255 211q85 0 85 83t-85 83t-85 -83t85 -83zM494 756l-179 -190h-63l-178 190h126 l84 -116l83 116h127z" />
<glyph unicode="&#x1e8;" horiz-adv-x="652" d="M220 344l241 307h164l-236 -276l243 -375h-162l-181 296l-69 -79v-217h-150v651h150v-307zM535 928l-179 -190h-63l-178 190h126l84 -116l83 116h127z" />
<glyph unicode="&#x1e9;" horiz-adv-x="530" d="M362 460h153l-177 -200l187 -260h-155l-124 204l-40 -40v-164h-136v711h136v-445zM475 1038l-179 -190h-63l-178 190h126l84 -116l83 116h127z" />
<glyph unicode="&#x1ea;" horiz-adv-x="717" d="M681 326q0 -79 -24 -142t-67 -106.5t-102 -66.5t-129 -23t-129 23t-102 66.5t-67.5 106.5t-24.5 142q0 80 24.5 142.5t67.5 106t102 66t129 22.5t129 -22.5t102 -66t67 -106t24 -142.5zM530 326q0 106 -47.5 158t-123.5 52t-124 -52t-48 -158q0 -105 48 -158t124 -53 t123.5 53t47.5 158zM453 9q-107 -50 -107 -97q0 -44 48 -44q31 0 59 21l35 -54q-50 -34 -116 -34q-118 4 -118 98q0 55 80 101q18 10 32 17z" />
<glyph unicode="&#x1eb;" horiz-adv-x="575" d="M545 230q0 -58 -20 -103t-54.5 -76t-81.5 -47t-101 -16t-101 16t-82 47t-55 76t-20 103t20 103.5t55 76t82 46.5t101 16t101 -16t81.5 -46.5t54.5 -76t20 -103.5zM400 230q0 71 -31.5 101.5t-80.5 30.5q-50 0 -81.5 -30.5t-31.5 -101.5t31.5 -101.5t81.5 -30.5 q49 0 80.5 30.5t31.5 101.5zM387 9q-107 -50 -107 -97q0 -44 48 -44q31 0 59 21l35 -54q-50 -34 -116 -34q-118 4 -118 98q0 55 80 101q18 10 32 17z" />
<glyph unicode="&#x1f6;" horiz-adv-x="1021" d="M621 651v-454q0 -38 19 -62.5t62 -24.5q56 0 82.5 29.5t26.5 83.5v237h140v-365q0 -14 0.5 -30.5t1.5 -30.5q1 -17 3 -34h-138q-1 11 -2 25q-1 11 -1 27v35h-5q-18 -41 -61 -70t-104 -29q-37 0 -69 9.5t-55 29.5t-36.5 52t-13.5 77v97h-251v-253h-150v651h150v-273h251 v273h150z" />
<glyph unicode="&#x1fe;" horiz-adv-x="717" d="M611 548q33 -42 51.5 -98.5t18.5 -125.5q0 -79 -24 -141.5t-67 -105.5t-102 -66t-129 -23q-122 0 -206 66l-60 -65l-56 46l65 70q-32 42 -49 97t-17 122q0 80 24.5 142.5t67.5 106t102 66t129 22.5q117 0 200 -63l61 66l53 -49zM539 329q0 71 -22 123l-281 -309 q23 -25 54.5 -37t68.5 -12q40 0 73 15.5t57 45.5t37 74t13 100zM177 318q0 -35 5 -64t14 -53l281 308q-48 46 -118 46q-40 0 -73.5 -16t-57.5 -46t-37.5 -74t-13.5 -101zM435 975l71 -71l-165 -166l-71 71z" />
<glyph unicode="&#x1ff;" horiz-adv-x="575" d="M384 803l71 -71l-165 -166l-71 71zM545 230q0 -58 -20 -103t-54.5 -76t-81.5 -47t-101 -16q-45 0 -84.5 10.5t-71.5 31.5l-43 -40l-53 49l42 40q-23 29 -35.5 66.5t-12.5 84.5q0 58 20 103.5t55 76t82 46.5t101 16q91 0 159 -45l46 44l52 -50l-46 -43q22 -29 34 -66 t12 -82zM158 224q0 -17 2.5 -33t6.5 -30l205 188q-33 30 -78 30q-27 0 -52 -9t-43.5 -28t-29.5 -48.5t-11 -69.5zM416 236q0 15 -1.5 30t-5.5 28l-202 -186q15 -14 34.5 -20.5t40.5 -6.5q27 0 51.5 9t43 28t29 48.5t10.5 69.5z" />
<glyph unicode="&#x218;" horiz-adv-x="592" d="M440 477q-22 29 -56.5 48.5t-88.5 19.5q-23 0 -39 -7t-26.5 -17.5t-15 -23t-4.5 -24.5q0 -18 11 -30.5t29.5 -22.5t43.5 -18t53 -15q40 -11 76.5 -25t64.5 -35t44.5 -52t16.5 -76q0 -44 -17.5 -82t-50 -67t-79.5 -45.5t-107 -16.5q-51 0 -91.5 9.5t-72 26t-54 38.5 t-38.5 48l104 89q23 -38 63.5 -65t100.5 -27q42 0 70 17t28 51q0 21 -7.5 34.5t-23 22.5t-39 16.5t-54.5 16.5q-39 11 -77.5 26t-69 37.5t-49.5 54.5t-19 77q0 44 17.5 81t50 64t77.5 42.5t100 15.5q87 0 141 -31t81 -74zM203 -258l11 176l120 -19l-54 -170z" />
<glyph unicode="&#x219;" horiz-adv-x="480" d="M367 331q-15 14 -45 27.5t-72 13.5q-27 0 -46.5 -12t-19.5 -29q0 -11 6.5 -18t19.5 -12t32 -10t44 -12q33 -9 62 -19.5t51 -26t35 -39t13 -58.5q0 -29 -15 -55.5t-43 -47t-66.5 -33t-86.5 -12.5q-46 0 -79 7t-56.5 17t-38 20.5t-22.5 16.5l-4 3l77 90q18 -21 48 -37 t68 -16q32 0 53.5 10.5t21.5 30.5q0 12 -5.5 19t-18 12.5t-34 11t-52.5 14.5q-30 9 -57 19t-48 24.5t-33 36t-12 52.5q0 34 16 62t43.5 48.5t65 31.5t80.5 11q46 0 79.5 -6.5t55.5 -15t34.5 -17.5t17.5 -14zM152 -258l11 176l120 -19l-54 -170z" />
<glyph unicode="&#x21a;" horiz-adv-x="567" d="M15 651h537v-125h-193v-526h-150v526h-194v125zM213 -258l11 176l120 -19l-54 -170z" />
<glyph unicode="&#x21b;" horiz-adv-x="400" d="M85 460v103l137 30v-133h136v-118h-136v-164q0 -29 13.5 -47.5t45.5 -18.5q23 0 43.5 7t32.5 16l8 -116q-20 -12 -55 -21.5t-77 -9.5q-32 0 -59.5 7.5t-47 24t-30.5 43t-11 64.5v215h-70v118h70zM124 -258l11 176l120 -19l-54 -170z" />
<glyph unicode="&#x22a;" horiz-adv-x="717" d="M681 326q0 -79 -24 -142t-67 -106.5t-102 -66.5t-129 -23t-129 23t-102 66.5t-67.5 106.5t-24.5 142q0 80 24.5 142.5t67.5 106t102 66t129 22.5t129 -22.5t102 -66t67 -106t24 -142.5zM530 326q0 106 -47.5 158t-123.5 52t-124 -52t-48 -158q0 -105 48 -158t124 -53 t123.5 53t47.5 158zM327 804q0 -35 -22.5 -56.5t-56.5 -21.5t-56 21.5t-22 56.5q0 36 22 57.5t56 21.5t56.5 -21.5t22.5 -57.5zM560 804q0 -35 -22.5 -56.5t-54.5 -21.5q-35 0 -57 21.5t-22 56.5q0 36 22 57.5t57 21.5q32 0 54.5 -21.5t22.5 -57.5zM195 1032h340v-95h-340 v95z" />
<glyph unicode="&#x22b;" horiz-adv-x="575" d="M545 230q0 -58 -20 -103t-54.5 -76t-81.5 -47t-101 -16t-101 16t-82 47t-55 76t-20 103t20 103.5t55 76t82 46.5t101 16t101 -16t81.5 -46.5t54.5 -76t20 -103.5zM400 230q0 71 -31.5 101.5t-80.5 30.5q-50 0 -81.5 -30.5t-31.5 -101.5t31.5 -101.5t81.5 -30.5 q49 0 80.5 30.5t31.5 101.5zM116 861h340v-95h-340v95zM246 635q0 -35 -22.5 -56.5t-56.5 -21.5t-56 21.5t-22 56.5q0 36 22 57.5t56 21.5t56.5 -21.5t22.5 -57.5zM479 635q0 -35 -22.5 -56.5t-54.5 -21.5q-35 0 -57 21.5t-22 56.5q0 36 22 57.5t57 21.5q32 0 54.5 -21.5 t22.5 -57.5z" />
<glyph unicode="&#x22c;" horiz-adv-x="717" d="M681 326q0 -79 -24 -142t-67 -106.5t-102 -66.5t-129 -23t-129 23t-102 66.5t-67.5 106.5t-24.5 142q0 80 24.5 142.5t67.5 106t102 66t129 22.5t129 -22.5t102 -66t67 -106t24 -142.5zM530 326q0 106 -47.5 158t-123.5 52t-124 -52t-48 -158q0 -105 48 -158t124 -53 t123.5 53t47.5 158zM193 1033h340v-95h-340v95zM534 883q3 -12 6 -33t3 -39q0 -20 -5 -35.5t-16.5 -28.5t-30.5 -20.5t-47 -7.5q-31 0 -49 10.5t-31 20.5t-25.5 20.5t-29.5 10.5q-20 0 -27.5 -12.5t-7.5 -28.5v-11t1 -10h-76q-5 16 -7.5 36.5t-2.5 34.5q0 39 26.5 66 t73.5 27q28 0 48 -10.5t36 -22t29.5 -19.5t29.5 -8q17 0 22.5 11t5.5 24v11.5t-1 13.5h75z" />
<glyph unicode="&#x22d;" horiz-adv-x="575" d="M545 230q0 -58 -20 -103t-54.5 -76t-81.5 -47t-101 -16t-101 16t-82 47t-55 76t-20 103t20 103.5t55 76t82 46.5t101 16t101 -16t81.5 -46.5t54.5 -76t20 -103.5zM400 230q0 71 -31.5 101.5t-80.5 30.5q-50 0 -81.5 -30.5t-31.5 -101.5t31.5 -101.5t81.5 -30.5 q49 0 80.5 30.5t31.5 101.5zM455 711q3 -12 6 -33t3 -39q0 -20 -5 -35.5t-16.5 -28.5t-30.5 -20.5t-47 -7.5q-31 0 -49 10.5t-31 20.5t-25.5 20.5t-29.5 10.5q-20 0 -27.5 -12.5t-7.5 -28.5v-11t1 -10h-76q-5 16 -7.5 36.5t-2.5 34.5q0 39 26.5 66t73.5 27q28 0 48 -10.5 t36 -22t29.5 -19.5t29.5 -8q17 0 22.5 11t5.5 24v11.5t-1 13.5h75zM116 861h340v-95h-340v95z" />
<glyph unicode="&#x22e;" horiz-adv-x="717" d="M681 326q0 -79 -24 -142t-67 -106.5t-102 -66.5t-129 -23t-129 23t-102 66.5t-67.5 106.5t-24.5 142q0 80 24.5 142.5t67.5 106t102 66t129 22.5t129 -22.5t102 -66t67 -106t24 -142.5zM530 326q0 106 -47.5 158t-123.5 52t-124 -52t-48 -158q0 -105 48 -158t124 -53 t123.5 53t47.5 158zM437 791q0 -38 -23.5 -60.5t-58.5 -22.5q-36 0 -59.5 22.5t-23.5 60.5t23.5 61t59.5 23q35 0 58.5 -23t23.5 -61z" />
<glyph unicode="&#x22f;" horiz-adv-x="575" d="M545 230q0 -58 -20 -103t-54.5 -76t-81.5 -47t-101 -16t-101 16t-82 47t-55 76t-20 103t20 103.5t55 76t82 46.5t101 16t101 -16t81.5 -46.5t54.5 -76t20 -103.5zM400 230q0 71 -31.5 101.5t-80.5 30.5q-50 0 -81.5 -30.5t-31.5 -101.5t31.5 -101.5t81.5 -30.5 q49 0 80.5 30.5t31.5 101.5zM370 649q0 -38 -23.5 -60.5t-58.5 -22.5q-36 0 -59.5 22.5t-23.5 60.5t23.5 61t59.5 23q35 0 58.5 -23t23.5 -61z" />
<glyph unicode="&#x230;" horiz-adv-x="717" d="M681 326q0 -79 -24 -142t-67 -106.5t-102 -66.5t-129 -23t-129 23t-102 66.5t-67.5 106.5t-24.5 142q0 80 24.5 142.5t67.5 106t102 66t129 22.5t129 -22.5t102 -66t67 -106t24 -142.5zM530 326q0 106 -47.5 158t-123.5 52t-124 -52t-48 -158q0 -105 48 -158t124 -53 t123.5 53t47.5 158zM193 1032h340v-95h-340v95zM447 803q0 -38 -23.5 -60.5t-58.5 -22.5q-36 0 -59.5 22.5t-23.5 60.5t23.5 61t59.5 23q35 0 58.5 -23t23.5 -61z" />
<glyph unicode="&#x231;" horiz-adv-x="575" d="M545 230q0 -58 -20 -103t-54.5 -76t-81.5 -47t-101 -16t-101 16t-82 47t-55 76t-20 103t20 103.5t55 76t82 46.5t101 16t101 -16t81.5 -46.5t54.5 -76t20 -103.5zM400 230q0 71 -31.5 101.5t-80.5 30.5q-50 0 -81.5 -30.5t-31.5 -101.5t31.5 -101.5t81.5 -30.5 q49 0 80.5 30.5t31.5 101.5zM370 637q0 -38 -23.5 -60.5t-58.5 -22.5q-36 0 -59.5 22.5t-23.5 60.5t23.5 61t59.5 23q35 0 58.5 -23t23.5 -61zM116 861h340v-95h-340v95z" />
<glyph unicode="&#x232;" horiz-adv-x="616" d="M10 651h152l148 -282l147 282h149l-222 -387v-264h-151v264zM139 833h340v-95h-340v95z" />
<glyph unicode="&#x233;" horiz-adv-x="503" d="M-7 460h150l109 -359l104 359h146l-214 -594q-11 -32 -27.5 -53t-36 -33t-41 -17t-43.5 -5q-25 0 -52.5 4.5t-47.5 11.5l22 120q15 -5 31 -8.5t32 -3.5q15 0 28.5 5.5t18.5 22.5l14 41zM81 661h340v-95h-340v95z" />
<glyph unicode="&#x237;" horiz-adv-x="280" d="M210 460v-544q0 -70 -40 -114t-123 -44q-31 0 -55.5 6t-47.5 15l10 117q11 -6 27 -10.5t32 -4.5q29 0 43 17.5t14 69.5v492h140z" />
<glyph unicode="&#x243;" horiz-adv-x="674" d="M497 352q38 -10 68 -30q26 -17 47.5 -48.5t21.5 -82.5q0 -86 -66 -138.5t-193 -52.5h-275v156h-75v79h75v416h292q49 0 89.5 -10.5t69 -30.5t44 -49.5t15.5 -67.5q0 -42 -18 -67.5t-39 -41.5q-25 -18 -56 -28v-4zM243 391h128q89 0 89 74q0 33 -21 51.5t-72 18.5h-124 v-144zM379 119q55 0 80 21t25 61t-24 58.5t-78 18.5h-139v-43h80v-79h-80v-37h136z" />
<glyph unicode="&#x259;" horiz-adv-x="550" d="M35 227q0 7 0.5 13.5t0.5 11.5q1 4 1 13h338q0 28 -11 48t-28 32.5t-38 18t-40 5.5q-54 0 -89 -14t-58 -40l-46 92q32 29 84 47.5t112 18.5q67 0 115.5 -19t80 -51.5t46.5 -75t15 -89.5q0 -45 -15.5 -89.5t-46.5 -80.5t-76 -58t-105 -22q-78 0 -125 25t-72.5 61.5t-34 78 t-8.5 74.5zM176 179q0 -39 24.5 -64t73.5 -25q51 0 77 23.5t26 65.5h-201z" />
<glyph unicode="&#x280;" horiz-adv-x="570" d="M398 0l-110 146h-81v-146h-137v460h247q56 0 96 -11.5t65 -31t36.5 -46.5t11.5 -59q0 -36 -12.5 -62t-30 -43.5t-38.5 -27.5t-36 -15l137 -164h-148zM207 242h86q55 0 75 15.5t20 42.5q0 31 -19 45.5t-69 14.5h-93v-118z" />
<glyph unicode="&#x2c6;" d="M-58 566l179 190h63l178 -190h-126l-84 116l-83 -116h-127z" />
<glyph unicode="&#x2c7;" d="M363 756l-179 -190h-63l-178 190h126l84 -116l83 116h127z" />
<glyph unicode="&#x2d8;" d="M347 745q0 -45 -16.5 -78.5t-44 -56t-63.5 -33.5t-75 -11t-75 11t-63 33.5t-43.5 56t-16.5 78.5h106q0 -50 26.5 -70.5t65.5 -20.5q40 0 66 20.5t26 70.5h107z" />
<glyph unicode="&#x2d9;" d="M232 649q0 -38 -23.5 -60.5t-58.5 -22.5q-36 0 -59.5 22.5t-23.5 60.5t23.5 61t59.5 23q35 0 58.5 -23t23.5 -61z" />
<glyph unicode="&#x2da;" d="M18 693q0 26 9 49t26.5 40t42 27t54.5 10q29 0 53.5 -10t42 -27t27 -40t9.5 -49q0 -55 -36.5 -91t-95.5 -36q-61 0 -96.5 36t-35.5 91zM91 693q0 -30 16 -45t43 -15q26 0 42.5 15t16.5 45q0 29 -16.5 44t-42.5 15q-27 0 -43 -15t-16 -44z" />
<glyph unicode="&#x2db;" d="M239 9q-107 -50 -107 -97q0 -44 48 -44q31 0 59 21l35 -54q-50 -34 -116 -34q-118 4 -118 98q0 55 80 101q18 10 32 17z" />
<glyph unicode="&#x2dc;" d="M318 730q3 -12 6 -33t3 -39q0 -20 -5 -35.5t-16.5 -28.5t-30.5 -20.5t-47 -7.5q-31 0 -49 10.5t-31 20.5t-25.5 20.5t-29.5 10.5q-20 0 -27.5 -12.5t-7.5 -28.5v-11t1 -10h-76q-5 16 -7.5 36.5t-2.5 34.5q0 39 26.5 66t73.5 27q28 0 48 -10.5t36 -22t29.5 -19.5t29.5 -8 q17 0 22.5 11t5.5 24v11.5t-1 13.5h75z" />
<glyph unicode="&#x2dd;" d="M97 803l68 -66l-149 -171l-68 66zM299 803l68 -66l-149 -171l-68 66z" />
<glyph unicode="&#x300;" horiz-adv-x="0" d="M-116 637l-71 -71l-165 166l71 71z" />
<glyph unicode="&#x301;" horiz-adv-x="0" d="M-167 803l71 -71l-165 -166l-71 71z" />
<glyph unicode="&#x302;" horiz-adv-x="0" d="M-486 566l179 190h63l178 -190h-126l-84 116l-83 -116h-127z" />
<glyph unicode="&#x303;" horiz-adv-x="0" d="M-97 730q3 -12 6 -33t3 -39q0 -20 -5 -35.5t-16.5 -28.5t-30.5 -20.5t-47 -7.5q-31 0 -49 10.5t-31 20.5t-25.5 20.5t-29.5 10.5q-20 0 -27.5 -12.5t-7.5 -28.5v-11t1 -10h-76q-5 16 -7.5 36.5t-2.5 34.5q0 39 26.5 66t73.5 27q28 0 48 -10.5t36 -22t29.5 -19.5t29.5 -8 q17 0 22.5 11t5.5 24v11.5t-1 13.5h75z" />
<glyph unicode="&#x304;" horiz-adv-x="0" d="M-445 661h340v-95h-340v95z" />
<glyph unicode="&#x306;" horiz-adv-x="0" d="M-71 745q0 -45 -16.5 -78.5t-44 -56t-63.5 -33.5t-75 -11t-75 11t-63 33.5t-43.5 56t-16.5 78.5h106q0 -50 26.5 -70.5t65.5 -20.5q40 0 66 20.5t26 70.5h107z" />
<glyph unicode="&#x307;" horiz-adv-x="0" d="M-180 649q0 -38 -23.5 -60.5t-58.5 -22.5q-36 0 -59.5 22.5t-23.5 60.5t23.5 61t59.5 23q35 0 58.5 -23t23.5 -61z" />
<glyph unicode="&#x308;" horiz-adv-x="0" d="M-316 644q0 -35 -22.5 -56.5t-56.5 -21.5t-56 21.5t-22 56.5q0 36 22 57.5t56 21.5t56.5 -21.5t22.5 -57.5zM-83 644q0 -35 -22.5 -56.5t-54.5 -21.5q-35 0 -57 21.5t-22 56.5q0 36 22 57.5t57 21.5q32 0 54.5 -21.5t22.5 -57.5z" />
<glyph unicode="&#x30a;" horiz-adv-x="0" d="M-396 693q0 26 9 49t26.5 40t42 27t54.5 10q29 0 53.5 -10t42 -27t27 -40t9.5 -49q0 -55 -36.5 -91t-95.5 -36q-61 0 -96.5 36t-35.5 91zM-323 693q0 -30 16 -45t43 -15q26 0 42.5 15t16.5 45q0 29 -16.5 44t-42.5 15q-27 0 -43 -15t-16 -44z" />
<glyph unicode="&#x30b;" horiz-adv-x="0" d="M-283 803l68 -66l-149 -171l-68 66zM-81 803l68 -66l-149 -171l-68 66z" />
<glyph unicode="&#x30c;" horiz-adv-x="0" d="M-64 756l-179 -190h-63l-178 190h126l84 -116l83 116h127z" />
<glyph unicode="&#x312;" horiz-adv-x="1" d="M-217.994 722.984l-10.999 -175.989l-119.993 18.999l53.9971 169.989z" />
<glyph unicode="&#x313;" horiz-adv-x="1" d="M-284 560l11 176l120 -19l-54 -170z" />
<glyph unicode="&#x323;" horiz-adv-x="0" d="M-220 -160q0 -37 -22 -59t-54 -22q-29 0 -51.5 22t-22.5 59q0 35 22.5 56.5t51.5 21.5q32 0 54 -21.5t22 -56.5z" />
<glyph unicode="&#x326;" horiz-adv-x="0" d="M-366 -258l11 176l120 -19l-54 -170z" />
<glyph unicode="&#x327;" horiz-adv-x="0" d="M-266 17q13 -7 26 -17q76 -52 76 -101q0 -98 -131 -98q-57 0 -108 34l35 54q29 -21 62 -21q50 0 50 44q0 47 -97 97z" />
<glyph unicode="&#x328;" d="M-215 9q-107 -50 -107 -97q0 -44 48 -44q31 0 59 21l35 -54q-50 -34 -116 -34q-118 4 -118 98q0 55 80 101q18 10 32 17z" />
<glyph unicode="&#x3c0;" horiz-adv-x="610" d="M25 460h560v-118h-67v-342h-140v342h-143v-342h-140v342h-70v118z" />
<glyph unicode="&#x1e0c;" horiz-adv-x="695" d="M70 0v651h268q153 0 237.5 -84t84.5 -242q0 -156 -84.5 -240.5t-237.5 -84.5h-268zM328 123q89 0 135.5 48t46.5 154q0 107 -46.5 155t-135.5 48h-111v-405h111zM400 -160q0 -37 -22 -59t-54 -22q-29 0 -51.5 22t-22.5 59q0 35 22.5 56.5t51.5 21.5q32 0 54 -21.5 t22 -56.5z" />
<glyph unicode="&#x1e0d;" horiz-adv-x="609" d="M539 711v-617q0 -16 0.5 -32t1.5 -30q1 -16 3 -32h-135q0 11 -1 23q-1 20 -3 53h-5q-8 -18 -21.5 -34t-33 -28t-45 -19t-58.5 -7q-44 0 -82.5 16.5t-67.5 48t-45.5 76.5t-16.5 101q0 55 17.5 100t47.5 76.5t70 48.5t85 17q56 0 94.5 -22t52.5 -50h5l-2 20q-1 8 -1 18v19 v254h140zM175 230q0 -71 33.5 -101.5t83.5 -30.5q25 0 45.5 7.5t35.5 23t23.5 40.5t8.5 61t-8.5 61t-23.5 40.5t-35.5 23t-45.5 7.5q-50 0 -83.5 -30.5t-33.5 -101.5zM372 -160q0 -37 -22 -59t-54 -22q-29 0 -51.5 22t-22.5 59q0 35 22.5 56.5t51.5 21.5q32 0 54 -21.5 t22 -56.5z" />
<glyph unicode="&#x1e10;" horiz-adv-x="695" d="M70 0v651h268q153 0 237.5 -84t84.5 -242q0 -156 -84.5 -240.5t-237.5 -84.5h-268zM328 123q89 0 135.5 48t46.5 154q0 107 -46.5 155t-135.5 48h-111v-405h111zM260 -258l11 176l120 -19l-54 -170z" />
<glyph unicode="&#x1e11;" horiz-adv-x="609" d="M539 711v-617q0 -16 0.5 -32t1.5 -30q1 -16 3 -32h-135q0 11 -1 23q-1 20 -3 53h-5q-8 -18 -21.5 -34t-33 -28t-45 -19t-58.5 -7q-44 0 -82.5 16.5t-67.5 48t-45.5 76.5t-16.5 101q0 55 17.5 100t47.5 76.5t70 48.5t85 17q56 0 94.5 -22t52.5 -50h5l-2 20q-1 8 -1 18v19 v254h140zM175 230q0 -71 33.5 -101.5t83.5 -30.5q25 0 45.5 7.5t35.5 23t23.5 40.5t8.5 61t-8.5 61t-23.5 40.5t-35.5 23t-45.5 7.5q-50 0 -83.5 -30.5t-33.5 -101.5zM227 -258l11 176l120 -19l-54 -170z" />
<glyph unicode="&#x1e16;" horiz-adv-x="595" d="M220 528v-140h288v-121h-288v-144h320v-123h-470v651h460v-123h-310zM133 832h340v-95h-340v95zM392 1120l71 -71l-165 -166l-71 71z" />
<glyph unicode="&#x1e17;" horiz-adv-x="508" d="M515 235q0 -7 -0.5 -13.5t-0.5 -11.5q-1 -6 -1 -13h-338q0 -30 11 -50t28 -32.5t37.5 -17.5t40.5 -5q54 0 89 14t58 40l46 -92q-32 -29 -84 -47.5t-112 -18.5q-67 0 -115.5 22t-80 57.5t-46.5 80t-15 89.5q0 44 15.5 86.5t46.5 75.5t76 53.5t105 20.5q78 0 125 -25 t72.5 -61.5t34 -77.5t8.5 -74zM374 283q0 37 -24.5 62.5t-73.5 25.5q-51 0 -77 -25.5t-26 -62.5h201zM375 949l71 -71l-165 -166l-71 71zM116 661h340v-95h-340v95z" />
<glyph unicode="&#x1e24;" horiz-adv-x="716" d="M646 651v-651h-150v263h-276v-263h-150v651h150v-263h276v263h150zM433 -160q0 -37 -22 -59t-54 -22q-29 0 -51.5 22t-22.5 59q0 35 22.5 56.5t51.5 21.5q32 0 54 -21.5t22 -56.5z" />
<glyph unicode="&#x1e25;" horiz-adv-x="595" d="M395 263q0 38 -21 62.5t-61 24.5q-51 0 -77 -34t-26 -88v-228h-140v711h140v-332q9 18 24 35t35.5 30t45 20.5t52.5 7.5q34 0 64.5 -9.5t53.5 -29.5t36.5 -52t13.5 -77v-304h-140v263zM379 -160q0 -37 -22 -59t-54 -22q-29 0 -51.5 22t-22.5 59q0 35 22.5 56.5t51.5 21.5 q32 0 54 -21.5t22 -56.5z" />
<glyph unicode="&#x1e36;" horiz-adv-x="525" d="M220 651v-526h285v-125h-435v651h150zM362 -160q0 -37 -22 -59t-54 -22q-29 0 -51.5 22t-22.5 59q0 35 22.5 56.5t51.5 21.5q32 0 54 -21.5t22 -56.5z" />
<glyph unicode="&#x1e37;" horiz-adv-x="280" d="M77 711h140v-711h-140v711zM220 -160q0 -37 -22 -59t-54 -22q-29 0 -51.5 22t-22.5 59q0 35 22.5 56.5t51.5 21.5q32 0 54 -21.5t22 -56.5z" />
<glyph unicode="&#x1e38;" horiz-adv-x="525" d="M220 651v-526h285v-125h-435v651h150zM110 833h340v-95h-340v95zM362 -160q0 -37 -22 -59t-54 -22q-29 0 -51.5 22t-22.5 59q0 35 22.5 56.5t51.5 21.5q32 0 54 -21.5t22 -56.5z" />
<glyph unicode="&#x1e39;" horiz-adv-x="280" d="M70 711h140v-711h-140v711zM-29 942h340v-95h-340v95zM220 -160q0 -37 -22 -59t-54 -22q-29 0 -51.5 22t-22.5 59q0 35 22.5 56.5t51.5 21.5q32 0 54 -21.5t22 -56.5z" />
<glyph unicode="&#x1e42;" horiz-adv-x="852" d="M373 80l-195 440q6 -68 10 -137.5t6 -136.5t3 -129.5t1 -116.5h-128v651h180l182 -431l175 431h175v-651h-128q0 54 1 116.5t3 129.5t6 136.5t10 137.5l-188 -440h-113zM507 -160q0 -37 -22 -59t-54 -22q-29 0 -51.5 22t-22.5 59q0 35 22.5 56.5t51.5 21.5q32 0 54 -21.5 t22 -56.5z" />
<glyph unicode="&#x1e43;" horiz-adv-x="900" d="M626 350q-51 0 -76 -34t-25 -88v-228h-140v263q0 38 -17 62.5t-57 24.5q-51 0 -76 -34t-25 -88v-228h-140v365q0 14 -1 30.5t-2 30.5l-2 34h138q0 -13 1 -27q1 -13 1.5 -29t0.5 -35h5q17 43 56.5 73t99.5 30q53 0 93 -28.5t56 -79.5h5q9 22 23 42t33.5 34.5t45 23 t59.5 8.5t63 -9.5t50 -29.5t33 -52t12 -77v-304h-140v263q0 38 -17 62.5t-57 24.5zM529 -160q0 -37 -22 -59t-54 -22q-29 0 -51.5 22t-22.5 59q0 35 22.5 56.5t51.5 21.5q32 0 54 -21.5t22 -56.5z" />
<glyph unicode="&#x1e44;" horiz-adv-x="726" d="M190 0h-120v651h132l344 -485q-2 55 -4 123t-3.5 134.5t-2 126.5t-0.5 101h120v-651h-133l-343 473q2 -54 4 -120t3.5 -131t2 -123.5t0.5 -98.5zM444 791q0 -38 -23.5 -60.5t-58.5 -22.5q-36 0 -59.5 22.5t-23.5 60.5t23.5 61t59.5 23q35 0 58.5 -23t23.5 -61z" />
<glyph unicode="&#x1e45;" horiz-adv-x="595" d="M395 263q0 38 -19 62.5t-59 24.5q-51 0 -79 -34t-28 -88v-228h-140v365q0 14 -1 30.5t-2 30.5l-2 34h138q0 -13 1 -27q1 -13 1.5 -29t0.5 -35h5q8 21 23 39.5t35 32.5t45 22.5t53 8.5q34 0 64.5 -9.5t53.5 -29.5t36.5 -52t13.5 -77v-304h-140v263zM380 649 q0 -38 -23.5 -60.5t-58.5 -22.5q-36 0 -59.5 22.5t-23.5 60.5t23.5 61t59.5 23q35 0 58.5 -23t23.5 -61z" />
<glyph unicode="&#x1e46;" horiz-adv-x="726" d="M190 0h-120v651h132l344 -485q-2 55 -4 123t-3.5 134.5t-2 126.5t-0.5 101h120v-651h-133l-343 473q2 -54 4 -120t3.5 -131t2 -123.5t0.5 -98.5zM440 -160q0 -37 -22 -59t-54 -22q-29 0 -51.5 22t-22.5 59q0 35 22.5 56.5t51.5 21.5q32 0 54 -21.5t22 -56.5z" />
<glyph unicode="&#x1e47;" horiz-adv-x="595" d="M395 263q0 38 -19 62.5t-59 24.5q-51 0 -79 -34t-28 -88v-228h-140v365q0 14 -1 30.5t-2 30.5l-2 34h138q0 -13 1 -27q1 -13 1.5 -29t0.5 -35h5q8 21 23 39.5t35 32.5t45 22.5t53 8.5q34 0 64.5 -9.5t53.5 -29.5t36.5 -52t13.5 -77v-304h-140v263zM377 -160 q0 -37 -22 -59t-54 -22q-29 0 -51.5 22t-22.5 59q0 35 22.5 56.5t51.5 21.5q32 0 54 -21.5t22 -56.5z" />
<glyph unicode="&#x1e52;" horiz-adv-x="717" d="M681 326q0 -79 -24 -142t-67 -106.5t-102 -66.5t-129 -23t-129 23t-102 66.5t-67.5 106.5t-24.5 142q0 80 24.5 142.5t67.5 106t102 66t129 22.5t129 -22.5t102 -66t67 -106t24 -142.5zM530 326q0 106 -47.5 158t-123.5 52t-124 -52t-48 -158q0 -105 48 -158t124 -53 t123.5 53t47.5 158zM198 832h340v-95h-340v95zM457 1120l71 -71l-165 -166l-71 71z" />
<glyph unicode="&#x1e53;" horiz-adv-x="575" d="M545 230q0 -58 -20 -103t-54.5 -76t-81.5 -47t-101 -16t-101 16t-82 47t-55 76t-20 103t20 103.5t55 76t82 46.5t101 16t101 -16t81.5 -46.5t54.5 -76t20 -103.5zM400 230q0 71 -31.5 101.5t-80.5 30.5q-50 0 -81.5 -30.5t-31.5 -101.5t31.5 -101.5t81.5 -30.5 q49 0 80.5 30.5t31.5 101.5zM380 949l71 -71l-165 -166l-71 71zM121 661h340v-95h-340v95z" />
<glyph unicode="&#x1e5a;" horiz-adv-x="642" d="M459 0l-128 238h-115v-238h-146v651h284q63 0 108 -15t73.5 -41t42 -62t13.5 -79q0 -47 -14 -80.5t-35 -56.5t-44.5 -37t-42.5 -20l157 -260h-153zM216 352h114q66 0 89.5 24t23.5 66t-23 66t-82 24h-122v-180zM400 -160q0 -37 -22 -59t-54 -22q-29 0 -51.5 22t-22.5 59 q0 35 22.5 56.5t51.5 21.5q32 0 54 -21.5t22 -56.5z" />
<glyph unicode="&#x1e5b;" horiz-adv-x="395" d="M368 312q-7 2 -23.5 4t-36.5 2q-27 0 -46 -10.5t-30.5 -28t-16.5 -41.5t-5 -51v-187h-140v365q0 14 -1 30.5t-2 30.5l-2 34h138q0 -16 1 -34q1 -15 1.5 -33.5t0.5 -37.5h5q11 32 31 58q17 22 45.5 40.5t73.5 18.5q3 0 7.5 -0.5t6.5 -1.5zM212 -160q0 -37 -22 -59t-54 -22 q-29 0 -51.5 22t-22.5 59q0 35 22.5 56.5t51.5 21.5q32 0 54 -21.5t22 -56.5z" />
<glyph unicode="&#x1e5c;" horiz-adv-x="642" d="M459 0l-128 238h-115v-238h-146v651h284q63 0 108 -15t73.5 -41t42 -62t13.5 -79q0 -47 -14 -80.5t-35 -56.5t-44.5 -37t-42.5 -20l157 -260h-153zM216 352h114q66 0 89.5 24t23.5 66t-23 66t-82 24h-122v-180zM133 833h340v-95h-340v95zM400 -160q0 -37 -22 -59t-54 -22 q-29 0 -51.5 22t-22.5 59q0 35 22.5 56.5t51.5 21.5q32 0 54 -21.5t22 -56.5z" />
<glyph unicode="&#x1e5d;" horiz-adv-x="395" d="M368 312q-7 2 -23.5 4t-36.5 2q-27 0 -46 -10.5t-30.5 -28t-16.5 -41.5t-5 -51v-187h-140v365q0 14 -1 30.5t-2 30.5l-2 34h138q0 -16 1 -34q1 -15 1.5 -33.5t0.5 -37.5h5q11 32 31 58q17 22 45.5 40.5t73.5 18.5q3 0 7.5 -0.5t6.5 -1.5zM27 661h340v-95h-340v95z M212 -160q0 -37 -22 -59t-54 -22q-29 0 -51.5 22t-22.5 59q0 35 22.5 56.5t51.5 21.5q32 0 54 -21.5t22 -56.5z" />
<glyph unicode="&#x1e6c;" horiz-adv-x="567" d="M15 651h537v-125h-193v-526h-150v526h-194v125zM357 -160q0 -37 -22 -59t-54 -22q-29 0 -51.5 22t-22.5 59q0 35 22.5 56.5t51.5 21.5q32 0 54 -21.5t22 -56.5z" />
<glyph unicode="&#x1e6d;" horiz-adv-x="400" d="M85 460v103l137 30v-133h136v-118h-136v-164q0 -29 13.5 -47.5t45.5 -18.5q23 0 43.5 7t32.5 16l8 -116q-20 -12 -55 -21.5t-77 -9.5q-32 0 -59.5 7.5t-47 24t-30.5 43t-11 64.5v215h-70v118h70zM298 -160q0 -37 -22 -59t-54 -22q-29 0 -51.5 22t-22.5 59q0 35 22.5 56.5 t51.5 21.5q32 0 54 -21.5t22 -56.5z" />
<glyph unicode="&#x1e80;" horiz-adv-x="952" d="M189 0l-174 651h139l116 -527l134 527h147l138 -527l112 527h136l-170 -651h-155l-136 535l-132 -535h-155zM548 809l-71 -71l-165 166l71 71z" />
<glyph unicode="&#x1e81;" horiz-adv-x="780" d="M458 460l94 -348l77 348h136l-150 -460h-136l-91 358l-92 -358h-138l-143 460h140l76 -348l91 348h136zM464 637l-71 -71l-165 166l71 71z" />
<glyph unicode="&#x1e82;" horiz-adv-x="952" d="M189 0l-174 651h139l116 -527l134 527h147l138 -527l112 527h136l-170 -651h-155l-136 535l-132 -535h-155zM565 975l71 -71l-165 -166l-71 71z" />
<glyph unicode="&#x1e83;" horiz-adv-x="780" d="M458 460l94 -348l77 348h136l-150 -460h-136l-91 358l-92 -358h-138l-143 460h140l76 -348l91 348h136zM481 803l71 -71l-165 -166l-71 71z" />
<glyph unicode="&#x1e84;" horiz-adv-x="952" d="M189 0l-174 651h139l116 -527l134 527h147l138 -527l112 527h136l-170 -651h-155l-136 535l-132 -535h-155zM437 816q0 -35 -22.5 -56.5t-56.5 -21.5t-56 21.5t-22 56.5q0 36 22 57.5t56 21.5t56.5 -21.5t22.5 -57.5zM670 816q0 -35 -22.5 -56.5t-54.5 -21.5 q-35 0 -57 21.5t-22 56.5q0 36 22 57.5t57 21.5q32 0 54.5 -21.5t22.5 -57.5z" />
<glyph unicode="&#x1e85;" horiz-adv-x="780" d="M458 460l94 -348l77 348h136l-150 -460h-136l-91 358l-92 -358h-138l-143 460h140l76 -348l91 348h136zM352 644q0 -35 -22.5 -56.5t-56.5 -21.5t-56 21.5t-22 56.5q0 36 22 57.5t56 21.5t56.5 -21.5t22.5 -57.5zM585 644q0 -35 -22.5 -56.5t-54.5 -21.5q-35 0 -57 21.5 t-22 56.5q0 36 22 57.5t57 21.5q32 0 54.5 -21.5t22.5 -57.5z" />
<glyph unicode="&#x1e9e;" horiz-adv-x="719" d="M85 418q0 109 67.5 171t212.5 62h254v-111l-28 -29l-135 -134v-4q44 0 83.5 -12.5t69.5 -36.5t47.5 -58.5t17.5 -79.5q0 -37 -13.5 -72.5t-44 -63.5t-77 -45t-110.5 -17q-37 0 -70 5t-57 12v124q17 -10 45.5 -18t56.5 -8q55 0 88 21t33 57q0 43 -46 62t-142 19 q-6 0 -11.5 -0.5t-10.5 -1.5t-10 -1l-10 92l41 44l128 131h-104q-28 0 -50.5 -9t-39.5 -28t-26 -47t-9 -67v-375h-150v418z" />
<glyph unicode="&#x1ef2;" horiz-adv-x="616" d="M10 651h152l148 -282l147 282h149l-222 -387v-264h-151v264zM382 809l-71 -71l-165 166l71 71z" />
<glyph unicode="&#x1ef3;" horiz-adv-x="503" d="M-7 460h150l109 -359l104 359h146l-214 -594q-11 -32 -27.5 -53t-36 -33t-41 -17t-43.5 -5q-25 0 -52.5 4.5t-47.5 11.5l22 120q15 -5 31 -8.5t32 -3.5q15 0 28.5 5.5t18.5 22.5l14 41zM319 637l-71 -71l-165 166l71 71z" />
<glyph unicode="&#x2002;" horiz-adv-x="480" />
<glyph unicode="&#x2003;" horiz-adv-x="780" />
<glyph unicode="&#x2004;" horiz-adv-x="260" />
<glyph unicode="&#x2005;" horiz-adv-x="195" />
<glyph unicode="&#x2006;" horiz-adv-x="130" />
<glyph unicode="&#x2008;" horiz-adv-x="200" />
<glyph unicode="&#x2009;" horiz-adv-x="156" />
<glyph unicode="&#x200a;" horiz-adv-x="97" />
<glyph unicode="&#x200b;" horiz-adv-x="0" />
<glyph unicode="&#x2010;" horiz-adv-x="340" d="M30 295h280v-115h-280v115z" />
<glyph unicode="&#x2011;" horiz-adv-x="340" d="M30 295h280v-115h-280v115z" />
<glyph unicode="&#x2012;" horiz-adv-x="630" d="M85 273h460v-90h-460v90z" />
<glyph unicode="&#x2013;" horiz-adv-x="480" d="M10 273h460v-90h-460v90z" />
<glyph unicode="&#x2014;" horiz-adv-x="780" d="M10 273h760v-90h-760v90z" />
<glyph unicode="&#x2016;" horiz-adv-x="490" d="M95 -190v871h110v-871h-110zM285 -190v871h110v-871h-110z" />
<glyph unicode="&#x2018;" horiz-adv-x="250" d="M166.005 428.007h-110.993v106.993q0 50.9971 21.999 83.4951q21.998 32.498 53.9961 46.4971l83.9951 -40.998q-19.999 -7.99902 -34.498 -29.498q-14.499 -21.498 -14.499 -59.4961v-106.993z" />
<glyph unicode="&#x2019;" horiz-adv-x="250" d="M84 651h111v-107q0 -51 -22 -83.5t-54 -46.5l-84 41q20 8 34.5 29.5t14.5 59.5v107z" />
<glyph unicode="&#x201a;" horiz-adv-x="250" d="M84 106h111v-107q0 -51 -22 -83.5t-54 -46.5l-84 41q20 8 34.5 29.5t14.5 59.5v107z" />
<glyph unicode="&#x201c;" horiz-adv-x="420" d="M166.005 428.007h-110.993v106.993q0 50.9971 21.999 83.4951q21.998 32.498 53.9961 46.4971l83.9951 -40.998q-19.999 -7.99902 -34.498 -29.498q-14.499 -21.498 -14.499 -59.4961v-106.993zM336.005 428.007h-110.993v106.993q0 50.9971 21.999 83.4951 q21.998 32.498 53.9961 46.4971l83.9951 -40.998q-19.999 -7.99902 -34.498 -29.498q-14.499 -21.498 -14.499 -59.4961v-106.993z" />
<glyph unicode="&#x201d;" horiz-adv-x="420" d="M84 651h111v-107q0 -51 -22 -83.5t-54 -46.5l-84 41q20 8 34.5 29.5t14.5 59.5v107zM254 651h111v-107q0 -51 -22 -83.5t-54 -46.5l-84 41q20 8 34.5 29.5t14.5 59.5v107z" />
<glyph unicode="&#x201e;" horiz-adv-x="420" d="M84 106h111v-107q0 -51 -22 -83.5t-54 -46.5l-84 41q20 8 34.5 29.5t14.5 59.5v107zM254 106h111v-107q0 -51 -22 -83.5t-54 -46.5l-84 41q20 8 34.5 29.5t14.5 59.5v107z" />
<glyph unicode="&#x2020;" horiz-adv-x="440" d="M20 515h144v166h112v-166h144v-104h-144v-441h-112v441h-144v104z" />
<glyph unicode="&#x2021;" horiz-adv-x="480" d="M296 -30h-112v166h-144v104h144v171h-144v104h144v166h112v-166h144v-104h-144v-171h144v-104h-144v-166z" />
<glyph unicode="&#x2022;" horiz-adv-x="400" d="M310 262q0 -55 -32.5 -86.5t-77.5 -31.5q-20 0 -39.5 8t-35.5 23.5t-25.5 37.5t-9.5 49q0 24 9.5 44.5t25.5 35t35.5 22.5t39.5 8q22 0 42 -8t35 -22.5t24 -35t9 -44.5z" />
<glyph unicode="&#x2026;" horiz-adv-x="900" d="M241 71q0 -37 -22 -59t-54 -22q-29 0 -51.5 22t-22.5 59q0 35 22.5 56.5t51.5 21.5q32 0 54 -21.5t22 -56.5zM521 71q0 -37 -22 -59t-54 -22q-29 0 -51.5 22t-22.5 59q0 35 22.5 56.5t51.5 21.5q32 0 54 -21.5t22 -56.5zM811 71q0 -37 -22 -59t-54 -22q-29 0 -51.5 22 t-22.5 59q0 35 22.5 56.5t51.5 21.5q32 0 54 -21.5t22 -56.5z" />
<glyph unicode="&#x2030;" horiz-adv-x="1340" d="M341 0h-111l367 651h111zM204 658q88 0 135.5 -55.5t47.5 -158.5t-47.5 -158.5t-135.5 -55.5t-136 55.5t-48 158.5t48 158.5t136 55.5zM204 312q42 0 62.5 35t20.5 97q0 61 -20.5 96.5t-62.5 35.5q-43 0 -63.5 -35.5t-20.5 -96.5q0 -62 20.5 -97t63.5 -35zM731 422 q88 0 135.5 -55.5t47.5 -158.5t-47.5 -158.5t-135.5 -55.5t-136 55.5t-48 158.5t48 158.5t136 55.5zM731 76q42 0 62.5 35t20.5 97q0 61 -20.5 96.5t-62.5 35.5q-43 0 -63.5 -35.5t-20.5 -96.5q0 -62 20.5 -97t63.5 -35zM1137 422q88 0 135.5 -55.5t47.5 -158.5 t-47.5 -158.5t-135.5 -55.5t-136 55.5t-48 158.5t48 158.5t136 55.5zM1137 76q42 0 62.5 35t20.5 97q0 61 -20.5 96.5t-62.5 35.5q-43 0 -63.5 -35.5t-20.5 -96.5q0 -62 20.5 -97t63.5 -35z" />
<glyph unicode="&#x2032;" horiz-adv-x="250" d="M99 660h111l-60 -285h-111z" />
<glyph unicode="&#x2033;" horiz-adv-x="420" d="M99 660h111l-60 -285h-111zM269 660h111l-60 -285h-111z" />
<glyph unicode="&#x2039;" horiz-adv-x="320" d="M152 36l-122 180l122 180h111l-110 -180l110 -180h-111z" />
<glyph unicode="&#x203a;" horiz-adv-x="320" d="M168 396l122 -180l-122 -180h-111l110 180l-110 180h111z" />
<glyph unicode="&#x2042;" horiz-adv-x="884" d="M386 681h112l-4 -104l98 38l35 -107l-100 -29l64 -83l-91 -66l-58 88l-58 -88l-91 66l64 83l-100 29l35 107l98 -38zM163 348h112l-4 -104l98 38l35 -107l-100 -29l64 -83l-91 -66l-58 88l-58 -88l-91 66l64 83l-100 29l35 107l98 -38zM608 348h112l-4 -104l98 38 l35 -107l-100 -29l64 -83l-91 -66l-58 88l-58 -88l-91 66l64 83l-100 29l35 107l98 -38z" />
<glyph unicode="&#x2044;" d="M22 0h-111l367 651h111z" />
<glyph unicode="&#x2070;" horiz-adv-x="410" d="M370 505q0 -84 -44 -133.5t-119 -49.5q-38 0 -69 13t-52.5 37t-33.5 57.5t-12 75.5q0 83 45.5 132t121.5 49q75 0 119 -49t44 -132zM271 504q0 47 -17 74.5t-49 27.5t-49.5 -27.5t-17.5 -74.5q0 -46 17.5 -73.5t49.5 -27.5t49 27.5t17 73.5z" />
<glyph unicode="&#x2074;" horiz-adv-x="380" d="M181 679h121v-213h56v-78h-56v-58h-88v58h-179l-23 55l31 44zM214 602l-93 -136h93v136z" />
<glyph unicode="&#x2075;" horiz-adv-x="380" d="M146 549q11 5 31 7.5t31 2.5q26 0 50 -6.5t43 -20t30 -35t11 -51.5q0 -33 -14 -56.5t-36 -38.5t-49 -22t-54 -7q-53 0 -86.5 13t-47.5 27l39 64q12 -17 37 -25.5t51 -8.5q30 0 48 13t18 36q0 24 -15.5 36t-44.5 12q-27 0 -46.5 -6t-29.5 -12l-49 34l35 175h229v-73h-169z " />
<glyph unicode="&#x2076;" horiz-adv-x="380" d="M191 322q-45 0 -75 15t-47.5 39.5t-25 55.5t-7.5 63q0 31 10 65t31 62t54.5 46t80.5 18q27 0 46 -4t32.5 -10t23.5 -13.5t19 -14.5l-40 -63q-17 16 -37 24t-47 8q-26 0 -42 -7.5t-24.5 -19.5t-11.5 -26.5t-3 -29.5h4q17 14 35.5 21.5t56.5 7.5q68 0 97 -32t29 -81 q0 -23 -8.5 -45.5t-27 -40t-49 -28t-74.5 -10.5zM264 442q0 23 -15.5 35.5t-53.5 12.5q-29 0 -47 -14t-18 -34q0 -21 18 -34.5t50 -13.5q36 0 51 15.5t15 32.5z" />
<glyph unicode="&#x2077;" horiz-adv-x="320" d="M309 680v-66q-24 -27 -47 -57t-41 -65t-29.5 -75.5t-13.5 -88.5h-101q0 38 13.5 78t33.5 76.5t43 68t42 52.5h-218v77h318z" />
<glyph unicode="&#x2078;" horiz-adv-x="380" d="M265 515q13 -5 27.5 -11.5t26.5 -16.5t20 -23.5t8 -32.5q0 -29 -12 -49.5t-33.5 -34t-50.5 -19.5t-63 -6q-85 0 -120 29t-35 73q0 21 8 36t20 26t26 18t26 11q-24 7 -43.5 24.5t-19.5 49.5q0 17 8.5 34.5t26 31.5t43.5 22.5t61 8.5q64 0 102 -26.5t38 -64.5 q0 -20 -7.5 -34t-17.5 -24t-21 -15t-18 -7zM133 586q0 -17 14.5 -27.5t42.5 -10.5q26 0 40 9.5t14 28.5q0 15 -14 25.5t-40 10.5q-29 0 -43 -10.5t-14 -25.5zM118 434q0 -20 19 -31t52 -11q35 0 53.5 11.5t18.5 30.5q0 20 -18.5 32t-53.5 12t-53 -12t-18 -32z" />
<glyph unicode="&#x2079;" horiz-adv-x="380" d="M189 686q45 0 75 -15t47.5 -39.5t25 -55.5t7.5 -63t-10 -65.5t-31 -61.5t-54.5 -46t-80.5 -18q-27 0 -46 3.5t-32.5 9.5t-23.5 13.5t-19 15.5l40 63q17 -16 37 -24t47 -8q26 0 42 7.5t24.5 19.5t11.5 26.5t3 29.5h-4q-17 -14 -35.5 -21.5t-56.5 -7.5q-68 0 -97 32t-29 81 q0 23 8 45.5t27 40t49.5 28t74.5 10.5zM116 566q0 -23 15.5 -35.5t53.5 -12.5q29 0 47 14t18 34q0 21 -18 34.5t-50 13.5q-36 0 -51 -15.5t-15 -32.5z" />
<glyph unicode="&#x207a;" horiz-adv-x="410" d="M48 542h116v117h82v-117h116v-76h-116v-117h-82v117h-116v76z" />
<glyph unicode="&#x207b;" horiz-adv-x="410" d="M48 542h314v-76h-314v76z" />
<glyph unicode="&#x207c;" horiz-adv-x="410" d="M48 618h314v-76h-314v76zM48 466h314v-76h-314v76z" />
<glyph unicode="&#x207d;" horiz-adv-x="200" d="M40 503q0 42 8.5 74.5t19.5 55.5q13 27 29 46h81q-14 -23 -25 -51q-10 -24 -17.5 -56t-7.5 -69t7.5 -68.5t17.5 -56.5q11 -28 25 -49h-81q-16 18 -29 45q-11 23 -19.5 55.5t-8.5 73.5z" />
<glyph unicode="&#x207e;" horiz-adv-x="200" d="M160 503q0 -41 -8.5 -73.5t-19.5 -55.5q-13 -27 -29 -45h-81q14 21 25 49q10 25 17.5 56.5t7.5 68.5t-7.5 69t-17.5 56q-11 28 -25 51h81q16 -19 29 -46q11 -23 19.5 -55.5t8.5 -74.5z" />
<glyph unicode="&#x2080;" horiz-adv-x="410" d="M370 26q0 -84 -44 -133.5t-119 -49.5q-38 0 -69 13t-52.5 37t-33.5 57.5t-12 75.5q0 83 45.5 132t121.5 49q75 0 119 -49t44 -132zM271 25q0 47 -17 74.5t-49 27.5t-49.5 -27.5t-17.5 -74.5q0 -46 17.5 -73.5t49.5 -27.5t49 27.5t17 73.5z" />
<glyph unicode="&#x2081;" horiz-adv-x="380" d="M61 -71h98v164q-6 -3 -19 -7.5t-28.5 -8.5t-31 -6.5t-26.5 -2.5l-15 82q15 0 35.5 4.5t41 11.5t37 16t22.5 18h83v-271h93v-78h-290v78z" />
<glyph unicode="&#x2082;" horiz-adv-x="380" d="M41 76q-2 10 -3.5 14.5t-1.5 13.5q0 18 9 36t27.5 33t45.5 24.5t63 9.5q26 0 50.5 -7t43.5 -21t30.5 -34t11.5 -47q0 -29 -11.5 -51.5t-31.5 -42t-47 -38t-58 -38.5h176v-77h-297v83q25 13 56.5 30t58.5 36.5t45.5 40t18.5 41.5q0 22 -13.5 36.5t-39.5 14.5 q-24 0 -40 -13t-16 -34q0 -13 5 -30z" />
<glyph unicode="&#x2083;" horiz-adv-x="380" d="M47 150q14 25 51.5 41t84.5 16q29 0 53 -6.5t41.5 -18t27.5 -27t10 -33.5q0 -23 -10.5 -38.5t-22.5 -25.5q-15 -11 -33 -18q24 -2 43 -13q17 -9 30.5 -26.5t13.5 -49.5q0 -27 -16.5 -47.5t-41.5 -34t-54 -20t-55 -6.5q-46 0 -74 11t-53 31l40 63q15 -14 40.5 -23t52.5 -9 t46.5 11t19.5 34q0 17 -16 28t-38 11q-14 0 -26 -1t-21 -3q-11 -2 -20 -4l6 69q2 -1 16.5 -2.5t29.5 -1.5q20 0 35 11t15 28t-18.5 27t-40.5 10q-30 0 -54 -14.5t-29 -28.5z" />
<glyph unicode="&#x2084;" horiz-adv-x="380" d="M181 200h121v-213h56v-78h-56v-58h-88v58h-179l-23 55l31 44zM214 123l-93 -136h93v136z" />
<glyph unicode="&#x2085;" horiz-adv-x="380" d="M146 70q11 5 31 7.5t31 2.5q26 0 50 -6.5t43 -20t30 -35t11 -51.5q0 -33 -14 -56.5t-36 -38.5t-49 -22t-54 -7q-53 0 -86.5 13t-47.5 27l39 64q12 -17 37 -25.5t51 -8.5q30 0 48 13t18 36q0 24 -15.5 36t-44.5 12q-27 0 -46.5 -6t-29.5 -12l-49 34l35 175h229v-73h-169z " />
<glyph unicode="&#x2086;" horiz-adv-x="380" d="M191 -157q-45 0 -75 15t-47.5 39.5t-25 55.5t-7.5 63q0 31 10 65t31 62t54.5 46t80.5 18q27 0 46 -4t32.5 -10t23.5 -13.5t19 -14.5l-40 -63q-17 16 -37 24t-47 8q-26 0 -42 -7.5t-24.5 -19.5t-11.5 -26.5t-3 -29.5h4q17 14 35.5 21.5t56.5 7.5q68 0 97 -32t29 -81 q0 -23 -8.5 -45.5t-27 -40t-49 -28t-74.5 -10.5zM264 -37q0 23 -15.5 35.5t-53.5 12.5q-29 0 -47 -14t-18 -34q0 -21 18 -34.5t50 -13.5q36 0 51 15.5t15 32.5z" />
<glyph unicode="&#x2087;" horiz-adv-x="320" d="M309 201v-66q-24 -27 -47 -57t-41 -65t-29.5 -75.5t-13.5 -88.5h-101q0 38 13.5 78t33.5 76.5t43 68t42 52.5h-218v77h318z" />
<glyph unicode="&#x2088;" horiz-adv-x="380" d="M265 36q13 -5 27.5 -11.5t26.5 -16.5t20 -23.5t8 -32.5q0 -29 -12 -49.5t-33.5 -34t-50.5 -19.5t-63 -6q-85 0 -120 29t-35 73q0 21 8 36t20 26t26 18t26 11q-24 7 -43.5 24.5t-19.5 49.5q0 17 8.5 34.5t26 31.5t43.5 22.5t61 8.5q64 0 102 -26.5t38 -64.5 q0 -20 -7.5 -34t-17.5 -24t-21 -15t-18 -7zM133 107q0 -17 14.5 -27.5t42.5 -10.5q26 0 40 9.5t14 28.5q0 15 -14 25.5t-40 10.5q-29 0 -43 -10.5t-14 -25.5zM118 -45q0 -20 19 -31t52 -11q35 0 53.5 11.5t18.5 30.5q0 20 -18.5 32t-53.5 12t-53 -12t-18 -32z" />
<glyph unicode="&#x2089;" horiz-adv-x="380" d="M189 207q45 0 75 -15t47.5 -39.5t25 -55.5t7.5 -63t-10 -65.5t-31 -61.5t-54.5 -46t-80.5 -18q-27 0 -46 3.5t-32.5 9.5t-23.5 13.5t-19 15.5l40 63q17 -16 37 -24t47 -8q26 0 42 7.5t24.5 19.5t11.5 26.5t3 29.5h-4q-17 -14 -35.5 -21.5t-56.5 -7.5q-68 0 -97 32t-29 81 q0 23 8 45.5t27 40t49.5 28t74.5 10.5zM116 87q0 -23 15.5 -35.5t53.5 -12.5q29 0 47 14t18 34q0 21 -18 34.5t-50 13.5q-36 0 -51 -15.5t-15 -32.5z" />
<glyph unicode="&#x208a;" horiz-adv-x="410" d="M48 63h116v117h82v-117h116v-76h-116v-117h-82v117h-116v76z" />
<glyph unicode="&#x208b;" horiz-adv-x="410" d="M48 63h314v-76h-314v76z" />
<glyph unicode="&#x208c;" horiz-adv-x="410" d="M48 139h314v-76h-314v76zM48 -13h314v-76h-314v76z" />
<glyph unicode="&#x208d;" horiz-adv-x="200" d="M40 24q0 42 8.5 74.5t19.5 55.5q13 27 29 46h81q-14 -23 -25 -51q-10 -24 -17.5 -56t-7.5 -69t7.5 -68.5t17.5 -56.5q11 -28 25 -49h-81q-16 18 -29 45q-11 23 -19.5 55.5t-8.5 73.5z" />
<glyph unicode="&#x208e;" horiz-adv-x="200" d="M160 24q0 -41 -8.5 -73.5t-19.5 -55.5q-13 -27 -29 -45h-81q14 21 25 49q10 25 17.5 56.5t7.5 68.5t-7.5 69t-17.5 56q-11 28 -25 51h81q16 -19 29 -46q11 -23 19.5 -55.5t8.5 -74.5z" />
<glyph unicode="&#x2090;" horiz-adv-x="430" d="M405 -65q8 0 15 2v-73q-10 -7 -25 -12.5t-38 -5.5q-35 0 -51 18t-17 45h-4q-11 -28 -38.5 -47.5t-69.5 -19.5q-60 0 -93.5 30.5t-33.5 78.5q0 27 12.5 45t32 29.5t43.5 17t48 8.5l91 12v7q0 30 -20.5 42t-55.5 12q-36 0 -60 -13t-37 -32l-41 65q9 10 22.5 21t32 19.5 t44.5 15t58 6.5q76 0 118.5 -31.5t42.5 -100.5v-28.5v-30.5v-28v-22q0 -30 24 -30zM278 5l-70 -11q-25 -4 -40 -12.5t-15 -28.5q0 -17 11.5 -27.5t34.5 -10.5q22 0 37 5.5t24.5 14t13.5 18.5t4 20v32z" />
<glyph unicode="&#x2091;" horiz-adv-x="427" d="M397 27q0 -5 -0.5 -10t-0.5 -9v-9h-254q0 -22 8.5 -36t21 -22.5t28 -12t30.5 -3.5q40 0 66.5 10.5t43.5 29.5l35 -71q-24 -22 -64 -37t-85 -15q-52 0 -88.5 16.5t-61 43t-35.5 60t-11 67.5q0 33 11.5 64.5t35.5 56.5t58 40.5t80 15.5q59 0 94.5 -19t55 -46.5t26 -58 t6.5 -55.5zM286 63q0 28 -17.5 47t-53.5 19t-55 -19t-19 -47h145z" />
<glyph unicode="&#x2092;" horiz-adv-x="451" d="M421 23q0 -43 -15 -77t-41.5 -57t-62 -35t-77.5 -12q-40 0 -76 12t-62.5 35t-41.5 57t-15 77q0 44 15 78t41.5 57t62.5 35t76 12q42 0 77.5 -12t62 -35t41.5 -57t15 -78zM307 23q0 51 -23 72.5t-59 21.5q-35 0 -58 -21.5t-23 -72.5q0 -50 23 -72t58 -22q36 0 59 22t23 72 z" />
<glyph unicode="&#x2093;" horiz-adv-x="435" d="M219 78l75 121h121l-127 -174l127 -171h-127l-73 118l-72 -118h-123l127 171l-127 174h124z" />
<glyph unicode="&#x2094;" horiz-adv-x="427" d="M30 44h255q0 20 -8.5 35t-21 24.5t-28 14.5t-30.5 5q-40 0 -66.5 -10.5t-43.5 -30.5l-35 71q24 23 65 38t87 15q51 0 88 -15t60 -40t34 -57.5t11 -66.5t-12.5 -67t-36.5 -59.5t-59 -42.5t-80 -16q-59 0 -94 18.5t-54 45.5t-25 58t-6 56v24zM141 -16q0 -29 17.5 -49 t53.5 -20t55 20t19 49h-145z" />
<glyph unicode="&#x20ac;" horiz-adv-x="633" d="M45 424h72q13 57 42 101.5t69.5 75t91.5 46.5t109 16q30 0 57.5 -5.5t51.5 -13.5t43.5 -18.5t31.5 -19.5l-34 -137q-8 11 -22 23t-33.5 21.5t-44 15.5t-53.5 6q-62 0 -99.5 -29t-54.5 -82h230l-19 -61h-222q-1 -8 -1 -17v-17q0 -11 0.5 -21.5t1.5 -20.5h198l-20 -61h-165 q19 -53 58.5 -81.5t98.5 -28.5q53 0 91.5 15t61.5 47v-152q-31 -17 -70 -27.5t-88 -10.5q-58 0 -108.5 16t-91 46.5t-69 74.5t-41.5 101h-92l20 61h62q-1 9 -1 18.5v19.5v19t1 19h-82z" />
<glyph unicode="&#x2122;" horiz-adv-x="666" d="M626 651v-253h-84v148l-46 -80h-59l-46 80v-148h-84v253h107l55 -104l54 104h103zM274 575h-75v-177h-84v177h-75v76h234v-76z" />
<glyph unicode="&#x2153;" horiz-adv-x="850" d="M297 0h-111l367 651h111zM29 381h98v164q-6 -3 -19 -7.5t-28.5 -8.5t-31 -6.5t-26.5 -2.5l-15 82q15 0 35.5 4.5t41 11.5t37 16t22.5 18h83v-271h93v-78h-290v78zM517 299q14 25 51.5 41t84.5 16q29 0 53 -6.5t41.5 -18t27.5 -27t10 -33.5q0 -23 -10.5 -38.5t-22.5 -25.5 q-15 -11 -33 -18q24 -2 43 -13q17 -9 30.5 -26.5t13.5 -49.5q0 -27 -16.5 -47.5t-41.5 -34t-54 -20t-55 -6.5q-46 0 -74 11t-53 31l40 63q15 -14 40.5 -23t52.5 -9t46.5 11t19.5 34q0 17 -16 28t-38 11q-14 0 -26 -1t-21 -3q-11 -2 -20 -4l6 69q2 -1 16.5 -2.5t29.5 -1.5 q20 0 35 11t15 28t-18.5 27t-40.5 10q-30 0 -54 -14.5t-29 -28.5z" />
<glyph unicode="&#x2154;" horiz-adv-x="850" d="M307 0h-111l367 651h111zM37 527q-2 10 -3.5 14.5t-1.5 13.5q0 18 9 36t27.5 33t45.5 24.5t63 9.5q26 0 50.5 -7t43.5 -21t30.5 -34t11.5 -47q0 -29 -11.5 -51.5t-31.5 -42t-47 -38t-58 -38.5h176v-77h-297v83q25 13 56.5 30t58.5 36.5t45.5 40t18.5 41.5 q0 22 -13.5 36.5t-39.5 14.5q-24 0 -40 -13t-16 -34q0 -13 5 -30zM517 299q14 25 51.5 41t84.5 16q29 0 53 -6.5t41.5 -18t27.5 -27t10 -33.5q0 -23 -10.5 -38.5t-22.5 -25.5q-15 -11 -33 -18q24 -2 43 -13q17 -9 30.5 -26.5t13.5 -49.5q0 -27 -16.5 -47.5t-41.5 -34 t-54 -20t-55 -6.5q-46 0 -74 11t-53 31l40 63q15 -14 40.5 -23t52.5 -9t46.5 11t19.5 34q0 17 -16 28t-38 11q-14 0 -26 -1t-21 -3q-11 -2 -20 -4l6 69q2 -1 16.5 -2.5t29.5 -1.5q20 0 35 11t15 28t-18.5 27t-40.5 10q-30 0 -54 -14.5t-29 -28.5z" />
<glyph unicode="&#x2155;" horiz-adv-x="850" d="M609 218q11 5 31 7.5t31 2.5q26 0 50 -6.5t43 -20t30 -35t11 -51.5q0 -33 -14 -56.5t-36 -38.5t-49 -22t-54 -7q-53 0 -86.5 13t-47.5 27l39 64q12 -17 37 -25.5t51 -8.5q30 0 48 13t18 36q0 24 -15.5 36t-44.5 12q-27 0 -46.5 -6t-29.5 -12l-49 34l35 175h229v-73h-169z M297 0h-111l367 651h111zM29 381h98v164q-6 -3 -19 -7.5t-28.5 -8.5t-31 -6.5t-26.5 -2.5l-15 82q15 0 35.5 4.5t41 11.5t37 16t22.5 18h83v-271h93v-78h-290v78z" />
<glyph unicode="&#x2156;" horiz-adv-x="850" d="M37 527q-2 10 -3.5 14.5t-1.5 13.5q0 18 9 36t27.5 33t45.5 24.5t63 9.5q26 0 50.5 -7t43.5 -21t30.5 -34t11.5 -47q0 -29 -11.5 -51.5t-31.5 -42t-47 -38t-58 -38.5h176v-77h-297v83q25 13 56.5 30t58.5 36.5t45.5 40t18.5 41.5q0 22 -13.5 36.5t-39.5 14.5 q-24 0 -40 -13t-16 -34q0 -13 5 -30zM609 218q11 5 31 7.5t31 2.5q26 0 50 -6.5t43 -20t30 -35t11 -51.5q0 -33 -14 -56.5t-36 -38.5t-49 -22t-54 -7q-53 0 -86.5 13t-47.5 27l39 64q12 -17 37 -25.5t51 -8.5q30 0 48 13t18 36q0 24 -15.5 36t-44.5 12q-27 0 -46.5 -6 t-29.5 -12l-49 34l35 175h229v-73h-169zM297 0h-111l367 651h111z" />
<glyph unicode="&#x2157;" horiz-adv-x="850" d="M54 601q14 25 51.5 41t84.5 16q29 0 53 -6.5t41.5 -18t27.5 -27t10 -33.5q0 -23 -10.5 -38.5t-22.5 -25.5q-15 -11 -33 -18q24 -2 43 -13q17 -9 30.5 -26.5t13.5 -49.5q0 -27 -16.5 -47.5t-41.5 -34t-54 -20t-55 -6.5q-46 0 -74 11t-53 31l40 63q15 -14 40.5 -23t52.5 -9 t46.5 11t19.5 34q0 17 -16 28t-38 11q-14 0 -26 -1t-21 -3q-11 -2 -20 -4l6 69q2 -1 16.5 -2.5t29.5 -1.5q20 0 35 11t15 28t-18.5 27t-40.5 10q-30 0 -54 -14.5t-29 -28.5zM609 218q11 5 31 7.5t31 2.5q26 0 50 -6.5t43 -20t30 -35t11 -51.5q0 -33 -14 -56.5t-36 -38.5 t-49 -22t-54 -7q-53 0 -86.5 13t-47.5 27l39 64q12 -17 37 -25.5t51 -8.5q30 0 48 13t18 36q0 24 -15.5 36t-44.5 12q-27 0 -46.5 -6t-29.5 -12l-49 34l35 175h229v-73h-169zM297 0h-111l367 651h111z" />
<glyph unicode="&#x2158;" horiz-adv-x="850" d="M181 651h121v-213h56v-78h-56v-58h-88v58h-179l-23 55l31 44zM214 574l-93 -136h93v136zM609 218q11 5 31 7.5t31 2.5q26 0 50 -6.5t43 -20t30 -35t11 -51.5q0 -33 -14 -56.5t-36 -38.5t-49 -22t-54 -7q-53 0 -86.5 13t-47.5 27l39 64q12 -17 37 -25.5t51 -8.5 q30 0 48 13t18 36q0 24 -15.5 36t-44.5 12q-27 0 -46.5 -6t-29.5 -12l-49 34l35 175h229v-73h-169zM297 0h-111l367 651h111z" />
<glyph unicode="&#x2159;" horiz-adv-x="850" d="M651 -8q-45 0 -75 15t-47.5 39.5t-25 55.5t-7.5 63q0 31 10 65t31 62t54.5 46t80.5 18q27 0 46 -4t32.5 -10t23.5 -13.5t19 -14.5l-40 -63q-17 16 -37 24t-47 8q-26 0 -42 -7.5t-24.5 -19.5t-11.5 -26.5t-3 -29.5h4q17 14 35.5 21.5t56.5 7.5q68 0 97 -32t29 -81 q0 -23 -8.5 -45.5t-27 -40t-49 -28t-74.5 -10.5zM724 112q0 23 -15.5 35.5t-53.5 12.5q-29 0 -47 -14t-18 -34q0 -21 18 -34.5t50 -13.5q36 0 51 15.5t15 32.5zM297 0h-111l367 651h111zM29 381h98v164q-6 -3 -19 -7.5t-28.5 -8.5t-31 -6.5t-26.5 -2.5l-15 82q15 0 35.5 4.5 t41 11.5t37 16t22.5 18h83v-271h93v-78h-290v78z" />
<glyph unicode="&#x215a;" horiz-adv-x="850" d="M115 520q11 5 31 7.5t31 2.5q26 0 50 -6.5t43 -20t30 -35t11 -51.5q0 -33 -14 -56.5t-36 -38.5t-49 -22t-54 -7q-53 0 -86.5 13t-47.5 27l39 64q12 -17 37 -25.5t51 -8.5q30 0 48 13t18 36q0 24 -15.5 36t-44.5 12q-27 0 -46.5 -6t-29.5 -12l-49 34l35 175h229v-73h-169z M651 -8q-45 0 -75 15t-47.5 39.5t-25 55.5t-7.5 63q0 31 10 65t31 62t54.5 46t80.5 18q27 0 46 -4t32.5 -10t23.5 -13.5t19 -14.5l-40 -63q-17 16 -37 24t-47 8q-26 0 -42 -7.5t-24.5 -19.5t-11.5 -26.5t-3 -29.5h4q17 14 35.5 21.5t56.5 7.5q68 0 97 -32t29 -81 q0 -23 -8.5 -45.5t-27 -40t-49 -28t-74.5 -10.5zM724 112q0 23 -15.5 35.5t-53.5 12.5q-29 0 -47 -14t-18 -34q0 -21 18 -34.5t50 -13.5q36 0 51 15.5t15 32.5zM297 0h-111l367 651h111z" />
<glyph unicode="&#x215b;" horiz-adv-x="850" d="M722 185q13 -5 27.5 -11.5t26.5 -16.5t20 -23.5t8 -32.5q0 -29 -12 -49.5t-33.5 -34t-50.5 -19.5t-63 -6q-85 0 -120 29t-35 73q0 21 8 36t20 26t26 18t26 11q-24 7 -43.5 24.5t-19.5 49.5q0 17 8.5 34.5t26 31.5t43.5 22.5t61 8.5q64 0 102 -26.5t38 -64.5 q0 -20 -7.5 -34t-17.5 -24t-21 -15t-18 -7zM590 256q0 -17 14.5 -27.5t42.5 -10.5q26 0 40 9.5t14 28.5q0 15 -14 25.5t-40 10.5q-29 0 -43 -10.5t-14 -25.5zM575 104q0 -20 19 -31t52 -11q35 0 53.5 11.5t18.5 30.5q0 20 -18.5 32t-53.5 12t-53 -12t-18 -32zM297 0h-111 l367 651h111zM29 381h98v164q-6 -3 -19 -7.5t-28.5 -8.5t-31 -6.5t-26.5 -2.5l-15 82q15 0 35.5 4.5t41 11.5t37 16t22.5 18h83v-271h93v-78h-290v78z" />
<glyph unicode="&#x215c;" horiz-adv-x="850" d="M45 601q14 25 51.5 41t84.5 16q29 0 53 -6.5t41.5 -18t27.5 -27t10 -33.5q0 -23 -10.5 -38.5t-22.5 -25.5q-15 -11 -33 -18q24 -2 43 -13q17 -9 30.5 -26.5t13.5 -49.5q0 -27 -16.5 -47.5t-41.5 -34t-54 -20t-55 -6.5q-46 0 -74 11t-53 31l40 63q15 -14 40.5 -23t52.5 -9 t46.5 11t19.5 34q0 17 -16 28t-38 11q-14 0 -26 -1t-21 -3q-11 -2 -20 -4l6 69q2 -1 16.5 -2.5t29.5 -1.5q20 0 35 11t15 28t-18.5 27t-40.5 10q-30 0 -54 -14.5t-29 -28.5zM722 185q13 -5 27.5 -11.5t26.5 -16.5t20 -23.5t8 -32.5q0 -29 -12 -49.5t-33.5 -34t-50.5 -19.5 t-63 -6q-85 0 -120 29t-35 73q0 21 8 36t20 26t26 18t26 11q-24 7 -43.5 24.5t-19.5 49.5q0 17 8.5 34.5t26 31.5t43.5 22.5t61 8.5q64 0 102 -26.5t38 -64.5q0 -20 -7.5 -34t-17.5 -24t-21 -15t-18 -7zM590 256q0 -17 14.5 -27.5t42.5 -10.5q26 0 40 9.5t14 28.5 q0 15 -14 25.5t-40 10.5q-29 0 -43 -10.5t-14 -25.5zM575 104q0 -20 19 -31t52 -11q35 0 53.5 11.5t18.5 30.5q0 20 -18.5 32t-53.5 12t-53 -12t-18 -32zM297 0h-111l367 651h111z" />
<glyph unicode="&#x215d;" horiz-adv-x="850" d="M722 185q13 -5 27.5 -11.5t26.5 -16.5t20 -23.5t8 -32.5q0 -29 -12 -49.5t-33.5 -34t-50.5 -19.5t-63 -6q-85 0 -120 29t-35 73q0 21 8 36t20 26t26 18t26 11q-24 7 -43.5 24.5t-19.5 49.5q0 17 8.5 34.5t26 31.5t43.5 22.5t61 8.5q64 0 102 -26.5t38 -64.5 q0 -20 -7.5 -34t-17.5 -24t-21 -15t-18 -7zM590 256q0 -17 14.5 -27.5t42.5 -10.5q26 0 40 9.5t14 28.5q0 15 -14 25.5t-40 10.5q-29 0 -43 -10.5t-14 -25.5zM575 104q0 -20 19 -31t52 -11q35 0 53.5 11.5t18.5 30.5q0 20 -18.5 32t-53.5 12t-53 -12t-18 -32zM297 0h-111 l367 651h111zM115 520q11 5 31 7.5t31 2.5q26 0 50 -6.5t43 -20t30 -35t11 -51.5q0 -33 -14 -56.5t-36 -38.5t-49 -22t-54 -7q-53 0 -86.5 13t-47.5 27l39 64q12 -17 37 -25.5t51 -8.5q30 0 48 13t18 36q0 24 -15.5 36t-44.5 12q-27 0 -46.5 -6t-29.5 -12l-49 34l35 175h229 v-73h-169z" />
<glyph unicode="&#x215e;" horiz-adv-x="850" d="M349 651v-66q-24 -27 -47 -57t-41 -65t-29.5 -75.5t-13.5 -88.5h-101q0 38 13.5 78t33.5 76.5t43 68t42 52.5h-218v77h318zM722 185q13 -5 27.5 -11.5t26.5 -16.5t20 -23.5t8 -32.5q0 -29 -12 -49.5t-33.5 -34t-50.5 -19.5t-63 -6q-85 0 -120 29t-35 73q0 21 8 36t20 26 t26 18t26 11q-24 7 -43.5 24.5t-19.5 49.5q0 17 8.5 34.5t26 31.5t43.5 22.5t61 8.5q64 0 102 -26.5t38 -64.5q0 -20 -7.5 -34t-17.5 -24t-21 -15t-18 -7zM590 256q0 -17 14.5 -27.5t42.5 -10.5q26 0 40 9.5t14 28.5q0 15 -14 25.5t-40 10.5q-29 0 -43 -10.5t-14 -25.5z M575 104q0 -20 19 -31t52 -11q35 0 53.5 11.5t18.5 30.5q0 20 -18.5 32t-53.5 12t-53 -12t-18 -32zM297 0h-111l367 651h111z" />
<glyph unicode="&#x215f;" horiz-adv-x="850" d="M297 0h-111l367 651h111zM29 381h98v164q-6 -3 -19 -7.5t-28.5 -8.5t-31 -6.5t-26.5 -2.5l-15 82q15 0 35.5 4.5t41 11.5t37 16t22.5 18h83v-271h93v-78h-290v78z" />
<glyph unicode="&#x2190;" horiz-adv-x="700" d="M287 516l74 -70l-134 -137h427v-106h-427l134 -137l-74 -70l-250 260z" />
<glyph unicode="&#x2191;" horiz-adv-x="600" d="M560 310l-70 -74l-137 134v-427h-106v427l-137 -134l-70 74l260 250z" />
<glyph unicode="&#x2192;" horiz-adv-x="700" d="M413.018 -2.96875l-73.9951 69.9961l133.991 136.991h-426.974v105.994h426.974l-133.991 136.991l73.9951 69.9961l249.984 -259.984z" />
<glyph unicode="&#x2193;" horiz-adv-x="600" d="M560 185.019l-70 73.9961l-137 -133.992v426.974h-106v-426.974l-137 133.992l-70 -73.9961l260 -249.984z" />
<glyph unicode="&#x2212;" horiz-adv-x="510" d="M450 277v-102h-390v102h390z" />
<glyph unicode="&#x25a0;" horiz-adv-x="800" d="M90 651h620v-651h-620v651z" />
<glyph unicode="&#x25a1;" horiz-adv-x="800" d="M90 651h620v-651h-620v651zM169 66h462v519h-462v-519z" />
<glyph unicode="&#x25fb;" horiz-adv-x="680" d="M90 537h500v-537h-500v537zM168 64h344v409h-344v-409z" />
<glyph unicode="&#x25fc;" horiz-adv-x="680" d="M90 537h500v-537h-500v537z" />
<glyph unicode="&#x261c;" horiz-adv-x="1201" d="M858.021 470q-3.99902 0 -8.99902 -5.5t-12.999 -5.5q-7 0 -28.498 7q-21.499 7 -46.9971 15.5q-25.499 8.5 -72.9961 23t-63.9961 19.5t-33.998 9t-30.498 4q-24.998 0 -72.4951 -9t-105.494 -9q-9.99902 0 -24.498 -3.5t-30.498 -8t-31.998 -8.5t-29.998 -6 q-14 -2 -38.498 -7.5q-24.499 -5.5 -50.9971 -12.5t-49.4971 -13.5q-22.998 -6.5 -32.998 -9.5q-9.99902 -3 -20.998 -7q-11 -4 -19.999 -8.5q-9 -4.5 -14.999 -9.5q-6 -5 -6 -10q0 -26 25.999 -34.5q25.998 -8.5 66.9951 -8.5q81.9951 0 105.994 13h50.9971 q16.998 0 35.9971 3t37.498 7t33.498 7t22.998 3h21.999q10.999 13 27.498 31t34.998 34t36.998 27t31.498 11q6 0 10.999 -2l10 -4l9.99902 -5v-5h-28.998q-10 0 -25.499 -9.5t-32.498 -24t-32.998 -30t-27.998 -27.5t-24.998 -26.5t-22.999 -28.5 q-9.99902 -14 -16.499 -27.5q-6.49902 -13.5 -6.49902 -24.5t4.99902 -19q5 -8 11.5 -13.5q6.49902 -5.5 13.499 -8.5q6.99902 -3 9.99902 -3q7 0 14.999 20.5q8 20.5 29.998 62.5q21.999 42 41.998 68.5q19.998 26.5 27.998 26.5q7 0 16.999 -4q4 -2 8.99902 -4v-4h-13.999 q-8.99902 0 -20.999 -14q-11.999 -14 -25.998 -36t-27.498 -48t-24.499 -50q-10.999 -24 -17.499 -42.5q-6.49902 -18.5 -6.49902 -24.5q0 -19 15.499 -27.5t30.498 -8.5q7 0 11.499 30.5q4.5 30.5 20.499 78.5t31.498 65.5t24.498 17.5q5 0 8.5 -0.5t5.5 -0.5 q2.99902 -1 4.99902 -1v-5h-9.99902q-9.99902 0 -20.499 -14.5q-10.499 -14.5 -19.499 -36q-8.99902 -21.5 -16.998 -47q-8 -25.5 -13.5 -48q-5.49902 -22.5 -8.99902 -38t-3.5 -17.5q0 -3 3 -8.5t7.99902 -10.5q5 -5 10.5 -8.5q5.49902 -3.5 11.499 -3.5h71.9961 q26.998 0 37.4971 12.5q10.5 12.5 10.5 23.5v26q0 4 -6 9.5t-13.499 10q-7.5 4.5 -14.999 7.5q-7.5 3 -9.5 3t-3.99902 -3.5q-2 -3.5 -4 -7.5t-4 -7.5t-3 -3.5q-4.99902 0 -4.99902 4q0 2 1.49902 8q1.5 6 4 12.5t5.5 11.5t6.99902 5q8 0 19.999 -8t40.998 -22 q28.998 -14 57.4961 -20.5t64.4961 -6.5t64.4961 2.5t47.4971 5.5v82q0 23 -2.5 57.5t-5.5 66.5q-3.99902 37 -8.99902 76h73.9951q8 -28 14 -59q4.99902 -26 9.49902 -58t4.5 -64t-1 -63t-2 -57t-2.5 -46.5t-3.5 -32.5h-3.99902q2.99902 23 4.99902 75t2 114h-6 q0 -17 -0.5 -42q-0.499023 -25 -2.49902 -54h-5v77h-6v-35q0 -14 -0.5 -28t-1.5 -22h-3.99902v73h-5v-15v-22t-0.5 -23t-1.5 -18h-4v65h-4.99902q0 -35 -3 -62h-4v60h-5q0 -13 -1.49902 -31.5q-1.5 -18.5 -2.5 -26.5h-5q0 2 0.5 9t1 16t0.5 18.5v16.5h-7 q0 -58 -8.99902 -90.5q-9 -32.5 -10.999 -40.5h-4q1 3 3 12q1.99902 9 3.99902 20t3.5 21t1.5 16l-60.9961 -6q0 -37 11.499 -63.5t22.499 -44.5h96.9941l-2 -10h-37.998q0 -15 7.5 -28q7.49902 -13 19.498 -13h153.991q9.99902 26 17.999 59q6.99902 29 11.999 70.5t5 95.5 t-6 101t-13.999 82q-9 41 -20.999 75h-147.991q-7.99902 0 -20.998 -5t-17.999 -8h-39.998zM106.066 441q-4.99902 -5 -13.499 -10.5q-8.49902 -5.5 -14.499 -7.5l-2 3q7 3 14.499 8.5q7.5 5.5 10.5 7.5zM915.018 112q7.99902 0 15.999 -4q7.99902 -4 7.99902 -15 q0 -16 -13.999 -24t-28.998 -8q-15.999 0 -15.999 19q0 14 11.499 23q11.5 9 23.499 9z" />
<glyph unicode="&#x261e;" horiz-adv-x="1201" d="M343 470q4 0 9 -5.5t13 -5.5q7 0 28.5 7t47 15.5t73 23t64 19.5t34 9t30.5 4q25 0 72.5 -9t105.5 -9q10 0 24.5 -3.5t30.5 -8t32 -8.5t30 -6t38.5 -7.5t51 -12.5t49.5 -13.5t33 -9.5t21 -7t20 -8.5t15 -9.5t6 -10q0 -26 -26 -34.5t-67 -8.5q-82 0 -106 13h-51 q-17 0 -36 3t-37.5 7t-33.5 7t-23 3h-22q-11 13 -27.5 31t-35 34t-37 27t-31.5 11q-6 0 -11 -2l-10 -4l-10 -5v-5h29q10 0 25.5 -9.5t32.5 -24t33 -30t28 -27.5t25 -26.5t23 -28.5t16.5 -27.5t6.5 -24.5t-5 -19t-11.5 -13.5t-13.5 -8.5t-10 -3q-7 0 -15 20.5t-30 62.5 t-42 68.5t-28 26.5q-7 0 -17 -4q-4 -2 -9 -4v-4h14q9 0 21 -14t26 -36t27.5 -48t24.5 -50t17.5 -42.5t6.5 -24.5q0 -19 -15.5 -27.5t-30.5 -8.5q-7 0 -11.5 30.5t-20.5 78.5t-31.5 65.5t-24.5 17.5q-5 0 -8.5 -0.5t-5.5 -0.5q-3 -1 -5 -1v-5h10q10 0 20.5 -14.5t19.5 -36 t17 -47t13.5 -48t9 -38t3.5 -17.5q0 -3 -3 -8.5t-8 -10.5t-10.5 -8.5t-11.5 -3.5h-72q-27 0 -37.5 12.5t-10.5 23.5v26q0 4 6 9.5t13.5 10t15 7.5t9.5 3t4 -3.5t4 -7.5t4 -7.5t3 -3.5q5 0 5 4q0 2 -1.5 8t-4 12.5t-5.5 11.5t-7 5q-8 0 -20 -8t-41 -22t-57.5 -20.5 t-64.5 -6.5t-64.5 2.5t-47.5 5.5v82q0 23 2.5 57.5t5.5 66.5q4 37 9 76h-74q-8 -28 -14 -59q-5 -26 -9.5 -58t-4.5 -64t1 -63t2 -57t2.5 -46.5t3.5 -32.5h4q-3 23 -5 75t-2 114h6q0 -17 0.5 -42t2.5 -54h5v77h6v-35q0 -14 0.5 -28t1.5 -22h4v73h5v-15v-22t0.5 -23t1.5 -18h4 v65h5q0 -35 3 -62h4v60h5q0 -13 1.5 -31.5t2.5 -26.5h5q0 2 -0.5 9t-1 16t-0.5 18.5v16.5h7q0 -58 9 -90.5t11 -40.5h4q-1 3 -3 12t-4 20t-3.5 21t-1.5 16l61 -6q0 -37 -11.5 -63.5t-22.5 -44.5h-97l2 -10h38q0 -15 -7.5 -28t-19.5 -13h-154q-10 26 -18 59q-7 29 -12 70.5 t-5 95.5t6 101t14 82q9 41 21 75h148q8 0 21 -5t18 -8h40zM1095 441q5 -5 13.5 -10.5t14.5 -7.5l2 3q-7 3 -14.5 8.5t-10.5 7.5zM286 112q-8 0 -16 -4t-8 -15q0 -16 14 -24t29 -8q16 0 16 19q0 14 -11.5 23t-23.5 9z" />
<glyph unicode="&#xe000;" horiz-adv-x="460" d="M0 460h460v-460h-460v460z" />
<glyph unicode="&#xf6c3;" d="M94 -258l11 176l120 -19l-54 -170z" />
<glyph unicode="&#xfb00;" horiz-adv-x="690" d="M93 0v342h-83v118h83v105q0 70 42.5 114t125.5 44q24 0 41.5 -3t29.5 -7q13 -4 23 -10l-9 -116q-7 2 -17 5q-8 2 -19 4t-22 2q-26 0 -40.5 -15t-14.5 -49v-74h105v-118h-105v-342h-140zM438 0v342h-83v118h83v105q0 70 42.5 114t125.5 44q24 0 41.5 -3t29.5 -7 q13 -4 23 -10l-9 -116q-7 2 -17 5q-8 2 -19 4t-22 2q-26 0 -40.5 -15t-14.5 -49v-74h105v-118h-105v-342h-140z" />
<glyph unicode="&#xfb01;" horiz-adv-x="601" d="M93 0v342h-83v118h83v105q0 70 42.5 114t125.5 44q24 0 41.5 -3t29.5 -7q13 -4 23 -10l-9 -116q-7 2 -17 5q-8 2 -19 4t-22 2q-26 0 -40.5 -15t-14.5 -49v-74h105v-118h-105v-342h-140zM391 0v460h140v-460h-140zM543 649q0 -38 -23.5 -60.5t-58.5 -22.5 q-36 0 -59.5 22.5t-23.5 60.5t23.5 61t59.5 23q35 0 58.5 -23t23.5 -61z" />
<glyph unicode="&#xfb02;" horiz-adv-x="601" d="M93 0v342h-83v118h83v105q0 70 42.5 114t125.5 44q24 0 41.5 -3t29.5 -7q13 -4 23 -10l-9 -116q-7 2 -17 5q-8 2 -19 4t-22 2q-26 0 -40.5 -15t-14.5 -49v-74h105v-118h-105v-342h-140zM391 711h140v-711h-140v711z" />
<glyph unicode="&#xfb03;" horiz-adv-x="946" d="M93 0v342h-83v118h83v105q0 70 42.5 114t125.5 44q24 0 41.5 -3t29.5 -7q13 -4 23 -10l-9 -116q-7 2 -17 5q-8 2 -19 4t-22 2q-26 0 -40.5 -15t-14.5 -49v-74h105v-118h-105v-342h-140zM438 0v342h-83v118h83v105q0 70 42.5 114t125.5 44q24 0 41.5 -3t29.5 -7 q13 -4 23 -10l-9 -116q-7 2 -17 5q-8 2 -19 4t-22 2q-26 0 -40.5 -15t-14.5 -49v-74h105v-118h-105v-342h-140zM736 0v460h140v-460h-140zM888 649q0 -38 -23.5 -60.5t-58.5 -22.5q-36 0 -59.5 22.5t-23.5 60.5t23.5 61t59.5 23q35 0 58.5 -23t23.5 -61z" />
<glyph unicode="&#xfb04;" horiz-adv-x="970" d="M93 0v342h-83v118h83v105q0 70 42.5 114t125.5 44q24 0 41.5 -3t29.5 -7q13 -4 23 -10l-9 -116q-7 2 -17 5q-8 2 -19 4t-22 2q-26 0 -40.5 -15t-14.5 -49v-74h105v-118h-105v-342h-140zM438 0v342h-83v118h83v105q0 70 42.5 114t125.5 44q24 0 41.5 -3t29.5 -7 q13 -4 23 -10l-9 -116q-7 2 -17 5q-8 2 -19 4t-22 2q-26 0 -40.5 -15t-14.5 -49v-74h105v-118h-105v-342h-140zM760 711h140v-711h-140v711z" />
<glyph horiz-adv-x="250" d="M60 520l15 207l129 -16l-48 -202z" />
<glyph horiz-adv-x="585" d="M373 201l-92 221l-81 -221h173zM140 0h-135l199 537h158l218 -537h-137l-36 88h-236z" />
<glyph horiz-adv-x="597" d="M432 290q26 -3 48.5 -14t39.5 -27.5t27 -39.5t10 -50q0 -70 -60 -114.5t-176 -44.5h-251v537h267q45 0 81.5 -8.5t62.5 -25t40 -41t14 -55.5q0 -45 -30 -74.5t-73 -38.5v-4zM204 328h113q78 0 78 53q0 23 -18 35.5t-63 12.5h-110v-101zM325 111q48 0 70 16t22 44 q0 29 -21.5 40t-68.5 11h-123v-111h121z" />
<glyph horiz-adv-x="621" d="M479 363q-5 11 -18 22.5t-31.5 21.5t-41 16t-46.5 6q-79 0 -120.5 -41t-41.5 -115q0 -78 45 -121.5t123 -43.5q21 0 40 5.5t35 14.5t27.5 20t16.5 22l100 -96q-42 -45 -104 -65.5t-138 -20.5q-64 0 -117 19t-91.5 55.5t-59.5 89t-21 117.5q0 67 23 119t63.5 88t94.5 54.5 t117 18.5q48 0 84.5 -8t64 -21t48 -29t36.5 -32z" />
<glyph horiz-adv-x="641" d="M70 0v537h245q139 0 215 -69t76 -200q0 -129 -76 -198.5t-215 -69.5h-245zM305 115q79 0 120.5 35t41.5 118q0 84 -41.5 119.5t-120.5 35.5h-98v-308h98z" />
<glyph horiz-adv-x="553" d="M210 423v-97h259v-112h-259v-99h288v-115h-428v537h419v-114h-279z" />
<glyph horiz-adv-x="515" d="M210 422v-109h245v-115h-245v-198h-140v537h405v-115h-265z" />
<glyph horiz-adv-x="620" d="M579 300v-300h-96l-11 71h-4q-4 -8 -14.5 -21.5t-29.5 -26.5t-46.5 -24t-65.5 -11q-56 0 -106 19.5t-88 56t-60.5 90t-22.5 118.5t23 117t63.5 87.5t95 54t117.5 18.5q94 0 149 -25t85 -63l-79 -88q-9 10 -20.5 21t-29.5 20.5t-43.5 15.5t-61.5 6q-75 0 -117.5 -44.5 t-42.5 -116.5q0 -78 40.5 -126t124.5 -48q32 0 54 7t35.5 18t19.5 23t6 23v26h-130v102h255z" />
<glyph horiz-adv-x="663" d="M593 537v-537h-140v210h-243v-210h-140v537h140v-210h243v210h140z" />
<glyph horiz-adv-x="280" d="M70 0v537h140v-537h-140z" />
<glyph horiz-adv-x="462" d="M397 537v-365q0 -87 -49 -135.5t-149 -48.5q-47 0 -81 10.5t-57 25.5t-36.5 30.5t-19.5 25.5l77 102q4 -8 12.5 -21t22 -25.5t31 -21.5t40.5 -9q34 0 51.5 12.5t17.5 46.5v373h140z" />
<glyph horiz-adv-x="602" d="M415 537h162l-209 -232l214 -305h-163l-147 230l-62 -67v-163h-140v537h140v-238z" />
<glyph horiz-adv-x="485" d="M210 537v-420h255v-117h-395v537h140z" />
<glyph horiz-adv-x="809" d="M532 537h207v-537h-131q0 47 1 104.5t2.5 115t3 111.5t3.5 95l-156 -369h-115l-156 369q2 -41 3.5 -95t3 -111.5t2.5 -115t1 -104.5h-131v537h212l125 -316z" />
<glyph horiz-adv-x="674" d="M191 370q2 -36 4 -83t3.5 -97t2 -99.5t0.5 -90.5h-131v537h140l273 -367q-2 41 -3.5 90t-3 99t-2.5 96.5t-1 81.5h131v-537h-141z" />
<glyph horiz-adv-x="657" d="M621 269q0 -65 -22 -117.5t-61 -89t-92.5 -55.5t-116.5 -19t-117 19t-93 55.5t-61 89t-22 117.5q0 66 22 118t61 88.5t93 55t117 18.5t116.5 -18.5t92.5 -55t61 -88.5t22 -118zM480 269q0 82 -42 121.5t-109 39.5t-109.5 -39.5t-42.5 -121.5t42.5 -122t109.5 -40t109 40 t42 122z" />
<glyph horiz-adv-x="568" d="M533 337q0 -45 -16.5 -81t-42.5 -61.5t-59 -39t-66 -13.5h-141v-142h-138v537h241q106 0 164 -54.5t58 -145.5zM208 255h84q52 0 76.5 23t24.5 65t-27.5 61t-78.5 19h-79v-168z" />
<glyph horiz-adv-x="657" d="M329 549q63 0 116.5 -19t92.5 -55t61 -88t22 -118q0 -36 -10.5 -68.5t-28 -60.5t-41.5 -51t-51 -43q15 -18 37.5 -35t43.5 -31q25 -16 52 -30l-70 -96q-15 6 -37 23t-44 37.5t-42 42t-31 37.5q-17 -2 -35 -4t-35 -2q-63 0 -117 19t-93 55.5t-61 89t-22 117.5q0 66 22 118 t61 88.5t93 55t117 18.5zM329 108q67 0 109 40.5t42 120.5q0 82 -42 121.5t-109 39.5t-109.5 -39.5t-42.5 -121.5q0 -80 42 -120.5t110 -40.5z" />
<glyph horiz-adv-x="590" d="M418 0l-115 191h-97v-191h-136v537h261q57 0 98 -12.5t66.5 -34.5t37.5 -52t12 -65q0 -40 -13 -68.5t-31.5 -48t-40 -31t-37.5 -16.5l142 -209h-147zM206 297h102q58 0 79 17.5t21 46.5q0 31 -20 48.5t-73 17.5h-109v-130z" />
<glyph horiz-adv-x="548" d="M417 380q-33 28 -65 43.5t-82 15.5q-40 0 -56 -15.5t-16 -32.5q0 -20 23 -33.5t57.5 -24.5t75 -22.5t75 -29.5t57.5 -45t23 -68q0 -36 -18 -69t-50 -57.5t-77.5 -39t-99.5 -14.5q-53 0 -90.5 7.5t-64.5 19.5t-45 27t-31 29l90 94q21 -25 59.5 -45.5t102.5 -20.5 q37 0 60.5 11t23.5 38q0 20 -22.5 33.5t-57 24.5t-74 23t-74 30.5t-57 46t-22.5 69.5q0 37 16.5 69t46 55t71 36.5t91.5 13.5q43 0 75.5 -7t57.5 -18.5t42.5 -25t30.5 -26.5z" />
<glyph horiz-adv-x="518" d="M15 537h488v-116h-174v-421h-140v421h-174v116z" />
<glyph horiz-adv-x="631" d="M314 -12q-118 0 -183.5 54t-65.5 148v347h140v-321q0 -30 8.5 -50.5t23.5 -33t35 -17.5t43 -5t43 5t35 17.5t24 33t9 50.5v321h140v-347q0 -45 -17.5 -82t-50.5 -64t-79.5 -41.5t-104.5 -14.5z" />
<glyph horiz-adv-x="573" d="M558 537l-197 -537h-154l-192 537h129l142 -407l137 407h135z" />
<glyph horiz-adv-x="866" d="M502 537l124 -422l99 422h126l-154 -537h-142l-122 429l-118 -429h-143l-157 537h129l103 -422l120 422h135z" />
<glyph horiz-adv-x="601" d="M168 0h-143l191 270l-189 267h146l127 -192l128 192h142l-188 -263l194 -274h-146l-132 196z" />
<glyph horiz-adv-x="562" d="M10 537h141l132 -220l131 220h138l-200 -316v-221h-141v221z" />
<glyph horiz-adv-x="517" d="M474 435l-27 -29l-268 -289h298v-117h-452v102l36 39l261 279h-289v117h441v-102z" />
<glyph d="M-58 626l179 190h63l178 -190h-126l-84 116l-83 -116h-127z" />
<glyph d="M18 753q0 26 9 49t26.5 40t42 27t54.5 10q29 0 53.5 -10t42 -27t27 -40t9.5 -49q0 -55 -36.5 -91t-95.5 -36q-61 0 -96.5 36t-35.5 91zM91 753q0 -30 16 -45t43 -15q26 0 42.5 15t16.5 45q0 29 -16.5 44t-42.5 15q-27 0 -43 -15t-16 -44z" />
<glyph d="M318 790q3 -12 6 -33t3 -39q0 -20 -5 -35.5t-16.5 -28.5t-30.5 -20.5t-47 -7.5q-31 0 -49 10.5t-31 20.5t-25.5 20.5t-29.5 10.5q-20 0 -27.5 -12.5t-7.5 -28.5v-11t1 -10h-76q-5 16 -7.5 36.5t-2.5 34.5q0 39 26.5 66t73.5 27q28 0 48 -10.5t36 -22t29.5 -19.5t29.5 -8 q17 0 22.5 11t5.5 24v11.5t-1 13.5h75z" />
<glyph d="M107 704q0 -35 -22.5 -56.5t-56.5 -21.5t-56 21.5t-22 56.5q0 36 22 57.5t56 21.5t56.5 -21.5t22.5 -57.5zM350 704q0 -35 -22.5 -56.5t-54.5 -21.5q-35 0 -57 21.5t-22 56.5q0 36 22 57.5t57 21.5q32 0 54.5 -21.5t22.5 -57.5z" />
<glyph d="M97 863l68 -66l-149 -171l-68 66zM299 863l68 -66l-149 -171l-68 66z" />
<glyph d="M-20 721h340v-95h-340v95z" />
<glyph d="M347 805q0 -45 -16.5 -78.5t-44 -56t-63.5 -33.5t-75 -11t-75 11t-63 33.5t-43.5 56t-16.5 78.5h106q0 -50 26.5 -70.5t65.5 -20.5q40 0 66 20.5t26 70.5h107z" />
<glyph d="M363 816l-179 -190h-63l-178 190h126l84 -116l83 116h127z" />
<glyph d="M203 863l71 -71l-165 -166l-71 71z" />
<glyph d="M255 697l-71 -71l-165 166l71 71z" />
<glyph horiz-adv-x="585" d="M373 201l-92 221l-81 -221h173zM140 0h-135l199 537h158l218 -537h-137l-36 88h-236zM352 697l-71 -71l-165 166l71 71z" />
<glyph horiz-adv-x="585" d="M373 201l-92 221l-81 -221h173zM140 0h-135l199 537h158l218 -537h-137l-36 88h-236zM377 863l71 -71l-165 -166l-71 71z" />
<glyph horiz-adv-x="585" d="M373 201l-92 221l-81 -221h173zM140 0h-135l199 537h158l218 -537h-137l-36 88h-236zM71 626l179 190h63l178 -190h-126l-84 116l-83 -116h-127z" />
<glyph horiz-adv-x="585" d="M373 201l-92 221l-81 -221h173zM140 0h-135l199 537h158l218 -537h-137l-36 88h-236zM449 790q3 -12 6 -33t3 -39q0 -20 -5 -35.5t-16.5 -28.5t-30.5 -20.5t-47 -7.5q-31 0 -49 10.5t-31 20.5t-25.5 20.5t-29.5 10.5q-20 0 -27.5 -12.5t-7.5 -28.5v-11t1 -10h-76 q-5 16 -7.5 36.5t-2.5 34.5q0 39 26.5 66t73.5 27q28 0 48 -10.5t36 -22t29.5 -19.5t29.5 -8q17 0 22.5 11t5.5 24v11.5t-1 13.5h75z" />
<glyph horiz-adv-x="585" d="M373 201l-92 221l-81 -221h173zM140 0h-135l199 537h158l218 -537h-137l-36 88h-236zM238 704q0 -35 -22.5 -56.5t-56.5 -21.5t-56 21.5t-22 56.5q0 36 22 57.5t56 21.5t56.5 -21.5t22.5 -57.5zM481 704q0 -35 -22.5 -56.5t-54.5 -21.5q-35 0 -57 21.5t-22 56.5 q0 36 22 57.5t57 21.5q32 0 54.5 -21.5t22.5 -57.5z" />
<glyph horiz-adv-x="585" d="M373 201l-92 221l-81 -221h173zM140 0h-135l199 537h158l218 -537h-137l-36 88h-236zM149 753q0 26 9 49t26.5 40t42 27t54.5 10q29 0 53.5 -10t42 -27t27 -40t9.5 -49q0 -55 -36.5 -91t-95.5 -36q-61 0 -96.5 36t-35.5 91zM222 753q0 -30 16 -45t43 -15q26 0 42.5 15 t16.5 45q0 29 -16.5 44t-42.5 15q-27 0 -43 -15t-16 -44z" />
<glyph horiz-adv-x="585" d="M373 201l-92 221l-81 -221h173zM140 0h-135l199 537h158l218 -537h-137l-36 88h-236zM111 721h340v-95h-340v95z" />
<glyph horiz-adv-x="585" d="M373 201l-92 221l-81 -221h173zM140 0h-135l199 537h158l218 -537h-137l-36 88h-236zM479 805q0 -45 -16.5 -78.5t-44 -56t-63.5 -33.5t-75 -11t-75 11t-63 33.5t-43.5 56t-16.5 78.5h106q0 -50 26.5 -70.5t65.5 -20.5q40 0 66 20.5t26 70.5h107z" />
<glyph horiz-adv-x="585" d="M373 201l-92 221l-81 -221h173zM140 0h-135l199 537h158l218 -537h-137l-36 88h-236zM559 9q-107 -50 -107 -97q0 -44 48 -44q31 0 59 21l35 -54q-50 -34 -116 -34q-118 4 -118 98q0 55 80 101q18 10 32 17z" />
<glyph horiz-adv-x="621" d="M479 363q-5 11 -18 22.5t-31.5 21.5t-41 16t-46.5 6q-79 0 -120.5 -41t-41.5 -115q0 -78 45 -121.5t123 -43.5q21 0 40 5.5t35 14.5t27.5 20t16.5 22l100 -96q-42 -45 -104 -65.5t-138 -20.5q-64 0 -117 19t-91.5 55.5t-59.5 89t-21 117.5q0 67 23 119t63.5 88t94.5 54.5 t117 18.5q48 0 84.5 -8t64 -21t48 -29t36.5 -32zM328 17q13 -7 26 -17q76 -52 76 -101q0 -98 -131 -98q-57 0 -108 34l35 54q29 -21 62 -21q50 0 50 44q0 47 -97 97z" />
<glyph horiz-adv-x="621" d="M479 363q-5 11 -18 22.5t-31.5 21.5t-41 16t-46.5 6q-79 0 -120.5 -41t-41.5 -115q0 -78 45 -121.5t123 -43.5q21 0 40 5.5t35 14.5t27.5 20t16.5 22l100 -96q-42 -45 -104 -65.5t-138 -20.5q-64 0 -117 19t-91.5 55.5t-59.5 89t-21 117.5q0 67 23 119t63.5 88t94.5 54.5 t117 18.5q48 0 84.5 -8t64 -21t48 -29t36.5 -32zM429 863l71 -71l-165 -166l-71 71z" />
<glyph horiz-adv-x="621" d="M479 363q-5 11 -18 22.5t-31.5 21.5t-41 16t-46.5 6q-79 0 -120.5 -41t-41.5 -115q0 -78 45 -121.5t123 -43.5q21 0 40 5.5t35 14.5t27.5 20t16.5 22l100 -96q-42 -45 -104 -65.5t-138 -20.5q-64 0 -117 19t-91.5 55.5t-59.5 89t-21 117.5q0 67 23 119t63.5 88t94.5 54.5 t117 18.5q48 0 84.5 -8t64 -21t48 -29t36.5 -32zM541 816l-179 -190h-63l-178 190h126l84 -116l83 116h127z" />
<glyph horiz-adv-x="641" d="M70 0v537h245q139 0 215 -69t76 -200q0 -129 -76 -198.5t-215 -69.5h-245zM305 115q79 0 120.5 35t41.5 118q0 84 -41.5 119.5t-120.5 35.5h-98v-308h98zM510 816l-179 -190h-63l-178 190h126l84 -116l83 116h127z" />
<glyph horiz-adv-x="651" d="M15 328h65v209h245q139 0 215 -69t76 -200q0 -129 -76 -198.5t-215 -69.5h-245v217h-65v111zM315 115q79 0 120.5 35t41.5 118q0 84 -41.5 119.5t-120.5 35.5h-98v-95h106v-111h-106v-102h98z" />
<glyph horiz-adv-x="651" d="M15 328h65v209h245q139 0 215 -69t76 -200q0 -129 -76 -198.5t-215 -69.5h-245v217h-65v111zM315 115q79 0 120.5 35t41.5 118q0 84 -41.5 119.5t-120.5 35.5h-98v-95h106v-111h-106v-102h98z" />
<glyph horiz-adv-x="553" d="M210 423v-97h259v-112h-259v-99h288v-115h-428v537h419v-114h-279zM356 697l-71 -71l-165 166l71 71z" />
<glyph horiz-adv-x="553" d="M210 423v-97h259v-112h-259v-99h288v-115h-428v537h419v-114h-279zM364 863l71 -71l-165 -166l-71 71z" />
<glyph horiz-adv-x="553" d="M210 423v-97h259v-112h-259v-99h288v-115h-428v537h419v-114h-279zM68 626l179 190h63l178 -190h-126l-84 116l-83 -116h-127z" />
<glyph horiz-adv-x="553" d="M210 423v-97h259v-112h-259v-99h288v-115h-428v537h419v-114h-279zM233 704q0 -35 -22.5 -56.5t-56.5 -21.5t-56 21.5t-22 56.5q0 36 22 57.5t56 21.5t56.5 -21.5t22.5 -57.5zM476 704q0 -35 -22.5 -56.5t-54.5 -21.5q-35 0 -57 21.5t-22 56.5q0 36 22 57.5t57 21.5 q32 0 54.5 -21.5t22.5 -57.5z" />
<glyph horiz-adv-x="553" d="M210 423v-97h259v-112h-259v-99h288v-115h-428v537h419v-114h-279zM106 721h340v-95h-340v95z" />
<glyph horiz-adv-x="553" d="M210 423v-97h259v-112h-259v-99h288v-115h-428v537h419v-114h-279zM370 679q0 -38 -23.5 -60.5t-58.5 -22.5q-36 0 -59.5 22.5t-23.5 60.5t23.5 61t59.5 23q35 0 58.5 -23t23.5 -61z" />
<glyph horiz-adv-x="553" d="M210 423v-97h259v-112h-259v-99h288v-115h-428v537h419v-114h-279zM458 9q-107 -50 -107 -97q0 -44 48 -44q31 0 59 21l35 -54q-50 -34 -116 -34q-118 4 -118 98q0 55 80 101q18 10 32 17z" />
<glyph horiz-adv-x="553" d="M210 423v-97h259v-112h-259v-99h288v-115h-428v537h419v-114h-279zM493 816l-179 -190h-63l-178 190h126l84 -116l83 116h127z" />
<glyph horiz-adv-x="620" d="M579 300v-300h-96l-11 71h-4q-4 -8 -14.5 -21.5t-29.5 -26.5t-46.5 -24t-65.5 -11q-56 0 -106 19.5t-88 56t-60.5 90t-22.5 118.5t23 117t63.5 87.5t95 54t117.5 18.5q94 0 149 -25t85 -63l-79 -88q-9 10 -20.5 21t-29.5 20.5t-43.5 15.5t-61.5 6q-75 0 -117.5 -44.5 t-42.5 -116.5q0 -78 40.5 -126t124.5 -48q32 0 54 7t35.5 18t19.5 23t6 23v26h-130v102h255zM522 805q0 -45 -16.5 -78.5t-44 -56t-63.5 -33.5t-75 -11t-75 11t-63 33.5t-43.5 56t-16.5 78.5h106q0 -50 26.5 -70.5t65.5 -20.5q40 0 66 20.5t26 70.5h107z" />
<glyph horiz-adv-x="620" d="M579 300v-300h-96l-11 71h-4q-4 -8 -14.5 -21.5t-29.5 -26.5t-46.5 -24t-65.5 -11q-56 0 -106 19.5t-88 56t-60.5 90t-22.5 118.5t23 117t63.5 87.5t95 54t117.5 18.5q94 0 149 -25t85 -63l-79 -88q-9 10 -20.5 21t-29.5 20.5t-43.5 15.5t-61.5 6q-75 0 -117.5 -44.5 t-42.5 -116.5q0 -78 40.5 -126t124.5 -48q32 0 54 7t35.5 18t19.5 23t6 23v26h-130v102h255zM259 -258l11 176l120 -19l-54 -170z" />
<glyph horiz-adv-x="280" d="M70 0v537h140v-537h-140zM211 697l-71 -71l-165 166l71 71z" />
<glyph horiz-adv-x="280" d="M70 0v537h140v-537h-140zM228 863l71 -71l-165 -166l-71 71z" />
<glyph horiz-adv-x="280" d="M70 0v537h140v-537h-140zM-67 626l179 190h63l178 -190h-126l-84 116l-83 -116h-127z" />
<glyph horiz-adv-x="280" d="M70 0v537h140v-537h-140zM98 704q0 -35 -22.5 -56.5t-56.5 -21.5t-56 21.5t-22 56.5q0 36 22 57.5t56 21.5t56.5 -21.5t22.5 -57.5zM341 704q0 -35 -22.5 -56.5t-54.5 -21.5q-35 0 -57 21.5t-22 56.5q0 36 22 57.5t57 21.5q32 0 54.5 -21.5t22.5 -57.5z" />
<glyph horiz-adv-x="280" d="M70 0v537h140v-537h-140zM-29 721h340v-95h-340v95z" />
<glyph horiz-adv-x="280" d="M70 0v537h140v-537h-140zM181 9q-107 -50 -107 -97q0 -44 48 -44q31 0 59 21l35 -54q-50 -34 -116 -34q-118 4 -118 98q0 55 80 101q18 10 32 17z" />
<glyph horiz-adv-x="280" d="M70 0v537h140v-537h-140z" />
<glyph horiz-adv-x="280" d="M70 0v537h140v-537h-140zM220 679q0 -38 -23.5 -60.5t-58.5 -22.5q-36 0 -59.5 22.5t-23.5 60.5t23.5 61t59.5 23q35 0 58.5 -23t23.5 -61z" />
<glyph horiz-adv-x="762" d="M70 0v537h140v-537h-140zM697 537v-365q0 -87 -49 -135.5t-149 -48.5q-47 0 -81 10.5t-57 25.5t-36.5 30.5t-19.5 25.5l77 102q4 -8 12.5 -21t22 -25.5t31 -21.5t40.5 -9q34 0 51.5 12.5t17.5 46.5v373h140z" />
<glyph horiz-adv-x="602" d="M415 537h162l-209 -232l214 -305h-163l-147 230l-62 -67v-163h-140v537h140v-238zM239 -258l11 176l120 -19l-54 -170z" />
<glyph horiz-adv-x="485" d="M210 537v-420h255v-117h-395v537h140zM270 863l71 -71l-165 -166l-71 71z" />
<glyph horiz-adv-x="485" d="M210 537v-420h255v-117h-395v537h140zM189 -258l11 176l120 -19l-54 -170z" />
<glyph horiz-adv-x="485" d="M210 537v-420h255v-117h-395v537h140zM296 346l15 207l129 -16l-48 -202z" />
<glyph horiz-adv-x="674" d="M191 370q2 -36 4 -83t3.5 -97t2 -99.5t0.5 -90.5h-131v537h140l273 -367q-2 41 -3.5 90t-3 99t-2.5 96.5t-1 81.5h131v-537h-141zM505 790q3 -12 6 -33t3 -39q0 -20 -5 -35.5t-16.5 -28.5t-30.5 -20.5t-47 -7.5q-31 0 -49 10.5t-31 20.5t-25.5 20.5t-29.5 10.5 q-20 0 -27.5 -12.5t-7.5 -28.5v-11t1 -10h-76q-5 16 -7.5 36.5t-2.5 34.5q0 39 26.5 66t73.5 27q28 0 48 -10.5t36 -22t29.5 -19.5t29.5 -8q17 0 22.5 11t5.5 24v11.5t-1 13.5h75z" />
<glyph horiz-adv-x="674" d="M191 370q2 -36 4 -83t3.5 -97t2 -99.5t0.5 -90.5h-131v537h140l273 -367q-2 41 -3.5 90t-3 99t-2.5 96.5t-1 81.5h131v-537h-141zM385 863l71 -71l-165 -166l-71 71z" />
<glyph horiz-adv-x="674" d="M191 370q2 -36 4 -83t3.5 -97t2 -99.5t0.5 -90.5h-131v537h140l273 -367q-2 41 -3.5 90t-3 99t-2.5 96.5t-1 81.5h131v-537h-141zM269 -258l11 176l120 -19l-54 -170z" />
<glyph horiz-adv-x="674" d="M191 370q2 -36 4 -83t3.5 -97t2 -99.5t0.5 -90.5h-131v537h140l273 -367q-2 41 -3.5 90t-3 99t-2.5 96.5t-1 81.5h131v-537h-141zM558 816l-179 -190h-63l-178 190h126l84 -116l83 116h127z" />
<glyph horiz-adv-x="657" d="M621 269q0 -65 -22 -117.5t-61 -89t-92.5 -55.5t-116.5 -19t-117 19t-93 55.5t-61 89t-22 117.5q0 66 22 118t61 88.5t93 55t117 18.5t116.5 -18.5t92.5 -55t61 -88.5t22 -118zM480 269q0 82 -42 121.5t-109 39.5t-109.5 -39.5t-42.5 -121.5t42.5 -122t109.5 -40t109 40 t42 122zM394 697l-71 -71l-165 166l71 71z" />
<glyph horiz-adv-x="657" d="M621 269q0 -65 -22 -117.5t-61 -89t-92.5 -55.5t-116.5 -19t-117 19t-93 55.5t-61 89t-22 117.5q0 66 22 118t61 88.5t93 55t117 18.5t116.5 -18.5t92.5 -55t61 -88.5t22 -118zM480 269q0 82 -42 121.5t-109 39.5t-109.5 -39.5t-42.5 -121.5t42.5 -122t109.5 -40t109 40 t42 122zM420 863l71 -71l-165 -166l-71 71z" />
<glyph horiz-adv-x="657" d="M621 269q0 -65 -22 -117.5t-61 -89t-92.5 -55.5t-116.5 -19t-117 19t-93 55.5t-61 89t-22 117.5q0 66 22 118t61 88.5t93 55t117 18.5t116.5 -18.5t92.5 -55t61 -88.5t22 -118zM480 269q0 82 -42 121.5t-109 39.5t-109.5 -39.5t-42.5 -121.5t42.5 -122t109.5 -40t109 40 t42 122zM120 626l179 190h63l178 -190h-126l-84 116l-83 -116h-127z" />
<glyph horiz-adv-x="657" d="M621 269q0 -65 -22 -117.5t-61 -89t-92.5 -55.5t-116.5 -19t-117 19t-93 55.5t-61 89t-22 117.5q0 66 22 118t61 88.5t93 55t117 18.5t116.5 -18.5t92.5 -55t61 -88.5t22 -118zM480 269q0 82 -42 121.5t-109 39.5t-109.5 -39.5t-42.5 -121.5t42.5 -122t109.5 -40t109 40 t42 122zM501 790q3 -12 6 -33t3 -39q0 -20 -5 -35.5t-16.5 -28.5t-30.5 -20.5t-47 -7.5q-31 0 -49 10.5t-31 20.5t-25.5 20.5t-29.5 10.5q-20 0 -27.5 -12.5t-7.5 -28.5v-11t1 -10h-76q-5 16 -7.5 36.5t-2.5 34.5q0 39 26.5 66t73.5 27q28 0 48 -10.5t36 -22t29.5 -19.5 t29.5 -8q17 0 22.5 11t5.5 24v11.5t-1 13.5h75z" />
<glyph horiz-adv-x="657" d="M621 269q0 -65 -22 -117.5t-61 -89t-92.5 -55.5t-116.5 -19t-117 19t-93 55.5t-61 89t-22 117.5q0 66 22 118t61 88.5t93 55t117 18.5t116.5 -18.5t92.5 -55t61 -88.5t22 -118zM480 269q0 82 -42 121.5t-109 39.5t-109.5 -39.5t-42.5 -121.5t42.5 -122t109.5 -40t109 40 t42 122zM285 704q0 -35 -22.5 -56.5t-56.5 -21.5t-56 21.5t-22 56.5q0 36 22 57.5t56 21.5t56.5 -21.5t22.5 -57.5zM528 704q0 -35 -22.5 -56.5t-54.5 -21.5q-35 0 -57 21.5t-22 56.5q0 36 22 57.5t57 21.5q32 0 54.5 -21.5t22.5 -57.5z" />
<glyph horiz-adv-x="657" d="M621 269q0 -65 -22 -117.5t-61 -89t-92.5 -55.5t-116.5 -19t-117 19t-93 55.5t-61 89t-22 117.5q0 66 22 118t61 88.5t93 55t117 18.5t116.5 -18.5t92.5 -55t61 -88.5t22 -118zM480 269q0 82 -42 121.5t-109 39.5t-109.5 -39.5t-42.5 -121.5t42.5 -122t109.5 -40t109 40 t42 122zM158 721h340v-95h-340v95z" />
<glyph horiz-adv-x="657" d="M565 445q26 -34 41 -78t15 -98q0 -65 -22 -117.5t-61 -89t-92.5 -55.5t-116.5 -19q-110 0 -184 54l-56 -54l-53 49l56 55q-27 34 -41.5 78.5t-14.5 98.5q0 66 22 118t61 88.5t93 55t117 18.5q54 0 100 -13.5t84 -40.5l56 54l52 -50zM171 264q0 -52 16 -85l238 232 q-38 25 -94 25q-71 0 -115.5 -43.5t-44.5 -128.5zM486 274q0 25 -4 45.5t-12 37.5l-237 -231q19 -13 43 -19t51 -6q71 0 115 44t44 129z" />
<glyph horiz-adv-x="963" d="M620 423v-97h259v-112h-259v-99h288v-115h-428v64q-28 -32 -68.5 -54t-98.5 -22q-57 0 -107 19t-88 55t-60 89t-22 118q0 66 22 118.5t60 88.5t88 54.5t107 18.5q58 0 98.5 -22t68.5 -53v63h419v-114h-279zM480 277q-2 78 -44 115.5t-107 37.5q-67 0 -109.5 -39 t-42.5 -122t42.5 -122.5t109.5 -39.5t109 39.5t42 122.5v8z" />
<glyph horiz-adv-x="847" d="M379 137h-180l-78 -137h-141l305 537h498v-114h-264v-97h249v-112h-249v-99h273v-115h-413v137zM379 440h-22l-108 -202h130v202z" />
<glyph horiz-adv-x="590" d="M418 0l-115 191h-97v-191h-136v537h261q57 0 98 -12.5t66.5 -34.5t37.5 -52t12 -65q0 -40 -13 -68.5t-31.5 -48t-40 -31t-37.5 -16.5l142 -209h-147zM206 297h102q58 0 79 17.5t21 46.5q0 31 -20 48.5t-73 17.5h-109v-130zM363 863l71 -71l-165 -166l-71 71z" />
<glyph horiz-adv-x="590" d="M418 0l-115 191h-97v-191h-136v537h261q57 0 98 -12.5t66.5 -34.5t37.5 -52t12 -65q0 -40 -13 -68.5t-31.5 -48t-40 -31t-37.5 -16.5l142 -209h-147zM206 297h102q58 0 79 17.5t21 46.5q0 31 -20 48.5t-73 17.5h-109v-130zM239 -258l11 176l120 -19l-54 -170z" />
<glyph horiz-adv-x="590" d="M418 0l-115 191h-97v-191h-136v537h261q57 0 98 -12.5t66.5 -34.5t37.5 -52t12 -65q0 -40 -13 -68.5t-31.5 -48t-40 -31t-37.5 -16.5l142 -209h-147zM206 297h102q58 0 79 17.5t21 46.5q0 31 -20 48.5t-73 17.5h-109v-130zM507 816l-179 -190h-63l-178 190h126l84 -116 l83 116h127z" />
<glyph horiz-adv-x="548" d="M417 380q-33 28 -65 43.5t-82 15.5q-40 0 -56 -15.5t-16 -32.5q0 -20 23 -33.5t57.5 -24.5t75 -22.5t75 -29.5t57.5 -45t23 -68q0 -36 -18 -69t-50 -57.5t-77.5 -39t-99.5 -14.5q-53 0 -90.5 7.5t-64.5 19.5t-45 27t-31 29l90 94q21 -25 59.5 -45.5t102.5 -20.5 q37 0 60.5 11t23.5 38q0 20 -22.5 33.5t-57 24.5t-74 23t-74 30.5t-57 46t-22.5 69.5q0 37 16.5 69t46 55t71 36.5t91.5 13.5q43 0 75.5 -7t57.5 -18.5t42.5 -25t30.5 -26.5zM382 863l71 -71l-165 -166l-71 71z" />
<glyph horiz-adv-x="548" d="M417 380q-33 28 -65 43.5t-82 15.5q-40 0 -56 -15.5t-16 -32.5q0 -20 23 -33.5t57.5 -24.5t75 -22.5t75 -29.5t57.5 -45t23 -68q0 -36 -18 -69t-50 -57.5t-77.5 -39t-99.5 -14.5q-53 0 -90.5 7.5t-64.5 19.5t-45 27t-31 29l90 94q21 -25 59.5 -45.5t102.5 -20.5 q37 0 60.5 11t23.5 38q0 20 -22.5 33.5t-57 24.5t-74 23t-74 30.5t-57 46t-22.5 69.5q0 37 16.5 69t46 55t71 36.5t91.5 13.5q43 0 75.5 -7t57.5 -18.5t42.5 -25t30.5 -26.5zM287 17q13 -7 26 -17q76 -52 76 -101q0 -98 -131 -98q-57 0 -108 34l35 54q29 -21 62 -21 q50 0 50 44q0 47 -97 97z" />
<glyph horiz-adv-x="548" d="M417 380q-33 28 -65 43.5t-82 15.5q-40 0 -56 -15.5t-16 -32.5q0 -20 23 -33.5t57.5 -24.5t75 -22.5t75 -29.5t57.5 -45t23 -68q0 -36 -18 -69t-50 -57.5t-77.5 -39t-99.5 -14.5q-53 0 -90.5 7.5t-64.5 19.5t-45 27t-31 29l90 94q21 -25 59.5 -45.5t102.5 -20.5 q37 0 60.5 11t23.5 38q0 20 -22.5 33.5t-57 24.5t-74 23t-74 30.5t-57 46t-22.5 69.5q0 37 16.5 69t46 55t71 36.5t91.5 13.5q43 0 75.5 -7t57.5 -18.5t42.5 -25t30.5 -26.5zM508 816l-179 -190h-63l-178 190h126l84 -116l83 116h127z" />
<glyph horiz-adv-x="518" d="M15 537h488v-116h-174v-421h-140v421h-174v116zM189 -258l11 176l120 -19l-54 -170z" />
<glyph horiz-adv-x="518" d="M15 537h488v-116h-174v-421h-140v421h-174v116zM189 -258l11 176l120 -19l-54 -170z" />
<glyph horiz-adv-x="518" d="M15 537h488v-116h-174v-421h-140v421h-174v116zM472 816l-179 -190h-63l-178 190h126l84 -116l83 116h127z" />
<glyph horiz-adv-x="583" d="M347 460q52 0 89.5 -14t62 -39t36.5 -58t12 -72q0 -37 -12 -71.5t-34 -61.5t-54.5 -43.5t-72.5 -16.5h-164v-84h-140v537h140v-77h137zM290 188q39 0 62.5 5.5t35.5 17t15.5 28t3.5 39.5q0 41 -26.5 59.5t-99.5 18.5h-71v-168h80z" />
<glyph horiz-adv-x="631" d="M314 -12q-118 0 -183.5 54t-65.5 148v347h140v-321q0 -30 8.5 -50.5t23.5 -33t35 -17.5t43 -5t43 5t35 17.5t24 33t9 50.5v321h140v-347q0 -45 -17.5 -82t-50.5 -64t-79.5 -41.5t-104.5 -14.5zM375 697l-71 -71l-165 166l71 71z" />
<glyph horiz-adv-x="631" d="M314 -12q-118 0 -183.5 54t-65.5 148v347h140v-321q0 -30 8.5 -50.5t23.5 -33t35 -17.5t43 -5t43 5t35 17.5t24 33t9 50.5v321h140v-347q0 -45 -17.5 -82t-50.5 -64t-79.5 -41.5t-104.5 -14.5zM413 863l71 -71l-165 -166l-71 71z" />
<glyph horiz-adv-x="631" d="M314 -12q-118 0 -183.5 54t-65.5 148v347h140v-321q0 -30 8.5 -50.5t23.5 -33t35 -17.5t43 -5t43 5t35 17.5t24 33t9 50.5v321h140v-347q0 -45 -17.5 -82t-50.5 -64t-79.5 -41.5t-104.5 -14.5zM107 626l179 190h63l178 -190h-126l-84 116l-83 -116h-127z" />
<glyph horiz-adv-x="631" d="M314 -12q-118 0 -183.5 54t-65.5 148v347h140v-321q0 -30 8.5 -50.5t23.5 -33t35 -17.5t43 -5t43 5t35 17.5t24 33t9 50.5v321h140v-347q0 -45 -17.5 -82t-50.5 -64t-79.5 -41.5t-104.5 -14.5zM272 704q0 -35 -22.5 -56.5t-56.5 -21.5t-56 21.5t-22 56.5q0 36 22 57.5 t56 21.5t56.5 -21.5t22.5 -57.5zM515 704q0 -35 -22.5 -56.5t-54.5 -21.5q-35 0 -57 21.5t-22 56.5q0 36 22 57.5t57 21.5q32 0 54.5 -21.5t22.5 -57.5z" />
<glyph horiz-adv-x="562" d="M10 537h141l132 -220l131 220h138l-200 -316v-221h-141v221zM379 863l71 -71l-165 -166l-71 71z" />
<glyph horiz-adv-x="562" d="M10 537h141l132 -220l131 220h138l-200 -316v-221h-141v221zM238 704q0 -35 -22.5 -56.5t-56.5 -21.5t-56 21.5t-22 56.5q0 36 22 57.5t56 21.5t56.5 -21.5t22.5 -57.5zM481 704q0 -35 -22.5 -56.5t-54.5 -21.5q-35 0 -57 21.5t-22 56.5q0 36 22 57.5t57 21.5 q32 0 54.5 -21.5t22.5 -57.5z" />
<glyph horiz-adv-x="631" d="M314 -12q-118 0 -183.5 54t-65.5 148v347h140v-321q0 -30 8.5 -50.5t23.5 -33t35 -17.5t43 -5t43 5t35 17.5t24 33t9 50.5v321h140v-347q0 -45 -17.5 -82t-50.5 -64t-79.5 -41.5t-104.5 -14.5zM145 721h340v-95h-340v95z" />
<glyph horiz-adv-x="631" d="M314 -12q-118 0 -183.5 54t-65.5 148v347h140v-321q0 -30 8.5 -50.5t23.5 -33t35 -17.5t43 -5t43 5t35 17.5t24 33t9 50.5v321h140v-347q0 -45 -17.5 -82t-50.5 -64t-79.5 -41.5t-104.5 -14.5zM183 753q0 26 9 49t26.5 40t42 27t54.5 10q29 0 53.5 -10t42 -27t27 -40 t9.5 -49q0 -55 -36.5 -91t-95.5 -36q-61 0 -96.5 36t-35.5 91zM256 753q0 -30 16 -45t43 -15q26 0 42.5 15t16.5 45q0 29 -16.5 44t-42.5 15q-27 0 -43 -15t-16 -44z" />
<glyph horiz-adv-x="631" d="M314 -12q-118 0 -183.5 54t-65.5 148v347h140v-321q0 -30 8.5 -50.5t23.5 -33t35 -17.5t43 -5t43 5t35 17.5t24 33t9 50.5v321h140v-347q0 -45 -17.5 -82t-50.5 -64t-79.5 -41.5t-104.5 -14.5zM289 863l68 -66l-149 -171l-68 66zM491 863l68 -66l-149 -171l-68 66z" />
<glyph horiz-adv-x="631" d="M314 -12q-118 0 -183.5 54t-65.5 148v347h140v-321q0 -30 8.5 -50.5t23.5 -33t35 -17.5t43 -5t43 5t35 17.5t24 33t9 50.5v321h140v-347q0 -45 -17.5 -82t-50.5 -64t-79.5 -41.5t-104.5 -14.5zM415 9q-107 -50 -107 -97q0 -44 48 -44q31 0 59 21l35 -54q-50 -34 -116 -34 q-118 4 -118 98q0 55 80 101q18 10 32 17z" />
<glyph horiz-adv-x="517" d="M474 435l-27 -29l-268 -289h298v-117h-452v102l36 39l261 279h-289v117h441v-102zM327 863l71 -71l-165 -166l-71 71z" />
<glyph horiz-adv-x="517" d="M474 435l-27 -29l-268 -289h298v-117h-452v102l36 39l261 279h-289v117h441v-102zM330 679q0 -38 -23.5 -60.5t-58.5 -22.5q-36 0 -59.5 22.5t-23.5 60.5t23.5 61t59.5 23q35 0 58.5 -23t23.5 -61z" />
<glyph horiz-adv-x="517" d="M474 435l-27 -29l-268 -289h298v-117h-452v102l36 39l261 279h-289v117h441v-102zM471 816l-179 -190h-63l-178 190h126l84 -116l83 116h127z" />
<glyph horiz-adv-x="647" d="M263 345q33 7 50 27.5t17 41.5q0 20 -15 35t-44 15q-32 0 -45 -14t-13 -31q0 -20 14 -40t36 -34zM215 225q-32 -9 -43.5 -28.5t-11.5 -37.5q0 -14 7 -27.5t18.5 -24t27 -17t32.5 -6.5q19 0 42 5.5t40 28.5zM546 265q-2 -35 -20.5 -76.5t-51.5 -72.5l70 -70l-93 -65 l-56 58q-5 -3 -19 -10.5t-36 -16t-51.5 -15t-66.5 -6.5q-42 0 -77.5 10.5t-61.5 31.5t-41 51.5t-15 70.5q0 35 13.5 60.5t34 43.5t43 28.5t40.5 15.5q-31 28 -43.5 56.5t-12.5 52.5q0 25 10.5 49.5t31.5 44t52.5 31.5t74.5 12q45 0 77 -11t53 -30t31 -44t10 -52 q0 -36 -13 -60t-31.5 -39.5t-39 -24t-35.5 -13.5l82 -84q13 17 17.5 35t4.5 39h119z" />
<glyph horiz-adv-x="810" d="M210 422v-109h245v-115h-245v-198h-140v537h405v-115h-265zM600 0v537h140v-537h-140z" />
<glyph horiz-adv-x="1015" d="M210 422v-109h245v-115h-245v-198h-140v537h405v-115h-265zM740 537v-420h255v-117h-395v537h140z" />
<glyph horiz-adv-x="430" d="M15 469q9 16 28.5 31t45.5 25.5t56 17t60 6.5q39 0 76 -10t65.5 -30.5t46 -53t17.5 -76.5q0 -24 -7 -43t-19 -35t-27 -27.5t-31 -19.5q-37 -20 -84 -29v-62h-115v139q21 0 47 2t48 9.5t37 21.5t15 38q0 25 -21.5 43.5t-67.5 18.5q-18 0 -34.5 -7.5t-29.5 -17.5 t-21.5 -21.5t-10.5 -18.5zM253 57q0 -32 -20.5 -49.5t-49.5 -17.5q-27 0 -48.5 17.5t-21.5 49.5q0 30 21 47.5t48 17.5q29 0 50 -17.5t21 -47.5z" />
<glyph horiz-adv-x="430" d="M415.001 68.0283q-8.99902 -15.999 -28.498 -30.998t-45.4971 -25.498q-25.999 -10.499 -55.9971 -16.999t-59.9961 -6.5q-38.998 0 -75.9951 10q-36.998 9.99902 -65.4961 30.498q-28.499 20.498 -45.9971 52.9961q-17.499 32.498 -17.499 76.4961 q0 23.998 6.99902 42.9971q7 18.999 18.999 34.998t26.998 27.498t30.998 19.499q36.998 19.999 83.9951 28.998v61.9961h114.993v-138.991q-20.999 0 -46.9971 -2q-25.999 -2 -47.9971 -9.49902q-21.999 -7.5 -36.998 -21.499t-14.999 -37.998q0 -24.998 21.499 -43.4971 q21.498 -18.499 67.4961 -18.499q17.998 0 34.4971 7.5q16.499 7.49902 29.499 17.499q12.999 9.99902 21.498 21.498q8.5 11.5 10.5 18.499zM177.016 480.004q0 31.998 20.499 49.4961q20.498 17.499 49.4961 17.499q26.999 0 48.4971 -17.499 q21.499 -17.498 21.499 -49.4961q0 -29.999 -20.999 -47.4971q-20.998 -17.499 -47.9971 -17.499q-28.998 0 -49.9971 17.499q-20.998 17.498 -20.998 47.4971z" />
<glyph horiz-adv-x="240" d="M60 169v368h120v-368h-120zM190 56q0 -30 -19.5 -48t-49.5 -18q-27 0 -49 18t-22 48q0 29 22 47t49 18q30 0 49.5 -18t19.5 -47z" />
<glyph horiz-adv-x="240" d="M180.004 368.011v-367.978h-119.993v367.978h119.993zM50.0117 481.004q0 29.998 19.499 47.9961q19.498 17.999 49.4971 17.999q26.998 0 48.9961 -17.999q21.999 -17.998 21.999 -47.9961q0 -28.999 -21.999 -46.998q-21.998 -17.998 -48.9961 -17.998 q-29.999 0 -49.4971 17.998q-19.499 17.999 -19.499 46.998z" />
<glyph horiz-adv-x="640" d="M320 663q57 0 106.5 -22.5t85.5 -66t57 -106t21 -143.5t-21 -144t-57 -105.5t-85.5 -65t-106.5 -22.5t-106.5 22.5t-85.5 65t-57 105.5t-21 144q0 84 21 147.5t57 105.5t85.5 63.5t106.5 21.5zM320 108q57 0 93.5 53t36.5 164q0 109 -36.5 163.5t-93.5 54.5 q-58 0 -94 -54.5t-36 -163.5q0 -111 36 -164t94 -53z" />
<glyph horiz-adv-x="385" d="M164 0v493q-11 -6 -31 -12t-42.5 -11.5t-43.5 -8.5t-33 -3l-14 114q30 1 61.5 8t58.5 18t46 25t25 28h108v-651h-135z" />
<glyph horiz-adv-x="550" d="M61 406q-5 18 -9 40.5t-4 41.5q0 38 17.5 70t47.5 55.5t71 36.5t88 13t88.5 -13.5t72 -39t48.5 -63t18 -86.5q0 -41 -12.5 -78.5t-33.5 -70t-47.5 -60.5t-53.5 -51q-64 -54 -146 -94h295v-107h-449v93q85 56 153 118q28 26 55.5 56t49.5 62t35 65t13 66q0 41 -22 68.5 t-70 27.5q-45 0 -72 -25t-27 -66q0 -17 4.5 -40t12.5 -39l-123 20v0z" />
<glyph horiz-adv-x="550" d="M350 481q0 13 -5 26.5t-16 25t-28 18.5t-40 7q-29 0 -50.5 -10.5t-36 -24.5t-21.5 -27t-8 -19q-25 17 -45.5 33t-44.5 34q9 22 27 43t45 37.5t62.5 27t79.5 10.5q54 0 94.5 -14t67 -37t39.5 -53.5t13 -63.5q0 -38 -17.5 -64t-40.5 -43t-46 -26.5t-35 -13.5 q25 -6 54.5 -16t54.5 -28.5t41.5 -48t16.5 -74.5q0 -42 -18 -77.5t-51 -61t-78.5 -40t-99.5 -14.5q-56 0 -95.5 11t-66 27t-42 33.5t-22.5 29.5l71 98q5 -13 18 -29t33 -29.5t45.5 -22.5t55.5 -9q26 0 45.5 7.5t33 20t20.5 28t7 31.5q0 51 -33.5 75.5t-94.5 24.5 q-12 0 -25 -1t-25 -2.5t-21 -2.5t-13 -2q2 28 4 55.5t4 55.5q1 0 6.5 -0.5t12.5 -1t14 -0.5h12q75 0 108.5 27.5t33.5 69.5z" />
<glyph horiz-adv-x="600" d="M580 126h-87v-126h-123v126h-292l-33 96l35 51l260 378h153v-415h87v-110zM370 236v282l-198 -282h198z" />
<glyph horiz-adv-x="570" d="M214 419q21 8 43.5 12t45.5 4q43 0 85 -14t75 -42t53.5 -69t20.5 -96q0 -53 -19.5 -95t-53.5 -71t-80 -44.5t-98 -15.5q-66 0 -112 15.5t-75 35.5q-34 23 -55 52l102 96q14 -28 33 -49q17 -18 41.5 -33t58.5 -15q60 0 89.5 32.5t29.5 81.5q0 59 -27.5 94.5t-88.5 35.5 q-29 0 -51.5 -8.5t-38.5 -19.5q-18 -12 -33 -27l-80 48l43 324h392v-105h-282l-18 -127v0z" />
<glyph horiz-adv-x="600" d="M307 -12q-78 0 -128.5 26.5t-80 71t-40.5 103t-11 121.5q0 34 3.5 73.5t13.5 79t28.5 75.5t49 63.5t74.5 44t105 16.5q63 0 106.5 -17.5t70.5 -38.5q32 -25 51 -56l-126 -64q-7 20 -21 37q-12 14 -33 26t-54 12q-39 0 -63.5 -21t-38.5 -53t-20 -71t-7 -76l10 14 t30.5 30.5t50.5 30t71 13.5q54 0 94.5 -17.5t67.5 -46.5t40 -67.5t13 -81.5q0 -29 -11.5 -68.5t-40 -74.5t-78.5 -59.5t-126 -24.5zM423 203q0 51 -30.5 86.5t-91.5 35.5q-23 0 -43.5 -10t-36 -26.5t-24.5 -38t-9 -43.5q0 -24 8 -45.5t23 -37.5t36 -25t46 -9q61 0 91.5 32.5 t30.5 80.5z" />
<glyph horiz-adv-x="560" d="M536 651v-92q-55 -72 -101 -160q-20 -38 -39 -82.5t-34.5 -94.5t-26 -106t-13.5 -116h-140q2 61 12 116.5t25.5 105t34 92t38.5 78.5q46 84 102 149h-359v110h501z" />
<glyph horiz-adv-x="600" d="M430 348q37 -15 67 -38q26 -20 47 -51.5t21 -76.5q0 -47 -20.5 -83t-56.5 -60.5t-84.5 -37.5t-104.5 -13q-59 0 -107.5 13.5t-83.5 38t-54.5 60t-19.5 79.5q0 46 20.5 78.5t45.5 52.5q29 24 67 38q-29 12 -52 31q-20 17 -35.5 43.5t-15.5 64.5q0 36 17.5 68t48.5 56 t74.5 38t94.5 14q50 0 93.5 -13t75 -36t49.5 -54.5t18 -68.5q0 -42 -16.5 -68.5t-36.5 -43.5q-23 -19 -52 -31zM201 478q0 -38 24.5 -61t73.5 -23t74 23t25 61t-25 61.5t-74 23.5t-73.5 -23.5t-24.5 -61.5zM174 190q0 -47 32.5 -74t92.5 -27t93 27t33 74q0 48 -33 76t-93 28 t-92.5 -28t-32.5 -76z" />
<glyph horiz-adv-x="600" d="M293 662q75 0 125 -26.5t80 -71t42.5 -103t12.5 -121.5q0 -34 -3.5 -73.5t-13.5 -79t-28.5 -75.5t-49 -63.5t-74.5 -44t-105 -16.5q-64 0 -107 17.5t-70 38.5q-32 25 -51 56l126 64q7 -21 21 -38q12 -14 33 -25.5t54 -11.5q39 0 63.5 19t38.5 49.5t19.5 68t7.5 74.5 l-8.5 -13t-27 -28t-47.5 -27.5t-69 -12.5q-54 0 -96 17.5t-70.5 47.5t-43.5 69t-15 82q0 29 11.5 68t40 74.5t78 60t126.5 24.5zM177 447q0 -26 7.5 -49.5t23 -42t38.5 -29.5t53 -11q23 0 43.5 10t36 26.5t24.5 37.5t9 44q0 24 -8 47t-23 41t-36 28.5t-46 10.5 q-61 0 -91.5 -32.5t-30.5 -80.5z" />
<glyph horiz-adv-x="548" d="M417 380q-33 28 -65 43.5t-82 15.5q-40 0 -56 -15.5t-16 -32.5q0 -20 23 -33.5t57.5 -24.5t75 -22.5t75 -29.5t57.5 -45t23 -68q0 -36 -18 -69t-50 -57.5t-77.5 -39t-99.5 -14.5q-53 0 -90.5 7.5t-64.5 19.5t-45 27t-31 29l90 94q21 -25 59.5 -45.5t102.5 -20.5 q37 0 60.5 11t23.5 38q0 20 -22.5 33.5t-57 24.5t-74 23t-74 30.5t-57 46t-22.5 69.5q0 37 16.5 69t46 55t71 36.5t91.5 13.5q43 0 75.5 -7t57.5 -18.5t42.5 -25t30.5 -26.5zM219 -258l11 176l120 -19l-54 -170z" />
<glyph horiz-adv-x="495" d="M220 537v-175l70 21v-93l-70 -20v-153h255v-117h-395v242l-70 -20v93l70 19v203h140z" />
<glyph horiz-adv-x="420" d="M127 0h-99l300 537h102z" />
<glyph horiz-adv-x="920" d="M363 0h-99l300 537h102zM361 363q0 -84 -44 -133.5t-119 -49.5q-38 0 -69 13t-52.5 37t-33.5 57.5t-12 75.5q0 83 45.5 132t121.5 49q75 0 119 -49t44 -132zM262 362q0 47 -17 74.5t-49 27.5t-49.5 -27.5t-17.5 -74.5q0 -46 17.5 -73.5t49.5 -27.5t49 27.5t17 73.5z M890 172q0 -84 -44 -133.5t-119 -49.5q-38 0 -69 13t-52.5 37t-33.5 57.5t-12 75.5q0 83 45.5 132t121.5 49q75 0 119 -49t44 -132zM791 171q0 47 -17 74.5t-49 27.5t-49.5 -27.5t-17.5 -74.5q0 -46 17.5 -73.5t49.5 -27.5t49 27.5t17 73.5z" />
<glyph horiz-adv-x="920" d="M53 267h98v164q-6 -3 -19 -7.5t-28.5 -8.5t-31 -6.5t-26.5 -2.5l-15 82q15 0 35.5 4.5t41 11.5t37 16t22.5 18h83v-271h93v-78h-290v78zM713 350h121v-213h56v-78h-56v-58h-88v58h-179l-23 55l31 44zM746 273l-93 -136h93v136zM363 0h-99l300 537h102z" />
<glyph horiz-adv-x="920" d="M53 267h98v164q-6 -3 -19 -7.5t-28.5 -8.5t-31 -6.5t-26.5 -2.5l-15 82q15 0 35.5 4.5t41 11.5t37 16t22.5 18h83v-271h93v-78h-290v78zM586 226q-2 10 -3.5 14.5t-1.5 13.5q0 18 9 36t27.5 33t45.5 24.5t63 9.5q26 0 50.5 -7t43.5 -21t30.5 -34t11.5 -47 q0 -29 -11.5 -51.5t-31.5 -42t-47 -38t-58 -38.5h176v-77h-297v83q25 13 56.5 30t58.5 36.5t45.5 40t18.5 41.5q0 22 -13.5 36.5t-39.5 14.5q-24 0 -40 -13t-16 -34q0 -13 5 -30zM363 0h-99l300 537h102z" />
<glyph horiz-adv-x="920" d="M713 350h121v-213h56v-78h-56v-58h-88v58h-179l-23 55l31 44zM746 273l-93 -136h93v136zM363 0h-99l300 537h102zM50 487q14 25 51.5 41t84.5 16q29 0 53 -6.5t41.5 -18t27.5 -27t10 -33.5q0 -23 -10.5 -38.5t-22.5 -25.5q-15 -11 -33 -18q24 -2 43 -13q17 -9 30.5 -26.5 t13.5 -49.5q0 -27 -16.5 -47.5t-41.5 -34t-54 -20t-55 -6.5q-46 0 -74 11t-53 31l40 63q15 -14 40.5 -23t52.5 -9t46.5 11t19.5 34q0 17 -16 28t-38 11q-14 0 -26 -1t-21 -3q-11 -2 -20 -4l6 69q2 -1 16.5 -2.5t29.5 -1.5q20 0 35 11t15 28t-18.5 27t-40.5 10 q-30 0 -54 -14.5t-29 -28.5z" />
<glyph horiz-adv-x="590" d="M294 549q55 0 102 -16.5t81.5 -50.5t53.5 -86.5t19 -124.5q0 -73 -19 -126t-53.5 -88t-81.5 -52t-102 -17t-101.5 17t-80 52t-52.5 88t-19 126t19 125.5t52.5 86.5t80 50t101.5 16zM294 93q65 0 95 42.5t30 134.5t-30 133t-95 41q-63 0 -92.5 -41.5t-29.5 -132.5 t29.5 -134t92.5 -43z" />
<glyph horiz-adv-x="454" d="M45 105h141v284q-26 -11 -59 -19.5t-62 -8.5l-25 100q22 0 48 6t50.5 16.5t45 24t32.5 29.5h109v-432h114v-105h-394v105z" />
<glyph horiz-adv-x="500" d="M40 392q0 29 12 57.5t36.5 50.5t62 35.5t88.5 13.5q40 0 78.5 -9.5t68.5 -30t48 -53.5t18 -80q0 -42 -17 -80t-46.5 -71.5t-68 -62.5t-81.5 -53h229v-109h-414v87q54 28 103.5 59.5t87.5 66t61 71.5t23 75q0 45 -24 65t-66 20q-44 0 -66.5 -21.5t-22.5 -55.5 q0 -11 3.5 -28.5t8.5 -25.5l-103 20q-10 11 -14.5 28t-4.5 31z" />
<glyph horiz-adv-x="500" d="M306 388q0 11 -4 22t-13.5 20t-25 14.5t-38.5 5.5t-39 -5t-27.5 -13t-19.5 -19t-15 -24l-87 68q12 22 32 39t45 29t54 18t58 6q51 0 89.5 -11t64.5 -30t39 -43t13 -51q0 -36 -17.5 -60.5t-37.5 -38.5q-25 -17 -55 -26q38 -5 68 -21q26 -14 47 -41t21 -74q0 -38 -17 -68.5 t-49 -52t-77.5 -33t-102.5 -11.5q-51 0 -85 11.5t-56 25.5q-26 17 -41 38l81 77q14 -25 40 -42.5t73 -17.5q49 0 74.5 22.5t25.5 54.5q0 33 -19.5 54t-67.5 21q-17 0 -33.5 -2t-29.5 -4q-15 -3 -29 -6l8 97q15 -5 31 -6t30 -1q53 0 72.5 22.5t19.5 55.5z" />
<glyph horiz-adv-x="530" d="M495 112h-82v-112h-122v112h-248l-33 82l27 36l231 307h145v-331h82v-94zM296 196v228l-169 -228h169z" />
<glyph horiz-adv-x="510" d="M280 346q40 0 76 -8.5t63 -28.5t42.5 -52t15.5 -80q0 -42 -16.5 -77t-47 -60t-75 -38.5t-99.5 -13.5q-38 0 -67.5 5t-52.5 14t-41 21.5t-33 26.5l81 77q10 -9 20.5 -18.5t24 -17t30.5 -12t40 -4.5q48 0 77.5 24t29.5 66q0 36 -26 64t-84 28q-27 0 -46 -7t-31 -15 q-14 -10 -23 -22l-80 56l44 263h354v-107h-265l-15 -103q10 5 25 9q13 4 32.5 7t46.5 3z" />
<glyph horiz-adv-x="530" d="M312 341q51 0 84.5 -17t53.5 -43.5t28 -57.5t8 -59q0 -23 -9.5 -53t-34 -57.5t-66.5 -46.5t-107 -19q-66 0 -110.5 17.5t-72 51t-39.5 82.5t-12 112q0 57 14 111t46 95.5t83.5 66.5t126.5 25q30 0 56 -6t47 -14.5t36 -19t22 -19.5l-68 -83q-14 16 -43 27.5t-72 11.5 q-35 0 -58 -14t-37.5 -37.5t-20.5 -54.5t-7 -64l8.5 10.5t26.5 22.5t47 22t70 10zM263 76q18 0 34.5 4t30 14.5t21.5 27t8 42.5q0 25 -8 42.5t-21.5 28t-30 15.5t-34.5 5q-35 0 -61.5 -21t-26.5 -64t25 -68.5t63 -25.5z" />
<glyph horiz-adv-x="454" d="M444 537v-92q-45 -40 -78 -90.5t-54 -108t-31 -120t-10 -126.5h-136q0 57 13.5 120t36.5 121.5t55 108t68 80.5h-298v107h434z" />
<glyph horiz-adv-x="530" d="M497 154q0 -41 -18.5 -72t-49.5 -52t-72.5 -31.5t-86.5 -10.5q-48 0 -91 9t-75 28t-51 49t-19 73q0 39 19.5 65t42.5 42q27 18 63 28q-27 7 -48 22q-18 13 -32.5 34t-14.5 55t15.5 63t42.5 49.5t64 32t81 11.5q43 0 80.5 -10.5t65.5 -30t44 -47t16 -62.5q0 -33 -16 -55 t-36 -36q-23 -16 -51 -26q35 -8 63 -25q24 -14 44 -39t20 -64zM187 398q0 -38 24.5 -54.5t56.5 -16.5t57 16.5t25 54.5t-25 53t-57 15t-56.5 -15.5t-24.5 -52.5zM164 148q0 -37 29 -54.5t72 -17.5q42 0 72 17.5t30 54.5q0 42 -29 60.5t-73 18.5q-45 0 -73 -18.5t-28 -60.5z " />
<glyph horiz-adv-x="530" d="M261 549q66 0 110.5 -17.5t72 -51t39.5 -82.5t12 -112q0 -57 -13 -111t-43 -95.5t-80.5 -66.5t-125.5 -25q-60 0 -106 18.5t-64 40.5l68 83q18 -20 44 -29.5t55 -9.5q41 0 68 14t42.5 37.5t22 54.5t7.5 64l-8.5 -10.5t-26.5 -22.5t-47 -22t-70 -10q-51 0 -84.5 17 t-53.5 43.5t-28 57.5t-8 59q0 22 9.5 52.5t34 58t66.5 46.5t107 19zM268 282q35 0 61.5 21t26.5 64t-25 68.5t-63 25.5q-18 0 -34.5 -4t-29.5 -14.5t-21 -27.5t-8 -42t8 -42.5t21 -28t29.5 -15.5t34.5 -5z" />
<glyph horiz-adv-x="558" d="M277 231q5 -14 10.5 -31.5t5.5 -34.5q0 -14 -3 -24t-6 -17q-4 -8 -8 -14q10 -7 22 -11q11 -5 25 -8t31 -3q20 0 31 9.5t16 21.5q6 13 8 31h119q0 -31 -8 -60t-26 -51.5t-47.5 -36.5t-72.5 -14q-32 0 -57.5 7.5t-43.5 16.5q-21 11 -38 25q-11 -14 -28 -25 q-14 -9 -35.5 -16.5t-51.5 -7.5q-43 0 -71.5 24.5t-28.5 65.5q0 23 9 39.5t23.5 27.5t31 16.5t31.5 5.5q17 0 31 -4.5t24 -9.5q11 -6 20 -13q1 6 2 11t1.5 10t0.5 10q0 15 -6 31t-13 29h-106v61h70q-8 14 -15.5 37t-7.5 50q0 28 9.5 58t32 55t60.5 40.5t94 15.5 q66 0 105.5 -18t60.5 -40q25 -26 34 -57l-86 -70q-5 23 -17 41q-11 16 -31.5 29t-55.5 13q-26 0 -44 -7t-29 -18.5t-16 -27t-5 -32.5q0 -20 6 -38t13 -31h184v-61h-154zM113 78q0 -10 6.5 -13t16.5 -3q11 0 17 2t11 5l8 8q-5 3 -11 7q-5 2 -12 4.5t-15 2.5q-7 0 -14 -2.5 t-7 -10.5z" />
<glyph horiz-adv-x="622" d="M52 350h107l-119 187h141l132 -220l131 220h138l-119 -187h103v-61h-141l-36 -56h177v-61h-184v-172h-141v172h-189v61h181l-35 56h-146v61z" />
<glyph horiz-adv-x="621" d="M580 77q-18 -18 -38 -32.5t-45 -25t-56.5 -17.5t-71.5 -10v-94h-70v96q-59 6 -107 27.5t-83 57t-54 83.5t-19 108q0 61 19.5 109t54.5 83t83 56t106 27v91h70v-89q48 -3 81 -10.5t56 -18.5t40 -26.5t34 -33.5l-87 -96q-18 17 -32 29t-27.5 19.5t-28.5 11t-36 4.5v-314 q38 6 68 21t44 40zM299 424q-61 -11 -90 -49.5t-29 -100.5q0 -63 30 -103.5t89 -54.5v308z" />
</font>
</defs>
</svg>
