<?xml version="1.0" encoding="utf-8"?>
<!-- Generator: Adobe Illustrator 16.0.0, SVG Export Plug-In . SVG Version: 6.00 Build 0)  -->
<!DOCTYPE svg PUBLIC "-//W3C//DTD SVG 1.1//EN" "http://www.w3.org/Graphics/SVG/1.1/DTD/svg11.dtd">
<svg version="1.1" id="Layer_1" xmlns="http://www.w3.org/2000/svg" xmlns:xlink="http://www.w3.org/1999/xlink" x="0px" y="0px"
	 width="256px" height="256px" viewBox="0 0 256 256" enable-background="new 0 0 256 256" xml:space="preserve">
<g>
	<path id="Handle_Touching" fill="#537508" d="M174.209,210.394c-2.32,0.675-1.974,1.546-1.668,2.771
		c0.429,1.728,0.092,3.568-0.951,5.183c-1.037,1.606-2.664,2.784-4.47,3.233c-1.806,0.448-3.795,0.17-5.463-0.764
		c-1.677-0.941-2.836-2.408-3.266-4.137l-21.306-88.023c-1.468,0.366-2.941,0.759-4.423,1.169l21.289,87.958
		c0.737,2.966,2.68,5.461,5.47,7.024c1.829,1.022,3.908,1.555,5.977,1.555c0.953,0,1.903-0.114,2.825-0.344
		c2.921-0.726,5.548-2.617,7.21-5.191c1.733-2.687,2.283-5.8,1.545-8.767C176.675,210.836,176.527,209.719,174.209,210.394z"/>
	<path id="underside_black" fill="#537508" d="M252.543,92.842l-1.749-0.505c-7.719-8.387-2.907-15.31-1.044-17.421l2.753-0.384
		c0.156-0.022,0.266-0.166,0.245-0.323c-0.023-0.155-0.158-0.264-0.323-0.244l-2.035,0.284l0.001,0
		c-32.59-0.857-46.598,0.572-77.758,8.291c-48.027,4.288-90.051,17.153-112.064,31.732c-26.163,5.934-53.077,26.873-56.037,29.22
		l-1.606,0.676c-0.146,0.062-0.215,0.229-0.153,0.375c0.045,0.108,0.151,0.175,0.263,0.175c0.037,0,0.075-0.007,0.111-0.021
		l3.454-1.452c4.957-0.775,16.364-1.281,20.442,9.269l-0.687,1.674c-0.06,0.146,0.01,0.312,0.157,0.373
		c0.035,0.015,0.072,0.021,0.108,0.021c0.112,0,0.219-0.066,0.265-0.177l0.644-1.569c22.222-9.377,48.063-11.749,72.063-9.149
		l0.508,1.893c0.035,0.128,0.15,0.213,0.276,0.213c0.024,0,0.049-0.004,0.074-0.009c0.152-0.042,0.243-0.199,0.202-0.352
		l-0.491-1.829c31.382-15.828,58.831-18.915,86.073-20.068l1.104,1.488c0.056,0.076,0.143,0.115,0.23,0.115
		c0.06,0,0.119-0.019,0.169-0.056c0.128-0.094,0.154-0.273,0.061-0.4l-0.992-1.335c15.509-16.689,43.746-26.146,63.755-30.479
		l1.822,0.526c0.027,0.008,0.053,0.011,0.079,0.011c0.123,0,0.239-0.081,0.274-0.207C252.782,93.044,252.694,92.886,252.543,92.842z
		"/>
	<path id="Top_Solid" fill="#537508" d="M4.251,142.574c0,0,28.588-23.157,56.318-29.446c22.013-14.58,64.037-27.444,112.064-31.732
		c31.16-7.719,45.168-9.148,77.758-8.291c-22.584-14.294-56.603-34.019-108.918-24.585c-11.864-0.572-20.918,2.858-24.729,5.718
		c-13.408,1.571-27.873,3.859-37.593,13.15C36.269,85.398,18.831,115.987,4.251,142.574z"/>
	<path id="Spike_1_" fill="#537508" d="M109.883,29.724c-0.929,0.286,3.073,21.94,3.073,21.94v0l0.457,1.839
		c1.115-0.143,2.227-0.28,3.331-0.409c0.324-0.243,0.699-0.491,1.097-0.739l-0.444-1.787
		C117.369,50.479,110.81,29.438,109.883,29.724z"/>
</g>
</svg>
